<?xml version="1.0" encoding="UTF-8"?>
<!DOCTYPE svg PUBLIC "-//W3C//DTD SVG 1.1//EN" "http://www.w3.org/Graphics/SVG/1.1/DTD/svg11.dtd">
<!-- Creator: CorelDRAW 2018 (64-Bit) -->
<svg xmlns="http://www.w3.org/2000/svg" xml:space="preserve" width="1559px" height="59px" version="1.1" style="shape-rendering:geometricPrecision; text-rendering:geometricPrecision; image-rendering:optimizeQuality; fill-rule:evenodd; clip-rule:evenodd"
viewBox="0 0 1559 59.05"
 xmlns:xlink="http://www.w3.org/1999/xlink">
 <defs>
  <style type="text/css">
   <![CDATA[
    .fil0 {fill:#2B2A29;fill-rule:nonzero}
   ]]>
  </style>
 </defs>
 <g id="Layer_x0020_1">
  <metadata id="CorelCorpID_0Corel-Layer"/>
  <polygon class="fil0" points="4.64,44.06 4.64,39.06 9.64,39.06 9.64,44.06 "/>
  <path id="1" class="fil0" d="M30.83 36.91l-10.9 0c-0.93,0 -1.76,-0.27 -2.5,-0.81 -0.74,-0.53 -1.11,-1.17 -1.11,-1.9 0,-0.62 0.03,-1.17 0.1,-1.68 0.07,-0.5 0.19,-1.06 0.37,-1.66l0.49 0c0.19,0.67 0.51,1.14 0.98,1.43 0.39,0.24 0.93,0.37 1.62,0.37l9.45 0c0,-2.92 -0.4,-5.26 -1.22,-7.03 -1.02,-2.21 -2.71,-3.69 -5.08,-4.42l0.38 -4.75c2.82,1.38 4.82,3.59 6,6.62 0.95,2.45 1.42,5.64 1.42,9.58l0 4.25zm-6.5 -28.73l-1.88 3.53 -3.92 -2.04 1.8 -3.56 4 2.07z"/>
  <path id="2" class="fil0" d="M43.05 36.91l-13.9 0 0 -4.25 12.15 0c0,-1.92 -0.23,-3.38 -0.69,-4.38 -0.31,-0.7 -1.08,-1.7 -2.31,-3.02l1.92 -4c1.16,1.48 1.89,2.63 2.18,3.47 0.43,1.25 0.65,3.32 0.65,6.22l0 5.96zm-0.25 4.8l-1.8 3.55 -4 -2.05 1.85 -3.55 3.95 2.05zm-5.55 2.25l-1.81 3.5 -3.99 -2.08 1.88 -3.52 3.92 2.1z"/>
  <path id="3" class="fil0" d="M56.21 36.91l-14.85 0 0 -4.25 8.37 0c1.01,0 1.87,-0.03 2.58,-0.11 0.71,-0.07 1.48,-0.23 2.31,-0.47 -2.8,-0.41 -4.62,-0.79 -5.45,-1.15 -1.88,-0.81 -2.81,-2.19 -2.81,-4.14 0,-1.71 0.45,-3.31 1.34,-4.82 1.02,-1.71 2.24,-2.56 3.69,-2.56 1.67,0 2.93,1.06 3.79,3.17 0.69,1.67 1.03,3.65 1.03,5.92l0 8.41zm-2.2 -8.5c-0.38,-1.31 -0.74,-2.28 -1.08,-2.92 -0.66,-1.22 -1.47,-1.83 -2.41,-1.83 -0.45,0 -0.85,0.18 -1.17,0.54 -0.33,0.36 -0.49,0.78 -0.49,1.27 0,1.24 0.64,2.07 1.92,2.5 0.46,0.15 1.54,0.29 3.23,0.44zm-0.05 -17.53l-1.89 3.53 -3.91 -2.04 1.79 -3.56 4.01 2.07z"/>
  <path id="4" class="fil0" d="M68.39 36.91l-13.9 0 0 -4.25 12.15 0c0,-1.92 -0.23,-3.38 -0.69,-4.38 -0.31,-0.7 -1.08,-1.7 -2.31,-3.02l1.92 -4c1.16,1.48 1.89,2.63 2.18,3.47 0.43,1.25 0.65,3.32 0.65,6.22l0 5.96zm-2 -22.58l-1.88 3.53 -3.92 -2.04 1.79 -3.56 4.01 2.07z"/>
  <path id="5" class="fil0" d="M80.6 36.91l-13.9 0 0 -4.25 12.15 0c0,-1.92 -0.24,-3.38 -0.69,-4.38 -0.31,-0.7 -1.08,-1.7 -2.31,-3.02l1.92 -4c1.16,1.48 1.89,2.63 2.18,3.47 0.43,1.25 0.65,3.32 0.65,6.22l0 5.96zm-0.15 -24.15l-1.8 3.55 -4 -2.05 1.85 -3.55 3.95 2.05zm-5.55 2.25l-1.81 3.5 -3.99 -2.08 1.88 -3.52 3.92 2.1z"/>
  <path id="6" class="fil0" d="M90.95 36.91l-12.04 0 0 -4.25 9.6 0 -3 -20.77 -1.26 -0.6c0,-1.11 0.1,-2.16 0.3,-3.15 0.2,-0.97 0.49,-1.93 0.88,-2.85l0.38 0.27c0,0.94 0.53,1.65 1.6,2.13 0.82,0.32 1.65,0.64 2.49,0.97 0,0.81 -0.06,1.67 -0.19,2.58 -0.13,0.93 -0.29,1.61 -0.47,2.06l-1.18 -0.39 2.89 19.21 0 4.79z"/>
  <path id="7" class="fil0" d="M99.2 30.68c0,1.3 -0.24,2.56 -0.71,3.78 -0.25,0.65 -0.79,1.68 -1.61,3.1l-0.44 -0.24c0.06,-0.48 0.11,-1.02 0.15,-1.64 0.04,-0.62 0.06,-1.04 0.06,-1.25 0,-1.69 -0.13,-4.05 -0.4,-7.09 -0.27,-3.03 -0.59,-6.2 -0.96,-9.51 -0.24,-2 -0.49,-4.04 -0.76,-6.12 0.32,-0.72 0.7,-1.48 1.12,-2.32 0.41,-0.82 0.8,-1.6 1.18,-2.33 0.26,1.85 0.59,4.39 0.99,7.61 0.4,3.22 0.72,6.12 0.94,8.71 0.29,3.22 0.44,5.65 0.44,7.3z"/>
  <path id="8" class="fil0" d="M141.49 36.91l-3.34 0c-1.98,0 -3.38,-0.37 -4.2,-1.1 -0.84,-0.73 -1.25,-1.95 -1.25,-3.65 0,-0.63 0.08,-1.43 0.24,-2.38 0.06,-0.35 0.15,-0.83 0.27,-1.41 -2.78,0.85 -4.88,1.57 -6.3,2.17 -2.61,1.11 -4.62,2.36 -6.06,3.77 -1.8,1.76 -2.7,3.76 -2.7,6.01 0,3.5 1.82,6.13 5.46,7.89 3.17,1.53 7.4,2.3 12.7,2.3l4.48 0 0.15 0.26 -5.5 3.89 -1.42 0c-3.52,0 -6.43,-0.33 -8.77,-0.98 -2.77,-0.78 -4.88,-2.04 -6.31,-3.76 -1.63,-1.97 -2.44,-4.58 -2.44,-7.82 0,-2.79 0.69,-5.22 2.07,-7.31 1.08,-1.63 2.65,-3.12 4.72,-4.47 0.61,-0.41 2.28,-1.34 5.03,-2.81 -0.65,-0.08 -1.33,-0.16 -2.06,-0.22 -0.72,-0.06 -1.38,-0.08 -1.96,-0.08 -1.65,0 -2.98,0.07 -4,0.22 -0.35,0.05 -1.41,0.27 -3.2,0.66 0.55,-1.6 1.13,-2.71 1.73,-3.32 1.35,-1.38 3.47,-2.06 6.35,-2.06 1.57,0 3.28,0.15 5.12,0.46 1.84,0.31 3.39,0.46 4.64,0.46 0.83,0 1.64,-0.04 2.43,-0.1 0.78,-0.07 1.62,-0.15 2.47,-0.27l-0.97 4.15c-0.67,0.08 -1.42,0.2 -2.27,0.34 -0.53,0.1 -1.26,0.24 -2.2,0.42l-0.05 1.37c0,1.34 0.4,2.24 1.21,2.7 0.51,0.28 1.37,0.42 2.59,0.42l3.34 0 0 4.25zm-9.75 -22.73l-1.88 3.53 -3.91 -2.04 1.79 -3.56 4 2.07z"/>
  <path id="9" class="fil0" d="M153.69 36.91l-13.9 0 0 -4.25 12.15 0c0,-1.92 -0.24,-3.38 -0.7,-4.38 -0.3,-0.7 -1.07,-1.7 -2.3,-3.02l1.92 -4c1.16,1.48 1.88,2.63 2.18,3.47 0.43,1.25 0.65,3.32 0.65,6.22l0 5.96zm-0.25 4.8l-1.8 3.55 -4 -2.05 1.85 -3.55 3.95 2.05zm-5.55 2.25l-1.81 3.5 -3.99 -2.08 1.88 -3.52 3.92 2.1z"/>
  <path id="10" class="fil0" d="M178.14 36.9c0,1.79 -0.76,3.65 -2.3,5.57 -1.33,1.7 -2.99,3.15 -4.98,4.38 -1.88,1.17 -3.44,1.76 -4.67,1.76 -1.12,0 -2.33,-0.17 -3.64,-0.49 -0.99,-0.25 -2.18,-0.64 -3.57,-1.16 -1.16,-0.44 -2.33,-0.89 -3.49,-1.33l0.42 -0.97c1.08,0.21 2.19,0.43 3.36,0.66 1.17,0.22 2.22,0.34 3.16,0.34 2.09,0 4.26,-0.67 6.53,-2 2.06,-1.23 3.81,-2.77 5.26,-4.64 1.45,-1.86 2.17,-3.54 2.17,-5.04 0,-1.29 -0.37,-2.64 -1.11,-4.05 -0.6,-1.15 -1.45,-2.31 -2.54,-3.52l1.38 -3.85c1.33,1.24 2.31,2.47 2.95,3.72 0.71,1.4 1.07,2.96 1.07,4.69l0 5.93z"/>
  <path id="11" class="fil0" d="M189.63 36.91l-3.43 0c-1.12,0 -2.01,-0.45 -2.67,-1.34 -0.6,-0.79 -1.05,-1.94 -1.35,-3.49 -0.3,-1.55 -0.53,-3.45 -0.7,-5.71 -0.1,-1.84 -0.2,-3.72 -0.3,-5.66 -0.1,-1.93 -0.25,-3.4 -0.41,-4.4 -0.18,-1 -0.41,-1.82 -0.7,-2.45 -0.35,-0.78 -0.85,-1.47 -1.49,-2.05l2.98 -4.75c0.65,1.95 1.11,4.28 1.37,7 0.17,1.7 0.34,5.7 0.5,12.01 0.3,2.9 0.72,4.75 1.28,5.56 0.46,0.69 0.96,1.03 1.49,1.03l3.43 0 0 4.25z"/>
  <path id="12" class="fil0" d="M201.81 36.91l-13.9 0 0 -4.25 12.15 0c0,-1.92 -0.24,-3.38 -0.69,-4.38 -0.31,-0.7 -1.08,-1.7 -2.31,-3.02l1.92 -4c1.16,1.48 1.89,2.63 2.18,3.47 0.43,1.25 0.65,3.32 0.65,6.22l0 5.96zm-0.15 -24.15l-1.8 3.55 -4 -2.05 1.85 -3.55 3.95 2.05zm-5.55 2.25l-1.81 3.5 -3.99 -2.08 1.88 -3.52 3.92 2.1z"/>
  <path id="13" class="fil0" d="M220.21 23.11l0 -5 5 0 0 5 -5 0zm0 20.95l0 -5 5 0 0 5 -5 0z"/>
  <polygon id="14" class="fil0" points="233,54.01 233,8.26 242.7,8.26 242.7,11.91 237.4,11.91 237.4,50.36 242.7,50.36 242.7,54.01 "/>
  <polygon id="15" class="fil0" points="295.85,54.01 286.15,54.01 286.15,50.36 291.45,50.36 291.45,11.91 286.15,11.91 286.15,8.26 295.85,8.26 "/>
  <path id="16" class="fil0" d="M325.03 33.86c0,0.87 -0.32,1.64 -0.97,2.32 -0.65,0.69 -1.48,1.03 -2.51,1.03 -1.25,0 -2.29,-0.59 -3.12,-1.76 -0.83,-1.17 -1.25,-2.63 -1.25,-4.37 0,-2.44 0.72,-4.56 2.15,-6.39 0.7,-0.89 1.75,-1.84 3.15,-2.83l0.81 1.34c-0.96,0.88 -1.7,1.65 -2.21,2.3 -0.9,1.16 -1.35,2.18 -1.35,3.06 0,0.87 0.89,1.51 2.65,1.9 1.77,0.39 2.65,1.52 2.65,3.4z"/>
  <path id="17" class="fil0" d="M358.32 36.91l-4.26 0c-2.5,0 -4.39,0.07 -5.64,0.2 -1.26,0.12 -1.9,0.39 -1.9,0.78 0,0.54 0.76,0.82 2.28,0.82 0.67,0 1.19,0.01 1.58,0.05 0.4,0.03 1.25,0.11 2.57,0.26 0.78,0.1 1.32,0.22 1.62,0.37 0.47,0.24 0.7,0.67 0.7,1.27 0,3.04 -1,5.25 -3,6.63 -2.18,1.51 -5.78,2.27 -10.8,2.27 -3.5,0 -6.29,-0.59 -8.35,-1.78 -2.2,-1.27 -3.29,-3.08 -3.29,-5.42 0,-1.89 0.51,-3.88 1.54,-6 0.37,-0.76 1.35,-2.4 2.93,-4.9l0.97 0.48c-0.61,1.05 -1.21,2.1 -1.81,3.14 -0.93,1.79 -1.38,3.25 -1.38,4.39 0,2 1.04,3.51 3.12,4.56 1.99,0.99 4.72,1.48 8.19,1.48 2.33,0 4.39,-0.18 6.16,-0.54 2.18,-0.44 3.27,-1.03 3.27,-1.8 0,-0.27 -0.12,-0.48 -0.36,-0.61 -0.25,-0.14 -0.66,-0.21 -1.24,-0.21 -0.44,-0.05 -1.13,-0.1 -2.07,-0.16 -0.94,-0.06 -1.56,-0.08 -1.85,-0.08 -1.03,0 -1.77,-0.14 -2.21,-0.4 -0.44,-0.28 -0.67,-0.68 -0.67,-1.21 0,-2.02 0.6,-3.67 1.79,-4.96 0.97,-1.04 2.29,-1.81 3.93,-2.32 1.23,-0.38 2.54,-0.56 3.91,-0.56l4.27 0 0 4.25zm-10.09 15.64l-2.27 2.11 -2.74 -1.74 2.2 -2.31 2.81 1.94zm-5.06 0l-2.21 2.11 -2.84 -1.74 2.27 -2.31 2.78 1.94z"/>
  <path id="18" class="fil0" d="M378.04 36.91l-3.58 0c-1.06,0 -2.13,-0.25 -3.22,-0.76 -1.3,-0.6 -2.24,-1.44 -2.82,-2.52 -1.1,0.99 -2.35,1.74 -3.75,2.28 -1.7,0.67 -3.65,1 -5.83,1l-2.2 0 0 -4.25 2.2 0c1.37,0 2.64,-0.15 3.82,-0.44 1.33,-0.34 2.65,-0.88 3.93,-1.63l-1.03 -1.31c-0.53,-0.61 -1.12,-0.92 -1.77,-0.92 -0.3,0 -0.56,0.05 -0.79,0.16 -0.23,0.11 -0.48,0.33 -0.76,0.69l-0.5 0 0 -1.44c0,-1.8 0.48,-3.04 1.42,-3.7 0.86,-0.61 2.35,-0.91 4.48,-0.91 1.83,0 3.33,0.24 4.48,0.73 1.51,0.64 2.27,1.62 2.27,2.94 0,0.7 -0.3,1.42 -0.9,2.17 -0.43,0.55 -1.23,1.32 -2.4,2.3 0.26,0.38 0.76,0.71 1.5,0.97 0.74,0.26 1.36,0.39 1.87,0.39l3.58 0 0 4.25z"/>
  <path id="19" class="fil0" d="M407.14 36.91l-30.8 0 0 -4.25 3.74 -0.03c1.11,0 2.15,-0.14 3.11,-0.43 1.11,-0.34 2.37,-0.94 3.77,-1.8 0.3,-0.72 0.53,-1.49 0.71,-2.31 0.18,-0.82 0.27,-1.61 0.27,-2.38 0,-1.74 -0.16,-3.66 -0.48,-5.76 -0.25,-1.53 -0.61,-3.32 -1.1,-5.39 -0.26,-1.08 -0.6,-2.38 -1.02,-3.93l-1.5 -0.76c0.12,-0.98 0.28,-1.93 0.5,-2.84 0.22,-0.91 0.53,-1.79 0.92,-2.64 0.26,0.77 0.85,1.36 1.77,1.79 0.76,0.34 1.73,0.56 2.91,0.68 -0.16,1.67 -0.28,2.75 -0.37,3.2 -0.08,0.46 -0.23,1.02 -0.46,1.69 -0.11,-0.01 -0.41,-0.1 -0.9,-0.24l-0.32 -0.1c0.58,1.91 1.07,3.86 1.44,5.87 0.38,2.01 0.56,3.7 0.56,5.07 0,1.15 -0.12,2.44 -0.35,3.86 -0.08,0.5 -0.23,1.28 -0.45,2.34 2.84,-1.65 4.66,-2.66 5.46,-3.03 2.4,-1.14 4.46,-1.71 6.18,-1.71 2.19,0 3.83,0.64 4.93,1.92 0.99,1.18 1.48,2.85 1.48,5l0 6.18zm-3.85 -6.13c0,-0.82 -0.43,-1.45 -1.28,-1.88 -0.85,-0.42 -2.08,-0.64 -3.68,-0.64 -1.18,0 -2.55,0.26 -4.1,0.77 -1.27,0.43 -2.62,1.01 -4.05,1.75 -1.06,0.55 -2.15,1.18 -3.27,1.88l10.62 0c3.84,0 5.76,-0.63 5.76,-1.88z"/>
  <path id="20" class="fil0" d="M419.21 9.73l-2.08 3.28 -3.07 -2 2.11 -3.25 3.04 1.97zm-5.6 1.45l-1.93 3.33 -3.02 -1.98 2.04 -3.27 2.91 1.92zm6.65 25.73l-14.85 0 0 -4.25 8.38 0c1.01,0 1.87,-0.03 2.57,-0.11 0.71,-0.07 1.49,-0.23 2.31,-0.47 -2.8,-0.41 -4.61,-0.79 -5.45,-1.15 -1.87,-0.81 -2.81,-2.19 -2.81,-4.14 0,-1.71 0.45,-3.31 1.35,-4.82 1.01,-1.71 2.24,-2.56 3.69,-2.56 1.66,0 2.92,1.06 3.79,3.17 0.68,1.67 1.02,3.65 1.02,5.92l0 8.41zm-2.2 -8.5c-0.37,-1.31 -0.73,-2.28 -1.07,-2.92 -0.67,-1.22 -1.48,-1.83 -2.42,-1.83 -0.45,0 -0.84,0.18 -1.16,0.54 -0.33,0.36 -0.5,0.78 -0.5,1.27 0,1.24 0.65,2.07 1.93,2.5 0.46,0.15 1.53,0.29 3.22,0.44z"/>
  <path id="21" class="fil0" d="M430.6 36.91l-12.05 0 0 -4.25 9.6 0 -3 -20.77 -1.25 -0.6c0,-1.11 0.1,-2.16 0.29,-3.15 0.2,-0.97 0.49,-1.93 0.88,-2.85l0.38 0.27c0,0.94 0.53,1.65 1.6,2.13 0.82,0.32 1.65,0.64 2.5,0.97 0,0.81 -0.07,1.67 -0.2,2.58 -0.13,0.93 -0.29,1.61 -0.47,2.06l-1.18 -0.39 2.9 19.21 0 4.79z"/>
  <path id="22" class="fil0" d="M438.85 30.68c0,1.3 -0.25,2.56 -0.72,3.78 -0.25,0.65 -0.78,1.68 -1.61,3.1l-0.44 -0.24c0.06,-0.48 0.11,-1.02 0.15,-1.64 0.04,-0.62 0.07,-1.04 0.07,-1.25 0,-1.69 -0.14,-4.05 -0.4,-7.09 -0.28,-3.03 -0.6,-6.2 -0.97,-9.51 -0.23,-2 -0.48,-4.04 -0.76,-6.12 0.33,-0.72 0.7,-1.48 1.12,-2.32 0.41,-0.82 0.81,-1.6 1.18,-2.33 0.26,1.85 0.59,4.39 0.99,7.61 0.4,3.22 0.72,6.12 0.94,8.71 0.3,3.22 0.45,5.65 0.45,7.3z"/>
  <path id="23" class="fil0" d="M479.29 36.9c0,1.79 -0.77,3.65 -2.3,5.57 -1.34,1.7 -2.99,3.15 -4.99,4.38 -1.88,1.17 -3.44,1.76 -4.66,1.76 -1.13,0 -2.34,-0.17 -3.64,-0.49 -1,-0.25 -2.19,-0.64 -3.57,-1.16 -1.17,-0.44 -2.33,-0.89 -3.49,-1.33l0.41 -0.97c1.08,0.21 2.19,0.43 3.36,0.66 1.17,0.22 2.23,0.34 3.17,0.34 2.08,0 4.26,-0.67 6.52,-2 2.06,-1.23 3.81,-2.77 5.26,-4.64 1.45,-1.86 2.18,-3.54 2.18,-5.04 0,-1.29 -0.38,-2.64 -1.12,-4.05 -0.6,-1.15 -1.45,-2.31 -2.53,-3.52l1.37 -3.85c1.33,1.24 2.32,2.47 2.95,3.72 0.72,1.4 1.08,2.96 1.08,4.69l0 5.93z"/>
  <path id="24" class="fil0" d="M487.53 30.68c0,1.3 -0.24,2.56 -0.72,3.78 -0.25,0.65 -0.78,1.68 -1.61,3.1l-0.44 -0.24c0.06,-0.48 0.11,-1.02 0.15,-1.64 0.04,-0.62 0.07,-1.04 0.07,-1.25 0,-1.69 -0.14,-4.05 -0.4,-7.09 -0.28,-3.03 -0.59,-6.2 -0.97,-9.51 -0.23,-2 -0.48,-4.04 -0.76,-6.12 0.33,-0.72 0.7,-1.48 1.12,-2.32 0.42,-0.82 0.81,-1.6 1.18,-2.33 0.26,1.85 0.59,4.39 0.99,7.61 0.4,3.22 0.72,6.12 0.95,8.71 0.29,3.22 0.44,5.65 0.44,7.3z"/>
  <path id="25" class="fil0" d="M514.08 36.9c0,1.79 -0.77,3.65 -2.3,5.57 -1.34,1.7 -2.99,3.15 -4.99,4.38 -1.88,1.17 -3.44,1.76 -4.66,1.76 -1.13,0 -2.34,-0.17 -3.64,-0.49 -1,-0.25 -2.19,-0.64 -3.57,-1.16 -1.17,-0.44 -2.33,-0.89 -3.49,-1.33l0.41 -0.97c1.08,0.21 2.2,0.43 3.36,0.66 1.17,0.22 2.23,0.34 3.17,0.34 2.08,0 4.26,-0.67 6.52,-2 2.06,-1.23 3.81,-2.77 5.26,-4.64 1.45,-1.86 2.18,-3.54 2.18,-5.04 0,-1.29 -0.38,-2.64 -1.12,-4.05 -0.6,-1.15 -1.45,-2.31 -2.53,-3.52l1.37 -3.85c1.34,1.24 2.32,2.47 2.95,3.72 0.72,1.4 1.08,2.96 1.08,4.69l0 5.93z"/>
  <path id="26" class="fil0" d="M526.17 9.73l-2.08 3.28 -3.07 -2 2.11 -3.25 3.04 1.97zm-5.6 1.45l-1.94 3.33 -3.01 -1.98 2.03 -3.27 2.92 1.92zm6.65 25.73l-14.85 0 0 -4.25 8.37 0c1.01,0 1.87,-0.03 2.58,-0.11 0.71,-0.07 1.48,-0.23 2.31,-0.47 -2.8,-0.41 -4.62,-0.79 -5.45,-1.15 -1.88,-0.81 -2.81,-2.19 -2.81,-4.14 0,-1.71 0.45,-3.31 1.34,-4.82 1.02,-1.71 2.24,-2.56 3.69,-2.56 1.67,0 2.93,1.06 3.79,3.17 0.69,1.67 1.03,3.65 1.03,5.92l0 8.41zm-2.2 -8.5c-0.38,-1.31 -0.74,-2.28 -1.08,-2.92 -0.66,-1.22 -1.47,-1.83 -2.41,-1.83 -0.45,0 -0.85,0.18 -1.17,0.54 -0.32,0.36 -0.49,0.78 -0.49,1.27 0,1.24 0.64,2.07 1.92,2.5 0.46,0.15 1.54,0.29 3.23,0.44z"/>
  <path id="27" class="fil0" d="M537.55 36.91l-12.05 0 0 -4.25 9.6 0 -3 -20.77 -1.25 -0.6c0,-1.11 0.1,-2.16 0.29,-3.15 0.2,-0.97 0.49,-1.93 0.89,-2.85l0.37 0.27c0,0.94 0.53,1.65 1.61,2.13 0.82,0.32 1.65,0.64 2.49,0.97 0,0.81 -0.07,1.67 -0.2,2.58 -0.12,0.93 -0.28,1.61 -0.47,2.06l-1.18 -0.39 2.9 19.21 0 4.79z"/>
  <path id="28" class="fil0" d="M545.8 30.68c0,1.3 -0.24,2.56 -0.72,3.78 -0.25,0.65 -0.78,1.68 -1.61,3.1l-0.44 -0.24c0.06,-0.48 0.11,-1.02 0.15,-1.64 0.05,-0.62 0.07,-1.04 0.07,-1.25 0,-1.69 -0.13,-4.05 -0.4,-7.09 -0.28,-3.03 -0.59,-6.2 -0.97,-9.51 -0.23,-2 -0.48,-4.04 -0.75,-6.12 0.32,-0.72 0.69,-1.48 1.11,-2.32 0.42,-0.82 0.81,-1.6 1.18,-2.33 0.26,1.85 0.6,4.39 1,7.61 0.4,3.22 0.71,6.12 0.94,8.71 0.29,3.22 0.44,5.65 0.44,7.3z"/>
  <path id="29" class="fil0" d="M588.09 36.91l-3.35 0c-1.97,0 -3.37,-0.37 -4.2,-1.1 -0.83,-0.73 -1.25,-1.95 -1.25,-3.65 0,-0.63 0.08,-1.43 0.25,-2.38 0.06,-0.35 0.15,-0.83 0.27,-1.41 -2.79,0.85 -4.89,1.57 -6.3,2.17 -2.61,1.11 -4.63,2.36 -6.06,3.77 -1.81,1.76 -2.71,3.76 -2.71,6.01 0,3.5 1.83,6.13 5.47,7.89 3.16,1.53 7.4,2.3 12.7,2.3l4.48 0 0.15 0.26 -5.51 3.89 -1.41 0c-3.52,0 -6.44,-0.33 -8.77,-0.98 -2.77,-0.78 -4.88,-2.04 -6.32,-3.76 -1.62,-1.97 -2.44,-4.58 -2.44,-7.82 0,-2.79 0.69,-5.22 2.08,-7.31 1.07,-1.63 2.65,-3.12 4.71,-4.47 0.61,-0.41 2.29,-1.34 5.04,-2.81 -0.65,-0.08 -1.34,-0.16 -2.06,-0.22 -0.73,-0.06 -1.39,-0.08 -1.97,-0.08 -1.64,0 -2.97,0.07 -4,0.22 -0.34,0.05 -1.41,0.27 -3.2,0.66 0.55,-1.6 1.13,-2.71 1.73,-3.32 1.35,-1.38 3.47,-2.06 6.35,-2.06 1.58,0 3.29,0.15 5.13,0.46 1.83,0.31 3.38,0.46 4.63,0.46 0.84,0 1.64,-0.04 2.44,-0.1 0.78,-0.07 1.61,-0.15 2.47,-0.27l-0.97 4.15c-0.67,0.08 -1.42,0.2 -2.27,0.34 -0.53,0.1 -1.27,0.24 -2.21,0.42l-0.05 1.37c0,1.34 0.41,2.24 1.22,2.7 0.51,0.28 1.36,0.42 2.59,0.42l3.34 0 0 4.25zm-9.75 -22.73l-1.88 3.53 -3.92 -2.04 1.79 -3.56 4.01 2.07z"/>
  <path id="30" class="fil0" d="M600.28 36.91l-13.9 0 0 -4.25 12.15 0c0,-1.92 -0.23,-3.38 -0.69,-4.38 -0.31,-0.7 -1.07,-1.7 -2.31,-3.02l1.93 -4c1.15,1.48 1.88,2.63 2.17,3.47 0.44,1.25 0.65,3.32 0.65,6.22l0 5.96zm-0.25 4.8l-1.8 3.55 -4 -2.05 1.85 -3.55 3.95 2.05zm-5.55 2.25l-1.81 3.5 -3.99 -2.08 1.89 -3.52 3.91 2.1z"/>
  <path id="31" class="fil0" d="M624.74 36.9c0,1.79 -0.77,3.65 -2.3,5.57 -1.33,1.7 -2.99,3.15 -4.99,4.38 -1.88,1.17 -3.44,1.76 -4.66,1.76 -1.13,0 -2.33,-0.17 -3.64,-0.49 -0.99,-0.25 -2.19,-0.64 -3.57,-1.16 -1.17,-0.44 -2.33,-0.89 -3.49,-1.33l0.42 -0.97c1.07,0.21 2.19,0.43 3.35,0.66 1.17,0.22 2.23,0.34 3.17,0.34 2.08,0 4.26,-0.67 6.53,-2 2.05,-1.23 3.8,-2.77 5.25,-4.64 1.45,-1.86 2.18,-3.54 2.18,-5.04 0,-1.29 -0.38,-2.64 -1.12,-4.05 -0.6,-1.15 -1.45,-2.31 -2.53,-3.52l1.37 -3.85c1.34,1.24 2.32,2.47 2.95,3.72 0.72,1.4 1.08,2.96 1.08,4.69l0 5.93z"/>
  <path id="32" class="fil0" d="M636.23 36.91l-3.43 0c-1.12,0 -2.01,-0.45 -2.68,-1.34 -0.59,-0.79 -1.04,-1.94 -1.34,-3.49 -0.3,-1.55 -0.53,-3.45 -0.7,-5.71 -0.1,-1.84 -0.2,-3.72 -0.31,-5.66 -0.1,-1.93 -0.24,-3.4 -0.41,-4.4 -0.17,-1 -0.4,-1.82 -0.7,-2.45 -0.35,-0.78 -0.85,-1.47 -1.48,-2.05l2.98 -4.75c0.64,1.95 1.1,4.28 1.37,7 0.17,1.7 0.33,5.7 0.5,12.01 0.29,2.9 0.72,4.75 1.28,5.56 0.45,0.69 0.95,1.03 1.49,1.03l3.43 0 0 4.25z"/>
  <path id="33" class="fil0" d="M648.4 36.91l-13.9 0 0 -4.25 12.15 0c0,-1.92 -0.23,-3.38 -0.69,-4.38 -0.31,-0.7 -1.07,-1.7 -2.31,-3.02l1.93 -4c1.16,1.48 1.88,2.63 2.17,3.47 0.44,1.25 0.65,3.32 0.65,6.22l0 5.96zm-0.15 -24.15l-1.8 3.55 -4 -2.05 1.85 -3.55 3.95 2.05zm-5.55 2.25l-1.8 3.5 -4 -2.08 1.89 -3.52 3.91 2.1z"/>
  <path id="34" class="fil0" d="M666.8 23.11l0 -5 5 0 0 5 -5 0zm0 20.95l0 -5 5 0 0 5 -5 0z"/>
  <polygon id="35" class="fil0" points="679.6,54.01 679.6,8.26 689.29,8.26 689.29,11.91 683.99,11.91 683.99,50.36 689.29,50.36 689.29,54.01 "/>
  <polygon id="36" class="fil0" points="721.59,54.01 711.89,54.01 711.89,50.36 717.19,50.36 717.19,11.91 711.89,11.91 711.89,8.26 721.59,8.26 "/>
  <path id="37" class="fil0" d="M750.77 33.86c0,0.87 -0.32,1.64 -0.97,2.32 -0.65,0.69 -1.48,1.03 -2.51,1.03 -1.25,0 -2.29,-0.59 -3.12,-1.76 -0.83,-1.17 -1.25,-2.63 -1.25,-4.37 0,-2.44 0.72,-4.56 2.15,-6.39 0.7,-0.89 1.75,-1.84 3.15,-2.83l0.81 1.34c-0.96,0.88 -1.7,1.65 -2.21,2.3 -0.9,1.16 -1.35,2.18 -1.35,3.06 0,0.87 0.89,1.51 2.66,1.9 1.76,0.39 2.64,1.52 2.64,3.4z"/>
  <path id="38" class="fil0" d="M779.11 36.9c0,1.79 -0.76,3.65 -2.29,5.57 -1.34,1.7 -3,3.15 -4.99,4.38 -1.88,1.17 -3.44,1.76 -4.66,1.76 -1.13,0 -2.34,-0.17 -3.65,-0.49 -0.99,-0.25 -2.18,-0.64 -3.56,-1.16 -1.17,-0.44 -2.34,-0.89 -3.49,-1.33l0.41 -0.97c1.08,0.21 2.19,0.43 3.36,0.66 1.17,0.22 2.23,0.34 3.17,0.34 2.08,0 4.26,-0.67 6.52,-2 2.06,-1.23 3.81,-2.77 5.26,-4.64 1.45,-1.86 2.17,-3.54 2.17,-5.04 0,-1.29 -0.37,-2.64 -1.11,-4.05 -0.6,-1.15 -1.45,-2.31 -2.53,-3.52l1.37 -3.85c1.33,1.24 2.32,2.47 2.95,3.72 0.72,1.4 1.07,2.96 1.07,4.69l0 5.93z"/>
  <path id="39" class="fil0" d="M787.36 30.68c0,1.3 -0.25,2.56 -0.72,3.78 -0.25,0.65 -0.78,1.68 -1.61,3.1l-0.44 -0.24c0.06,-0.48 0.11,-1.02 0.15,-1.64 0.04,-0.62 0.07,-1.04 0.07,-1.25 0,-1.69 -0.14,-4.05 -0.4,-7.09 -0.28,-3.03 -0.6,-6.2 -0.97,-9.51 -0.23,-2 -0.48,-4.04 -0.76,-6.12 0.33,-0.72 0.7,-1.48 1.12,-2.32 0.41,-0.82 0.81,-1.6 1.18,-2.33 0.26,1.85 0.59,4.39 0.99,7.61 0.4,3.22 0.72,6.12 0.94,8.71 0.3,3.22 0.45,5.65 0.45,7.3z"/>
  <path id="40" class="fil0" d="M813.91 36.9c0,1.79 -0.77,3.65 -2.3,5.57 -1.34,1.7 -3,3.15 -4.99,4.38 -1.88,1.17 -3.44,1.76 -4.66,1.76 -1.13,0 -2.34,-0.17 -3.65,-0.49 -0.99,-0.25 -2.18,-0.64 -3.56,-1.16 -1.17,-0.44 -2.34,-0.89 -3.49,-1.33l0.41 -0.97c1.08,0.21 2.19,0.43 3.36,0.66 1.17,0.22 2.23,0.34 3.17,0.34 2.08,0 4.26,-0.67 6.52,-2 2.06,-1.23 3.81,-2.77 5.26,-4.64 1.45,-1.86 2.18,-3.54 2.18,-5.04 0,-1.29 -0.38,-2.64 -1.12,-4.05 -0.6,-1.15 -1.45,-2.31 -2.53,-3.52l1.37 -3.85c1.33,1.24 2.32,2.47 2.95,3.72 0.72,1.4 1.08,2.96 1.08,4.69l0 5.93z"/>
  <path id="41" class="fil0" d="M826 9.73l-2.09 3.28 -3.06 -2 2.1 -3.25 3.05 1.97zm-5.6 1.45l-1.94 3.33 -3.01 -1.98 2.03 -3.27 2.92 1.92zm6.65 25.73l-14.85 0 0 -4.25 8.37 0c1.01,0 1.87,-0.03 2.58,-0.11 0.7,-0.07 1.48,-0.23 2.31,-0.47 -2.81,-0.41 -4.62,-0.79 -5.45,-1.15 -1.88,-0.81 -2.81,-2.19 -2.81,-4.14 0,-1.71 0.45,-3.31 1.34,-4.82 1.02,-1.71 2.24,-2.56 3.69,-2.56 1.67,0 2.93,1.06 3.79,3.17 0.68,1.67 1.03,3.65 1.03,5.92l0 8.41zm-2.2 -8.5c-0.38,-1.31 -0.74,-2.28 -1.08,-2.92 -0.67,-1.22 -1.47,-1.83 -2.41,-1.83 -0.45,0 -0.85,0.18 -1.17,0.54 -0.33,0.36 -0.49,0.78 -0.49,1.27 0,1.24 0.64,2.07 1.92,2.5 0.46,0.15 1.54,0.29 3.23,0.44z"/>
  <path id="42" class="fil0" d="M837.38 36.91l-12.05 0 0 -4.25 9.6 0 -3 -20.77 -1.25 -0.6c0,-1.11 0.1,-2.16 0.29,-3.15 0.2,-0.97 0.49,-1.93 0.88,-2.85l0.38 0.27c0,0.94 0.53,1.65 1.61,2.13 0.81,0.32 1.65,0.64 2.49,0.97 0,0.81 -0.07,1.67 -0.2,2.58 -0.13,0.93 -0.28,1.61 -0.47,2.06l-1.18 -0.39 2.9 19.21 0 4.79z"/>
  <path id="43" class="fil0" d="M845.63 30.68c0,1.3 -0.24,2.56 -0.72,3.78 -0.25,0.65 -0.78,1.68 -1.61,3.1l-0.44 -0.24c0.06,-0.48 0.11,-1.02 0.15,-1.64 0.04,-0.62 0.07,-1.04 0.07,-1.25 0,-1.69 -0.13,-4.05 -0.4,-7.09 -0.28,-3.03 -0.59,-6.2 -0.97,-9.51 -0.23,-2 -0.48,-4.04 -0.76,-6.12 0.33,-0.72 0.7,-1.48 1.12,-2.32 0.42,-0.82 0.81,-1.6 1.18,-2.33 0.26,1.85 0.6,4.39 1,7.61 0.39,3.22 0.71,6.12 0.94,8.71 0.29,3.22 0.44,5.65 0.44,7.3z"/>
  <path id="44" class="fil0" d="M878.52 36.91l-2.91 0c-2.71,0 -5.07,0.25 -7.1,0.76 -2.56,0.63 -3.84,1.54 -3.84,2.73 0,1.08 0.18,2.22 0.55,3.44 0.37,1.23 0.74,2.46 1.12,3.71 0.39,1.26 0.58,2.4 0.58,3.45 0,0.62 -0.04,1.17 -0.13,1.68 -0.09,0.5 -0.26,1.16 -0.5,1.98 -0.41,-1.35 -0.83,-2.7 -1.23,-4.05 -0.77,-2.58 -1.35,-4.52 -1.72,-5.84 -0.58,-2.09 -0.87,-3.34 -0.87,-3.76 0,-2.08 0.43,-3.68 1.31,-4.8 0.87,-1.11 2.21,-1.94 4.01,-2.48 1.44,-0.42 3.6,-0.78 6.48,-1.07 -1.03,-1.05 -1.67,-1.68 -1.91,-1.87 -0.83,-0.66 -1.67,-0.98 -2.52,-0.98 -0.55,0 -1.06,0.17 -1.55,0.49 -0.39,0.27 -0.86,0.72 -1.42,1.36l-1.1 -0.72c0.49,-1.21 1.04,-2.19 1.66,-2.92 1.02,-1.21 2.24,-1.81 3.64,-1.81 1.01,0 2.02,0.37 3.02,1.12 0.84,0.62 1.69,1.49 2.55,2.6 0.42,0.53 1.05,1.45 1.88,2.73l0 4.25z"/>
  <path id="45" class="fil0" d="M891.91 36.91l-15.1 0 0 -4.25 13 0c0,-1.45 -0.17,-2.81 -0.51,-4.08 -0.84,0.28 -1.49,0.47 -1.94,0.59 -0.75,0.19 -1.41,0.29 -1.97,0.29 -1.18,0 -2.15,-0.3 -2.89,-0.9 -0.86,-0.68 -1.29,-1.67 -1.29,-2.95 0,-2.26 0.41,-4.23 1.22,-5.93 0.91,-1.88 2.1,-2.82 3.56,-2.82 1.98,0 3.5,1.55 4.58,4.66 0.89,2.56 1.34,5.58 1.34,9.05l0 6.34zm-4 -12.7c-0.22,-0.59 -0.59,-1.18 -1.09,-1.78 -0.68,-0.81 -1.34,-1.22 -1.95,-1.22 -0.44,0 -0.8,0.18 -1.08,0.55 -0.29,0.37 -0.43,0.8 -0.43,1.3 0,1.3 0.72,1.95 2.14,1.95 0.38,0 0.78,-0.08 1.19,-0.22 0.43,-0.15 0.83,-0.34 1.22,-0.58zm3.1 -15.1l-1.8 3.55 -4 -2.05 1.85 -3.55 3.95 2.05zm-5.55 2.25l-1.81 3.5 -3.99 -2.08 1.88 -3.52 3.92 2.1z"/>
  <path id="46" class="fil0" d="M916.33 36.9c0,1.79 -0.76,3.65 -2.3,5.57 -1.33,1.7 -2.99,3.15 -4.98,4.38 -1.88,1.17 -3.44,1.76 -4.67,1.76 -1.12,0 -2.33,-0.17 -3.64,-0.49 -0.99,-0.25 -2.18,-0.64 -3.56,-1.16 -1.17,-0.44 -2.34,-0.89 -3.5,-1.33l0.42 -0.97c1.08,0.21 2.19,0.43 3.36,0.66 1.17,0.22 2.22,0.34 3.17,0.34 2.08,0 4.25,-0.67 6.52,-2 2.06,-1.23 3.81,-2.77 5.26,-4.64 1.45,-1.86 2.17,-3.54 2.17,-5.04 0,-1.29 -0.37,-2.64 -1.11,-4.05 -0.6,-1.15 -1.45,-2.31 -2.54,-3.52l1.38 -3.85c1.33,1.24 2.32,2.47 2.95,3.72 0.72,1.4 1.07,2.96 1.07,4.69l0 5.93z"/>
  <path id="47" class="fil0" d="M934.72 23.11l0 -5 5 0 0 5 -5 0zm0 20.95l0 -5 5 0 0 5 -5 0z"/>
  <polygon id="48" class="fil0" points="947.51,54.01 947.51,8.26 957.21,8.26 957.21,11.91 951.91,11.91 951.91,50.36 957.21,50.36 957.21,54.01 "/>
  <polygon id="49" class="fil0" points="989.51,54.01 979.81,54.01 979.81,50.36 985.11,50.36 985.11,11.91 979.81,11.91 979.81,8.26 989.51,8.26 "/>
  <path id="50" class="fil0" d="M1018.69 33.86c0,0.87 -0.33,1.64 -0.98,2.32 -0.65,0.69 -1.48,1.03 -2.5,1.03 -1.25,0 -2.3,-0.59 -3.13,-1.76 -0.82,-1.17 -1.24,-2.63 -1.24,-4.37 0,-2.44 0.72,-4.56 2.15,-6.39 0.7,-0.89 1.75,-1.84 3.15,-2.83l0.81 1.34c-0.97,0.88 -1.7,1.65 -2.21,2.3 -0.9,1.16 -1.35,2.18 -1.35,3.06 0,0.87 0.88,1.51 2.65,1.9 1.76,0.39 2.65,1.52 2.65,3.4z"/>
  <path id="51" class="fil0" d="M1062.03 36.91l-22.4 0c-3.43,0 -6.21,-0.21 -8.31,-0.63 -2.51,-0.51 -4.41,-1.35 -5.69,-2.52 -1.4,-1.27 -2.1,-2.99 -2.1,-5.18 0,-1.44 0.42,-3.13 1.27,-5.07 0.61,-1.32 1.06,-2.3 1.36,-2.95l0.97 0.56c-0.71,1.41 -1.18,2.49 -1.41,3.23 -0.22,0.74 -0.34,1.42 -0.34,2.02 0,2.14 1.17,3.73 3.52,4.76 2.34,1.02 6.07,1.53 11.18,1.53l18 0c-1.91,-0.53 -3.31,-1.13 -4.21,-1.81 -1.02,-0.78 -1.54,-1.76 -1.54,-2.92 0,-1.51 0.51,-3.13 1.52,-4.86 1.14,-1.94 2.39,-2.91 3.78,-2.91 1.61,0 2.78,0.95 3.5,2.86 0.6,1.6 0.9,3.87 0.9,6.82l0 7.07zm-2.55 -7.4c0,-1.42 -0.15,-2.52 -0.46,-3.28 -0.38,-0.91 -0.95,-1.37 -1.71,-1.37 -0.55,0 -0.96,0.17 -1.23,0.5 -0.27,0.33 -0.4,0.81 -0.4,1.41 0,0.8 0.33,1.4 1,1.81 0.48,0.3 1.42,0.6 2.8,0.93zm-2.45 -17.43l-1.88 3.53 -3.92 -2.04 1.79 -3.56 4.01 2.07z"/>
  <path id="52" class="fil0" d="M1072.35 36.91l-12.05 0 0 -4.25 9.6 0 -3 -20.77 -1.25 -0.6c0,-1.11 0.1,-2.16 0.29,-3.15 0.21,-0.97 0.5,-1.93 0.89,-2.85l0.37 0.27c0,0.94 0.54,1.65 1.61,2.13 0.82,0.32 1.65,0.64 2.49,0.97 0,0.81 -0.06,1.67 -0.2,2.58 -0.12,0.93 -0.28,1.61 -0.46,2.06l-1.19 -0.39 2.9 19.21 0 4.79z"/>
  <path id="53" class="fil0" d="M1092.05 36.91l-2.53 0c-1.09,0 -2.32,-0.25 -3.68,-0.74 -1.58,-0.57 -2.96,-1.36 -4.17,-2.36 -0.94,1.17 -1.91,1.97 -2.89,2.42 -0.99,0.45 -2.43,0.68 -4.32,0.68l-3.81 0 0 -4.25 3.74 0c1.48,0 2.8,-0.38 3.95,-1.13 0.9,-0.59 1.7,-1.4 2.44,-2.47 0.99,-1.43 2.21,-2.68 3.67,-3.74 1.29,-0.94 2.49,-1.55 3.58,-1.81 1.12,1.71 2.01,3.25 2.68,4.62 0.89,1.86 1.34,3.37 1.34,4.52l0 4.26zm-2.8 -4.82c-0.21,-0.95 -0.53,-1.88 -0.97,-2.8 -0.38,-0.77 -0.88,-1.56 -1.49,-2.38 -0.78,0.2 -1.44,0.57 -1.97,1.11 -0.36,0.34 -0.78,0.92 -1.27,1.74 0.59,0.64 1.41,1.21 2.48,1.72 1.06,0.5 2.06,0.81 3.01,0.93l0.21 -0.32z"/>
  <path id="54" class="fil0" d="M1102.4 36.91l-12.05 0 0 -4.25 9.6 0 -3 -20.77 -1.25 -0.6c0,-1.11 0.1,-2.16 0.29,-3.15 0.2,-0.97 0.5,-1.93 0.89,-2.85l0.37 0.27c0,0.94 0.54,1.65 1.61,2.13 0.82,0.32 1.65,0.64 2.49,0.97 0,0.81 -0.07,1.67 -0.2,2.58 -0.12,0.93 -0.28,1.61 -0.47,2.06l-1.18 -0.39 2.9 19.21 0 4.79z"/>
  <path id="55" class="fil0" d="M1110.65 30.68c0,1.3 -0.24,2.56 -0.72,3.78 -0.24,0.65 -0.78,1.68 -1.6,3.1l-0.44 -0.24c0.05,-0.48 0.1,-1.02 0.15,-1.64 0.04,-0.62 0.06,-1.04 0.06,-1.25 0,-1.69 -0.13,-4.05 -0.4,-7.09 -0.27,-3.03 -0.59,-6.2 -0.96,-9.51 -0.24,-2 -0.49,-4.04 -0.76,-6.12 0.32,-0.72 0.7,-1.48 1.11,-2.32 0.42,-0.82 0.81,-1.6 1.19,-2.33 0.26,1.85 0.59,4.39 0.99,7.61 0.4,3.22 0.72,6.12 0.94,8.71 0.29,3.22 0.44,5.65 0.44,7.3z"/>
  <path id="56" class="fil0" d="M1143.54 36.91l-2.91 0c-2.7,0 -5.07,0.25 -7.1,0.76 -2.55,0.63 -3.84,1.54 -3.84,2.73 0,1.08 0.19,2.22 0.55,3.44 0.37,1.23 0.74,2.46 1.13,3.71 0.38,1.26 0.57,2.4 0.57,3.45 0,0.62 -0.04,1.17 -0.13,1.68 -0.09,0.5 -0.26,1.16 -0.49,1.98 -0.42,-1.35 -0.83,-2.7 -1.24,-4.05 -0.77,-2.58 -1.35,-4.52 -1.71,-5.84 -0.58,-2.09 -0.88,-3.34 -0.88,-3.76 0,-2.08 0.44,-3.68 1.31,-4.8 0.87,-1.11 2.21,-1.94 4.02,-2.48 1.43,-0.42 3.59,-0.78 6.47,-1.07 -1.02,-1.05 -1.66,-1.68 -1.91,-1.87 -0.83,-0.66 -1.67,-0.98 -2.52,-0.98 -0.54,0 -1.06,0.17 -1.54,0.49 -0.4,0.27 -0.87,0.72 -1.43,1.36l-1.1 -0.72c0.49,-1.21 1.05,-2.19 1.66,-2.92 1.03,-1.21 2.24,-1.81 3.64,-1.81 1.01,0 2.02,0.37 3.03,1.12 0.83,0.62 1.68,1.49 2.54,2.6 0.42,0.53 1.05,1.45 1.88,2.73l0 4.25z"/>
  <path id="57" class="fil0" d="M1156.93 36.91l-15.1 0 0 -4.25 13 0c0,-1.45 -0.16,-2.81 -0.51,-4.08 -0.84,0.28 -1.49,0.47 -1.94,0.59 -0.75,0.19 -1.4,0.29 -1.97,0.29 -1.18,0 -2.14,-0.3 -2.88,-0.9 -0.86,-0.68 -1.3,-1.67 -1.3,-2.95 0,-2.26 0.41,-4.23 1.22,-5.93 0.91,-1.88 2.1,-2.82 3.56,-2.82 1.98,0 3.51,1.55 4.58,4.66 0.89,2.56 1.34,5.58 1.34,9.05l0 6.34zm-4 -12.7c-0.22,-0.59 -0.59,-1.18 -1.09,-1.78 -0.68,-0.81 -1.33,-1.22 -1.95,-1.22 -0.43,0 -0.8,0.18 -1.08,0.55 -0.29,0.37 -0.43,0.8 -0.43,1.3 0,1.3 0.72,1.95 2.15,1.95 0.37,0 0.77,-0.08 1.19,-0.22 0.42,-0.15 0.82,-0.34 1.21,-0.58zm3.1 -15.1l-1.8 3.55 -4 -2.05 1.85 -3.55 3.95 2.05zm-5.55 2.25l-1.81 3.5 -3.99 -2.08 1.89 -3.52 3.91 2.1z"/>
  <path id="58" class="fil0" d="M1181.36 36.9c0,1.79 -0.77,3.65 -2.3,5.57 -1.34,1.7 -2.99,3.15 -4.99,4.38 -1.88,1.17 -3.44,1.76 -4.66,1.76 -1.13,0 -2.34,-0.17 -3.64,-0.49 -1,-0.25 -2.19,-0.64 -3.57,-1.16 -1.17,-0.44 -2.33,-0.89 -3.49,-1.33l0.41 -0.97c1.08,0.21 2.2,0.43 3.36,0.66 1.17,0.22 2.23,0.34 3.17,0.34 2.08,0 4.26,-0.67 6.52,-2 2.06,-1.23 3.81,-2.77 5.26,-4.64 1.45,-1.86 2.18,-3.54 2.18,-5.04 0,-1.29 -0.38,-2.64 -1.12,-4.05 -0.6,-1.15 -1.45,-2.31 -2.53,-3.52l1.37 -3.85c1.34,1.24 2.32,2.47 2.95,3.72 0.72,1.4 1.08,2.96 1.08,4.69l0 5.93z"/>
  <path id="59" class="fil0" d="M1199.74 23.11l0 -5 5 0 0 5 -5 0zm0 20.95l0 -5 5 0 0 5 -5 0z"/>
  <polygon id="60" class="fil0" points="1212.53,54.01 1212.53,8.26 1222.23,8.26 1222.23,11.91 1216.93,11.91 1216.93,50.36 1222.23,50.36 1222.23,54.01 "/>
  <polygon id="61" class="fil0" points="1254.53,54.01 1244.83,54.01 1244.83,50.36 1250.13,50.36 1250.13,11.91 1244.83,11.91 1244.83,8.26 1254.53,8.26 "/>
  <path id="62" class="fil0" d="M1283.71 33.86c0,0.87 -0.32,1.64 -0.97,2.32 -0.65,0.69 -1.49,1.03 -2.51,1.03 -1.25,0 -2.29,-0.59 -3.13,-1.76 -0.82,-1.17 -1.24,-2.63 -1.24,-4.37 0,-2.44 0.72,-4.56 2.15,-6.39 0.7,-0.89 1.75,-1.84 3.15,-2.83l0.81 1.34c-0.97,0.88 -1.7,1.65 -2.21,2.3 -0.9,1.16 -1.35,2.18 -1.35,3.06 0,0.87 0.89,1.51 2.65,1.9 1.77,0.39 2.65,1.52 2.65,3.4z"/>
  <path id="63" class="fil0" d="M1312.05 36.9c0,1.79 -0.76,3.65 -2.3,5.57 -1.33,1.7 -2.99,3.15 -4.98,4.38 -1.88,1.17 -3.44,1.76 -4.67,1.76 -1.12,0 -2.33,-0.17 -3.64,-0.49 -0.99,-0.25 -2.18,-0.64 -3.57,-1.16 -1.16,-0.44 -2.33,-0.89 -3.49,-1.33l0.42 -0.97c1.07,0.21 2.19,0.43 3.36,0.66 1.16,0.22 2.22,0.34 3.16,0.34 2.09,0 4.26,-0.67 6.53,-2 2.06,-1.23 3.81,-2.77 5.26,-4.64 1.45,-1.86 2.17,-3.54 2.17,-5.04 0,-1.29 -0.37,-2.64 -1.11,-4.05 -0.6,-1.15 -1.45,-2.31 -2.54,-3.52l1.38 -3.85c1.33,1.24 2.31,2.47 2.95,3.72 0.71,1.4 1.07,2.96 1.07,4.69l0 5.93z"/>
  <path id="64" class="fil0" d="M1320.29 30.68c0,1.3 -0.24,2.56 -0.71,3.78 -0.25,0.65 -0.79,1.68 -1.61,3.1l-0.44 -0.24c0.06,-0.48 0.1,-1.02 0.15,-1.64 0.04,-0.62 0.06,-1.04 0.06,-1.25 0,-1.69 -0.13,-4.05 -0.4,-7.09 -0.27,-3.03 -0.59,-6.2 -0.96,-9.51 -0.24,-2 -0.49,-4.04 -0.76,-6.12 0.32,-0.72 0.7,-1.48 1.11,-2.32 0.42,-0.82 0.81,-1.6 1.19,-2.33 0.26,1.85 0.59,4.39 0.99,7.61 0.4,3.22 0.72,6.12 0.94,8.71 0.29,3.22 0.44,5.65 0.44,7.3z"/>
  <path id="65" class="fil0" d="M1346.84 36.9c0,1.79 -0.76,3.65 -2.3,5.57 -1.33,1.7 -2.99,3.15 -4.98,4.38 -1.88,1.17 -3.44,1.76 -4.67,1.76 -1.12,0 -2.33,-0.17 -3.64,-0.49 -0.99,-0.25 -2.18,-0.64 -3.57,-1.16 -1.16,-0.44 -2.33,-0.89 -3.49,-1.33l0.42 -0.97c1.08,0.21 2.19,0.43 3.36,0.66 1.16,0.22 2.22,0.34 3.16,0.34 2.09,0 4.26,-0.67 6.53,-2 2.06,-1.23 3.81,-2.77 5.26,-4.64 1.45,-1.86 2.17,-3.54 2.17,-5.04 0,-1.29 -0.37,-2.64 -1.11,-4.05 -0.6,-1.15 -1.45,-2.31 -2.54,-3.52l1.38 -3.85c1.33,1.24 2.31,2.47 2.95,3.72 0.71,1.4 1.07,2.96 1.07,4.69l0 5.93z"/>
  <path id="66" class="fil0" d="M1358.93 9.73l-2.08 3.28 -3.07 -2 2.11 -3.25 3.04 1.97zm-5.6 1.45l-1.93 3.33 -3.02 -1.98 2.04 -3.27 2.91 1.92zm6.65 25.73l-14.85 0 0 -4.25 8.38 0c1.01,0 1.87,-0.03 2.57,-0.11 0.71,-0.07 1.49,-0.23 2.31,-0.47 -2.8,-0.41 -4.61,-0.79 -5.45,-1.15 -1.87,-0.81 -2.81,-2.19 -2.81,-4.14 0,-1.71 0.45,-3.31 1.35,-4.82 1.01,-1.71 2.24,-2.56 3.69,-2.56 1.66,0 2.92,1.06 3.79,3.17 0.68,1.67 1.02,3.65 1.02,5.92l0 8.41zm-2.2 -8.5c-0.37,-1.31 -0.73,-2.28 -1.07,-2.92 -0.67,-1.22 -1.48,-1.83 -2.42,-1.83 -0.45,0 -0.84,0.18 -1.16,0.54 -0.33,0.36 -0.5,0.78 -0.5,1.27 0,1.24 0.65,2.07 1.93,2.5 0.46,0.15 1.53,0.29 3.22,0.44z"/>
  <path id="67" class="fil0" d="M1370.32 36.91l-12.05 0 0 -4.25 9.6 0 -3 -20.77 -1.25 -0.6c0,-1.11 0.1,-2.16 0.29,-3.15 0.2,-0.97 0.49,-1.93 0.88,-2.85l0.38 0.27c0,0.94 0.53,1.65 1.6,2.13 0.82,0.32 1.65,0.64 2.5,0.97 0,0.81 -0.07,1.67 -0.2,2.58 -0.13,0.93 -0.29,1.61 -0.47,2.06l-1.18 -0.39 2.9 19.21 0 4.79z"/>
  <path id="68" class="fil0" d="M1378.57 30.68c0,1.3 -0.25,2.56 -0.72,3.78 -0.25,0.65 -0.78,1.68 -1.61,3.1l-0.44 -0.24c0.06,-0.48 0.11,-1.02 0.15,-1.64 0.04,-0.62 0.07,-1.04 0.07,-1.25 0,-1.69 -0.14,-4.05 -0.4,-7.09 -0.28,-3.03 -0.6,-6.2 -0.97,-9.51 -0.23,-2 -0.48,-4.04 -0.76,-6.12 0.33,-0.72 0.7,-1.48 1.12,-2.32 0.41,-0.82 0.81,-1.6 1.18,-2.33 0.26,1.85 0.59,4.39 0.99,7.61 0.4,3.22 0.72,6.12 0.94,8.71 0.3,3.22 0.45,5.65 0.45,7.3z"/>
  <path id="69" class="fil0" d="M1420.86 36.91l-3.35 0c-1.98,0 -3.38,-0.37 -4.2,-1.1 -0.84,-0.73 -1.25,-1.95 -1.25,-3.65 0,-0.63 0.08,-1.43 0.25,-2.38 0.06,-0.35 0.15,-0.83 0.26,-1.41 -2.78,0.85 -4.88,1.57 -6.3,2.17 -2.6,1.11 -4.62,2.36 -6.05,3.77 -1.81,1.76 -2.71,3.76 -2.71,6.01 0,3.5 1.82,6.13 5.46,7.89 3.17,1.53 7.4,2.3 12.7,2.3l4.49 0 0.15 0.26 -5.51 3.89 -1.42 0c-3.51,0 -6.43,-0.33 -8.76,-0.98 -2.78,-0.78 -4.89,-2.04 -6.32,-3.76 -1.63,-1.97 -2.44,-4.58 -2.44,-7.82 0,-2.79 0.69,-5.22 2.07,-7.31 1.08,-1.63 2.65,-3.12 4.72,-4.47 0.61,-0.41 2.28,-1.34 5.03,-2.81 -0.65,-0.08 -1.33,-0.16 -2.06,-0.22 -0.72,-0.06 -1.38,-0.08 -1.96,-0.08 -1.64,0 -2.98,0.07 -4,0.22 -0.34,0.05 -1.41,0.27 -3.2,0.66 0.55,-1.6 1.13,-2.71 1.73,-3.32 1.35,-1.38 3.47,-2.06 6.35,-2.06 1.58,0 3.28,0.15 5.13,0.46 1.83,0.31 3.38,0.46 4.63,0.46 0.83,0 1.64,-0.04 2.43,-0.1 0.78,-0.07 1.62,-0.15 2.48,-0.27l-0.98 4.15c-0.67,0.08 -1.42,0.2 -2.26,0.34 -0.54,0.1 -1.27,0.24 -2.21,0.42l-0.05 1.37c0,1.34 0.4,2.24 1.21,2.7 0.51,0.28 1.37,0.42 2.59,0.42l3.35 0 0 4.25zm-9.75 -22.73l-1.89 3.53 -3.91 -2.04 1.79 -3.56 4.01 2.07z"/>
  <path id="70" class="fil0" d="M1433.05 36.91l-13.9 0 0 -4.25 12.15 0c0,-1.92 -0.24,-3.38 -0.69,-4.38 -0.31,-0.7 -1.08,-1.7 -2.31,-3.02l1.92 -4c1.16,1.48 1.89,2.63 2.18,3.47 0.43,1.25 0.65,3.32 0.65,6.22l0 5.96zm-0.25 4.8l-1.8 3.55 -4 -2.05 1.85 -3.55 3.95 2.05zm-5.55 2.25l-1.81 3.5 -3.99 -2.08 1.88 -3.52 3.92 2.1z"/>
  <path id="71" class="fil0" d="M1457.5 36.9c0,1.79 -0.76,3.65 -2.3,5.57 -1.33,1.7 -2.99,3.15 -4.98,4.38 -1.88,1.17 -3.44,1.76 -4.67,1.76 -1.12,0 -2.33,-0.17 -3.64,-0.49 -0.99,-0.25 -2.18,-0.64 -3.56,-1.16 -1.17,-0.44 -2.34,-0.89 -3.49,-1.33l0.41 -0.97c1.08,0.21 2.19,0.43 3.36,0.66 1.17,0.22 2.22,0.34 3.17,0.34 2.08,0 4.26,-0.67 6.52,-2 2.06,-1.23 3.81,-2.77 5.26,-4.64 1.45,-1.86 2.17,-3.54 2.17,-5.04 0,-1.29 -0.37,-2.64 -1.11,-4.05 -0.6,-1.15 -1.45,-2.31 -2.54,-3.52l1.38 -3.85c1.33,1.24 2.32,2.47 2.95,3.72 0.72,1.4 1.07,2.96 1.07,4.69l0 5.93z"/>
  <path id="72" class="fil0" d="M1469 36.91l-3.44 0c-1.11,0 -2.01,-0.45 -2.67,-1.34 -0.59,-0.79 -1.04,-1.94 -1.34,-3.49 -0.3,-1.55 -0.54,-3.45 -0.7,-5.71 -0.1,-1.84 -0.2,-3.72 -0.31,-5.66 -0.1,-1.93 -0.24,-3.4 -0.41,-4.4 -0.18,-1 -0.41,-1.82 -0.7,-2.45 -0.35,-0.78 -0.85,-1.47 -1.48,-2.05l2.97 -4.75c0.65,1.95 1.11,4.28 1.38,7 0.16,1.7 0.33,5.7 0.5,12.01 0.29,2.9 0.71,4.75 1.27,5.56 0.46,0.69 0.96,1.03 1.49,1.03l3.44 0 0 4.25z"/>
  <path id="73" class="fil0" d="M1481.17 36.91l-13.9 0 0 -4.25 12.15 0c0,-1.92 -0.23,-3.38 -0.69,-4.38 -0.31,-0.7 -1.08,-1.7 -2.31,-3.02l1.92 -4c1.16,1.48 1.89,2.63 2.18,3.47 0.43,1.25 0.65,3.32 0.65,6.22l0 5.96zm-0.15 -24.15l-1.8 3.55 -4 -2.05 1.85 -3.55 3.95 2.05zm-5.55 2.25l-1.81 3.5 -3.99 -2.08 1.88 -3.52 3.92 2.1z"/>
  <path id="74" class="fil0" d="M1499.57 23.11l0 -5 5 0 0 5 -5 0zm0 20.95l0 -5 5 0 0 5 -5 0z"/>
  <polygon id="75" class="fil0" points="1512.36,54.01 1512.36,8.26 1522.06,8.26 1522.06,11.91 1516.76,11.91 1516.76,50.36 1522.06,50.36 1522.06,54.01 "/>
  <polygon id="76" class="fil0" points="1554.36,54.01 1544.66,54.01 1544.66,50.36 1549.96,50.36 1549.96,11.91 1544.66,11.91 1544.66,8.26 1554.36,8.26 "/>
  <path id="77" class="fil0" d="M257.44 44.06l-3.3 0 0 -21.01c-0.79,0.76 -1.84,1.51 -3.12,2.27 -1.29,0.76 -2.45,1.33 -3.48,1.7l0 -3.19c1.84,-0.86 3.46,-1.91 4.84,-3.15 1.38,-1.23 2.36,-2.42 2.94,-3.58l2.12 0 0 26.96z"/>
  <path id="78" class="fil0" d="M265.92 30.81c0,-3.17 0.33,-5.73 0.98,-7.67 0.65,-1.94 1.62,-3.44 2.91,-4.48 1.28,-1.04 2.9,-1.56 4.85,-1.56 1.44,0 2.7,0.28 3.79,0.87 1.09,0.58 1.99,1.41 2.69,2.51 0.7,1.08 1.25,2.42 1.65,3.99 0.41,1.56 0.61,3.68 0.61,6.34 0,3.15 -0.33,5.7 -0.97,7.64 -0.65,1.94 -1.62,3.43 -2.9,4.48 -1.28,1.05 -2.91,1.58 -4.87,1.58 -2.58,0 -4.61,-0.92 -6.09,-2.76 -1.77,-2.25 -2.65,-5.9 -2.65,-10.94zm3.38 0.01c0,4.42 0.51,7.36 1.54,8.81 1.03,1.45 2.31,2.18 3.82,2.18 1.51,0 2.79,-0.73 3.82,-2.19 1.03,-1.46 1.54,-4.39 1.54,-8.8 0,-4.42 -0.51,-7.35 -1.54,-8.81 -1.03,-1.45 -2.31,-2.18 -3.86,-2.18 -1.51,0 -2.72,0.65 -3.63,1.93 -1.13,1.63 -1.69,4.66 -1.69,9.06z"/>
  <path id="79" class="fil0" d="M692.15 37.83l3.15 -0.26c0.27,1.49 0.78,2.56 1.54,3.23 0.75,0.67 1.72,1.01 2.91,1.01 1.01,0 1.9,-0.23 2.67,-0.7 0.77,-0.46 1.39,-1.08 1.87,-1.86 0.48,-0.78 0.89,-1.83 1.22,-3.15 0.33,-1.32 0.49,-2.66 0.49,-4.03 0,-0.14 0,-0.37 -0.01,-0.66 -0.66,1.05 -1.56,1.91 -2.7,2.55 -1.14,0.66 -2.37,0.99 -3.7,0.99 -2.22,0 -4.09,-0.81 -5.63,-2.42 -1.53,-1.61 -2.3,-3.73 -2.3,-6.37 0,-2.73 0.8,-4.91 2.41,-6.58 1.6,-1.65 3.6,-2.48 6.02,-2.48 1.74,0 3.33,0.47 4.78,1.41 1.45,0.94 2.54,2.27 3.29,4.02 0.75,1.73 1.13,4.25 1.13,7.55 0,3.43 -0.37,6.16 -1.12,8.19 -0.74,2.04 -1.85,3.58 -3.32,4.65 -1.47,1.06 -3.19,1.59 -5.16,1.59 -2.1,0 -3.82,-0.58 -5.15,-1.75 -1.32,-1.17 -2.12,-2.81 -2.39,-4.93zm13.46 -11.84c0,-1.89 -0.5,-3.39 -1.5,-4.49 -0.99,-1.11 -2.2,-1.67 -3.63,-1.67 -1.48,0 -2.75,0.6 -3.82,1.79 -1.09,1.2 -1.62,2.75 -1.62,4.65 0,1.7 0.51,3.09 1.53,4.15 1.02,1.07 2.3,1.6 3.82,1.6 1.52,0 2.77,-0.53 3.75,-1.6 0.98,-1.06 1.47,-2.54 1.47,-4.43z"/>
  <path id="80" class="fil0" d="M964.66 29.5c-1.37,-0.5 -2.38,-1.22 -3.05,-2.14 -0.65,-0.93 -0.98,-2.05 -0.98,-3.34 0,-1.95 0.7,-3.59 2.1,-4.92 1.4,-1.33 3.26,-2 5.6,-2 2.33,0 4.22,0.68 5.65,2.04 1.42,1.36 2.13,3.02 2.13,4.97 0,1.25 -0.32,2.34 -0.97,3.26 -0.65,0.92 -1.64,1.63 -2.97,2.13 1.64,0.54 2.89,1.4 3.74,2.6 0.86,1.2 1.29,2.62 1.29,4.28 0,2.3 -0.81,4.22 -2.43,5.79 -1.63,1.56 -3.76,2.34 -6.4,2.34 -2.64,0 -4.78,-0.78 -6.4,-2.35 -1.62,-1.57 -2.43,-3.53 -2.43,-5.87 0,-1.74 0.44,-3.21 1.33,-4.38 0.89,-1.18 2.15,-1.98 3.79,-2.41zm-0.66 -5.6c0,1.28 0.41,2.31 1.21,3.12 0.82,0.81 1.88,1.21 3.2,1.21 1.28,0 2.32,-0.4 3.12,-1.2 0.81,-0.8 1.21,-1.78 1.21,-2.94 0,-1.21 -0.41,-2.23 -1.25,-3.06 -0.82,-0.82 -1.86,-1.23 -3.12,-1.23 -1.27,0 -2.31,0.4 -3.14,1.21 -0.82,0.81 -1.23,1.77 -1.23,2.89zm-1.09 12.42c0,0.94 0.22,1.84 0.66,2.73 0.44,0.87 1.1,1.55 1.99,2.03 0.88,0.49 1.83,0.73 2.83,0.73 1.59,0 2.89,-0.51 3.91,-1.52 1.02,-1.01 1.53,-2.3 1.53,-3.86 0,-1.59 -0.53,-2.9 -1.57,-3.94 -1.05,-1.04 -2.38,-1.56 -3.97,-1.56 -1.56,0 -2.85,0.52 -3.86,1.54 -1.01,1.03 -1.52,2.31 -1.52,3.85z"/>
  <path id="81" class="fil0" d="M1224.79 20.7l0 -3.15 17.36 0 0 2.55c-1.71,1.82 -3.41,4.23 -5.08,7.25 -1.68,3.02 -2.98,6.13 -3.9,9.32 -0.65,2.24 -1.08,4.71 -1.26,7.39l-3.37 0c0.03,-2.11 0.45,-4.67 1.24,-7.66 0.79,-3 1.92,-5.89 3.41,-8.67 1.48,-2.78 3.05,-5.13 4.72,-7.03l-13.12 0z"/>
  <path id="82" class="fil0" d="M1541.56 23.77l-3.26 0.26c-0.29,-1.29 -0.71,-2.23 -1.25,-2.82 -0.9,-0.94 -2,-1.41 -3.32,-1.41 -1.05,0 -1.99,0.29 -2.8,0.88 -1.03,0.75 -1.85,1.85 -2.45,3.3 -0.6,1.46 -0.92,3.53 -0.94,6.21 0.79,-1.21 1.77,-2.11 2.92,-2.69 1.15,-0.58 2.35,-0.88 3.61,-0.88 2.2,0 4.08,0.81 5.63,2.43 1.54,1.62 2.31,3.71 2.31,6.28 0,1.68 -0.36,3.25 -1.08,4.7 -0.73,1.45 -1.73,2.55 -3,3.32 -1.27,0.77 -2.72,1.16 -4.33,1.16 -2.74,0 -4.99,-1.01 -6.72,-3.03 -1.73,-2.02 -2.6,-5.35 -2.6,-9.99 0,-5.19 0.96,-8.96 2.88,-11.32 1.67,-2.05 3.93,-3.07 6.77,-3.07 2.12,0 3.85,0.59 5.2,1.77 1.35,1.18 2.17,2.81 2.43,4.9zm-13.5 11.59c0,1.14 0.25,2.22 0.73,3.26 0.48,1.04 1.16,1.83 2.01,2.37 0.86,0.54 1.78,0.82 2.75,0.82 1.4,0 2.6,-0.56 3.6,-1.69 0.99,-1.12 1.49,-2.65 1.49,-4.58 0,-1.86 -0.49,-3.32 -1.48,-4.39 -0.98,-1.07 -2.23,-1.6 -3.75,-1.6 -1.48,0 -2.75,0.53 -3.79,1.6 -1.04,1.07 -1.56,2.47 -1.56,4.21z"/>
 </g>
</svg>
