<?xml version="1.0" encoding="UTF-8"?>
<!DOCTYPE svg PUBLIC "-//W3C//DTD SVG 1.1//EN" "http://www.w3.org/Graphics/SVG/1.1/DTD/svg11.dtd">
<!-- Creator: CorelDRAW 2018 (64-Bit) -->
<svg xmlns="http://www.w3.org/2000/svg" xml:space="preserve" width="1417px" height="59px" version="1.1" style="shape-rendering:geometricPrecision; text-rendering:geometricPrecision; image-rendering:optimizeQuality; fill-rule:evenodd; clip-rule:evenodd"
viewBox="0 0 1417 59.04"
 xmlns:xlink="http://www.w3.org/1999/xlink">
 <defs>
  <style type="text/css">
   <![CDATA[
    .fil0 {fill:#2B2A29;fill-rule:nonzero}
   ]]>
  </style>
 </defs>
 <g id="Layer_x0020_1">
  <metadata id="CorelCorpID_0Corel-Layer"/>
  <path class="fil0" d="M19.53 33.85c0,0.87 -0.32,1.64 -0.97,2.33 -0.65,0.68 -1.49,1.02 -2.51,1.02 -1.25,0 -2.29,-0.58 -3.13,-1.76 -0.82,-1.17 -1.24,-2.63 -1.24,-4.37 0,-2.43 0.72,-4.56 2.15,-6.38 0.7,-0.89 1.75,-1.84 3.15,-2.84l0.81 1.35c-0.97,0.88 -1.7,1.65 -2.21,2.3 -0.9,1.15 -1.35,2.17 -1.35,3.05 0,0.88 0.89,1.51 2.65,1.9 1.77,0.39 2.65,1.53 2.65,3.4z"/>
  <path id="1" class="fil0" d="M47.87 36.89c0,1.79 -0.77,3.65 -2.3,5.58 -1.34,1.69 -2.99,3.15 -4.99,4.37 -1.88,1.18 -3.44,1.76 -4.66,1.76 -1.13,0 -2.33,-0.17 -3.64,-0.49 -0.99,-0.24 -2.19,-0.64 -3.57,-1.16 -1.16,-0.44 -2.33,-0.88 -3.49,-1.33l0.42 -0.97c1.07,0.22 2.19,0.43 3.36,0.66 1.16,0.22 2.22,0.34 3.16,0.34 2.08,0 4.26,-0.67 6.53,-2 2.05,-1.23 3.8,-2.77 5.25,-4.63 1.45,-1.87 2.18,-3.54 2.18,-5.04 0,-1.29 -0.38,-2.64 -1.12,-4.06 -0.6,-1.14 -1.45,-2.31 -2.53,-3.52l1.37 -3.84c1.34,1.24 2.32,2.47 2.95,3.71 0.72,1.4 1.08,2.97 1.08,4.69l0 5.93z"/>
  <path id="2" class="fil0" d="M60.05 36.9l-13.89 0 0 -4.25 12.15 0c0,-1.91 -0.24,-3.37 -0.7,-4.38 -0.3,-0.7 -1.07,-1.7 -2.3,-3.02l1.92 -3.99c1.16,1.48 1.88,2.63 2.18,3.46 0.43,1.25 0.64,3.32 0.64,6.22l0 5.96zm-0.24 4.8l-1.8 3.55 -4 -2.05 1.85 -3.55 3.95 2.05zm-5.55 2.25l-1.81 3.5 -3.99 -2.08 1.88 -3.52 3.92 2.1z"/>
  <path id="3" class="fil0" d="M72.26 36.9l-13.9 0 0 -4.25 12.15 0c0,-1.91 -0.23,-3.37 -0.69,-4.38 -0.31,-0.7 -1.08,-1.7 -2.31,-3.02l1.93 -3.99c1.15,1.48 1.88,2.63 2.17,3.46 0.43,1.25 0.65,3.32 0.65,6.22l0 5.96zm-2.55 5.92l-1.88 3.53 -3.92 -2.04 1.79 -3.56 4.01 2.07z"/>
  <path id="4" class="fil0" d="M89.11 36.9l-10.9 0c-0.93,0 -1.76,-0.26 -2.5,-0.81 -0.73,-0.53 -1.11,-1.16 -1.11,-1.9 0,-0.61 0.03,-1.17 0.1,-1.68 0.07,-0.5 0.19,-1.06 0.37,-1.66l0.5 0c0.18,0.67 0.51,1.14 0.97,1.44 0.39,0.24 0.94,0.36 1.62,0.36l9.45 0c0,-2.91 -0.4,-5.25 -1.22,-7.03 -1.02,-2.21 -2.71,-3.68 -5.07,-4.41l0.37 -4.75c2.83,1.38 4.82,3.59 6,6.62 0.95,2.44 1.42,5.63 1.42,9.57l0 4.25z"/>
  <path id="5" class="fil0" d="M101.33 36.9l-13.9 0 0 -4.25 12.15 0c0,-1.91 -0.24,-3.37 -0.69,-4.38 -0.31,-0.7 -1.08,-1.7 -2.31,-3.02l1.92 -3.99c1.16,1.48 1.89,2.63 2.18,3.46 0.43,1.25 0.65,3.32 0.65,6.22l0 5.96zm-0.15 -24.14l-1.8 3.55 -4 -2.05 1.85 -3.55 3.95 2.05zm-5.55 2.25l-1.81 3.5 -3.99 -2.08 1.88 -3.52 3.92 2.1z"/>
  <path id="6" class="fil0" d="M111.68 36.9l-12.04 0 0 -4.25 9.59 0 -3 -20.76 -1.25 -0.6c0,-1.12 0.1,-2.17 0.3,-3.15 0.2,-0.97 0.49,-1.93 0.88,-2.85l0.37 0.27c0,0.94 0.54,1.65 1.61,2.12 0.82,0.33 1.65,0.65 2.49,0.98 0,0.81 -0.06,1.66 -0.2,2.58 -0.12,0.93 -0.28,1.61 -0.46,2.06l-1.19 -0.39 2.9 19.2 0 4.79z"/>
  <path id="7" class="fil0" d="M119.93 30.67c0,1.3 -0.24,2.57 -0.72,3.78 -0.24,0.65 -0.78,1.68 -1.6,3.1l-0.44 -0.24c0.05,-0.48 0.1,-1.02 0.15,-1.64 0.04,-0.62 0.06,-1.03 0.06,-1.24 0,-1.69 -0.13,-4.06 -0.4,-7.09 -0.27,-3.04 -0.59,-6.2 -0.96,-9.51 -0.24,-2 -0.49,-4.04 -0.76,-6.12 0.32,-0.72 0.7,-1.49 1.11,-2.32 0.42,-0.82 0.81,-1.6 1.19,-2.33 0.26,1.85 0.59,4.39 0.99,7.6 0.4,3.23 0.72,6.13 0.94,8.72 0.29,3.22 0.44,5.65 0.44,7.29z"/>
  <path id="8" class="fil0" d="M140.42 23.1l0 -4.99 5 0 0 4.99 -5 0zm0 20.95l0 -5 5 0 0 5 -5 0z"/>
  <polygon id="9" class="fil0" points="153.21,54 153.21,8.26 162.91,8.26 162.91,11.91 157.61,11.91 157.61,50.35 162.91,50.35 162.91,54 "/>
  <polygon id="10" class="fil0" points="195.2,54 185.5,54 185.5,50.35 190.8,50.35 190.8,11.91 185.5,11.91 185.5,8.26 195.2,8.26 "/>
  <path id="11" class="fil0" d="M224.37 33.85c0,0.87 -0.32,1.64 -0.97,2.33 -0.65,0.68 -1.48,1.02 -2.51,1.02 -1.25,0 -2.29,-0.58 -3.12,-1.76 -0.83,-1.17 -1.24,-2.63 -1.24,-4.37 0,-2.43 0.71,-4.56 2.14,-6.38 0.71,-0.89 1.75,-1.84 3.15,-2.84l0.81 1.35c-0.96,0.88 -1.7,1.65 -2.21,2.3 -0.89,1.15 -1.34,2.17 -1.34,3.05 0,0.88 0.88,1.51 2.65,1.9 1.76,0.39 2.64,1.53 2.64,3.4z"/>
  <path id="12" class="fil0" d="M247.01 36.9l-3.49 0c-1.17,0 -2.2,-1 -3.1,-2.99 -0.67,-1.5 -1.2,-3.42 -1.61,-5.77 -0.48,0.9 -1.11,1.61 -1.85,2.11 -0.75,0.5 -1.54,0.75 -2.36,0.75 -1.87,0 -3.43,-0.12 -4.67,-0.37 -1.24,-0.26 -1.87,-0.58 -1.87,-0.97 0,-1.4 0.91,-2.95 2.73,-4.65 1.81,-1.7 4.07,-3.19 6.8,-4.46 -0.04,-0.13 -0.1,-0.46 -0.21,-1.02 -0.11,-0.55 -0.17,-0.89 -0.17,-1.02 0,-0.55 0.19,-1.17 0.58,-1.84 0.31,-0.56 0.73,-1.13 1.25,-1.71 0.16,1 0.33,1.98 0.5,2.92 0.17,0.94 0.36,1.92 0.6,2.93l0.72 4.19c0.41,2.3 0.78,4.01 1.1,5.12 0.51,1.69 1.03,2.53 1.57,2.53l3.48 0 0 4.25zm-8.52 -10.89l-0.48 -2.66c-1.4,0.51 -2.51,1.04 -3.31,1.58 -0.81,0.54 -1.49,1.27 -2.04,2.16 0.35,0.15 0.74,0.26 1.19,0.34 0.45,0.08 1.08,0.12 1.87,0.12 0.97,0 1.89,-0.51 2.77,-1.54zm2.27 -18.35l-1.8 3.55 -4 -2.05 1.85 -3.55 3.95 2.05zm-5.55 2.25l-1.81 3.5 -3.99 -2.08 1.89 -3.52 3.91 2.1z"/>
  <path id="13" class="fil0" d="M259.21 36.9l-13.9 0 0 -4.25 12.15 0c0,-1.91 -0.24,-3.37 -0.69,-4.38 -0.31,-0.7 -1.08,-1.7 -2.31,-3.02l1.92 -3.99c1.16,1.48 1.89,2.63 2.18,3.46 0.43,1.25 0.65,3.32 0.65,6.22l0 5.96zm-2.55 5.92l-1.88 3.53 -3.92 -2.04 1.79 -3.56 4.01 2.07z"/>
  <path id="14" class="fil0" d="M280.81 35.38c0,2.7 -0.99,5.39 -2.98,8.05 -2.21,2.98 -4.77,4.47 -7.67,4.47 -1.07,0 -2.18,-0.13 -3.32,-0.37 -0.83,-0.17 -1.92,-0.48 -3.25,-0.91 -1.06,-0.38 -2.12,-0.74 -3.17,-1.1l0.41 -0.85c0.91,0.2 1.87,0.43 2.87,0.67 1,0.24 1.9,0.36 2.7,0.36 1.98,0 3.86,-0.51 5.64,-1.53 1.38,-0.8 2.76,-1.97 4.15,-3.49 0.7,-0.78 1.69,-2.04 2.97,-3.78 -2.2,0 -3.85,-0.35 -4.94,-1.06 -1.24,-0.8 -1.86,-2.11 -1.86,-3.95 0,-1.68 0.39,-3.25 1.18,-4.69 0.91,-1.66 2.07,-2.5 3.47,-2.5 1.43,0 2.44,0.83 3.07,2.49 0.49,1.29 0.73,3.09 0.73,5.4l0 2.79zm-1.55 -2.68c-0.36,-1.57 -0.79,-2.65 -1.3,-3.26 -0.43,-0.53 -0.97,-0.79 -1.61,-0.79 -0.46,0 -0.86,0.15 -1.19,0.45 -0.33,0.31 -0.5,0.69 -0.5,1.14 0,0.81 0.36,1.42 1.08,1.84 0.71,0.41 1.89,0.62 3.52,0.62z"/>
  <path id="15" class="fil0" d="M292.92 9.73l-2.09 3.28 -3.06 -2 2.1 -3.25 3.05 1.97zm-5.6 1.45l-1.94 3.33 -3.01 -1.98 2.03 -3.27 2.92 1.92zm6.65 25.72l-14.85 0 0 -4.25 8.37 0c1.01,0 1.87,-0.03 2.58,-0.11 0.7,-0.07 1.48,-0.23 2.3,-0.47 -2.8,-0.41 -4.61,-0.78 -5.44,-1.14 -1.88,-0.82 -2.81,-2.19 -2.81,-4.14 0,-1.71 0.45,-3.32 1.34,-4.83 1.02,-1.71 2.24,-2.55 3.69,-2.55 1.67,0 2.92,1.05 3.79,3.16 0.68,1.68 1.03,3.65 1.03,5.92l0 8.41zm-2.2 -8.5c-0.38,-1.3 -0.74,-2.27 -1.08,-2.91 -0.67,-1.23 -1.47,-1.84 -2.41,-1.84 -0.45,0 -0.85,0.19 -1.17,0.55 -0.33,0.35 -0.49,0.78 -0.49,1.26 0,1.24 0.64,2.08 1.92,2.5 0.46,0.15 1.54,0.29 3.23,0.44z"/>
  <path id="16" class="fil0" d="M313.64 36.9l-3.58 0c-1.06,0 -2.12,-0.25 -3.21,-0.76 -1.3,-0.6 -2.25,-1.44 -2.83,-2.51 -1.09,0.98 -2.34,1.73 -3.74,2.27 -1.71,0.67 -3.65,1 -5.83,1l-2.2 0 0 -4.25 2.2 0c1.36,0 2.64,-0.15 3.81,-0.44 1.34,-0.33 2.65,-0.87 3.94,-1.62l-1.04 -1.31c-0.52,-0.62 -1.11,-0.93 -1.76,-0.93 -0.3,0 -0.56,0.05 -0.79,0.16 -0.23,0.11 -0.49,0.34 -0.76,0.69l-0.5 0 0 -1.44c0,-1.8 0.47,-3.03 1.41,-3.7 0.86,-0.61 2.35,-0.91 4.49,-0.91 1.83,0 3.33,0.25 4.48,0.74 1.51,0.63 2.26,1.61 2.26,2.93 0,0.7 -0.3,1.43 -0.9,2.18 -0.43,0.54 -1.23,1.31 -2.39,2.29 0.25,0.39 0.75,0.71 1.5,0.97 0.74,0.26 1.35,0.39 1.86,0.39l3.58 0 0 4.25z"/>
  <path id="17" class="fil0" d="M323.99 36.9l-12.05 0 0 -4.25 9.6 0 -3 -20.76 -1.25 -0.6c0,-1.12 0.1,-2.17 0.29,-3.15 0.2,-0.97 0.5,-1.93 0.89,-2.85l0.37 0.27c0,0.94 0.54,1.65 1.61,2.12 0.82,0.33 1.65,0.65 2.49,0.98 0,0.81 -0.07,1.66 -0.2,2.58 -0.12,0.93 -0.28,1.61 -0.47,2.06l-1.18 -0.39 2.9 19.2 0 4.79z"/>
  <path id="18" class="fil0" d="M332.24 30.67c0,1.3 -0.24,2.57 -0.72,3.78 -0.25,0.65 -0.78,1.68 -1.61,3.1l-0.44 -0.24c0.06,-0.48 0.11,-1.02 0.15,-1.64 0.05,-0.62 0.07,-1.03 0.07,-1.24 0,-1.69 -0.13,-4.06 -0.4,-7.09 -0.28,-3.04 -0.59,-6.2 -0.97,-9.51 -0.23,-2 -0.48,-4.04 -0.75,-6.12 0.32,-0.72 0.69,-1.49 1.11,-2.32 0.42,-0.82 0.81,-1.6 1.18,-2.33 0.26,1.85 0.6,4.39 1,7.6 0.4,3.23 0.71,6.13 0.94,8.72 0.29,3.22 0.44,5.65 0.44,7.29z"/>
  <path id="19" class="fil0" d="M352.73 23.1l0 -4.99 5 0 0 4.99 -5 0zm0 20.95l0 -5 5 0 0 5 -5 0z"/>
  <polygon id="20" class="fil0" points="365.52,54 365.52,8.26 375.21,8.26 375.21,11.91 369.91,11.91 369.91,50.35 375.21,50.35 375.21,54 "/>
  <polygon id="21" class="fil0" points="407.5,54 397.81,54 397.81,50.35 403.11,50.35 403.11,11.91 397.81,11.91 397.81,8.26 407.5,8.26 "/>
  <path id="22" class="fil0" d="M436.68 33.85c0,0.87 -0.32,1.64 -0.97,2.33 -0.65,0.68 -1.49,1.02 -2.51,1.02 -1.25,0 -2.29,-0.58 -3.13,-1.76 -0.82,-1.17 -1.24,-2.63 -1.24,-4.37 0,-2.43 0.72,-4.56 2.15,-6.38 0.7,-0.89 1.75,-1.84 3.15,-2.84l0.81 1.35c-0.97,0.88 -1.7,1.65 -2.21,2.3 -0.9,1.15 -1.35,2.17 -1.35,3.05 0,0.88 0.89,1.51 2.65,1.9 1.77,0.39 2.65,1.53 2.65,3.4z"/>
  <path id="23" class="fil0" d="M459.32 36.9l-3.49 0c-1.17,0 -2.2,-1 -3.1,-2.99 -0.67,-1.5 -1.2,-3.42 -1.61,-5.77 -0.48,0.9 -1.11,1.61 -1.85,2.11 -0.75,0.5 -1.54,0.75 -2.37,0.75 -1.86,0 -3.42,-0.12 -4.66,-0.37 -1.24,-0.26 -1.87,-0.58 -1.87,-0.97 0,-1.4 0.91,-2.95 2.73,-4.65 1.8,-1.7 4.07,-3.19 6.8,-4.46 -0.04,-0.13 -0.11,-0.46 -0.21,-1.02 -0.11,-0.55 -0.17,-0.89 -0.17,-1.02 0,-0.55 0.19,-1.17 0.57,-1.84 0.32,-0.56 0.74,-1.13 1.26,-1.71 0.16,1 0.33,1.98 0.49,2.92 0.18,0.94 0.37,1.92 0.6,2.93l0.73 4.19c0.41,2.3 0.77,4.01 1.1,5.12 0.51,1.69 1.02,2.53 1.57,2.53l3.48 0 0 4.25zm-8.53 -10.89l-0.47 -2.66c-1.4,0.51 -2.51,1.04 -3.32,1.58 -0.8,0.54 -1.48,1.27 -2.03,2.16 0.34,0.15 0.73,0.26 1.19,0.34 0.45,0.08 1.08,0.12 1.87,0.12 0.97,0 1.89,-0.51 2.76,-1.54zm2.28 -18.35l-1.8 3.55 -4 -2.05 1.85 -3.55 3.95 2.05zm-5.55 2.25l-1.81 3.5 -3.99 -2.08 1.88 -3.52 3.92 2.1z"/>
  <path id="24" class="fil0" d="M479.01 36.9l-2.53 0c-1.09,0 -2.32,-0.25 -3.68,-0.74 -1.58,-0.57 -2.96,-1.36 -4.17,-2.36 -0.94,1.17 -1.91,1.98 -2.89,2.43 -0.98,0.45 -2.42,0.67 -4.31,0.67l-3.81 0 0 -4.25 3.73 0c1.48,0 2.8,-0.37 3.95,-1.12 0.9,-0.59 1.71,-1.41 2.44,-2.48 0.99,-1.43 2.22,-2.68 3.67,-3.74 1.3,-0.94 2.49,-1.55 3.58,-1.81 1.12,1.71 2.02,3.25 2.68,4.63 0.89,1.86 1.34,3.36 1.34,4.51l0 4.26zm-2.8 -4.81c-0.2,-0.95 -0.53,-1.89 -0.97,-2.8 -0.37,-0.78 -0.88,-1.57 -1.49,-2.39 -0.78,0.2 -1.43,0.57 -1.97,1.11 -0.36,0.34 -0.78,0.93 -1.26,1.74 0.58,0.64 1.4,1.21 2.47,1.72 1.06,0.51 2.07,0.82 3.01,0.93l0.21 -0.31z"/>
  <path id="25" class="fil0" d="M498.71 36.9l-21.4 0 0 -4.25 18.57 0c-1.14,-1.72 -2.44,-3.22 -3.9,-4.5 -1.47,-1.27 -3.45,-2.65 -5.94,-4.13l-0.81 0.76 -2.89 -2.2c-1.02,-0.84 -1.53,-1.5 -1.53,-1.97 0,-2.8 0.69,-5 2.06,-6.6 1.28,-1.47 3.47,-2.79 6.58,-3.96l6.91 -2.69 0 4.25 -5.11 1.71c-2.04,0.66 -3.69,1.27 -4.94,1.82 -1.6,0.7 -2.4,1.24 -2.4,1.62 0,0.36 0.53,0.95 1.57,1.72 0.65,0.49 1.31,0.98 1.97,1.47 2.48,1.86 4.64,3.83 6.48,5.87 1.98,2.2 3.57,4.47 4.78,6.83l0 4.25z"/>
  <path id="26" class="fil0" d="M525.2 36.9l-28.19 0 0 -4.25 19.89 0c-1.65,-1.29 -3.05,-2.29 -4.2,-3.01 -1.41,-0.89 -2.7,-1.54 -3.88,-1.95 -1.31,-0.46 -2.65,-0.69 -4,-0.69 -0.83,0 -1.66,0.06 -2.51,0.18 0.47,-1.2 1.09,-2.17 1.86,-2.89 1.1,-1.06 2.49,-1.58 4.19,-1.58 1.66,0 3.62,0.81 5.89,2.44 1.11,0.8 2.95,2.35 5.49,4.63 1.96,1.76 3.3,2.72 4,2.87l1.46 0 0 4.25z"/>
  <path id="27" class="fil0" d="M544.89 36.9l-2.53 0c-1.1,0 -2.32,-0.25 -3.69,-0.74 -1.57,-0.57 -2.95,-1.36 -4.16,-2.36 -0.94,1.17 -1.91,1.98 -2.89,2.43 -0.99,0.45 -2.43,0.67 -4.32,0.67l-3.81 0 0 -4.25 3.74 0c1.48,0 2.8,-0.37 3.95,-1.12 0.9,-0.59 1.7,-1.41 2.44,-2.48 0.99,-1.43 2.21,-2.68 3.66,-3.74 1.3,-0.94 2.49,-1.55 3.58,-1.81 1.13,1.71 2.02,3.25 2.69,4.63 0.89,1.86 1.34,3.36 1.34,4.51l0 4.26zm-2.8 -4.81c-0.21,-0.95 -0.53,-1.89 -0.98,-2.8 -0.37,-0.78 -0.87,-1.57 -1.49,-2.39 -0.77,0.2 -1.43,0.57 -1.96,1.11 -0.36,0.34 -0.79,0.93 -1.27,1.74 0.58,0.64 1.41,1.21 2.48,1.72 1.05,0.51 2.06,0.82 3,0.93l0.22 -0.31z"/>
  <path id="28" class="fil0" d="M555.24 36.9l-12.05 0 0 -4.25 9.6 0 -3 -20.76 -1.25 -0.6c0,-1.12 0.1,-2.17 0.29,-3.15 0.2,-0.97 0.49,-1.93 0.88,-2.85l0.38 0.27c0,0.94 0.53,1.65 1.6,2.12 0.82,0.33 1.65,0.65 2.5,0.98 0,0.81 -0.07,1.66 -0.2,2.58 -0.13,0.93 -0.29,1.61 -0.47,2.06l-1.18 -0.39 2.9 19.2 0 4.79z"/>
  <path id="29" class="fil0" d="M563.48 30.67c0,1.3 -0.24,2.57 -0.71,3.78 -0.25,0.65 -0.79,1.68 -1.61,3.1l-0.44 -0.24c0.06,-0.48 0.11,-1.02 0.15,-1.64 0.04,-0.62 0.06,-1.03 0.06,-1.24 0,-1.69 -0.13,-4.06 -0.4,-7.09 -0.27,-3.04 -0.59,-6.2 -0.96,-9.51 -0.24,-2 -0.48,-4.04 -0.76,-6.12 0.33,-0.72 0.7,-1.49 1.12,-2.32 0.41,-0.82 0.81,-1.6 1.18,-2.33 0.26,1.85 0.59,4.39 0.99,7.6 0.4,3.23 0.72,6.13 0.94,8.72 0.29,3.22 0.44,5.65 0.44,7.29z"/>
  <path id="30" class="fil0" d="M596.37 36.9l-2.91 0c-2.71,0 -5.07,0.25 -7.1,0.76 -2.55,0.63 -3.84,1.54 -3.84,2.73 0,1.08 0.19,2.23 0.55,3.44 0.37,1.23 0.74,2.46 1.13,3.71 0.38,1.26 0.57,2.4 0.57,3.45 0,0.62 -0.04,1.17 -0.13,1.68 -0.09,0.5 -0.26,1.16 -0.49,1.98 -0.42,-1.35 -0.84,-2.7 -1.24,-4.05 -0.77,-2.58 -1.35,-4.52 -1.71,-5.84 -0.59,-2.08 -0.88,-3.33 -0.88,-3.76 0,-2.08 0.44,-3.68 1.31,-4.8 0.87,-1.11 2.21,-1.94 4.02,-2.47 1.43,-0.43 3.59,-0.79 6.47,-1.08 -1.03,-1.05 -1.67,-1.67 -1.91,-1.86 -0.83,-0.66 -1.67,-0.99 -2.52,-0.99 -0.54,0 -1.06,0.17 -1.54,0.49 -0.4,0.27 -0.87,0.72 -1.43,1.36l-1.1 -0.71c0.49,-1.22 1.04,-2.19 1.66,-2.93 1.03,-1.21 2.24,-1.81 3.64,-1.81 1.01,0 2.02,0.38 3.02,1.13 0.84,0.62 1.69,1.48 2.55,2.59 0.42,0.53 1.05,1.45 1.88,2.73l0 4.25z"/>
  <path id="31" class="fil0" d="M622.9 36.9l-1.86 0c-1.04,0 -1.92,-0.14 -2.66,-0.42 -0.75,-0.29 -1.43,-0.69 -2.04,-1.21 -0.77,0.6 -1.43,1 -2.01,1.19 -0.83,0.29 -1.97,0.44 -3.43,0.44l-1.59 0c-0.85,0 -1.7,-0.17 -2.55,-0.49 -0.55,-0.21 -1.24,-0.56 -2.06,-1.05 -0.78,0.59 -1.5,0.99 -2.15,1.21 -0.65,0.22 -1.71,0.33 -3.17,0.33l-4.72 0 0 -4.25 4.72 0c1.32,0 2.27,-0.11 2.85,-0.34 0.94,-0.37 1.41,-1.12 1.41,-2.24 0,-0.47 -0.02,-0.95 -0.07,-1.42 -0.04,-0.47 -0.14,-1 -0.26,-1.58l0.97 -1.47c0.46,1.5 0.84,2.59 1.14,3.27 0.52,1.19 1.1,2.08 1.71,2.68 0.76,0.74 1.66,1.1 2.71,1.1l1.65 0c1.23,0 2.14,-0.18 2.73,-0.56 0.65,-0.42 0.99,-1.1 0.99,-2.02 0,-0.51 -0.04,-0.99 -0.1,-1.47 -0.06,-0.47 -0.15,-0.98 -0.25,-1.53l0.97 -1.47 0.51 2.3c0.44,1.81 0.97,3.07 1.61,3.77 0.56,0.62 1.3,0.93 2.25,0.93 0.43,0 0.79,-0.13 1.05,-0.41 0.27,-0.26 0.4,-0.61 0.4,-1.04 0,-0.91 -0.33,-1.88 -1,-2.9 -0.11,-0.16 -0.51,-0.7 -1.2,-1.6l1.58 -2.65c0.66,1.01 1.11,1.89 1.35,2.62 0.35,1.11 0.52,2.58 0.52,4.42l0 5.86z"/>
  <path id="32" class="fil0" d="M631.14 30.67c0,1.3 -0.24,2.57 -0.71,3.78 -0.25,0.65 -0.79,1.68 -1.61,3.1l-0.44 -0.24c0.06,-0.48 0.11,-1.02 0.15,-1.64 0.04,-0.62 0.06,-1.03 0.06,-1.24 0,-1.69 -0.13,-4.06 -0.4,-7.09 -0.27,-3.04 -0.59,-6.2 -0.96,-9.51 -0.24,-2 -0.48,-4.04 -0.76,-6.12 0.32,-0.72 0.7,-1.49 1.12,-2.32 0.41,-0.82 0.8,-1.6 1.18,-2.33 0.26,1.85 0.59,4.39 0.99,7.6 0.4,3.23 0.72,6.13 0.94,8.72 0.29,3.22 0.44,5.65 0.44,7.29z"/>
  <path id="33" class="fil0" d="M651.63 23.1l0 -4.99 5 0 0 4.99 -5 0zm0 20.95l0 -5 5 0 0 5 -5 0z"/>
  <polygon id="34" class="fil0" points="664.42,54 664.42,8.26 674.12,8.26 674.12,11.91 668.82,11.91 668.82,50.35 674.12,50.35 674.12,54 "/>
  <polygon id="35" class="fil0" points="706.41,54 696.71,54 696.71,50.35 702.01,50.35 702.01,11.91 696.71,11.91 696.71,8.26 706.41,8.26 "/>
  <path id="36" class="fil0" d="M735.59 33.85c0,0.87 -0.33,1.64 -0.98,2.33 -0.65,0.68 -1.48,1.02 -2.51,1.02 -1.25,0 -2.29,-0.58 -3.12,-1.76 -0.83,-1.17 -1.24,-2.63 -1.24,-4.37 0,-2.43 0.71,-4.56 2.15,-6.38 0.7,-0.89 1.75,-1.84 3.15,-2.84l0.81 1.35c-0.97,0.88 -1.7,1.65 -2.21,2.3 -0.9,1.15 -1.35,2.17 -1.35,3.05 0,0.88 0.88,1.51 2.65,1.9 1.76,0.39 2.65,1.53 2.65,3.4z"/>
  <path id="37" class="fil0" d="M768.57 39.41c0,0.72 -0.1,1.45 -0.29,2.17 -0.2,0.71 -0.48,1.4 -0.87,2.04 -0.38,0.64 -0.86,1.23 -1.44,1.76 -0.58,0.54 -1.26,0.99 -2.04,1.37 -2.79,1.37 -6.48,2.05 -11.1,2.05 -7.77,0 -11.65,-2.76 -11.65,-8.27 0,-3.76 1.12,-7.74 3.37,-11.93l1.03 0.44c-1.67,3.96 -2.5,7.07 -2.5,9.32 0,4.06 3.34,6.09 10.03,6.09 1.76,0 3.38,-0.12 4.89,-0.36 1.5,-0.23 2.91,-0.59 4.2,-1.08 0.75,-0.28 1.41,-0.6 1.97,-0.98 0.56,-0.37 1.03,-0.77 1.42,-1.2 0.38,-0.42 0.66,-0.85 0.85,-1.28 0.19,-0.43 0.28,-0.85 0.28,-1.26 0,-0.24 -0.01,-0.46 -0.03,-0.66 -0.03,-0.21 -0.09,-0.45 -0.19,-0.73l-3.96 0c-1.44,0 -2.62,-0.32 -3.52,-0.97 -1.1,-0.8 -1.65,-1.98 -1.65,-3.54 0,-1.85 0.48,-3.61 1.43,-5.29 1.05,-1.86 2.31,-2.8 3.79,-2.8 1.94,0 3.46,1.3 4.55,3.91 0.96,2.18 1.43,4.74 1.43,7.68l0 3.52zm-3.63 -6.81c-0.14,-0.57 -0.34,-1.12 -0.55,-1.64 -0.22,-0.52 -0.44,-0.93 -0.68,-1.23 -0.24,-0.33 -0.56,-0.6 -0.95,-0.84 -0.39,-0.22 -0.76,-0.34 -1.08,-0.34 -0.32,0 -0.61,0.08 -0.84,0.23 -0.24,0.14 -0.44,0.32 -0.59,0.53 -0.15,0.22 -0.27,0.44 -0.35,0.69 -0.09,0.24 -0.13,0.47 -0.13,0.66 0,0.51 0.25,0.92 0.76,1.23 0.42,0.26 0.95,0.45 1.57,0.54 0.16,0.03 0.37,0.06 0.62,0.09 0.26,0.02 0.52,0.04 0.78,0.05 0.28,0.01 0.54,0.02 0.79,0.02 0.26,0.01 0.47,0.01 0.65,0.01zm0.63 -18.24l-1.8 3.55 -4 -2.05 1.85 -3.55 3.95 2.05zm-5.55 2.25l-1.81 3.49 -3.99 -2.07 1.89 -3.52 3.91 2.1z"/>
  <path id="38" class="fil0" d="M780.74 36.9l-13.89 0 0 -4.25 12.14 0c0,-1.91 -0.23,-3.37 -0.69,-4.38 -0.31,-0.7 -1.07,-1.7 -2.31,-3.02l1.93 -3.99c1.16,1.48 1.88,2.63 2.17,3.46 0.44,1.25 0.65,3.32 0.65,6.22l0 5.96zm-2.55 5.92l-1.88 3.53 -3.92 -2.04 1.8 -3.56 4 2.07z"/>
  <path id="39" class="fil0" d="M809.84 36.9l-30.79 0 0 -4.25 3.74 -0.02c1.11,0 2.15,-0.14 3.11,-0.44 1.11,-0.34 2.37,-0.94 3.77,-1.8 0.29,-0.71 0.53,-1.49 0.71,-2.3 0.18,-0.83 0.27,-1.62 0.27,-2.39 0,-1.74 -0.16,-3.65 -0.48,-5.75 -0.25,-1.54 -0.61,-3.33 -1.11,-5.39 -0.25,-1.08 -0.59,-2.39 -1.01,-3.94l-1.5 -0.75c0.12,-0.98 0.28,-1.93 0.5,-2.84 0.22,-0.91 0.53,-1.79 0.92,-2.64 0.26,0.77 0.85,1.36 1.77,1.79 0.76,0.34 1.73,0.56 2.91,0.68 -0.16,1.67 -0.29,2.75 -0.37,3.2 -0.08,0.46 -0.23,1.02 -0.47,1.69 -0.1,-0.02 -0.4,-0.1 -0.89,-0.24l-0.32 -0.1c0.58,1.91 1.06,3.85 1.44,5.87 0.37,2.01 0.56,3.7 0.56,5.07 0,1.15 -0.12,2.44 -0.35,3.85 -0.09,0.5 -0.24,1.29 -0.45,2.35 2.84,-1.65 4.66,-2.66 5.45,-3.04 2.4,-1.14 4.47,-1.71 6.19,-1.71 2.19,0 3.83,0.65 4.92,1.93 0.99,1.17 1.48,2.84 1.48,5l0 6.17zm-3.85 -6.12c0,-0.83 -0.42,-1.45 -1.28,-1.89 -0.85,-0.42 -2.07,-0.64 -3.67,-0.64 -1.19,0 -2.55,0.26 -4.1,0.78 -1.27,0.42 -2.62,1.01 -4.05,1.75 -1.06,0.55 -2.15,1.17 -3.27,1.87l10.62 0c3.84,0 5.75,-0.62 5.75,-1.87z"/>
  <path id="40" class="fil0" d="M829.51 36.9l-2.53 0c-1.09,0 -2.31,-0.25 -3.68,-0.74 -1.58,-0.57 -2.96,-1.36 -4.17,-2.36 -0.94,1.17 -1.9,1.98 -2.89,2.43 -0.98,0.45 -2.42,0.67 -4.31,0.67l-3.81 0 0 -4.25 3.73 0c1.48,0 2.8,-0.37 3.95,-1.12 0.9,-0.59 1.71,-1.41 2.44,-2.48 0.99,-1.43 2.22,-2.68 3.67,-3.74 1.3,-0.94 2.49,-1.55 3.58,-1.81 1.13,1.71 2.02,3.25 2.68,4.63 0.89,1.86 1.34,3.36 1.34,4.51l0 4.26zm-2.79 -4.81c-0.21,-0.95 -0.54,-1.89 -0.98,-2.8 -0.37,-0.78 -0.87,-1.57 -1.49,-2.39 -0.78,0.2 -1.43,0.57 -1.97,1.11 -0.36,0.34 -0.78,0.93 -1.26,1.74 0.58,0.64 1.4,1.21 2.47,1.72 1.06,0.51 2.07,0.82 3.01,0.93l0.22 -0.31z"/>
  <path id="41" class="fil0" d="M839.86 36.9l-12.05 0 0 -4.25 9.6 0 -3 -20.76 -1.25 -0.6c0,-1.12 0.1,-2.17 0.29,-3.15 0.21,-0.97 0.5,-1.93 0.89,-2.85l0.37 0.27c0,0.94 0.54,1.65 1.61,2.12 0.82,0.33 1.65,0.65 2.49,0.98 0,0.81 -0.07,1.66 -0.2,2.58 -0.12,0.93 -0.28,1.61 -0.47,2.06l-1.18 -0.39 2.9 19.2 0 4.79z"/>
  <path id="42" class="fil0" d="M848.11 30.67c0,1.3 -0.24,2.57 -0.72,3.78 -0.25,0.65 -0.78,1.68 -1.61,3.1l-0.44 -0.24c0.06,-0.48 0.11,-1.02 0.15,-1.64 0.05,-0.62 0.07,-1.03 0.07,-1.24 0,-1.69 -0.13,-4.06 -0.4,-7.09 -0.27,-3.04 -0.59,-6.2 -0.97,-9.51 -0.23,-2 -0.48,-4.04 -0.75,-6.12 0.32,-0.72 0.7,-1.49 1.11,-2.32 0.42,-0.82 0.81,-1.6 1.19,-2.33 0.25,1.85 0.59,4.39 0.99,7.6 0.4,3.23 0.71,6.13 0.94,8.72 0.29,3.22 0.44,5.65 0.44,7.29z"/>
  <path id="43" class="fil0" d="M890.39 36.9c0,3.63 -1.06,6.29 -3.2,7.99 -2.29,1.84 -5.99,2.76 -11.09,2.76 -3.26,0 -5.74,-0.57 -7.47,-1.71 -1.89,-1.26 -2.83,-3.17 -2.83,-5.76 0,-1.4 0.17,-2.82 0.51,-4.25 0.35,-1.44 0.81,-2.88 1.4,-4.33 0.36,-0.87 0.98,-2.22 1.86,-4.05l0.98 0.45c-1.14,2.34 -1.89,4.18 -2.25,5.53 -0.37,1.35 -0.55,2.58 -0.55,3.71 0,2.01 0.71,3.54 2.16,4.59 1.44,1.04 3.49,1.57 6.15,1.57 3.08,0 5.79,-0.54 8.17,-1.63 2.94,-1.34 4.41,-3.23 4.41,-5.64 0,-1.65 -0.24,-3.19 -0.73,-4.62 -0.43,-1.27 -1.03,-2.36 -1.82,-3.31l2.03 -5c0.86,1.32 1.46,2.66 1.78,4.03 0.33,1.36 0.49,3.17 0.49,5.43l0 4.24zm-9.05 -18.73l-1.88 3.53 -3.91 -2.04 1.79 -3.55 4 2.06z"/>
  <path id="44" class="fil0" d="M911.98 35.38c0,2.7 -0.99,5.39 -2.98,8.05 -2.21,2.98 -4.77,4.47 -7.67,4.47 -1.07,0 -2.18,-0.13 -3.32,-0.37 -0.84,-0.17 -1.92,-0.48 -3.25,-0.91 -1.06,-0.38 -2.12,-0.74 -3.18,-1.1l0.42 -0.85c0.91,0.2 1.87,0.43 2.87,0.67 1,0.24 1.9,0.36 2.7,0.36 1.98,0 3.86,-0.51 5.64,-1.53 1.38,-0.8 2.76,-1.97 4.14,-3.49 0.7,-0.78 1.7,-2.04 2.98,-3.78 -2.2,0 -3.85,-0.35 -4.94,-1.06 -1.24,-0.8 -1.86,-2.11 -1.86,-3.95 0,-1.68 0.39,-3.25 1.17,-4.69 0.92,-1.66 2.08,-2.5 3.48,-2.5 1.42,0 2.44,0.83 3.07,2.49 0.49,1.29 0.73,3.09 0.73,5.4l0 2.79zm-1.55 -2.68c-0.36,-1.57 -0.79,-2.65 -1.3,-3.26 -0.43,-0.53 -0.98,-0.79 -1.61,-0.79 -0.46,0 -0.86,0.15 -1.19,0.45 -0.33,0.31 -0.5,0.69 -0.5,1.14 0,0.81 0.36,1.42 1.07,1.84 0.72,0.41 1.9,0.62 3.53,0.62z"/>
  <path id="45" class="fil0" d="M924.18 36.9l-13.89 0 0 -4.25 12.15 0c0,-1.91 -0.24,-3.37 -0.7,-4.38 -0.31,-0.7 -1.07,-1.7 -2.3,-3.02l1.92 -3.99c1.16,1.48 1.88,2.63 2.17,3.46 0.44,1.25 0.65,3.32 0.65,6.22l0 5.96zm-2 -22.58l-1.88 3.54 -3.91 -2.05 1.79 -3.55 4 2.06z"/>
  <path id="46" class="fil0" d="M935.69 36.9l-3.43 0c-1.12,0 -2.01,-0.45 -2.68,-1.34 -0.59,-0.78 -1.04,-1.94 -1.34,-3.49 -0.3,-1.54 -0.53,-3.44 -0.7,-5.71 -0.1,-1.83 -0.2,-3.71 -0.31,-5.66 -0.1,-1.93 -0.24,-3.39 -0.4,-4.39 -0.18,-1 -0.41,-1.82 -0.7,-2.45 -0.35,-0.79 -0.85,-1.47 -1.49,-2.05l2.98 -4.75c0.65,1.95 1.1,4.28 1.37,7 0.17,1.7 0.33,5.7 0.5,12 0.29,2.9 0.72,4.75 1.28,5.57 0.45,0.68 0.95,1.02 1.49,1.02l3.43 0 0 4.25z"/>
  <path id="47" class="fil0" d="M947.76 9.73l-2.08 3.28 -3.07 -2 2.11 -3.25 3.04 1.97zm-5.6 1.45l-1.93 3.33 -3.02 -1.98 2.04 -3.27 2.91 1.92zm6.65 25.72l-14.85 0 0 -4.25 8.38 0c1.01,0 1.86,-0.03 2.57,-0.11 0.71,-0.07 1.48,-0.23 2.31,-0.47 -2.8,-0.41 -4.62,-0.78 -5.45,-1.14 -1.87,-0.82 -2.81,-2.19 -2.81,-4.14 0,-1.71 0.45,-3.32 1.34,-4.83 1.02,-1.71 2.25,-2.55 3.7,-2.55 1.66,0 2.92,1.05 3.79,3.16 0.68,1.68 1.02,3.65 1.02,5.92l0 8.41zm-2.2 -8.5c-0.37,-1.3 -0.73,-2.27 -1.07,-2.91 -0.67,-1.23 -1.48,-1.84 -2.42,-1.84 -0.45,0 -0.84,0.19 -1.17,0.55 -0.32,0.35 -0.49,0.78 -0.49,1.26 0,1.24 0.64,2.08 1.93,2.5 0.46,0.15 1.53,0.29 3.22,0.44z"/>
  <path id="48" class="fil0" d="M959.14 36.9l-12.05 0 0 -4.25 9.6 0 -3 -20.76 -1.25 -0.6c0,-1.12 0.1,-2.17 0.29,-3.15 0.2,-0.97 0.5,-1.93 0.89,-2.85l0.37 0.27c0,0.94 0.54,1.65 1.61,2.12 0.82,0.33 1.65,0.65 2.49,0.98 0,0.81 -0.07,1.66 -0.2,2.58 -0.12,0.93 -0.28,1.61 -0.47,2.06l-1.18 -0.39 2.9 19.2 0 4.79z"/>
  <path id="49" class="fil0" d="M967.39 30.67c0,1.3 -0.24,2.57 -0.72,3.78 -0.25,0.65 -0.78,1.68 -1.61,3.1l-0.44 -0.24c0.06,-0.48 0.11,-1.02 0.15,-1.64 0.05,-0.62 0.07,-1.03 0.07,-1.24 0,-1.69 -0.13,-4.06 -0.4,-7.09 -0.28,-3.04 -0.59,-6.2 -0.97,-9.51 -0.23,-2 -0.48,-4.04 -0.75,-6.12 0.32,-0.72 0.69,-1.49 1.11,-2.32 0.42,-0.82 0.81,-1.6 1.18,-2.33 0.26,1.85 0.6,4.39 1,7.6 0.4,3.23 0.71,6.13 0.94,8.72 0.29,3.22 0.44,5.65 0.44,7.29z"/>
  <path id="50" class="fil0" d="M996.92 29.67c0,2.3 -0.37,4.03 -1.12,5.19 -1.15,1.79 -3.27,2.69 -6.33,2.69 -1.18,0 -2.17,-0.23 -2.95,-0.71 -0.89,-0.54 -1.34,-1.31 -1.34,-2.3 0,-1.14 0.28,-2.45 0.86,-3.95 0.52,-1.27 1.05,-2.55 1.59,-3.84l-0.37 -0.1 1.49 -4.15c2.93,1.55 4.69,2.53 5.26,2.94 1.94,1.37 2.91,2.78 2.91,4.23zm-2.1 1.91c0,-0.62 -0.89,-1.44 -2.68,-2.46 -0.76,-0.44 -1.58,-0.87 -2.46,-1.29 -0.74,0.79 -1.17,1.29 -1.32,1.48 -0.46,0.63 -0.68,1.23 -0.68,1.81 0,0.82 0.23,1.47 0.69,1.94 0.46,0.46 1.09,0.69 1.87,0.69 0.91,0 1.9,-0.26 2.98,-0.76 1.07,-0.52 1.6,-0.99 1.6,-1.41zm-0.09 -17.52l-1.8 3.55 -4 -2.05 1.85 -3.55 3.95 2.05zm-5.55 2.25l-1.81 3.49 -3.99 -2.07 1.88 -3.52 3.92 2.1z"/>
  <path id="51" class="fil0" d="M1014.33 36.9l-10.91 0c-0.92,0 -1.75,-0.26 -2.5,-0.81 -0.73,-0.53 -1.1,-1.16 -1.1,-1.9 0,-0.61 0.03,-1.17 0.1,-1.68 0.06,-0.5 0.19,-1.06 0.36,-1.66l0.5 0c0.19,0.67 0.51,1.14 0.98,1.44 0.39,0.24 0.93,0.36 1.61,0.36l9.46 0c0,-2.91 -0.41,-5.25 -1.23,-7.03 -1.01,-2.21 -2.7,-3.68 -5.07,-4.41l0.38 -4.75c2.82,1.38 4.82,3.59 5.99,6.62 0.95,2.44 1.43,5.63 1.43,9.57l0 4.25z"/>
  <path id="52" class="fil0" d="M1025.84 36.9l-3.43 0c-1.12,0 -2.01,-0.45 -2.67,-1.34 -0.6,-0.78 -1.05,-1.94 -1.35,-3.49 -0.3,-1.54 -0.53,-3.44 -0.7,-5.71 -0.1,-1.83 -0.2,-3.71 -0.3,-5.66 -0.1,-1.93 -0.24,-3.39 -0.41,-4.39 -0.18,-1 -0.41,-1.82 -0.7,-2.45 -0.35,-0.79 -0.85,-1.47 -1.48,-2.05l2.97 -4.75c0.65,1.95 1.11,4.28 1.37,7 0.17,1.7 0.34,5.7 0.5,12 0.3,2.9 0.72,4.75 1.28,5.57 0.46,0.68 0.96,1.02 1.49,1.02l3.43 0 0 4.25z"/>
  <path id="53" class="fil0" d="M1045.51 36.9l-2.53 0c-1.09,0 -2.32,-0.25 -3.68,-0.74 -1.58,-0.57 -2.96,-1.36 -4.17,-2.36 -0.94,1.17 -1.91,1.98 -2.89,2.43 -0.98,0.45 -2.42,0.67 -4.32,0.67l-3.8 0 0 -4.25 3.73 0c1.48,0 2.8,-0.37 3.95,-1.12 0.9,-0.59 1.71,-1.41 2.44,-2.48 0.99,-1.43 2.22,-2.68 3.67,-3.74 1.3,-0.94 2.49,-1.55 3.58,-1.81 1.12,1.71 2.01,3.25 2.68,4.63 0.89,1.86 1.34,3.36 1.34,4.51l0 4.26zm-2.8 -4.81c-0.21,-0.95 -0.53,-1.89 -0.97,-2.8 -0.38,-0.78 -0.88,-1.57 -1.49,-2.39 -0.78,0.2 -1.44,0.57 -1.97,1.11 -0.36,0.34 -0.78,0.93 -1.27,1.74 0.59,0.64 1.41,1.21 2.48,1.72 1.06,0.51 2.07,0.82 3.01,0.93l0.21 -0.31z"/>
  <path id="54" class="fil0" d="M1063.9 23.1l0 -4.99 5 0 0 4.99 -5 0zm0 20.95l0 -5 5 0 0 5 -5 0z"/>
  <polygon id="55" class="fil0" points="1076.69,54 1076.69,8.26 1086.39,8.26 1086.39,11.91 1081.09,11.91 1081.09,50.35 1086.39,50.35 1086.39,54 "/>
  <polygon id="56" class="fil0" points="1118.68,54 1108.98,54 1108.98,50.35 1114.28,50.35 1114.28,11.91 1108.98,11.91 1108.98,8.26 1118.68,8.26 "/>
  <path id="57" class="fil0" d="M1147.86 33.85c0,0.87 -0.33,1.64 -0.98,2.33 -0.65,0.68 -1.48,1.02 -2.51,1.02 -1.25,0 -2.29,-0.58 -3.12,-1.76 -0.83,-1.17 -1.24,-2.63 -1.24,-4.37 0,-2.43 0.71,-4.56 2.15,-6.38 0.7,-0.89 1.75,-1.84 3.15,-2.84l0.8 1.35c-0.96,0.88 -1.7,1.65 -2.2,2.3 -0.9,1.15 -1.35,2.17 -1.35,3.05 0,0.88 0.88,1.51 2.65,1.9 1.76,0.39 2.65,1.53 2.65,3.4z"/>
  <path id="58" class="fil0" d="M1168.64 36.9l-2.91 0c-2.7,0 -5.07,0.25 -7.09,0.76 -2.56,0.63 -3.85,1.54 -3.85,2.73 0,1.08 0.19,2.23 0.56,3.44 0.36,1.23 0.74,2.46 1.12,3.71 0.38,1.26 0.57,2.4 0.57,3.45 0,0.62 -0.04,1.17 -0.13,1.68 -0.09,0.5 -0.26,1.16 -0.49,1.98 -0.42,-1.35 -0.83,-2.7 -1.23,-4.05 -0.78,-2.58 -1.35,-4.52 -1.72,-5.84 -0.58,-2.08 -0.87,-3.33 -0.87,-3.76 0,-2.08 0.43,-3.68 1.3,-4.8 0.87,-1.11 2.21,-1.94 4.02,-2.47 1.43,-0.43 3.59,-0.79 6.47,-1.08 -1.02,-1.05 -1.66,-1.67 -1.9,-1.86 -0.84,-0.66 -1.68,-0.99 -2.53,-0.99 -0.54,0 -1.06,0.17 -1.54,0.49 -0.4,0.27 -0.87,0.72 -1.43,1.36l-1.09 -0.71c0.49,-1.22 1.04,-2.19 1.65,-2.93 1.03,-1.21 2.24,-1.81 3.64,-1.81 1.01,0 2.02,0.38 3.03,1.13 0.83,0.62 1.68,1.48 2.54,2.59 0.42,0.53 1.05,1.45 1.88,2.73l0 4.25z"/>
  <path id="59" class="fil0" d="M1193.08 36.89c0,1.79 -0.77,3.65 -2.3,5.58 -1.33,1.69 -2.99,3.15 -4.98,4.37 -1.89,1.18 -3.45,1.76 -4.67,1.76 -1.12,0 -2.33,-0.17 -3.64,-0.49 -0.99,-0.24 -2.18,-0.64 -3.57,-1.16 -1.16,-0.44 -2.33,-0.88 -3.49,-1.33l0.42 -0.97c1.07,0.22 2.19,0.43 3.36,0.66 1.16,0.22 2.22,0.34 3.16,0.34 2.09,0 4.26,-0.67 6.53,-2 2.05,-1.23 3.8,-2.77 5.25,-4.63 1.45,-1.87 2.18,-3.54 2.18,-5.04 0,-1.29 -0.38,-2.64 -1.12,-4.06 -0.6,-1.14 -1.45,-2.31 -2.53,-3.52l1.37 -3.84c1.34,1.24 2.32,2.47 2.95,3.71 0.72,1.4 1.08,2.97 1.08,4.69l0 5.93z"/>
  <path id="60" class="fil0" d="M1219.56 36.9l-28.19 0 0 -4.25 19.89 0c-1.65,-1.29 -3.05,-2.29 -4.19,-3.01 -1.42,-0.89 -2.71,-1.54 -3.89,-1.95 -1.31,-0.46 -2.65,-0.69 -4,-0.69 -0.83,0 -1.66,0.06 -2.51,0.18 0.47,-1.2 1.09,-2.17 1.86,-2.89 1.1,-1.06 2.5,-1.58 4.19,-1.58 1.66,0 3.62,0.81 5.89,2.44 1.11,0.8 2.95,2.35 5.49,4.63 1.96,1.76 3.3,2.72 4,2.87l1.46 0 0 4.25zm-12.44 5.27l-1.89 3.53 -3.91 -2.04 1.79 -3.56 4.01 2.07z"/>
  <path id="61" class="fil0" d="M1229.9 36.9l-12.05 0 0 -4.25 9.6 0 -3 -20.76 -1.25 -0.6c0,-1.12 0.1,-2.17 0.29,-3.15 0.21,-0.97 0.5,-1.93 0.89,-2.85l0.37 0.27c0,0.94 0.54,1.65 1.61,2.12 0.82,0.33 1.65,0.65 2.49,0.98 0,0.81 -0.07,1.66 -0.2,2.58 -0.12,0.93 -0.28,1.61 -0.47,2.06l-1.18 -0.39 2.9 19.2 0 4.79z"/>
  <path id="62" class="fil0" d="M1238.15 30.67c0,1.3 -0.24,2.57 -0.72,3.78 -0.25,0.65 -0.78,1.68 -1.61,3.1l-0.44 -0.24c0.06,-0.48 0.11,-1.02 0.15,-1.64 0.05,-0.62 0.07,-1.03 0.07,-1.24 0,-1.69 -0.13,-4.06 -0.4,-7.09 -0.28,-3.04 -0.59,-6.2 -0.97,-9.51 -0.23,-2 -0.48,-4.04 -0.75,-6.12 0.32,-0.72 0.7,-1.49 1.11,-2.32 0.42,-0.82 0.81,-1.6 1.19,-2.33 0.25,1.85 0.59,4.39 0.99,7.6 0.4,3.23 0.71,6.13 0.94,8.72 0.29,3.22 0.44,5.65 0.44,7.29z"/>
  <path id="63" class="fil0" d="M1280.43 36.9l-3.35 0c-1.97,0 -3.37,-0.37 -4.2,-1.1 -0.83,-0.73 -1.25,-1.95 -1.25,-3.65 0,-0.63 0.09,-1.42 0.25,-2.37 0.06,-0.36 0.15,-0.84 0.27,-1.42 -2.78,0.85 -4.88,1.58 -6.3,2.18 -2.61,1.1 -4.62,2.35 -6.05,3.76 -1.81,1.76 -2.71,3.76 -2.71,6.01 0,3.5 1.82,6.13 5.46,7.89 3.17,1.53 7.4,2.3 12.7,2.3l4.48 0 0.15 0.27 -5.5 3.88 -1.42 0c-3.52,0 -6.43,-0.33 -8.77,-0.98 -2.77,-0.78 -4.88,-2.04 -6.31,-3.76 -1.63,-1.97 -2.44,-4.58 -2.44,-7.82 0,-2.79 0.69,-5.22 2.07,-7.31 1.08,-1.63 2.65,-3.12 4.72,-4.47 0.61,-0.41 2.28,-1.34 5.03,-2.81 -0.65,-0.08 -1.33,-0.15 -2.06,-0.21 -0.72,-0.06 -1.38,-0.09 -1.96,-0.09 -1.64,0 -2.98,0.08 -4,0.22 -0.34,0.05 -1.41,0.28 -3.2,0.67 0.55,-1.6 1.13,-2.71 1.73,-3.33 1.35,-1.37 3.47,-2.05 6.35,-2.05 1.57,0 3.28,0.15 5.12,0.45 1.84,0.31 3.39,0.46 4.63,0.46 0.84,0 1.65,-0.03 2.44,-0.1 0.78,-0.07 1.61,-0.15 2.47,-0.27l-0.97 4.15c-0.67,0.09 -1.42,0.2 -2.27,0.34 -0.53,0.11 -1.26,0.25 -2.21,0.42l-0.05 1.38c0,1.34 0.41,2.24 1.22,2.7 0.51,0.27 1.37,0.41 2.59,0.41l3.34 0 0 4.25zm-9.75 -22.73l-1.88 3.54 -3.91 -2.05 1.79 -3.55 4 2.06z"/>
  <path id="64" class="fil0" d="M1292.62 36.9l-13.9 0 0 -4.25 12.15 0c0,-1.91 -0.23,-3.37 -0.69,-4.38 -0.31,-0.7 -1.07,-1.7 -2.31,-3.02l1.93 -3.99c1.15,1.48 1.88,2.63 2.17,3.46 0.43,1.25 0.65,3.32 0.65,6.22l0 5.96zm-0.25 4.8l-1.8 3.55 -4 -2.05 1.85 -3.55 3.95 2.05zm-5.55 2.25l-1.81 3.5 -3.99 -2.08 1.89 -3.52 3.91 2.1z"/>
  <path id="65" class="fil0" d="M1317.07 36.89c0,1.79 -0.76,3.65 -2.3,5.58 -1.33,1.69 -2.99,3.15 -4.98,4.37 -1.88,1.18 -3.44,1.76 -4.66,1.76 -1.13,0 -2.34,-0.17 -3.65,-0.49 -0.99,-0.24 -2.18,-0.64 -3.56,-1.16 -1.17,-0.44 -2.33,-0.88 -3.49,-1.33l0.42 -0.97c1.07,0.22 2.19,0.43 3.35,0.66 1.17,0.22 2.23,0.34 3.17,0.34 2.08,0 4.26,-0.67 6.52,-2 2.06,-1.23 3.81,-2.77 5.26,-4.63 1.45,-1.87 2.17,-3.54 2.17,-5.04 0,-1.29 -0.37,-2.64 -1.11,-4.06 -0.6,-1.14 -1.45,-2.31 -2.54,-3.52l1.38 -3.84c1.33,1.24 2.31,2.47 2.95,3.71 0.71,1.4 1.07,2.97 1.07,4.69l0 5.93z"/>
  <path id="66" class="fil0" d="M1328.56 36.9l-3.43 0c-1.12,0 -2.01,-0.45 -2.67,-1.34 -0.6,-0.78 -1.05,-1.94 -1.35,-3.49 -0.3,-1.54 -0.53,-3.44 -0.7,-5.71 -0.1,-1.83 -0.2,-3.71 -0.3,-5.66 -0.1,-1.93 -0.25,-3.39 -0.41,-4.39 -0.18,-1 -0.41,-1.82 -0.7,-2.45 -0.35,-0.79 -0.85,-1.47 -1.49,-2.05l2.98 -4.75c0.65,1.95 1.11,4.28 1.37,7 0.17,1.7 0.34,5.7 0.5,12 0.29,2.9 0.72,4.75 1.28,5.57 0.46,0.68 0.96,1.02 1.49,1.02l3.43 0 0 4.25z"/>
  <path id="67" class="fil0" d="M1340.73 36.9l-13.89 0 0 -4.25 12.14 0c0,-1.91 -0.23,-3.37 -0.69,-4.38 -0.31,-0.7 -1.07,-1.7 -2.3,-3.02l1.92 -3.99c1.16,1.48 1.88,2.63 2.17,3.46 0.44,1.25 0.65,3.32 0.65,6.22l0 5.96zm-0.15 -24.14l-1.8 3.55 -3.99 -2.05 1.84 -3.55 3.95 2.05zm-5.55 2.25l-1.8 3.5 -3.99 -2.08 1.88 -3.52 3.91 2.1z"/>
  <path id="68" class="fil0" d="M1359.13 23.1l0 -4.99 5 0 0 4.99 -5 0zm0 20.95l0 -5 5 0 0 5 -5 0z"/>
  <polygon id="69" class="fil0" points="1371.92,54 1371.92,8.26 1381.62,8.26 1381.62,11.91 1376.32,11.91 1376.32,50.35 1381.62,50.35 1381.62,54 "/>
  <polygon id="70" class="fil0" points="1413.91,54 1404.21,54 1404.21,50.35 1409.51,50.35 1409.51,11.91 1404.21,11.91 1404.21,8.26 1413.91,8.26 "/>
  <path id="71" class="fil0" d="M165.27 37l3.45 -0.26c0.26,1.68 0.85,2.94 1.78,3.79 0.92,0.85 2.05,1.27 3.38,1.27 1.61,0 2.95,-0.6 4.05,-1.79 1.08,-1.2 1.63,-2.79 1.63,-4.76 0,-1.89 -0.52,-3.37 -1.57,-4.45 -1.04,-1.09 -2.42,-1.63 -4.14,-1.63 -1.07,0 -2.02,0.24 -2.87,0.73 -0.85,0.48 -1.51,1.12 -2,1.89l-3.11 -0.45 2.59 -13.8 13.31 0 0 3.15 -10.68 0 -1.43 7.24c1.6,-1.13 3.29,-1.69 5.05,-1.69 2.34,0 4.31,0.81 5.92,2.44 1.61,1.62 2.41,3.71 2.41,6.26 0,2.43 -0.7,4.53 -2.12,6.3 -1.71,2.17 -4.06,3.26 -7.04,3.26 -2.43,0 -4.42,-0.69 -5.96,-2.06 -1.55,-1.36 -2.43,-3.18 -2.65,-5.44z"/>
  <path id="72" class="fil0" d="M388.12 44.05l0 -6.41 -11.66 0 0 -3.04 12.25 -17.39 2.7 0 0 17.39 3.64 0 0 3.04 -3.64 0 0 6.41 -3.29 0zm0 -9.45l0 -12.08 -8.42 12.08 8.42 0z"/>
  <path id="73" class="fil0" d="M676.49 36.93l3.29 -0.45c0.38,1.87 1.02,3.22 1.93,4.05 0.9,0.82 2.02,1.23 3.34,1.23 1.56,0 2.88,-0.53 3.94,-1.61 1.06,-1.07 1.59,-2.4 1.59,-3.99 0,-1.51 -0.49,-2.76 -1.49,-3.75 -0.98,-0.98 -2.24,-1.48 -3.77,-1.48 -0.62,0 -1.4,0.13 -2.33,0.37l0.37 -2.88c0.22,0.02 0.4,0.03 0.53,0.03 1.41,0 2.67,-0.37 3.8,-1.1 1.13,-0.73 1.69,-1.85 1.69,-3.37 0,-1.21 -0.41,-2.21 -1.23,-3 -0.82,-0.79 -1.87,-1.19 -3.17,-1.19 -1.28,0 -2.35,0.41 -3.21,1.22 -0.86,0.81 -1.4,2.03 -1.65,3.66l-3.3 -0.6c0.41,-2.22 1.32,-3.93 2.75,-5.15 1.43,-1.22 3.21,-1.83 5.33,-1.83 1.46,0 2.81,0.32 4.04,0.95 1.24,0.62 2.19,1.48 2.83,2.56 0.66,1.09 0.99,2.24 0.99,3.45 0,1.16 -0.32,2.21 -0.93,3.16 -0.63,0.95 -1.55,1.71 -2.77,2.27 1.58,0.36 2.82,1.12 3.7,2.28 0.87,1.15 1.31,2.6 1.31,4.33 0,2.34 -0.86,4.34 -2.56,5.97 -1.72,1.63 -3.88,2.44 -6.49,2.44 -2.36,0 -4.31,-0.71 -5.87,-2.11 -1.56,-1.41 -2.45,-3.23 -2.66,-5.46z"/>
  <path id="74" class="fil0" d="M1106.04 40.9l0 3.15 -17.77 0c-0.03,-0.79 0.1,-1.56 0.38,-2.29 0.46,-1.21 1.19,-2.4 2.2,-3.57 1,-1.17 2.44,-2.52 4.31,-4.05 2.9,-2.39 4.88,-4.29 5.91,-5.69 1.04,-1.4 1.56,-2.72 1.56,-3.97 0,-1.31 -0.47,-2.41 -1.41,-3.31 -0.94,-0.89 -2.16,-1.34 -3.67,-1.34 -1.59,0 -2.87,0.48 -3.82,1.43 -0.96,0.94 -1.44,2.25 -1.45,3.93l-3.38 -0.34c0.23,-2.52 1.11,-4.45 2.62,-5.77 1.52,-1.32 3.55,-1.99 6.11,-1.99 2.57,0 4.61,0.72 6.11,2.15 1.51,1.43 2.26,3.2 2.26,5.31 0,1.08 -0.22,2.13 -0.66,3.17 -0.44,1.05 -1.17,2.14 -2.19,3.29 -1.02,1.14 -2.72,2.72 -5.08,4.72 -1.98,1.66 -3.26,2.79 -3.82,3.38 -0.56,0.6 -1.02,1.19 -1.39,1.79l13.18 0z"/>
  <path id="75" class="fil0" d="M1396.36 44.05l-3.3 0 0 -21.01c-0.8,0.76 -1.84,1.52 -3.13,2.28 -1.29,0.75 -2.45,1.32 -3.47,1.7l0 -3.19c1.84,-0.86 3.45,-1.91 4.83,-3.15 1.38,-1.23 2.37,-2.42 2.94,-3.59l2.13 0 0 26.96z"/>
 </g>
</svg>
