<?xml version="1.0" encoding="UTF-8"?>
<!DOCTYPE svg PUBLIC "-//W3C//DTD SVG 1.1//EN" "http://www.w3.org/Graphics/SVG/1.1/DTD/svg11.dtd">
<!-- Creator: CorelDRAW 2018 (64-Bit) -->
<svg xmlns="http://www.w3.org/2000/svg" xml:space="preserve" width="325px" height="59px" version="1.1" style="shape-rendering:geometricPrecision; text-rendering:geometricPrecision; image-rendering:optimizeQuality; fill-rule:evenodd; clip-rule:evenodd"
viewBox="0 0 325 59.09"
 xmlns:xlink="http://www.w3.org/1999/xlink">
 <defs>
  <style type="text/css">
   <![CDATA[
    .fil0 {fill:#2B2A29;fill-rule:nonzero}
   ]]>
  </style>
 </defs>
 <g id="Layer_x0020_1">
  <metadata id="CorelCorpID_0Corel-Layer"/>
  <path class="fil0" d="M31.73 36.48l-4.27 0c-2.5,0 -4.39,0.07 -5.64,0.2 -1.26,0.13 -1.9,0.39 -1.9,0.79 0,0.54 0.76,0.81 2.28,0.81 0.67,0 1.19,0.02 1.58,0.05 0.4,0.04 1.25,0.12 2.57,0.27 0.79,0.1 1.33,0.22 1.62,0.37 0.48,0.24 0.71,0.66 0.71,1.26 0,3.05 -1,5.26 -3,6.64 -2.19,1.51 -5.79,2.27 -10.82,2.27 -3.5,0 -6.28,-0.59 -8.35,-1.78 -2.2,-1.27 -3.3,-3.08 -3.3,-5.42 0,-1.89 0.52,-3.89 1.55,-6.01 0.37,-0.76 1.35,-2.4 2.93,-4.9l0.98 0.48c-0.62,1.05 -1.22,2.1 -1.82,3.15 -0.93,1.78 -1.39,3.24 -1.39,4.38 0,2 1.05,3.52 3.13,4.56 1.99,0.99 4.72,1.49 8.2,1.49 2.33,0 4.38,-0.18 6.16,-0.54 2.18,-0.44 3.28,-1.03 3.28,-1.8 0,-0.27 -0.13,-0.48 -0.37,-0.61 -0.25,-0.15 -0.66,-0.21 -1.23,-0.21 -0.45,-0.05 -1.14,-0.1 -2.08,-0.16 -0.94,-0.06 -1.56,-0.08 -1.85,-0.08 -1.04,0 -1.77,-0.14 -2.21,-0.41 -0.44,-0.27 -0.67,-0.67 -0.67,-1.2 0,-2.03 0.59,-3.68 1.79,-4.97 0.97,-1.04 2.29,-1.81 3.93,-2.32 1.24,-0.38 2.55,-0.56 3.91,-0.56l4.28 0 0 4.25zm-10.11 15.65l-2.26 2.11 -2.74 -1.74 2.19 -2.31 2.81 1.94zm-5.05 0l-2.22 2.11 -2.83 -1.74 2.27 -2.31 2.78 1.94z"/>
  <path id="1" class="fil0" d="M42.1 36.48l-12.05 0 0 -4.25 9.6 0 -3 -20.78 -1.25 -0.6c0,-1.12 0.1,-2.17 0.29,-3.15 0.2,-0.98 0.49,-1.94 0.88,-2.85l0.38 0.26c0,0.95 0.53,1.65 1.61,2.13 0.82,0.32 1.65,0.65 2.49,0.97 0,0.81 -0.06,1.67 -0.2,2.59 -0.12,0.93 -0.28,1.61 -0.46,2.06l-1.19 -0.39 2.9 19.22 0 4.79z"/>
  <path id="2" class="fil0" d="M54.31 36.48l-13.91 0 0 -4.25 12.16 0c0,-1.92 -0.23,-3.38 -0.69,-4.39 -0.31,-0.7 -1.08,-1.7 -2.31,-3.01l1.92 -4.01c1.16,1.49 1.89,2.64 2.18,3.47 0.43,1.25 0.65,3.33 0.65,6.23l0 5.96zm-2.6 -22.28c0,0.42 -0.25,0.79 -0.76,1.11 -0.34,0.22 -0.86,0.44 -1.54,0.68l-4.56 1.58c0,-0.76 0.83,-1.42 2.47,-1.99 -0.51,-0.27 -0.89,-0.52 -1.15,-0.76 -0.34,-0.32 -0.51,-0.64 -0.51,-0.99 0,-0.5 0.43,-1.22 1.3,-2.14 0.96,-1.01 1.81,-1.52 2.55,-1.52 0.32,0 0.61,0.1 0.84,0.33 0.24,0.23 0.36,0.52 0.36,0.88 0,0.24 -0.05,0.47 -0.15,0.71 -0.09,0.24 -0.23,0.51 -0.42,0.8 -0.5,-0.45 -1.05,-0.67 -1.64,-0.67 -0.36,0 -0.72,0.07 -1.07,0.21 -0.35,0.15 -0.52,0.32 -0.52,0.51 0,0.24 0.37,0.58 1.13,0.99 0.76,0.43 1.4,0.64 1.93,0.64 0.36,0 0.62,-0.01 0.78,-0.03 0.15,-0.03 0.48,-0.14 0.96,-0.34z"/>
  <path id="3" class="fil0" d="M65.83 36.48l-3.44 0c-1.12,0 -2.01,-0.45 -2.68,-1.34 -0.59,-0.78 -1.04,-1.94 -1.34,-3.49 -0.3,-1.55 -0.53,-3.45 -0.7,-5.72 -0.1,-1.83 -0.2,-3.72 -0.31,-5.66 -0.1,-1.93 -0.24,-3.4 -0.41,-4.4 -0.17,-1 -0.4,-1.82 -0.7,-2.45 -0.35,-0.79 -0.85,-1.47 -1.48,-2.05l2.98 -4.76c0.65,1.96 1.1,4.29 1.37,7.01 0.17,1.7 0.33,5.7 0.5,12.01 0.29,2.91 0.72,4.76 1.28,5.57 0.46,0.69 0.96,1.03 1.49,1.03l3.44 0 0 4.25z"/>
  <path id="4" class="fil0" d="M85.51 36.48l-3.58 0c-1.06,0 -2.13,-0.25 -3.22,-0.76 -1.3,-0.6 -2.25,-1.44 -2.83,-2.51 -1.09,0.98 -2.34,1.73 -3.74,2.27 -1.71,0.67 -3.65,1 -5.84,1l-2.2 0 0 -4.25 2.2 0c1.37,0 2.64,-0.15 3.82,-0.44 1.33,-0.34 2.65,-0.88 3.94,-1.63l-1.04 -1.31c-0.52,-0.62 -1.12,-0.92 -1.77,-0.92 -0.3,0 -0.55,0.05 -0.79,0.15 -0.22,0.11 -0.48,0.34 -0.76,0.7l-0.5 0 0 -1.45c0,-1.8 0.48,-3.03 1.42,-3.7 0.86,-0.61 2.35,-0.91 4.49,-0.91 1.83,0 3.33,0.25 4.48,0.74 1.51,0.63 2.27,1.61 2.27,2.93 0,0.7 -0.3,1.43 -0.9,2.18 -0.43,0.55 -1.23,1.32 -2.4,2.3 0.26,0.38 0.76,0.71 1.5,0.97 0.74,0.26 1.36,0.39 1.87,0.39l3.58 0 0 4.25z"/>
  <path id="5" class="fil0" d="M95.87 36.48l-12.06 0 0 -4.25 9.61 0 -3 -20.78 -1.26 -0.6c0,-1.12 0.1,-2.17 0.3,-3.15 0.2,-0.98 0.49,-1.94 0.88,-2.85l0.38 0.26c0,0.95 0.53,1.65 1.6,2.13 0.82,0.32 1.65,0.65 2.5,0.97 0,0.81 -0.07,1.67 -0.2,2.59 -0.13,0.93 -0.29,1.61 -0.47,2.06l-1.18 -0.39 2.9 19.22 0 4.79z"/>
  <path id="6" class="fil0" d="M104.12 30.25c0,1.3 -0.24,2.56 -0.71,3.78 -0.25,0.65 -0.79,1.68 -1.61,3.1l-0.44 -0.24c0.05,-0.47 0.1,-1.02 0.15,-1.64 0.04,-0.62 0.06,-1.04 0.06,-1.24 0,-1.7 -0.13,-4.07 -0.4,-7.1 -0.27,-3.04 -0.59,-6.2 -0.97,-9.51 -0.23,-2.01 -0.48,-4.05 -0.75,-6.13 0.32,-0.72 0.69,-1.49 1.11,-2.32 0.42,-0.83 0.81,-1.6 1.19,-2.34 0.26,1.86 0.59,4.4 0.99,7.62 0.4,3.22 0.72,6.13 0.94,8.72 0.29,3.22 0.44,5.65 0.44,7.3z"/>
  <path id="7" class="fil0" d="M137.04 36.48l-2.92 0c-2.71,0 -5.07,0.25 -7.1,0.76 -2.56,0.63 -3.84,1.54 -3.84,2.74 0,1.07 0.18,2.22 0.55,3.44 0.36,1.23 0.74,2.46 1.12,3.71 0.39,1.26 0.58,2.4 0.58,3.45 0,0.62 -0.04,1.18 -0.14,1.69 -0.09,0.5 -0.25,1.16 -0.49,1.97 -0.41,-1.35 -0.83,-2.7 -1.23,-4.05 -0.78,-2.58 -1.35,-4.52 -1.72,-5.84 -0.58,-2.09 -0.87,-3.34 -0.87,-3.77 0,-2.08 0.43,-3.68 1.3,-4.8 0.87,-1.11 2.21,-1.94 4.02,-2.48 1.44,-0.42 3.6,-0.78 6.48,-1.07 -1.02,-1.05 -1.67,-1.68 -1.91,-1.87 -0.83,-0.66 -1.67,-0.98 -2.52,-0.98 -0.55,0 -1.06,0.16 -1.55,0.49 -0.4,0.27 -0.86,0.72 -1.42,1.36l-1.1 -0.72c0.49,-1.22 1.04,-2.19 1.66,-2.93 1.02,-1.2 2.24,-1.8 3.64,-1.8 1.01,0 2.02,0.37 3.03,1.12 0.83,0.62 1.68,1.48 2.54,2.59 0.43,0.54 1.05,1.46 1.89,2.74l0 4.25z"/>
  <path id="8" class="fil0" d="M163.59 36.48l-1.87 0c-1.03,0 -1.91,-0.14 -2.66,-0.42 -0.75,-0.29 -1.42,-0.7 -2.04,-1.21 -0.77,0.6 -1.43,1 -2.01,1.19 -0.83,0.29 -1.97,0.44 -3.43,0.44l-1.6 0c-0.85,0 -1.7,-0.17 -2.55,-0.49 -0.55,-0.21 -1.24,-0.56 -2.06,-1.05 -0.78,0.59 -1.5,0.99 -2.15,1.21 -0.65,0.22 -1.71,0.33 -3.18,0.33l-4.71 0 0 -4.25 4.72 0c1.32,0 2.27,-0.12 2.85,-0.34 0.94,-0.38 1.41,-1.13 1.41,-2.25 0,-0.47 -0.02,-0.95 -0.07,-1.41 -0.04,-0.48 -0.14,-1 -0.26,-1.59l0.98 -1.46c0.45,1.5 0.83,2.58 1.13,3.26 0.53,1.2 1.1,2.09 1.72,2.69 0.76,0.73 1.66,1.1 2.71,1.1l1.65 0c1.23,0 2.14,-0.18 2.73,-0.56 0.65,-0.42 0.99,-1.1 0.99,-2.03 0,-0.5 -0.04,-0.99 -0.09,-1.46 -0.07,-0.48 -0.15,-0.99 -0.26,-1.54l0.97 -1.46 0.51 2.3c0.44,1.81 0.98,3.07 1.61,3.77 0.56,0.62 1.3,0.93 2.25,0.93 0.44,0 0.79,-0.13 1.06,-0.41 0.27,-0.27 0.4,-0.62 0.4,-1.04 0,-0.92 -0.33,-1.89 -1,-2.9 -0.12,-0.17 -0.52,-0.7 -1.2,-1.6l1.58 -2.66c0.65,1.01 1.1,1.89 1.35,2.62 0.35,1.11 0.52,2.59 0.52,4.42l0 5.87z"/>
  <path id="9" class="fil0" d="M188.95 10.67l-1.17 4.41 -1.43 -0.71 0.05 2.22c0,2.17 -0.28,4.29 -0.84,6.33 -0.61,2.25 -1.56,4.47 -2.87,6.66 0.62,1.14 1.06,2.04 1.3,2.69 0.37,1.03 0.56,2.07 0.56,3.13 0,0.61 -0.02,1.12 -0.05,1.54 -0.04,0.43 -0.11,0.92 -0.22,1.49 -1.73,0.4 -3.57,0.7 -5.52,0.92 -1.96,0.23 -3.87,0.33 -5.72,0.33 0.02,-0.3 0.02,-0.57 0.02,-0.78 0.09,-1.24 0.28,-2.4 0.59,-3.46 2.76,-1.48 5.09,-3.4 6.99,-5.76 -1.14,-2.15 -1.96,-3.67 -2.48,-4.57 -0.58,-0.98 -1.54,-2.49 -2.91,-4.56 -0.5,-0.7 -0.95,-1.26 -1.34,-1.69 -0.54,-0.56 -0.96,-0.85 -1.27,-0.85 -0.21,0 -0.56,0.12 -1.05,0.37 -0.26,0.12 -0.48,0.19 -0.66,0.19 -0.36,0 -0.92,-0.36 -1.68,-1.07 -0.67,-0.64 -1.37,-1.42 -2.1,-2.35 -0.59,-0.75 -0.99,-1.37 -1.2,-1.87 -0.21,-0.5 -0.31,-1.1 -0.31,-1.8 0,-1.01 0.06,-1.8 0.19,-2.37 0.2,-0.86 0.53,-1.29 1,-1.29 0.66,0 1.64,0.63 2.91,1.9 1.11,1.14 2.37,2.64 3.75,4.5 1.23,1.64 2.43,3.42 3.62,5.32l2.48 4.01c0.74,1.2 1.49,2.57 2.26,4.1 1.09,-2.19 1.85,-4.41 2.25,-6.65 0.36,-1.95 0.55,-4.44 0.55,-7.46l-1.4 -0.81c0,-1.08 0.09,-2.05 0.28,-2.93 0.18,-0.87 0.45,-1.67 0.79,-2.39l0.58 0.15c0.06,0.71 0.45,1.26 1.16,1.69 0.39,0.22 0.89,0.49 1.5,0.78 0.6,0.29 1.06,0.5 1.39,0.64zm-6.35 23.74c0,-0.35 -0.07,-0.72 -0.21,-1.11 -0.14,-0.38 -0.45,-1.01 -0.91,-1.89 -0.49,0.64 -1.22,1.37 -2.19,2.2 -0.96,0.83 -1.92,1.54 -2.87,2.12 1.92,0 3.29,-0.06 4.1,-0.17 1.38,-0.2 2.08,-0.58 2.08,-1.15z"/>
  <path id="10" class="fil0" d="M199.05 30.25c0,1.3 -0.24,2.56 -0.71,3.78 -0.25,0.65 -0.79,1.68 -1.61,3.1l-0.44 -0.24c0.05,-0.47 0.1,-1.02 0.15,-1.64 0.04,-0.62 0.06,-1.04 0.06,-1.24 0,-1.7 -0.13,-4.07 -0.4,-7.1 -0.27,-3.04 -0.59,-6.2 -0.96,-9.51 -0.24,-2.01 -0.49,-4.05 -0.76,-6.13 0.32,-0.72 0.7,-1.49 1.11,-2.32 0.42,-0.83 0.81,-1.6 1.19,-2.34 0.26,1.86 0.59,4.4 0.99,7.62 0.4,3.22 0.72,6.13 0.94,8.72 0.29,3.22 0.44,5.65 0.44,7.3z"/>
  <path id="11" class="fil0" d="M219.51 43.64l0 -5.01 5 0 0 5.01c0,1.84 -0.32,3.33 -0.98,4.47 -0.65,1.13 -1.69,2.01 -3.12,2.63l-1.2 -1.9c0.93,-0.41 1.62,-1.01 2.05,-1.79 0.44,-0.8 0.69,-1.93 0.74,-3.41l-2.49 0z"/>
  <path id="12" class="fil0" d="M259.77 36.48l-2.91 0c-2.71,0 -5.08,0.25 -7.11,0.76 -2.56,0.63 -3.84,1.54 -3.84,2.74 0,1.07 0.18,2.22 0.55,3.44 0.37,1.23 0.74,2.46 1.13,3.71 0.38,1.26 0.57,2.4 0.57,3.45 0,0.62 -0.04,1.18 -0.13,1.69 -0.09,0.5 -0.26,1.16 -0.49,1.97 -0.42,-1.35 -0.84,-2.7 -1.24,-4.05 -0.77,-2.58 -1.35,-4.52 -1.72,-5.84 -0.58,-2.09 -0.87,-3.34 -0.87,-3.77 0,-2.08 0.43,-3.68 1.31,-4.8 0.86,-1.11 2.21,-1.94 4.02,-2.48 1.43,-0.42 3.59,-0.78 6.48,-1.07 -1.03,-1.05 -1.67,-1.68 -1.91,-1.87 -0.84,-0.66 -1.68,-0.98 -2.53,-0.98 -0.54,0 -1.06,0.16 -1.54,0.49 -0.4,0.27 -0.87,0.72 -1.43,1.36l-1.1 -0.72c0.49,-1.22 1.04,-2.19 1.66,-2.93 1.03,-1.2 2.24,-1.8 3.64,-1.8 1.01,0 2.02,0.37 3.03,1.12 0.83,0.62 1.68,1.48 2.54,2.59 0.43,0.54 1.05,1.46 1.89,2.74l0 4.25z"/>
  <path id="13" class="fil0" d="M286.33 36.48l-1.87 0c-1.04,0 -1.92,-0.14 -2.66,-0.42 -0.75,-0.29 -1.43,-0.7 -2.05,-1.21 -0.76,0.6 -1.43,1 -2,1.19 -0.84,0.29 -1.98,0.44 -3.44,0.44l-1.59 0c-0.85,0 -1.7,-0.17 -2.56,-0.49 -0.54,-0.21 -1.24,-0.56 -2.05,-1.05 -0.79,0.59 -1.5,0.99 -2.16,1.21 -0.65,0.22 -1.7,0.33 -3.17,0.33l-4.72 0 0 -4.25 4.73 0c1.31,0 2.26,-0.12 2.84,-0.34 0.94,-0.38 1.42,-1.13 1.42,-2.25 0,-0.47 -0.03,-0.95 -0.08,-1.41 -0.04,-0.48 -0.13,-1 -0.26,-1.59l0.98 -1.46c0.46,1.5 0.83,2.58 1.13,3.26 0.53,1.2 1.1,2.09 1.72,2.69 0.76,0.73 1.66,1.1 2.71,1.1l1.65 0c1.24,0 2.14,-0.18 2.74,-0.56 0.65,-0.42 0.98,-1.1 0.98,-2.03 0,-0.5 -0.03,-0.99 -0.09,-1.46 -0.07,-0.48 -0.15,-0.99 -0.26,-1.54l0.98 -1.46 0.5 2.3c0.45,1.81 0.98,3.07 1.61,3.77 0.56,0.62 1.3,0.93 2.26,0.93 0.43,0 0.79,-0.13 1.05,-0.41 0.27,-0.27 0.4,-0.62 0.4,-1.04 0,-0.92 -0.33,-1.89 -1,-2.9 -0.11,-0.17 -0.51,-0.7 -1.2,-1.6l1.58 -2.66c0.66,1.01 1.11,1.89 1.35,2.62 0.35,1.11 0.53,2.59 0.53,4.42l0 5.87z"/>
  <path id="14" class="fil0" d="M311.68 10.67l-1.17 4.41 -1.43 -0.71 0.05 2.22c0,2.17 -0.27,4.29 -0.83,6.33 -0.61,2.25 -1.56,4.47 -2.87,6.66 0.61,1.14 1.05,2.04 1.29,2.69 0.38,1.03 0.56,2.07 0.56,3.13 0,0.61 -0.02,1.12 -0.05,1.54 -0.03,0.43 -0.11,0.92 -0.22,1.49 -1.72,0.4 -3.57,0.7 -5.52,0.92 -1.96,0.23 -3.87,0.33 -5.72,0.33 0.02,-0.3 0.03,-0.57 0.03,-0.78 0.08,-1.24 0.27,-2.4 0.58,-3.46 2.76,-1.48 5.1,-3.4 7,-5.76 -1.15,-2.15 -1.97,-3.67 -2.49,-4.57 -0.57,-0.98 -1.54,-2.49 -2.91,-4.56 -0.5,-0.7 -0.95,-1.26 -1.34,-1.69 -0.53,-0.56 -0.96,-0.85 -1.27,-0.85 -0.21,0 -0.56,0.12 -1.05,0.37 -0.26,0.12 -0.47,0.19 -0.66,0.19 -0.36,0 -0.91,-0.36 -1.68,-1.07 -0.67,-0.64 -1.37,-1.42 -2.09,-2.35 -0.6,-0.75 -1,-1.37 -1.2,-1.87 -0.21,-0.5 -0.32,-1.1 -0.32,-1.8 0,-1.01 0.06,-1.8 0.19,-2.37 0.2,-0.86 0.53,-1.29 1,-1.29 0.67,0 1.64,0.63 2.91,1.9 1.12,1.14 2.38,2.64 3.75,4.5 1.23,1.64 2.43,3.42 3.62,5.32l2.49 4.01c0.73,1.2 1.48,2.57 2.25,4.1 1.09,-2.19 1.85,-4.41 2.26,-6.65 0.36,-1.95 0.54,-4.44 0.54,-7.46l-1.4 -0.81c0,-1.08 0.09,-2.05 0.28,-2.93 0.19,-0.87 0.45,-1.67 0.79,-2.39l0.58 0.15c0.07,0.71 0.45,1.26 1.17,1.69 0.38,0.22 0.88,0.49 1.49,0.78 0.6,0.29 1.07,0.5 1.39,0.64zm-6.35 23.74c0,-0.35 -0.07,-0.72 -0.21,-1.11 -0.13,-0.38 -0.44,-1.01 -0.91,-1.89 -0.49,0.64 -1.22,1.37 -2.18,2.2 -0.97,0.83 -1.93,1.54 -2.87,2.12 1.92,0 3.28,-0.06 4.09,-0.17 1.39,-0.2 2.08,-0.58 2.08,-1.15z"/>
  <path id="15" class="fil0" d="M321.79 30.25c0,1.3 -0.24,2.56 -0.72,3.78 -0.25,0.65 -0.78,1.68 -1.61,3.1l-0.44 -0.24c0.06,-0.47 0.11,-1.02 0.15,-1.64 0.04,-0.62 0.07,-1.04 0.07,-1.24 0,-1.7 -0.14,-4.07 -0.4,-7.1 -0.28,-3.04 -0.6,-6.2 -0.97,-9.51 -0.24,-2.01 -0.48,-4.05 -0.76,-6.13 0.33,-0.72 0.7,-1.49 1.12,-2.32 0.41,-0.83 0.81,-1.6 1.18,-2.34 0.26,1.86 0.59,4.4 0.99,7.62 0.4,3.22 0.72,6.13 0.95,8.72 0.29,3.22 0.44,5.65 0.44,7.3z"/>
 </g>
</svg>
