<?xml version="1.0" encoding="UTF-8"?>
<!DOCTYPE svg PUBLIC "-//W3C//DTD SVG 1.1//EN" "http://www.w3.org/Graphics/SVG/1.1/DTD/svg11.dtd">
<!-- Creator: CorelDRAW 2018 (64-Bit) -->
<svg xmlns="http://www.w3.org/2000/svg" xml:space="preserve" width="195px" height="59px" version="1.1" style="shape-rendering:geometricPrecision; text-rendering:geometricPrecision; image-rendering:optimizeQuality; fill-rule:evenodd; clip-rule:evenodd"
viewBox="0 0 195 59.09"
 xmlns:xlink="http://www.w3.org/1999/xlink">
 <defs>
  <style type="text/css">
   <![CDATA[
    .fil0 {fill:#2B2A29;fill-rule:nonzero}
   ]]>
  </style>
 </defs>
 <g id="Layer_x0020_1">
  <metadata id="CorelCorpID_0Corel-Layer"/>
  <path class="fil0" d="M26.17 36.47c0,2.6 -0.61,4.67 -1.82,6.2 -1.1,1.35 -2.7,2.33 -4.81,2.91 -1.79,0.49 -4.06,0.73 -6.81,0.73 -3.13,0 -5.57,-0.57 -7.29,-1.73 -1.89,-1.27 -2.83,-3.16 -2.83,-5.69 0,-1.4 0.21,-2.85 0.62,-4.37 0.34,-1.28 0.86,-2.69 1.56,-4.22 0.51,-1.1 1.2,-2.44 2.07,-4l0.85 0.46c-0.61,1.09 -1.13,2.07 -1.55,2.93 -0.55,1.15 -0.96,2.18 -1.22,3.09 -0.32,1.1 -0.48,2.18 -0.48,3.22 0,1.99 0.73,3.5 2.19,4.53 1.45,1.02 3.46,1.53 6.05,1.53 2.74,0 5.28,-0.47 7.62,-1.42 2.57,-1.04 3.85,-2.28 3.85,-3.73 0,-1.58 -0.25,-4.25 -0.74,-8.03 -0.38,-2.9 -0.86,-6.14 -1.42,-9.72l-0.79 -4.74 -1.1 -0.58c0,-2.19 0.44,-4.17 1.33,-5.97l0.42 0c0.07,0.62 0.18,1.08 0.33,1.38 0.17,0.3 0.44,0.52 0.8,0.67 0.51,0.21 1.05,0.46 1.64,0.76 0.43,0.21 0.82,0.4 1.13,0.56 0,1.15 -0.04,1.97 -0.12,2.5 -0.08,0.52 -0.24,1.25 -0.49,2.2l-1.39 -0.44c0.04,0.35 0.27,1.99 0.7,4.91 0.51,3.4 0.88,6.17 1.12,8.28 0.39,3.39 0.58,5.98 0.58,7.78z"/>
  <path id="1" class="fil0" d="M43.05 39.51l-10.91 0c-0.93,0 -1.76,-0.27 -2.51,-0.81 -0.73,-0.53 -1.1,-1.17 -1.1,-1.9 0,-0.62 0.03,-1.18 0.09,-1.68 0.07,-0.5 0.2,-1.06 0.37,-1.66l0.5 0c0.19,0.66 0.51,1.14 0.98,1.43 0.39,0.24 0.93,0.37 1.62,0.37l9.46 0c0,-2.92 -0.41,-5.26 -1.23,-7.04 -1.01,-2.21 -2.71,-3.69 -5.07,-4.42l0.37 -4.75c2.83,1.38 4.83,3.59 6,6.63 0.96,2.44 1.43,5.63 1.43,9.58l0 4.25z"/>
  <path id="2" class="fil0" d="M62.78 39.51l-3.59 0c-1.06,0 -2.12,-0.25 -3.22,-0.76 -1.3,-0.6 -2.24,-1.44 -2.82,-2.52 -1.09,0.99 -2.34,1.74 -3.75,2.28 -1.71,0.67 -3.65,1 -5.83,1l-2.2 0 0 -4.25 2.2 0c1.36,0 2.64,-0.15 3.82,-0.44 1.33,-0.34 2.65,-0.88 3.93,-1.63l-1.03 -1.31c-0.53,-0.62 -1.12,-0.93 -1.77,-0.93 -0.3,0 -0.56,0.06 -0.79,0.16 -0.23,0.11 -0.49,0.34 -0.76,0.7l-0.5 0 0 -1.45c0,-1.8 0.47,-3.03 1.42,-3.7 0.86,-0.61 2.35,-0.91 4.48,-0.91 1.84,0 3.34,0.24 4.49,0.74 1.51,0.63 2.27,1.61 2.27,2.93 0,0.7 -0.3,1.43 -0.9,2.18 -0.44,0.55 -1.24,1.31 -2.41,2.3 0.26,0.38 0.76,0.71 1.51,0.96 0.74,0.26 1.35,0.4 1.86,0.4l3.59 0 0 4.25z"/>
  <path id="3" class="fil0" d="M73.13 39.51l-12.05 0 0 -4.25 9.6 0 -3 -20.78 -1.25 -0.6c0,-1.12 0.1,-2.17 0.29,-3.15 0.2,-0.98 0.49,-1.94 0.89,-2.86l0.37 0.27c0,0.94 0.53,1.65 1.61,2.13 0.82,0.32 1.65,0.65 2.49,0.97 0,0.81 -0.06,1.67 -0.2,2.59 -0.12,0.92 -0.28,1.61 -0.46,2.06l-1.19 -0.39 2.9 19.21 0 4.8z"/>
  <path id="4" class="fil0" d="M81.39 33.27c0,1.3 -0.24,2.57 -0.72,3.79 -0.25,0.65 -0.78,1.68 -1.61,3.1l-0.44 -0.24c0.06,-0.48 0.11,-1.02 0.15,-1.64 0.04,-0.62 0.07,-1.04 0.07,-1.25 0,-1.69 -0.14,-4.06 -0.4,-7.09 -0.28,-3.04 -0.59,-6.21 -0.97,-9.52 -0.23,-2 -0.48,-4.04 -0.76,-6.12 0.33,-0.72 0.7,-1.49 1.12,-2.32 0.42,-0.83 0.81,-1.6 1.18,-2.34 0.26,1.85 0.59,4.4 1,7.61 0.4,3.23 0.71,6.13 0.94,8.73 0.29,3.22 0.44,5.65 0.44,7.29z"/>
  <path id="5" class="fil0" d="M110.95 32.27c0,2.3 -0.38,4.04 -1.13,5.2 -1.15,1.79 -3.26,2.69 -6.33,2.69 -1.19,0 -2.17,-0.23 -2.96,-0.71 -0.89,-0.54 -1.34,-1.31 -1.34,-2.3 0,-1.14 0.29,-2.46 0.86,-3.96 0.53,-1.27 1.05,-2.55 1.59,-3.84l-0.36 -0.1 1.49 -4.15c2.93,1.55 4.69,2.53 5.26,2.94 1.94,1.37 2.92,2.78 2.92,4.23zm-2.1 1.91c0,-0.62 -0.89,-1.43 -2.69,-2.46 -0.76,-0.44 -1.58,-0.87 -2.46,-1.29 -0.74,0.79 -1.17,1.29 -1.32,1.48 -0.46,0.64 -0.69,1.24 -0.69,1.81 0,0.83 0.24,1.48 0.7,1.95 0.46,0.45 1.09,0.69 1.87,0.69 0.91,0 1.9,-0.26 2.98,-0.77 1.07,-0.52 1.61,-0.98 1.61,-1.41zm-0.1 -17.53l-1.8 3.55 -4.01 -2.05 1.86 -3.55 3.95 2.05zm-5.55 2.25l-1.81 3.5 -4 -2.08 1.89 -3.52 3.92 2.1z"/>
  <path id="6" class="fil0" d="M135.97 39.5c0,1.79 -0.76,3.65 -2.3,5.58 -1.33,1.69 -2.99,3.15 -4.99,4.38 -1.88,1.17 -3.44,1.76 -4.66,1.76 -1.13,0 -2.34,-0.17 -3.65,-0.5 -0.99,-0.24 -2.18,-0.63 -3.57,-1.15 -1.16,-0.45 -2.33,-0.89 -3.49,-1.33l0.42 -0.98c1.07,0.22 2.19,0.44 3.36,0.66 1.16,0.23 2.22,0.35 3.16,0.35 2.09,0 4.27,-0.67 6.53,-2.01 2.06,-1.22 3.81,-2.76 5.27,-4.63 1.45,-1.87 2.17,-3.55 2.17,-5.05 0,-1.29 -0.37,-2.64 -1.12,-4.06 -0.6,-1.14 -1.45,-2.31 -2.53,-3.52l1.38 -3.85c1.33,1.24 2.31,2.48 2.95,3.72 0.71,1.4 1.07,2.97 1.07,4.69l0 5.94z"/>
  <path id="7" class="fil0" d="M144.22 33.27c0,1.3 -0.24,2.57 -0.72,3.79 -0.25,0.65 -0.78,1.68 -1.61,3.1l-0.44 -0.24c0.06,-0.48 0.11,-1.02 0.15,-1.64 0.04,-0.62 0.07,-1.04 0.07,-1.25 0,-1.69 -0.14,-4.06 -0.4,-7.09 -0.28,-3.04 -0.59,-6.21 -0.97,-9.52 -0.23,-2 -0.48,-4.04 -0.76,-6.12 0.33,-0.72 0.7,-1.49 1.12,-2.32 0.42,-0.83 0.81,-1.6 1.18,-2.34 0.26,1.85 0.6,4.4 1,7.61 0.4,3.23 0.71,6.13 0.94,8.73 0.29,3.22 0.44,5.65 0.44,7.29z"/>
  <path id="8" class="fil0" d="M170.79 39.5c0,1.79 -0.77,3.65 -2.31,5.58 -1.33,1.69 -2.99,3.15 -4.98,4.38 -1.89,1.17 -3.45,1.76 -4.67,1.76 -1.13,0 -2.34,-0.17 -3.65,-0.5 -0.99,-0.24 -2.18,-0.63 -3.56,-1.15 -1.17,-0.45 -2.34,-0.89 -3.5,-1.33l0.42 -0.98c1.07,0.22 2.19,0.44 3.36,0.66 1.17,0.23 2.23,0.35 3.17,0.35 2.08,0 4.26,-0.67 6.53,-2.01 2.06,-1.22 3.81,-2.76 5.26,-4.63 1.45,-1.87 2.17,-3.55 2.17,-5.05 0,-1.29 -0.37,-2.64 -1.11,-4.06 -0.6,-1.14 -1.45,-2.31 -2.54,-3.52l1.38 -3.85c1.33,1.24 2.32,2.48 2.95,3.72 0.72,1.4 1.08,2.97 1.08,4.69l0 5.94zm-3.71 -22.74l-1.88 3.54 -3.92 -2.04 1.79 -3.57 4.01 2.07z"/>
  <path id="9" class="fil0" d="M192.39 37.99c0,2.7 -0.99,5.39 -2.98,8.06 -2.21,2.97 -4.77,4.47 -7.68,4.47 -1.07,0 -2.18,-0.13 -3.32,-0.37 -0.84,-0.18 -1.92,-0.48 -3.26,-0.92 -1.05,-0.37 -2.11,-0.73 -3.17,-1.09l0.42 -0.86c0.9,0.21 1.86,0.43 2.86,0.68 1,0.24 1.91,0.36 2.71,0.36 1.98,0 3.86,-0.51 5.64,-1.53 1.38,-0.81 2.77,-1.98 4.15,-3.5 0.7,-0.78 1.69,-2.04 2.98,-3.78 -2.2,0 -3.85,-0.35 -4.95,-1.06 -1.24,-0.8 -1.85,-2.12 -1.85,-3.95 0,-1.69 0.39,-3.25 1.17,-4.7 0.92,-1.66 2.08,-2.5 3.48,-2.5 1.42,0 2.44,0.83 3.07,2.49 0.49,1.29 0.73,3.09 0.73,5.4l0 2.8zm-1.55 -2.68c-0.36,-1.58 -0.79,-2.66 -1.3,-3.27 -0.43,-0.53 -0.98,-0.79 -1.61,-0.79 -0.46,0 -0.86,0.15 -1.19,0.45 -0.34,0.31 -0.5,0.69 -0.5,1.15 0,0.81 0.35,1.41 1.07,1.83 0.72,0.42 1.9,0.63 3.53,0.63z"/>
 </g>
</svg>
