<?xml version="1.0" encoding="UTF-8"?>
<!DOCTYPE svg PUBLIC "-//W3C//DTD SVG 1.1//EN" "http://www.w3.org/Graphics/SVG/1.1/DTD/svg11.dtd">
<!-- Creator: CorelDRAW 2018 (64-Bit) -->
<svg xmlns="http://www.w3.org/2000/svg" xml:space="preserve" width="272px" height="59px" version="1.1" style="shape-rendering:geometricPrecision; text-rendering:geometricPrecision; image-rendering:optimizeQuality; fill-rule:evenodd; clip-rule:evenodd"
viewBox="0 0 272 59.13"
 xmlns:xlink="http://www.w3.org/1999/xlink">
 <defs>
  <style type="text/css">
   <![CDATA[
    .fil0 {fill:#2B2A29;fill-rule:nonzero}
   ]]>
  </style>
 </defs>
 <g id="Layer_x0020_1">
  <metadata id="CorelCorpID_0Corel-Layer"/>
  <path class="fil0" d="M21.97 39.89l-3.5 0c-1.17,0 -2.2,-1 -3.1,-3 -0.67,-1.5 -1.2,-3.43 -1.61,-5.78 -0.49,0.91 -1.11,1.61 -1.85,2.12 -0.76,0.5 -1.55,0.75 -2.37,0.75 -1.87,0 -3.43,-0.13 -4.68,-0.38 -1.24,-0.26 -1.87,-0.57 -1.87,-0.96 0,-1.41 0.91,-2.96 2.73,-4.66 1.81,-1.7 4.08,-3.2 6.81,-4.47 -0.03,-0.13 -0.1,-0.46 -0.21,-1.02 -0.11,-0.55 -0.16,-0.89 -0.16,-1.02 0,-0.56 0.19,-1.18 0.57,-1.85 0.32,-0.56 0.74,-1.13 1.25,-1.71 0.17,1.01 0.34,1.98 0.5,2.93 0.18,0.94 0.37,1.92 0.6,2.93l0.73 4.19c0.41,2.31 0.78,4.02 1.1,5.13 0.51,1.7 1.03,2.54 1.57,2.54l3.49 0 0 4.26zm-8.54 -10.91l-0.47 -2.66c-1.4,0.51 -2.52,1.03 -3.32,1.58 -0.81,0.54 -1.49,1.26 -2.04,2.16 0.34,0.15 0.73,0.26 1.19,0.34 0.45,0.08 1.08,0.12 1.87,0.12 0.97,0 1.9,-0.51 2.77,-1.54zm2.28 -18.38l-1.8 3.55 -4.01 -2.05 1.86 -3.55 3.95 2.05zm-5.56 2.25l-1.81 3.51 -3.99 -2.08 1.88 -3.53 3.92 2.1z"/>
  <path id="1" class="fil0" d="M34.18 39.89l-13.91 0 0 -4.26 12.16 0c0,-1.92 -0.23,-3.38 -0.69,-4.39 -0.31,-0.7 -1.08,-1.7 -2.31,-3.02l1.92 -4c1.16,1.48 1.89,2.63 2.18,3.47 0.44,1.25 0.65,3.33 0.65,6.23l0 5.97zm-2 -22.62l-1.89 3.54 -3.92 -2.04 1.8 -3.57 4.01 2.07z"/>
  <path id="2" class="fil0" d="M45.71 39.89l-3.44 0c-1.12,0 -2.01,-0.45 -2.68,-1.35 -0.59,-0.78 -1.04,-1.94 -1.34,-3.49 -0.3,-1.55 -0.54,-3.45 -0.7,-5.72 -0.1,-1.83 -0.2,-3.72 -0.31,-5.66 -0.1,-1.94 -0.24,-3.41 -0.41,-4.41 -0.18,-1 -0.41,-1.82 -0.7,-2.45 -0.35,-0.79 -0.85,-1.47 -1.49,-2.06l2.98 -4.75c0.65,1.95 1.11,4.29 1.38,7.01 0.16,1.7 0.33,5.7 0.5,12.02 0.29,2.9 0.72,4.76 1.28,5.57 0.45,0.69 0.95,1.03 1.49,1.03l3.44 0 0 4.26z"/>
  <path id="3" class="fil0" d="M72.21 39.89l-28.23 0 0 -4.26 19.92 0c-1.66,-1.29 -3.06,-2.29 -4.2,-3.01 -1.42,-0.9 -2.71,-1.55 -3.89,-1.96 -1.32,-0.46 -2.65,-0.69 -4,-0.69 -0.84,0 -1.67,0.06 -2.52,0.18 0.47,-1.2 1.09,-2.17 1.86,-2.9 1.1,-1.06 2.5,-1.58 4.2,-1.58 1.66,0 3.62,0.82 5.89,2.44 1.12,0.81 2.96,2.36 5.5,4.64 1.97,1.77 3.3,2.73 4.01,2.88l1.46 0 0 4.26zm-11.76 -22.77l-1.89 3.54 -3.92 -2.04 1.8 -3.57 4.01 2.07z"/>
  <path id="4" class="fil0" d="M82.57 39.89l-12.07 0 0 -4.26 9.62 0 -3.01 -20.79 -1.25 -0.6c0,-1.12 0.1,-2.17 0.29,-3.16 0.2,-0.97 0.49,-1.93 0.89,-2.85l0.37 0.27c0,0.94 0.54,1.65 1.61,2.12 0.82,0.33 1.65,0.65 2.5,0.98 0,0.81 -0.07,1.67 -0.2,2.59 -0.13,0.92 -0.29,1.61 -0.47,2.06l-1.18 -0.39 2.9 19.23 0 4.8z"/>
  <path id="5" class="fil0" d="M90.83 33.65c0,1.3 -0.24,2.57 -0.72,3.78 -0.25,0.65 -0.78,1.69 -1.61,3.11l-0.44 -0.24c0.06,-0.48 0.11,-1.02 0.15,-1.65 0.04,-0.62 0.07,-1.03 0.07,-1.24 0,-1.7 -0.14,-4.07 -0.41,-7.1 -0.27,-3.04 -0.59,-6.21 -0.96,-9.52 -0.24,-2.01 -0.49,-4.05 -0.76,-6.14 0.32,-0.71 0.7,-1.48 1.12,-2.32 0.41,-0.82 0.81,-1.6 1.18,-2.33 0.26,1.85 0.59,4.4 0.99,7.62 0.4,3.23 0.72,6.13 0.95,8.72 0.29,3.23 0.44,5.66 0.44,7.31z"/>
  <path id="6" class="fil0" d="M142.54 39.89l-23.32 0c-3.13,0 -5.62,-0.55 -7.48,-1.64 -2.33,-1.38 -3.5,-3.51 -3.5,-6.43 0,-1.52 0.35,-3.07 1.03,-4.65 0.24,-0.58 0.83,-1.66 1.75,-3.25l0.73 0.46c-0.36,0.75 -0.71,1.5 -1.04,2.25 -0.48,1.16 -0.71,2.19 -0.71,3.11 0,1.92 1.01,3.41 3.02,4.47 1.81,0.95 4.1,1.42 6.87,1.42l20.69 0 0 -0.66c0,-1.83 -0.21,-3.31 -0.65,-4.45 -0.45,-1.16 -1.19,-2.13 -2.25,-2.95l1.88 -4c0.72,0.89 1.16,1.46 1.3,1.68 1.12,1.83 1.68,4.49 1.68,7.98l0 6.66zm-11.52 -22.28l-1.8 3.55 -4.01 -2.05 1.86 -3.55 3.95 2.05zm-5.55 2.25l-1.82 3.5 -3.99 -2.07 1.88 -3.53 3.93 2.1z"/>
  <path id="7" class="fil0" d="M154.07 39.89l-3.44 0c-1.12,0 -2.01,-0.45 -2.68,-1.35 -0.59,-0.78 -1.04,-1.94 -1.34,-3.49 -0.3,-1.55 -0.54,-3.45 -0.7,-5.72 -0.1,-1.83 -0.2,-3.72 -0.31,-5.66 -0.1,-1.94 -0.24,-3.41 -0.41,-4.41 -0.17,-1 -0.41,-1.82 -0.7,-2.45 -0.35,-0.79 -0.85,-1.47 -1.49,-2.06l2.98 -4.75c0.65,1.95 1.11,4.29 1.38,7.01 0.17,1.7 0.33,5.7 0.5,12.02 0.29,2.9 0.72,4.76 1.28,5.57 0.46,0.69 0.96,1.03 1.49,1.03l3.44 0 0 4.26z"/>
  <path id="8" class="fil0" d="M180.58 39.89l-28.24 0 0 -4.26 19.93 0c-1.66,-1.29 -3.07,-2.29 -4.21,-3.01 -1.42,-0.9 -2.71,-1.55 -3.89,-1.96 -1.32,-0.46 -2.65,-0.69 -4,-0.69 -0.84,0 -1.67,0.06 -2.52,0.18 0.47,-1.2 1.09,-2.17 1.86,-2.9 1.1,-1.06 2.5,-1.58 4.2,-1.58 1.66,0 3.62,0.82 5.9,2.44 1.11,0.81 2.95,2.36 5.49,4.64 1.97,1.77 3.31,2.73 4.01,2.88l1.47 0 0 4.26z"/>
  <path id="9" class="fil0" d="M192.78 39.89l-13.91 0 0 -4.26 12.16 0c0,-1.92 -0.23,-3.38 -0.69,-4.39 -0.31,-0.7 -1.08,-1.7 -2.31,-3.02l1.92 -4c1.16,1.48 1.89,2.63 2.18,3.47 0.44,1.25 0.65,3.33 0.65,6.23l0 5.97zm-0.25 4.8l-1.8 3.56 -4 -2.06 1.85 -3.55 3.95 2.05zm-5.55 2.25l-1.81 3.51 -4 -2.08 1.88 -3.53 3.93 2.1z"/>
  <path id="10" class="fil0" d="M235.15 39.89l-29.37 0c-0.87,0 -1.72,-0.15 -2.52,-0.45 -0.6,-0.22 -1.31,-0.59 -2.12,-1.1 -0.68,0.6 -1.37,1 -2.05,1.21 -0.69,0.23 -1.78,0.34 -3.28,0.34l-4.72 0 0 -4.26 4.73 0c1.32,0 2.27,-0.12 2.85,-0.34 0.94,-0.38 1.41,-1.13 1.41,-2.25 0,-0.47 -0.02,-0.95 -0.08,-1.43 -0.06,-0.48 -0.14,-1 -0.25,-1.57l0.98 -1.47c0.56,2.21 1.35,3.92 2.34,5.13 1.06,1.29 2.3,1.93 3.74,1.93 1.37,0 2.97,-0.31 4.81,-0.93 1.99,-0.66 3.7,-1.51 5.13,-2.53 2.33,-1.66 3.75,-2.66 4.28,-2.98 1.32,-0.85 2.51,-1.45 3.59,-1.81 1.21,-0.41 2.52,-0.61 3.96,-0.61 2.21,0 3.88,0.64 5,1.93 1.05,1.19 1.57,2.86 1.57,5l0 6.19zm-4.01 -6.14c0,-0.79 -0.49,-1.41 -1.49,-1.86 -0.99,-0.44 -2.15,-0.66 -3.47,-0.66 -1.62,0 -3.59,0.54 -5.9,1.62 -1.84,0.93 -3.68,1.85 -5.49,2.78l11.25 0c1.77,0 3.06,-0.15 3.88,-0.46 0.81,-0.31 1.22,-0.78 1.22,-1.42zm-11.57 -14.17l-1.88 3.54 -3.92 -2.05 1.79 -3.56 4.01 2.07z"/>
  <path id="11" class="fil0" d="M256.78 38.37c0,2.7 -0.99,5.39 -2.99,8.06 -2.21,2.98 -4.77,4.47 -7.67,4.47 -1.08,0 -2.19,-0.12 -3.33,-0.37 -0.84,-0.17 -1.92,-0.48 -3.26,-0.91 -1.06,-0.38 -2.12,-0.74 -3.18,-1.1l0.42 -0.86c0.91,0.21 1.87,0.44 2.87,0.68 1,0.24 1.91,0.36 2.71,0.36 1.98,0 3.87,-0.51 5.64,-1.53 1.39,-0.81 2.78,-1.98 4.16,-3.5 0.7,-0.78 1.69,-2.04 2.98,-3.78 -2.2,0 -3.86,-0.35 -4.95,-1.06 -1.24,-0.8 -1.86,-2.12 -1.86,-3.96 0,-1.68 0.39,-3.25 1.18,-4.7 0.92,-1.66 2.07,-2.5 3.48,-2.5 1.42,0 2.44,0.83 3.07,2.49 0.49,1.29 0.73,3.09 0.73,5.4l0 2.81zm-1.55 -2.69c-0.36,-1.58 -0.79,-2.66 -1.3,-3.27 -0.44,-0.53 -0.98,-0.78 -1.61,-0.78 -0.46,0 -0.86,0.15 -1.2,0.45 -0.33,0.3 -0.5,0.68 -0.5,1.14 0,0.81 0.36,1.42 1.08,1.83 0.72,0.42 1.89,0.63 3.53,0.63z"/>
  <path id="12" class="fil0" d="M269 39.89l-13.91 0 0 -4.26 12.16 0c0,-1.92 -0.23,-3.38 -0.69,-4.39 -0.31,-0.7 -1.08,-1.7 -2.31,-3.02l1.93 -4c1.16,1.48 1.88,2.63 2.17,3.47 0.44,1.25 0.65,3.33 0.65,6.23l0 5.97zm-0.15 -24.18l-1.8 3.55 -4 -2.05 1.85 -3.56 3.95 2.06zm-5.55 2.25l-1.81 3.5 -4 -2.07 1.89 -3.53 3.92 2.1z"/>
 </g>
</svg>
