<?xml version="1.0" encoding="UTF-8"?>
<!DOCTYPE svg PUBLIC "-//W3C//DTD SVG 1.1//EN" "http://www.w3.org/Graphics/SVG/1.1/DTD/svg11.dtd">
<!-- Creator: CorelDRAW 2018 (64-Bit) -->
<svg xmlns="http://www.w3.org/2000/svg" xml:space="preserve" width="307px" height="59px" version="1.1" style="shape-rendering:geometricPrecision; text-rendering:geometricPrecision; image-rendering:optimizeQuality; fill-rule:evenodd; clip-rule:evenodd"
viewBox="0 0 307 59.04"
 xmlns:xlink="http://www.w3.org/1999/xlink">
 <defs>
  <style type="text/css">
   <![CDATA[
    .fil0 {fill:#2B2A29;fill-rule:nonzero}
   ]]>
  </style>
 </defs>
 <g id="Layer_x0020_1">
  <metadata id="CorelCorpID_0Corel-Layer"/>
  <path class="fil0" d="M37.19 39.07l-23.28 0c-3.13,0 -5.61,-0.55 -7.47,-1.64 -2.32,-1.37 -3.49,-3.5 -3.49,-6.42 0,-1.52 0.34,-3.07 1.03,-4.64 0.24,-0.57 0.82,-1.66 1.75,-3.25l0.72 0.47c-0.36,0.75 -0.71,1.49 -1.04,2.24 -0.48,1.16 -0.71,2.19 -0.71,3.11 0,1.91 1.01,3.4 3.02,4.46 1.81,0.94 4.09,1.42 6.86,1.42l20.66 0 0 -0.66c0,-1.82 -0.21,-3.31 -0.66,-4.45 -0.44,-1.15 -1.18,-2.12 -2.24,-2.94l1.88 -4c0.72,0.89 1.15,1.46 1.3,1.68 1.11,1.83 1.67,4.49 1.67,7.97l0 6.65zm-14.04 5.91l-1.89 3.53 -3.91 -2.04 1.79 -3.55 4.01 2.06z"/>
  <path id="1" class="fil0" d="M62.55 13.27l-1.17 4.41 -1.43 -0.71 0.05 2.22c0,2.17 -0.27,4.29 -0.83,6.33 -0.61,2.24 -1.56,4.46 -2.87,6.65 0.62,1.14 1.05,2.04 1.29,2.69 0.38,1.02 0.56,2.07 0.56,3.12 0,0.61 -0.01,1.12 -0.05,1.54 -0.03,0.43 -0.11,0.92 -0.21,1.5 -1.73,0.39 -3.57,0.7 -5.52,0.91 -1.96,0.23 -3.87,0.34 -5.71,0.34 0.01,-0.31 0.02,-0.58 0.02,-0.79 0.08,-1.24 0.28,-2.4 0.58,-3.46 2.76,-1.48 5.09,-3.39 6.99,-5.75 -1.14,-2.15 -1.96,-3.67 -2.48,-4.57 -0.57,-0.97 -1.54,-2.49 -2.91,-4.55 -0.5,-0.7 -0.95,-1.26 -1.34,-1.69 -0.53,-0.56 -0.96,-0.85 -1.26,-0.85 -0.21,0 -0.56,0.12 -1.05,0.37 -0.26,0.13 -0.48,0.19 -0.66,0.19 -0.36,0 -0.92,-0.36 -1.68,-1.07 -0.67,-0.64 -1.37,-1.42 -2.1,-2.34 -0.59,-0.75 -0.99,-1.38 -1.2,-1.88 -0.2,-0.49 -0.31,-1.09 -0.31,-1.79 0,-1.01 0.06,-1.8 0.19,-2.37 0.2,-0.86 0.53,-1.29 1,-1.29 0.67,0 1.64,0.63 2.91,1.9 1.11,1.14 2.37,2.64 3.75,4.49 1.22,1.64 2.42,3.42 3.61,5.32l2.48 4c0.74,1.2 1.49,2.57 2.25,4.1 1.09,-2.19 1.85,-4.4 2.26,-6.64 0.36,-1.95 0.54,-4.44 0.54,-7.46l-1.4 -0.81c0,-1.07 0.09,-2.05 0.29,-2.92 0.18,-0.87 0.45,-1.67 0.79,-2.39l0.57 0.15c0.07,0.7 0.45,1.26 1.17,1.69 0.38,0.22 0.88,0.49 1.49,0.78 0.6,0.29 1.07,0.5 1.39,0.63zm-6.35 23.73c0,-0.36 -0.06,-0.72 -0.21,-1.11 -0.13,-0.38 -0.44,-1.01 -0.9,-1.89 -0.49,0.63 -1.22,1.37 -2.19,2.19 -0.96,0.84 -1.92,1.54 -2.86,2.13 1.91,0 3.28,-0.06 4.09,-0.18 1.38,-0.19 2.07,-0.57 2.07,-1.14zm-11.19 -30.74c0,0.42 -0.25,0.78 -0.76,1.11 -0.34,0.21 -0.86,0.44 -1.54,0.68l-4.55 1.57c0,-0.75 0.82,-1.41 2.46,-1.99 -0.5,-0.26 -0.89,-0.51 -1.15,-0.75 -0.34,-0.32 -0.51,-0.65 -0.51,-1 0,-0.5 0.43,-1.21 1.3,-2.13 0.96,-1.02 1.81,-1.52 2.55,-1.52 0.32,0 0.6,0.11 0.84,0.33 0.24,0.23 0.36,0.52 0.36,0.88 0,0.24 -0.05,0.47 -0.15,0.71 -0.09,0.23 -0.24,0.51 -0.42,0.8 -0.5,-0.45 -1.05,-0.67 -1.64,-0.67 -0.36,0 -0.72,0.07 -1.07,0.21 -0.35,0.15 -0.52,0.32 -0.52,0.51 0,0.24 0.37,0.58 1.13,0.99 0.76,0.43 1.4,0.64 1.93,0.64 0.36,0 0.62,-0.01 0.78,-0.04 0.15,-0.02 0.47,-0.13 0.96,-0.33z"/>
  <path id="2" class="fil0" d="M72.65 32.83c0,1.3 -0.24,2.57 -0.72,3.79 -0.25,0.65 -0.78,1.68 -1.61,3.1l-0.44 -0.25c0.06,-0.47 0.11,-1.01 0.15,-1.64 0.04,-0.61 0.07,-1.03 0.07,-1.24 0,-1.69 -0.13,-4.06 -0.4,-7.09 -0.28,-3.03 -0.59,-6.2 -0.97,-9.5 -0.23,-2 -0.48,-4.04 -0.76,-6.13 0.33,-0.71 0.7,-1.48 1.12,-2.31 0.42,-0.83 0.81,-1.6 1.18,-2.33 0.26,1.84 0.6,4.39 1,7.6 0.39,3.23 0.71,6.12 0.94,8.71 0.29,3.22 0.44,5.65 0.44,7.29z"/>
  <path id="3" class="fil0" d="M105.53 39.07l-2.91 0c-2.7,0 -5.07,0.25 -7.09,0.75 -2.56,0.64 -3.85,1.55 -3.85,2.74 0,1.07 0.19,2.22 0.55,3.44 0.37,1.22 0.75,2.46 1.13,3.7 0.38,1.26 0.57,2.4 0.57,3.45 0,0.62 -0.04,1.18 -0.13,1.69 -0.09,0.5 -0.26,1.15 -0.49,1.97 -0.42,-1.35 -0.83,-2.7 -1.23,-4.05 -0.78,-2.57 -1.35,-4.51 -1.72,-5.84 -0.58,-2.08 -0.87,-3.33 -0.87,-3.75 0,-2.09 0.43,-3.69 1.3,-4.8 0.87,-1.11 2.21,-1.94 4.02,-2.48 1.43,-0.42 3.59,-0.78 6.47,-1.07 -1.02,-1.05 -1.66,-1.68 -1.91,-1.87 -0.83,-0.66 -1.67,-0.98 -2.52,-0.98 -0.54,0 -1.06,0.16 -1.54,0.49 -0.4,0.27 -0.87,0.72 -1.43,1.36l-1.1 -0.72c0.5,-1.21 1.05,-2.19 1.66,-2.92 1.03,-1.21 2.24,-1.81 3.64,-1.81 1.01,0 2.02,0.37 3.03,1.12 0.83,0.62 1.68,1.49 2.54,2.6 0.42,0.53 1.05,1.45 1.88,2.73l0 4.25z"/>
  <path id="4" class="fil0" d="M132.06 39.07l-1.86 0c-1.03,0 -1.92,-0.15 -2.66,-0.43 -0.75,-0.28 -1.42,-0.69 -2.04,-1.21 -0.77,0.6 -1.43,1 -2.01,1.19 -0.83,0.3 -1.97,0.45 -3.43,0.45l-1.59 0c-0.85,0 -1.7,-0.17 -2.55,-0.5 -0.55,-0.2 -1.24,-0.55 -2.06,-1.05 -0.78,0.6 -1.5,1 -2.15,1.21 -0.65,0.23 -1.71,0.34 -3.17,0.34l-4.72 0 0 -4.25 4.73 0c1.31,0 2.26,-0.12 2.84,-0.34 0.94,-0.38 1.41,-1.13 1.41,-2.24 0,-0.48 -0.02,-0.95 -0.07,-1.42 -0.04,-0.48 -0.14,-1 -0.26,-1.58l0.97 -1.47c0.46,1.5 0.84,2.58 1.14,3.27 0.52,1.19 1.1,2.08 1.71,2.68 0.76,0.73 1.66,1.1 2.71,1.1l1.65 0c1.23,0 2.14,-0.19 2.73,-0.56 0.65,-0.43 0.99,-1.1 0.99,-2.02 0,-0.51 -0.04,-1 -0.1,-1.47 -0.06,-0.48 -0.15,-0.98 -0.25,-1.53l0.97 -1.47 0.51 2.3c0.44,1.81 0.97,3.06 1.61,3.76 0.56,0.63 1.3,0.94 2.25,0.94 0.43,0 0.79,-0.14 1.05,-0.41 0.27,-0.27 0.4,-0.62 0.4,-1.04 0,-0.92 -0.33,-1.88 -1,-2.9 -0.11,-0.17 -0.51,-0.7 -1.19,-1.6l1.57 -2.65c0.66,1.01 1.11,1.88 1.35,2.62 0.35,1.1 0.52,2.58 0.52,4.41l0 5.87z"/>
  <path id="5" class="fil0" d="M140.3 32.83c0,1.3 -0.24,2.57 -0.71,3.79 -0.25,0.65 -0.79,1.68 -1.61,3.1l-0.44 -0.25c0.06,-0.47 0.11,-1.01 0.15,-1.64 0.04,-0.61 0.06,-1.03 0.06,-1.24 0,-1.69 -0.13,-4.06 -0.4,-7.09 -0.27,-3.03 -0.59,-6.2 -0.96,-9.5 -0.24,-2 -0.48,-4.04 -0.76,-6.13 0.32,-0.71 0.7,-1.48 1.12,-2.31 0.41,-0.83 0.8,-1.6 1.18,-2.33 0.26,1.84 0.59,4.39 0.99,7.6 0.4,3.23 0.72,6.12 0.94,8.71 0.29,3.22 0.44,5.65 0.44,7.29z"/>
  <polygon id="6" class="fil0" points="156.29,46.81 166.69,9.83 170.23,9.83 159.83,46.81 "/>
  <path id="7" class="fil0" d="M200.96 39.07l-2.9 0c-2.71,0 -5.08,0.25 -7.1,0.75 -2.56,0.64 -3.84,1.55 -3.84,2.74 0,1.07 0.18,2.22 0.55,3.44 0.36,1.22 0.74,2.46 1.12,3.7 0.38,1.26 0.58,2.4 0.58,3.45 0,0.62 -0.05,1.18 -0.14,1.69 -0.09,0.5 -0.25,1.15 -0.49,1.97 -0.42,-1.35 -0.83,-2.7 -1.23,-4.05 -0.78,-2.57 -1.35,-4.51 -1.72,-5.84 -0.58,-2.08 -0.87,-3.33 -0.87,-3.75 0,-2.09 0.43,-3.69 1.31,-4.8 0.86,-1.11 2.2,-1.94 4.01,-2.48 1.43,-0.42 3.59,-0.78 6.47,-1.07 -1.02,-1.05 -1.66,-1.68 -1.9,-1.87 -0.84,-0.66 -1.68,-0.98 -2.53,-0.98 -0.54,0 -1.06,0.16 -1.54,0.49 -0.4,0.27 -0.87,0.72 -1.42,1.36l-1.1 -0.72c0.49,-1.21 1.04,-2.19 1.65,-2.92 1.03,-1.21 2.25,-1.81 3.65,-1.81 1,0 2.01,0.37 3.02,1.12 0.83,0.62 1.68,1.49 2.54,2.6 0.43,0.53 1.05,1.45 1.88,2.73l0 4.25z"/>
  <path id="8" class="fil0" d="M226.3 13.27l-1.17 4.41 -1.43 -0.71 0.05 2.22c0,2.17 -0.28,4.29 -0.84,6.33 -0.6,2.24 -1.55,4.46 -2.86,6.65 0.61,1.14 1.05,2.04 1.29,2.69 0.37,1.02 0.56,2.07 0.56,3.12 0,0.61 -0.02,1.12 -0.05,1.54 -0.04,0.43 -0.11,0.92 -0.22,1.5 -1.72,0.39 -3.56,0.7 -5.51,0.91 -1.96,0.23 -3.87,0.34 -5.72,0.34 0.02,-0.31 0.03,-0.58 0.03,-0.79 0.08,-1.24 0.27,-2.4 0.58,-3.46 2.76,-1.48 5.09,-3.39 6.99,-5.75 -1.14,-2.15 -1.97,-3.67 -2.48,-4.57 -0.58,-0.97 -1.54,-2.49 -2.91,-4.55 -0.5,-0.7 -0.95,-1.26 -1.34,-1.69 -0.54,-0.56 -0.96,-0.85 -1.27,-0.85 -0.21,0 -0.56,0.12 -1.05,0.37 -0.26,0.13 -0.47,0.19 -0.66,0.19 -0.35,0 -0.91,-0.36 -1.68,-1.07 -0.67,-0.64 -1.37,-1.42 -2.09,-2.34 -0.59,-0.75 -0.99,-1.38 -1.2,-1.88 -0.21,-0.49 -0.32,-1.09 -0.32,-1.79 0,-1.01 0.07,-1.8 0.2,-2.37 0.19,-0.86 0.53,-1.29 1,-1.29 0.66,0 1.64,0.63 2.9,1.9 1.12,1.14 2.38,2.64 3.75,4.49 1.23,1.64 2.43,3.42 3.62,5.32l2.48 4c0.73,1.2 1.48,2.57 2.25,4.1 1.09,-2.19 1.85,-4.4 2.26,-6.64 0.35,-1.95 0.54,-4.44 0.54,-7.46l-1.4 -0.81c0,-1.07 0.09,-2.05 0.28,-2.92 0.18,-0.87 0.45,-1.67 0.79,-2.39l0.58 0.15c0.06,0.7 0.45,1.26 1.16,1.69 0.39,0.22 0.89,0.49 1.5,0.78 0.6,0.29 1.06,0.5 1.39,0.63zm-6.35 23.73c0,-0.36 -0.07,-0.72 -0.21,-1.11 -0.13,-0.38 -0.44,-1.01 -0.91,-1.89 -0.49,0.63 -1.21,1.37 -2.18,2.19 -0.97,0.84 -1.92,1.54 -2.87,2.13 1.92,0 3.29,-0.06 4.09,-0.18 1.39,-0.19 2.08,-0.57 2.08,-1.14zm-11.2 -30.74c0,0.42 -0.25,0.78 -0.76,1.11 -0.34,0.21 -0.85,0.44 -1.54,0.68l-4.55 1.57c0,-0.75 0.83,-1.41 2.47,-1.99 -0.51,-0.26 -0.89,-0.51 -1.15,-0.75 -0.34,-0.32 -0.52,-0.65 -0.52,-1 0,-0.5 0.44,-1.21 1.3,-2.13 0.97,-1.02 1.82,-1.52 2.55,-1.52 0.33,0 0.61,0.11 0.84,0.33 0.25,0.23 0.36,0.52 0.36,0.88 0,0.24 -0.05,0.47 -0.15,0.71 -0.09,0.23 -0.23,0.51 -0.41,0.8 -0.5,-0.45 -1.05,-0.67 -1.65,-0.67 -0.35,0 -0.71,0.07 -1.06,0.21 -0.35,0.15 -0.53,0.32 -0.53,0.51 0,0.24 0.38,0.58 1.14,0.99 0.75,0.43 1.4,0.64 1.93,0.64 0.36,0 0.62,-0.01 0.77,-0.04 0.15,-0.02 0.48,-0.13 0.96,-0.33z"/>
  <path id="9" class="fil0" d="M236.39 32.83c0,1.3 -0.24,2.57 -0.71,3.79 -0.25,0.65 -0.79,1.68 -1.61,3.1l-0.44 -0.25c0.06,-0.47 0.11,-1.01 0.15,-1.64 0.04,-0.61 0.06,-1.03 0.06,-1.24 0,-1.69 -0.13,-4.06 -0.4,-7.09 -0.27,-3.03 -0.59,-6.2 -0.96,-9.5 -0.24,-2 -0.48,-4.04 -0.76,-6.13 0.32,-0.71 0.7,-1.48 1.12,-2.31 0.41,-0.83 0.8,-1.6 1.18,-2.33 0.26,1.84 0.59,4.39 0.99,7.6 0.4,3.23 0.72,6.12 0.94,8.71 0.29,3.22 0.44,5.65 0.44,7.29z"/>
  <path id="10" class="fil0" d="M269.28 39.07l-2.91 0c-2.71,0 -5.08,0.25 -7.1,0.75 -2.56,0.64 -3.84,1.55 -3.84,2.74 0,1.07 0.18,2.22 0.55,3.44 0.37,1.22 0.74,2.46 1.12,3.7 0.39,1.26 0.58,2.4 0.58,3.45 0,0.62 -0.04,1.18 -0.13,1.69 -0.1,0.5 -0.26,1.15 -0.5,1.97 -0.41,-1.35 -0.83,-2.7 -1.23,-4.05 -0.77,-2.57 -1.35,-4.51 -1.71,-5.84 -0.59,-2.08 -0.88,-3.33 -0.88,-3.75 0,-2.09 0.43,-3.69 1.31,-4.8 0.87,-1.11 2.21,-1.94 4.01,-2.48 1.44,-0.42 3.59,-0.78 6.48,-1.07 -1.03,-1.05 -1.67,-1.68 -1.91,-1.87 -0.83,-0.66 -1.68,-0.98 -2.52,-0.98 -0.55,0 -1.06,0.16 -1.55,0.49 -0.4,0.27 -0.86,0.72 -1.42,1.36l-1.1 -0.72c0.49,-1.21 1.04,-2.19 1.66,-2.92 1.02,-1.21 2.24,-1.81 3.64,-1.81 1.01,0 2.01,0.37 3.02,1.12 0.84,0.62 1.69,1.49 2.54,2.6 0.43,0.53 1.05,1.45 1.89,2.73l0 4.25z"/>
  <path id="11" class="fil0" d="M295.81 39.07l-1.87 0c-1.03,0 -1.91,-0.15 -2.65,-0.43 -0.75,-0.28 -1.43,-0.69 -2.05,-1.21 -0.76,0.6 -1.43,1 -2,1.19 -0.84,0.3 -1.98,0.45 -3.44,0.45l-1.59 0c-0.85,0 -1.7,-0.17 -2.55,-0.5 -0.55,-0.2 -1.24,-0.55 -2.05,-1.05 -0.79,0.6 -1.5,1 -2.15,1.21 -0.65,0.23 -1.71,0.34 -3.18,0.34l-4.71 0 0 -4.25 4.72 0c1.32,0 2.27,-0.12 2.84,-0.34 0.94,-0.38 1.42,-1.13 1.42,-2.24 0,-0.48 -0.03,-0.95 -0.08,-1.42 -0.04,-0.48 -0.13,-1 -0.26,-1.58l0.98 -1.47c0.46,1.5 0.83,2.58 1.13,3.27 0.53,1.19 1.1,2.08 1.72,2.68 0.76,0.73 1.66,1.1 2.71,1.1l1.65 0c1.23,0 2.14,-0.19 2.73,-0.56 0.65,-0.43 0.98,-1.1 0.98,-2.02 0,-0.51 -0.03,-1 -0.09,-1.47 -0.07,-0.48 -0.15,-0.98 -0.26,-1.53l0.98 -1.47 0.5 2.3c0.45,1.81 0.98,3.06 1.61,3.76 0.56,0.63 1.3,0.94 2.25,0.94 0.44,0 0.79,-0.14 1.06,-0.41 0.27,-0.27 0.4,-0.62 0.4,-1.04 0,-0.92 -0.33,-1.88 -1,-2.9 -0.12,-0.17 -0.52,-0.7 -1.2,-1.6l1.57 -2.65c0.66,1.01 1.11,1.88 1.35,2.62 0.36,1.1 0.53,2.58 0.53,4.41l0 5.87z"/>
  <path id="12" class="fil0" d="M304.05 32.83c0,1.3 -0.24,2.57 -0.72,3.79 -0.25,0.65 -0.78,1.68 -1.61,3.1l-0.44 -0.25c0.06,-0.47 0.11,-1.01 0.15,-1.64 0.05,-0.61 0.07,-1.03 0.07,-1.24 0,-1.69 -0.13,-4.06 -0.4,-7.09 -0.28,-3.03 -0.59,-6.2 -0.97,-9.5 -0.23,-2 -0.48,-4.04 -0.75,-6.13 0.32,-0.71 0.69,-1.48 1.11,-2.31 0.42,-0.83 0.81,-1.6 1.18,-2.33 0.26,1.84 0.6,4.39 1,7.6 0.4,3.23 0.71,6.12 0.94,8.71 0.29,3.22 0.44,5.65 0.44,7.29z"/>
 </g>
</svg>
