<?xml version="1.0" encoding="UTF-8"?>
<!DOCTYPE svg PUBLIC "-//W3C//DTD SVG 1.1//EN" "http://www.w3.org/Graphics/SVG/1.1/DTD/svg11.dtd">
<!-- Creator: CorelDRAW 2018 (64-Bit) -->
<svg xmlns="http://www.w3.org/2000/svg" xml:space="preserve" width="1199px" height="59px" version="1.1" style="shape-rendering:geometricPrecision; text-rendering:geometricPrecision; image-rendering:optimizeQuality; fill-rule:evenodd; clip-rule:evenodd"
viewBox="0 0 1199 59.06"
 xmlns:xlink="http://www.w3.org/1999/xlink">
 <defs>
  <style type="text/css">
   <![CDATA[
    .fil0 {fill:#2B2A29;fill-rule:nonzero}
   ]]>
  </style>
 </defs>
 <g id="Layer_x0020_1">
  <metadata id="CorelCorpID_0Corel-Layer"/>
  <polygon class="fil0" points="2.86,46.23 2.86,41.23 7.86,41.23 7.86,46.23 "/>
  <path id="1" class="fil0" d="M41.61 39.08l-4.27 0c-2.5,0 -4.38,0.07 -5.64,0.2 -1.26,0.13 -1.9,0.39 -1.9,0.79 0,0.54 0.76,0.81 2.28,0.81 0.67,0 1.19,0.02 1.58,0.05 0.4,0.04 1.25,0.12 2.57,0.27 0.78,0.1 1.33,0.22 1.62,0.37 0.47,0.24 0.71,0.66 0.71,1.26 0,3.05 -1,5.25 -3,6.64 -2.19,1.51 -5.79,2.27 -10.81,2.27 -3.5,0 -6.29,-0.6 -8.36,-1.79 -2.19,-1.27 -3.29,-3.07 -3.29,-5.42 0,-1.88 0.52,-3.88 1.55,-6 0.37,-0.76 1.34,-2.4 2.93,-4.9l0.97 0.49c-0.61,1.05 -1.21,2.1 -1.81,3.14 -0.93,1.78 -1.39,3.24 -1.39,4.38 0,2 1.04,3.52 3.13,4.56 1.99,0.99 4.72,1.48 8.19,1.48 2.34,0 4.39,-0.17 6.16,-0.53 2.18,-0.44 3.28,-1.03 3.28,-1.8 0,-0.27 -0.13,-0.48 -0.37,-0.62 -0.25,-0.14 -0.66,-0.2 -1.23,-0.2 -0.45,-0.05 -1.14,-0.1 -2.08,-0.16 -0.94,-0.06 -1.56,-0.09 -1.85,-0.09 -1.03,0 -1.77,-0.13 -2.21,-0.4 -0.44,-0.27 -0.67,-0.67 -0.67,-1.21 0,-2.02 0.6,-3.67 1.79,-4.95 0.97,-1.05 2.29,-1.82 3.93,-2.33 1.24,-0.37 2.54,-0.56 3.91,-0.56l4.28 0 0 4.25zm-10.1 15.65l-2.27 2.11 -2.74 -1.75 2.2 -2.3 2.81 1.94zm-5.06 0l-2.21 2.11 -2.84 -1.75 2.27 -2.3 2.78 1.94z"/>
  <path id="2" class="fil0" d="M53.83 39.08l-13.91 0 0 -4.25 12.16 0c0,-1.91 -0.24,-3.37 -0.7,-4.38 -0.3,-0.7 -1.07,-1.7 -2.3,-3.02l1.92 -4c1.16,1.48 1.88,2.63 2.18,3.47 0.43,1.25 0.65,3.32 0.65,6.22l0 5.96zm-2.6 -22.27c0,0.42 -0.26,0.79 -0.76,1.11 -0.34,0.22 -0.86,0.44 -1.54,0.69l-4.56 1.57c0,-0.76 0.83,-1.42 2.47,-1.99 -0.51,-0.27 -0.89,-0.52 -1.15,-0.76 -0.34,-0.32 -0.52,-0.64 -0.52,-0.99 0,-0.5 0.44,-1.22 1.3,-2.14 0.97,-1.01 1.82,-1.52 2.55,-1.52 0.33,0 0.61,0.11 0.85,0.33 0.24,0.23 0.35,0.52 0.35,0.89 0,0.23 -0.05,0.46 -0.15,0.7 -0.09,0.24 -0.23,0.51 -0.41,0.8 -0.5,-0.45 -1.05,-0.67 -1.64,-0.67 -0.36,0 -0.72,0.07 -1.07,0.22 -0.35,0.15 -0.53,0.31 -0.53,0.51 0,0.24 0.38,0.57 1.14,0.99 0.76,0.42 1.4,0.63 1.93,0.63 0.36,0 0.62,-0.01 0.78,-0.03 0.15,-0.03 0.47,-0.14 0.96,-0.34z"/>
  <path id="3" class="fil0" d="M65.34 39.08l-3.44 0c-1.12,0 -2.01,-0.45 -2.67,-1.34 -0.6,-0.78 -1.05,-1.94 -1.35,-3.49 -0.3,-1.54 -0.53,-3.44 -0.7,-5.71 -0.1,-1.83 -0.2,-3.72 -0.3,-5.66 -0.1,-1.93 -0.25,-3.4 -0.41,-4.4 -0.18,-1 -0.41,-1.82 -0.7,-2.45 -0.35,-0.78 -0.85,-1.47 -1.49,-2.05l2.98 -4.75c0.65,1.95 1.11,4.28 1.37,7 0.17,1.7 0.34,5.7 0.5,12.01 0.3,2.9 0.72,4.75 1.28,5.57 0.46,0.68 0.96,1.02 1.49,1.02l3.44 0 0 4.25z"/>
  <path id="4" class="fil0" d="M77.51 39.08l-13.9 0 0 -4.25 12.15 0c0,-1.91 -0.23,-3.37 -0.69,-4.38 -0.31,-0.7 -1.08,-1.7 -2.31,-3.02l1.93 -4c1.15,1.48 1.88,2.63 2.17,3.47 0.43,1.25 0.65,3.32 0.65,6.22l0 5.96zm-2 -22.58l-1.88 3.53 -3.92 -2.04 1.79 -3.56 4.01 2.07z"/>
  <path id="5" class="fil0" d="M104.02 39.08l-28.2 0 0 -4.25 19.9 0c-1.66,-1.29 -3.06,-2.29 -4.2,-3.01 -1.42,-0.9 -2.71,-1.55 -3.88,-1.95 -1.32,-0.46 -2.65,-0.69 -4,-0.69 -0.84,0 -1.67,0.06 -2.52,0.18 0.47,-1.2 1.09,-2.17 1.86,-2.9 1.1,-1.05 2.5,-1.58 4.2,-1.58 1.66,0 3.62,0.82 5.88,2.44 1.12,0.81 2.95,2.36 5.5,4.64 1.96,1.76 3.3,2.72 4,2.87l1.46 0 0 4.25zm-12.45 5.27l-1.88 3.53 -3.92 -2.04 1.79 -3.56 4.01 2.07z"/>
  <path id="6" class="fil0" d="M114.37 39.08l-12.06 0 0 -4.25 9.61 0 -3 -20.77 -1.26 -0.6c0,-1.11 0.1,-2.16 0.3,-3.15 0.2,-0.97 0.49,-1.93 0.88,-2.85l0.38 0.27c0,0.94 0.53,1.65 1.6,2.12 0.82,0.33 1.65,0.65 2.5,0.98 0,0.81 -0.07,1.67 -0.2,2.58 -0.13,0.93 -0.29,1.61 -0.47,2.06l-1.18 -0.39 2.9 19.21 0 4.79z"/>
  <path id="7" class="fil0" d="M122.62 32.85c0,1.3 -0.25,2.57 -0.72,3.78 -0.25,0.65 -0.78,1.69 -1.61,3.1l-0.44 -0.24c0.06,-0.47 0.11,-1.02 0.15,-1.64 0.04,-0.62 0.07,-1.03 0.07,-1.24 0,-1.69 -0.14,-4.06 -0.4,-7.09 -0.28,-3.04 -0.6,-6.21 -0.97,-9.52 -0.23,-1.99 -0.48,-4.04 -0.76,-6.12 0.33,-0.72 0.7,-1.48 1.12,-2.32 0.41,-0.82 0.81,-1.6 1.18,-2.33 0.26,1.85 0.59,4.39 0.99,7.61 0.4,3.22 0.72,6.12 0.95,8.72 0.29,3.21 0.44,5.65 0.44,7.29z"/>
  <path id="8" class="fil0" d="M163.91 36.04c0,2.6 -0.6,4.68 -1.82,6.2 -1.09,1.35 -2.69,2.33 -4.81,2.91 -1.78,0.49 -4.05,0.73 -6.8,0.73 -3.13,0 -5.57,-0.57 -7.29,-1.73 -1.89,-1.27 -2.83,-3.16 -2.83,-5.68 0,-1.4 0.21,-2.85 0.62,-4.37 0.34,-1.28 0.87,-2.69 1.57,-4.22 0.5,-1.11 1.2,-2.44 2.06,-4l0.85 0.46c-0.61,1.09 -1.13,2.07 -1.55,2.93 -0.55,1.15 -0.96,2.18 -1.22,3.09 -0.32,1.1 -0.48,2.17 -0.48,3.21 0,2 0.73,3.5 2.19,4.53 1.45,1.03 3.46,1.53 6.05,1.53 2.74,0 5.28,-0.47 7.61,-1.41 2.57,-1.05 3.85,-2.29 3.85,-3.74 0,-1.57 -0.24,-4.25 -0.74,-8.02 -0.38,-2.9 -0.85,-6.14 -1.41,-9.72l-0.8 -4.74 -1.1 -0.58c0,-2.18 0.45,-4.17 1.33,-5.96l0.42 0c0.07,0.62 0.18,1.08 0.34,1.38 0.16,0.3 0.43,0.52 0.8,0.67 0.5,0.21 1.04,0.46 1.63,0.76 0.43,0.21 0.82,0.39 1.14,0.56 0,1.14 -0.05,1.97 -0.13,2.49 -0.07,0.53 -0.24,1.25 -0.48,2.2l-1.39 -0.44c0.03,0.36 0.26,1.99 0.69,4.91 0.51,3.4 0.88,6.17 1.12,8.28 0.39,3.39 0.58,5.98 0.58,7.77z"/>
  <path id="9" class="fil0" d="M190.44 39.08l-28.21 0 0 -4.25 19.9 0c-1.65,-1.29 -3.05,-2.29 -4.2,-3.01 -1.41,-0.9 -2.7,-1.55 -3.88,-1.95 -1.32,-0.46 -2.65,-0.69 -4,-0.69 -0.83,0 -1.67,0.06 -2.52,0.18 0.48,-1.2 1.09,-2.17 1.86,-2.9 1.1,-1.05 2.5,-1.58 4.2,-1.58 1.66,0 3.62,0.82 5.89,2.44 1.11,0.81 2.95,2.36 5.49,4.64 1.97,1.76 3.3,2.72 4,2.87l1.47 0 0 4.25zm-12.46 5.27l-1.88 3.53 -3.92 -2.04 1.8 -3.56 4 2.07z"/>
  <path id="10" class="fil0" d="M216.98 39.08l-1.87 0c-1.03,0 -1.91,-0.14 -2.65,-0.42 -0.75,-0.28 -1.43,-0.69 -2.05,-1.21 -0.76,0.6 -1.43,1 -2,1.19 -0.84,0.29 -1.98,0.44 -3.44,0.44l-1.59 0c-0.85,0 -1.7,-0.16 -2.55,-0.49 -0.55,-0.21 -1.24,-0.56 -2.06,-1.05 -0.78,0.59 -1.5,0.99 -2.15,1.21 -0.65,0.23 -1.71,0.33 -3.18,0.33l-4.71 0 0 -4.25 4.72 0c1.32,0 2.27,-0.11 2.84,-0.34 0.95,-0.37 1.42,-1.12 1.42,-2.24 0,-0.48 -0.02,-0.95 -0.07,-1.42 -0.04,-0.47 -0.14,-1 -0.26,-1.58l0.97 -1.47c0.46,1.5 0.84,2.58 1.14,3.27 0.52,1.19 1.1,2.08 1.71,2.68 0.76,0.74 1.66,1.1 2.71,1.1l1.65 0c1.24,0 2.14,-0.18 2.74,-0.56 0.65,-0.42 0.98,-1.1 0.98,-2.02 0,-0.51 -0.03,-0.99 -0.09,-1.47 -0.07,-0.47 -0.15,-0.98 -0.26,-1.53l0.98 -1.47 0.5 2.3c0.45,1.81 0.98,3.07 1.61,3.77 0.56,0.62 1.3,0.93 2.25,0.93 0.44,0 0.79,-0.13 1.06,-0.41 0.27,-0.26 0.4,-0.61 0.4,-1.04 0,-0.91 -0.33,-1.88 -1,-2.9 -0.12,-0.16 -0.52,-0.7 -1.2,-1.6l1.58 -2.65c0.65,1.01 1.1,1.88 1.35,2.62 0.35,1.11 0.52,2.58 0.52,4.42l0 5.86z"/>
  <path id="11" class="fil0" d="M227.32 39.08l-12.05 0 0 -4.25 9.6 0 -3 -20.77 -1.25 -0.6c0,-1.11 0.1,-2.16 0.29,-3.15 0.21,-0.97 0.5,-1.93 0.89,-2.85l0.37 0.27c0,0.94 0.54,1.65 1.61,2.12 0.82,0.33 1.65,0.65 2.49,0.98 0,0.81 -0.06,1.67 -0.2,2.58 -0.12,0.93 -0.28,1.61 -0.46,2.06l-1.19 -0.39 2.9 19.21 0 4.79z"/>
  <path id="12" class="fil0" d="M235.58 32.85c0,1.3 -0.25,2.57 -0.72,3.78 -0.25,0.65 -0.78,1.69 -1.61,3.1l-0.44 -0.24c0.06,-0.47 0.11,-1.02 0.15,-1.64 0.04,-0.62 0.07,-1.03 0.07,-1.24 0,-1.69 -0.14,-4.06 -0.41,-7.09 -0.27,-3.04 -0.59,-6.21 -0.96,-9.52 -0.24,-1.99 -0.48,-4.04 -0.76,-6.12 0.33,-0.72 0.7,-1.48 1.12,-2.32 0.41,-0.82 0.81,-1.6 1.18,-2.33 0.26,1.85 0.59,4.39 0.99,7.61 0.4,3.22 0.72,6.12 0.94,8.72 0.3,3.21 0.45,5.65 0.45,7.29z"/>
  <path id="13" class="fil0" d="M291.03 39.08l-22.41 0c-3.43,0 -6.21,-0.21 -8.31,-0.63 -2.5,-0.51 -4.41,-1.34 -5.69,-2.52 -1.4,-1.26 -2.1,-2.99 -2.1,-5.17 0,-1.45 0.43,-3.14 1.27,-5.08 0.61,-1.32 1.06,-2.3 1.36,-2.95l0.97 0.56c-0.71,1.42 -1.17,2.49 -1.41,3.23 -0.22,0.75 -0.34,1.42 -0.34,2.02 0,2.14 1.18,3.73 3.52,4.76 2.34,1.02 6.07,1.53 11.18,1.53l18 0c-1.9,-0.52 -3.3,-1.12 -4.2,-1.81 -1.03,-0.78 -1.55,-1.76 -1.55,-2.91 0,-1.52 0.51,-3.14 1.52,-4.87 1.14,-1.94 2.4,-2.91 3.78,-2.91 1.62,0 2.79,0.95 3.51,2.86 0.6,1.6 0.9,3.88 0.9,6.83l0 7.06zm-2.55 -7.4c0,-1.41 -0.15,-2.52 -0.46,-3.28 -0.38,-0.91 -0.95,-1.37 -1.71,-1.37 -0.55,0 -0.97,0.17 -1.24,0.5 -0.26,0.34 -0.4,0.81 -0.4,1.41 0,0.8 0.34,1.4 1.01,1.81 0.48,0.3 1.41,0.61 2.8,0.93zm-2.46 -17.43l-1.88 3.53 -3.92 -2.04 1.8 -3.56 4 2.07z"/>
  <path id="14" class="fil0" d="M303.2 39.08l-13.9 0 0 -4.25 12.15 0c0,-1.91 -0.23,-3.37 -0.69,-4.38 -0.31,-0.7 -1.07,-1.7 -2.31,-3.02l1.93 -4c1.16,1.48 1.88,2.63 2.17,3.47 0.44,1.25 0.65,3.32 0.65,6.22l0 5.96zm-0.25 4.8l-1.8 3.55 -4 -2.05 1.85 -3.55 3.95 2.05zm-5.55 2.25l-1.81 3.51 -3.99 -2.08 1.89 -3.53 3.91 2.1z"/>
  <path id="15" class="fil0" d="M329.77 39.08l-1.87 0c-1.03,0 -1.92,-0.14 -2.66,-0.42 -0.75,-0.28 -1.43,-0.69 -2.04,-1.21 -0.77,0.6 -1.44,1 -2.01,1.19 -0.83,0.29 -1.98,0.44 -3.43,0.44l-1.6 0c-0.85,0 -1.7,-0.16 -2.55,-0.49 -0.55,-0.21 -1.24,-0.56 -2.06,-1.05 -0.78,0.59 -1.5,0.99 -2.15,1.21 -0.65,0.23 -1.7,0.33 -3.17,0.33l-4.72 0 0 -4.25 4.73 0c1.31,0 2.26,-0.11 2.84,-0.34 0.94,-0.37 1.42,-1.12 1.42,-2.24 0,-0.48 -0.03,-0.95 -0.08,-1.42 -0.04,-0.47 -0.13,-1 -0.26,-1.58l0.98 -1.47c0.46,1.5 0.83,2.58 1.13,3.27 0.53,1.19 1.1,2.08 1.72,2.68 0.76,0.74 1.66,1.1 2.71,1.1l1.65 0c1.23,0 2.14,-0.18 2.73,-0.56 0.65,-0.42 0.98,-1.1 0.98,-2.02 0,-0.51 -0.03,-0.99 -0.09,-1.47 -0.07,-0.47 -0.15,-0.98 -0.26,-1.53l0.98 -1.47 0.51 2.3c0.44,1.81 0.97,3.07 1.61,3.77 0.55,0.62 1.3,0.93 2.25,0.93 0.43,0 0.79,-0.13 1.05,-0.41 0.27,-0.26 0.4,-0.61 0.4,-1.04 0,-0.91 -0.33,-1.88 -1,-2.9 -0.11,-0.16 -0.51,-0.7 -1.2,-1.6l1.58 -2.65c0.66,1.01 1.11,1.88 1.35,2.62 0.35,1.11 0.53,2.58 0.53,4.42l0 5.86zm-7.01 -26.51l-1.88 3.56 -3.92 -2.09 1.81 -3.56 3.99 2.09zm4.75 4.34l-1.88 3.52 -3.92 -2.1 1.82 -3.5 3.98 2.08zm-5.55 2.22l-1.85 3.55 -3.95 -2.05 1.8 -3.55 4 2.05z"/>
  <path id="16" class="fil0" d="M354.21 39.07c0,1.8 -0.77,3.66 -2.3,5.58 -1.33,1.69 -2.99,3.15 -4.98,4.38 -1.89,1.17 -3.45,1.75 -4.67,1.75 -1.13,0 -2.33,-0.16 -3.64,-0.49 -1,-0.24 -2.19,-0.63 -3.57,-1.16 -1.17,-0.44 -2.33,-0.88 -3.49,-1.32l0.41 -0.98c1.08,0.22 2.2,0.44 3.36,0.66 1.17,0.23 2.23,0.34 3.17,0.34 2.08,0 4.26,-0.66 6.53,-2 2.05,-1.22 3.8,-2.76 5.26,-4.63 1.44,-1.87 2.17,-3.54 2.17,-5.04 0,-1.29 -0.37,-2.64 -1.12,-4.06 -0.6,-1.14 -1.45,-2.31 -2.53,-3.52l1.37 -3.85c1.34,1.24 2.32,2.48 2.96,3.72 0.71,1.4 1.07,2.96 1.07,4.69l0 5.93z"/>
  <path id="17" class="fil0" d="M362.45 32.85c0,1.3 -0.24,2.57 -0.71,3.78 -0.25,0.65 -0.79,1.69 -1.61,3.1l-0.44 -0.24c0.05,-0.47 0.1,-1.02 0.15,-1.64 0.04,-0.62 0.06,-1.03 0.06,-1.24 0,-1.69 -0.13,-4.06 -0.4,-7.09 -0.27,-3.04 -0.59,-6.21 -0.96,-9.52 -0.24,-1.99 -0.49,-4.04 -0.76,-6.12 0.32,-0.72 0.7,-1.48 1.11,-2.32 0.42,-0.82 0.81,-1.6 1.19,-2.33 0.26,1.85 0.59,4.39 0.99,7.61 0.4,3.22 0.72,6.12 0.94,8.72 0.29,3.21 0.44,5.65 0.44,7.29zm0.7 -26.59c0,0.42 -0.25,0.79 -0.75,1.11 -0.35,0.22 -0.86,0.44 -1.55,0.68l-4.55 1.58c0,-0.76 0.83,-1.42 2.47,-1.99 -0.51,-0.27 -0.89,-0.52 -1.15,-0.76 -0.34,-0.32 -0.52,-0.64 -0.52,-0.99 0,-0.5 0.44,-1.22 1.3,-2.14 0.97,-1.01 1.82,-1.52 2.55,-1.52 0.33,0 0.61,0.11 0.85,0.33 0.24,0.23 0.35,0.52 0.35,0.88 0,0.24 -0.05,0.47 -0.15,0.71 -0.09,0.24 -0.23,0.51 -0.41,0.8 -0.5,-0.45 -1.05,-0.67 -1.65,-0.67 -0.35,0 -0.71,0.07 -1.06,0.21 -0.35,0.15 -0.53,0.32 -0.53,0.51 0,0.24 0.38,0.58 1.14,0.99 0.75,0.43 1.4,0.64 1.93,0.64 0.36,0 0.62,-0.01 0.77,-0.03 0.15,-0.03 0.48,-0.14 0.96,-0.34z"/>
  <path id="18" class="fil0" d="M407.85 39.08l-4.27 0c-2.5,0 -4.38,0.07 -5.64,0.2 -1.26,0.13 -1.89,0.39 -1.89,0.79 0,0.54 0.76,0.81 2.28,0.81 0.66,0 1.19,0.02 1.58,0.05 0.39,0.04 1.25,0.12 2.57,0.27 0.78,0.1 1.32,0.22 1.61,0.37 0.48,0.24 0.71,0.66 0.71,1.26 0,3.05 -1,5.25 -3,6.64 -2.18,1.51 -5.78,2.27 -10.81,2.27 -3.5,0 -6.28,-0.6 -8.35,-1.79 -2.19,-1.27 -3.29,-3.07 -3.29,-5.42 0,-1.88 0.51,-3.88 1.55,-6 0.37,-0.76 1.34,-2.4 2.92,-4.9l0.98 0.49c-0.62,1.05 -1.22,2.1 -1.82,3.14 -0.92,1.78 -1.38,3.24 -1.38,4.38 0,2 1.04,3.52 3.12,4.56 2,0.99 4.72,1.48 8.2,1.48 2.33,0 4.38,-0.17 6.16,-0.53 2.18,-0.44 3.27,-1.03 3.27,-1.8 0,-0.27 -0.12,-0.48 -0.36,-0.62 -0.26,-0.14 -0.66,-0.2 -1.24,-0.2 -0.44,-0.05 -1.13,-0.1 -2.07,-0.16 -0.95,-0.06 -1.56,-0.09 -1.85,-0.09 -1.04,0 -1.77,-0.13 -2.21,-0.4 -0.44,-0.27 -0.67,-0.67 -0.67,-1.21 0,-2.02 0.59,-3.67 1.78,-4.95 0.98,-1.05 2.3,-1.82 3.94,-2.33 1.23,-0.37 2.54,-0.56 3.91,-0.56l4.27 0 0 4.25zm-10.1 15.65l-2.27 2.11 -2.73 -1.75 2.19 -2.3 2.81 1.94zm-5.05 0l-2.22 2.11 -2.83 -1.75 2.27 -2.3 2.78 1.94z"/>
  <path id="19" class="fil0" d="M421.27 39.08l-15.1 0 0 -4.25 13 0c0,-1.45 -0.17,-2.81 -0.51,-4.08 -0.84,0.28 -1.49,0.47 -1.94,0.59 -0.75,0.19 -1.41,0.29 -1.97,0.29 -1.18,0 -2.15,-0.3 -2.89,-0.9 -0.86,-0.68 -1.29,-1.66 -1.29,-2.95 0,-2.26 0.41,-4.23 1.22,-5.92 0.9,-1.89 2.1,-2.83 3.56,-2.83 1.98,0 3.5,1.55 4.58,4.66 0.89,2.57 1.34,5.58 1.34,9.05l0 6.34zm-4 -12.7c-0.22,-0.59 -0.59,-1.18 -1.09,-1.78 -0.68,-0.81 -1.34,-1.22 -1.95,-1.22 -0.44,0 -0.8,0.18 -1.09,0.55 -0.28,0.37 -0.42,0.8 -0.42,1.3 0,1.3 0.72,1.95 2.14,1.95 0.38,0 0.78,-0.07 1.19,-0.21 0.43,-0.15 0.83,-0.35 1.22,-0.59zm0.7 -14.38l-1.88 3.53 -3.92 -2.04 1.79 -3.56 4.01 2.07z"/>
  <path id="20" class="fil0" d="M451.99 39.08l-10.91 0c-0.92,0 -1.76,-0.26 -2.5,-0.81 -0.73,-0.53 -1.11,-1.16 -1.11,-1.9 0,-0.61 0.04,-1.17 0.1,-1.68 0.07,-0.5 0.19,-1.06 0.37,-1.66l0.5 0c0.18,0.67 0.51,1.14 0.98,1.44 0.39,0.24 0.93,0.36 1.61,0.36l9.46 0c0,-2.91 -0.41,-5.26 -1.22,-7.03 -1.02,-2.21 -2.71,-3.69 -5.08,-4.42l0.38 -4.75c2.82,1.38 4.82,3.59 6,6.63 0.95,2.44 1.42,5.63 1.42,9.57l0 4.25z"/>
  <path id="21" class="fil0" d="M464.21 39.08l-13.9 0 0 -4.25 12.15 0c0,-1.91 -0.23,-3.37 -0.69,-4.38 -0.31,-0.7 -1.08,-1.7 -2.31,-3.02l1.92 -4c1.16,1.48 1.89,2.63 2.18,3.47 0.43,1.25 0.65,3.32 0.65,6.22l0 5.96zm-0.25 4.8l-1.8 3.55 -4 -2.05 1.85 -3.55 3.95 2.05zm-5.55 2.25l-1.81 3.51 -3.99 -2.08 1.88 -3.53 3.92 2.1z"/>
  <path id="22" class="fil0" d="M477.62 39.08l-15.1 0 0 -4.25 13 0c0,-1.45 -0.17,-2.81 -0.51,-4.08 -0.84,0.28 -1.49,0.47 -1.94,0.59 -0.75,0.19 -1.41,0.29 -1.98,0.29 -1.17,0 -2.14,-0.3 -2.88,-0.9 -0.86,-0.68 -1.29,-1.66 -1.29,-2.95 0,-2.26 0.41,-4.23 1.22,-5.92 0.9,-1.89 2.1,-2.83 3.55,-2.83 1.99,0 3.51,1.55 4.59,4.66 0.89,2.57 1.34,5.58 1.34,9.05l0 6.34zm-4 -12.7c-0.23,-0.59 -0.59,-1.18 -1.09,-1.78 -0.69,-0.81 -1.34,-1.22 -1.95,-1.22 -0.44,0 -0.8,0.18 -1.09,0.55 -0.28,0.37 -0.42,0.8 -0.42,1.3 0,1.3 0.72,1.95 2.14,1.95 0.38,0 0.78,-0.07 1.19,-0.21 0.43,-0.15 0.83,-0.35 1.22,-0.59zm3.1 -15.1l-1.8 3.55 -4 -2.05 1.85 -3.55 3.95 2.05zm-5.55 2.25l-1.81 3.5 -3.99 -2.07 1.88 -3.53 3.92 2.1z"/>
  <path id="23" class="fil0" d="M504.54 31.85c0,2.3 -0.37,4.03 -1.12,5.19 -1.15,1.79 -3.27,2.69 -6.34,2.69 -1.18,0 -2.16,-0.23 -2.95,-0.71 -0.89,-0.54 -1.34,-1.3 -1.34,-2.3 0,-1.14 0.28,-2.45 0.86,-3.95 0.52,-1.27 1.05,-2.56 1.59,-3.84l-0.37 -0.1 1.49 -4.15c2.94,1.55 4.7,2.53 5.26,2.93 1.95,1.38 2.92,2.79 2.92,4.24zm-2.1 1.91c0,-0.62 -0.89,-1.44 -2.68,-2.46 -0.77,-0.44 -1.59,-0.88 -2.47,-1.29 -0.73,0.79 -1.17,1.29 -1.32,1.48 -0.45,0.63 -0.68,1.23 -0.68,1.81 0,0.82 0.23,1.47 0.69,1.94 0.47,0.46 1.09,0.69 1.88,0.69 0.91,0 1.9,-0.26 2.97,-0.76 1.08,-0.52 1.61,-0.99 1.61,-1.41z"/>
  <path id="24" class="fil0" d="M525.52 26.3c0,0.32 -0.02,0.6 -0.05,0.82 -0.03,0.24 -0.11,0.52 -0.24,0.86 -0.91,-2.03 -2.26,-4.12 -4.05,-6.29 -1.99,-2.38 -3.55,-3.58 -4.68,-3.58 -0.25,0 -0.49,0.21 -0.73,0.64 -0.24,0.42 -0.53,0.63 -0.85,0.63 -0.44,0 -1.13,-0.28 -2.08,-0.86 -1.18,-0.71 -2.14,-1.55 -2.85,-2.49 -0.96,-1.28 -1.44,-2.63 -1.44,-4.06 0,-1.02 0.33,-1.54 1,-1.54 1.17,0 3,0.74 5.48,2.22 2.79,1.65 5.12,3.56 7.01,5.76 2.32,2.69 3.48,5.31 3.48,7.89zm10.13 12.78l-1.5 0c-1.37,0 -2.47,-0.74 -3.31,-2.21 -1,-1.79 -1.5,-4.5 -1.5,-8.11 0,-0.26 -0.03,-0.61 -0.09,-1.05 -0.06,-0.44 -0.08,-0.71 -0.08,-0.83 -1.56,4.34 -2.95,7.31 -4.17,8.92 -1.44,1.88 -3.47,3.13 -6.11,3.75 -2.24,0.52 -6.05,0.78 -11.44,0.78l0 -0.7c4.37,-1.31 7.62,-2.45 9.76,-3.41 3.45,-1.53 6.08,-3.29 7.86,-5.29 2.16,-2.4 3.23,-5.25 3.23,-8.55 0,-1.59 -0.1,-3.08 -0.3,-4.46 -0.2,-1.38 -0.47,-2.8 -0.82,-4.24l0.8 -2.07c0.32,-0.8 0.62,-1.47 0.9,-2.03 0.42,2.34 0.83,4.87 1.21,7.58 0.26,1.88 0.51,3.89 0.76,6.04 0.31,2.63 0.59,4.75 0.81,6.37 0.29,2.05 0.73,3.5 1.33,4.39 0.39,0.58 0.78,0.87 1.17,0.87l1.49 0 0 4.25z"/>
  <path id="25" class="fil0" d="M559.14 31.43l-1.68 4.45c-2.46,0.9 -5.3,1.66 -8.53,2.28 -3.23,0.61 -6.2,0.92 -8.92,0.92l-6.07 0 0 -4.25 5.85 0c-0.48,-0.76 -0.86,-1.63 -1.16,-2.6 -0.29,-0.97 -0.44,-1.91 -0.44,-2.81 0,-1.92 0.8,-3.54 2.4,-4.84 1.61,-1.3 3.67,-1.95 6.19,-1.95 2,0 3.65,0.48 4.95,1.46 0.56,0.41 1.49,1.4 2.81,2.99l-0.47 0.4c-1.11,-0.3 -2.12,-0.52 -3.01,-0.67 -0.9,-0.15 -1.82,-0.23 -2.78,-0.23 -2.24,0 -4,0.25 -5.27,0.74 -1.28,0.5 -1.92,1.15 -1.92,1.97 0,0.79 0.4,1.68 1.21,2.67 0.8,0.98 1.83,1.86 3.11,2.62 2.66,-0.41 4.85,-0.81 6.56,-1.19 1.7,-0.39 4.1,-1.04 7.17,-1.96z"/>
  <path id="26" class="fil0" d="M570.18 32.85c0,1.3 -0.24,2.57 -0.71,3.78 -0.25,0.65 -0.79,1.69 -1.61,3.1l-0.44 -0.24c0.06,-0.47 0.11,-1.02 0.15,-1.64 0.04,-0.62 0.06,-1.03 0.06,-1.24 0,-1.69 -0.13,-4.06 -0.4,-7.09 -0.27,-3.04 -0.59,-6.21 -0.96,-9.52 -0.24,-1.99 -0.49,-4.04 -0.76,-6.12 0.32,-0.72 0.7,-1.48 1.11,-2.32 0.42,-0.82 0.81,-1.6 1.19,-2.33 0.26,1.85 0.59,4.39 0.99,7.61 0.4,3.22 0.72,6.12 0.94,8.72 0.29,3.21 0.44,5.65 0.44,7.29zm0.7 -26.59c0,0.42 -0.25,0.79 -0.75,1.11 -0.35,0.22 -0.86,0.44 -1.55,0.68l-4.55 1.58c0,-0.76 0.83,-1.42 2.47,-1.99 -0.51,-0.27 -0.89,-0.52 -1.15,-0.76 -0.34,-0.32 -0.52,-0.64 -0.52,-0.99 0,-0.5 0.44,-1.22 1.3,-2.14 0.97,-1.01 1.82,-1.52 2.55,-1.52 0.33,0 0.61,0.11 0.85,0.33 0.24,0.23 0.35,0.52 0.35,0.88 0,0.24 -0.05,0.47 -0.15,0.71 -0.09,0.24 -0.23,0.51 -0.41,0.8 -0.5,-0.45 -1.05,-0.67 -1.64,-0.67 -0.36,0 -0.72,0.07 -1.07,0.21 -0.35,0.15 -0.53,0.32 -0.53,0.51 0,0.24 0.38,0.58 1.14,0.99 0.76,0.43 1.4,0.64 1.93,0.64 0.36,0 0.62,-0.01 0.78,-0.03 0.15,-0.03 0.47,-0.14 0.95,-0.34z"/>
  <path id="27" class="fil0" d="M604.93 39.08l-3.49 0c-1.17,0 -2.2,-1 -3.1,-2.99 -0.67,-1.5 -1.2,-3.42 -1.61,-5.77 -0.48,0.9 -1.11,1.6 -1.85,2.11 -0.75,0.5 -1.54,0.75 -2.37,0.75 -1.86,0 -3.42,-0.12 -4.66,-0.37 -1.25,-0.26 -1.87,-0.58 -1.87,-0.97 0,-1.4 0.91,-2.95 2.72,-4.65 1.81,-1.7 4.08,-3.19 6.8,-4.46 -0.03,-0.13 -0.1,-0.47 -0.2,-1.02 -0.11,-0.55 -0.17,-0.9 -0.17,-1.02 0,-0.56 0.19,-1.18 0.57,-1.85 0.32,-0.56 0.74,-1.13 1.26,-1.71 0.16,1.01 0.33,1.98 0.5,2.93 0.17,0.94 0.36,1.91 0.6,2.92l0.72 4.19c0.41,2.31 0.78,4.02 1.1,5.13 0.51,1.69 1.03,2.53 1.57,2.53l3.48 0 0 4.25zm-8.52 -10.89l-0.48 -2.66c-1.4,0.51 -2.51,1.03 -3.32,1.58 -0.81,0.54 -1.48,1.26 -2.03,2.16 0.34,0.15 0.73,0.26 1.19,0.34 0.45,0.08 1.08,0.12 1.87,0.12 0.96,0 1.89,-0.51 2.77,-1.54z"/>
  <path id="28" class="fil0" d="M617.13 39.08l-13.9 0 0 -4.25 12.15 0c0,-1.91 -0.23,-3.37 -0.69,-4.38 -0.31,-0.7 -1.07,-1.7 -2.31,-3.02l1.93 -4c1.16,1.48 1.88,2.63 2.17,3.47 0.44,1.25 0.65,3.32 0.65,6.22l0 5.96zm-0.15 -24.15l-1.8 3.55 -4 -2.05 1.85 -3.55 3.95 2.05zm-5.55 2.25l-1.81 3.5 -3.99 -2.07 1.88 -3.53 3.92 2.1z"/>
  <path id="29" class="fil0" d="M629.34 39.08l-13.9 0 0 -4.25 12.15 0c0,-1.91 -0.23,-3.37 -0.69,-4.38 -0.31,-0.7 -1.07,-1.7 -2.31,-3.02l1.93 -4c1.16,1.48 1.88,2.63 2.17,3.47 0.44,1.25 0.65,3.32 0.65,6.22l0 5.96zm-0.25 4.8l-1.8 3.55 -4 -2.05 1.85 -3.55 3.95 2.05zm-5.55 2.25l-1.81 3.51 -3.99 -2.08 1.89 -3.53 3.91 2.1z"/>
  <path id="30" class="fil0" d="M650.95 37.57c0,2.7 -0.99,5.38 -2.98,8.05 -2.21,2.97 -4.77,4.47 -7.67,4.47 -1.07,0 -2.18,-0.13 -3.32,-0.37 -0.84,-0.18 -1.92,-0.49 -3.25,-0.92 -1.06,-0.37 -2.12,-0.73 -3.18,-1.09l0.42 -0.86c0.91,0.21 1.86,0.43 2.87,0.68 1,0.24 1.9,0.35 2.7,0.35 1.98,0 3.86,-0.5 5.64,-1.52 1.38,-0.81 2.77,-1.98 4.15,-3.5 0.7,-0.78 1.69,-2.03 2.97,-3.78 -2.2,0 -3.85,-0.35 -4.94,-1.06 -1.24,-0.8 -1.86,-2.11 -1.86,-3.95 0,-1.68 0.39,-3.25 1.18,-4.69 0.92,-1.66 2.07,-2.5 3.47,-2.5 1.43,0 2.45,0.83 3.07,2.49 0.49,1.29 0.73,3.09 0.73,5.4l0 2.8zm-1.55 -2.69c-0.35,-1.57 -0.79,-2.66 -1.3,-3.26 -0.43,-0.53 -0.97,-0.79 -1.61,-0.79 -0.45,0 -0.85,0.15 -1.19,0.45 -0.33,0.31 -0.5,0.69 -0.5,1.14 0,0.81 0.36,1.42 1.08,1.84 0.72,0.41 1.89,0.62 3.52,0.62z"/>
  <path id="31" class="fil0" d="M670.22 34.95c0,0.94 -0.3,1.99 -0.88,3.15 -0.63,1.26 -1.27,1.88 -1.9,1.88 -0.66,0 -1.9,-0.42 -3.72,-1.26 -1.66,-0.78 -3.08,-1.55 -4.23,-2.29 -1.89,1.07 -3.28,1.76 -4.14,2.07 -1.1,0.39 -2.4,0.58 -3.88,0.58l-2.21 0 0 -4.25 2.22 0c0.67,0 1.32,-0.05 1.94,-0.16 0.63,-0.1 1.47,-0.3 2.53,-0.57 -0.42,-0.31 -0.84,-0.63 -1.25,-0.96 -0.46,-0.41 -0.69,-0.81 -0.69,-1.2 0,-0.27 0.01,-0.48 0.04,-0.62 0.02,-0.12 0.13,-0.37 0.33,-0.73l2.41 -4.24c0.32,-0.58 0.62,-0.97 0.88,-1.19 0.27,-0.22 0.64,-0.4 1.11,-0.53 -1.12,-0.76 -1.68,-1.31 -1.68,-1.62 0,-0.33 0.35,-1.16 1.07,-2.51 0.24,-0.45 0.62,-1.13 1.12,-2.02 1.04,0.99 2.34,2.43 3.92,4.33 2,2.37 3.56,4.5 4.72,6.37 1.53,2.48 2.29,4.4 2.29,5.77zm-8.56 -5.32c0,-0.7 -0.15,-1.26 -0.44,-1.67 -0.34,-0.49 -0.88,-0.73 -1.63,-0.73 -0.75,0 -1.45,0.25 -2.1,0.75 -0.65,0.5 -0.98,1.1 -0.98,1.8 0,0.68 1,1.55 2.98,2.65 0.7,-0.46 1.22,-0.9 1.57,-1.32 0.4,-0.49 0.6,-0.99 0.6,-1.48zm5.91 5.59c0,-0.56 -0.46,-1.45 -1.39,-2.65 -0.57,-0.77 -1.27,-1.58 -2.12,-2.45 0,0.8 -0.16,1.55 -0.5,2.25 -0.32,0.7 -0.79,1.23 -1.39,1.6 0.99,0.5 1.97,1 2.97,1.48 0.82,0.36 1.4,0.53 1.74,0.53 0.19,0 0.36,-0.07 0.48,-0.21 0.14,-0.15 0.21,-0.33 0.21,-0.55z"/>
  <path id="32" class="fil0" d="M723.02 39.08l-23.29 0c-3.13,0 -5.61,-0.54 -7.47,-1.63 -2.32,-1.38 -3.49,-3.51 -3.49,-6.43 0,-1.51 0.34,-3.06 1.02,-4.64 0.25,-0.57 0.83,-1.66 1.75,-3.25l0.73 0.47c-0.36,0.75 -0.71,1.49 -1.04,2.24 -0.48,1.16 -0.71,2.19 -0.71,3.11 0,1.92 1.01,3.41 3.02,4.47 1.81,0.94 4.1,1.41 6.86,1.41l20.67 0 0 -0.66c0,-1.82 -0.21,-3.3 -0.66,-4.45 -0.44,-1.15 -1.18,-2.12 -2.24,-2.94l1.88 -4c0.72,0.89 1.16,1.46 1.3,1.68 1.12,1.83 1.67,4.49 1.67,7.97l0 6.65zm-11.5 -22.25l-1.8 3.55 -4 -2.05 1.85 -3.55 3.95 2.05zm-5.55 2.25l-1.81 3.5 -3.99 -2.07 1.88 -3.53 3.92 2.1z"/>
  <path id="33" class="fil0" d="M734.54 39.08l-3.43 0c-1.12,0 -2.01,-0.45 -2.68,-1.34 -0.59,-0.78 -1.04,-1.94 -1.34,-3.49 -0.3,-1.54 -0.53,-3.44 -0.7,-5.71 -0.1,-1.83 -0.2,-3.72 -0.31,-5.66 -0.1,-1.93 -0.24,-3.4 -0.41,-4.4 -0.17,-1 -0.4,-1.82 -0.7,-2.45 -0.35,-0.78 -0.85,-1.47 -1.48,-2.05l2.98 -4.75c0.65,1.95 1.1,4.28 1.37,7 0.17,1.7 0.33,5.7 0.5,12.01 0.29,2.9 0.72,4.75 1.28,5.57 0.46,0.68 0.95,1.02 1.49,1.02l3.43 0 0 4.25z"/>
  <path id="34" class="fil0" d="M754.22 39.08l-2.53 0c-1.1,0 -2.32,-0.25 -3.69,-0.74 -1.57,-0.57 -2.96,-1.36 -4.17,-2.36 -0.94,1.17 -1.9,1.98 -2.89,2.43 -0.98,0.45 -2.42,0.67 -4.31,0.67l-3.81 0 0 -4.25 3.73 0c1.48,0 2.8,-0.37 3.95,-1.12 0.9,-0.59 1.71,-1.41 2.44,-2.48 1,-1.43 2.22,-2.68 3.67,-3.74 1.3,-0.94 2.49,-1.55 3.58,-1.81 1.13,1.71 2.02,3.25 2.69,4.63 0.89,1.86 1.34,3.36 1.34,4.51l0 4.26zm-2.8 -4.81c-0.21,-0.95 -0.53,-1.89 -0.98,-2.8 -0.37,-0.78 -0.87,-1.57 -1.49,-2.39 -0.77,0.2 -1.43,0.57 -1.96,1.11 -0.36,0.34 -0.79,0.92 -1.27,1.74 0.58,0.64 1.41,1.21 2.47,1.72 1.06,0.51 2.07,0.82 3.01,0.93l0.22 -0.31z"/>
  <path id="35" class="fil0" d="M775.82 37.57c0,2.7 -0.99,5.38 -2.98,8.05 -2.21,2.97 -4.77,4.47 -7.67,4.47 -1.07,0 -2.18,-0.13 -3.32,-0.37 -0.84,-0.18 -1.92,-0.49 -3.26,-0.92 -1.05,-0.37 -2.11,-0.73 -3.17,-1.09l0.42 -0.86c0.91,0.21 1.86,0.43 2.86,0.68 1,0.24 1.9,0.35 2.7,0.35 1.99,0 3.87,-0.5 5.65,-1.52 1.38,-0.81 2.76,-1.98 4.15,-3.5 0.7,-0.78 1.69,-2.03 2.97,-3.78 -2.2,0 -3.85,-0.35 -4.94,-1.06 -1.24,-0.8 -1.86,-2.11 -1.86,-3.95 0,-1.68 0.39,-3.25 1.18,-4.69 0.91,-1.66 2.07,-2.5 3.47,-2.5 1.43,0 2.44,0.83 3.07,2.49 0.49,1.29 0.73,3.09 0.73,5.4l0 2.8zm-1.55 -2.69c-0.36,-1.57 -0.79,-2.66 -1.3,-3.26 -0.43,-0.53 -0.97,-0.79 -1.61,-0.79 -0.45,0 -0.86,0.15 -1.19,0.45 -0.33,0.31 -0.5,0.69 -0.5,1.14 0,0.81 0.36,1.42 1.08,1.84 0.71,0.41 1.89,0.62 3.52,0.62z"/>
  <path id="36" class="fil0" d="M786.18 39.08l-12.05 0 0 -4.25 9.6 0 -3 -20.77 -1.25 -0.6c0,-1.11 0.1,-2.16 0.29,-3.15 0.2,-0.97 0.5,-1.93 0.89,-2.85l0.37 0.27c0,0.94 0.53,1.65 1.61,2.12 0.82,0.33 1.65,0.65 2.49,0.98 0,0.81 -0.06,1.67 -0.2,2.58 -0.12,0.93 -0.28,1.61 -0.47,2.06l-1.18 -0.39 2.9 19.21 0 4.79z"/>
  <path id="37" class="fil0" d="M805.89 39.08l-3.59 0c-1.06,0 -2.12,-0.25 -3.22,-0.76 -1.3,-0.6 -2.24,-1.44 -2.82,-2.51 -1.09,0.98 -2.34,1.73 -3.74,2.27 -1.71,0.67 -3.65,1 -5.84,1l-2.2 0 0 -4.25 2.2 0c1.37,0 2.64,-0.15 3.82,-0.44 1.33,-0.33 2.65,-0.87 3.93,-1.62l-1.03 -1.31c-0.52,-0.62 -1.12,-0.93 -1.77,-0.93 -0.3,0 -0.55,0.05 -0.79,0.16 -0.22,0.11 -0.48,0.33 -0.76,0.69l-0.5 0 0 -1.44c0,-1.8 0.48,-3.03 1.42,-3.7 0.86,-0.61 2.35,-0.91 4.48,-0.91 1.84,0 3.34,0.24 4.49,0.73 1.51,0.64 2.26,1.62 2.26,2.94 0,0.7 -0.3,1.42 -0.9,2.17 -0.43,0.55 -1.23,1.32 -2.4,2.3 0.26,0.39 0.76,0.71 1.5,0.97 0.75,0.26 1.36,0.39 1.87,0.39l3.59 0 0 4.25z"/>
  <path id="38" class="fil0" d="M825.59 39.08l-2.54 0c-1.09,0 -2.31,-0.25 -3.68,-0.74 -1.58,-0.57 -2.96,-1.36 -4.17,-2.36 -0.94,1.17 -1.91,1.98 -2.89,2.43 -0.98,0.45 -2.42,0.67 -4.32,0.67l-3.8 0 0 -4.25 3.73 0c1.48,0 2.8,-0.37 3.95,-1.12 0.9,-0.59 1.71,-1.41 2.44,-2.48 0.99,-1.43 2.22,-2.68 3.67,-3.74 1.3,-0.94 2.49,-1.55 3.58,-1.81 1.13,1.71 2.02,3.25 2.69,4.63 0.89,1.86 1.34,3.36 1.34,4.51l0 4.26zm-2.8 -4.81c-0.21,-0.95 -0.54,-1.89 -0.98,-2.8 -0.37,-0.78 -0.87,-1.57 -1.49,-2.39 -0.77,0.2 -1.43,0.57 -1.97,1.11 -0.35,0.34 -0.78,0.92 -1.26,1.74 0.58,0.64 1.41,1.21 2.47,1.72 1.06,0.51 2.07,0.82 3.01,0.93l0.22 -0.31z"/>
  <path id="39" class="fil0" d="M863.94 39.07c0,1.8 -0.77,3.66 -2.3,5.58 -1.34,1.69 -3,3.15 -4.99,4.38 -1.88,1.17 -3.44,1.75 -4.67,1.75 -1.12,0 -2.33,-0.16 -3.64,-0.49 -0.99,-0.24 -2.18,-0.63 -3.57,-1.16 -1.16,-0.44 -2.33,-0.88 -3.49,-1.32l0.42 -0.98c1.07,0.22 2.19,0.44 3.36,0.66 1.16,0.23 2.22,0.34 3.16,0.34 2.09,0 4.26,-0.66 6.53,-2 2.06,-1.22 3.81,-2.76 5.26,-4.63 1.45,-1.87 2.17,-3.54 2.17,-5.04 0,-1.29 -0.37,-2.64 -1.11,-4.06 -0.6,-1.14 -1.45,-2.31 -2.54,-3.52l1.38 -3.85c1.33,1.24 2.32,2.48 2.95,3.72 0.72,1.4 1.08,2.96 1.08,4.69l0 5.93z"/>
  <path id="40" class="fil0" d="M885.53 37.57c0,2.7 -0.99,5.38 -2.98,8.05 -2.21,2.97 -4.77,4.47 -7.67,4.47 -1.08,0 -2.19,-0.13 -3.33,-0.37 -0.83,-0.18 -1.91,-0.49 -3.25,-0.92 -1.06,-0.37 -2.11,-0.73 -3.17,-1.09l0.41 -0.86c0.91,0.21 1.87,0.43 2.87,0.68 1,0.24 1.9,0.35 2.7,0.35 1.99,0 3.87,-0.5 5.64,-1.52 1.39,-0.81 2.77,-1.98 4.15,-3.5 0.71,-0.78 1.7,-2.03 2.98,-3.78 -2.2,0 -3.85,-0.35 -4.94,-1.06 -1.24,-0.8 -1.86,-2.11 -1.86,-3.95 0,-1.68 0.39,-3.25 1.17,-4.69 0.92,-1.66 2.08,-2.5 3.48,-2.5 1.43,0 2.44,0.83 3.07,2.49 0.49,1.29 0.73,3.09 0.73,5.4l0 2.8zm-1.55 -2.69c-0.36,-1.57 -0.79,-2.66 -1.3,-3.26 -0.43,-0.53 -0.98,-0.79 -1.61,-0.79 -0.46,0 -0.86,0.15 -1.19,0.45 -0.33,0.31 -0.5,0.69 -0.5,1.14 0,0.81 0.36,1.42 1.07,1.84 0.72,0.41 1.9,0.62 3.53,0.62z"/>
  <path id="41" class="fil0" d="M905.24 39.08l-21.4 0 0 -4.25 18.58 0c-1.15,-1.72 -2.45,-3.22 -3.91,-4.5 -1.47,-1.27 -3.45,-2.66 -5.94,-4.13l-0.81 0.76 -2.9 -2.2c-1.01,-0.85 -1.52,-1.5 -1.52,-1.98 0,-2.8 0.68,-5 2.06,-6.6 1.27,-1.47 3.47,-2.79 6.58,-3.96l6.91 -2.69 0 4.25 -5.11 1.71c-2.04,0.67 -3.69,1.27 -4.94,1.82 -1.6,0.7 -2.4,1.25 -2.4,1.62 0,0.37 0.52,0.95 1.57,1.73 0.65,0.49 1.31,0.97 1.97,1.46 2.48,1.87 4.64,3.84 6.48,5.88 1.98,2.2 3.57,4.47 4.78,6.83l0 4.25z"/>
  <path id="42" class="fil0" d="M922.09 39.08l-10.91 0c-0.92,0 -1.75,-0.26 -2.5,-0.81 -0.73,-0.53 -1.1,-1.16 -1.1,-1.9 0,-0.61 0.03,-1.17 0.09,-1.68 0.07,-0.5 0.2,-1.06 0.37,-1.66l0.5 0c0.19,0.67 0.51,1.14 0.98,1.44 0.39,0.24 0.93,0.36 1.61,0.36l9.46 0c0,-2.91 -0.4,-5.26 -1.22,-7.03 -1.02,-2.21 -2.71,-3.69 -5.08,-4.42l0.38 -4.75c2.82,1.38 4.82,3.59 6,6.63 0.95,2.44 1.42,5.63 1.42,9.57l0 4.25zm-6.5 -28.73l-1.88 3.53 -3.92 -2.04 1.79 -3.56 4.01 2.07z"/>
  <path id="43" class="fil0" d="M941.81 39.08l-2.53 0c-1.09,0 -2.32,-0.25 -3.68,-0.74 -1.58,-0.57 -2.96,-1.36 -4.17,-2.36 -0.94,1.17 -1.91,1.98 -2.89,2.43 -0.99,0.45 -2.43,0.67 -4.32,0.67l-3.81 0 0 -4.25 3.73 0c1.49,0 2.8,-0.37 3.95,-1.12 0.9,-0.59 1.71,-1.41 2.45,-2.48 0.99,-1.43 2.21,-2.68 3.66,-3.74 1.3,-0.94 2.5,-1.55 3.59,-1.81 1.12,1.71 2.01,3.25 2.68,4.63 0.89,1.86 1.34,3.36 1.34,4.51l0 4.26zm-2.8 -4.81c-0.21,-0.95 -0.53,-1.89 -0.97,-2.8 -0.38,-0.78 -0.88,-1.57 -1.49,-2.39 -0.78,0.2 -1.44,0.57 -1.97,1.11 -0.36,0.34 -0.78,0.92 -1.27,1.74 0.58,0.64 1.41,1.21 2.48,1.72 1.06,0.51 2.06,0.82 3.01,0.93l0.21 -0.31z"/>
  <path id="44" class="fil0" d="M952.16 39.08l-12.05 0 0 -4.25 9.6 0 -3 -20.77 -1.25 -0.6c0,-1.11 0.1,-2.16 0.29,-3.15 0.21,-0.97 0.5,-1.93 0.89,-2.85l0.37 0.27c0,0.94 0.54,1.65 1.61,2.12 0.82,0.33 1.65,0.65 2.49,0.98 0,0.81 -0.06,1.67 -0.2,2.58 -0.12,0.93 -0.28,1.61 -0.46,2.06l-1.19 -0.39 2.9 19.21 0 4.79z"/>
  <path id="45" class="fil0" d="M960.42 32.85c0,1.3 -0.25,2.57 -0.72,3.78 -0.25,0.65 -0.78,1.69 -1.61,3.1l-0.44 -0.24c0.06,-0.47 0.11,-1.02 0.15,-1.64 0.04,-0.62 0.07,-1.03 0.07,-1.24 0,-1.69 -0.14,-4.06 -0.41,-7.09 -0.27,-3.04 -0.59,-6.21 -0.96,-9.52 -0.24,-1.99 -0.48,-4.04 -0.76,-6.12 0.32,-0.72 0.7,-1.48 1.12,-2.32 0.41,-0.82 0.81,-1.6 1.18,-2.33 0.26,1.85 0.59,4.39 0.99,7.61 0.4,3.22 0.72,6.12 0.94,8.72 0.3,3.21 0.45,5.65 0.45,7.29z"/>
  <path id="46" class="fil0" d="M1031.32 39.08l-29.01 0c-0.49,3.39 -1.66,5.92 -3.51,7.61 -2.31,2.09 -5.85,3.14 -10.58,3.14 -3.26,0 -5.75,-0.56 -7.48,-1.7 -1.89,-1.26 -2.83,-3.18 -2.83,-5.77 0,-1.4 0.18,-2.82 0.52,-4.25 0.34,-1.44 0.81,-2.88 1.39,-4.33 0.37,-0.87 0.98,-2.22 1.87,-4.05l0.97 0.44c-1.13,2.35 -1.88,4.19 -2.25,5.54 -0.37,1.35 -0.55,2.58 -0.55,3.71 0,2.01 0.72,3.54 2.16,4.59 1.44,1.05 3.5,1.57 6.17,1.57 3.13,0 5.92,-0.54 8.38,-1.63 3.06,-1.34 4.59,-3.23 4.59,-5.64 0,-1.62 -0.3,-3.16 -0.9,-4.62 -0.47,-1.15 -1.14,-2.26 -2,-3.31l2.03 -5c0.8,1.33 1.34,2.51 1.62,3.54 0.4,1.44 0.6,3.41 0.6,5.91l0.45 0c1.93,0 3.73,-0.31 5.4,-0.92 1.43,-0.54 2.93,-1.39 4.51,-2.54 2.41,-1.67 3.85,-2.66 4.33,-2.97 1.33,-0.85 2.53,-1.45 3.59,-1.81 1.2,-0.41 2.53,-0.61 3.98,-0.61 2.23,0 3.9,0.64 5.01,1.93 1.02,1.19 1.54,2.86 1.54,5l0 6.17zm-3.95 -6.12c0,-0.79 -0.5,-1.41 -1.5,-1.86 -1,-0.44 -2.17,-0.67 -3.51,-0.67 -1.17,0 -2.48,0.26 -3.93,0.78 -1.02,0.37 -2.33,0.96 -3.91,1.77 -1.19,0.62 -2.36,1.24 -3.54,1.85l11.26 0c1.56,0 2.81,-0.16 3.74,-0.47 0.92,-0.32 1.39,-0.79 1.39,-1.4z"/>
  <path id="47" class="fil0" d="M1057.83 39.08l-28.2 0 0 -4.25 19.9 0c-1.66,-1.29 -3.06,-2.29 -4.2,-3.01 -1.42,-0.9 -2.71,-1.55 -3.89,-1.95 -1.31,-0.46 -2.65,-0.69 -4,-0.69 -0.83,0 -1.66,0.06 -2.51,0.18 0.47,-1.2 1.09,-2.17 1.86,-2.9 1.1,-1.05 2.5,-1.58 4.2,-1.58 1.65,0 3.61,0.82 5.88,2.44 1.12,0.81 2.95,2.36 5.49,4.64 1.97,1.76 3.3,2.72 4,2.87l1.47 0 0 4.25zm-11.75 -22.73l-1.88 3.53 -3.92 -2.04 1.79 -3.56 4.01 2.07z"/>
  <path id="48" class="fil0" d="M1084.38 39.08l-1.87 0c-1.03,0 -1.92,-0.14 -2.66,-0.42 -0.75,-0.28 -1.43,-0.69 -2.04,-1.21 -0.77,0.6 -1.44,1 -2.01,1.19 -0.83,0.29 -1.98,0.44 -3.43,0.44l-1.6 0c-0.85,0 -1.7,-0.16 -2.55,-0.49 -0.55,-0.21 -1.24,-0.56 -2.06,-1.05 -0.78,0.59 -1.5,0.99 -2.15,1.21 -0.65,0.23 -1.7,0.33 -3.17,0.33l-4.72 0 0 -4.25 4.73 0c1.31,0 2.26,-0.11 2.84,-0.34 0.94,-0.37 1.42,-1.12 1.42,-2.24 0,-0.48 -0.03,-0.95 -0.08,-1.42 -0.04,-0.47 -0.13,-1 -0.26,-1.58l0.98 -1.47c0.46,1.5 0.83,2.58 1.13,3.27 0.53,1.19 1.1,2.08 1.72,2.68 0.76,0.74 1.66,1.1 2.71,1.1l1.65 0c1.23,0 2.14,-0.18 2.73,-0.56 0.65,-0.42 0.98,-1.1 0.98,-2.02 0,-0.51 -0.03,-0.99 -0.09,-1.47 -0.06,-0.47 -0.15,-0.98 -0.26,-1.53l0.98 -1.47 0.51 2.3c0.44,1.81 0.97,3.07 1.61,3.77 0.56,0.62 1.3,0.93 2.25,0.93 0.43,0 0.79,-0.13 1.06,-0.41 0.26,-0.26 0.39,-0.61 0.39,-1.04 0,-0.91 -0.33,-1.88 -0.99,-2.9 -0.12,-0.16 -0.52,-0.7 -1.2,-1.6l1.57 -2.65c0.66,1.01 1.11,1.88 1.35,2.62 0.35,1.11 0.53,2.58 0.53,4.42l0 5.86zm-7.01 -26.51l-1.88 3.56 -3.92 -2.09 1.81 -3.56 3.99 2.09zm4.76 4.34l-1.89 3.52 -3.92 -2.1 1.82 -3.5 3.99 2.08zm-5.56 2.22l-1.85 3.55 -3.95 -2.05 1.8 -3.55 4 2.05z"/>
  <path id="49" class="fil0" d="M1094.72 39.08l-12.05 0 0 -4.25 9.6 0 -3 -20.77 -1.25 -0.6c0,-1.11 0.1,-2.16 0.29,-3.15 0.2,-0.97 0.49,-1.93 0.88,-2.85l0.38 0.27c0,0.94 0.53,1.65 1.61,2.12 0.81,0.33 1.65,0.65 2.49,0.98 0,0.81 -0.07,1.67 -0.2,2.58 -0.13,0.93 -0.28,1.61 -0.47,2.06l-1.18 -0.39 2.9 19.21 0 4.79z"/>
  <path id="50" class="fil0" d="M1105.07 39.08l-12.05 0 0 -4.25 9.6 0 -3 -20.77 -1.25 -0.6c0,-1.11 0.1,-2.16 0.29,-3.15 0.2,-0.97 0.49,-1.93 0.88,-2.85l0.38 0.27c0,0.94 0.53,1.65 1.61,2.12 0.82,0.33 1.65,0.65 2.49,0.98 0,0.81 -0.07,1.67 -0.2,2.58 -0.12,0.93 -0.28,1.61 -0.47,2.06l-1.18 -0.39 2.9 19.21 0 4.79z"/>
  <path id="51" class="fil0" d="M1135.82 39.08l-10.91 0c-0.93,0 -1.76,-0.26 -2.5,-0.81 -0.74,-0.53 -1.11,-1.16 -1.11,-1.9 0,-0.61 0.03,-1.17 0.1,-1.68 0.07,-0.5 0.19,-1.06 0.37,-1.66l0.5 0c0.18,0.67 0.5,1.14 0.97,1.44 0.39,0.24 0.93,0.36 1.62,0.36l9.46 0c0,-2.91 -0.41,-5.26 -1.23,-7.03 -1.02,-2.21 -2.71,-3.69 -5.07,-4.42l0.37 -4.75c2.83,1.38 4.83,3.59 6,6.63 0.95,2.44 1.43,5.63 1.43,9.57l0 4.25z"/>
  <path id="52" class="fil0" d="M1162.34 39.08l-28.21 0 0 -4.25 19.91 0c-1.66,-1.29 -3.06,-2.29 -4.2,-3.01 -1.42,-0.9 -2.71,-1.55 -3.89,-1.95 -1.31,-0.46 -2.65,-0.69 -4,-0.69 -0.83,0 -1.67,0.06 -2.52,0.18 0.48,-1.2 1.1,-2.17 1.86,-2.9 1.1,-1.05 2.5,-1.58 4.2,-1.58 1.66,0 3.62,0.82 5.89,2.44 1.11,0.81 2.95,2.36 5.49,4.64 1.97,1.76 3.3,2.72 4,2.87l1.47 0 0 4.25zm-12.45 5.27l-1.89 3.53 -3.92 -2.04 1.8 -3.56 4.01 2.07z"/>
  <path id="53" class="fil0" d="M1183.93 37.57c0,2.7 -0.99,5.38 -2.98,8.05 -2.21,2.97 -4.77,4.47 -7.67,4.47 -1.07,0 -2.18,-0.13 -3.33,-0.37 -0.83,-0.18 -1.91,-0.49 -3.25,-0.92 -1.05,-0.37 -2.11,-0.73 -3.17,-1.09l0.42 -0.86c0.9,0.21 1.86,0.43 2.86,0.68 1,0.24 1.9,0.35 2.7,0.35 1.99,0 3.87,-0.5 5.64,-1.52 1.39,-0.81 2.77,-1.98 4.16,-3.5 0.7,-0.78 1.69,-2.03 2.97,-3.78 -2.2,0 -3.85,-0.35 -4.94,-1.06 -1.24,-0.8 -1.86,-2.11 -1.86,-3.95 0,-1.68 0.39,-3.25 1.17,-4.69 0.92,-1.66 2.08,-2.5 3.48,-2.5 1.43,0 2.44,0.83 3.07,2.49 0.49,1.29 0.73,3.09 0.73,5.4l0 2.8zm-1.55 -2.69c-0.36,-1.57 -0.79,-2.66 -1.3,-3.26 -0.43,-0.53 -0.97,-0.79 -1.61,-0.79 -0.46,0 -0.86,0.15 -1.19,0.45 -0.33,0.31 -0.5,0.69 -0.5,1.14 0,0.81 0.36,1.42 1.08,1.84 0.71,0.41 1.89,0.62 3.52,0.62z"/>
  <path id="54" class="fil0" d="M1196.14 39.08l-13.9 0 0 -4.25 12.15 0c0,-1.91 -0.23,-3.37 -0.69,-4.38 -0.31,-0.7 -1.08,-1.7 -2.31,-3.02l1.93 -4c1.15,1.48 1.88,2.63 2.17,3.47 0.44,1.25 0.65,3.32 0.65,6.22l0 5.96zm-0.25 4.8l-1.8 3.55 -4 -2.05 1.85 -3.55 3.95 2.05zm-5.55 2.25l-1.81 3.51 -3.99 -2.08 1.88 -3.53 3.92 2.1z"/>
 </g>
</svg>
