<?xml version="1.0" encoding="UTF-8"?>
<!DOCTYPE svg PUBLIC "-//W3C//DTD SVG 1.1//EN" "http://www.w3.org/Graphics/SVG/1.1/DTD/svg11.dtd">
<!-- Creator: CorelDRAW 2018 (64-Bit) -->
<svg xmlns="http://www.w3.org/2000/svg" xml:space="preserve" width="1311px" height="59px" version="1.1" style="shape-rendering:geometricPrecision; text-rendering:geometricPrecision; image-rendering:optimizeQuality; fill-rule:evenodd; clip-rule:evenodd"
viewBox="0 0 1311 59.05"
 xmlns:xlink="http://www.w3.org/1999/xlink">
 <defs>
  <style type="text/css">
   <![CDATA[
    .fil0 {fill:#2B2A29;fill-rule:nonzero}
   ]]>
  </style>
 </defs>
 <g id="Layer_x0020_1">
  <metadata id="CorelCorpID_0Corel-Layer"/>
  <polygon class="fil0" points="4.31,46.23 4.31,41.23 9.31,41.23 9.31,46.23 "/>
  <path id="1" class="fil0" d="M43.06 39.08l-4.27 0c-2.5,0 -4.39,0.06 -5.64,0.2 -1.26,0.12 -1.9,0.39 -1.9,0.78 0,0.54 0.76,0.82 2.28,0.82 0.67,0 1.19,0.01 1.58,0.05 0.4,0.03 1.25,0.11 2.57,0.26 0.78,0.1 1.33,0.22 1.62,0.37 0.47,0.24 0.7,0.67 0.7,1.27 0,3.04 -0.99,5.25 -2.99,6.63 -2.19,1.51 -5.79,2.27 -10.81,2.27 -3.5,0 -6.29,-0.6 -8.35,-1.79 -2.19,-1.26 -3.29,-3.07 -3.29,-5.41 0,-1.89 0.51,-3.89 1.55,-6 0.36,-0.76 1.34,-2.4 2.92,-4.9l0.98 0.48c-0.62,1.05 -1.22,2.1 -1.82,3.14 -0.93,1.78 -1.38,3.24 -1.38,4.38 0,2.01 1.04,3.52 3.12,4.56 1.99,0.99 4.72,1.49 8.19,1.49 2.34,0 4.39,-0.18 6.16,-0.54 2.18,-0.44 3.27,-1.03 3.27,-1.8 0,-0.27 -0.12,-0.48 -0.36,-0.61 -0.25,-0.15 -0.66,-0.21 -1.23,-0.21 -0.45,-0.05 -1.14,-0.1 -2.08,-0.16 -0.94,-0.06 -1.56,-0.08 -1.85,-0.08 -1.03,0 -1.77,-0.14 -2.21,-0.4 -0.44,-0.28 -0.67,-0.68 -0.67,-1.21 0,-2.03 0.6,-3.68 1.79,-4.96 0.97,-1.04 2.29,-1.82 3.93,-2.32 1.24,-0.38 2.54,-0.56 3.91,-0.56l4.28 0 0 4.25zm-10.1 15.64l-2.27 2.11 -2.73 -1.75 2.19 -2.3 2.81 1.94zm-5.05 0l-2.22 2.11 -2.83 -1.75 2.26 -2.3 2.79 1.94z"/>
  <path id="2" class="fil0" d="M55.27 39.08l-13.9 0 0 -4.25 12.15 0c0,-1.92 -0.23,-3.38 -0.69,-4.39 -0.31,-0.7 -1.08,-1.7 -2.31,-3.01l1.93 -4c1.15,1.48 1.88,2.63 2.17,3.46 0.43,1.25 0.65,3.33 0.65,6.23l0 5.96zm-2.6 -22.27c0,0.42 -0.25,0.78 -0.76,1.11 -0.34,0.22 -0.86,0.44 -1.54,0.68l-4.55 1.58c0,-0.76 0.83,-1.42 2.47,-1.99 -0.51,-0.27 -0.89,-0.52 -1.15,-0.76 -0.34,-0.32 -0.52,-0.64 -0.52,-0.99 0,-0.5 0.44,-1.22 1.3,-2.14 0.97,-1.01 1.82,-1.52 2.55,-1.52 0.33,0 0.61,0.11 0.84,0.33 0.24,0.23 0.36,0.52 0.36,0.88 0,0.24 -0.05,0.47 -0.15,0.71 -0.09,0.24 -0.23,0.51 -0.41,0.8 -0.51,-0.45 -1.05,-0.67 -1.65,-0.67 -0.36,0 -0.71,0.07 -1.06,0.21 -0.35,0.15 -0.53,0.32 -0.53,0.51 0,0.24 0.38,0.58 1.14,0.99 0.75,0.43 1.39,0.64 1.93,0.64 0.36,0 0.61,-0.01 0.77,-0.04 0.15,-0.02 0.48,-0.13 0.96,-0.33z"/>
  <path id="3" class="fil0" d="M66.78 39.08l-3.43 0c-1.12,0 -2.01,-0.45 -2.68,-1.35 -0.59,-0.78 -1.04,-1.94 -1.34,-3.49 -0.3,-1.54 -0.53,-3.44 -0.7,-5.71 -0.1,-1.83 -0.2,-3.71 -0.31,-5.65 -0.1,-1.94 -0.24,-3.4 -0.41,-4.4 -0.17,-1 -0.41,-1.82 -0.7,-2.45 -0.35,-0.79 -0.85,-1.47 -1.48,-2.05l2.97 -4.75c0.65,1.95 1.11,4.28 1.38,7 0.17,1.7 0.33,5.7 0.5,12 0.29,2.9 0.72,4.76 1.27,5.57 0.46,0.69 0.96,1.03 1.5,1.03l3.43 0 0 4.25z"/>
  <path id="4" class="fil0" d="M78.95 39.08l-13.9 0 0 -4.25 12.15 0c0,-1.92 -0.23,-3.38 -0.69,-4.39 -0.31,-0.7 -1.07,-1.7 -2.31,-3.01l1.93 -4c1.16,1.48 1.88,2.63 2.17,3.46 0.44,1.25 0.65,3.33 0.65,6.23l0 5.96zm-2 -22.59l-1.88 3.54 -3.92 -2.04 1.79 -3.56 4.01 2.06z"/>
  <path id="5" class="fil0" d="M105.46 39.08l-28.2 0 0 -4.25 19.9 0c-1.66,-1.3 -3.06,-2.29 -4.2,-3.01 -1.42,-0.9 -2.71,-1.55 -3.88,-1.96 -1.32,-0.46 -2.65,-0.68 -4,-0.68 -0.84,0 -1.67,0.06 -2.52,0.17 0.48,-1.2 1.09,-2.17 1.86,-2.89 1.1,-1.06 2.5,-1.58 4.2,-1.58 1.66,0 3.62,0.81 5.88,2.44 1.12,0.81 2.95,2.36 5.49,4.63 1.97,1.77 3.3,2.73 4,2.88l1.47 0 0 4.25zm-12.45 5.26l-1.88 3.54 -3.92 -2.05 1.79 -3.55 4.01 2.06z"/>
  <path id="6" class="fil0" d="M115.8 39.08l-12.05 0 0 -4.25 9.6 0 -3 -20.77 -1.25 -0.6c0,-1.12 0.1,-2.17 0.29,-3.15 0.2,-0.97 0.5,-1.93 0.89,-2.85l0.37 0.27c0,0.94 0.53,1.65 1.61,2.12 0.82,0.33 1.65,0.65 2.49,0.98 0,0.81 -0.07,1.66 -0.2,2.58 -0.12,0.93 -0.28,1.61 -0.47,2.06l-1.18 -0.39 2.9 19.2 0 4.8z"/>
  <path id="7" class="fil0" d="M124.05 32.84c0,1.3 -0.24,2.57 -0.72,3.79 -0.24,0.65 -0.78,1.68 -1.6,3.1l-0.44 -0.25c0.05,-0.47 0.1,-1.01 0.15,-1.64 0.04,-0.61 0.06,-1.03 0.06,-1.24 0,-1.69 -0.13,-4.06 -0.4,-7.09 -0.27,-3.03 -0.59,-6.2 -0.97,-9.51 -0.23,-2 -0.48,-4.04 -0.75,-6.12 0.32,-0.72 0.7,-1.49 1.11,-2.32 0.42,-0.82 0.81,-1.6 1.19,-2.33 0.25,1.85 0.59,4.39 0.99,7.61 0.4,3.22 0.72,6.12 0.94,8.71 0.29,3.22 0.44,5.65 0.44,7.29z"/>
  <path id="8" class="fil0" d="M165.34 36.03c0,2.6 -0.61,4.68 -1.82,6.2 -1.09,1.35 -2.69,2.33 -4.81,2.91 -1.78,0.49 -4.05,0.74 -6.8,0.74 -3.13,0 -5.57,-0.58 -7.29,-1.74 -1.89,-1.26 -2.83,-3.16 -2.83,-5.68 0,-1.4 0.21,-2.85 0.62,-4.37 0.34,-1.28 0.87,-2.69 1.57,-4.21 0.51,-1.11 1.2,-2.44 2.06,-4l0.85 0.46c-0.61,1.09 -1.13,2.06 -1.55,2.92 -0.55,1.15 -0.96,2.18 -1.22,3.09 -0.32,1.1 -0.48,2.18 -0.48,3.22 0,1.99 0.73,3.5 2.19,4.52 1.45,1.03 3.46,1.54 6.05,1.54 2.74,0 5.28,-0.48 7.61,-1.42 2.57,-1.04 3.85,-2.28 3.85,-3.73 0,-1.58 -0.25,-4.25 -0.74,-8.03 -0.38,-2.9 -0.86,-6.13 -1.42,-9.71l-0.79 -4.74 -1.1 -0.58c0,-2.18 0.44,-4.17 1.33,-5.96l0.42 0c0.07,0.62 0.18,1.08 0.34,1.38 0.16,0.3 0.43,0.52 0.8,0.67 0.5,0.21 1.04,0.46 1.63,0.76 0.43,0.21 0.82,0.39 1.13,0.56 0,1.14 -0.04,1.96 -0.12,2.49 -0.08,0.52 -0.24,1.25 -0.49,2.2l-1.39 -0.44c0.04,0.36 0.27,1.99 0.7,4.91 0.51,3.4 0.88,6.16 1.12,8.28 0.39,3.38 0.58,5.97 0.58,7.76z"/>
  <path id="9" class="fil0" d="M191.86 39.08l-28.2 0 0 -4.25 19.9 0c-1.66,-1.3 -3.06,-2.29 -4.2,-3.01 -1.42,-0.9 -2.71,-1.55 -3.88,-1.96 -1.32,-0.46 -2.65,-0.68 -4,-0.68 -0.84,0 -1.67,0.06 -2.52,0.17 0.47,-1.2 1.09,-2.17 1.86,-2.89 1.1,-1.06 2.5,-1.58 4.2,-1.58 1.66,0 3.61,0.81 5.88,2.44 1.12,0.81 2.95,2.36 5.49,4.63 1.97,1.77 3.3,2.73 4,2.88l1.47 0 0 4.25zm-12.45 5.26l-1.88 3.54 -3.92 -2.05 1.79 -3.55 4.01 2.06z"/>
  <path id="10" class="fil0" d="M218.4 39.08l-1.87 0c-1.03,0 -1.91,-0.15 -2.66,-0.43 -0.75,-0.28 -1.42,-0.69 -2.04,-1.21 -0.76,0.6 -1.43,1 -2.01,1.19 -0.83,0.3 -1.97,0.45 -3.43,0.45l-1.59 0c-0.85,0 -1.7,-0.17 -2.55,-0.5 -0.55,-0.2 -1.24,-0.55 -2.06,-1.05 -0.78,0.6 -1.5,1 -2.15,1.21 -0.65,0.23 -1.71,0.34 -3.17,0.34l-4.72 0 0 -4.25 4.72 0c1.32,0 2.27,-0.12 2.85,-0.34 0.94,-0.38 1.41,-1.13 1.41,-2.25 0,-0.47 -0.02,-0.95 -0.07,-1.41 -0.04,-0.48 -0.14,-1 -0.26,-1.59l0.98 -1.46c0.45,1.5 0.83,2.58 1.13,3.26 0.52,1.2 1.1,2.09 1.72,2.69 0.75,0.73 1.65,1.1 2.7,1.1l1.65 0c1.24,0 2.14,-0.19 2.74,-0.56 0.65,-0.43 0.98,-1.1 0.98,-2.03 0,-0.51 -0.03,-0.99 -0.09,-1.46 -0.07,-0.48 -0.15,-0.99 -0.26,-1.54l0.97 -1.46 0.51 2.3c0.44,1.8 0.98,3.06 1.61,3.76 0.56,0.63 1.3,0.94 2.25,0.94 0.43,0 0.79,-0.14 1.06,-0.41 0.27,-0.27 0.4,-0.62 0.4,-1.04 0,-0.92 -0.33,-1.89 -1,-2.9 -0.12,-0.17 -0.52,-0.7 -1.2,-1.6l1.57 -2.65c0.66,1 1.11,1.88 1.35,2.61 0.35,1.11 0.53,2.59 0.53,4.42l0 5.87z"/>
  <path id="11" class="fil0" d="M228.74 39.08l-12.05 0 0 -4.25 9.6 0 -3 -20.77 -1.25 -0.6c0,-1.12 0.1,-2.17 0.29,-3.15 0.2,-0.97 0.5,-1.93 0.89,-2.85l0.37 0.27c0,0.94 0.53,1.65 1.61,2.12 0.82,0.33 1.65,0.65 2.49,0.98 0,0.81 -0.07,1.66 -0.2,2.58 -0.12,0.93 -0.28,1.61 -0.47,2.06l-1.18 -0.39 2.9 19.2 0 4.8z"/>
  <path id="12" class="fil0" d="M236.99 32.84c0,1.3 -0.24,2.57 -0.72,3.79 -0.25,0.65 -0.78,1.68 -1.6,3.1l-0.45 -0.25c0.06,-0.47 0.11,-1.01 0.15,-1.64 0.05,-0.61 0.07,-1.03 0.07,-1.24 0,-1.69 -0.13,-4.06 -0.4,-7.09 -0.27,-3.03 -0.59,-6.2 -0.97,-9.51 -0.23,-2 -0.48,-4.04 -0.75,-6.12 0.32,-0.72 0.7,-1.49 1.11,-2.32 0.42,-0.82 0.81,-1.6 1.19,-2.33 0.25,1.85 0.59,4.39 0.99,7.61 0.4,3.22 0.71,6.12 0.94,8.71 0.29,3.22 0.44,5.65 0.44,7.29z"/>
  <path id="13" class="fil0" d="M292.43 39.08l-22.4 0c-3.43,0 -6.21,-0.21 -8.31,-0.64 -2.5,-0.5 -4.4,-1.34 -5.69,-2.51 -1.4,-1.27 -2.1,-3 -2.1,-5.18 0,-1.44 0.43,-3.13 1.27,-5.07 0.61,-1.32 1.06,-2.3 1.36,-2.95l0.97 0.56c-0.71,1.41 -1.17,2.49 -1.41,3.23 -0.22,0.74 -0.34,1.41 -0.34,2.01 0,2.15 1.18,3.74 3.52,4.76 2.34,1.03 6.07,1.54 11.18,1.54l18 0c-1.91,-0.53 -3.31,-1.13 -4.21,-1.81 -1.02,-0.78 -1.54,-1.76 -1.54,-2.92 0,-1.51 0.51,-3.13 1.52,-4.87 1.14,-1.94 2.4,-2.9 3.78,-2.9 1.62,0 2.79,0.95 3.5,2.86 0.6,1.6 0.9,3.87 0.9,6.82l0 7.07zm-2.55 -7.4c0,-1.42 -0.15,-2.52 -0.46,-3.29 -0.37,-0.91 -0.95,-1.36 -1.71,-1.36 -0.54,0 -0.96,0.16 -1.23,0.5 -0.27,0.33 -0.4,0.81 -0.4,1.41 0,0.79 0.34,1.39 1,1.8 0.48,0.3 1.42,0.61 2.8,0.94zm-2.45 -17.44l-1.88 3.54 -3.92 -2.04 1.79 -3.56 4.01 2.06z"/>
  <path id="14" class="fil0" d="M304.61 39.08l-13.9 0 0 -4.25 12.15 0c0,-1.92 -0.24,-3.38 -0.69,-4.39 -0.31,-0.7 -1.08,-1.7 -2.31,-3.01l1.92 -4c1.16,1.48 1.89,2.63 2.18,3.46 0.43,1.25 0.65,3.33 0.65,6.23l0 5.96zm-0.25 4.8l-1.8 3.55 -4 -2.05 1.85 -3.55 3.95 2.05zm-5.55 2.25l-1.81 3.5 -3.99 -2.08 1.88 -3.52 3.92 2.1z"/>
  <path id="15" class="fil0" d="M331.16 39.08l-1.86 0c-1.04,0 -1.92,-0.15 -2.66,-0.43 -0.75,-0.28 -1.43,-0.69 -2.04,-1.21 -0.77,0.6 -1.43,1 -2.01,1.19 -0.83,0.3 -1.97,0.45 -3.43,0.45l-1.6 0c-0.84,0 -1.7,-0.17 -2.55,-0.5 -0.54,-0.2 -1.24,-0.55 -2.05,-1.05 -0.79,0.6 -1.5,1 -2.15,1.21 -0.65,0.23 -1.71,0.34 -3.18,0.34l-4.71 0 0 -4.25 4.72 0c1.32,0 2.27,-0.12 2.84,-0.34 0.94,-0.38 1.42,-1.13 1.42,-2.25 0,-0.47 -0.03,-0.95 -0.08,-1.41 -0.04,-0.48 -0.13,-1 -0.26,-1.59l0.98 -1.46c0.46,1.5 0.83,2.58 1.13,3.26 0.53,1.2 1.1,2.09 1.72,2.69 0.76,0.73 1.66,1.1 2.71,1.1l1.65 0c1.23,0 2.14,-0.19 2.73,-0.56 0.65,-0.43 0.99,-1.1 0.99,-2.03 0,-0.51 -0.04,-0.99 -0.1,-1.46 -0.06,-0.48 -0.15,-0.99 -0.26,-1.54l0.98 -1.46 0.51 2.3c0.44,1.8 0.97,3.06 1.61,3.76 0.55,0.63 1.3,0.94 2.25,0.94 0.43,0 0.79,-0.14 1.05,-0.41 0.27,-0.27 0.4,-0.62 0.4,-1.04 0,-0.92 -0.33,-1.89 -1,-2.9 -0.11,-0.17 -0.51,-0.7 -1.2,-1.6l1.58 -2.65c0.66,1 1.11,1.88 1.35,2.61 0.35,1.11 0.52,2.59 0.52,4.42l0 5.87zm-7 -26.51l-1.88 3.56 -3.91 -2.09 1.8 -3.56 3.99 2.09zm4.75 4.33l-1.88 3.53 -3.92 -2.1 1.82 -3.5 3.98 2.07zm-5.55 2.23l-1.84 3.55 -3.96 -2.05 1.8 -3.55 4 2.05z"/>
  <path id="16" class="fil0" d="M355.61 39.07c0,1.79 -0.77,3.65 -2.3,5.57 -1.34,1.69 -3,3.15 -4.99,4.38 -1.88,1.17 -3.44,1.76 -4.66,1.76 -1.13,0 -2.34,-0.17 -3.65,-0.5 -0.99,-0.24 -2.18,-0.63 -3.56,-1.15 -1.17,-0.45 -2.34,-0.89 -3.49,-1.33l0.41 -0.97c1.08,0.21 2.19,0.43 3.36,0.65 1.17,0.23 2.23,0.35 3.17,0.35 2.08,0 4.26,-0.67 6.52,-2 2.06,-1.23 3.81,-2.77 5.26,-4.64 1.45,-1.86 2.18,-3.54 2.18,-5.04 0,-1.29 -0.38,-2.64 -1.12,-4.06 -0.6,-1.14 -1.45,-2.31 -2.53,-3.51l1.37 -3.85c1.33,1.24 2.32,2.47 2.95,3.71 0.72,1.4 1.08,2.97 1.08,4.7l0 5.93z"/>
  <path id="17" class="fil0" d="M363.85 32.84c0,1.3 -0.24,2.57 -0.72,3.79 -0.25,0.65 -0.78,1.68 -1.61,3.1l-0.44 -0.25c0.06,-0.47 0.11,-1.01 0.15,-1.64 0.04,-0.61 0.07,-1.03 0.07,-1.24 0,-1.69 -0.14,-4.06 -0.4,-7.09 -0.28,-3.03 -0.59,-6.2 -0.97,-9.51 -0.23,-2 -0.48,-4.04 -0.76,-6.12 0.33,-0.72 0.7,-1.49 1.12,-2.32 0.42,-0.82 0.81,-1.6 1.18,-2.33 0.26,1.85 0.59,4.39 0.99,7.61 0.4,3.22 0.72,6.12 0.95,8.71 0.29,3.22 0.44,5.65 0.44,7.29zm0.7 -26.58c0,0.42 -0.25,0.78 -0.76,1.11 -0.34,0.22 -0.86,0.44 -1.54,0.68l-4.55 1.58c0,-0.76 0.82,-1.42 2.46,-1.99 -0.5,-0.27 -0.89,-0.52 -1.15,-0.76 -0.34,-0.32 -0.51,-0.64 -0.51,-0.99 0,-0.5 0.43,-1.22 1.3,-2.14 0.96,-1.01 1.81,-1.52 2.55,-1.52 0.32,0 0.61,0.11 0.84,0.33 0.24,0.23 0.36,0.52 0.36,0.88 0,0.24 -0.05,0.47 -0.15,0.71 -0.09,0.24 -0.24,0.51 -0.42,0.8 -0.5,-0.45 -1.05,-0.67 -1.64,-0.67 -0.36,0 -0.72,0.07 -1.07,0.21 -0.35,0.15 -0.52,0.32 -0.52,0.51 0,0.24 0.37,0.58 1.13,0.99 0.76,0.43 1.4,0.64 1.93,0.64 0.36,0 0.62,-0.01 0.78,-0.04 0.15,-0.02 0.47,-0.13 0.96,-0.33z"/>
  <path id="18" class="fil0" d="M409.24 39.08l-4.27 0c-2.5,0 -4.38,0.06 -5.64,0.2 -1.26,0.12 -1.89,0.39 -1.89,0.78 0,0.54 0.76,0.82 2.27,0.82 0.67,0 1.19,0.01 1.59,0.05 0.39,0.03 1.25,0.11 2.56,0.26 0.79,0.1 1.33,0.22 1.62,0.37 0.48,0.24 0.71,0.67 0.71,1.27 0,3.04 -1,5.25 -3,6.63 -2.18,1.51 -5.78,2.27 -10.81,2.27 -3.5,0 -6.28,-0.6 -8.35,-1.79 -2.19,-1.26 -3.29,-3.07 -3.29,-5.41 0,-1.89 0.52,-3.89 1.55,-6 0.37,-0.76 1.34,-2.4 2.92,-4.9l0.98 0.48c-0.62,1.05 -1.22,2.1 -1.82,3.14 -0.92,1.78 -1.38,3.24 -1.38,4.38 0,2.01 1.04,3.52 3.12,4.56 2,0.99 4.72,1.49 8.2,1.49 2.33,0 4.38,-0.18 6.15,-0.54 2.19,-0.44 3.28,-1.03 3.28,-1.8 0,-0.27 -0.13,-0.48 -0.37,-0.61 -0.25,-0.15 -0.66,-0.21 -1.23,-0.21 -0.44,-0.05 -1.13,-0.1 -2.08,-0.16 -0.94,-0.06 -1.55,-0.08 -1.85,-0.08 -1.03,0 -1.76,-0.14 -2.2,-0.4 -0.45,-0.28 -0.67,-0.68 -0.67,-1.21 0,-2.03 0.59,-3.68 1.78,-4.96 0.98,-1.04 2.29,-1.82 3.93,-2.32 1.24,-0.38 2.55,-0.56 3.91,-0.56l4.28 0 0 4.25zm-10.1 15.64l-2.27 2.11 -2.73 -1.75 2.19 -2.3 2.81 1.94zm-5.05 0l-2.22 2.11 -2.83 -1.75 2.27 -2.3 2.78 1.94z"/>
  <path id="19" class="fil0" d="M422.65 39.08l-15.09 0 0 -4.25 12.99 0c0,-1.45 -0.16,-2.81 -0.5,-4.09 -0.85,0.29 -1.49,0.48 -1.94,0.6 -0.75,0.19 -1.41,0.29 -1.98,0.29 -1.17,0 -2.14,-0.3 -2.88,-0.9 -0.86,-0.69 -1.29,-1.67 -1.29,-2.95 0,-2.26 0.4,-4.24 1.21,-5.93 0.91,-1.88 2.1,-2.82 3.56,-2.82 1.98,0 3.51,1.55 4.58,4.66 0.89,2.56 1.34,5.58 1.34,9.04l0 6.35zm-3.99 -12.7c-0.23,-0.59 -0.6,-1.19 -1.1,-1.79 -0.68,-0.8 -1.33,-1.21 -1.95,-1.21 -0.43,0 -0.8,0.18 -1.08,0.55 -0.28,0.36 -0.43,0.8 -0.43,1.3 0,1.3 0.72,1.95 2.15,1.95 0.37,0 0.77,-0.08 1.19,-0.22 0.42,-0.15 0.82,-0.34 1.22,-0.58zm0.69 -14.39l-1.88 3.54 -3.91 -2.04 1.79 -3.56 4 2.06z"/>
  <path id="20" class="fil0" d="M453.37 39.08l-10.91 0c-0.92,0 -1.75,-0.27 -2.5,-0.81 -0.73,-0.54 -1.1,-1.17 -1.1,-1.9 0,-0.62 0.03,-1.18 0.09,-1.69 0.07,-0.49 0.2,-1.05 0.37,-1.65l0.5 0c0.18,0.66 0.51,1.14 0.98,1.43 0.39,0.24 0.93,0.37 1.61,0.37l9.46 0c0,-2.92 -0.41,-5.26 -1.22,-7.04 -1.02,-2.2 -2.71,-3.68 -5.08,-4.41l0.38 -4.75c2.82,1.38 4.82,3.59 6,6.62 0.95,2.44 1.42,5.64 1.42,9.58l0 4.25z"/>
  <path id="21" class="fil0" d="M465.59 39.08l-13.9 0 0 -4.25 12.15 0c0,-1.92 -0.24,-3.38 -0.69,-4.39 -0.31,-0.7 -1.08,-1.7 -2.31,-3.01l1.92 -4c1.16,1.48 1.89,2.63 2.18,3.46 0.43,1.25 0.65,3.33 0.65,6.23l0 5.96zm-0.25 4.8l-1.8 3.55 -4 -2.05 1.85 -3.55 3.95 2.05zm-5.55 2.25l-1.81 3.5 -3.99 -2.08 1.88 -3.52 3.92 2.1z"/>
  <path id="22" class="fil0" d="M478.99 39.08l-15.09 0 0 -4.25 12.99 0c0,-1.45 -0.16,-2.81 -0.5,-4.09 -0.85,0.29 -1.5,0.48 -1.95,0.6 -0.74,0.19 -1.4,0.29 -1.97,0.29 -1.17,0 -2.14,-0.3 -2.88,-0.9 -0.86,-0.69 -1.29,-1.67 -1.29,-2.95 0,-2.26 0.4,-4.24 1.21,-5.93 0.91,-1.88 2.1,-2.82 3.56,-2.82 1.98,0 3.51,1.55 4.58,4.66 0.89,2.56 1.34,5.58 1.34,9.04l0 6.35zm-3.99 -12.7c-0.23,-0.59 -0.6,-1.19 -1.1,-1.79 -0.68,-0.8 -1.33,-1.21 -1.95,-1.21 -0.43,0 -0.8,0.18 -1.08,0.55 -0.28,0.36 -0.43,0.8 -0.43,1.3 0,1.3 0.72,1.95 2.15,1.95 0.37,0 0.77,-0.08 1.19,-0.22 0.42,-0.15 0.82,-0.34 1.22,-0.58zm3.09 -15.1l-1.8 3.55 -3.99 -2.05 1.85 -3.55 3.94 2.05zm-5.55 2.25l-1.8 3.5 -3.99 -2.08 1.88 -3.52 3.91 2.1z"/>
  <path id="23" class="fil0" d="M523.11 26.69c0,0.53 -0.05,1.06 -0.14,1.61 -0.1,0.54 -0.17,0.94 -0.19,1.16 -0.58,-0.74 -1.25,-1.32 -2.04,-1.74 -0.8,-0.43 -1.6,-0.64 -2.41,-0.64 -1.42,0 -2.91,0.82 -4.47,2.48 -1.43,1.52 -2.15,2.73 -2.15,3.63 0,0.31 0.18,0.55 0.53,0.7 0.35,0.16 0.95,0.24 1.82,0.24l1.95 0c1.18,0 2.05,0 2.61,0.03 0.57,0.03 1.23,0.1 2.02,0.23 0.78,0.14 1.17,0.73 1.17,1.78 0,4.06 -1.78,7.17 -5.34,9.29 -3.28,1.94 -7.7,2.92 -13.28,2.92 -2.89,0 -5.11,-0.56 -6.64,-1.69 -1.65,-1.21 -2.49,-3.05 -2.49,-5.51 0,-1.69 0.28,-3.46 0.84,-5.31 0.41,-1.42 1,-2.89 1.75,-4.44 0.05,-0.1 0.56,-1.07 1.54,-2.9l1.02 0.41c-1.01,1.82 -1.8,3.52 -2.34,5.1 -0.54,1.58 -0.81,2.98 -0.81,4.2 0,1.98 0.68,3.46 2.06,4.45 1.37,0.99 3.33,1.49 5.88,1.49 1.94,0 4.21,-0.39 6.79,-1.16 2.21,-0.66 4.2,-1.45 5.97,-2.37 1.77,-0.91 2.65,-1.59 2.65,-2.02 0,-0.31 -0.1,-0.51 -0.31,-0.61 -0.2,-0.09 -0.53,-0.14 -0.99,-0.14l-5.73 0c-0.7,0 -1.32,-0.25 -1.86,-0.76 -0.54,-0.51 -0.81,-1.16 -0.81,-1.96 0,-1.09 0.45,-2.58 1.35,-4.45 0.98,-2.04 2.16,-3.74 3.55,-5.12 1.67,-1.64 3.34,-2.46 5.03,-2.46 1.07,0 1.92,0.32 2.54,0.97 0.62,0.66 0.93,1.52 0.93,2.59zm-9.25 24.14l-1.8 3.55 -4 -2.05 1.85 -3.55 3.95 2.05zm-5.55 2.25l-1.81 3.5 -3.99 -2.08 1.88 -3.52 3.92 2.1z"/>
  <path id="24" class="fil0" d="M533.02 32.84c0,1.3 -0.24,2.57 -0.72,3.79 -0.25,0.65 -0.78,1.68 -1.61,3.1l-0.44 -0.25c0.06,-0.47 0.11,-1.01 0.15,-1.64 0.04,-0.61 0.07,-1.03 0.07,-1.24 0,-1.69 -0.13,-4.06 -0.4,-7.09 -0.28,-3.03 -0.59,-6.2 -0.97,-9.51 -0.23,-2 -0.48,-4.04 -0.76,-6.12 0.33,-0.72 0.7,-1.49 1.12,-2.32 0.42,-0.82 0.81,-1.6 1.18,-2.33 0.26,1.85 0.6,4.39 1,7.61 0.4,3.22 0.71,6.12 0.94,8.71 0.29,3.22 0.44,5.65 0.44,7.29zm0.7 -26.58c0,0.42 -0.25,0.78 -0.76,1.11 -0.34,0.22 -0.86,0.44 -1.54,0.68l-4.55 1.58c0,-0.76 0.82,-1.42 2.47,-1.99 -0.51,-0.27 -0.9,-0.52 -1.15,-0.76 -0.35,-0.32 -0.52,-0.64 -0.52,-0.99 0,-0.5 0.43,-1.22 1.3,-2.14 0.97,-1.01 1.82,-1.52 2.55,-1.52 0.32,0 0.61,0.11 0.84,0.33 0.24,0.23 0.36,0.52 0.36,0.88 0,0.24 -0.05,0.47 -0.15,0.71 -0.09,0.24 -0.23,0.51 -0.42,0.8 -0.5,-0.45 -1.05,-0.67 -1.64,-0.67 -0.36,0 -0.72,0.07 -1.07,0.21 -0.35,0.15 -0.52,0.32 -0.52,0.51 0,0.24 0.37,0.58 1.13,0.99 0.76,0.43 1.4,0.64 1.94,0.64 0.35,0 0.61,-0.01 0.77,-0.04 0.15,-0.02 0.48,-0.13 0.96,-0.33z"/>
  <path id="25" class="fil0" d="M575.95 31.84c0,2.3 -0.37,4.04 -1.12,5.2 -1.15,1.79 -3.27,2.69 -6.34,2.69 -1.18,0 -2.16,-0.24 -2.94,-0.71 -0.9,-0.54 -1.35,-1.31 -1.35,-2.3 0,-1.14 0.29,-2.46 0.86,-3.96 0.53,-1.27 1.05,-2.55 1.59,-3.83l-0.36 -0.1 1.49 -4.15c2.93,1.55 4.69,2.52 5.26,2.93 1.94,1.37 2.91,2.78 2.91,4.23zm-2.1 1.91c0,-0.61 -0.89,-1.43 -2.68,-2.46 -0.77,-0.44 -1.58,-0.87 -2.47,-1.29 -0.73,0.79 -1.16,1.29 -1.31,1.49 -0.46,0.63 -0.69,1.23 -0.69,1.8 0,0.83 0.24,1.48 0.69,1.95 0.47,0.45 1.1,0.69 1.88,0.69 0.91,0 1.9,-0.26 2.97,-0.77 1.08,-0.52 1.61,-0.98 1.61,-1.41z"/>
  <path id="26" class="fil0" d="M596.93 26.29c0,0.33 -0.02,0.6 -0.05,0.83 -0.04,0.23 -0.11,0.51 -0.24,0.86 -0.91,-2.04 -2.26,-4.13 -4.05,-6.29 -1.99,-2.39 -3.55,-3.59 -4.68,-3.59 -0.25,0 -0.49,0.22 -0.73,0.64 -0.24,0.43 -0.53,0.64 -0.85,0.64 -0.44,0 -1.14,-0.29 -2.08,-0.86 -1.18,-0.72 -2.14,-1.55 -2.85,-2.49 -0.96,-1.28 -1.44,-2.63 -1.44,-4.06 0,-1.03 0.33,-1.54 1,-1.54 1.17,0 3,0.74 5.48,2.22 2.79,1.64 5.12,3.56 7,5.76 2.33,2.68 3.49,5.31 3.49,7.88zm10.13 12.79l-1.5 0c-1.37,0 -2.47,-0.75 -3.32,-2.22 -0.99,-1.78 -1.49,-4.49 -1.49,-8.11 0,-0.26 -0.03,-0.61 -0.09,-1.05 -0.06,-0.43 -0.08,-0.71 -0.08,-0.82 -1.56,4.33 -2.95,7.31 -4.17,8.91 -1.44,1.89 -3.47,3.14 -6.11,3.75 -2.24,0.53 -6.05,0.79 -11.44,0.79l0 -0.7c4.37,-1.32 7.62,-2.45 9.76,-3.41 3.45,-1.54 6.07,-3.29 7.86,-5.29 2.16,-2.4 3.23,-5.25 3.23,-8.55 0,-1.59 -0.1,-3.09 -0.3,-4.46 -0.2,-1.38 -0.47,-2.8 -0.82,-4.24l0.8 -2.07c0.32,-0.8 0.62,-1.47 0.9,-2.03 0.42,2.34 0.83,4.87 1.2,7.58 0.27,1.88 0.52,3.88 0.77,6.03 0.31,2.64 0.58,4.75 0.81,6.37 0.29,2.05 0.73,3.51 1.32,4.39 0.4,0.58 0.79,0.88 1.18,0.88l1.49 0 0 4.25z"/>
  <path id="27" class="fil0" d="M630.54 31.43l-1.68 4.45c-2.46,0.9 -5.3,1.65 -8.52,2.27 -3.24,0.62 -6.21,0.93 -8.92,0.93l-6.08 0 0 -4.25 5.85 0c-0.47,-0.77 -0.85,-1.64 -1.15,-2.6 -0.3,-0.97 -0.45,-1.91 -0.45,-2.82 0,-1.92 0.8,-3.53 2.4,-4.83 1.61,-1.3 3.67,-1.95 6.19,-1.95 2.01,0 3.66,0.48 4.95,1.46 0.56,0.4 1.5,1.4 2.81,2.99l-0.46 0.4c-1.12,-0.3 -2.13,-0.53 -3.02,-0.68 -0.89,-0.15 -1.82,-0.22 -2.78,-0.22 -2.24,0 -3.99,0.25 -5.27,0.74 -1.27,0.5 -1.92,1.15 -1.92,1.96 0,0.8 0.4,1.69 1.21,2.67 0.8,0.98 1.84,1.86 3.11,2.63 2.67,-0.41 4.85,-0.81 6.56,-1.2 1.71,-0.39 4.1,-1.04 7.17,-1.95z"/>
  <path id="28" class="fil0" d="M641.58 32.84c0,1.3 -0.24,2.57 -0.71,3.79 -0.25,0.65 -0.79,1.68 -1.61,3.1l-0.44 -0.25c0.06,-0.47 0.11,-1.01 0.15,-1.64 0.04,-0.61 0.06,-1.03 0.06,-1.24 0,-1.69 -0.13,-4.06 -0.4,-7.09 -0.27,-3.03 -0.59,-6.2 -0.96,-9.51 -0.24,-2 -0.49,-4.04 -0.76,-6.12 0.32,-0.72 0.7,-1.49 1.12,-2.32 0.41,-0.82 0.8,-1.6 1.18,-2.33 0.26,1.85 0.59,4.39 0.99,7.61 0.4,3.22 0.72,6.12 0.94,8.71 0.29,3.22 0.44,5.65 0.44,7.29zm0.7 -26.58c0,0.42 -0.25,0.78 -0.75,1.11 -0.35,0.22 -0.86,0.44 -1.55,0.68l-4.55 1.58c0,-0.76 0.83,-1.42 2.47,-1.99 -0.51,-0.27 -0.89,-0.52 -1.15,-0.76 -0.34,-0.32 -0.52,-0.64 -0.52,-0.99 0,-0.5 0.44,-1.22 1.3,-2.14 0.97,-1.01 1.82,-1.52 2.55,-1.52 0.33,0 0.61,0.11 0.85,0.33 0.24,0.23 0.35,0.52 0.35,0.88 0,0.24 -0.05,0.47 -0.15,0.71 -0.09,0.24 -0.23,0.51 -0.41,0.8 -0.5,-0.45 -1.05,-0.67 -1.64,-0.67 -0.36,0 -0.72,0.07 -1.07,0.21 -0.35,0.15 -0.53,0.32 -0.53,0.51 0,0.24 0.38,0.58 1.14,0.99 0.76,0.43 1.4,0.64 1.93,0.64 0.36,0 0.62,-0.01 0.78,-0.04 0.15,-0.02 0.47,-0.13 0.95,-0.33z"/>
  <path id="29" class="fil0" d="M676.33 39.08l-3.5 0c-1.16,0 -2.2,-1 -3.1,-3 -0.66,-1.5 -1.2,-3.42 -1.6,-5.77 -0.49,0.91 -1.11,1.61 -1.85,2.12 -0.75,0.5 -1.55,0.75 -2.37,0.75 -1.87,0 -3.43,-0.13 -4.67,-0.38 -1.24,-0.26 -1.86,-0.57 -1.86,-0.97 0,-1.39 0.9,-2.94 2.72,-4.65 1.81,-1.69 4.08,-3.19 6.8,-4.45 -0.03,-0.14 -0.1,-0.47 -0.21,-1.03 -0.11,-0.55 -0.16,-0.89 -0.16,-1.01 0,-0.56 0.19,-1.18 0.57,-1.85 0.32,-0.56 0.73,-1.13 1.25,-1.71 0.17,1.01 0.33,1.98 0.5,2.92 0.18,0.94 0.37,1.92 0.6,2.93l0.73 4.19c0.4,2.31 0.77,4.02 1.1,5.12 0.5,1.69 1.02,2.54 1.56,2.54l3.49 0 0 4.25zm-8.53 -10.89l-0.47 -2.66c-1.4,0.51 -2.51,1.03 -3.32,1.57 -0.81,0.54 -1.48,1.27 -2.03,2.16 0.34,0.15 0.73,0.27 1.19,0.34 0.45,0.09 1.07,0.13 1.86,0.13 0.97,0 1.9,-0.52 2.77,-1.54z"/>
  <path id="30" class="fil0" d="M688.53 39.08l-13.9 0 0 -4.25 12.15 0c0,-1.92 -0.24,-3.38 -0.7,-4.39 -0.3,-0.7 -1.07,-1.7 -2.3,-3.01l1.92 -4c1.16,1.48 1.88,2.63 2.18,3.46 0.43,1.25 0.65,3.33 0.65,6.23l0 5.96zm-0.15 -24.15l-1.8 3.55 -4 -2.05 1.85 -3.55 3.95 2.05zm-5.55 2.25l-1.81 3.5 -3.99 -2.08 1.88 -3.52 3.92 2.1z"/>
  <path id="31" class="fil0" d="M700.73 39.08l-13.9 0 0 -4.25 12.15 0c0,-1.92 -0.23,-3.38 -0.69,-4.39 -0.31,-0.7 -1.07,-1.7 -2.31,-3.01l1.93 -4c1.16,1.48 1.88,2.63 2.17,3.46 0.44,1.25 0.65,3.33 0.65,6.23l0 5.96zm-0.25 4.8l-1.8 3.55 -4 -2.05 1.85 -3.55 3.95 2.05zm-5.55 2.25l-1.8 3.5 -4 -2.08 1.89 -3.52 3.91 2.1z"/>
  <path id="32" class="fil0" d="M722.34 37.56c0,2.7 -0.99,5.38 -2.98,8.05 -2.21,2.97 -4.77,4.47 -7.67,4.47 -1.07,0 -2.18,-0.13 -3.32,-0.37 -0.84,-0.18 -1.92,-0.48 -3.25,-0.92 -1.06,-0.37 -2.12,-0.73 -3.18,-1.09l0.42 -0.86c0.91,0.21 1.86,0.44 2.86,0.68 1.01,0.24 1.91,0.36 2.7,0.36 1.99,0 3.87,-0.51 5.65,-1.53 1.38,-0.81 2.76,-1.97 4.15,-3.5 0.7,-0.77 1.69,-2.03 2.97,-3.77 -2.2,0 -3.85,-0.35 -4.94,-1.06 -1.24,-0.8 -1.86,-2.12 -1.86,-3.95 0,-1.68 0.39,-3.25 1.18,-4.69 0.91,-1.67 2.07,-2.5 3.47,-2.5 1.43,0 2.44,0.82 3.07,2.48 0.49,1.29 0.73,3.09 0.73,5.4l0 2.8zm-1.55 -2.68c-0.36,-1.58 -0.79,-2.66 -1.3,-3.27 -0.43,-0.53 -0.97,-0.78 -1.61,-0.78 -0.46,0 -0.86,0.15 -1.19,0.45 -0.33,0.3 -0.5,0.68 -0.5,1.14 0,0.81 0.36,1.41 1.08,1.83 0.71,0.42 1.89,0.63 3.52,0.63z"/>
  <path id="33" class="fil0" d="M741.6 34.94c0,0.94 -0.29,1.99 -0.88,3.15 -0.63,1.26 -1.26,1.89 -1.9,1.89 -0.65,0 -1.9,-0.43 -3.71,-1.27 -1.67,-0.77 -3.09,-1.54 -4.24,-2.28 -1.89,1.06 -3.27,1.75 -4.14,2.06 -1.1,0.39 -2.39,0.59 -3.87,0.59l-2.21 0 0 -4.25 2.22 0c0.66,0 1.31,-0.05 1.94,-0.16 0.62,-0.11 1.46,-0.3 2.53,-0.58 -0.42,-0.31 -0.84,-0.63 -1.26,-0.95 -0.46,-0.41 -0.68,-0.81 -0.68,-1.2 0,-0.28 0.01,-0.49 0.03,-0.62 0.03,-0.13 0.14,-0.38 0.34,-0.73l2.4 -4.25c0.32,-0.57 0.62,-0.96 0.89,-1.19 0.26,-0.22 0.63,-0.39 1.11,-0.52 -1.13,-0.76 -1.69,-1.31 -1.69,-1.63 0,-0.32 0.36,-1.16 1.08,-2.51 0.24,-0.45 0.61,-1.12 1.11,-2.01 1.05,0.99 2.35,2.43 3.92,4.32 2,2.38 3.57,4.5 4.73,6.38 1.52,2.47 2.28,4.4 2.28,5.76zm-8.55 -5.31c0,-0.7 -0.15,-1.26 -0.44,-1.67 -0.34,-0.49 -0.89,-0.73 -1.64,-0.73 -0.75,0 -1.45,0.25 -2.1,0.75 -0.65,0.5 -0.97,1.1 -0.97,1.8 0,0.67 0.99,1.55 2.97,2.65 0.7,-0.46 1.23,-0.9 1.57,-1.33 0.41,-0.49 0.61,-0.98 0.61,-1.47zm5.9 5.59c0,-0.57 -0.46,-1.45 -1.38,-2.66 -0.58,-0.77 -1.28,-1.58 -2.12,-2.44 0,0.8 -0.17,1.55 -0.5,2.24 -0.33,0.7 -0.79,1.23 -1.39,1.61 0.98,0.5 1.96,0.99 2.96,1.47 0.82,0.36 1.4,0.54 1.75,0.54 0.19,0 0.35,-0.08 0.48,-0.22 0.13,-0.15 0.2,-0.33 0.2,-0.54z"/>
  <path id="34" class="fil0" d="M794.4 39.08l-23.29 0c-3.13,0 -5.61,-0.54 -7.47,-1.64 -2.32,-1.37 -3.49,-3.51 -3.49,-6.42 0,-1.52 0.34,-3.07 1.02,-4.64 0.25,-0.58 0.83,-1.66 1.75,-3.25l0.73 0.46c-0.36,0.75 -0.71,1.49 -1.04,2.24 -0.48,1.16 -0.71,2.2 -0.71,3.11 0,1.92 1.01,3.41 3.02,4.47 1.81,0.94 4.09,1.42 6.86,1.42l20.67 0 0 -0.66c0,-1.83 -0.22,-3.31 -0.66,-4.45 -0.44,-1.15 -1.18,-2.13 -2.24,-2.94l1.87 -4c0.73,0.89 1.16,1.46 1.3,1.68 1.12,1.82 1.68,4.48 1.68,7.97l0 6.65zm-11.5 -22.25l-1.8 3.55 -4 -2.05 1.85 -3.55 3.95 2.05zm-5.55 2.25l-1.81 3.5 -3.99 -2.08 1.88 -3.52 3.92 2.1z"/>
  <path id="35" class="fil0" d="M805.92 39.08l-3.44 0c-1.12,0 -2.01,-0.45 -2.67,-1.35 -0.59,-0.78 -1.04,-1.94 -1.34,-3.49 -0.3,-1.54 -0.54,-3.44 -0.71,-5.71 -0.09,-1.83 -0.19,-3.71 -0.3,-5.65 -0.1,-1.94 -0.24,-3.4 -0.41,-4.4 -0.18,-1 -0.41,-1.82 -0.7,-2.45 -0.35,-0.79 -0.85,-1.47 -1.48,-2.05l2.97 -4.75c0.65,1.95 1.11,4.28 1.38,7 0.16,1.7 0.33,5.7 0.49,12 0.3,2.9 0.72,4.76 1.28,5.57 0.46,0.69 0.96,1.03 1.49,1.03l3.44 0 0 4.25z"/>
  <path id="36" class="fil0" d="M825.59 39.08l-2.53 0c-1.1,0 -2.32,-0.25 -3.69,-0.75 -1.57,-0.56 -2.96,-1.35 -4.16,-2.35 -0.95,1.16 -1.91,1.97 -2.9,2.42 -0.98,0.45 -2.42,0.68 -4.31,0.68l-3.81 0 0 -4.25 3.73 0c1.49,0 2.8,-0.38 3.95,-1.13 0.9,-0.59 1.71,-1.41 2.44,-2.47 1,-1.44 2.22,-2.69 3.67,-3.75 1.3,-0.94 2.49,-1.54 3.58,-1.8 1.13,1.71 2.02,3.25 2.69,4.62 0.89,1.86 1.34,3.37 1.34,4.52l0 4.26zm-2.8 -4.82c-0.21,-0.95 -0.53,-1.88 -0.98,-2.8 -0.37,-0.78 -0.87,-1.57 -1.49,-2.38 -0.77,0.2 -1.43,0.56 -1.96,1.1 -0.36,0.35 -0.79,0.93 -1.27,1.75 0.58,0.64 1.41,1.21 2.47,1.71 1.06,0.51 2.07,0.82 3.01,0.94l0.22 -0.32z"/>
  <path id="37" class="fil0" d="M847.19 37.56c0,2.7 -0.99,5.38 -2.99,8.05 -2.2,2.97 -4.76,4.47 -7.66,4.47 -1.08,0 -2.19,-0.13 -3.33,-0.37 -0.83,-0.18 -1.91,-0.48 -3.25,-0.92 -1.05,-0.37 -2.11,-0.73 -3.17,-1.09l0.42 -0.86c0.9,0.21 1.86,0.44 2.86,0.68 1,0.24 1.9,0.36 2.7,0.36 1.99,0 3.87,-0.51 5.64,-1.53 1.39,-0.81 2.77,-1.97 4.15,-3.5 0.7,-0.77 1.69,-2.03 2.98,-3.77 -2.2,0 -3.85,-0.35 -4.94,-1.06 -1.24,-0.8 -1.86,-2.12 -1.86,-3.95 0,-1.68 0.39,-3.25 1.17,-4.69 0.92,-1.67 2.08,-2.5 3.48,-2.5 1.42,0 2.44,0.82 3.06,2.48 0.5,1.29 0.74,3.09 0.74,5.4l0 2.8zm-1.55 -2.68c-0.36,-1.58 -0.79,-2.66 -1.3,-3.27 -0.44,-0.53 -0.98,-0.78 -1.61,-0.78 -0.46,0 -0.86,0.15 -1.19,0.45 -0.34,0.3 -0.5,0.68 -0.5,1.14 0,0.81 0.36,1.41 1.07,1.83 0.72,0.42 1.9,0.63 3.53,0.63z"/>
  <path id="38" class="fil0" d="M857.55 39.08l-12.05 0 0 -4.25 9.6 0 -3 -20.77 -1.25 -0.6c0,-1.12 0.1,-2.17 0.29,-3.15 0.2,-0.97 0.49,-1.93 0.88,-2.85l0.38 0.27c0,0.94 0.53,1.65 1.6,2.12 0.82,0.33 1.65,0.65 2.5,0.98 0,0.81 -0.07,1.66 -0.2,2.58 -0.13,0.93 -0.29,1.61 -0.47,2.06l-1.18 -0.39 2.9 19.2 0 4.8z"/>
  <path id="39" class="fil0" d="M877.25 39.08l-3.59 0c-1.06,0 -2.12,-0.25 -3.21,-0.76 -1.3,-0.6 -2.25,-1.44 -2.83,-2.52 -1.09,0.98 -2.34,1.73 -3.74,2.28 -1.71,0.66 -3.65,1 -5.83,1l-2.2 0 0 -4.25 2.2 0c1.36,0 2.64,-0.15 3.81,-0.45 1.34,-0.33 2.65,-0.87 3.94,-1.62l-1.04 -1.31c-0.52,-0.62 -1.11,-0.92 -1.76,-0.92 -0.3,0 -0.56,0.05 -0.8,0.15 -0.22,0.11 -0.48,0.34 -0.75,0.7l-0.5 0 0 -1.45c0,-1.79 0.47,-3.03 1.41,-3.69 0.86,-0.61 2.35,-0.91 4.49,-0.91 1.83,0 3.33,0.24 4.48,0.73 1.51,0.63 2.27,1.62 2.27,2.93 0,0.7 -0.3,1.43 -0.9,2.18 -0.44,0.55 -1.24,1.31 -2.4,2.3 0.25,0.38 0.75,0.71 1.5,0.96 0.74,0.26 1.35,0.4 1.86,0.4l3.59 0 0 4.25z"/>
  <path id="40" class="fil0" d="M896.94 39.08l-2.53 0c-1.09,0 -2.31,-0.25 -3.68,-0.75 -1.58,-0.56 -2.96,-1.35 -4.17,-2.35 -0.94,1.16 -1.91,1.97 -2.89,2.42 -0.98,0.45 -2.42,0.68 -4.32,0.68l-3.8 0 0 -4.25 3.73 0c1.48,0 2.8,-0.38 3.95,-1.13 0.9,-0.59 1.71,-1.41 2.44,-2.47 0.99,-1.44 2.22,-2.69 3.67,-3.75 1.3,-0.94 2.49,-1.54 3.58,-1.8 1.13,1.71 2.02,3.25 2.68,4.62 0.89,1.86 1.34,3.37 1.34,4.52l0 4.26zm-2.79 -4.82c-0.21,-0.95 -0.54,-1.88 -0.98,-2.8 -0.37,-0.78 -0.88,-1.57 -1.49,-2.38 -0.78,0.2 -1.43,0.56 -1.97,1.1 -0.36,0.35 -0.78,0.93 -1.26,1.75 0.58,0.64 1.4,1.21 2.47,1.71 1.06,0.51 2.07,0.82 3.01,0.94l0.22 -0.32z"/>
  <path id="41" class="fil0" d="M935.29 39.07c0,1.79 -0.77,3.65 -2.3,5.57 -1.34,1.69 -2.99,3.15 -4.99,4.38 -1.88,1.17 -3.44,1.76 -4.66,1.76 -1.13,0 -2.34,-0.17 -3.65,-0.5 -0.99,-0.24 -2.18,-0.63 -3.56,-1.15 -1.17,-0.45 -2.33,-0.89 -3.49,-1.33l0.41 -0.97c1.08,0.21 2.19,0.43 3.36,0.65 1.17,0.23 2.23,0.35 3.17,0.35 2.08,0 4.26,-0.67 6.52,-2 2.06,-1.23 3.81,-2.77 5.26,-4.64 1.45,-1.86 2.18,-3.54 2.18,-5.04 0,-1.29 -0.38,-2.64 -1.12,-4.06 -0.6,-1.14 -1.45,-2.31 -2.53,-3.51l1.37 -3.85c1.33,1.24 2.32,2.47 2.95,3.71 0.72,1.4 1.08,2.97 1.08,4.7l0 5.93z"/>
  <path id="42" class="fil0" d="M956.88 37.56c0,2.7 -0.99,5.38 -2.99,8.05 -2.2,2.97 -4.76,4.47 -7.66,4.47 -1.08,0 -2.19,-0.13 -3.33,-0.37 -0.83,-0.18 -1.91,-0.48 -3.25,-0.92 -1.06,-0.37 -2.11,-0.73 -3.17,-1.09l0.41 -0.86c0.91,0.21 1.87,0.44 2.87,0.68 1,0.24 1.9,0.36 2.7,0.36 1.98,0 3.87,-0.51 5.64,-1.53 1.39,-0.81 2.77,-1.97 4.15,-3.5 0.7,-0.77 1.69,-2.03 2.98,-3.77 -2.2,0 -3.85,-0.35 -4.94,-1.06 -1.25,-0.8 -1.86,-2.12 -1.86,-3.95 0,-1.68 0.39,-3.25 1.17,-4.69 0.92,-1.67 2.08,-2.5 3.48,-2.5 1.42,0 2.44,0.82 3.06,2.48 0.5,1.29 0.74,3.09 0.74,5.4l0 2.8zm-1.55 -2.68c-0.36,-1.58 -0.79,-2.66 -1.3,-3.27 -0.44,-0.53 -0.98,-0.78 -1.61,-0.78 -0.46,0 -0.86,0.15 -1.19,0.45 -0.34,0.3 -0.5,0.68 -0.5,1.14 0,0.81 0.36,1.41 1.07,1.83 0.72,0.42 1.89,0.63 3.53,0.63z"/>
  <path id="43" class="fil0" d="M976.59 39.08l-21.4 0 0 -4.25 18.57 0c-1.14,-1.73 -2.44,-3.23 -3.91,-4.5 -1.46,-1.28 -3.45,-2.66 -5.94,-4.14l-0.81 0.76 -2.89 -2.2c-1.02,-0.84 -1.52,-1.5 -1.52,-1.97 0,-2.8 0.68,-5 2.05,-6.6 1.28,-1.47 3.47,-2.79 6.59,-3.96l6.91 -2.69 0 4.25 -5.11 1.71c-2.04,0.66 -3.69,1.27 -4.94,1.82 -1.6,0.7 -2.4,1.24 -2.4,1.62 0,0.36 0.52,0.95 1.56,1.72 0.65,0.49 1.31,0.98 1.98,1.47 2.47,1.87 4.63,3.83 6.47,5.87 1.99,2.2 3.58,4.48 4.79,6.84l0 4.25z"/>
  <path id="44" class="fil0" d="M993.43 39.08l-10.9 0c-0.93,0 -1.76,-0.27 -2.5,-0.81 -0.74,-0.54 -1.11,-1.17 -1.11,-1.9 0,-0.62 0.03,-1.18 0.1,-1.69 0.07,-0.49 0.19,-1.05 0.37,-1.65l0.5 0c0.18,0.66 0.5,1.14 0.97,1.43 0.39,0.24 0.93,0.37 1.62,0.37l9.45 0c0,-2.92 -0.4,-5.26 -1.22,-7.04 -1.02,-2.2 -2.71,-3.68 -5.08,-4.41l0.38 -4.75c2.83,1.38 4.82,3.59 6,6.62 0.95,2.44 1.42,5.64 1.42,9.58l0 4.25zm-6.5 -28.74l-1.88 3.54 -3.92 -2.04 1.8 -3.56 4 2.06z"/>
  <path id="45" class="fil0" d="M1013.15 39.08l-2.53 0c-1.09,0 -2.32,-0.25 -3.69,-0.75 -1.57,-0.56 -2.95,-1.35 -4.16,-2.35 -0.94,1.16 -1.91,1.97 -2.89,2.42 -0.99,0.45 -2.43,0.68 -4.32,0.68l-3.81 0 0 -4.25 3.73 0c1.49,0 2.8,-0.38 3.95,-1.13 0.9,-0.59 1.71,-1.41 2.45,-2.47 0.99,-1.44 2.21,-2.69 3.66,-3.75 1.3,-0.94 2.49,-1.54 3.59,-1.8 1.12,1.71 2.01,3.25 2.68,4.62 0.89,1.86 1.34,3.37 1.34,4.52l0 4.26zm-2.8 -4.82c-0.21,-0.95 -0.53,-1.88 -0.97,-2.8 -0.38,-0.78 -0.88,-1.57 -1.5,-2.38 -0.77,0.2 -1.43,0.56 -1.96,1.1 -0.36,0.35 -0.79,0.93 -1.27,1.75 0.58,0.64 1.41,1.21 2.48,1.71 1.05,0.51 2.06,0.82 3,0.94l0.22 -0.32z"/>
  <path id="46" class="fil0" d="M1023.5 39.08l-12.05 0 0 -4.25 9.6 0 -3 -20.77 -1.25 -0.6c0,-1.12 0.1,-2.17 0.29,-3.15 0.2,-0.97 0.49,-1.93 0.88,-2.85l0.38 0.27c0,0.94 0.53,1.65 1.61,2.12 0.82,0.33 1.65,0.65 2.49,0.98 0,0.81 -0.07,1.66 -0.2,2.58 -0.12,0.93 -0.28,1.61 -0.47,2.06l-1.18 -0.39 2.9 19.2 0 4.8z"/>
  <path id="47" class="fil0" d="M1031.75 32.84c0,1.3 -0.24,2.57 -0.72,3.79 -0.25,0.65 -0.78,1.68 -1.61,3.1l-0.44 -0.25c0.06,-0.47 0.11,-1.01 0.15,-1.64 0.05,-0.61 0.07,-1.03 0.07,-1.24 0,-1.69 -0.13,-4.06 -0.4,-7.09 -0.28,-3.03 -0.59,-6.2 -0.97,-9.51 -0.23,-2 -0.48,-4.04 -0.75,-6.12 0.32,-0.72 0.69,-1.49 1.11,-2.32 0.42,-0.82 0.81,-1.6 1.18,-2.33 0.26,1.85 0.6,4.39 1,7.61 0.4,3.22 0.71,6.12 0.94,8.71 0.29,3.22 0.44,5.65 0.44,7.29z"/>
  <path id="48" class="fil0" d="M1102.64 39.08l-29 0c-0.49,3.38 -1.66,5.91 -3.52,7.6 -2.3,2.1 -5.84,3.15 -10.57,3.15 -3.26,0 -5.75,-0.57 -7.47,-1.71 -1.9,-1.26 -2.84,-3.18 -2.84,-5.77 0,-1.4 0.18,-2.82 0.52,-4.25 0.34,-1.43 0.81,-2.87 1.39,-4.32 0.37,-0.88 0.98,-2.23 1.87,-4.05l0.97 0.44c-1.13,2.34 -1.88,4.18 -2.25,5.53 -0.37,1.35 -0.55,2.58 -0.55,3.71 0,2.02 0.72,3.54 2.16,4.59 1.44,1.05 3.5,1.58 6.17,1.58 3.13,0 5.92,-0.55 8.38,-1.64 3.06,-1.34 4.59,-3.22 4.59,-5.64 0,-1.62 -0.3,-3.16 -0.9,-4.62 -0.47,-1.14 -1.14,-2.25 -2,-3.3l2.03 -5c0.8,1.33 1.34,2.51 1.62,3.53 0.4,1.44 0.6,3.42 0.6,5.92l0.44 0c1.94,0 3.74,-0.31 5.4,-0.93 1.44,-0.54 2.94,-1.38 4.52,-2.53 2.41,-1.68 3.85,-2.67 4.32,-2.98 1.34,-0.85 2.54,-1.45 3.6,-1.81 1.2,-0.4 2.53,-0.6 3.97,-0.6 2.23,0 3.9,0.64 5.01,1.92 1.02,1.19 1.54,2.86 1.54,5l0 6.18zm-3.95 -6.13c0,-0.79 -0.5,-1.41 -1.5,-1.86 -1,-0.44 -2.17,-0.66 -3.51,-0.66 -1.16,0 -2.47,0.25 -3.92,0.77 -1.03,0.38 -2.34,0.97 -3.91,1.78 -1.19,0.61 -2.37,1.23 -3.54,1.85l11.26 0c1.55,0 2.8,-0.16 3.73,-0.48 0.92,-0.31 1.39,-0.78 1.39,-1.4z"/>
  <path id="49" class="fil0" d="M1129.15 39.08l-28.2 0 0 -4.25 19.9 0c-1.66,-1.3 -3.06,-2.29 -4.2,-3.01 -1.42,-0.9 -2.71,-1.55 -3.89,-1.96 -1.31,-0.46 -2.64,-0.68 -3.99,-0.68 -0.84,0 -1.67,0.06 -2.52,0.17 0.47,-1.2 1.09,-2.17 1.86,-2.89 1.1,-1.06 2.5,-1.58 4.2,-1.58 1.65,0 3.61,0.81 5.88,2.44 1.12,0.81 2.95,2.36 5.49,4.63 1.97,1.77 3.3,2.73 4,2.88l1.47 0 0 4.25zm-11.75 -22.74l-1.88 3.54 -3.92 -2.04 1.79 -3.56 4.01 2.06z"/>
  <path id="50" class="fil0" d="M1155.69 39.08l-1.87 0c-1.03,0 -1.91,-0.15 -2.66,-0.43 -0.75,-0.28 -1.42,-0.69 -2.04,-1.21 -0.76,0.6 -1.43,1 -2.01,1.19 -0.83,0.3 -1.97,0.45 -3.43,0.45l-1.59 0c-0.85,0 -1.7,-0.17 -2.55,-0.5 -0.55,-0.2 -1.24,-0.55 -2.06,-1.05 -0.78,0.6 -1.5,1 -2.15,1.21 -0.65,0.23 -1.71,0.34 -3.17,0.34l-4.72 0 0 -4.25 4.72 0c1.32,0 2.27,-0.12 2.85,-0.34 0.94,-0.38 1.41,-1.13 1.41,-2.25 0,-0.47 -0.02,-0.95 -0.07,-1.41 -0.04,-0.48 -0.14,-1 -0.26,-1.59l0.97 -1.46c0.46,1.5 0.84,2.58 1.14,3.26 0.52,1.2 1.1,2.09 1.71,2.69 0.76,0.73 1.66,1.1 2.71,1.1l1.65 0c1.24,0 2.14,-0.19 2.74,-0.56 0.65,-0.43 0.98,-1.1 0.98,-2.03 0,-0.51 -0.03,-0.99 -0.09,-1.46 -0.07,-0.48 -0.15,-0.99 -0.26,-1.54l0.97 -1.46 0.51 2.3c0.44,1.8 0.98,3.06 1.61,3.76 0.56,0.63 1.3,0.94 2.25,0.94 0.43,0 0.79,-0.14 1.06,-0.41 0.27,-0.27 0.4,-0.62 0.4,-1.04 0,-0.92 -0.33,-1.89 -1,-2.9 -0.12,-0.17 -0.52,-0.7 -1.2,-1.6l1.57 -2.65c0.66,1 1.11,1.88 1.35,2.61 0.35,1.11 0.53,2.59 0.53,4.42l0 5.87zm-7 -26.51l-1.88 3.56 -3.92 -2.09 1.81 -3.56 3.99 2.09zm4.75 4.33l-1.88 3.53 -3.92 -2.1 1.82 -3.5 3.98 2.07zm-5.55 2.23l-1.85 3.55 -3.95 -2.05 1.8 -3.55 4 2.05z"/>
  <path id="51" class="fil0" d="M1166.03 39.08l-12.05 0 0 -4.25 9.6 0 -3 -20.77 -1.25 -0.6c0,-1.12 0.1,-2.17 0.29,-3.15 0.2,-0.97 0.49,-1.93 0.89,-2.85l0.37 0.27c0,0.94 0.53,1.65 1.61,2.12 0.82,0.33 1.65,0.65 2.49,0.98 0,0.81 -0.07,1.66 -0.2,2.58 -0.12,0.93 -0.28,1.61 -0.47,2.06l-1.18 -0.39 2.9 19.2 0 4.8z"/>
  <path id="52" class="fil0" d="M1176.38 39.08l-12.05 0 0 -4.25 9.6 0 -3 -20.77 -1.25 -0.6c0,-1.12 0.1,-2.17 0.29,-3.15 0.2,-0.97 0.49,-1.93 0.89,-2.85l0.37 0.27c0,0.94 0.53,1.65 1.61,2.12 0.82,0.33 1.65,0.65 2.49,0.98 0,0.81 -0.07,1.66 -0.2,2.58 -0.12,0.93 -0.28,1.61 -0.47,2.06l-1.18 -0.39 2.9 19.2 0 4.8z"/>
  <path id="53" class="fil0" d="M1207.12 39.08l-10.91 0c-0.92,0 -1.75,-0.27 -2.5,-0.81 -0.73,-0.54 -1.1,-1.17 -1.1,-1.9 0,-0.62 0.03,-1.18 0.1,-1.69 0.06,-0.49 0.19,-1.05 0.36,-1.65l0.5 0c0.19,0.66 0.51,1.14 0.98,1.43 0.39,0.24 0.93,0.37 1.61,0.37l9.46 0c0,-2.92 -0.41,-5.26 -1.22,-7.04 -1.02,-2.2 -2.71,-3.68 -5.08,-4.41l0.38 -4.75c2.82,1.38 4.82,3.59 6,6.62 0.95,2.44 1.42,5.64 1.42,9.58l0 4.25z"/>
  <path id="54" class="fil0" d="M1233.64 39.08l-28.2 0 0 -4.25 19.9 0c-1.66,-1.3 -3.06,-2.29 -4.2,-3.01 -1.42,-0.9 -2.71,-1.55 -3.89,-1.96 -1.31,-0.46 -2.65,-0.68 -4,-0.68 -0.83,0 -1.66,0.06 -2.51,0.17 0.47,-1.2 1.09,-2.17 1.86,-2.89 1.1,-1.06 2.5,-1.58 4.2,-1.58 1.65,0 3.61,0.81 5.88,2.44 1.12,0.81 2.95,2.36 5.49,4.63 1.97,1.77 3.3,2.73 4,2.88l1.47 0 0 4.25zm-12.45 5.26l-1.89 3.54 -3.91 -2.05 1.79 -3.55 4.01 2.06z"/>
  <path id="55" class="fil0" d="M1255.23 37.56c0,2.7 -0.99,5.38 -2.99,8.05 -2.2,2.97 -4.76,4.47 -7.66,4.47 -1.08,0 -2.19,-0.13 -3.33,-0.37 -0.83,-0.18 -1.91,-0.48 -3.25,-0.92 -1.05,-0.37 -2.11,-0.73 -3.17,-1.09l0.42 -0.86c0.9,0.21 1.86,0.44 2.86,0.68 1,0.24 1.9,0.36 2.7,0.36 1.98,0 3.87,-0.51 5.64,-1.53 1.39,-0.81 2.77,-1.97 4.15,-3.5 0.7,-0.77 1.69,-2.03 2.98,-3.77 -2.2,0 -3.85,-0.35 -4.94,-1.06 -1.24,-0.8 -1.86,-2.12 -1.86,-3.95 0,-1.68 0.39,-3.25 1.17,-4.69 0.92,-1.67 2.08,-2.5 3.48,-2.5 1.42,0 2.44,0.82 3.06,2.48 0.5,1.29 0.74,3.09 0.74,5.4l0 2.8zm-1.55 -2.68c-0.36,-1.58 -0.79,-2.66 -1.3,-3.27 -0.44,-0.53 -0.98,-0.78 -1.61,-0.78 -0.46,0 -0.86,0.15 -1.19,0.45 -0.34,0.3 -0.5,0.68 -0.5,1.14 0,0.81 0.36,1.41 1.07,1.83 0.72,0.42 1.9,0.63 3.53,0.63z"/>
  <path id="56" class="fil0" d="M1267.44 39.08l-13.9 0 0 -4.25 12.15 0c0,-1.92 -0.24,-3.38 -0.7,-4.39 -0.3,-0.7 -1.07,-1.7 -2.3,-3.01l1.92 -4c1.16,1.48 1.88,2.63 2.18,3.46 0.43,1.25 0.65,3.33 0.65,6.23l0 5.96zm-0.25 4.8l-1.8 3.55 -4 -2.05 1.85 -3.55 3.95 2.05zm-5.55 2.25l-1.81 3.5 -3.99 -2.08 1.88 -3.52 3.92 2.1z"/>
  <path id="57" class="fil0" d="M1306.69 13.28l-1.17 4.41 -1.43 -0.71 0.05 2.21c0,2.18 -0.28,4.3 -0.84,6.34 -0.61,2.24 -1.56,4.46 -2.86,6.65 0.61,1.14 1.05,2.04 1.29,2.69 0.37,1.02 0.56,2.06 0.56,3.12 0,0.61 -0.02,1.12 -0.05,1.54 -0.04,0.43 -0.11,0.92 -0.22,1.5 -1.73,0.39 -3.57,0.7 -5.52,0.91 -1.96,0.23 -3.86,0.34 -5.71,0.34 0.01,-0.31 0.02,-0.58 0.02,-0.79 0.08,-1.24 0.28,-2.4 0.58,-3.46 2.76,-1.48 5.1,-3.39 7,-5.75 -1.15,-2.15 -1.97,-3.67 -2.49,-4.57 -0.57,-0.98 -1.54,-2.49 -2.91,-4.56 -0.5,-0.7 -0.95,-1.26 -1.34,-1.68 -0.53,-0.57 -0.96,-0.85 -1.26,-0.85 -0.21,0 -0.56,0.12 -1.05,0.37 -0.26,0.12 -0.48,0.19 -0.66,0.19 -0.36,0 -0.92,-0.36 -1.69,-1.08 -0.66,-0.63 -1.36,-1.41 -2.09,-2.34 -0.59,-0.75 -0.99,-1.37 -1.2,-1.87 -0.21,-0.5 -0.31,-1.1 -0.31,-1.8 0,-1 0.06,-1.8 0.19,-2.37 0.2,-0.86 0.53,-1.29 1,-1.29 0.66,0 1.64,0.63 2.91,1.91 1.11,1.13 2.37,2.63 3.75,4.49 1.22,1.64 2.42,3.41 3.61,5.31l2.49 4.01c0.73,1.2 1.48,2.57 2.25,4.1 1.09,-2.19 1.85,-4.41 2.25,-6.65 0.36,-1.95 0.55,-4.43 0.55,-7.46l-1.4 -0.8c0,-1.08 0.09,-2.05 0.28,-2.93 0.18,-0.87 0.45,-1.67 0.79,-2.38l0.58 0.15c0.06,0.7 0.45,1.26 1.16,1.68 0.39,0.23 0.89,0.49 1.49,0.78 0.6,0.3 1.07,0.5 1.4,0.64zm-6.35 23.73c0,-0.36 -0.07,-0.72 -0.21,-1.11 -0.14,-0.38 -0.44,-1.02 -0.91,-1.89 -0.49,0.63 -1.22,1.37 -2.18,2.19 -0.97,0.84 -1.93,1.54 -2.87,2.13 1.92,0 3.28,-0.06 4.09,-0.18 1.38,-0.19 2.08,-0.57 2.08,-1.14z"/>
 </g>
</svg>
