<?xml version="1.0" encoding="UTF-8"?>
<!DOCTYPE svg PUBLIC "-//W3C//DTD SVG 1.1//EN" "http://www.w3.org/Graphics/SVG/1.1/DTD/svg11.dtd">
<!-- Creator: CorelDRAW 2018 (64-Bit) -->
<svg xmlns="http://www.w3.org/2000/svg" xml:space="preserve" width="661px" height="59px" version="1.1" style="shape-rendering:geometricPrecision; text-rendering:geometricPrecision; image-rendering:optimizeQuality; fill-rule:evenodd; clip-rule:evenodd"
viewBox="0 0 661 59.02"
 xmlns:xlink="http://www.w3.org/1999/xlink">
 <defs>
  <style type="text/css">
   <![CDATA[
    .fil0 {fill:#2B2A29;fill-rule:nonzero}
   ]]>
  </style>
 </defs>
 <g id="Layer_x0020_1">
  <metadata id="CorelCorpID_0Corel-Layer"/>
  <path class="fil0" d="M27.23 30.49l-1.15 4c-2.48,0.62 -4.52,1.31 -6.12,2.08 -1.84,0.89 -3.51,2.04 -5.02,3.47l-0.76 -0.42c0.21,-0.75 0.5,-1.45 0.86,-2.08 0.3,-0.56 0.66,-1.06 1.07,-1.5l-2.83 -1.61c-0.83,-0.55 -1.24,-1.15 -1.24,-1.8 0,-0.52 0.32,-1.46 0.97,-2.82 0.78,-1.63 1.67,-2.98 2.68,-4.07 1.3,-1.39 2.61,-2.09 3.93,-2.09 1.21,0 2.22,0.35 3.02,1.05 0.17,0.14 0.59,0.59 1.24,1.34l-1.25 3.2c-0.6,-0.41 -0.97,-0.66 -1.07,-0.74 -1,-0.64 -1.82,-0.96 -2.45,-0.96 -0.78,0 -1.6,0.22 -2.45,0.66 -0.85,0.43 -1.28,0.93 -1.28,1.48 0,0.67 0.5,1.31 1.47,1.93 0.78,0.46 1.93,0.98 3.48,1.53 2.26,-1.1 4.56,-1.98 6.9,-2.65z"/>
  <path id="1" class="fil0" d="M41.2 36.44l-3.43 0c-1.12,0 -2.01,-0.45 -2.67,-1.34 -0.59,-0.79 -1.04,-1.94 -1.34,-3.49 -0.3,-1.54 -0.54,-3.44 -0.7,-5.71 -0.1,-1.83 -0.2,-3.71 -0.31,-5.65 -0.1,-1.93 -0.24,-3.4 -0.41,-4.4 -0.18,-1 -0.41,-1.81 -0.7,-2.45 -0.35,-0.78 -0.85,-1.46 -1.48,-2.05l2.97 -4.74c0.65,1.95 1.11,4.28 1.38,6.99 0.16,1.7 0.33,5.7 0.49,12 0.3,2.9 0.72,4.75 1.28,5.57 0.46,0.68 0.96,1.02 1.49,1.02l3.43 0 0 4.25z"/>
  <path id="2" class="fil0" d="M83.45 36.44l-29.31 0c-0.87,0 -1.71,-0.15 -2.51,-0.44 -0.6,-0.23 -1.31,-0.6 -2.12,-1.1 -0.68,0.59 -1.36,0.99 -2.05,1.2 -0.69,0.23 -1.77,0.34 -3.27,0.34l-4.71 0 0 -4.25 4.72 0c1.31,0 2.26,-0.12 2.84,-0.34 0.94,-0.38 1.41,-1.13 1.41,-2.24 0,-0.48 -0.02,-0.95 -0.08,-1.43 -0.06,-0.48 -0.14,-1 -0.25,-1.57l0.98 -1.46c0.56,2.2 1.34,3.91 2.34,5.12 1.05,1.28 2.29,1.92 3.73,1.92 1.36,0 2.96,-0.31 4.8,-0.92 1.98,-0.67 3.69,-1.52 5.11,-2.54 2.34,-1.65 3.75,-2.64 4.28,-2.97 1.31,-0.85 2.5,-1.45 3.58,-1.81 1.21,-0.4 2.52,-0.6 3.95,-0.6 2.21,0 3.88,0.64 5,1.92 1.04,1.19 1.56,2.86 1.56,5l0 6.17zm-4 -6.12c0,-0.79 -0.49,-1.41 -1.48,-1.86 -0.99,-0.44 -2.15,-0.67 -3.47,-0.67 -1.62,0 -3.59,0.54 -5.89,1.63 -1.83,0.92 -3.67,1.85 -5.48,2.77l11.23 0c1.77,0 3.06,-0.15 3.88,-0.46 0.8,-0.31 1.21,-0.78 1.21,-1.41z"/>
  <path id="3" class="fil0" d="M109.94 36.44l-28.18 0 0 -4.25 19.89 0c-1.66,-1.29 -3.06,-2.29 -4.2,-3.01 -1.42,-0.9 -2.71,-1.54 -3.88,-1.95 -1.32,-0.46 -2.65,-0.69 -4,-0.69 -0.83,0 -1.67,0.06 -2.52,0.18 0.48,-1.2 1.1,-2.17 1.86,-2.89 1.1,-1.06 2.5,-1.58 4.2,-1.58 1.66,0 3.61,0.81 5.88,2.44 1.11,0.8 2.95,2.35 5.49,4.63 1.96,1.76 3.29,2.72 3.99,2.87l1.47 0 0 4.25z"/>
  <path id="4" class="fil0" d="M135.27 10.66l-1.17 4.4 -1.43 -0.71 0.05 2.22c0,2.17 -0.28,4.29 -0.84,6.33 -0.6,2.24 -1.55,4.45 -2.86,6.64 0.62,1.14 1.05,2.04 1.29,2.69 0.37,1.03 0.56,2.07 0.56,3.13 0,0.6 -0.02,1.11 -0.05,1.54 -0.04,0.42 -0.11,0.91 -0.22,1.49 -1.72,0.39 -3.56,0.7 -5.51,0.91 -1.96,0.23 -3.87,0.34 -5.71,0.34 0.01,-0.31 0.02,-0.58 0.02,-0.79 0.08,-1.24 0.28,-2.4 0.58,-3.45 2.76,-1.48 5.09,-3.4 6.99,-5.76 -1.14,-2.15 -1.97,-3.66 -2.48,-4.56 -0.58,-0.98 -1.54,-2.49 -2.91,-4.56 -0.5,-0.7 -0.95,-1.25 -1.34,-1.68 -0.53,-0.57 -0.96,-0.85 -1.26,-0.85 -0.21,0 -0.56,0.12 -1.05,0.37 -0.26,0.12 -0.48,0.19 -0.66,0.19 -0.36,0 -0.92,-0.36 -1.68,-1.07 -0.67,-0.64 -1.37,-1.42 -2.09,-2.35 -0.6,-0.74 -1,-1.37 -1.2,-1.87 -0.21,-0.49 -0.32,-1.09 -0.32,-1.79 0,-1.01 0.07,-1.8 0.19,-2.37 0.2,-0.86 0.53,-1.29 1,-1.29 0.67,0 1.64,0.63 2.91,1.9 1.11,1.14 2.37,2.64 3.75,4.49 1.22,1.64 2.42,3.42 3.61,5.32l2.48 4c0.73,1.2 1.48,2.57 2.25,4.1 1.09,-2.19 1.85,-4.41 2.26,-6.65 0.35,-1.95 0.54,-4.43 0.54,-7.45l-1.4 -0.81c0,-1.07 0.09,-2.05 0.28,-2.92 0.19,-0.87 0.45,-1.67 0.79,-2.38l0.58 0.15c0.06,0.7 0.45,1.25 1.16,1.68 0.39,0.22 0.89,0.49 1.49,0.78 0.6,0.29 1.07,0.5 1.4,0.64zm-6.35 23.71c0,-0.36 -0.07,-0.72 -0.21,-1.11 -0.13,-0.38 -0.44,-1.01 -0.91,-1.88 -0.49,0.63 -1.21,1.36 -2.18,2.18 -0.96,0.84 -1.92,1.55 -2.86,2.13 1.91,0 3.28,-0.06 4.09,-0.18 1.38,-0.19 2.07,-0.57 2.07,-1.14zm-3.8 11.45c0,0.41 -0.25,0.78 -0.76,1.1 -0.34,0.22 -0.85,0.44 -1.54,0.69l-4.54 1.57c0,-0.76 0.82,-1.42 2.46,-1.99 -0.51,-0.27 -0.89,-0.52 -1.15,-0.76 -0.34,-0.31 -0.51,-0.64 -0.51,-0.98 0,-0.51 0.43,-1.23 1.3,-2.14 0.96,-1.02 1.81,-1.53 2.54,-1.53 0.33,0 0.61,0.11 0.84,0.34 0.25,0.22 0.36,0.51 0.36,0.88 0,0.23 -0.05,0.47 -0.15,0.71 -0.09,0.23 -0.23,0.51 -0.41,0.8 -0.5,-0.45 -1.05,-0.68 -1.64,-0.68 -0.36,0 -0.72,0.08 -1.07,0.22 -0.35,0.15 -0.53,0.32 -0.53,0.51 0,0.24 0.38,0.57 1.14,0.99 0.76,0.42 1.4,0.63 1.93,0.63 0.36,0 0.62,-0.01 0.77,-0.03 0.15,-0.03 0.48,-0.13 0.96,-0.33z"/>
  <path id="5" class="fil0" d="M145.36 30.21c0,1.3 -0.24,2.56 -0.72,3.78 -0.25,0.65 -0.78,1.68 -1.61,3.1l-0.44 -0.24c0.06,-0.48 0.11,-1.02 0.15,-1.64 0.05,-0.62 0.07,-1.04 0.07,-1.25 0,-1.69 -0.13,-4.05 -0.4,-7.08 -0.27,-3.03 -0.59,-6.2 -0.97,-9.51 -0.23,-1.99 -0.48,-4.03 -0.75,-6.12 0.32,-0.71 0.7,-1.48 1.11,-2.31 0.42,-0.83 0.81,-1.6 1.18,-2.33 0.26,1.85 0.6,4.39 1,7.6 0.4,3.22 0.71,6.12 0.94,8.71 0.29,3.22 0.44,5.65 0.44,7.29z"/>
  <path id="6" class="fil0" d="M169.04 34.92c0,2.7 -0.99,5.38 -2.98,8.05 -2.21,2.97 -4.76,4.46 -7.66,4.46 -1.07,0 -2.18,-0.12 -3.32,-0.37 -0.84,-0.17 -1.92,-0.48 -3.25,-0.91 -1.06,-0.38 -2.12,-0.73 -3.17,-1.09l0.41 -0.86c0.91,0.21 1.87,0.43 2.87,0.67 1,0.25 1.9,0.36 2.7,0.36 1.98,0 3.86,-0.51 5.63,-1.52 1.39,-0.81 2.77,-1.97 4.15,-3.5 0.7,-0.77 1.69,-2.03 2.97,-3.77 -2.19,0 -3.84,-0.35 -4.93,-1.06 -1.24,-0.8 -1.86,-2.12 -1.86,-3.95 0,-1.68 0.39,-3.25 1.17,-4.69 0.92,-1.66 2.08,-2.49 3.48,-2.49 1.42,0 2.44,0.82 3.06,2.48 0.49,1.29 0.73,3.09 0.73,5.39l0 2.8zm-1.54 -2.68c-0.36,-1.57 -0.8,-2.66 -1.3,-3.26 -0.44,-0.53 -0.98,-0.79 -1.61,-0.79 -0.46,0 -0.86,0.15 -1.19,0.45 -0.34,0.31 -0.5,0.69 -0.5,1.14 0,0.81 0.36,1.42 1.07,1.84 0.72,0.41 1.89,0.62 3.53,0.62z"/>
  <path id="7" class="fil0" d="M212.32 36.44l-4.27 0c-2.5,0 -4.38,0.06 -5.64,0.2 -1.25,0.12 -1.89,0.39 -1.89,0.78 0,0.54 0.76,0.82 2.28,0.82 0.66,0 1.19,0.01 1.58,0.05 0.39,0.03 1.25,0.11 2.56,0.26 0.79,0.1 1.33,0.22 1.62,0.37 0.48,0.24 0.71,0.67 0.71,1.27 0,3.04 -1,5.24 -3,6.63 -2.18,1.5 -5.78,2.26 -10.8,2.26 -3.5,0 -6.28,-0.59 -8.35,-1.78 -2.19,-1.27 -3.29,-3.08 -3.29,-5.42 0,-1.88 0.52,-3.88 1.55,-5.99 0.37,-0.76 1.34,-2.4 2.93,-4.9l0.97 0.48c-0.62,1.05 -1.21,2.1 -1.81,3.14 -0.93,1.79 -1.39,3.24 -1.39,4.38 0,2 1.04,3.52 3.13,4.56 1.99,0.99 4.71,1.48 8.18,1.48 2.33,0 4.38,-0.17 6.16,-0.53 2.18,-0.44 3.27,-1.03 3.27,-1.8 0,-0.27 -0.13,-0.48 -0.37,-0.62 -0.25,-0.14 -0.65,-0.2 -1.23,-0.2 -0.44,-0.05 -1.13,-0.1 -2.07,-0.16 -0.94,-0.06 -1.56,-0.09 -1.85,-0.09 -1.03,0 -1.77,-0.13 -2.21,-0.4 -0.44,-0.27 -0.66,-0.67 -0.66,-1.2 0,-2.03 0.59,-3.68 1.78,-4.96 0.97,-1.04 2.29,-1.81 3.93,-2.32 1.23,-0.38 2.54,-0.56 3.9,-0.56l4.28 0 0 4.25zm-10.1 15.63l-2.26 2.11 -2.73 -1.74 2.19 -2.31 2.8 1.94zm-5.04 0l-2.22 2.11 -2.83 -1.74 2.26 -2.31 2.79 1.94z"/>
  <path id="8" class="fil0" d="M224.53 36.44l-13.9 0 0 -4.25 12.15 0c0,-1.92 -0.24,-3.37 -0.69,-4.38 -0.31,-0.7 -1.08,-1.7 -2.31,-3.01l1.92 -4c1.16,1.48 1.88,2.63 2.18,3.46 0.43,1.25 0.65,3.32 0.65,6.22l0 5.96zm-2.6 -22.25c0,0.41 -0.25,0.78 -0.76,1.1 -0.34,0.22 -0.86,0.44 -1.54,0.69l-4.55 1.57c0,-0.76 0.83,-1.42 2.47,-1.99 -0.51,-0.27 -0.89,-0.52 -1.15,-0.76 -0.34,-0.31 -0.52,-0.64 -0.52,-0.99 0,-0.5 0.43,-1.22 1.3,-2.13 0.97,-1.02 1.82,-1.53 2.55,-1.53 0.32,0 0.61,0.11 0.84,0.34 0.24,0.22 0.36,0.51 0.36,0.88 0,0.23 -0.05,0.47 -0.15,0.71 -0.09,0.23 -0.23,0.51 -0.42,0.8 -0.5,-0.45 -1.05,-0.68 -1.64,-0.68 -0.36,0 -0.72,0.08 -1.07,0.22 -0.35,0.15 -0.52,0.32 -0.52,0.51 0,0.24 0.37,0.57 1.13,0.99 0.76,0.42 1.4,0.63 1.93,0.63 0.36,0 0.62,-0.01 0.78,-0.03 0.15,-0.03 0.47,-0.13 0.96,-0.33z"/>
  <path id="9" class="fil0" d="M236.03 36.44l-3.43 0c-1.12,0 -2.01,-0.45 -2.68,-1.34 -0.59,-0.79 -1.04,-1.94 -1.34,-3.49 -0.3,-1.54 -0.53,-3.44 -0.7,-5.71 -0.1,-1.83 -0.2,-3.71 -0.31,-5.65 -0.1,-1.93 -0.24,-3.4 -0.4,-4.4 -0.18,-1 -0.41,-1.81 -0.7,-2.45 -0.35,-0.78 -0.85,-1.46 -1.49,-2.05l2.98 -4.74c0.65,1.95 1.1,4.28 1.37,6.99 0.17,1.7 0.33,5.7 0.5,12 0.29,2.9 0.72,4.75 1.27,5.57 0.46,0.68 0.96,1.02 1.5,1.02l3.43 0 0 4.25z"/>
  <path id="10" class="fil0" d="M248.19 36.44l-13.89 0 0 -4.25 12.14 0c0,-1.92 -0.23,-3.37 -0.69,-4.38 -0.31,-0.7 -1.07,-1.7 -2.3,-3.01l1.92 -4c1.16,1.48 1.88,2.63 2.17,3.46 0.44,1.25 0.65,3.32 0.65,6.22l0 5.96zm-2 -22.57l-1.88 3.53 -3.91 -2.04 1.79 -3.56 4 2.07z"/>
  <path id="11" class="fil0" d="M274.68 36.44l-28.18 0 0 -4.25 19.89 0c-1.66,-1.29 -3.06,-2.29 -4.2,-3.01 -1.41,-0.9 -2.71,-1.54 -3.88,-1.95 -1.31,-0.46 -2.65,-0.69 -4,-0.69 -0.83,0 -1.66,0.06 -2.51,0.18 0.47,-1.2 1.09,-2.17 1.86,-2.89 1.1,-1.06 2.49,-1.58 4.19,-1.58 1.66,0 3.62,0.81 5.88,2.44 1.12,0.8 2.95,2.35 5.49,4.63 1.97,1.76 3.3,2.72 4,2.87l1.46 0 0 4.25zm-12.44 5.26l-1.88 3.53 -3.91 -2.04 1.79 -3.55 4 2.06z"/>
  <path id="12" class="fil0" d="M285.02 36.44l-12.04 0 0 -4.25 9.59 0 -3 -20.75 -1.25 -0.6c0,-1.12 0.1,-2.17 0.29,-3.15 0.2,-0.97 0.5,-1.93 0.89,-2.85l0.37 0.27c0,0.94 0.53,1.65 1.61,2.12 0.82,0.33 1.65,0.65 2.49,0.98 0,0.8 -0.07,1.66 -0.2,2.58 -0.13,0.92 -0.28,1.6 -0.47,2.05l-1.18 -0.39 2.9 19.2 0 4.79z"/>
  <path id="13" class="fil0" d="M293.26 30.21c0,1.3 -0.24,2.56 -0.71,3.78 -0.25,0.65 -0.79,1.68 -1.61,3.1l-0.44 -0.24c0.06,-0.48 0.11,-1.02 0.15,-1.64 0.04,-0.62 0.06,-1.04 0.06,-1.25 0,-1.69 -0.13,-4.05 -0.4,-7.08 -0.27,-3.03 -0.59,-6.2 -0.96,-9.51 -0.23,-1.99 -0.48,-4.03 -0.76,-6.12 0.33,-0.71 0.7,-1.48 1.12,-2.31 0.41,-0.83 0.81,-1.6 1.18,-2.33 0.26,1.85 0.59,4.39 0.99,7.6 0.4,3.22 0.72,6.12 0.94,8.71 0.29,3.22 0.44,5.65 0.44,7.29z"/>
  <path id="14" class="fil0" d="M334.53 33.4c0,2.6 -0.61,4.67 -1.83,6.19 -1.09,1.35 -2.69,2.33 -4.8,2.91 -1.78,0.49 -4.05,0.73 -6.8,0.73 -3.13,0 -5.56,-0.57 -7.28,-1.73 -1.88,-1.26 -2.83,-3.15 -2.83,-5.68 0,-1.4 0.21,-2.85 0.62,-4.36 0.34,-1.28 0.87,-2.69 1.57,-4.22 0.5,-1.1 1.2,-2.44 2.06,-3.99l0.85 0.46c-0.61,1.09 -1.13,2.06 -1.55,2.92 -0.55,1.15 -0.96,2.18 -1.22,3.09 -0.32,1.1 -0.48,2.17 -0.48,3.21 0,1.99 0.73,3.5 2.19,4.52 1.44,1.03 3.46,1.54 6.04,1.54 2.74,0 5.28,-0.48 7.61,-1.42 2.57,-1.04 3.85,-2.28 3.85,-3.73 0,-1.57 -0.25,-4.25 -0.74,-8.02 -0.38,-2.9 -0.86,-6.13 -1.42,-9.71l-0.79 -4.73 -1.1 -0.58c0,-2.19 0.44,-4.17 1.33,-5.96l0.42 0c0.07,0.62 0.18,1.08 0.33,1.38 0.17,0.3 0.44,0.52 0.8,0.67 0.5,0.21 1.05,0.46 1.64,0.76 0.43,0.21 0.81,0.39 1.13,0.56 0,1.14 -0.04,1.96 -0.13,2.49 -0.07,0.52 -0.24,1.25 -0.48,2.19l-1.39 -0.44c0.03,0.36 0.27,1.99 0.7,4.91 0.51,3.4 0.87,6.16 1.12,8.28 0.39,3.38 0.58,5.97 0.58,7.76z"/>
  <path id="15" class="fil0" d="M361.03 36.44l-28.18 0 0 -4.25 19.88 0c-1.65,-1.29 -3.05,-2.29 -4.19,-3.01 -1.42,-0.9 -2.71,-1.54 -3.88,-1.95 -1.32,-0.46 -2.65,-0.69 -4,-0.69 -0.83,0 -1.67,0.06 -2.52,0.18 0.48,-1.2 1.09,-2.17 1.86,-2.89 1.1,-1.06 2.5,-1.58 4.2,-1.58 1.66,0 3.61,0.81 5.88,2.44 1.11,0.8 2.95,2.35 5.49,4.63 1.96,1.76 3.29,2.72 3.99,2.87l1.47 0 0 4.25zm-12.44 5.26l-1.88 3.53 -3.92 -2.04 1.79 -3.55 4.01 2.06z"/>
  <path id="16" class="fil0" d="M387.55 36.44l-1.86 0c-1.03,0 -1.92,-0.14 -2.66,-0.43 -0.75,-0.28 -1.42,-0.69 -2.04,-1.2 -0.77,0.59 -1.43,0.99 -2.01,1.19 -0.83,0.29 -1.97,0.44 -3.43,0.44l-1.59 0c-0.85,0 -1.7,-0.17 -2.55,-0.49 -0.55,-0.21 -1.24,-0.56 -2.05,-1.05 -0.79,0.59 -1.5,0.99 -2.15,1.2 -0.65,0.23 -1.71,0.34 -3.17,0.34l-4.72 0 0 -4.25 4.72 0c1.32,0 2.27,-0.12 2.84,-0.34 0.94,-0.38 1.42,-1.13 1.42,-2.24 0,-0.48 -0.03,-0.95 -0.08,-1.42 -0.04,-0.47 -0.13,-1 -0.25,-1.58l0.97 -1.46c0.46,1.49 0.83,2.58 1.13,3.26 0.53,1.19 1.1,2.08 1.72,2.68 0.76,0.73 1.66,1.1 2.71,1.1l1.64 0c1.24,0 2.14,-0.18 2.74,-0.56 0.64,-0.42 0.98,-1.1 0.98,-2.02 0,-0.51 -0.04,-0.99 -0.09,-1.47 -0.07,-0.47 -0.15,-0.98 -0.26,-1.53l0.97 -1.46 0.51 2.29c0.44,1.81 0.98,3.07 1.61,3.77 0.56,0.62 1.3,0.93 2.25,0.93 0.43,0 0.79,-0.13 1.05,-0.41 0.27,-0.26 0.4,-0.61 0.4,-1.04 0,-0.91 -0.33,-1.88 -0.99,-2.9 -0.12,-0.16 -0.52,-0.7 -1.2,-1.6l1.57 -2.64c0.66,1 1.11,1.88 1.35,2.61 0.35,1.11 0.52,2.58 0.52,4.41l0 5.87z"/>
  <path id="17" class="fil0" d="M397.89 36.44l-12.04 0 0 -4.25 9.59 0 -3 -20.75 -1.25 -0.6c0,-1.12 0.1,-2.17 0.29,-3.15 0.2,-0.97 0.5,-1.93 0.89,-2.85l0.37 0.27c0,0.94 0.53,1.65 1.61,2.12 0.82,0.33 1.65,0.65 2.49,0.98 0,0.8 -0.07,1.66 -0.2,2.58 -0.12,0.92 -0.28,1.6 -0.47,2.05l-1.18 -0.39 2.9 19.2 0 4.79z"/>
  <path id="18" class="fil0" d="M408.23 36.44l-12.04 0 0 -4.25 9.59 0 -2.99 -20.75 -1.25 -0.6c0,-1.12 0.1,-2.17 0.29,-3.15 0.2,-0.97 0.49,-1.93 0.88,-2.85l0.38 0.27c0,0.94 0.53,1.65 1.6,2.12 0.82,0.33 1.65,0.65 2.49,0.98 0,0.8 -0.06,1.66 -0.2,2.58 -0.12,0.92 -0.28,1.6 -0.46,2.05l-1.19 -0.39 2.9 19.2 0 4.79z"/>
  <path id="19" class="fil0" d="M440.85 36.44l-3.49 0c-1.16,0 -2.19,-1 -3.09,-2.99 -0.67,-1.5 -1.2,-3.42 -1.61,-5.77 -0.48,0.9 -1.11,1.6 -1.85,2.11 -0.75,0.5 -1.54,0.75 -2.37,0.75 -1.86,0 -3.42,-0.12 -4.66,-0.37 -1.24,-0.26 -1.86,-0.58 -1.86,-0.97 0,-1.4 0.9,-2.95 2.72,-4.65 1.81,-1.69 4.07,-3.19 6.79,-4.45 -0.03,-0.13 -0.1,-0.47 -0.2,-1.03 -0.11,-0.55 -0.17,-0.89 -0.17,-1.01 0,-0.56 0.19,-1.18 0.57,-1.85 0.32,-0.56 0.74,-1.13 1.25,-1.71 0.17,1.01 0.34,1.98 0.5,2.93 0.18,0.94 0.37,1.91 0.6,2.92l0.73 4.19c0.41,2.3 0.77,4.01 1.1,5.12 0.51,1.69 1.02,2.53 1.56,2.53l3.48 0 0 4.25zm-8.52 -10.89l-0.47 -2.65c-1.4,0.51 -2.51,1.03 -3.31,1.57 -0.81,0.54 -1.49,1.27 -2.04,2.16 0.34,0.15 0.74,0.26 1.19,0.34 0.45,0.08 1.08,0.12 1.87,0.12 0.97,0 1.89,-0.51 2.76,-1.54zm2.28 -18.34l-1.8 3.54 -4 -2.04 1.85 -3.55 3.95 2.05zm-5.55 2.25l-1.81 3.49 -3.98 -2.07 1.88 -3.52 3.91 2.1z"/>
  <path id="20" class="fil0" d="M460.54 36.44l-2.53 0c-1.09,0 -2.32,-0.25 -3.68,-0.74 -1.58,-0.57 -2.96,-1.36 -4.17,-2.36 -0.94,1.17 -1.9,1.97 -2.88,2.42 -0.99,0.45 -2.43,0.68 -4.32,0.68l-3.8 0 0 -4.25 3.73 0c1.48,0 2.79,-0.37 3.94,-1.12 0.9,-0.59 1.71,-1.41 2.44,-2.48 0.99,-1.43 2.22,-2.68 3.67,-3.74 1.3,-0.94 2.49,-1.55 3.58,-1.8 1.12,1.7 2.01,3.24 2.68,4.62 0.89,1.86 1.34,3.36 1.34,4.51l0 4.26zm-2.8 -4.82c-0.21,-0.94 -0.53,-1.88 -0.97,-2.79 -0.38,-0.78 -0.88,-1.57 -1.49,-2.39 -0.78,0.2 -1.43,0.57 -1.97,1.11 -0.36,0.34 -0.78,0.93 -1.26,1.74 0.58,0.64 1.4,1.21 2.47,1.72 1.06,0.51 2.07,0.81 3.01,0.93l0.21 -0.32z"/>
  <path id="21" class="fil0" d="M472.03 36.44l-3.43 0c-1.11,0 -2,-0.45 -2.67,-1.34 -0.59,-0.79 -1.04,-1.94 -1.34,-3.49 -0.3,-1.54 -0.53,-3.44 -0.7,-5.71 -0.1,-1.83 -0.2,-3.71 -0.31,-5.65 -0.1,-1.93 -0.24,-3.4 -0.41,-4.4 -0.17,-1 -0.41,-1.81 -0.7,-2.45 -0.35,-0.78 -0.85,-1.46 -1.48,-2.05l2.97 -4.74c0.65,1.95 1.11,4.28 1.38,6.99 0.16,1.7 0.33,5.7 0.5,12 0.29,2.9 0.71,4.75 1.27,5.57 0.46,0.68 0.96,1.02 1.49,1.02l3.43 0 0 4.25z"/>
  <path id="22" class="fil0" d="M491.7 36.44l-3.59 0c-1.05,0 -2.12,-0.25 -3.21,-0.76 -1.3,-0.6 -2.24,-1.44 -2.82,-2.51 -1.09,0.98 -2.34,1.73 -3.74,2.27 -1.71,0.66 -3.65,1 -5.83,1l-2.2 0 0 -4.25 2.2 0c1.36,0 2.64,-0.15 3.81,-0.44 1.34,-0.33 2.65,-0.88 3.93,-1.62l-1.03 -1.31c-0.52,-0.62 -1.12,-0.93 -1.77,-0.93 -0.3,0 -0.55,0.05 -0.79,0.16 -0.22,0.11 -0.48,0.34 -0.75,0.69l-0.5 0 0 -1.44c0,-1.8 0.47,-3.03 1.41,-3.7 0.86,-0.6 2.35,-0.9 4.48,-0.9 1.83,0 3.33,0.24 4.48,0.73 1.51,0.63 2.27,1.61 2.27,2.93 0,0.7 -0.3,1.43 -0.9,2.18 -0.43,0.54 -1.23,1.31 -2.4,2.29 0.26,0.39 0.76,0.71 1.5,0.97 0.74,0.26 1.36,0.39 1.86,0.39l3.59 0 0 4.25z"/>
  <path id="23" class="fil0" d="M502.04 36.44l-12.04 0 0 -4.25 9.59 0 -3 -20.75 -1.25 -0.6c0,-1.12 0.1,-2.17 0.29,-3.15 0.2,-0.97 0.5,-1.93 0.89,-2.85l0.37 0.27c0,0.94 0.53,1.65 1.61,2.12 0.82,0.33 1.65,0.65 2.49,0.98 0,0.8 -0.07,1.66 -0.2,2.58 -0.12,0.92 -0.28,1.6 -0.47,2.05l-1.18 -0.39 2.9 19.2 0 4.79z"/>
  <path id="24" class="fil0" d="M510.28 30.21c0,1.3 -0.24,2.56 -0.71,3.78 -0.25,0.65 -0.79,1.68 -1.61,3.1l-0.44 -0.24c0.06,-0.48 0.11,-1.02 0.15,-1.64 0.04,-0.62 0.07,-1.04 0.07,-1.25 0,-1.69 -0.14,-4.05 -0.4,-7.08 -0.28,-3.03 -0.6,-6.2 -0.97,-9.51 -0.23,-1.99 -0.48,-4.03 -0.76,-6.12 0.33,-0.71 0.7,-1.48 1.12,-2.31 0.41,-0.83 0.81,-1.6 1.18,-2.33 0.26,1.85 0.59,4.39 0.99,7.6 0.4,3.22 0.72,6.12 0.94,8.71 0.29,3.22 0.44,5.65 0.44,7.29z"/>
  <path id="25" class="fil0" d="M545 36.44l-3.49 0c-1.16,0 -2.19,-1 -3.09,-2.99 -0.67,-1.5 -1.2,-3.42 -1.61,-5.77 -0.48,0.9 -1.11,1.6 -1.85,2.11 -0.75,0.5 -1.54,0.75 -2.37,0.75 -1.86,0 -3.42,-0.12 -4.66,-0.37 -1.24,-0.26 -1.86,-0.58 -1.86,-0.97 0,-1.4 0.9,-2.95 2.72,-4.65 1.81,-1.69 4.07,-3.19 6.79,-4.45 -0.03,-0.13 -0.1,-0.47 -0.2,-1.03 -0.11,-0.55 -0.17,-0.89 -0.17,-1.01 0,-0.56 0.19,-1.18 0.57,-1.85 0.32,-0.56 0.74,-1.13 1.25,-1.71 0.17,1.01 0.34,1.98 0.5,2.93 0.18,0.94 0.37,1.91 0.6,2.92l0.73 4.19c0.41,2.3 0.77,4.01 1.1,5.12 0.51,1.69 1.02,2.53 1.56,2.53l3.48 0 0 4.25zm-8.52 -10.89l-0.47 -2.65c-1.4,0.51 -2.51,1.03 -3.31,1.57 -0.81,0.54 -1.49,1.27 -2.04,2.16 0.34,0.15 0.74,0.26 1.19,0.34 0.45,0.08 1.08,0.12 1.87,0.12 0.97,0 1.89,-0.51 2.76,-1.54zm2.28 -18.34l-1.8 3.54 -4 -2.04 1.85 -3.55 3.95 2.05zm-5.55 2.25l-1.81 3.49 -3.98 -2.07 1.88 -3.52 3.91 2.1z"/>
  <path id="26" class="fil0" d="M557.2 36.44l-13.89 0 0 -4.25 12.14 0c0,-1.92 -0.24,-3.37 -0.69,-4.38 -0.31,-0.7 -1.08,-1.7 -2.31,-3.01l1.92 -4c1.16,1.48 1.89,2.63 2.18,3.46 0.43,1.25 0.65,3.32 0.65,6.22l0 5.96zm-0.25 4.79l-1.8 3.55 -4 -2.05 1.85 -3.54 3.95 2.04zm-5.55 2.25l-1.81 3.5 -3.99 -2.07 1.89 -3.53 3.91 2.1z"/>
  <path id="27" class="fil0" d="M581.64 36.43c0,1.79 -0.77,3.65 -2.3,5.57 -1.33,1.69 -2.99,3.15 -4.98,4.37 -1.88,1.18 -3.44,1.76 -4.66,1.76 -1.13,0 -2.34,-0.17 -3.64,-0.49 -0.99,-0.24 -2.19,-0.63 -3.57,-1.16 -1.16,-0.44 -2.33,-0.88 -3.49,-1.32l0.42 -0.98c1.07,0.22 2.19,0.44 3.36,0.66 1.16,0.23 2.22,0.34 3.16,0.34 2.08,0 4.26,-0.66 6.52,-2 2.06,-1.22 3.81,-2.76 5.26,-4.63 1.44,-1.86 2.17,-3.54 2.17,-5.03 0,-1.3 -0.37,-2.65 -1.12,-4.06 -0.6,-1.14 -1.45,-2.31 -2.53,-3.52l1.38 -3.84c1.33,1.24 2.31,2.47 2.94,3.71 0.72,1.4 1.08,2.97 1.08,4.69l0 5.93z"/>
  <path id="28" class="fil0" d="M593.82 36.44l-13.89 0 0 -4.25 12.14 0c0,-1.92 -0.23,-3.37 -0.69,-4.38 -0.31,-0.7 -1.07,-1.7 -2.3,-3.01l1.92 -4c1.16,1.48 1.88,2.63 2.17,3.46 0.44,1.25 0.65,3.32 0.65,6.22l0 5.96zm-0.25 4.79l-1.8 3.55 -3.99 -2.05 1.84 -3.54 3.95 2.04zm-5.54 2.25l-1.81 3.5 -3.99 -2.07 1.88 -3.53 3.92 2.1z"/>
  <path id="29" class="fil0" d="M610.67 36.44l-10.9 0c-0.93,0 -1.76,-0.27 -2.5,-0.81 -0.73,-0.53 -1.11,-1.17 -1.11,-1.9 0,-0.62 0.04,-1.17 0.1,-1.68 0.07,-0.5 0.19,-1.06 0.37,-1.66l0.5 0c0.18,0.67 0.51,1.14 0.97,1.43 0.39,0.25 0.94,0.37 1.62,0.37l9.45 0c0,-2.91 -0.41,-5.25 -1.22,-7.03 -1.02,-2.2 -2.71,-3.68 -5.08,-4.41l0.38 -4.75c2.82,1.38 4.82,3.59 6,6.62 0.95,2.44 1.42,5.63 1.42,9.57l0 4.25z"/>
  <path id="30" class="fil0" d="M630.37 36.44l-2.53 0c-1.09,0 -2.31,-0.25 -3.68,-0.74 -1.57,-0.57 -2.96,-1.36 -4.16,-2.36 -0.94,1.17 -1.91,1.97 -2.89,2.42 -0.99,0.45 -2.43,0.68 -4.32,0.68l-3.8 0 0 -4.25 3.73 0c1.48,0 2.8,-0.37 3.95,-1.12 0.9,-0.59 1.7,-1.41 2.44,-2.48 0.99,-1.43 2.21,-2.68 3.66,-3.74 1.3,-0.94 2.49,-1.55 3.58,-1.8 1.13,1.7 2.02,3.24 2.68,4.62 0.89,1.86 1.34,3.36 1.34,4.51l0 4.26zm-2.79 -4.82c-0.21,-0.94 -0.54,-1.88 -0.98,-2.79 -0.37,-0.78 -0.87,-1.57 -1.49,-2.39 -0.77,0.2 -1.43,0.57 -1.97,1.11 -0.35,0.34 -0.78,0.93 -1.26,1.74 0.58,0.64 1.41,1.21 2.47,1.72 1.06,0.51 2.07,0.81 3.01,0.93l0.22 -0.32z"/>
  <path id="31" class="fil0" d="M640.72 36.44l-12.05 0 0 -4.25 9.6 0 -3 -20.75 -1.25 -0.6c0,-1.12 0.1,-2.17 0.29,-3.15 0.2,-0.97 0.49,-1.93 0.89,-2.85l0.37 0.27c0,0.94 0.53,1.65 1.61,2.12 0.81,0.33 1.65,0.65 2.49,0.98 0,0.8 -0.07,1.66 -0.2,2.58 -0.13,0.92 -0.29,1.6 -0.47,2.05l-1.18 -0.39 2.9 19.2 0 4.79z"/>
  <path id="32" class="fil0" d="M648.96 30.21c0,1.3 -0.24,2.56 -0.71,3.78 -0.25,0.65 -0.79,1.68 -1.61,3.1l-0.44 -0.24c0.05,-0.48 0.1,-1.02 0.15,-1.64 0.04,-0.62 0.06,-1.04 0.06,-1.25 0,-1.69 -0.13,-4.05 -0.4,-7.08 -0.27,-3.03 -0.59,-6.2 -0.96,-9.51 -0.24,-1.99 -0.49,-4.03 -0.76,-6.12 0.32,-0.71 0.7,-1.48 1.12,-2.31 0.41,-0.83 0.8,-1.6 1.18,-2.33 0.26,1.85 0.59,4.39 0.99,7.6 0.4,3.22 0.72,6.12 0.94,8.71 0.29,3.22 0.44,5.65 0.44,7.29z"/>
 </g>
</svg>
