<?xml version="1.0" encoding="UTF-8"?>
<!DOCTYPE svg PUBLIC "-//W3C//DTD SVG 1.1//EN" "http://www.w3.org/Graphics/SVG/1.1/DTD/svg11.dtd">
<!-- Creator: CorelDRAW 2018 (64-Bit) -->
<svg xmlns="http://www.w3.org/2000/svg" xml:space="preserve" width="425px" height="59px" version="1.1" style="shape-rendering:geometricPrecision; text-rendering:geometricPrecision; image-rendering:optimizeQuality; fill-rule:evenodd; clip-rule:evenodd"
viewBox="0 0 425 59.03"
 xmlns:xlink="http://www.w3.org/1999/xlink">
 <defs>
  <style type="text/css">
   <![CDATA[
    .fil0 {fill:#2B2A29;fill-rule:nonzero}
   ]]>
  </style>
 </defs>
 <g id="Layer_x0020_1">
  <metadata id="CorelCorpID_0Corel-Layer"/>
  <path class="fil0" d="M14.97 36.44l-10.9 0c-0.93,0 -1.76,-0.26 -2.5,-0.8 -0.73,-0.54 -1.11,-1.17 -1.11,-1.9 0,-0.62 0.04,-1.18 0.1,-1.69 0.07,-0.49 0.19,-1.05 0.37,-1.65l0.5 0c0.18,0.66 0.51,1.14 0.97,1.43 0.39,0.24 0.94,0.37 1.62,0.37l9.45 0c0,-2.92 -0.4,-5.26 -1.22,-7.03 -1.02,-2.21 -2.71,-3.69 -5.07,-4.42l0.37 -4.75c2.82,1.39 4.82,3.59 6,6.63 0.95,2.44 1.42,5.63 1.42,9.57l0 4.24z"/>
  <path id="1" class="fil0" d="M34.9 23.67c0,0.32 -0.02,0.6 -0.05,0.82 -0.04,0.23 -0.11,0.52 -0.25,0.86 -0.9,-2.03 -2.25,-4.12 -4.04,-6.29 -1.99,-2.38 -3.54,-3.58 -4.68,-3.58 -0.25,0 -0.49,0.22 -0.73,0.64 -0.24,0.43 -0.52,0.63 -0.85,0.63 -0.44,0 -1.13,-0.28 -2.07,-0.86 -1.19,-0.71 -2.14,-1.54 -2.85,-2.48 -0.96,-1.28 -1.44,-2.63 -1.44,-4.06 0,-1.03 0.33,-1.54 1,-1.54 1.16,0 2.99,0.74 5.48,2.22 2.78,1.64 5.11,3.56 6.99,5.76 2.33,2.68 3.49,5.3 3.49,7.88zm10.12 12.77l-1.5 0c-1.37,0 -2.47,-0.74 -3.31,-2.21 -0.99,-1.78 -1.49,-4.49 -1.49,-8.11 0,-0.25 -0.03,-0.6 -0.09,-1.05 -0.06,-0.43 -0.09,-0.7 -0.09,-0.82 -1.55,4.33 -2.95,7.31 -4.16,8.91 -1.44,1.88 -3.47,3.13 -6.11,3.75 -2.24,0.53 -6.04,0.78 -11.43,0.78l0 -0.7c4.36,-1.31 7.61,-2.44 9.75,-3.4 3.45,-1.54 6.07,-3.29 7.86,-5.29 2.15,-2.4 3.23,-5.25 3.23,-8.55 0,-1.59 -0.1,-3.08 -0.3,-4.45 -0.2,-1.39 -0.48,-2.8 -0.83,-4.24l0.8 -2.07c0.33,-0.8 0.63,-1.47 0.9,-2.03 0.43,2.34 0.84,4.87 1.21,7.58 0.27,1.87 0.52,3.88 0.77,6.03 0.3,2.63 0.58,4.75 0.8,6.36 0.3,2.05 0.74,3.51 1.33,4.39 0.39,0.58 0.78,0.88 1.17,0.88l1.49 0 0 4.24z"/>
  <path id="2" class="fil0" d="M57.2 36.44l-13.89 0 0 -4.24 12.14 0c0,-1.92 -0.23,-3.38 -0.69,-4.38 -0.31,-0.71 -1.07,-1.7 -2.31,-3.02l1.93 -4c1.16,1.48 1.88,2.63 2.17,3.47 0.44,1.25 0.65,3.32 0.65,6.22l0 5.95zm-0.25 4.8l-1.8 3.55 -4 -2.05 1.85 -3.55 3.95 2.05zm-5.55 2.25l-1.8 3.5 -3.99 -2.07 1.88 -3.53 3.91 2.1z"/>
  <path id="3" class="fil0" d="M76.9 36.44l-2.53 0c-1.09,0 -2.32,-0.25 -3.68,-0.74 -1.58,-0.56 -2.96,-1.36 -4.17,-2.35 -0.94,1.16 -1.91,1.97 -2.89,2.42 -0.98,0.45 -2.42,0.67 -4.31,0.67l-3.81 0 0 -4.24 3.73 0c1.48,0 2.8,-0.38 3.95,-1.13 0.9,-0.59 1.71,-1.41 2.44,-2.47 0.99,-1.43 2.22,-2.68 3.67,-3.74 1.29,-0.94 2.49,-1.55 3.58,-1.81 1.12,1.71 2.01,3.25 2.68,4.62 0.89,1.86 1.34,3.37 1.34,4.52l0 4.25zm-2.8 -4.81c-0.21,-0.95 -0.53,-1.88 -0.97,-2.8 -0.38,-0.77 -0.88,-1.57 -1.49,-2.38 -0.78,0.2 -1.44,0.57 -1.97,1.11 -0.36,0.34 -0.78,0.92 -1.27,1.74 0.59,0.64 1.41,1.21 2.48,1.71 1.06,0.51 2.06,0.82 3.01,0.94l0.21 -0.32z"/>
  <path id="4" class="fil0" d="M87.25 36.44l-12.05 0 0 -4.24 9.6 0 -3 -20.76 -1.25 -0.6c0,-1.12 0.1,-2.17 0.29,-3.15 0.2,-0.97 0.49,-1.93 0.88,-2.85l0.38 0.27c0,0.94 0.53,1.65 1.6,2.12 0.82,0.33 1.65,0.65 2.5,0.98 0,0.81 -0.07,1.66 -0.2,2.58 -0.13,0.92 -0.29,1.61 -0.47,2.06l-1.18 -0.39 2.9 19.19 0 4.79z"/>
  <path id="5" class="fil0" d="M95.49 30.21c0,1.3 -0.24,2.57 -0.71,3.79 -0.25,0.64 -0.79,1.68 -1.61,3.09l-0.44 -0.24c0.05,-0.47 0.1,-1.01 0.15,-1.64 0.04,-0.62 0.06,-1.03 0.06,-1.24 0,-1.69 -0.13,-4.06 -0.4,-7.09 -0.27,-3.03 -0.59,-6.2 -0.96,-9.5 -0.24,-2 -0.49,-4.04 -0.76,-6.12 0.32,-0.72 0.7,-1.49 1.11,-2.32 0.42,-0.82 0.81,-1.6 1.19,-2.33 0.26,1.85 0.59,4.39 0.99,7.6 0.4,3.23 0.72,6.13 0.94,8.72 0.29,3.21 0.44,5.64 0.44,7.28z"/>
  <path id="6" class="fil0" d="M137.76 36.44l-3.34 0c-1.98,0 -3.38,-0.36 -4.2,-1.1 -0.84,-0.73 -1.25,-1.94 -1.25,-3.64 0,-0.64 0.08,-1.43 0.25,-2.38 0.06,-0.36 0.15,-0.83 0.26,-1.41 -2.78,0.85 -4.88,1.57 -6.29,2.17 -2.61,1.11 -4.63,2.36 -6.06,3.77 -1.81,1.75 -2.7,3.75 -2.7,6 0,3.5 1.82,6.13 5.46,7.89 3.16,1.53 7.4,2.3 12.69,2.3l4.48 0 0.15 0.26 -5.5 3.89 -1.42 0c-3.51,0 -6.43,-0.33 -8.76,-0.98 -2.77,-0.78 -4.88,-2.04 -6.31,-3.76 -1.63,-1.97 -2.44,-4.58 -2.44,-7.82 0,-2.79 0.69,-5.22 2.07,-7.3 1.07,-1.63 2.65,-3.13 4.71,-4.47 0.61,-0.41 2.29,-1.34 5.03,-2.81 -0.64,-0.08 -1.33,-0.16 -2.05,-0.22 -0.73,-0.06 -1.39,-0.08 -1.97,-0.08 -1.64,0 -2.97,0.07 -4,0.22 -0.34,0.05 -1.4,0.27 -3.19,0.66 0.54,-1.6 1.13,-2.7 1.73,-3.32 1.35,-1.38 3.46,-2.06 6.34,-2.06 1.58,0 3.29,0.15 5.13,0.46 1.83,0.31 3.38,0.46 4.63,0.46 0.83,0 1.64,-0.04 2.43,-0.1 0.78,-0.07 1.62,-0.15 2.47,-0.27l-0.97 4.15c-0.67,0.08 -1.42,0.2 -2.26,0.34 -0.54,0.1 -1.27,0.24 -2.21,0.42l-0.05 1.37c0,1.34 0.41,2.24 1.21,2.7 0.51,0.27 1.37,0.42 2.59,0.42l3.34 0 0 4.24zm-9.74 -22.72l-1.88 3.53 -3.92 -2.04 1.79 -3.55 4.01 2.06z"/>
  <path id="7" class="fil0" d="M149.95 36.44l-13.89 0 0 -4.24 12.14 0c0,-1.92 -0.23,-3.38 -0.69,-4.38 -0.31,-0.71 -1.08,-1.7 -2.31,-3.02l1.93 -4c1.15,1.48 1.88,2.63 2.17,3.47 0.43,1.25 0.65,3.32 0.65,6.22l0 5.95zm-0.25 4.8l-1.8 3.55 -4 -2.05 1.85 -3.55 3.95 2.05zm-5.55 2.25l-1.8 3.5 -3.99 -2.07 1.88 -3.53 3.91 2.1z"/>
  <path id="8" class="fil0" d="M174.4 36.44c0,1.79 -0.77,3.64 -2.3,5.57 -1.33,1.69 -2.99,3.15 -4.98,4.37 -1.89,1.18 -3.44,1.76 -4.67,1.76 -1.12,0 -2.33,-0.17 -3.64,-0.49 -0.99,-0.24 -2.18,-0.64 -3.56,-1.16 -1.17,-0.44 -2.33,-0.88 -3.49,-1.33l0.41 -0.97c1.08,0.22 2.19,0.43 3.36,0.66 1.17,0.22 2.22,0.34 3.17,0.34 2.08,0 4.25,-0.67 6.52,-2 2.05,-1.22 3.8,-2.76 5.25,-4.63 1.45,-1.87 2.18,-3.54 2.18,-5.04 0,-1.29 -0.38,-2.64 -1.12,-4.06 -0.6,-1.14 -1.45,-2.3 -2.53,-3.51l1.37 -3.85c1.34,1.24 2.32,2.47 2.95,3.72 0.72,1.4 1.08,2.96 1.08,4.69l0 5.93z"/>
  <path id="9" class="fil0" d="M185.88 36.44l-3.43 0c-1.12,0 -2.01,-0.45 -2.67,-1.34 -0.59,-0.78 -1.04,-1.94 -1.34,-3.49 -0.3,-1.54 -0.54,-3.44 -0.7,-5.7 -0.1,-1.83 -0.2,-3.72 -0.31,-5.66 -0.1,-1.93 -0.24,-3.4 -0.41,-4.4 -0.18,-1 -0.41,-1.81 -0.7,-2.44 -0.35,-0.79 -0.85,-1.47 -1.48,-2.05l2.97 -4.75c0.65,1.95 1.11,4.28 1.38,6.99 0.16,1.7 0.33,5.7 0.5,12.01 0.29,2.9 0.71,4.75 1.27,5.56 0.46,0.68 0.96,1.03 1.49,1.03l3.43 0 0 4.24z"/>
  <path id="10" class="fil0" d="M198.05 36.44l-13.89 0 0 -4.24 12.14 0c0,-1.92 -0.23,-3.38 -0.69,-4.38 -0.31,-0.71 -1.07,-1.7 -2.31,-3.02l1.93 -4c1.16,1.48 1.88,2.63 2.17,3.47 0.44,1.25 0.65,3.32 0.65,6.22l0 5.95zm-0.15 -24.13l-1.8 3.54 -4 -2.04 1.85 -3.55 3.95 2.05zm-5.55 2.25l-1.8 3.49 -3.99 -2.07 1.88 -3.52 3.91 2.1z"/>
  <polygon id="11" class="fil0" points="211.95,44.19 222.34,7.21 225.88,7.21 215.49,44.19 "/>
  <path id="12" class="fil0" d="M256.56 36.44l-10.9 0c-0.93,0 -1.76,-0.26 -2.5,-0.8 -0.74,-0.54 -1.11,-1.17 -1.11,-1.9 0,-0.62 0.03,-1.18 0.1,-1.69 0.07,-0.49 0.19,-1.05 0.37,-1.65l0.49 0c0.19,0.66 0.51,1.14 0.98,1.43 0.39,0.24 0.93,0.37 1.62,0.37l9.45 0c0,-2.92 -0.41,-5.26 -1.23,-7.03 -1.01,-2.21 -2.7,-3.69 -5.07,-4.42l0.38 -4.75c2.82,1.39 4.82,3.59 5.99,6.63 0.95,2.44 1.43,5.63 1.43,9.57l0 4.24z"/>
  <path id="13" class="fil0" d="M276.48 23.67c0,0.32 -0.01,0.6 -0.05,0.82 -0.03,0.23 -0.11,0.52 -0.24,0.86 -0.91,-2.03 -2.26,-4.12 -4.05,-6.29 -1.98,-2.38 -3.54,-3.58 -4.67,-3.58 -0.25,0 -0.49,0.22 -0.73,0.64 -0.24,0.43 -0.53,0.63 -0.85,0.63 -0.44,0 -1.14,-0.28 -2.08,-0.86 -1.18,-0.71 -2.14,-1.54 -2.85,-2.48 -0.95,-1.28 -1.44,-2.63 -1.44,-4.06 0,-1.03 0.34,-1.54 1,-1.54 1.17,0 3,0.74 5.48,2.22 2.79,1.64 5.12,3.56 7,5.76 2.32,2.68 3.48,5.3 3.48,7.88zm10.13 12.77l-1.5 0c-1.37,0 -2.47,-0.74 -3.31,-2.21 -1,-1.78 -1.49,-4.49 -1.49,-8.11 0,-0.25 -0.04,-0.6 -0.1,-1.05 -0.05,-0.43 -0.08,-0.7 -0.08,-0.82 -1.56,4.33 -2.95,7.31 -4.16,8.91 -1.44,1.88 -3.48,3.13 -6.11,3.75 -2.24,0.53 -6.05,0.78 -11.44,0.78l0 -0.7c4.37,-1.31 7.62,-2.44 9.76,-3.4 3.45,-1.54 6.07,-3.29 7.85,-5.29 2.16,-2.4 3.23,-5.25 3.23,-8.55 0,-1.59 -0.1,-3.08 -0.3,-4.45 -0.2,-1.39 -0.47,-2.8 -0.82,-4.24l0.8 -2.07c0.32,-0.8 0.62,-1.47 0.9,-2.03 0.42,2.34 0.83,4.87 1.21,7.58 0.26,1.87 0.51,3.88 0.76,6.03 0.31,2.63 0.59,4.75 0.81,6.36 0.29,2.05 0.73,3.51 1.32,4.39 0.4,0.58 0.79,0.88 1.18,0.88l1.49 0 0 4.24z"/>
  <path id="14" class="fil0" d="M298.79 36.44l-13.89 0 0 -4.24 12.14 0c0,-1.92 -0.23,-3.38 -0.69,-4.38 -0.31,-0.71 -1.08,-1.7 -2.31,-3.02l1.92 -4c1.16,1.48 1.89,2.63 2.18,3.47 0.43,1.25 0.65,3.32 0.65,6.22l0 5.95zm-0.25 4.8l-1.8 3.55 -4 -2.05 1.85 -3.55 3.95 2.05zm-5.55 2.25l-1.81 3.5 -3.99 -2.07 1.89 -3.53 3.91 2.1z"/>
  <path id="15" class="fil0" d="M318.49 36.44l-2.54 0c-1.09,0 -2.31,-0.25 -3.68,-0.74 -1.57,-0.56 -2.95,-1.36 -4.16,-2.35 -0.94,1.16 -1.91,1.97 -2.89,2.42 -0.98,0.45 -2.43,0.67 -4.32,0.67l-3.8 0 0 -4.24 3.73 0c1.48,0 2.8,-0.38 3.95,-1.13 0.9,-0.59 1.7,-1.41 2.44,-2.47 0.99,-1.43 2.21,-2.68 3.66,-3.74 1.3,-0.94 2.49,-1.55 3.58,-1.81 1.13,1.71 2.02,3.25 2.69,4.62 0.89,1.86 1.34,3.37 1.34,4.52l0 4.25zm-2.8 -4.81c-0.21,-0.95 -0.53,-1.88 -0.98,-2.8 -0.37,-0.77 -0.87,-1.57 -1.49,-2.38 -0.77,0.2 -1.43,0.57 -1.96,1.11 -0.36,0.34 -0.79,0.92 -1.27,1.74 0.58,0.64 1.41,1.21 2.47,1.71 1.06,0.51 2.07,0.82 3.01,0.94l0.22 -0.32z"/>
  <path id="16" class="fil0" d="M328.83 36.44l-12.04 0 0 -4.24 9.59 0 -3 -20.76 -1.25 -0.6c0,-1.12 0.1,-2.17 0.3,-3.15 0.2,-0.97 0.49,-1.93 0.88,-2.85l0.37 0.27c0,0.94 0.54,1.65 1.61,2.12 0.82,0.33 1.65,0.65 2.49,0.98 0,0.81 -0.06,1.66 -0.2,2.58 -0.12,0.92 -0.28,1.61 -0.46,2.06l-1.19 -0.39 2.9 19.19 0 4.79z"/>
  <path id="17" class="fil0" d="M337.08 30.21c0,1.3 -0.24,2.57 -0.72,3.79 -0.25,0.64 -0.78,1.68 -1.61,3.09l-0.44 -0.24c0.06,-0.47 0.11,-1.01 0.15,-1.64 0.04,-0.62 0.07,-1.03 0.07,-1.24 0,-1.69 -0.13,-4.06 -0.4,-7.09 -0.28,-3.03 -0.59,-6.2 -0.97,-9.5 -0.23,-2 -0.48,-4.04 -0.75,-6.12 0.32,-0.72 0.69,-1.49 1.11,-2.32 0.42,-0.82 0.81,-1.6 1.18,-2.33 0.26,1.85 0.6,4.39 1,7.6 0.39,3.23 0.71,6.13 0.94,8.72 0.29,3.21 0.44,5.64 0.44,7.28z"/>
  <path id="18" class="fil0" d="M378.35 33.4c0,2.6 -0.61,4.68 -1.82,6.2 -1.09,1.35 -2.69,2.33 -4.81,2.91 -1.78,0.49 -4.05,0.73 -6.8,0.73 -3.13,0 -5.56,-0.57 -7.28,-1.73 -1.89,-1.27 -2.83,-3.16 -2.83,-5.68 0,-1.4 0.21,-2.85 0.62,-4.37 0.34,-1.28 0.87,-2.69 1.56,-4.21 0.51,-1.11 1.2,-2.44 2.07,-4l0.85 0.46c-0.62,1.09 -1.13,2.06 -1.55,2.92 -0.55,1.15 -0.96,2.18 -1.22,3.09 -0.32,1.1 -0.48,2.18 -0.48,3.22 0,1.99 0.73,3.5 2.18,4.52 1.45,1.02 3.47,1.53 6.05,1.53 2.74,0 5.28,-0.47 7.61,-1.41 2.57,-1.04 3.85,-2.28 3.85,-3.73 0,-1.58 -0.25,-4.25 -0.74,-8.03 -0.38,-2.89 -0.86,-6.13 -1.42,-9.71l-0.79 -4.73 -1.1 -0.58c0,-2.18 0.45,-4.17 1.33,-5.96l0.42 0c0.07,0.62 0.18,1.08 0.34,1.38 0.16,0.3 0.43,0.52 0.8,0.67 0.5,0.21 1.04,0.46 1.63,0.76 0.43,0.21 0.81,0.39 1.13,0.56 0,1.14 -0.04,1.96 -0.12,2.49 -0.08,0.52 -0.25,1.25 -0.49,2.2l-1.39 -0.44c0.04,0.35 0.27,1.99 0.7,4.9 0.51,3.4 0.88,6.16 1.12,8.28 0.39,3.38 0.58,5.97 0.58,7.76z"/>
  <path id="19" class="fil0" d="M404.85 36.44l-28.18 0 0 -4.24 19.89 0c-1.66,-1.3 -3.06,-2.29 -4.2,-3.01 -1.41,-0.9 -2.71,-1.55 -3.88,-1.96 -1.32,-0.46 -2.65,-0.68 -4,-0.68 -0.83,0 -1.66,0.06 -2.51,0.17 0.47,-1.2 1.09,-2.16 1.85,-2.89 1.1,-1.05 2.5,-1.58 4.2,-1.58 1.66,0 3.62,0.82 5.88,2.44 1.12,0.81 2.95,2.36 5.49,4.63 1.97,1.77 3.3,2.73 4,2.88l1.46 0 0 4.24z"/>
  <path id="20" class="fil0" d="M424.54 36.44l-2.54 0c-1.09,0 -2.31,-0.25 -3.68,-0.74 -1.57,-0.56 -2.95,-1.36 -4.16,-2.35 -0.94,1.16 -1.91,1.97 -2.89,2.42 -0.98,0.45 -2.42,0.67 -4.32,0.67l-3.8 0 0 -4.24 3.73 0c1.48,0 2.8,-0.38 3.95,-1.13 0.9,-0.59 1.7,-1.41 2.44,-2.47 0.99,-1.43 2.21,-2.68 3.66,-3.74 1.3,-0.94 2.49,-1.55 3.58,-1.81 1.13,1.71 2.02,3.25 2.69,4.62 0.89,1.86 1.34,3.37 1.34,4.52l0 4.25zm-2.8 -4.81c-0.21,-0.95 -0.53,-1.88 -0.98,-2.8 -0.37,-0.77 -0.87,-1.57 -1.49,-2.38 -0.77,0.2 -1.43,0.57 -1.96,1.11 -0.36,0.34 -0.79,0.92 -1.27,1.74 0.58,0.64 1.41,1.21 2.48,1.71 1.05,0.51 2.06,0.82 3,0.94l0.22 -0.32z"/>
 </g>
</svg>
