<?xml version="1.0" encoding="UTF-8"?>
<!DOCTYPE svg PUBLIC "-//W3C//DTD SVG 1.1//EN" "http://www.w3.org/Graphics/SVG/1.1/DTD/svg11.dtd">
<!-- Creator: CorelDRAW 2018 (64-Bit) -->
<svg xmlns="http://www.w3.org/2000/svg" xml:space="preserve" width="100px" height="59px" version="1.1" style="shape-rendering:geometricPrecision; text-rendering:geometricPrecision; image-rendering:optimizeQuality; fill-rule:evenodd; clip-rule:evenodd"
viewBox="0 0 100 58.82"
 xmlns:xlink="http://www.w3.org/1999/xlink">
 <defs>
  <style type="text/css">
   <![CDATA[
    .fil0 {fill:#2B2A29;fill-rule:nonzero}
   ]]>
  </style>
 </defs>
 <g id="Layer_x0020_1">
  <metadata id="CorelCorpID_0Corel-Layer"/>
  <path class="fil0" d="M18.36 36.77l-2.9 0c-2.69,0 -5.05,0.25 -7.07,0.75 -2.55,0.63 -3.82,1.54 -3.82,2.72 0,1.08 0.18,2.22 0.54,3.43 0.37,1.22 0.74,2.45 1.12,3.7 0.39,1.25 0.58,2.39 0.58,3.43 0,0.62 -0.04,1.17 -0.14,1.68 -0.09,0.5 -0.25,1.15 -0.49,1.97 -0.41,-1.35 -0.82,-2.69 -1.22,-4.04 -0.78,-2.56 -1.35,-4.5 -1.71,-5.82 -0.58,-2.07 -0.87,-3.32 -0.87,-3.74 0,-2.07 0.43,-3.67 1.3,-4.78 0.86,-1.11 2.2,-1.93 4,-2.47 1.43,-0.42 3.58,-0.78 6.45,-1.07 -1.02,-1.04 -1.66,-1.67 -1.9,-1.86 -0.83,-0.65 -1.67,-0.98 -2.52,-0.98 -0.54,0 -1.05,0.17 -1.53,0.49 -0.4,0.27 -0.87,0.72 -1.42,1.36l-1.1 -0.72c0.49,-1.21 1.04,-2.18 1.65,-2.91 1.03,-1.2 2.24,-1.8 3.63,-1.8 1.01,0 2.01,0.37 3.01,1.12 0.83,0.61 1.68,1.48 2.54,2.58 0.42,0.53 1.04,1.45 1.87,2.72l0 4.24z"/>
  <path id="1" class="fil0" d="M47.34 36.77l-30.68 0 0 -4.24 3.73 -0.02c1.1,0 2.14,-0.14 3.09,-0.43 1.11,-0.34 2.36,-0.94 3.76,-1.8 0.29,-0.71 0.53,-1.48 0.71,-2.3 0.17,-0.82 0.26,-1.61 0.26,-2.37 0,-1.73 -0.15,-3.64 -0.48,-5.74 -0.24,-1.52 -0.6,-3.31 -1.09,-5.37 -0.26,-1.07 -0.59,-2.37 -1.02,-3.91l-1.49 -0.76c0.12,-0.97 0.28,-1.92 0.5,-2.82 0.22,-0.91 0.53,-1.79 0.92,-2.63 0.26,0.76 0.85,1.35 1.76,1.77 0.75,0.34 1.73,0.57 2.9,0.68 -0.16,1.67 -0.29,2.74 -0.37,3.19 -0.08,0.46 -0.23,1.02 -0.46,1.69 -0.11,-0.02 -0.41,-0.1 -0.9,-0.24l-0.32 -0.1c0.58,1.9 1.07,3.84 1.44,5.85 0.37,2 0.56,3.68 0.56,5.04 0,1.15 -0.12,2.44 -0.35,3.85 -0.09,0.5 -0.23,1.28 -0.45,2.33 2.83,-1.64 4.64,-2.65 5.44,-3.02 2.39,-1.14 4.45,-1.7 6.16,-1.7 2.18,0 3.81,0.64 4.9,1.92 0.99,1.17 1.48,2.83 1.48,4.98l0 6.15zm-3.84 -6.1c0,-0.83 -0.42,-1.45 -1.27,-1.88 -0.85,-0.42 -2.07,-0.64 -3.67,-0.64 -1.17,0 -2.54,0.26 -4.08,0.77 -1.26,0.43 -2.61,1.01 -4.03,1.75 -1.06,0.54 -2.14,1.17 -3.26,1.86l10.58 0c3.82,0 5.73,-0.62 5.73,-1.86zm-2.88 -16.55l-1.88 3.52 -3.9 -2.03 1.78 -3.55 4 2.06z"/>
  <path id="2" class="fil0" d="M59.47 36.77l-13.85 0 0 -4.24 12.1 0c0,-1.91 -0.23,-3.36 -0.69,-4.36 -0.3,-0.7 -1.07,-1.7 -2.29,-3.01l1.91 -3.98c1.16,1.48 1.88,2.62 2.17,3.45 0.43,1.25 0.65,3.31 0.65,6.2l0 5.94zm-2 -22.5l-1.87 3.52 -3.9 -2.03 1.78 -3.55 3.99 2.06z"/>
  <path id="3" class="fil0" d="M79.1 36.77l-2.53 0c-1.08,0 -2.3,-0.25 -3.67,-0.74 -1.56,-0.57 -2.94,-1.36 -4.15,-2.35 -0.93,1.16 -1.9,1.97 -2.88,2.41 -0.98,0.45 -2.41,0.68 -4.3,0.68l-3.79 0 0 -4.24 3.72 0c1.48,0 2.79,-0.37 3.93,-1.12 0.9,-0.59 1.71,-1.4 2.44,-2.46 0.98,-1.43 2.2,-2.68 3.65,-3.73 1.29,-0.94 2.48,-1.54 3.57,-1.8 1.12,1.7 2.01,3.24 2.67,4.61 0.89,1.85 1.34,3.35 1.34,4.49l0 4.25zm-2.79 -4.8c-0.21,-0.95 -0.53,-1.88 -0.97,-2.79 -0.38,-0.77 -0.88,-1.56 -1.49,-2.37 -0.77,0.19 -1.43,0.56 -1.96,1.1 -0.35,0.34 -0.78,0.92 -1.26,1.73 0.58,0.64 1.4,1.21 2.47,1.71 1.05,0.51 2.05,0.82 2.99,0.93l0.22 -0.31z"/>
  <path id="4" class="fil0" d="M89.41 36.77l-12.01 0 0 -4.24 9.57 0 -2.99 -20.68 -1.25 -0.6c0,-1.11 0.1,-2.16 0.29,-3.14 0.2,-0.97 0.49,-1.92 0.88,-2.84l0.38 0.27c0,0.94 0.53,1.64 1.6,2.12 0.81,0.32 1.64,0.64 2.48,0.97 0,0.8 -0.07,1.66 -0.2,2.57 -0.12,0.92 -0.28,1.6 -0.46,2.05l-1.18 -0.39 2.89 19.13 0 4.78z"/>
  <path id="5" class="fil0" d="M97.62 30.56c0,1.29 -0.24,2.55 -0.71,3.77 -0.25,0.64 -0.78,1.67 -1.6,3.08l-0.44 -0.24c0.06,-0.47 0.11,-1.01 0.15,-1.63 0.04,-0.62 0.06,-1.03 0.06,-1.24 0,-1.68 -0.13,-4.04 -0.4,-7.06 -0.27,-3.02 -0.58,-6.18 -0.96,-9.47 -0.23,-2 -0.48,-4.03 -0.75,-6.1 0.32,-0.72 0.69,-1.48 1.11,-2.31 0.41,-0.82 0.8,-1.6 1.18,-2.33 0.26,1.85 0.59,4.38 0.99,7.58 0.39,3.21 0.71,6.1 0.93,8.68 0.29,3.21 0.44,5.63 0.44,7.27z"/>
 </g>
</svg>
