<?xml version="1.0" encoding="UTF-8"?>
<!DOCTYPE svg PUBLIC "-//W3C//DTD SVG 1.1//EN" "http://www.w3.org/Graphics/SVG/1.1/DTD/svg11.dtd">
<!-- Creator: CorelDRAW 2018 (64-Bit) -->
<svg xmlns="http://www.w3.org/2000/svg" xml:space="preserve" width="165px" height="59px" version="1.1" style="shape-rendering:geometricPrecision; text-rendering:geometricPrecision; image-rendering:optimizeQuality; fill-rule:evenodd; clip-rule:evenodd"
viewBox="0 0 165 58.93"
 xmlns:xlink="http://www.w3.org/1999/xlink">
 <defs>
  <style type="text/css">
   <![CDATA[
    .fil0 {fill:#2B2A29;fill-rule:nonzero}
   ]]>
  </style>
 </defs>
 <g id="Layer_x0020_1">
  <metadata id="CorelCorpID_0Corel-Layer"/>
  <path class="fil0" d="M20.7 36.38l-3.49 0c-1.16,0 -2.19,-0.99 -3.09,-2.98 -0.67,-1.5 -1.2,-3.42 -1.61,-5.76 -0.48,0.9 -1.1,1.6 -1.84,2.11 -0.75,0.5 -1.54,0.75 -2.36,0.75 -1.87,0 -3.42,-0.13 -4.66,-0.38 -1.24,-0.26 -1.86,-0.57 -1.86,-0.96 0,-1.4 0.9,-2.95 2.72,-4.64 1.8,-1.7 4.06,-3.19 6.78,-4.45 -0.03,-0.13 -0.1,-0.47 -0.21,-1.02 -0.11,-0.55 -0.16,-0.89 -0.16,-1.02 0,-0.56 0.19,-1.17 0.57,-1.84 0.32,-0.56 0.73,-1.13 1.25,-1.71 0.16,1.01 0.33,1.98 0.5,2.92 0.17,0.94 0.36,1.91 0.6,2.92l0.72 4.18c0.41,2.3 0.77,4.01 1.1,5.11 0.5,1.69 1.02,2.53 1.56,2.53l3.48 0 0 4.24zm-8.51 -10.87l-0.47 -2.65c-1.4,0.51 -2.51,1.03 -3.31,1.57 -0.81,0.54 -1.48,1.27 -2.03,2.16 0.34,0.15 0.73,0.26 1.19,0.34 0.44,0.08 1.07,0.12 1.86,0.12 0.96,0 1.89,-0.51 2.76,-1.54zm2.27 -18.31l-1.8 3.54 -3.99 -2.05 1.85 -3.54 3.94 2.05zm-5.54 2.24l-1.8 3.49 -3.99 -2.07 1.88 -3.51 3.91 2.09z"/>
  <path id="1" class="fil0" d="M32.87 36.38l-13.87 0 0 -4.24 12.12 0c0,-1.91 -0.23,-3.37 -0.69,-4.37 -0.3,-0.7 -1.07,-1.7 -2.3,-3.01l1.92 -3.99c1.16,1.48 1.88,2.62 2.17,3.46 0.43,1.24 0.65,3.31 0.65,6.21l0 5.94zm-0.25 4.79l-1.8 3.54 -3.99 -2.04 1.85 -3.54 3.94 2.04zm-5.54 2.25l-1.8 3.49 -3.99 -2.07 1.88 -3.52 3.91 2.1z"/>
  <path id="2" class="fil0" d="M54.43 34.87c0,2.69 -0.99,5.37 -2.98,8.03 -2.2,2.97 -4.75,4.46 -7.65,4.46 -1.07,0 -2.18,-0.13 -3.31,-0.37 -0.84,-0.17 -1.92,-0.48 -3.25,-0.91 -1.05,-0.38 -2.11,-0.73 -3.17,-1.09l0.42 -0.86c0.91,0.21 1.86,0.44 2.86,0.68 1,0.24 1.9,0.35 2.7,0.35 1.97,0 3.85,-0.5 5.62,-1.52 1.39,-0.8 2.77,-1.97 4.15,-3.49 0.69,-0.77 1.68,-2.03 2.96,-3.77 -2.19,0 -3.84,-0.35 -4.93,-1.05 -1.24,-0.8 -1.85,-2.12 -1.85,-3.94 0,-1.68 0.39,-3.25 1.17,-4.69 0.92,-1.66 2.07,-2.49 3.47,-2.49 1.42,0 2.44,0.82 3.06,2.48 0.49,1.29 0.73,3.08 0.73,5.39l0 2.79zm-1.55 -2.68c-0.35,-1.57 -0.79,-2.65 -1.29,-3.26 -0.44,-0.52 -0.98,-0.78 -1.61,-0.78 -0.46,0 -0.85,0.15 -1.19,0.45 -0.33,0.31 -0.5,0.68 -0.5,1.14 0,0.81 0.36,1.41 1.08,1.83 0.71,0.41 1.88,0.62 3.51,0.62z"/>
  <path id="3" class="fil0" d="M74.1 36.38l-8.92 0c1.04,0.49 1.91,1.18 2.65,2.08 0.92,1.12 1.38,2.34 1.38,3.66 0,1.26 -0.19,2.29 -0.58,3.05 -0.5,0.96 -1.25,1.44 -2.29,1.44 -1.94,0 -3.73,-0.67 -5.34,-2.03 -1.95,-1.62 -2.92,-3.77 -2.92,-6.44l0.05 -1.76 -5.39 0 0 -4.24 6.19 0c0.57,-1.51 1.19,-2.91 1.87,-4.21 0.86,-1.64 1.76,-2.97 2.7,-4.01 1.08,-1.21 2.11,-1.81 3.06,-1.81 0.5,0 0.94,0.44 1.33,1.32 0.38,0.87 0.57,1.81 0.57,2.8 0,1.42 -0.38,2.59 -1.12,3.48 -0.44,0.54 -1.75,1.34 -3.94,2.43l10.7 0 0 4.24zm-8.04 -8.35c0,-1.55 -0.32,-2.32 -0.97,-2.32 -0.7,0 -1.54,0.76 -2.51,2.29 -0.47,0.73 -1.14,1.95 -2,3.65 1.48,-0.4 2.72,-0.91 3.73,-1.53 1.17,-0.71 1.75,-1.41 1.75,-2.09zm0.95 13.69c0,-1.29 -0.94,-2.52 -2.83,-3.71 -1.54,-0.97 -3.05,-1.59 -4.55,-1.84 0,1.78 0.43,3.25 1.29,4.4 1.04,1.4 2.59,2.1 4.65,2.1 0.39,0 0.74,-0.08 1.02,-0.24 0.28,-0.17 0.42,-0.4 0.42,-0.71z"/>
  <path id="4" class="fil0" d="M84.42 36.38l-12.02 0 0 -4.24 9.58 0 -2.99 -20.72 -1.25 -0.6c0,-1.11 0.1,-2.16 0.29,-3.14 0.2,-0.98 0.49,-1.93 0.88,-2.85l0.38 0.27c0,0.94 0.53,1.65 1.6,2.12 0.82,0.33 1.65,0.65 2.49,0.97 0,0.81 -0.07,1.67 -0.2,2.58 -0.13,0.92 -0.29,1.61 -0.47,2.06l-1.18 -0.39 2.89 19.16 0 4.78z"/>
  <path id="5" class="fil0" d="M92.66 30.16c0,1.3 -0.24,2.56 -0.72,3.78 -0.25,0.65 -0.78,1.68 -1.6,3.09l-0.44 -0.24c0.05,-0.47 0.1,-1.01 0.15,-1.64 0.04,-0.61 0.06,-1.03 0.06,-1.24 0,-1.68 -0.13,-4.05 -0.4,-7.07 -0.27,-3.03 -0.59,-6.19 -0.96,-9.49 -0.23,-2 -0.48,-4.03 -0.76,-6.11 0.33,-0.72 0.7,-1.48 1.12,-2.31 0.41,-0.83 0.8,-1.6 1.18,-2.33 0.25,1.84 0.59,4.38 0.99,7.59 0.4,3.22 0.71,6.11 0.94,8.7 0.29,3.21 0.44,5.63 0.44,7.27z"/>
  <path id="6" class="fil0" d="M125.48 36.38l-2.9 0c-2.71,0 -5.07,0.25 -7.09,0.76 -2.55,0.63 -3.83,1.54 -3.83,2.73 0,1.07 0.18,2.22 0.55,3.43 0.36,1.22 0.74,2.45 1.12,3.7 0.38,1.26 0.57,2.4 0.57,3.44 0,0.62 -0.04,1.18 -0.13,1.68 -0.09,0.5 -0.26,1.16 -0.49,1.98 -0.42,-1.35 -0.83,-2.7 -1.23,-4.05 -0.77,-2.57 -1.35,-4.5 -1.71,-5.83 -0.59,-2.07 -0.88,-3.32 -0.88,-3.75 0,-2.07 0.44,-3.67 1.31,-4.79 0.86,-1.1 2.2,-1.93 4.01,-2.47 1.43,-0.42 3.58,-0.78 6.46,-1.07 -1.03,-1.05 -1.67,-1.67 -1.91,-1.86 -0.83,-0.66 -1.67,-0.98 -2.52,-0.98 -0.54,0 -1.05,0.16 -1.54,0.49 -0.39,0.26 -0.86,0.71 -1.42,1.35l-1.09 -0.71c0.49,-1.21 1.04,-2.19 1.65,-2.92 1.02,-1.21 2.24,-1.8 3.63,-1.8 1.01,0 2.02,0.37 3.02,1.12 0.83,0.61 1.68,1.48 2.54,2.58 0.42,0.54 1.05,1.45 1.88,2.73l0 4.24z"/>
  <path id="7" class="fil0" d="M138.84 36.38l-15.07 0 0 -4.24 12.97 0c0,-1.45 -0.16,-2.8 -0.5,-4.07 -0.84,0.28 -1.49,0.47 -1.94,0.59 -0.75,0.19 -1.4,0.29 -1.97,0.29 -1.17,0 -2.14,-0.3 -2.88,-0.9 -0.85,-0.68 -1.29,-1.66 -1.29,-2.94 0,-2.26 0.41,-4.23 1.22,-5.91 0.9,-1.88 2.09,-2.82 3.55,-2.82 1.98,0 3.5,1.54 4.57,4.64 0.89,2.57 1.34,5.58 1.34,9.03l0 6.33zm-3.99 -12.67c-0.23,-0.59 -0.59,-1.18 -1.09,-1.78 -0.68,-0.81 -1.33,-1.21 -1.95,-1.21 -0.43,0 -0.79,0.18 -1.08,0.54 -0.28,0.37 -0.42,0.8 -0.42,1.3 0,1.3 0.71,1.95 2.14,1.95 0.37,0 0.77,-0.08 1.19,-0.22 0.42,-0.15 0.82,-0.34 1.21,-0.58zm3.09 -15.07l-1.79 3.55 -3.99 -2.05 1.84 -3.54 3.94 2.04zm-5.54 2.25l-1.8 3.49 -3.98 -2.07 1.88 -3.52 3.9 2.1z"/>
  <path id="8" class="fil0" d="M163.21 36.37c0,1.79 -0.76,3.65 -2.29,5.57 -1.33,1.69 -2.99,3.14 -4.97,4.36 -1.88,1.18 -3.44,1.76 -4.66,1.76 -1.12,0 -2.33,-0.17 -3.64,-0.49 -0.99,-0.24 -2.17,-0.63 -3.55,-1.16 -1.17,-0.44 -2.33,-0.88 -3.49,-1.32l0.42 -0.97c1.07,0.21 2.18,0.43 3.35,0.65 1.16,0.23 2.22,0.34 3.16,0.34 2.08,0 4.25,-0.66 6.51,-1.99 2.05,-1.22 3.8,-2.76 5.25,-4.63 1.44,-1.86 2.17,-3.53 2.17,-5.03 0,-1.29 -0.38,-2.63 -1.12,-4.05 -0.6,-1.13 -1.44,-2.3 -2.53,-3.51l1.38 -3.84c1.33,1.24 2.31,2.47 2.94,3.71 0.71,1.4 1.07,2.96 1.07,4.68l0 5.92z"/>
 </g>
</svg>
