<?xml version="1.0" encoding="UTF-8"?>
<!DOCTYPE svg PUBLIC "-//W3C//DTD SVG 1.1//EN" "http://www.w3.org/Graphics/SVG/1.1/DTD/svg11.dtd">
<!-- Creator: CorelDRAW 2018 (64-Bit) -->
<svg xmlns="http://www.w3.org/2000/svg" xml:space="preserve" width="171px" height="59px" version="1.1" style="shape-rendering:geometricPrecision; text-rendering:geometricPrecision; image-rendering:optimizeQuality; fill-rule:evenodd; clip-rule:evenodd"
viewBox="0 0 171 58.97"
 xmlns:xlink="http://www.w3.org/1999/xlink">
 <defs>
  <style type="text/css">
   <![CDATA[
    .fil0 {fill:#2B2A29;fill-rule:nonzero}
   ]]>
  </style>
 </defs>
 <g id="Layer_x0020_1">
  <metadata id="CorelCorpID_0Corel-Layer"/>
  <path class="fil0" d="M20.52 36.41l-3.49 0c-1.17,0 -2.2,-1 -3.1,-2.99 -0.66,-1.5 -1.19,-3.42 -1.6,-5.77 -0.49,0.91 -1.11,1.61 -1.85,2.12 -0.75,0.49 -1.54,0.74 -2.36,0.74 -1.87,0 -3.42,-0.12 -4.66,-0.37 -1.24,-0.26 -1.87,-0.57 -1.87,-0.97 0,-1.39 0.91,-2.94 2.73,-4.64 1.8,-1.7 4.06,-3.18 6.78,-4.45 -0.03,-0.13 -0.1,-0.47 -0.2,-1.02 -0.11,-0.55 -0.17,-0.89 -0.17,-1.02 0,-0.56 0.19,-1.17 0.57,-1.84 0.32,-0.56 0.74,-1.13 1.25,-1.71 0.17,1.01 0.34,1.98 0.5,2.92 0.18,0.94 0.37,1.91 0.6,2.92l0.72 4.19c0.41,2.3 0.78,4.01 1.1,5.11 0.51,1.69 1.03,2.53 1.57,2.53l3.48 0 0 4.25zm-8.52 -10.88l-0.47 -2.65c-1.4,0.5 -2.51,1.03 -3.31,1.57 -0.81,0.54 -1.48,1.26 -2.03,2.15 0.34,0.15 0.73,0.27 1.19,0.34 0.45,0.09 1.07,0.13 1.86,0.13 0.97,0 1.89,-0.52 2.76,-1.54zm2.27 -18.33l-1.79 3.54 -4 -2.04 1.85 -3.55 3.94 2.05zm-5.54 2.25l-1.8 3.49 -3.99 -2.07 1.88 -3.52 3.91 2.1z"/>
  <path id="1" class="fil0" d="M32.7 36.41l-13.88 0 0 -4.25 12.13 0c0,-1.91 -0.23,-3.37 -0.69,-4.37 -0.31,-0.7 -1.07,-1.7 -2.31,-3.02l1.93 -3.99c1.15,1.48 1.88,2.63 2.17,3.46 0.43,1.25 0.65,3.32 0.65,6.22l0 5.95zm-0.25 4.79l-1.8 3.54 -3.99 -2.04 1.84 -3.55 3.95 2.05zm-5.54 2.24l-1.81 3.5 -3.99 -2.07 1.89 -3.52 3.91 2.09z"/>
  <path id="2" class="fil0" d="M54.27 34.89c0,2.7 -0.99,5.38 -2.98,8.04 -2.2,2.97 -4.76,4.46 -7.65,4.46 -1.08,0 -2.18,-0.13 -3.32,-0.37 -0.83,-0.17 -1.92,-0.48 -3.25,-0.91 -1.05,-0.38 -2.11,-0.73 -3.17,-1.09l0.42 -0.86c0.91,0.21 1.86,0.43 2.86,0.68 1,0.24 1.9,0.35 2.7,0.35 1.98,0 3.86,-0.5 5.63,-1.52 1.38,-0.81 2.76,-1.97 4.14,-3.49 0.7,-0.78 1.69,-2.04 2.97,-3.77 -2.19,0 -3.84,-0.35 -4.93,-1.06 -1.24,-0.8 -1.85,-2.11 -1.85,-3.94 0,-1.69 0.39,-3.25 1.17,-4.69 0.91,-1.66 2.07,-2.5 3.47,-2.5 1.42,0 2.44,0.83 3.06,2.48 0.49,1.29 0.73,3.09 0.73,5.4l0 2.79zm-1.55 -2.68c-0.35,-1.57 -0.79,-2.65 -1.29,-3.26 -0.44,-0.52 -0.98,-0.78 -1.61,-0.78 -0.46,0 -0.86,0.15 -1.19,0.45 -0.33,0.3 -0.5,0.68 -0.5,1.14 0,0.8 0.36,1.41 1.07,1.83 0.72,0.41 1.89,0.62 3.52,0.62z"/>
  <path id="3" class="fil0" d="M73.95 36.41l-8.92 0c1.04,0.49 1.91,1.18 2.65,2.08 0.92,1.12 1.38,2.33 1.38,3.66 0,1.26 -0.19,2.29 -0.58,3.05 -0.5,0.96 -1.25,1.44 -2.29,1.44 -1.94,0 -3.73,-0.67 -5.34,-2.03 -1.95,-1.62 -2.93,-3.78 -2.93,-6.45l0.05 -1.75 -5.39 0 0 -4.25 6.19 0c0.57,-1.51 1.19,-2.91 1.87,-4.21 0.86,-1.65 1.77,-2.98 2.71,-4.02 1.08,-1.2 2.11,-1.8 3.06,-1.8 0.5,0 0.94,0.44 1.32,1.31 0.39,0.88 0.58,1.82 0.58,2.81 0,1.42 -0.38,2.58 -1.12,3.47 -0.44,0.54 -1.75,1.35 -3.94,2.44l10.7 0 0 4.25zm-8.04 -8.37c0,-1.54 -0.32,-2.32 -0.97,-2.32 -0.7,0 -1.54,0.77 -2.51,2.3 -0.48,0.73 -1.14,1.95 -2.01,3.65 1.48,-0.4 2.73,-0.91 3.74,-1.53 1.17,-0.72 1.75,-1.41 1.75,-2.1zm0.95 13.71c0,-1.29 -0.94,-2.52 -2.83,-3.71 -1.55,-0.98 -3.06,-1.59 -4.56,-1.85 0,1.79 0.44,3.25 1.29,4.41 1.04,1.4 2.6,2.1 4.66,2.1 0.39,0 0.73,-0.09 1.02,-0.24 0.28,-0.17 0.42,-0.4 0.42,-0.71z"/>
  <path id="4" class="fil0" d="M84.28 36.41l-12.03 0 0 -4.25 9.59 0 -3 -20.73 -1.25 -0.6c0,-1.12 0.1,-2.17 0.3,-3.15 0.2,-0.97 0.49,-1.93 0.88,-2.84l0.37 0.26c0,0.94 0.53,1.65 1.61,2.13 0.81,0.32 1.64,0.64 2.49,0.97 0,0.81 -0.07,1.66 -0.2,2.58 -0.13,0.92 -0.29,1.6 -0.47,2.05l-1.18 -0.39 2.89 19.18 0 4.79z"/>
  <path id="5" class="fil0" d="M92.52 30.18c0,1.3 -0.24,2.56 -0.71,3.78 -0.25,0.65 -0.79,1.68 -1.61,3.1l-0.44 -0.25c0.06,-0.47 0.11,-1.01 0.15,-1.64 0.04,-0.61 0.07,-1.03 0.07,-1.24 0,-1.68 -0.14,-4.05 -0.4,-7.08 -0.28,-3.03 -0.6,-6.19 -0.97,-9.49 -0.23,-2 -0.48,-4.04 -0.76,-6.12 0.33,-0.71 0.7,-1.48 1.12,-2.31 0.41,-0.82 0.81,-1.6 1.18,-2.33 0.26,1.85 0.59,4.39 0.99,7.6 0.4,3.22 0.72,6.11 0.94,8.7 0.29,3.21 0.44,5.64 0.44,7.28z"/>
  <path id="6" class="fil0" d="M134.2 50.1l-6.16 4.03c-3.37,0 -5.98,-0.14 -7.83,-0.42 -3.19,-0.47 -5.66,-1.41 -7.39,-2.83 -2.18,-1.77 -3.28,-4.31 -3.28,-7.63 0,-2.02 0.31,-3.83 0.93,-5.44 0.5,-1.32 1.23,-2.56 2.17,-3.73 0.46,-0.55 1.26,-1.39 2.4,-2.52 -1.57,-0.78 -2.65,-1.45 -3.25,-2.02 -1.34,-1.25 -2,-2.83 -2,-4.74 0,-1.72 0.72,-3.41 2.16,-5.07 1.66,-1.9 3.66,-2.84 6.02,-2.84 1.04,0 2.17,0.3 3.35,0.92 0.8,0.41 1.8,1.08 3,2.02 -1.59,0 -3.22,0.11 -4.89,0.32 -2.15,0.27 -3.89,0.67 -5.22,1.19 -1.62,0.63 -2.43,1.4 -2.43,2.33 0,0.99 0.94,1.93 2.8,2.82 1.57,0.75 3.35,1.27 5.34,1.58 1.62,-0.88 3.21,-1.62 4.74,-2.24 1.72,-0.68 3.5,-1.25 5.35,-1.71l-1.03 3.8c-3.38,1.32 -5.81,2.33 -7.31,3.03 -3.02,1.44 -5.33,2.9 -6.94,4.41 -2.06,1.92 -3.1,3.98 -3.1,6.19 0,2.29 0.86,4.1 2.58,5.42 1.5,1.14 3.7,1.95 6.6,2.42 2.31,0.38 5.24,0.57 8.81,0.57 0.77,0 1.53,-0.01 2.29,-0.02 0.77,-0.02 1.52,-0.04 2.29,-0.06l0 0.22z"/>
  <path id="7" class="fil0" d="M157.22 34.89c0,2.7 -1,5.38 -2.98,8.04 -2.21,2.97 -4.76,4.46 -7.66,4.46 -1.07,0 -2.18,-0.13 -3.32,-0.37 -0.83,-0.17 -1.91,-0.48 -3.24,-0.91 -1.06,-0.38 -2.12,-0.73 -3.17,-1.09l0.41 -0.86c0.91,0.21 1.87,0.43 2.86,0.68 1,0.24 1.9,0.35 2.7,0.35 1.98,0 3.86,-0.5 5.63,-1.52 1.38,-0.81 2.77,-1.97 4.15,-3.49 0.7,-0.78 1.69,-2.04 2.97,-3.77 -2.2,0 -3.85,-0.35 -4.94,-1.06 -1.24,-0.8 -1.85,-2.11 -1.85,-3.94 0,-1.69 0.39,-3.25 1.17,-4.69 0.92,-1.66 2.07,-2.5 3.47,-2.5 1.42,0 2.44,0.83 3.06,2.48 0.49,1.29 0.74,3.09 0.74,5.4l0 2.79zm-1.55 -2.68c-0.36,-1.57 -0.79,-2.65 -1.3,-3.26 -0.43,-0.52 -0.97,-0.78 -1.61,-0.78 -0.45,0 -0.85,0.15 -1.19,0.45 -0.33,0.3 -0.5,0.68 -0.5,1.14 0,0.8 0.36,1.41 1.08,1.83 0.71,0.41 1.89,0.62 3.52,0.62z"/>
  <path id="8" class="fil0" d="M169.4 36.41l-13.87 0 0 -4.25 12.13 0c0,-1.91 -0.24,-3.37 -0.69,-4.37 -0.31,-0.7 -1.08,-1.7 -2.31,-3.02l1.92 -3.99c1.16,1.48 1.88,2.63 2.18,3.46 0.43,1.25 0.64,3.32 0.64,6.22l0 5.95zm-1.99 -22.55l-1.88 3.53 -3.91 -2.04 1.79 -3.56 4 2.07z"/>
 </g>
</svg>
