<?xml version="1.0" encoding="UTF-8"?>
<!DOCTYPE svg PUBLIC "-//W3C//DTD SVG 1.1//EN" "http://www.w3.org/Graphics/SVG/1.1/DTD/svg11.dtd">
<!-- Creator: CorelDRAW 2018 (64-Bit) -->
<svg xmlns="http://www.w3.org/2000/svg" xml:space="preserve" width="236px" height="59px" version="1.1" style="shape-rendering:geometricPrecision; text-rendering:geometricPrecision; image-rendering:optimizeQuality; fill-rule:evenodd; clip-rule:evenodd"
viewBox="0 0 236 59"
 xmlns:xlink="http://www.w3.org/1999/xlink">
 <defs>
  <style type="text/css">
   <![CDATA[
    .fil0 {fill:#2B2A29;fill-rule:nonzero}
   ]]>
  </style>
 </defs>
 <g id="Layer_x0020_1">
  <metadata id="CorelCorpID_0Corel-Layer"/>
  <path class="fil0" d="M26.35 35.89c0,2.59 -0.6,4.67 -1.82,6.19 -1.09,1.35 -2.69,2.32 -4.8,2.91 -1.79,0.49 -4.05,0.73 -6.8,0.73 -3.13,0 -5.56,-0.58 -7.28,-1.73 -1.88,-1.27 -2.82,-3.16 -2.82,-5.68 0,-1.4 0.2,-2.85 0.61,-4.36 0.34,-1.29 0.87,-2.69 1.57,-4.22 0.51,-1.1 1.2,-2.44 2.06,-3.99l0.85 0.46c-0.61,1.09 -1.13,2.06 -1.55,2.92 -0.55,1.15 -0.95,2.18 -1.22,3.09 -0.32,1.1 -0.48,2.17 -0.48,3.21 0,1.99 0.73,3.5 2.19,4.52 1.44,1.02 3.46,1.53 6.04,1.53 2.74,0 5.28,-0.47 7.61,-1.41 2.56,-1.04 3.85,-2.28 3.85,-3.73 0,-1.58 -0.25,-4.25 -0.75,-8.02 -0.38,-2.9 -0.85,-6.13 -1.41,-9.71l-0.79 -4.73 -1.1 -0.58c0,-2.18 0.44,-4.16 1.32,-5.95l0.43 0c0.06,0.61 0.17,1.07 0.33,1.37 0.17,0.3 0.43,0.53 0.8,0.68 0.5,0.2 1.04,0.45 1.63,0.75 0.43,0.21 0.82,0.4 1.13,0.56 0,1.14 -0.04,1.97 -0.12,2.49 -0.08,0.53 -0.24,1.25 -0.48,2.2l-1.39 -0.44c0.03,0.36 0.26,1.99 0.69,4.9 0.51,3.4 0.88,6.16 1.12,8.28 0.39,3.38 0.58,5.97 0.58,7.76z"/>
  <path id="1" class="fil0" d="M37.86 38.92l-3.43 0c-1.12,0 -2.01,-0.44 -2.67,-1.34 -0.59,-0.78 -1.04,-1.93 -1.34,-3.48 -0.3,-1.54 -0.54,-3.44 -0.7,-5.71 -0.1,-1.83 -0.2,-3.71 -0.31,-5.65 -0.1,-1.93 -0.24,-3.4 -0.41,-4.4 -0.17,-0.99 -0.41,-1.81 -0.7,-2.44 -0.35,-0.79 -0.85,-1.47 -1.48,-2.05l2.97 -4.75c0.65,1.95 1.11,4.28 1.38,7 0.16,1.7 0.33,5.69 0.5,11.99 0.29,2.9 0.71,4.75 1.27,5.56 0.46,0.69 0.96,1.03 1.49,1.03l3.43 0 0 4.24z"/>
  <path id="2" class="fil0" d="M57.52 38.92l-2.54 0c-1.09,0 -2.31,-0.24 -3.67,-0.74 -1.58,-0.56 -2.96,-1.35 -4.17,-2.35 -0.94,1.16 -1.9,1.97 -2.89,2.42 -0.98,0.45 -2.42,0.67 -4.31,0.67l-3.8 0 0 -4.24 3.73 0c1.48,0 2.79,-0.38 3.94,-1.12 0.9,-0.6 1.71,-1.41 2.44,-2.48 0.99,-1.43 2.22,-2.68 3.67,-3.74 1.29,-0.94 2.48,-1.54 3.57,-1.8 1.13,1.71 2.02,3.24 2.69,4.62 0.89,1.85 1.34,3.36 1.34,4.51l0 4.25zm-2.8 -4.81c-0.21,-0.95 -0.53,-1.88 -0.98,-2.79 -0.37,-0.78 -0.87,-1.57 -1.49,-2.39 -0.77,0.2 -1.43,0.57 -1.96,1.11 -0.36,0.34 -0.78,0.93 -1.27,1.74 0.59,0.64 1.41,1.21 2.48,1.72 1.05,0.51 2.06,0.81 3,0.93l0.22 -0.32z"/>
  <path id="3" class="fil0" d="M77.2 38.92l-3.58 0c-1.06,0 -2.13,-0.24 -3.22,-0.75 -1.3,-0.6 -2.24,-1.44 -2.82,-2.52 -1.09,0.99 -2.34,1.73 -3.74,2.28 -1.7,0.66 -3.64,0.99 -5.83,0.99l-2.19 0 0 -4.24 2.19 0c1.37,0 2.64,-0.15 3.82,-0.44 1.33,-0.34 2.65,-0.88 3.93,-1.63l-1.03 -1.3c-0.53,-0.62 -1.12,-0.93 -1.77,-0.93 -0.3,0 -0.56,0.05 -0.79,0.16 -0.22,0.11 -0.48,0.33 -0.76,0.69l-0.5 0 0 -1.44c0,-1.8 0.48,-3.03 1.42,-3.69 0.86,-0.61 2.35,-0.91 4.48,-0.91 1.83,0 3.33,0.24 4.48,0.73 1.5,0.63 2.26,1.62 2.26,2.93 0,0.7 -0.3,1.43 -0.9,2.17 -0.43,0.55 -1.23,1.32 -2.4,2.3 0.26,0.39 0.76,0.71 1.5,0.97 0.74,0.26 1.36,0.39 1.87,0.39l3.58 0 0 4.24z"/>
  <path id="4" class="fil0" d="M89.39 38.92l-13.89 0 0 -4.24 12.14 0c0,-1.92 -0.24,-3.37 -0.69,-4.38 -0.31,-0.7 -1.08,-1.7 -2.31,-3.01l1.92 -4c1.16,1.48 1.88,2.63 2.18,3.46 0.43,1.25 0.65,3.32 0.65,6.22l0 5.95zm-0.15 -24.12l-1.8 3.54 -4 -2.04 1.85 -3.55 3.95 2.05zm-5.55 2.25l-1.81 3.49 -3.98 -2.07 1.88 -3.52 3.91 2.1z"/>
  <path id="5" class="fil0" d="M115.92 38.92l-1.87 0c-1.03,0 -1.91,-0.14 -2.65,-0.42 -0.75,-0.28 -1.43,-0.69 -2.04,-1.21 -0.77,0.6 -1.43,1 -2.01,1.19 -0.83,0.29 -1.97,0.44 -3.43,0.44l-1.59 0c-0.85,0 -1.7,-0.16 -2.55,-0.49 -0.55,-0.2 -1.24,-0.55 -2.05,-1.05 -0.79,0.6 -1.5,1 -2.15,1.21 -0.65,0.23 -1.71,0.33 -3.17,0.33l-4.71 0 0 -4.24 4.72 0c1.31,0 2.26,-0.12 2.83,-0.34 0.94,-0.38 1.42,-1.13 1.42,-2.24 0,-0.48 -0.03,-0.95 -0.08,-1.42 -0.04,-0.47 -0.13,-1 -0.25,-1.58l0.97 -1.46c0.46,1.49 0.83,2.58 1.13,3.26 0.53,1.19 1.1,2.08 1.72,2.68 0.76,0.73 1.66,1.1 2.7,1.1l1.65 0c1.23,0 2.14,-0.18 2.73,-0.56 0.65,-0.42 0.99,-1.1 0.99,-2.02 0,-0.51 -0.04,-0.99 -0.1,-1.47 -0.06,-0.47 -0.15,-0.98 -0.25,-1.53l0.97 -1.46 0.51 2.29c0.44,1.81 0.97,3.07 1.6,3.77 0.56,0.62 1.3,0.93 2.25,0.93 0.44,0 0.79,-0.13 1.06,-0.41 0.27,-0.27 0.4,-0.61 0.4,-1.04 0,-0.92 -0.33,-1.88 -1,-2.9 -0.12,-0.16 -0.52,-0.7 -1.2,-1.6l1.57 -2.64c0.66,1 1.11,1.88 1.35,2.61 0.35,1.11 0.53,2.58 0.53,4.41l0 5.86z"/>
  <path id="6" class="fil0" d="M141.24 13.15l-1.17 4.4 -1.43 -0.7 0.05 2.21c0,2.17 -0.28,4.29 -0.83,6.33 -0.61,2.24 -1.56,4.45 -2.87,6.64 0.62,1.14 1.05,2.04 1.29,2.69 0.38,1.02 0.56,2.07 0.56,3.12 0,0.61 -0.02,1.12 -0.05,1.54 -0.03,0.43 -0.11,0.92 -0.22,1.49 -1.72,0.39 -3.56,0.7 -5.51,0.92 -1.95,0.22 -3.86,0.33 -5.71,0.33 0.02,-0.31 0.03,-0.57 0.03,-0.78 0.08,-1.24 0.27,-2.4 0.58,-3.46 2.75,-1.48 5.09,-3.39 6.98,-5.75 -1.14,-2.15 -1.96,-3.66 -2.48,-4.56 -0.57,-0.98 -1.54,-2.49 -2.9,-4.56 -0.5,-0.69 -0.95,-1.25 -1.34,-1.68 -0.54,-0.56 -0.96,-0.85 -1.27,-0.85 -0.21,0 -0.56,0.12 -1.05,0.37 -0.25,0.13 -0.47,0.19 -0.65,0.19 -0.36,0 -0.92,-0.36 -1.69,-1.07 -0.66,-0.63 -1.36,-1.42 -2.09,-2.34 -0.59,-0.75 -0.99,-1.38 -1.2,-1.87 -0.2,-0.5 -0.31,-1.09 -0.31,-1.79 0,-1.01 0.06,-1.8 0.19,-2.38 0.2,-0.86 0.53,-1.29 1,-1.29 0.66,0 1.64,0.64 2.9,1.91 1.12,1.13 2.38,2.63 3.75,4.49 1.22,1.64 2.42,3.41 3.61,5.31l2.49 4c0.73,1.2 1.48,2.57 2.24,4.1 1.09,-2.19 1.85,-4.41 2.26,-6.65 0.36,-1.94 0.54,-4.42 0.54,-7.45l-1.4 -0.8c0,-1.08 0.09,-2.05 0.29,-2.93 0.18,-0.86 0.44,-1.66 0.79,-2.38l0.57 0.15c0.07,0.7 0.45,1.26 1.17,1.68 0.38,0.23 0.88,0.49 1.49,0.79 0.6,0.29 1.06,0.5 1.39,0.63zm-6.35 23.71c0,-0.36 -0.06,-0.72 -0.21,-1.11 -0.13,-0.38 -0.44,-1.01 -0.9,-1.89 -0.49,0.64 -1.22,1.37 -2.18,2.19 -0.97,0.84 -1.93,1.54 -2.87,2.13 1.92,0 3.28,-0.06 4.09,-0.18 1.38,-0.19 2.07,-0.57 2.07,-1.14zm-3.79 11.44c0,0.42 -0.25,0.78 -0.76,1.11 -0.34,0.21 -0.86,0.44 -1.54,0.68l-4.55 1.57c0,-0.75 0.83,-1.41 2.47,-1.99 -0.51,-0.26 -0.89,-0.51 -1.15,-0.75 -0.34,-0.32 -0.52,-0.65 -0.52,-0.99 0,-0.5 0.43,-1.22 1.3,-2.14 0.97,-1.01 1.82,-1.52 2.55,-1.52 0.32,0 0.61,0.11 0.84,0.33 0.24,0.23 0.36,0.52 0.36,0.89 0,0.23 -0.05,0.46 -0.15,0.7 -0.09,0.24 -0.24,0.51 -0.42,0.8 -0.5,-0.45 -1.05,-0.67 -1.64,-0.67 -0.36,0 -0.72,0.07 -1.06,0.21 -0.36,0.15 -0.53,0.32 -0.53,0.51 0,0.24 0.38,0.58 1.13,0.99 0.76,0.43 1.4,0.64 1.93,0.64 0.36,0 0.62,-0.01 0.78,-0.04 0.15,-0.02 0.47,-0.13 0.96,-0.33z"/>
  <path id="7" class="fil0" d="M151.33 32.7c0,1.3 -0.25,2.56 -0.72,3.78 -0.25,0.65 -0.78,1.68 -1.61,3.09l-0.44 -0.24c0.06,-0.47 0.11,-1.01 0.15,-1.64 0.04,-0.61 0.07,-1.03 0.07,-1.24 0,-1.69 -0.13,-4.05 -0.4,-7.08 -0.28,-3.03 -0.59,-6.2 -0.97,-9.5 -0.23,-2 -0.48,-4.04 -0.75,-6.12 0.32,-0.72 0.69,-1.48 1.11,-2.32 0.42,-0.82 0.81,-1.59 1.18,-2.33 0.26,1.85 0.59,4.39 0.99,7.6 0.4,3.23 0.72,6.12 0.95,8.71 0.29,3.22 0.44,5.65 0.44,7.29z"/>
  <path id="8" class="fil0" d="M186.04 38.92l-3.49 0c-1.17,0 -2.2,-0.99 -3.1,-2.98 -0.66,-1.5 -1.2,-3.43 -1.61,-5.77 -0.48,0.9 -1.1,1.6 -1.84,2.11 -0.75,0.5 -1.54,0.75 -2.37,0.75 -1.86,0 -3.42,-0.12 -4.66,-0.37 -1.24,-0.26 -1.87,-0.58 -1.87,-0.97 0,-1.4 0.91,-2.95 2.73,-4.65 1.8,-1.69 4.07,-3.18 6.79,-4.45 -0.03,-0.13 -0.1,-0.47 -0.21,-1.02 -0.11,-0.55 -0.16,-0.89 -0.16,-1.02 0,-0.56 0.19,-1.17 0.57,-1.85 0.32,-0.56 0.73,-1.12 1.25,-1.7 0.17,1 0.33,1.98 0.5,2.92 0.17,0.94 0.37,1.91 0.6,2.92l0.72 4.19c0.41,2.3 0.78,4.01 1.1,5.12 0.51,1.69 1.03,2.53 1.57,2.53l3.48 0 0 4.24zm-8.52 -10.88l-0.48 -2.65c-1.39,0.51 -2.5,1.03 -3.31,1.57 -0.81,0.54 -1.48,1.27 -2.03,2.16 0.34,0.15 0.73,0.26 1.19,0.34 0.45,0.08 1.07,0.12 1.87,0.12 0.96,0 1.88,-0.51 2.76,-1.54zm2.27 -18.34l-1.8 3.55 -3.99 -2.05 1.85 -3.55 3.94 2.05zm-5.54 2.25l-1.81 3.5 -3.99 -2.08 1.88 -3.52 3.92 2.1z"/>
  <path id="9" class="fil0" d="M198.22 38.92l-13.88 0 0 -4.24 12.14 0c0,-1.92 -0.24,-3.37 -0.69,-4.38 -0.31,-0.7 -1.08,-1.7 -2.31,-3.01l1.92 -4c1.16,1.48 1.88,2.63 2.18,3.46 0.43,1.25 0.64,3.32 0.64,6.22l0 5.95zm-0.24 4.8l-1.8 3.55 -4 -2.05 1.85 -3.55 3.95 2.05zm-5.55 2.25l-1.81 3.5 -3.98 -2.08 1.88 -3.52 3.91 2.1z"/>
  <path id="10" class="fil0" d="M209.72 38.92l-3.43 0c-1.11,0 -2,-0.44 -2.67,-1.34 -0.59,-0.78 -1.04,-1.93 -1.34,-3.48 -0.3,-1.54 -0.53,-3.44 -0.7,-5.71 -0.1,-1.83 -0.2,-3.71 -0.31,-5.65 -0.1,-1.93 -0.24,-3.4 -0.41,-4.4 -0.17,-0.99 -0.4,-1.81 -0.7,-2.44 -0.34,-0.79 -0.85,-1.47 -1.48,-2.05l2.97 -4.75c0.65,1.95 1.11,4.28 1.38,7 0.16,1.7 0.33,5.69 0.5,11.99 0.29,2.9 0.71,4.75 1.27,5.56 0.46,0.69 0.96,1.03 1.49,1.03l3.43 0 0 4.24z"/>
  <path id="11" class="fil0" d="M233.18 31.28l-1.69 4.45c-2.45,0.9 -5.29,1.65 -8.51,2.27 -3.23,0.62 -6.2,0.92 -8.91,0.92l-6.07 0 0 -4.24 5.84 0c-0.47,-0.77 -0.85,-1.63 -1.15,-2.6 -0.3,-0.96 -0.45,-1.91 -0.45,-2.81 0,-1.92 0.8,-3.53 2.4,-4.83 1.61,-1.3 3.66,-1.95 6.19,-1.95 2,0 3.64,0.48 4.94,1.46 0.56,0.41 1.49,1.4 2.81,2.99l-0.47 0.4c-1.11,-0.3 -2.12,-0.53 -3.01,-0.68 -0.89,-0.15 -1.82,-0.22 -2.77,-0.22 -2.24,0 -4,0.25 -5.27,0.74 -1.28,0.5 -1.92,1.15 -1.92,1.96 0,0.79 0.4,1.68 1.21,2.67 0.8,0.98 1.83,1.85 3.1,2.62 2.67,-0.41 4.85,-0.81 6.56,-1.19 1.7,-0.39 4.09,-1.04 7.17,-1.96zm-10.3 -15.07l-1.88 3.53 -3.91 -2.04 1.79 -3.55 4 2.06z"/>
 </g>
</svg>
