<?xml version="1.0" encoding="UTF-8"?>
<!DOCTYPE svg PUBLIC "-//W3C//DTD SVG 1.1//EN" "http://www.w3.org/Graphics/SVG/1.1/DTD/svg11.dtd">
<!-- Creator: CorelDRAW 2018 (64-Bit) -->
<svg xmlns="http://www.w3.org/2000/svg" xml:space="preserve" width="1624px" height="59px" version="1.1" style="shape-rendering:geometricPrecision; text-rendering:geometricPrecision; image-rendering:optimizeQuality; fill-rule:evenodd; clip-rule:evenodd"
viewBox="0 0 1624 59.05"
 xmlns:xlink="http://www.w3.org/1999/xlink">
 <defs>
  <style type="text/css">
   <![CDATA[
    .fil0 {fill:#2B2A29;fill-rule:nonzero}
   ]]>
  </style>
 </defs>
 <g id="Layer_x0020_1">
  <metadata id="CorelCorpID_0Corel-Layer"/>
  <polygon class="fil0" points="2.16,47.1 2.16,42.1 7.16,42.1 7.16,47.1 "/>
  <path id="1" class="fil0" d="M24.55 32.72c0,2.3 -0.37,4.03 -1.12,5.19 -1.15,1.79 -3.27,2.69 -6.33,2.69 -1.19,0 -2.17,-0.24 -2.95,-0.71 -0.89,-0.54 -1.34,-1.31 -1.34,-2.3 0,-1.14 0.28,-2.46 0.85,-3.96 0.53,-1.26 1.05,-2.55 1.59,-3.83l-0.36 -0.1 1.49 -4.15c2.93,1.55 4.69,2.52 5.26,2.93 1.94,1.38 2.91,2.79 2.91,4.24zm-2.1 1.9c0,-0.61 -0.89,-1.43 -2.68,-2.45 -0.77,-0.45 -1.58,-0.88 -2.46,-1.3 -0.74,0.8 -1.17,1.3 -1.32,1.49 -0.46,0.63 -0.69,1.23 -0.69,1.81 0,0.82 0.24,1.47 0.7,1.94 0.46,0.46 1.09,0.69 1.87,0.69 0.91,0 1.9,-0.26 2.98,-0.77 1.07,-0.51 1.6,-0.98 1.6,-1.41z"/>
  <path id="2" class="fil0" d="M45.53 27.17c0,0.32 -0.02,0.6 -0.05,0.82 -0.03,0.23 -0.11,0.52 -0.24,0.86 -0.91,-2.03 -2.26,-4.13 -4.05,-6.29 -1.98,-2.39 -3.54,-3.59 -4.68,-3.59 -0.25,0 -0.49,0.22 -0.73,0.65 -0.24,0.42 -0.53,0.63 -0.85,0.63 -0.44,0 -1.13,-0.28 -2.08,-0.86 -1.18,-0.72 -2.14,-1.55 -2.85,-2.49 -0.95,-1.28 -1.44,-2.63 -1.44,-4.06 0,-1.02 0.34,-1.54 1,-1.54 1.17,0 3,0.74 5.49,2.22 2.78,1.65 5.11,3.56 7,5.76 2.32,2.69 3.48,5.31 3.48,7.89zm10.13 12.78l-1.5 0c-1.37,0 -2.47,-0.74 -3.31,-2.22 -1,-1.78 -1.5,-4.49 -1.5,-8.11 0,-0.25 -0.03,-0.6 -0.09,-1.05 -0.06,-0.43 -0.08,-0.7 -0.08,-0.82 -1.56,4.33 -2.95,7.31 -4.17,8.92 -1.44,1.88 -3.47,3.13 -6.1,3.74 -2.25,0.53 -6.06,0.79 -11.45,0.79l0 -0.7c4.37,-1.32 7.62,-2.45 9.76,-3.41 3.45,-1.53 6.08,-3.29 7.86,-5.29 2.16,-2.4 3.23,-5.25 3.23,-8.55 0,-1.59 -0.1,-3.08 -0.3,-4.46 -0.2,-1.38 -0.47,-2.8 -0.82,-4.24l0.8 -2.07c0.32,-0.8 0.62,-1.47 0.9,-2.03 0.42,2.34 0.83,4.87 1.21,7.58 0.26,1.88 0.51,3.89 0.76,6.04 0.31,2.63 0.59,4.75 0.81,6.36 0.29,2.05 0.73,3.51 1.33,4.39 0.39,0.59 0.78,0.88 1.17,0.88l1.49 0 0 4.25z"/>
  <path id="3" class="fil0" d="M79.15 32.3l-1.69 4.45c-2.46,0.9 -5.3,1.66 -8.52,2.27 -3.24,0.62 -6.2,0.93 -8.92,0.93l-6.07 0 0 -4.25 5.85 0c-0.48,-0.77 -0.86,-1.63 -1.16,-2.6 -0.29,-0.97 -0.44,-1.91 -0.44,-2.82 0,-1.91 0.8,-3.53 2.4,-4.83 1.6,-1.3 3.66,-1.95 6.19,-1.95 2,0 3.65,0.48 4.95,1.46 0.56,0.41 1.49,1.4 2.81,2.99l-0.47 0.4c-1.12,-0.3 -2.13,-0.53 -3.02,-0.68 -0.89,-0.15 -1.81,-0.22 -2.77,-0.22 -2.24,0 -4,0.25 -5.28,0.74 -1.27,0.5 -1.91,1.15 -1.91,1.97 0,0.79 0.4,1.68 1.2,2.66 0.8,0.99 1.84,1.86 3.11,2.63 2.67,-0.41 4.85,-0.81 6.56,-1.19 1.71,-0.39 4.1,-1.04 7.18,-1.96z"/>
  <path id="4" class="fil0" d="M90.19 33.72c0,1.3 -0.25,2.56 -0.72,3.78 -0.25,0.65 -0.78,1.68 -1.61,3.1l-0.44 -0.24c0.06,-0.48 0.11,-1.02 0.15,-1.65 0.04,-0.61 0.07,-1.03 0.07,-1.24 0,-1.69 -0.14,-4.05 -0.4,-7.09 -0.28,-3.03 -0.6,-6.2 -0.97,-9.51 -0.23,-2 -0.48,-4.04 -0.76,-6.12 0.33,-0.72 0.7,-1.48 1.12,-2.32 0.42,-0.82 0.81,-1.6 1.18,-2.33 0.26,1.85 0.59,4.39 0.99,7.61 0.4,3.22 0.72,6.12 0.95,8.71 0.29,3.22 0.44,5.65 0.44,7.3zm0.7 -26.59c0,0.42 -0.25,0.79 -0.76,1.11 -0.34,0.22 -0.86,0.44 -1.54,0.68l-4.55 1.58c0,-0.76 0.82,-1.42 2.46,-1.99 -0.5,-0.27 -0.89,-0.52 -1.15,-0.76 -0.34,-0.32 -0.51,-0.64 -0.51,-0.99 0,-0.5 0.43,-1.22 1.3,-2.14 0.96,-1.01 1.81,-1.52 2.55,-1.52 0.32,0 0.61,0.11 0.84,0.33 0.24,0.23 0.36,0.52 0.36,0.89 0,0.23 -0.05,0.46 -0.15,0.7 -0.1,0.24 -0.24,0.51 -0.42,0.8 -0.5,-0.45 -1.05,-0.67 -1.64,-0.67 -0.36,0 -0.72,0.07 -1.07,0.22 -0.35,0.15 -0.52,0.31 -0.52,0.5 0,0.25 0.37,0.58 1.13,1 0.76,0.42 1.4,0.63 1.93,0.63 0.36,0 0.62,-0.01 0.78,-0.03 0.15,-0.03 0.47,-0.14 0.96,-0.34z"/>
  <path id="5" class="fil0" d="M119.73 32.72c0,2.3 -0.38,4.03 -1.13,5.19 -1.15,1.79 -3.26,2.69 -6.33,2.69 -1.18,0 -2.17,-0.24 -2.95,-0.71 -0.89,-0.54 -1.34,-1.31 -1.34,-2.3 0,-1.14 0.28,-2.46 0.86,-3.96 0.52,-1.26 1.05,-2.55 1.59,-3.83l-0.37 -0.1 1.49 -4.15c2.94,1.55 4.7,2.52 5.26,2.93 1.94,1.38 2.92,2.79 2.92,4.24zm-2.1 1.9c0,-0.61 -0.89,-1.43 -2.69,-2.45 -0.76,-0.45 -1.58,-0.88 -2.46,-1.3 -0.73,0.8 -1.17,1.3 -1.32,1.49 -0.46,0.63 -0.68,1.23 -0.68,1.81 0,0.82 0.23,1.47 0.69,1.94 0.47,0.46 1.09,0.69 1.88,0.69 0.9,0 1.89,-0.26 2.97,-0.77 1.08,-0.51 1.61,-0.98 1.61,-1.41zm-0.1 -17.52l-1.8 3.55 -4 -2.05 1.85 -3.55 3.95 2.05zm-5.55 2.25l-1.81 3.5 -3.99 -2.08 1.88 -3.52 3.92 2.1z"/>
  <path id="6" class="fil0" d="M137.14 39.95l-10.91 0c-0.93,0 -1.76,-0.27 -2.5,-0.81 -0.73,-0.53 -1.11,-1.17 -1.11,-1.9 0,-0.62 0.03,-1.17 0.1,-1.68 0.07,-0.5 0.19,-1.06 0.37,-1.66l0.5 0c0.18,0.67 0.5,1.14 0.97,1.43 0.39,0.24 0.94,0.37 1.62,0.37l9.46 0c0,-2.92 -0.41,-5.26 -1.23,-7.03 -1.02,-2.21 -2.71,-3.69 -5.07,-4.42l0.37 -4.75c2.83,1.38 4.83,3.59 6,6.62 0.95,2.45 1.43,5.64 1.43,9.58l0 4.25z"/>
  <path id="7" class="fil0" d="M161.6 39.94c0,1.79 -0.76,3.65 -2.3,5.57 -1.33,1.7 -2.99,3.15 -4.98,4.38 -1.88,1.17 -3.44,1.76 -4.67,1.76 -1.12,0 -2.33,-0.17 -3.64,-0.49 -0.99,-0.25 -2.18,-0.64 -3.57,-1.16 -1.16,-0.44 -2.33,-0.89 -3.49,-1.33l0.42 -0.97c1.07,0.21 2.19,0.43 3.36,0.66 1.16,0.22 2.22,0.34 3.16,0.34 2.09,0 4.26,-0.67 6.53,-2 2.06,-1.23 3.81,-2.77 5.26,-4.64 1.45,-1.86 2.17,-3.54 2.17,-5.04 0,-1.29 -0.37,-2.64 -1.11,-4.05 -0.6,-1.15 -1.45,-2.31 -2.54,-3.52l1.38 -3.85c1.33,1.24 2.31,2.47 2.95,3.72 0.71,1.4 1.07,2.96 1.07,4.69l0 5.93z"/>
  <path id="8" class="fil0" d="M169.84 33.72c0,1.3 -0.24,2.56 -0.71,3.78 -0.25,0.65 -0.79,1.68 -1.61,3.1l-0.44 -0.24c0.06,-0.48 0.11,-1.02 0.15,-1.65 0.04,-0.61 0.06,-1.03 0.06,-1.24 0,-1.69 -0.13,-4.05 -0.4,-7.09 -0.27,-3.03 -0.59,-6.2 -0.96,-9.51 -0.24,-2 -0.49,-4.04 -0.76,-6.12 0.32,-0.72 0.7,-1.48 1.12,-2.32 0.41,-0.82 0.8,-1.6 1.18,-2.33 0.26,1.85 0.59,4.39 0.99,7.61 0.4,3.22 0.72,6.12 0.94,8.71 0.29,3.22 0.44,5.65 0.44,7.3z"/>
  <path id="9" class="fil0" d="M193.54 38.43c0,2.7 -0.99,5.38 -2.98,8.05 -2.21,2.98 -4.77,4.47 -7.67,4.47 -1.07,0 -2.18,-0.13 -3.32,-0.37 -0.83,-0.17 -1.92,-0.48 -3.25,-0.92 -1.06,-0.37 -2.12,-0.73 -3.18,-1.09l0.42 -0.86c0.91,0.21 1.87,0.44 2.87,0.68 1,0.24 1.9,0.36 2.7,0.36 1.98,0 3.86,-0.51 5.64,-1.53 1.38,-0.81 2.77,-1.97 4.15,-3.5 0.7,-0.77 1.69,-2.03 2.97,-3.77 -2.2,0 -3.85,-0.35 -4.94,-1.06 -1.24,-0.8 -1.86,-2.12 -1.86,-3.95 0,-1.68 0.4,-3.25 1.18,-4.69 0.92,-1.67 2.07,-2.5 3.47,-2.5 1.43,0 2.45,0.82 3.07,2.48 0.49,1.29 0.73,3.09 0.73,5.4l0 2.8zm-1.55 -2.68c-0.35,-1.58 -0.79,-2.66 -1.3,-3.27 -0.43,-0.52 -0.97,-0.78 -1.6,-0.78 -0.46,0 -0.86,0.15 -1.2,0.45 -0.33,0.31 -0.5,0.68 -0.5,1.14 0,0.81 0.36,1.42 1.08,1.83 0.72,0.42 1.89,0.63 3.52,0.63z"/>
  <path id="10" class="fil0" d="M203.9 39.95l-12.05 0 0 -4.25 9.6 0 -3 -20.77 -1.25 -0.6c0,-1.11 0.1,-2.16 0.29,-3.15 0.2,-0.97 0.5,-1.93 0.89,-2.85l0.37 0.27c0,0.94 0.54,1.65 1.61,2.12 0.82,0.33 1.65,0.65 2.49,0.98 0,0.81 -0.06,1.67 -0.2,2.58 -0.12,0.93 -0.28,1.61 -0.46,2.06l-1.19 -0.39 2.9 19.21 0 4.79z"/>
  <path id="11" class="fil0" d="M212.15 33.72c0,1.3 -0.24,2.56 -0.71,3.78 -0.25,0.65 -0.79,1.68 -1.61,3.1l-0.44 -0.24c0.05,-0.48 0.1,-1.02 0.15,-1.65 0.04,-0.61 0.06,-1.03 0.06,-1.24 0,-1.69 -0.13,-4.05 -0.4,-7.09 -0.27,-3.03 -0.59,-6.2 -0.96,-9.51 -0.24,-2 -0.49,-4.04 -0.76,-6.12 0.32,-0.72 0.7,-1.48 1.11,-2.32 0.42,-0.82 0.81,-1.6 1.19,-2.33 0.26,1.85 0.59,4.39 0.99,7.61 0.4,3.22 0.72,6.12 0.94,8.71 0.29,3.22 0.44,5.65 0.44,7.3z"/>
  <path id="12" class="fil0" d="M231.66 23.95l-1.22 -6.8 0 -5.85 5 0 0 5.85 -1.1 6.8 -2.68 0zm8.08 0l-1.2 -6.8 0 -5.85 5 0 0 5.85 -1.17 6.8 -2.63 0z"/>
  <path id="13" class="fil0" d="M270.34 39.94c0,1.79 -0.76,3.65 -2.3,5.57 -1.33,1.7 -2.99,3.15 -4.98,4.38 -1.88,1.17 -3.44,1.76 -4.67,1.76 -1.12,0 -2.33,-0.17 -3.64,-0.49 -0.99,-0.25 -2.18,-0.64 -3.57,-1.16 -1.16,-0.44 -2.33,-0.89 -3.49,-1.33l0.42 -0.97c1.08,0.21 2.19,0.43 3.36,0.66 1.17,0.22 2.22,0.34 3.16,0.34 2.09,0 4.26,-0.67 6.53,-2 2.06,-1.23 3.81,-2.77 5.26,-4.64 1.45,-1.86 2.17,-3.54 2.17,-5.04 0,-1.29 -0.37,-2.64 -1.11,-4.05 -0.6,-1.15 -1.45,-2.31 -2.54,-3.52l1.38 -3.85c1.33,1.24 2.31,2.47 2.95,3.72 0.71,1.4 1.07,2.96 1.07,4.69l0 5.93z"/>
  <path id="14" class="fil0" d="M281.84 39.95l-3.44 0c-1.12,0 -2.01,-0.45 -2.67,-1.34 -0.59,-0.79 -1.04,-1.94 -1.34,-3.49 -0.3,-1.55 -0.54,-3.45 -0.71,-5.71 -0.09,-1.84 -0.19,-3.72 -0.3,-5.66 -0.1,-1.93 -0.24,-3.4 -0.41,-4.4 -0.18,-1 -0.41,-1.82 -0.7,-2.45 -0.35,-0.78 -0.85,-1.47 -1.48,-2.05l2.97 -4.75c0.65,1.95 1.11,4.28 1.38,7 0.16,1.7 0.33,5.7 0.49,12.01 0.3,2.9 0.72,4.75 1.28,5.56 0.46,0.69 0.96,1.03 1.49,1.03l3.44 0 0 4.25z"/>
  <path id="15" class="fil0" d="M308.36 39.95l-1.87 0c-1.03,0 -1.91,-0.14 -2.66,-0.43 -0.75,-0.28 -1.42,-0.69 -2.04,-1.2 -0.76,0.59 -1.43,0.99 -2.01,1.19 -0.83,0.29 -1.97,0.44 -3.43,0.44l-1.59 0c-0.85,0 -1.7,-0.17 -2.55,-0.49 -0.55,-0.21 -1.24,-0.56 -2.06,-1.05 -0.78,0.59 -1.5,0.99 -2.15,1.2 -0.65,0.23 -1.71,0.34 -3.17,0.34l-4.72 0 0 -4.25 4.72 0c1.32,0 2.27,-0.12 2.85,-0.34 0.94,-0.38 1.41,-1.13 1.41,-2.24 0,-0.48 -0.02,-0.95 -0.07,-1.42 -0.04,-0.48 -0.14,-1 -0.26,-1.58l0.97 -1.47c0.46,1.5 0.84,2.58 1.14,3.27 0.52,1.19 1.1,2.08 1.71,2.68 0.76,0.73 1.66,1.1 2.71,1.1l1.65 0c1.24,0 2.14,-0.18 2.74,-0.56 0.65,-0.42 0.98,-1.1 0.98,-2.02 0,-0.51 -0.03,-1 -0.09,-1.47 -0.07,-0.48 -0.15,-0.98 -0.26,-1.53l0.97 -1.47 0.51 2.3c0.44,1.81 0.98,3.07 1.61,3.77 0.56,0.62 1.3,0.93 2.25,0.93 0.43,0 0.79,-0.13 1.06,-0.41 0.27,-0.27 0.4,-0.62 0.4,-1.04 0,-0.92 -0.33,-1.88 -1,-2.9 -0.12,-0.17 -0.52,-0.7 -1.2,-1.6l1.57 -2.65c0.66,1.01 1.11,1.88 1.35,2.62 0.35,1.1 0.53,2.58 0.53,4.41l0 5.87z"/>
  <path id="16" class="fil0" d="M321.5 39.95l-14.85 0 0 -4.25 8.38 0c1,0 1.86,-0.03 2.57,-0.11 0.71,-0.07 1.48,-0.23 2.31,-0.47 -2.8,-0.41 -4.62,-0.79 -5.45,-1.15 -1.88,-0.81 -2.81,-2.19 -2.81,-4.14 0,-1.71 0.45,-3.31 1.34,-4.82 1.02,-1.71 2.24,-2.56 3.69,-2.56 1.67,0 2.93,1.06 3.8,3.17 0.68,1.67 1.02,3.65 1.02,5.92l0 8.41zm-2.2 -8.5c-0.37,-1.31 -0.73,-2.28 -1.07,-2.92 -0.67,-1.22 -1.48,-1.83 -2.42,-1.83 -0.45,0 -0.84,0.18 -1.17,0.54 -0.32,0.36 -0.49,0.78 -0.49,1.27 0,1.24 0.64,2.07 1.93,2.5 0.45,0.15 1.53,0.29 3.22,0.44zm-0.05 -17.53l-1.88 3.53 -3.92 -2.04 1.79 -3.56 4.01 2.07z"/>
  <path id="17" class="fil0" d="M333.68 39.95l-13.9 0 0 -4.25 12.15 0c0,-1.92 -0.23,-3.38 -0.69,-4.38 -0.31,-0.7 -1.07,-1.7 -2.31,-3.02l1.93 -4c1.16,1.48 1.88,2.63 2.17,3.47 0.44,1.25 0.65,3.32 0.65,6.22l0 5.96zm-0.15 -24.15l-1.8 3.55 -4 -2.05 1.85 -3.55 3.95 2.05zm-5.55 2.25l-1.81 3.5 -3.99 -2.08 1.89 -3.52 3.91 2.1z"/>
  <path id="18" class="fil0" d="M360.24 39.95l-1.87 0c-1.03,0 -1.91,-0.14 -2.65,-0.43 -0.75,-0.28 -1.43,-0.69 -2.05,-1.2 -0.76,0.59 -1.43,0.99 -2,1.19 -0.84,0.29 -1.98,0.44 -3.44,0.44l-1.59 0c-0.85,0 -1.7,-0.17 -2.55,-0.49 -0.55,-0.21 -1.24,-0.56 -2.06,-1.05 -0.78,0.59 -1.5,0.99 -2.15,1.2 -0.65,0.23 -1.71,0.34 -3.17,0.34l-4.72 0 0 -4.25 4.73 0c1.31,0 2.26,-0.12 2.84,-0.34 0.94,-0.38 1.42,-1.13 1.42,-2.24 0,-0.48 -0.03,-0.95 -0.08,-1.42 -0.04,-0.48 -0.13,-1 -0.26,-1.58l0.98 -1.47c0.45,1.5 0.83,2.58 1.13,3.27 0.52,1.19 1.1,2.08 1.72,2.68 0.75,0.73 1.65,1.1 2.7,1.1l1.65 0c1.24,0 2.15,-0.18 2.74,-0.56 0.65,-0.42 0.98,-1.1 0.98,-2.02 0,-0.51 -0.03,-1 -0.09,-1.47 -0.07,-0.48 -0.15,-0.98 -0.26,-1.53l0.98 -1.47 0.5 2.3c0.45,1.81 0.98,3.07 1.61,3.77 0.56,0.62 1.3,0.93 2.25,0.93 0.44,0 0.79,-0.13 1.06,-0.41 0.27,-0.27 0.4,-0.62 0.4,-1.04 0,-0.92 -0.33,-1.88 -1,-2.9 -0.12,-0.17 -0.52,-0.7 -1.2,-1.6l1.58 -2.65c0.65,1.01 1.1,1.88 1.35,2.62 0.35,1.1 0.52,2.58 0.52,4.41l0 5.87z"/>
  <path id="19" class="fil0" d="M380.15 27.17c0,0.32 -0.02,0.6 -0.05,0.82 -0.03,0.23 -0.11,0.52 -0.24,0.86 -0.91,-2.03 -2.26,-4.13 -4.05,-6.29 -1.99,-2.39 -3.54,-3.59 -4.68,-3.59 -0.25,0 -0.49,0.22 -0.73,0.65 -0.24,0.42 -0.53,0.63 -0.85,0.63 -0.44,0 -1.13,-0.28 -2.08,-0.86 -1.18,-0.72 -2.14,-1.55 -2.85,-2.49 -0.95,-1.28 -1.44,-2.63 -1.44,-4.06 0,-1.02 0.34,-1.54 1,-1.54 1.17,0 3,0.74 5.49,2.22 2.78,1.65 5.11,3.56 7,5.76 2.32,2.69 3.48,5.31 3.48,7.89zm10.13 12.78l-1.5 0c-1.37,0 -2.47,-0.74 -3.31,-2.22 -1,-1.78 -1.5,-4.49 -1.5,-8.11 0,-0.25 -0.03,-0.6 -0.09,-1.05 -0.06,-0.43 -0.08,-0.7 -0.08,-0.82 -1.56,4.33 -2.95,7.31 -4.17,8.92 -1.44,1.88 -3.47,3.13 -6.11,3.74 -2.24,0.53 -6.05,0.79 -11.44,0.79l0 -0.7c4.37,-1.32 7.62,-2.45 9.76,-3.41 3.45,-1.53 6.08,-3.29 7.86,-5.29 2.16,-2.4 3.23,-5.25 3.23,-8.55 0,-1.59 -0.1,-3.08 -0.3,-4.46 -0.2,-1.38 -0.47,-2.8 -0.82,-4.24l0.8 -2.07c0.32,-0.8 0.62,-1.47 0.9,-2.03 0.42,2.34 0.83,4.87 1.21,7.58 0.26,1.88 0.51,3.89 0.76,6.04 0.31,2.63 0.59,4.75 0.81,6.36 0.29,2.05 0.73,3.51 1.33,4.39 0.39,0.59 0.78,0.88 1.17,0.88l1.49 0 0 4.25zm-18.5 9.38c0,0.42 -0.25,0.78 -0.76,1.11 -0.34,0.22 -0.85,0.44 -1.54,0.68l-4.55 1.58c0,-0.76 0.83,-1.42 2.47,-1.99 -0.51,-0.27 -0.89,-0.52 -1.15,-0.76 -0.34,-0.32 -0.52,-0.64 -0.52,-0.99 0,-0.5 0.44,-1.22 1.3,-2.14 0.97,-1.01 1.82,-1.52 2.55,-1.52 0.33,0 0.61,0.11 0.84,0.33 0.25,0.23 0.36,0.52 0.36,0.88 0,0.24 -0.05,0.47 -0.15,0.71 -0.09,0.24 -0.23,0.51 -0.41,0.8 -0.5,-0.45 -1.05,-0.67 -1.65,-0.67 -0.35,0 -0.71,0.07 -1.06,0.21 -0.35,0.15 -0.53,0.32 -0.53,0.51 0,0.24 0.38,0.58 1.14,0.99 0.75,0.43 1.4,0.64 1.93,0.64 0.36,0 0.62,-0.01 0.77,-0.04 0.15,-0.02 0.48,-0.13 0.96,-0.33z"/>
  <path id="20" class="fil0" d="M400.62 39.95l-12.05 0 0 -4.25 9.6 0 -3 -20.77 -1.25 -0.6c0,-1.11 0.1,-2.16 0.29,-3.15 0.2,-0.97 0.49,-1.93 0.88,-2.85l0.38 0.27c0,0.94 0.53,1.65 1.6,2.12 0.82,0.33 1.65,0.65 2.5,0.98 0,0.81 -0.07,1.67 -0.2,2.58 -0.13,0.93 -0.29,1.61 -0.47,2.06l-1.18 -0.39 2.9 19.21 0 4.79z"/>
  <path id="21" class="fil0" d="M421.26 1.36c0,0.74 -0.42,1.46 -1.24,2.15 -1.49,0.6 -3.85,1.55 -7.11,2.85 0,-0.71 0.36,-1.39 1.07,-2.05 1.35,-0.56 3.78,-1.54 7.28,-2.95zm0 3.7c0,0.77 -0.11,1.25 -0.34,1.44 -0.21,0.18 -0.51,0.43 -0.89,0.76 -1.49,0.6 -3.86,1.55 -7.12,2.85 0,-0.71 0.36,-1.39 1.07,-2.05 1.35,-0.56 3.78,-1.56 7.28,-3z"/>
  <path id="22" class="fil0" d="M426.01 39.95l-3.44 0c-1.11,0 -2,-0.45 -2.67,-1.34 -0.59,-0.79 -1.04,-1.94 -1.34,-3.49 -0.3,-1.55 -0.54,-3.45 -0.7,-5.71 -0.1,-1.84 -0.2,-3.72 -0.31,-5.66 -0.1,-1.93 -0.24,-3.4 -0.41,-4.4 -0.17,-1 -0.41,-1.82 -0.7,-2.45 -0.35,-0.78 -0.85,-1.47 -1.48,-2.05l2.97 -4.75c0.65,1.95 1.11,4.28 1.38,7 0.16,1.7 0.33,5.7 0.5,12.01 0.29,2.9 0.71,4.75 1.27,5.56 0.46,0.69 0.96,1.03 1.49,1.03l3.44 0 0 4.25z"/>
  <path id="23" class="fil0" d="M452.53 39.95l-1.87 0c-1.03,0 -1.91,-0.14 -2.65,-0.43 -0.75,-0.28 -1.43,-0.69 -2.05,-1.2 -0.76,0.59 -1.43,0.99 -2,1.19 -0.84,0.29 -1.98,0.44 -3.44,0.44l-1.59 0c-0.85,0 -1.7,-0.17 -2.55,-0.49 -0.55,-0.21 -1.24,-0.56 -2.06,-1.05 -0.78,0.59 -1.5,0.99 -2.15,1.2 -0.65,0.23 -1.7,0.34 -3.17,0.34l-4.72 0 0 -4.25 4.73 0c1.31,0 2.26,-0.12 2.84,-0.34 0.94,-0.38 1.42,-1.13 1.42,-2.24 0,-0.48 -0.03,-0.95 -0.08,-1.42 -0.04,-0.48 -0.13,-1 -0.26,-1.58l0.98 -1.47c0.46,1.5 0.83,2.58 1.13,3.27 0.53,1.19 1.1,2.08 1.72,2.68 0.76,0.73 1.66,1.1 2.71,1.1l1.65 0c1.23,0 2.14,-0.18 2.73,-0.56 0.65,-0.42 0.98,-1.1 0.98,-2.02 0,-0.51 -0.03,-1 -0.09,-1.47 -0.07,-0.48 -0.15,-0.98 -0.26,-1.53l0.98 -1.47 0.5 2.3c0.45,1.81 0.98,3.07 1.61,3.77 0.56,0.62 1.3,0.93 2.25,0.93 0.44,0 0.79,-0.13 1.06,-0.41 0.27,-0.27 0.4,-0.62 0.4,-1.04 0,-0.92 -0.33,-1.88 -1,-2.9 -0.12,-0.17 -0.52,-0.7 -1.2,-1.6l1.58 -2.65c0.65,1.01 1.1,1.88 1.35,2.62 0.35,1.1 0.52,2.58 0.52,4.41l0 5.87z"/>
  <path id="24" class="fil0" d="M464.02 39.95l-3.43 0c-1.12,0 -2.01,-0.45 -2.68,-1.34 -0.59,-0.79 -1.04,-1.94 -1.34,-3.49 -0.3,-1.55 -0.53,-3.45 -0.7,-5.71 -0.1,-1.84 -0.2,-3.72 -0.31,-5.66 -0.09,-1.93 -0.24,-3.4 -0.4,-4.4 -0.18,-1 -0.41,-1.82 -0.7,-2.45 -0.35,-0.78 -0.85,-1.47 -1.49,-2.05l2.98 -4.75c0.65,1.95 1.11,4.28 1.37,7 0.17,1.7 0.34,5.7 0.5,12.01 0.29,2.9 0.72,4.75 1.28,5.56 0.46,0.69 0.96,1.03 1.49,1.03l3.43 0 0 4.25z"/>
  <path id="25" class="fil0" d="M490.55 39.95l-1.87 0c-1.03,0 -1.92,-0.14 -2.66,-0.43 -0.75,-0.28 -1.42,-0.69 -2.04,-1.2 -0.77,0.59 -1.43,0.99 -2.01,1.19 -0.83,0.29 -1.97,0.44 -3.43,0.44l-1.59 0c-0.85,0 -1.7,-0.17 -2.55,-0.49 -0.55,-0.21 -1.24,-0.56 -2.06,-1.05 -0.78,0.59 -1.5,0.99 -2.15,1.2 -0.65,0.23 -1.71,0.34 -3.18,0.34l-4.71 0 0 -4.25 4.72 0c1.32,0 2.27,-0.12 2.84,-0.34 0.95,-0.38 1.42,-1.13 1.42,-2.24 0,-0.48 -0.02,-0.95 -0.07,-1.42 -0.05,-0.48 -0.14,-1 -0.26,-1.58l0.97 -1.47c0.46,1.5 0.84,2.58 1.14,3.27 0.52,1.19 1.1,2.08 1.71,2.68 0.76,0.73 1.66,1.1 2.71,1.1l1.65 0c1.23,0 2.14,-0.18 2.73,-0.56 0.65,-0.42 0.99,-1.1 0.99,-2.02 0,-0.51 -0.04,-1 -0.09,-1.47 -0.07,-0.48 -0.15,-0.98 -0.26,-1.53l0.97 -1.47 0.51 2.3c0.44,1.81 0.98,3.07 1.61,3.77 0.56,0.62 1.3,0.93 2.25,0.93 0.43,0 0.79,-0.13 1.06,-0.41 0.26,-0.27 0.4,-0.62 0.4,-1.04 0,-0.92 -0.34,-1.88 -1,-2.9 -0.12,-0.17 -0.52,-0.7 -1.2,-1.6l1.57 -2.65c0.66,1.01 1.11,1.88 1.35,2.62 0.35,1.1 0.53,2.58 0.53,4.41l0 5.87z"/>
  <path id="26" class="fil0" d="M498.79 33.72c0,1.3 -0.24,2.56 -0.72,3.78 -0.25,0.65 -0.78,1.68 -1.61,3.1l-0.44 -0.24c0.06,-0.48 0.11,-1.02 0.15,-1.65 0.04,-0.61 0.07,-1.03 0.07,-1.24 0,-1.69 -0.13,-4.05 -0.4,-7.09 -0.28,-3.03 -0.59,-6.2 -0.97,-9.51 -0.23,-2 -0.48,-4.04 -0.76,-6.12 0.33,-0.72 0.7,-1.48 1.12,-2.32 0.42,-0.82 0.81,-1.6 1.18,-2.33 0.26,1.85 0.6,4.39 1,7.61 0.4,3.22 0.71,6.12 0.94,8.71 0.29,3.22 0.44,5.65 0.44,7.3zm0.7 -26.59c0,0.42 -0.25,0.79 -0.76,1.11 -0.34,0.22 -0.86,0.44 -1.54,0.68l-4.55 1.58c0,-0.76 0.82,-1.42 2.47,-1.99 -0.51,-0.27 -0.9,-0.52 -1.15,-0.76 -0.35,-0.32 -0.52,-0.64 -0.52,-0.99 0,-0.5 0.43,-1.22 1.3,-2.14 0.97,-1.01 1.82,-1.52 2.55,-1.52 0.32,0 0.61,0.11 0.84,0.33 0.24,0.23 0.36,0.52 0.36,0.89 0,0.23 -0.05,0.46 -0.15,0.7 -0.09,0.24 -0.23,0.51 -0.42,0.8 -0.5,-0.45 -1.05,-0.67 -1.64,-0.67 -0.36,0 -0.72,0.07 -1.07,0.22 -0.35,0.15 -0.52,0.31 -0.52,0.5 0,0.25 0.37,0.58 1.13,1 0.76,0.42 1.4,0.63 1.94,0.63 0.35,0 0.61,-0.01 0.77,-0.03 0.15,-0.03 0.48,-0.14 0.96,-0.34z"/>
  <path id="27" class="fil0" d="M550.43 39.95l-23.29 0c-3.13,0 -5.61,-0.54 -7.47,-1.63 -2.32,-1.38 -3.49,-3.51 -3.49,-6.43 0,-1.52 0.34,-3.07 1.03,-4.64 0.24,-0.58 0.82,-1.66 1.75,-3.25l0.72 0.47c-0.36,0.75 -0.71,1.49 -1.04,2.24 -0.48,1.16 -0.71,2.19 -0.71,3.11 0,1.91 1.01,3.4 3.03,4.46 1.8,0.94 4.09,1.42 6.85,1.42l20.67 0 0 -0.66c0,-1.82 -0.22,-3.31 -0.66,-4.45 -0.44,-1.15 -1.18,-2.12 -2.24,-2.94l1.88 -4c0.72,0.89 1.15,1.46 1.29,1.68 1.12,1.83 1.68,4.49 1.68,7.97l0 6.65zm-11.5 -22.25l-1.8 3.55 -4 -2.05 1.85 -3.55 3.95 2.05zm-5.55 2.25l-1.81 3.5 -3.99 -2.08 1.88 -3.52 3.92 2.1z"/>
  <path id="28" class="fil0" d="M567.3 39.95l-10.91 0c-0.93,0 -1.76,-0.27 -2.5,-0.81 -0.73,-0.53 -1.11,-1.17 -1.11,-1.9 0,-0.62 0.03,-1.17 0.1,-1.68 0.07,-0.5 0.19,-1.06 0.37,-1.66l0.5 0c0.18,0.67 0.51,1.14 0.97,1.43 0.39,0.24 0.94,0.37 1.62,0.37l9.46 0c0,-2.92 -0.41,-5.26 -1.23,-7.03 -1.01,-2.21 -2.71,-3.69 -5.07,-4.42l0.37 -4.75c2.83,1.38 4.83,3.59 6,6.62 0.95,2.45 1.43,5.64 1.43,9.58l0 4.25zm-6.5 -28.73l-1.89 3.53 -3.91 -2.04 1.79 -3.56 4.01 2.07z"/>
  <path id="29" class="fil0" d="M593.81 39.95l-28.2 0 0 -4.25 19.9 0c-1.66,-1.29 -3.06,-2.29 -4.2,-3.01 -1.41,-0.9 -2.71,-1.55 -3.88,-1.96 -1.32,-0.46 -2.65,-0.68 -4,-0.68 -0.83,0 -1.67,0.06 -2.52,0.17 0.48,-1.2 1.09,-2.16 1.86,-2.89 1.1,-1.06 2.5,-1.58 4.2,-1.58 1.66,0 3.62,0.82 5.89,2.44 1.11,0.81 2.94,2.36 5.49,4.63 1.96,1.77 3.3,2.73 4,2.88l1.46 0 0 4.25zm-11.75 -22.73l-1.88 3.53 -3.92 -2.04 1.8 -3.56 4 2.07z"/>
  <path id="30" class="fil0" d="M606 39.95l-13.9 0 0 -4.25 12.15 0c0,-1.92 -0.23,-3.38 -0.69,-4.38 -0.31,-0.7 -1.07,-1.7 -2.31,-3.02l1.93 -4c1.16,1.48 1.88,2.63 2.17,3.47 0.44,1.25 0.65,3.32 0.65,6.22l0 5.96zm-0.15 -24.15l-1.8 3.55 -4 -2.05 1.85 -3.55 3.95 2.05zm-5.55 2.25l-1.8 3.5 -4 -2.08 1.89 -3.52 3.91 2.1z"/>
  <path id="31" class="fil0" d="M614.26 33.72c0,1.3 -0.24,2.56 -0.72,3.78 -0.24,0.65 -0.78,1.68 -1.6,3.1l-0.44 -0.24c0.05,-0.48 0.1,-1.02 0.15,-1.65 0.04,-0.61 0.06,-1.03 0.06,-1.24 0,-1.69 -0.13,-4.05 -0.4,-7.09 -0.27,-3.03 -0.59,-6.2 -0.96,-9.51 -0.24,-2 -0.49,-4.04 -0.76,-6.12 0.32,-0.72 0.7,-1.48 1.11,-2.32 0.42,-0.82 0.81,-1.6 1.19,-2.33 0.26,1.85 0.59,4.39 0.99,7.61 0.4,3.22 0.72,6.12 0.94,8.71 0.29,3.22 0.44,5.65 0.44,7.3z"/>
  <path id="32" class="fil0" d="M659.65 39.95l-4.26 0c-2.5,0 -4.39,0.07 -5.64,0.2 -1.26,0.12 -1.9,0.39 -1.9,0.78 0,0.54 0.76,0.82 2.28,0.82 0.67,0 1.19,0.01 1.58,0.05 0.39,0.03 1.25,0.11 2.57,0.26 0.78,0.1 1.32,0.22 1.62,0.37 0.47,0.24 0.7,0.67 0.7,1.27 0,3.04 -1,5.25 -3,6.63 -2.18,1.51 -5.78,2.27 -10.8,2.27 -3.51,0 -6.29,-0.59 -8.35,-1.78 -2.2,-1.27 -3.3,-3.08 -3.3,-5.42 0,-1.89 0.52,-3.88 1.55,-6 0.37,-0.76 1.35,-2.4 2.93,-4.9l0.97 0.48c-0.61,1.05 -1.21,2.1 -1.81,3.14 -0.93,1.79 -1.39,3.25 -1.39,4.39 0,2 1.05,3.51 3.13,4.56 1.99,0.99 4.71,1.48 8.19,1.48 2.33,0 4.38,-0.18 6.16,-0.54 2.18,-0.44 3.27,-1.03 3.27,-1.8 0,-0.27 -0.12,-0.48 -0.36,-0.61 -0.25,-0.14 -0.66,-0.21 -1.24,-0.21 -0.44,-0.05 -1.13,-0.1 -2.07,-0.16 -0.94,-0.06 -1.56,-0.08 -1.85,-0.08 -1.04,0 -1.77,-0.14 -2.21,-0.4 -0.44,-0.28 -0.67,-0.68 -0.67,-1.21 0,-2.02 0.59,-3.67 1.79,-4.96 0.97,-1.04 2.29,-1.82 3.93,-2.32 1.23,-0.38 2.54,-0.56 3.91,-0.56l4.27 0 0 4.25zm-10.1 15.64l-2.26 2.11 -2.74 -1.74 2.2 -2.31 2.8 1.94zm-5.05 0l-2.21 2.11 -2.84 -1.74 2.27 -2.31 2.78 1.94z"/>
  <path id="33" class="fil0" d="M671.87 39.95l-13.9 0 0 -4.25 12.15 0c0,-1.92 -0.23,-3.38 -0.69,-4.38 -0.31,-0.7 -1.08,-1.7 -2.31,-3.02l1.92 -4c1.16,1.48 1.89,2.63 2.18,3.47 0.43,1.25 0.65,3.32 0.65,6.22l0 5.96zm-0.15 -24.15l-1.8 3.55 -4 -2.05 1.85 -3.55 3.95 2.05zm-5.55 2.25l-1.81 3.5 -3.99 -2.08 1.88 -3.52 3.92 2.1z"/>
  <path id="34" class="fil0" d="M682.23 39.95l-12.05 0 0 -4.25 9.6 0 -3 -20.77 -1.25 -0.6c0,-1.11 0.1,-2.16 0.29,-3.15 0.2,-0.97 0.49,-1.93 0.88,-2.85l0.38 0.27c0,0.94 0.53,1.65 1.61,2.12 0.81,0.33 1.65,0.65 2.49,0.98 0,0.81 -0.07,1.67 -0.2,2.58 -0.13,0.93 -0.29,1.61 -0.47,2.06l-1.18 -0.39 2.9 19.21 0 4.79z"/>
  <path id="35" class="fil0" d="M690.48 33.72c0,1.3 -0.24,2.56 -0.72,3.78 -0.25,0.65 -0.78,1.68 -1.61,3.1l-0.44 -0.24c0.06,-0.48 0.11,-1.02 0.15,-1.65 0.04,-0.61 0.07,-1.03 0.07,-1.24 0,-1.69 -0.14,-4.05 -0.4,-7.09 -0.28,-3.03 -0.59,-6.2 -0.97,-9.51 -0.23,-2 -0.48,-4.04 -0.76,-6.12 0.33,-0.72 0.7,-1.48 1.12,-2.32 0.42,-0.82 0.81,-1.6 1.18,-2.33 0.26,1.85 0.59,4.39 0.99,7.61 0.4,3.22 0.72,6.12 0.95,8.71 0.29,3.22 0.44,5.65 0.44,7.3z"/>
  <path id="36" class="fil0" d="M725.22 39.95l-3.49 0c-1.17,0 -2.2,-1 -3.1,-2.99 -0.67,-1.5 -1.2,-3.43 -1.61,-5.78 -0.48,0.91 -1.11,1.61 -1.85,2.12 -0.75,0.5 -1.54,0.75 -2.37,0.75 -1.86,0 -3.42,-0.13 -4.66,-0.38 -1.25,-0.25 -1.87,-0.57 -1.87,-0.96 0,-1.4 0.91,-2.95 2.72,-4.65 1.81,-1.7 4.08,-3.19 6.8,-4.46 -0.03,-0.13 -0.1,-0.47 -0.2,-1.03 -0.11,-0.55 -0.17,-0.89 -0.17,-1.01 0,-0.56 0.19,-1.18 0.57,-1.85 0.32,-0.56 0.74,-1.13 1.25,-1.71 0.17,1.01 0.34,1.98 0.5,2.92 0.18,0.95 0.37,1.92 0.6,2.93l0.73 4.19c0.41,2.31 0.77,4.02 1.1,5.13 0.51,1.69 1.02,2.53 1.57,2.53l3.48 0 0 4.25zm-8.53 -10.89l-0.47 -2.66c-1.4,0.51 -2.51,1.03 -3.32,1.57 -0.81,0.55 -1.48,1.27 -2.03,2.16 0.34,0.15 0.73,0.27 1.19,0.34 0.45,0.09 1.08,0.13 1.87,0.13 0.96,0 1.89,-0.52 2.76,-1.54zm2.28 -18.36l-1.8 3.55 -4 -2.05 1.85 -3.55 3.95 2.05zm-5.55 2.25l-1.81 3.5 -3.99 -2.08 1.88 -3.52 3.92 2.1z"/>
  <path id="37" class="fil0" d="M737.42 39.95l-13.9 0 0 -4.25 12.15 0c0,-1.92 -0.23,-3.38 -0.69,-4.38 -0.31,-0.7 -1.08,-1.7 -2.31,-3.02l1.92 -4c1.16,1.48 1.89,2.63 2.18,3.47 0.43,1.25 0.65,3.32 0.65,6.22l0 5.96zm-0.25 4.8l-1.8 3.55 -4 -2.05 1.85 -3.55 3.95 2.05zm-5.55 2.25l-1.81 3.5 -3.99 -2.08 1.88 -3.52 3.92 2.1z"/>
  <path id="38" class="fil0" d="M759.03 38.43c0,2.7 -1,5.38 -2.99,8.05 -2.21,2.98 -4.76,4.47 -7.66,4.47 -1.08,0 -2.19,-0.13 -3.33,-0.37 -0.83,-0.17 -1.91,-0.48 -3.25,-0.92 -1.06,-0.37 -2.11,-0.73 -3.17,-1.09l0.41 -0.86c0.91,0.21 1.87,0.44 2.87,0.68 1,0.24 1.9,0.36 2.7,0.36 1.98,0 3.87,-0.51 5.64,-1.53 1.39,-0.81 2.77,-1.97 4.15,-3.5 0.7,-0.77 1.69,-2.03 2.98,-3.77 -2.2,0 -3.85,-0.35 -4.94,-1.06 -1.25,-0.8 -1.86,-2.12 -1.86,-3.95 0,-1.68 0.39,-3.25 1.17,-4.69 0.92,-1.67 2.08,-2.5 3.48,-2.5 1.42,0 2.44,0.82 3.06,2.48 0.49,1.29 0.74,3.09 0.74,5.4l0 2.8zm-1.55 -2.68c-0.36,-1.58 -0.8,-2.66 -1.3,-3.27 -0.44,-0.52 -0.98,-0.78 -1.61,-0.78 -0.46,0 -0.86,0.15 -1.19,0.45 -0.34,0.31 -0.5,0.68 -0.5,1.14 0,0.81 0.35,1.42 1.07,1.83 0.72,0.42 1.89,0.63 3.53,0.63z"/>
  <path id="39" class="fil0" d="M778.73 39.95l-8.93 0c1.04,0.49 1.92,1.18 2.65,2.08 0.93,1.13 1.39,2.34 1.39,3.67 0,1.26 -0.2,2.29 -0.59,3.06 -0.49,0.95 -1.25,1.44 -2.29,1.44 -1.94,0 -3.73,-0.68 -5.35,-2.04 -1.95,-1.62 -2.93,-3.78 -2.93,-6.45l0.06 -1.76 -5.4 0 0 -4.25 6.2 0c0.56,-1.52 1.19,-2.92 1.87,-4.22 0.86,-1.65 1.77,-2.98 2.71,-4.02 1.08,-1.21 2.11,-1.81 3.07,-1.81 0.49,0 0.94,0.44 1.32,1.32 0.38,0.87 0.58,1.81 0.58,2.8 0,1.43 -0.38,2.6 -1.12,3.49 -0.44,0.54 -1.76,1.35 -3.95,2.44l10.71 0 0 4.25zm-8.04 -8.38c0,-1.55 -0.33,-2.32 -0.98,-2.32 -0.7,0 -1.54,0.77 -2.52,2.3 -0.47,0.73 -1.14,1.95 -2,3.66 1.48,-0.4 2.73,-0.92 3.74,-1.54 1.17,-0.71 1.76,-1.41 1.76,-2.1zm0.95 13.73c0,-1.29 -0.95,-2.53 -2.84,-3.72 -1.55,-0.97 -3.06,-1.59 -4.56,-1.85 0,1.79 0.43,3.26 1.29,4.42 1.04,1.4 2.6,2.1 4.66,2.1 0.4,0 0.74,-0.08 1.02,-0.24 0.28,-0.17 0.43,-0.4 0.43,-0.71z"/>
  <path id="40" class="fil0" d="M789.08 39.95l-12.05 0 0 -4.25 9.6 0 -3 -20.77 -1.25 -0.6c0,-1.11 0.1,-2.16 0.3,-3.15 0.2,-0.97 0.49,-1.93 0.88,-2.85l0.37 0.27c0,0.94 0.54,1.65 1.61,2.12 0.82,0.33 1.65,0.65 2.49,0.98 0,0.81 -0.06,1.67 -0.2,2.58 -0.12,0.93 -0.28,1.61 -0.46,2.06l-1.19 -0.39 2.9 19.21 0 4.79z"/>
  <path id="41" class="fil0" d="M797.33 33.72c0,1.3 -0.24,2.56 -0.71,3.78 -0.25,0.65 -0.79,1.68 -1.61,3.1l-0.44 -0.24c0.06,-0.48 0.11,-1.02 0.15,-1.65 0.04,-0.61 0.06,-1.03 0.06,-1.24 0,-1.69 -0.13,-4.05 -0.4,-7.09 -0.27,-3.03 -0.59,-6.2 -0.96,-9.51 -0.24,-2 -0.49,-4.04 -0.76,-6.12 0.32,-0.72 0.7,-1.48 1.12,-2.32 0.41,-0.82 0.8,-1.6 1.18,-2.33 0.26,1.85 0.59,4.39 0.99,7.61 0.4,3.22 0.72,6.12 0.94,8.71 0.29,3.22 0.44,5.65 0.44,7.3z"/>
  <path id="42" class="fil0" d="M848.98 39.95l-23.3 0c-3.12,0 -5.6,-0.54 -7.46,-1.63 -2.33,-1.38 -3.49,-3.51 -3.49,-6.43 0,-1.52 0.34,-3.07 1.02,-4.64 0.24,-0.58 0.83,-1.66 1.75,-3.25l0.73 0.47c-0.36,0.75 -0.71,1.49 -1.05,2.24 -0.47,1.16 -0.7,2.19 -0.7,3.11 0,1.91 1,3.4 3.02,4.46 1.81,0.94 4.09,1.42 6.86,1.42l20.67 0 0 -0.66c0,-1.82 -0.22,-3.31 -0.66,-4.45 -0.44,-1.15 -1.19,-2.12 -2.24,-2.94l1.87 -4c0.73,0.89 1.16,1.46 1.3,1.68 1.12,1.83 1.68,4.49 1.68,7.97l0 6.65zm-11.5 -22.25l-1.8 3.55 -4 -2.05 1.85 -3.55 3.95 2.05zm-5.55 2.25l-1.81 3.5 -3.99 -2.08 1.88 -3.52 3.92 2.1z"/>
  <path id="43" class="fil0" d="M860.49 39.95l-3.43 0c-1.12,0 -2.01,-0.45 -2.68,-1.34 -0.59,-0.79 -1.04,-1.94 -1.34,-3.49 -0.3,-1.55 -0.53,-3.45 -0.7,-5.71 -0.1,-1.84 -0.2,-3.72 -0.31,-5.66 -0.09,-1.93 -0.24,-3.4 -0.4,-4.4 -0.18,-1 -0.41,-1.82 -0.7,-2.45 -0.35,-0.78 -0.85,-1.47 -1.49,-2.05l2.98 -4.75c0.65,1.95 1.11,4.28 1.37,7 0.17,1.7 0.34,5.7 0.5,12.01 0.29,2.9 0.72,4.75 1.28,5.56 0.46,0.69 0.96,1.03 1.49,1.03l3.43 0 0 4.25z"/>
  <path id="44" class="fil0" d="M880.17 39.95l-2.54 0c-1.09,0 -2.31,-0.25 -3.68,-0.74 -1.57,-0.57 -2.96,-1.36 -4.17,-2.36 -0.94,1.17 -1.9,1.97 -2.89,2.42 -0.98,0.45 -2.42,0.68 -4.31,0.68l-3.81 0 0 -4.25 3.73 0c1.48,0 2.8,-0.38 3.95,-1.13 0.9,-0.59 1.71,-1.4 2.44,-2.47 0.99,-1.43 2.22,-2.68 3.67,-3.74 1.3,-0.94 2.49,-1.55 3.58,-1.81 1.13,1.71 2.02,3.25 2.68,4.62 0.9,1.86 1.35,3.37 1.35,4.52l0 4.26zm-2.8 -4.82c-0.21,-0.95 -0.54,-1.88 -0.98,-2.8 -0.37,-0.77 -0.87,-1.56 -1.49,-2.38 -0.77,0.2 -1.43,0.57 -1.97,1.11 -0.35,0.34 -0.78,0.92 -1.26,1.74 0.58,0.64 1.41,1.21 2.47,1.72 1.06,0.5 2.07,0.81 3.01,0.93l0.22 -0.32z"/>
  <path id="45" class="fil0" d="M901.77 38.43c0,2.7 -1,5.38 -2.99,8.05 -2.21,2.98 -4.76,4.47 -7.66,4.47 -1.08,0 -2.19,-0.13 -3.33,-0.37 -0.83,-0.17 -1.92,-0.48 -3.25,-0.92 -1.06,-0.37 -2.12,-0.73 -3.17,-1.09l0.41 -0.86c0.91,0.21 1.87,0.44 2.87,0.68 1,0.24 1.9,0.36 2.7,0.36 1.98,0 3.87,-0.51 5.64,-1.53 1.39,-0.81 2.77,-1.97 4.15,-3.5 0.7,-0.77 1.69,-2.03 2.98,-3.77 -2.2,0 -3.85,-0.35 -4.95,-1.06 -1.24,-0.8 -1.85,-2.12 -1.85,-3.95 0,-1.68 0.39,-3.25 1.17,-4.69 0.92,-1.67 2.08,-2.5 3.48,-2.5 1.42,0 2.44,0.82 3.06,2.48 0.49,1.29 0.74,3.09 0.74,5.4l0 2.8zm-1.55 -2.68c-0.36,-1.58 -0.8,-2.66 -1.3,-3.27 -0.44,-0.52 -0.98,-0.78 -1.61,-0.78 -0.46,0 -0.86,0.15 -1.19,0.45 -0.34,0.31 -0.5,0.68 -0.5,1.14 0,0.81 0.35,1.42 1.07,1.83 0.72,0.42 1.89,0.63 3.53,0.63z"/>
  <path id="46" class="fil0" d="M912.12 39.95l-12.04 0 0 -4.25 9.6 0 -3 -20.77 -1.26 -0.6c0,-1.11 0.1,-2.16 0.3,-3.15 0.2,-0.97 0.49,-1.93 0.88,-2.85l0.38 0.27c0,0.94 0.53,1.65 1.6,2.12 0.82,0.33 1.65,0.65 2.49,0.98 0,0.81 -0.06,1.67 -0.19,2.58 -0.13,0.93 -0.29,1.61 -0.47,2.06l-1.18 -0.39 2.89 19.21 0 4.79z"/>
  <path id="47" class="fil0" d="M931.82 39.95l-3.58 0c-1.06,0 -2.12,-0.25 -3.22,-0.76 -1.3,-0.6 -2.24,-1.44 -2.82,-2.52 -1.09,0.99 -2.34,1.74 -3.74,2.28 -1.71,0.66 -3.65,1 -5.84,1l-2.19 0 0 -4.25 2.19 0c1.37,0 2.65,-0.15 3.82,-0.44 1.33,-0.34 2.65,-0.88 3.93,-1.63l-1.03 -1.31c-0.52,-0.61 -1.12,-0.92 -1.77,-0.92 -0.3,0 -0.55,0.05 -0.79,0.16 -0.22,0.11 -0.48,0.33 -0.76,0.69l-0.5 0 0 -1.44c0,-1.8 0.48,-3.04 1.42,-3.7 0.86,-0.61 2.35,-0.91 4.48,-0.91 1.84,0 3.34,0.24 4.49,0.73 1.51,0.64 2.26,1.62 2.26,2.94 0,0.7 -0.3,1.42 -0.9,2.17 -0.43,0.55 -1.23,1.32 -2.4,2.3 0.26,0.38 0.76,0.71 1.5,0.97 0.75,0.26 1.36,0.39 1.87,0.39l3.58 0 0 4.25z"/>
  <path id="48" class="fil0" d="M951.52 39.95l-2.53 0c-1.09,0 -2.32,-0.25 -3.68,-0.74 -1.58,-0.57 -2.96,-1.36 -4.17,-2.36 -0.94,1.17 -1.91,1.97 -2.89,2.42 -0.98,0.45 -2.43,0.68 -4.32,0.68l-3.81 0 0 -4.25 3.74 0c1.48,0 2.8,-0.38 3.95,-1.13 0.9,-0.59 1.71,-1.4 2.44,-2.47 0.99,-1.43 2.22,-2.68 3.67,-3.74 1.3,-0.94 2.49,-1.55 3.58,-1.81 1.12,1.71 2.02,3.25 2.68,4.62 0.89,1.86 1.34,3.37 1.34,4.52l0 4.26zm-2.8 -4.82c-0.2,-0.95 -0.53,-1.88 -0.97,-2.8 -0.38,-0.77 -0.88,-1.56 -1.49,-2.38 -0.78,0.2 -1.44,0.57 -1.97,1.11 -0.36,0.34 -0.78,0.92 -1.27,1.74 0.59,0.64 1.41,1.21 2.48,1.72 1.06,0.5 2.07,0.81 3.01,0.93l0.21 -0.32z"/>
  <path id="49" class="fil0" d="M968.93 23.95l-1.21 -6.8 0 -5.85 5 0 0 5.85 -1.11 6.8 -2.68 0zm8.08 0l-1.2 -6.8 0 -5.85 5.01 0 0 5.85 -1.18 6.8 -2.63 0z"/>
  <path id="50" class="fil0" d="M1026.46 39.95l-4.27 0c-2.5,0 -4.38,0.07 -5.64,0.2 -1.26,0.12 -1.89,0.39 -1.89,0.78 0,0.54 0.75,0.82 2.27,0.82 0.67,0 1.19,0.01 1.58,0.05 0.4,0.03 1.25,0.11 2.57,0.26 0.78,0.1 1.33,0.22 1.62,0.37 0.47,0.24 0.71,0.67 0.71,1.27 0,3.04 -1,5.25 -3,6.63 -2.19,1.51 -5.79,2.27 -10.81,2.27 -3.5,0 -6.28,-0.59 -8.35,-1.78 -2.19,-1.27 -3.29,-3.08 -3.29,-5.42 0,-1.89 0.51,-3.88 1.55,-6 0.36,-0.76 1.34,-2.4 2.92,-4.9l0.98 0.48c-0.62,1.05 -1.22,2.1 -1.82,3.14 -0.92,1.79 -1.38,3.25 -1.38,4.39 0,2 1.04,3.51 3.12,4.56 1.99,0.99 4.72,1.48 8.19,1.48 2.34,0 4.39,-0.18 6.16,-0.54 2.18,-0.44 3.28,-1.03 3.28,-1.8 0,-0.27 -0.13,-0.48 -0.37,-0.61 -0.25,-0.14 -0.66,-0.21 -1.23,-0.21 -0.44,-0.05 -1.14,-0.1 -2.08,-0.16 -0.94,-0.06 -1.56,-0.08 -1.85,-0.08 -1.03,0 -1.76,-0.14 -2.21,-0.4 -0.44,-0.28 -0.66,-0.68 -0.66,-1.21 0,-2.02 0.59,-3.67 1.78,-4.96 0.98,-1.04 2.29,-1.82 3.93,-2.32 1.24,-0.38 2.54,-0.56 3.91,-0.56l4.28 0 0 4.25z"/>
  <path id="51" class="fil0" d="M1036.82 39.95l-12.05 0 0 -4.25 9.6 0 -3 -20.77 -1.25 -0.6c0,-1.11 0.1,-2.16 0.29,-3.15 0.21,-0.97 0.5,-1.93 0.89,-2.85l0.37 0.27c0,0.94 0.54,1.65 1.61,2.12 0.82,0.33 1.65,0.65 2.49,0.98 0,0.81 -0.06,1.67 -0.2,2.58 -0.12,0.93 -0.28,1.61 -0.46,2.06l-1.19 -0.39 2.9 19.21 0 4.79z"/>
  <path id="52" class="fil0" d="M1060.32 32.3l-1.68 4.45c-2.46,0.9 -5.3,1.66 -8.52,2.27 -3.24,0.62 -6.21,0.93 -8.92,0.93l-6.08 0 0 -4.25 5.85 0c-0.47,-0.77 -0.86,-1.63 -1.16,-2.6 -0.29,-0.97 -0.44,-1.91 -0.44,-2.82 0,-1.91 0.8,-3.53 2.4,-4.83 1.61,-1.3 3.67,-1.95 6.19,-1.95 2.01,0 3.65,0.48 4.95,1.46 0.56,0.41 1.5,1.4 2.81,2.99l-0.46 0.4c-1.12,-0.3 -2.13,-0.53 -3.02,-0.68 -0.89,-0.15 -1.82,-0.22 -2.78,-0.22 -2.24,0 -3.99,0.25 -5.27,0.74 -1.27,0.5 -1.92,1.15 -1.92,1.97 0,0.79 0.4,1.68 1.21,2.66 0.8,0.99 1.84,1.86 3.11,2.63 2.67,-0.41 4.85,-0.81 6.56,-1.19 1.71,-0.39 4.1,-1.04 7.17,-1.96z"/>
  <path id="53" class="fil0" d="M1095.16 34l-1.15 4c-2.48,0.62 -4.52,1.31 -6.12,2.08 -1.84,0.89 -3.52,2.04 -5.03,3.47l-0.76 -0.42c0.21,-0.75 0.5,-1.45 0.86,-2.08 0.3,-0.56 0.66,-1.06 1.07,-1.5l-2.83 -1.61c-0.83,-0.55 -1.24,-1.15 -1.24,-1.8 0,-0.52 0.32,-1.47 0.97,-2.82 0.78,-1.63 1.68,-2.99 2.68,-4.08 1.3,-1.39 2.61,-2.09 3.93,-2.09 1.22,0 2.22,0.35 3.02,1.05 0.18,0.14 0.6,0.59 1.25,1.34l-1.25 3.21c-0.6,-0.41 -0.97,-0.66 -1.08,-0.74 -1,-0.64 -1.82,-0.96 -2.45,-0.96 -0.78,0 -1.6,0.22 -2.45,0.66 -0.85,0.43 -1.27,0.93 -1.27,1.48 0,0.67 0.49,1.31 1.46,1.93 0.78,0.46 1.94,0.98 3.49,1.53 2.25,-1.1 4.55,-1.98 6.9,-2.65z"/>
  <path id="54" class="fil0" d="M1109.14 39.95l-3.43 0c-1.12,0 -2.01,-0.45 -2.68,-1.34 -0.59,-0.79 -1.04,-1.94 -1.34,-3.49 -0.3,-1.55 -0.54,-3.45 -0.7,-5.71 -0.1,-1.84 -0.2,-3.72 -0.31,-5.66 -0.1,-1.93 -0.24,-3.4 -0.41,-4.4 -0.17,-1 -0.41,-1.82 -0.7,-2.45 -0.35,-0.78 -0.85,-1.47 -1.48,-2.05l2.97 -4.75c0.65,1.95 1.11,4.28 1.38,7 0.17,1.7 0.33,5.7 0.5,12.01 0.29,2.9 0.72,4.75 1.27,5.56 0.46,0.69 0.96,1.03 1.5,1.03l3.43 0 0 4.25z"/>
  <path id="55" class="fil0" d="M1121.31 39.95l-13.9 0 0 -4.25 12.15 0c0,-1.92 -0.23,-3.38 -0.69,-4.38 -0.31,-0.7 -1.07,-1.7 -2.31,-3.02l1.93 -4c1.16,1.48 1.88,2.63 2.17,3.47 0.44,1.25 0.65,3.32 0.65,6.22l0 5.96zm-2 -22.58l-1.88 3.53 -3.92 -2.04 1.79 -3.56 4.01 2.07z"/>
  <path id="56" class="fil0" d="M1133.52 39.95l-13.9 0 0 -4.25 12.15 0c0,-1.92 -0.23,-3.38 -0.69,-4.38 -0.31,-0.7 -1.08,-1.7 -2.31,-3.02l1.92 -4c1.16,1.48 1.89,2.63 2.18,3.47 0.43,1.25 0.65,3.32 0.65,6.22l0 5.96zm-2.55 5.92l-1.88 3.53 -3.92 -2.04 1.79 -3.56 4.01 2.07z"/>
  <path id="57" class="fil0" d="M1171.87 39.94c0,1.79 -0.77,3.65 -2.3,5.57 -1.33,1.7 -2.99,3.15 -4.98,4.38 -1.89,1.17 -3.45,1.76 -4.67,1.76 -1.12,0 -2.33,-0.17 -3.64,-0.49 -0.99,-0.25 -2.19,-0.64 -3.57,-1.16 -1.17,-0.44 -2.33,-0.89 -3.49,-1.33l0.42 -0.97c1.07,0.21 2.19,0.43 3.36,0.66 1.16,0.22 2.22,0.34 3.16,0.34 2.09,0 4.26,-0.67 6.53,-2 2.05,-1.23 3.8,-2.77 5.26,-4.64 1.44,-1.86 2.17,-3.54 2.17,-5.04 0,-1.29 -0.37,-2.64 -1.12,-4.05 -0.6,-1.15 -1.45,-2.31 -2.53,-3.52l1.37 -3.85c1.34,1.24 2.32,2.47 2.96,3.72 0.71,1.4 1.07,2.96 1.07,4.69l0 5.93z"/>
  <path id="58" class="fil0" d="M1183.36 39.95l-3.43 0c-1.12,0 -2.01,-0.45 -2.68,-1.34 -0.59,-0.79 -1.04,-1.94 -1.34,-3.49 -0.3,-1.55 -0.53,-3.45 -0.7,-5.71 -0.1,-1.84 -0.2,-3.72 -0.31,-5.66 -0.1,-1.93 -0.24,-3.4 -0.4,-4.4 -0.18,-1 -0.41,-1.82 -0.7,-2.45 -0.35,-0.78 -0.86,-1.47 -1.49,-2.05l2.98 -4.75c0.65,1.95 1.1,4.28 1.37,7 0.17,1.7 0.33,5.7 0.5,12.01 0.29,2.9 0.72,4.75 1.28,5.56 0.46,0.69 0.95,1.03 1.49,1.03l3.43 0 0 4.25z"/>
  <path id="59" class="fil0" d="M1209.89 39.95l-1.87 0c-1.03,0 -1.92,-0.14 -2.66,-0.43 -0.75,-0.28 -1.42,-0.69 -2.04,-1.2 -0.77,0.59 -1.43,0.99 -2.01,1.19 -0.83,0.29 -1.97,0.44 -3.43,0.44l-1.59 0c-0.85,0 -1.7,-0.17 -2.55,-0.49 -0.55,-0.21 -1.25,-0.56 -2.06,-1.05 -0.79,0.59 -1.5,0.99 -2.15,1.2 -0.65,0.23 -1.71,0.34 -3.18,0.34l-4.71 0 0 -4.25 4.72 0c1.32,0 2.27,-0.12 2.84,-0.34 0.94,-0.38 1.42,-1.13 1.42,-2.24 0,-0.48 -0.03,-0.95 -0.08,-1.42 -0.04,-0.48 -0.13,-1 -0.25,-1.58l0.97 -1.47c0.46,1.5 0.83,2.58 1.13,3.27 0.53,1.19 1.1,2.08 1.72,2.68 0.76,0.73 1.66,1.1 2.71,1.1l1.65 0c1.23,0 2.14,-0.18 2.73,-0.56 0.65,-0.42 0.99,-1.1 0.99,-2.02 0,-0.51 -0.04,-1 -0.1,-1.47 -0.06,-0.48 -0.15,-0.98 -0.25,-1.53l0.97 -1.47 0.51 2.3c0.44,1.81 0.97,3.07 1.61,3.77 0.56,0.62 1.3,0.93 2.25,0.93 0.43,0 0.79,-0.13 1.06,-0.41 0.26,-0.27 0.4,-0.62 0.4,-1.04 0,-0.92 -0.34,-1.88 -1,-2.9 -0.12,-0.17 -0.52,-0.7 -1.2,-1.6l1.57 -2.65c0.66,1.01 1.11,1.88 1.35,2.62 0.35,1.1 0.53,2.58 0.53,4.41l0 5.87z"/>
  <path id="60" class="fil0" d="M1223.03 39.95l-14.85 0 0 -4.25 8.37 0c1.01,0 1.87,-0.03 2.58,-0.11 0.71,-0.07 1.48,-0.23 2.31,-0.47 -2.8,-0.41 -4.62,-0.79 -5.45,-1.15 -1.88,-0.81 -2.81,-2.19 -2.81,-4.14 0,-1.71 0.45,-3.31 1.34,-4.82 1.02,-1.71 2.24,-2.56 3.69,-2.56 1.67,0 2.93,1.06 3.79,3.17 0.69,1.67 1.03,3.65 1.03,5.92l0 8.41zm-2.2 -8.5c-0.38,-1.31 -0.74,-2.28 -1.08,-2.92 -0.66,-1.22 -1.47,-1.83 -2.41,-1.83 -0.45,0 -0.85,0.18 -1.17,0.54 -0.33,0.36 -0.49,0.78 -0.49,1.27 0,1.24 0.64,2.07 1.92,2.5 0.46,0.15 1.54,0.29 3.23,0.44zm-0.05 -17.53l-1.89 3.53 -3.91 -2.04 1.79 -3.56 4.01 2.07z"/>
  <path id="61" class="fil0" d="M1235.21 39.95l-13.9 0 0 -4.25 12.15 0c0,-1.92 -0.23,-3.38 -0.69,-4.38 -0.31,-0.7 -1.08,-1.7 -2.31,-3.02l1.92 -4c1.16,1.48 1.89,2.63 2.18,3.47 0.43,1.25 0.65,3.32 0.65,6.22l0 5.96zm-0.15 -24.15l-1.8 3.55 -4 -2.05 1.85 -3.55 3.95 2.05zm-5.55 2.25l-1.81 3.5 -3.99 -2.08 1.88 -3.52 3.92 2.1z"/>
  <path id="62" class="fil0" d="M1261.77 39.95l-1.87 0c-1.03,0 -1.92,-0.14 -2.66,-0.43 -0.75,-0.28 -1.42,-0.69 -2.04,-1.2 -0.77,0.59 -1.43,0.99 -2.01,1.19 -0.83,0.29 -1.97,0.44 -3.43,0.44l-1.59 0c-0.85,0 -1.7,-0.17 -2.55,-0.49 -0.55,-0.21 -1.24,-0.56 -2.06,-1.05 -0.78,0.59 -1.5,0.99 -2.15,1.2 -0.65,0.23 -1.71,0.34 -3.18,0.34l-4.71 0 0 -4.25 4.72 0c1.32,0 2.27,-0.12 2.84,-0.34 0.95,-0.38 1.42,-1.13 1.42,-2.24 0,-0.48 -0.02,-0.95 -0.07,-1.42 -0.05,-0.48 -0.14,-1 -0.26,-1.58l0.97 -1.47c0.46,1.5 0.84,2.58 1.14,3.27 0.52,1.19 1.1,2.08 1.71,2.68 0.76,0.73 1.66,1.1 2.71,1.1l1.65 0c1.23,0 2.14,-0.18 2.73,-0.56 0.65,-0.42 0.99,-1.1 0.99,-2.02 0,-0.51 -0.04,-1 -0.09,-1.47 -0.07,-0.48 -0.15,-0.98 -0.26,-1.53l0.97 -1.47 0.51 2.3c0.44,1.81 0.98,3.07 1.61,3.77 0.56,0.62 1.3,0.93 2.25,0.93 0.43,0 0.79,-0.13 1.06,-0.41 0.26,-0.27 0.4,-0.62 0.4,-1.04 0,-0.92 -0.34,-1.88 -1,-2.9 -0.12,-0.17 -0.52,-0.7 -1.2,-1.6l1.57 -2.65c0.66,1.01 1.11,1.88 1.35,2.62 0.35,1.1 0.53,2.58 0.53,4.41l0 5.87z"/>
  <path id="63" class="fil0" d="M1287.11 14.15l-1.17 4.41 -1.43 -0.71 0.05 2.22c0,2.17 -0.28,4.29 -0.83,6.33 -0.61,2.24 -1.56,4.46 -2.87,6.65 0.62,1.14 1.05,2.04 1.29,2.69 0.38,1.02 0.56,2.07 0.56,3.12 0,0.61 -0.02,1.12 -0.05,1.55 -0.03,0.42 -0.11,0.91 -0.22,1.49 -1.72,0.39 -3.56,0.7 -5.51,0.91 -1.96,0.23 -3.87,0.34 -5.72,0.34 0.02,-0.31 0.02,-0.58 0.02,-0.79 0.09,-1.24 0.28,-2.4 0.59,-3.45 2.76,-1.49 5.09,-3.4 6.99,-5.76 -1.14,-2.15 -1.97,-3.67 -2.48,-4.57 -0.58,-0.97 -1.55,-2.49 -2.91,-4.56 -0.5,-0.7 -0.95,-1.25 -1.34,-1.68 -0.54,-0.57 -0.96,-0.85 -1.27,-0.85 -0.21,0 -0.56,0.12 -1.05,0.37 -0.26,0.12 -0.48,0.19 -0.66,0.19 -0.36,0 -0.92,-0.36 -1.68,-1.08 -0.67,-0.63 -1.37,-1.41 -2.09,-2.34 -0.6,-0.75 -1,-1.37 -1.2,-1.87 -0.21,-0.49 -0.32,-1.09 -0.32,-1.79 0,-1.01 0.07,-1.8 0.19,-2.38 0.2,-0.86 0.53,-1.29 1,-1.29 0.67,0 1.64,0.63 2.91,1.91 1.12,1.13 2.37,2.63 3.75,4.49 1.22,1.64 2.42,3.42 3.62,5.32l2.48 4c0.73,1.2 1.48,2.57 2.25,4.1 1.09,-2.19 1.85,-4.4 2.26,-6.65 0.36,-1.95 0.54,-4.43 0.54,-7.45l-1.4 -0.81c0,-1.08 0.09,-2.05 0.28,-2.93 0.19,-0.86 0.45,-1.66 0.79,-2.38l0.58 0.15c0.07,0.7 0.45,1.26 1.17,1.68 0.38,0.23 0.88,0.49 1.49,0.79 0.6,0.29 1.06,0.5 1.39,0.63zm-6.35 23.73c0,-0.36 -0.07,-0.72 -0.21,-1.11 -0.13,-0.38 -0.44,-1.01 -0.91,-1.89 -0.49,0.64 -1.21,1.37 -2.18,2.19 -0.97,0.84 -1.93,1.55 -2.87,2.13 1.92,0 3.29,-0.06 4.09,-0.18 1.39,-0.19 2.08,-0.57 2.08,-1.14zm-3.8 11.45c0,0.42 -0.25,0.78 -0.76,1.11 -0.34,0.22 -0.86,0.44 -1.54,0.68l-4.55 1.58c0,-0.76 0.82,-1.42 2.47,-1.99 -0.51,-0.27 -0.9,-0.52 -1.15,-0.76 -0.35,-0.32 -0.52,-0.64 -0.52,-0.99 0,-0.5 0.43,-1.22 1.3,-2.14 0.97,-1.01 1.82,-1.52 2.55,-1.52 0.32,0 0.61,0.11 0.84,0.33 0.24,0.23 0.36,0.52 0.36,0.88 0,0.24 -0.05,0.47 -0.15,0.71 -0.09,0.24 -0.23,0.51 -0.42,0.8 -0.5,-0.45 -1.05,-0.67 -1.64,-0.67 -0.36,0 -0.72,0.07 -1.07,0.21 -0.35,0.15 -0.52,0.32 -0.52,0.51 0,0.24 0.37,0.58 1.13,0.99 0.76,0.43 1.4,0.64 1.94,0.64 0.35,0 0.61,-0.01 0.77,-0.04 0.15,-0.02 0.48,-0.13 0.96,-0.33z"/>
  <path id="64" class="fil0" d="M1297.21 33.72c0,1.3 -0.24,2.56 -0.72,3.78 -0.25,0.65 -0.78,1.68 -1.61,3.1l-0.44 -0.24c0.06,-0.48 0.11,-1.02 0.15,-1.65 0.04,-0.61 0.07,-1.03 0.07,-1.24 0,-1.69 -0.13,-4.05 -0.4,-7.09 -0.28,-3.03 -0.59,-6.2 -0.97,-9.51 -0.23,-2 -0.48,-4.04 -0.76,-6.12 0.33,-0.72 0.7,-1.48 1.12,-2.32 0.42,-0.82 0.81,-1.6 1.18,-2.33 0.26,1.85 0.6,4.39 1,7.61 0.39,3.22 0.71,6.12 0.94,8.71 0.29,3.22 0.44,5.65 0.44,7.3z"/>
  <path id="65" class="fil0" d="M1321.45 33.72c0,1.3 -0.24,2.56 -0.72,3.78 -0.25,0.65 -0.78,1.68 -1.6,3.1l-0.45 -0.24c0.06,-0.48 0.11,-1.02 0.15,-1.65 0.05,-0.61 0.07,-1.03 0.07,-1.24 0,-1.69 -0.13,-4.05 -0.4,-7.09 -0.27,-3.03 -0.59,-6.2 -0.97,-9.51 -0.23,-2 -0.48,-4.04 -0.75,-6.12 0.32,-0.72 0.7,-1.48 1.11,-2.32 0.42,-0.82 0.81,-1.6 1.19,-2.33 0.25,1.85 0.59,4.39 0.99,7.61 0.4,3.22 0.71,6.12 0.94,8.71 0.29,3.22 0.44,5.65 0.44,7.3z"/>
  <path id="66" class="fil0" d="M1340.4 39.95l-10.91 0c-0.92,0 -1.76,-0.27 -2.5,-0.81 -0.73,-0.53 -1.11,-1.17 -1.11,-1.9 0,-0.62 0.04,-1.17 0.1,-1.68 0.07,-0.5 0.19,-1.06 0.37,-1.66l0.5 0c0.18,0.67 0.51,1.14 0.97,1.43 0.4,0.24 0.94,0.37 1.62,0.37l9.46 0c0,-2.92 -0.41,-5.26 -1.22,-7.03 -1.02,-2.21 -2.71,-3.69 -5.08,-4.42l0.38 -4.75c2.82,1.38 4.82,3.59 6,6.62 0.95,2.45 1.42,5.64 1.42,9.58l0 4.25zm-6.5 -28.73l-1.88 3.53 -3.92 -2.04 1.79 -3.56 4.01 2.07z"/>
  <path id="67" class="fil0" d="M1359.67 35.82c0,0.94 -0.3,1.99 -0.88,3.15 -0.63,1.25 -1.27,1.88 -1.9,1.88 -0.66,0 -1.9,-0.43 -3.72,-1.27 -1.66,-0.77 -3.08,-1.54 -4.23,-2.28 -1.89,1.07 -3.27,1.76 -4.14,2.06 -1.1,0.4 -2.39,0.59 -3.88,0.59l-2.2 0 0 -4.25 2.21 0c0.67,0 1.32,-0.05 1.94,-0.16 0.63,-0.11 1.47,-0.3 2.54,-0.57 -0.43,-0.31 -0.84,-0.64 -1.26,-0.96 -0.46,-0.41 -0.68,-0.81 -0.68,-1.2 0,-0.28 0,-0.49 0.03,-0.62 0.03,-0.12 0.13,-0.37 0.33,-0.73l2.41 -4.24c0.32,-0.58 0.62,-0.97 0.89,-1.2 0.26,-0.21 0.63,-0.39 1.1,-0.52 -1.12,-0.76 -1.68,-1.31 -1.68,-1.63 0,-0.32 0.36,-1.15 1.07,-2.5 0.25,-0.45 0.62,-1.13 1.12,-2.02 1.04,0.99 2.34,2.43 3.92,4.32 2,2.38 3.56,4.5 4.72,6.38 1.53,2.47 2.29,4.4 2.29,5.77zm-8.55 -5.32c0,-0.7 -0.15,-1.26 -0.45,-1.67 -0.34,-0.49 -0.88,-0.73 -1.63,-0.73 -0.75,0 -1.45,0.25 -2.1,0.75 -0.65,0.5 -0.97,1.1 -0.97,1.8 0,0.67 0.99,1.55 2.97,2.65 0.7,-0.46 1.23,-0.9 1.57,-1.33 0.41,-0.49 0.61,-0.98 0.61,-1.47zm5.9 5.59c0,-0.57 -0.46,-1.45 -1.39,-2.66 -0.57,-0.76 -1.27,-1.57 -2.11,-2.44 0,0.8 -0.17,1.55 -0.5,2.24 -0.33,0.7 -0.79,1.24 -1.39,1.61 0.98,0.5 1.96,0.99 2.96,1.48 0.82,0.35 1.4,0.53 1.74,0.53 0.19,0 0.36,-0.08 0.49,-0.22 0.13,-0.15 0.2,-0.32 0.2,-0.54z"/>
  <path id="68" class="fil0" d="M1407.07 27.57c0,0.52 -0.05,1.05 -0.15,1.6 -0.1,0.55 -0.16,0.94 -0.19,1.16 -0.57,-0.74 -1.25,-1.31 -2.04,-1.74 -0.79,-0.42 -1.59,-0.64 -2.41,-0.64 -1.41,0 -2.91,0.82 -4.46,2.48 -1.44,1.52 -2.15,2.74 -2.15,3.64 0,0.3 0.17,0.54 0.52,0.7 0.35,0.15 0.96,0.23 1.83,0.23l1.95 0c1.17,0 2.05,0.01 2.6,0.03 0.57,0.03 1.24,0.1 2.02,0.24 0.78,0.13 1.18,0.72 1.18,1.77 0,4.07 -1.79,7.17 -5.35,9.29 -3.27,1.94 -7.7,2.92 -13.28,2.92 -2.89,0 -5.11,-0.56 -6.63,-1.69 -1.66,-1.21 -2.49,-3.05 -2.49,-5.5 0,-1.7 0.27,-3.47 0.83,-5.32 0.42,-1.42 1.01,-2.89 1.76,-4.44 0.04,-0.1 0.56,-1.07 1.53,-2.9l1.03 0.42c-1.02,1.81 -1.8,3.51 -2.34,5.1 -0.55,1.57 -0.81,2.97 -0.81,4.19 0,1.98 0.68,3.46 2.05,4.45 1.37,1 3.34,1.49 5.89,1.49 1.94,0 4.21,-0.38 6.79,-1.16 2.21,-0.66 4.19,-1.45 5.97,-2.37 1.76,-0.91 2.65,-1.59 2.65,-2.02 0,-0.31 -0.1,-0.51 -0.31,-0.61 -0.2,-0.09 -0.54,-0.14 -0.99,-0.14l-5.74 0c-0.7,0 -1.31,-0.25 -1.85,-0.76 -0.55,-0.51 -0.81,-1.16 -0.81,-1.96 0,-1.09 0.45,-2.57 1.35,-4.45 0.97,-2.04 2.16,-3.74 3.55,-5.11 1.66,-1.65 3.34,-2.47 5.02,-2.47 1.08,0 1.93,0.32 2.54,0.97 0.63,0.66 0.94,1.52 0.94,2.6zm-9.25 24.13l-1.8 3.55 -4 -2.05 1.85 -3.55 3.95 2.05zm-5.55 2.25l-1.81 3.5 -3.99 -2.08 1.88 -3.52 3.92 2.1z"/>
  <path id="69" class="fil0" d="M1433.17 39.94c0,1.79 -0.76,3.65 -2.29,5.57 -1.34,1.7 -3,3.15 -4.99,4.38 -1.88,1.17 -3.44,1.76 -4.67,1.76 -1.12,0 -2.33,-0.17 -3.64,-0.49 -0.99,-0.25 -2.18,-0.64 -3.56,-1.16 -1.17,-0.44 -2.34,-0.89 -3.5,-1.33l0.42 -0.97c1.08,0.21 2.19,0.43 3.36,0.66 1.17,0.22 2.22,0.34 3.17,0.34 2.08,0 4.26,-0.67 6.52,-2 2.06,-1.23 3.81,-2.77 5.26,-4.64 1.45,-1.86 2.17,-3.54 2.17,-5.04 0,-1.29 -0.37,-2.64 -1.11,-4.05 -0.6,-1.15 -1.45,-2.31 -2.54,-3.52l1.38 -3.85c1.33,1.24 2.32,2.47 2.95,3.72 0.72,1.4 1.07,2.96 1.07,4.69l0 5.93z"/>
  <path id="70" class="fil0" d="M1459.67 39.95l-28.2 0 0 -4.25 19.9 0c-1.66,-1.29 -3.06,-2.29 -4.2,-3.01 -1.42,-0.9 -2.71,-1.55 -3.89,-1.96 -1.31,-0.46 -2.65,-0.68 -4,-0.68 -0.83,0 -1.66,0.06 -2.51,0.17 0.47,-1.2 1.09,-2.16 1.85,-2.89 1.11,-1.06 2.5,-1.58 4.2,-1.58 1.66,0 3.62,0.82 5.89,2.44 1.11,0.81 2.95,2.36 5.49,4.63 1.97,1.77 3.3,2.73 4,2.88l1.47 0 0 4.25zm-12.45 5.26l-1.89 3.54 -3.91 -2.04 1.79 -3.56 4.01 2.06z"/>
  <path id="71" class="fil0" d="M1467.91 33.72c0,1.3 -0.25,2.56 -0.72,3.78 -0.25,0.65 -0.78,1.68 -1.61,3.1l-0.44 -0.24c0.06,-0.48 0.11,-1.02 0.15,-1.65 0.04,-0.61 0.07,-1.03 0.07,-1.24 0,-1.69 -0.14,-4.05 -0.4,-7.09 -0.28,-3.03 -0.6,-6.2 -0.97,-9.51 -0.23,-2 -0.48,-4.04 -0.76,-6.12 0.33,-0.72 0.7,-1.48 1.12,-2.32 0.42,-0.82 0.81,-1.6 1.18,-2.33 0.26,1.85 0.59,4.39 0.99,7.61 0.4,3.22 0.72,6.12 0.95,8.71 0.29,3.22 0.44,5.65 0.44,7.3zm0.7 -26.59c0,0.42 -0.25,0.79 -0.76,1.11 -0.34,0.22 -0.86,0.44 -1.54,0.68l-4.55 1.58c0,-0.76 0.82,-1.42 2.46,-1.99 -0.5,-0.27 -0.89,-0.52 -1.15,-0.76 -0.34,-0.32 -0.51,-0.64 -0.51,-0.99 0,-0.5 0.43,-1.22 1.3,-2.14 0.96,-1.01 1.81,-1.52 2.55,-1.52 0.32,0 0.61,0.11 0.84,0.33 0.24,0.23 0.36,0.52 0.36,0.89 0,0.23 -0.05,0.46 -0.15,0.7 -0.1,0.24 -0.24,0.51 -0.42,0.8 -0.5,-0.45 -1.05,-0.67 -1.64,-0.67 -0.36,0 -0.72,0.07 -1.07,0.22 -0.35,0.15 -0.52,0.31 -0.52,0.5 0,0.25 0.37,0.58 1.13,1 0.76,0.42 1.4,0.63 1.93,0.63 0.36,0 0.62,-0.01 0.78,-0.03 0.15,-0.03 0.47,-0.14 0.96,-0.34z"/>
  <path id="72" class="fil0" d="M1488.4 26.15l0 -5 5 0 0 5 -5 0zm0 20.95l0 -5 5 0 0 5 -5 0z"/>
  <path id="73" class="fil0" d="M1516.54 39.95l-3.49 0c-1.17,0 -2.2,-1 -3.1,-2.99 -0.67,-1.5 -1.2,-3.43 -1.61,-5.78 -0.48,0.91 -1.11,1.61 -1.85,2.12 -0.75,0.5 -1.54,0.75 -2.37,0.75 -1.86,0 -3.42,-0.13 -4.66,-0.38 -1.24,-0.25 -1.87,-0.57 -1.87,-0.96 0,-1.4 0.91,-2.95 2.73,-4.65 1.8,-1.7 4.07,-3.19 6.8,-4.46 -0.04,-0.13 -0.1,-0.47 -0.21,-1.03 -0.11,-0.55 -0.17,-0.89 -0.17,-1.01 0,-0.56 0.19,-1.18 0.58,-1.85 0.31,-0.56 0.73,-1.13 1.25,-1.71 0.16,1.01 0.33,1.98 0.5,2.92 0.17,0.95 0.36,1.92 0.6,2.93l0.72 4.19c0.41,2.31 0.78,4.02 1.1,5.13 0.51,1.69 1.03,2.53 1.57,2.53l3.48 0 0 4.25zm-8.52 -10.89l-0.48 -2.66c-1.4,0.51 -2.51,1.03 -3.32,1.57 -0.8,0.55 -1.48,1.27 -2.03,2.16 0.34,0.15 0.73,0.27 1.19,0.34 0.45,0.09 1.08,0.13 1.87,0.13 0.97,0 1.89,-0.52 2.77,-1.54zm2.27 -18.36l-1.8 3.55 -4 -2.05 1.85 -3.55 3.95 2.05zm-5.55 2.25l-1.81 3.5 -3.99 -2.08 1.88 -3.52 3.92 2.1z"/>
  <path id="74" class="fil0" d="M1545.64 39.95l-30.8 0 0 -4.25 3.74 -0.03c1.11,0 2.15,-0.14 3.11,-0.43 1.11,-0.34 2.37,-0.94 3.78,-1.8 0.29,-0.72 0.52,-1.49 0.7,-2.31 0.18,-0.82 0.27,-1.61 0.27,-2.38 0,-1.74 -0.16,-3.66 -0.48,-5.76 -0.24,-1.53 -0.61,-3.32 -1.1,-5.39 -0.26,-1.08 -0.59,-2.38 -1.02,-3.93l-1.5 -0.76c0.12,-0.98 0.28,-1.93 0.5,-2.84 0.23,-0.91 0.53,-1.79 0.93,-2.64 0.25,0.77 0.85,1.36 1.76,1.79 0.76,0.34 1.74,0.56 2.91,0.68 -0.16,1.67 -0.28,2.75 -0.37,3.2 -0.08,0.46 -0.23,1.02 -0.46,1.69 -0.11,-0.02 -0.41,-0.1 -0.9,-0.24l-0.32 -0.1c0.58,1.91 1.07,3.86 1.44,5.87 0.38,2.01 0.56,3.7 0.56,5.07 0,1.15 -0.12,2.44 -0.35,3.86 -0.08,0.5 -0.23,1.28 -0.45,2.34 2.84,-1.65 4.66,-2.66 5.46,-3.03 2.4,-1.14 4.47,-1.71 6.18,-1.71 2.19,0 3.84,0.64 4.93,1.92 0.99,1.18 1.48,2.85 1.48,5l0 6.18zm-3.85 -6.13c0,-0.82 -0.43,-1.45 -1.28,-1.88 -0.85,-0.42 -2.08,-0.64 -3.68,-0.64 -1.18,0 -2.55,0.26 -4.1,0.77 -1.26,0.43 -2.61,1.01 -4.05,1.75 -1.06,0.55 -2.15,1.18 -3.26,1.88l10.61 0c3.84,0 5.76,-0.63 5.76,-1.88zm-2.9 -16.6l-1.88 3.53 -3.92 -2.04 1.79 -3.56 4.01 2.07z"/>
  <path id="75" class="fil0" d="M1572.11 39.95l-28.19 0 0 -4.25 19.9 0c-1.66,-1.29 -3.06,-2.29 -4.2,-3.01 -1.42,-0.9 -2.71,-1.55 -3.89,-1.96 -1.31,-0.46 -2.65,-0.68 -4,-0.68 -0.83,0 -1.66,0.06 -2.51,0.17 0.47,-1.2 1.09,-2.16 1.85,-2.89 1.1,-1.06 2.5,-1.58 4.2,-1.58 1.66,0 3.62,0.82 5.89,2.44 1.11,0.81 2.95,2.36 5.49,4.63 1.97,1.77 3.3,2.73 4,2.88l1.46 0 0 4.25z"/>
  <path id="76" class="fil0" d="M1592.02 27.17c0,0.32 -0.01,0.6 -0.05,0.82 -0.03,0.23 -0.11,0.52 -0.24,0.86 -0.91,-2.03 -2.26,-4.13 -4.05,-6.29 -1.98,-2.39 -3.54,-3.59 -4.67,-3.59 -0.25,0 -0.5,0.22 -0.74,0.65 -0.24,0.42 -0.52,0.63 -0.85,0.63 -0.44,0 -1.13,-0.28 -2.07,-0.86 -1.19,-0.72 -2.14,-1.55 -2.85,-2.49 -0.96,-1.28 -1.44,-2.63 -1.44,-4.06 0,-1.02 0.33,-1.54 1,-1.54 1.16,0 3,0.74 5.48,2.22 2.78,1.65 5.12,3.56 7,5.76 2.32,2.69 3.48,5.31 3.48,7.89zm10.14 12.78l-1.5 0c-1.38,0 -2.48,-0.74 -3.32,-2.22 -0.99,-1.78 -1.49,-4.49 -1.49,-8.11 0,-0.25 -0.04,-0.6 -0.09,-1.05 -0.06,-0.43 -0.09,-0.7 -0.09,-0.82 -1.56,4.33 -2.95,7.31 -4.16,8.92 -1.45,1.88 -3.48,3.13 -6.11,3.74 -2.24,0.53 -6.05,0.79 -11.44,0.79l0 -0.7c4.36,-1.32 7.61,-2.45 9.75,-3.41 3.45,-1.53 6.08,-3.29 7.86,-5.29 2.16,-2.4 3.24,-5.25 3.24,-8.55 0,-1.59 -0.1,-3.08 -0.3,-4.46 -0.2,-1.38 -0.48,-2.8 -0.83,-4.24l0.8 -2.07c0.33,-0.8 0.63,-1.47 0.9,-2.03 0.43,2.34 0.83,4.87 1.21,7.58 0.27,1.88 0.52,3.89 0.77,6.04 0.3,2.63 0.58,4.75 0.8,6.36 0.3,2.05 0.74,3.51 1.33,4.39 0.39,0.59 0.78,0.88 1.17,0.88l1.5 0 0 4.25z"/>
  <path id="77" class="fil0" d="M1621.84 39.95l-2.53 0c-1.1,0 -2.32,-0.25 -3.69,-0.74 -1.57,-0.57 -2.96,-1.36 -4.16,-2.36 -0.95,1.17 -1.91,1.97 -2.9,2.42 -0.98,0.45 -2.42,0.68 -4.31,0.68l-3.81 0 0 -4.25 3.73 0c1.49,0 2.8,-0.38 3.95,-1.13 0.9,-0.59 1.71,-1.4 2.44,-2.47 1,-1.43 2.22,-2.68 3.67,-3.74 1.3,-0.94 2.49,-1.55 3.58,-1.81 1.13,1.71 2.02,3.25 2.69,4.62 0.89,1.86 1.34,3.37 1.34,4.52l0 4.26zm-2.8 -4.82c-0.21,-0.95 -0.53,-1.88 -0.98,-2.8 -0.37,-0.77 -0.87,-1.56 -1.49,-2.38 -0.77,0.2 -1.43,0.57 -1.96,1.11 -0.36,0.34 -0.79,0.92 -1.27,1.74 0.58,0.64 1.41,1.21 2.47,1.72 1.06,0.5 2.07,0.81 3.01,0.93l0.22 -0.32z"/>
 </g>
</svg>
