<?xml version="1.0" encoding="UTF-8"?>
<!DOCTYPE svg PUBLIC "-//W3C//DTD SVG 1.1//EN" "http://www.w3.org/Graphics/SVG/1.1/DTD/svg11.dtd">
<!-- Creator: CorelDRAW 2018 (64-Bit) -->
<svg xmlns="http://www.w3.org/2000/svg" xml:space="preserve" width="254px" height="59px" version="1.1" style="shape-rendering:geometricPrecision; text-rendering:geometricPrecision; image-rendering:optimizeQuality; fill-rule:evenodd; clip-rule:evenodd"
viewBox="0 0 254 59.07"
 xmlns:xlink="http://www.w3.org/1999/xlink">
 <defs>
  <style type="text/css">
   <![CDATA[
    .fil0 {fill:#2B2A29;fill-rule:nonzero}
   ]]>
  </style>
 </defs>
 <g id="Layer_x0020_1">
  <metadata id="CorelCorpID_0Corel-Layer"/>
  <path class="fil0" d="M42.05 39.84l-1.93 0c-0.96,0 -1.82,-0.13 -2.55,-0.39 -0.75,-0.28 -1.5,-0.7 -2.25,-1.29 -0.69,0.62 -1.3,1.04 -1.84,1.24 -0.76,0.29 -1.87,0.44 -3.33,0.44l-3 0c0,1.5 -0.36,2.96 -1.08,4.37 -0.93,1.84 -2.35,3.29 -4.26,4.36 -2.39,1.35 -5.39,2.03 -9,2.03 -3.26,0 -5.75,-0.57 -7.49,-1.71 -1.89,-1.26 -2.83,-3.18 -2.83,-5.77 0,-1.4 0.18,-2.82 0.52,-4.25 0.34,-1.43 0.81,-2.88 1.39,-4.33 0.37,-0.87 0.98,-2.22 1.87,-4.05l0.97 0.44c-1.13,2.35 -1.88,4.19 -2.25,5.54 -0.37,1.35 -0.55,2.58 -0.55,3.71 0,2.02 0.72,3.54 2.16,4.59 1.44,1.05 3.5,1.58 6.18,1.58 3.12,0 5.91,-0.54 8.37,-1.64 3.06,-1.34 4.6,-3.22 4.6,-5.64 0,-1.62 -0.3,-3.16 -0.9,-4.62 -0.48,-1.15 -1.15,-2.26 -2,-3.31l2.02 -5c0.82,1.34 1.37,2.51 1.67,3.54 0.41,1.44 0.61,3.41 0.61,5.91l3 0c1.54,0 2.64,-0.23 3.29,-0.7 0.57,-0.41 0.85,-1.04 0.85,-1.88 0,-0.47 -0.02,-0.95 -0.08,-1.43 -0.06,-0.48 -0.15,-1 -0.26,-1.57l0.97 -1.47 0.4 2.38c0.35,1.6 0.83,2.75 1.43,3.45 0.67,0.78 1.61,1.17 2.83,1.17 0.37,0 0.66,-0.11 0.86,-0.35 0.21,-0.24 0.31,-0.54 0.31,-0.9 0,-0.82 -0.25,-1.7 -0.76,-2.63 -0.37,-0.69 -0.87,-1.37 -1.49,-2.07l1.62 -2.65c0.77,1.25 1.23,2.11 1.4,2.57 0.35,1.02 0.53,2.52 0.53,4.47l0 5.86z"/>
  <path id="1" class="fil0" d="M63.67 38.33c0,2.7 -0.99,5.38 -2.98,8.05 -2.21,2.98 -4.77,4.47 -7.67,4.47 -1.08,0 -2.18,-0.13 -3.33,-0.37 -0.83,-0.17 -1.91,-0.48 -3.25,-0.92 -1.06,-0.37 -2.11,-0.73 -3.17,-1.09l0.41 -0.86c0.91,0.21 1.87,0.44 2.87,0.68 1,0.24 1.9,0.36 2.7,0.36 1.99,0 3.87,-0.51 5.64,-1.53 1.39,-0.81 2.77,-1.97 4.16,-3.5 0.7,-0.77 1.69,-2.03 2.97,-3.78 -2.2,0 -3.85,-0.34 -4.94,-1.05 -1.24,-0.8 -1.86,-2.12 -1.86,-3.95 0,-1.69 0.39,-3.26 1.18,-4.7 0.91,-1.66 2.07,-2.5 3.47,-2.5 1.43,0 2.44,0.83 3.07,2.49 0.49,1.29 0.73,3.09 0.73,5.4l0 2.8zm-1.55 -2.69c-0.36,-1.57 -0.79,-2.65 -1.3,-3.26 -0.43,-0.53 -0.97,-0.79 -1.61,-0.79 -0.46,0 -0.86,0.15 -1.19,0.45 -0.33,0.31 -0.5,0.69 -0.5,1.15 0,0.8 0.36,1.41 1.08,1.83 0.71,0.42 1.89,0.62 3.52,0.62z"/>
  <path id="2" class="fil0" d="M76.83 39.84l-14.85 0 0 -4.25 8.38 0c1.01,0 1.86,-0.03 2.57,-0.1 0.71,-0.08 1.49,-0.24 2.31,-0.48 -2.8,-0.41 -4.62,-0.78 -5.45,-1.14 -1.88,-0.82 -2.81,-2.19 -2.81,-4.14 0,-1.71 0.45,-3.32 1.34,-4.83 1.02,-1.71 2.25,-2.56 3.7,-2.56 1.66,0 2.92,1.06 3.79,3.17 0.68,1.67 1.02,3.65 1.02,5.92l0 8.41zm-2.2 -8.5c-0.37,-1.31 -0.73,-2.27 -1.07,-2.91 -0.67,-1.23 -1.48,-1.84 -2.42,-1.84 -0.45,0 -0.84,0.19 -1.17,0.54 -0.32,0.36 -0.49,0.79 -0.49,1.27 0,1.24 0.64,2.08 1.93,2.5 0.46,0.15 1.53,0.29 3.22,0.44zm-0.05 -17.53l-1.88 3.53 -3.92 -2.04 1.79 -3.56 4.01 2.07z"/>
  <path id="3" class="fil0" d="M89.02 39.84l-13.9 0 0 -4.25 12.15 0c0,-1.91 -0.23,-3.37 -0.69,-4.38 -0.31,-0.7 -1.08,-1.7 -2.31,-3.02l1.92 -4c1.16,1.49 1.89,2.64 2.18,3.47 0.43,1.25 0.65,3.32 0.65,6.23l0 5.95zm-2 -22.58l-1.89 3.53 -3.91 -2.04 1.79 -3.56 4.01 2.07z"/>
  <path id="4" class="fil0" d="M99.38 39.84l-12.05 0 0 -4.25 9.6 0 -3 -20.77 -1.25 -0.6c0,-1.11 0.1,-2.17 0.29,-3.15 0.2,-0.97 0.49,-1.93 0.88,-2.85l0.38 0.27c0,0.94 0.53,1.65 1.61,2.12 0.81,0.33 1.65,0.65 2.49,0.98 0,0.81 -0.07,1.67 -0.2,2.58 -0.12,0.93 -0.28,1.61 -0.47,2.06l-1.18 -0.39 2.9 19.21 0 4.79z"/>
  <path id="5" class="fil0" d="M107.63 33.61c0,1.3 -0.24,2.57 -0.71,3.78 -0.25,0.65 -0.79,1.69 -1.61,3.11l-0.44 -0.25c0.05,-0.47 0.1,-1.01 0.15,-1.64 0.04,-0.62 0.06,-1.03 0.06,-1.24 0,-1.69 -0.13,-4.06 -0.4,-7.09 -0.27,-3.04 -0.59,-6.21 -0.97,-9.51 -0.23,-2 -0.48,-4.05 -0.75,-6.13 0.32,-0.72 0.7,-1.48 1.11,-2.32 0.42,-0.82 0.81,-1.6 1.19,-2.33 0.26,1.85 0.59,4.39 0.99,7.61 0.4,3.22 0.72,6.12 0.94,8.72 0.29,3.21 0.44,5.65 0.44,7.29z"/>
  <path id="6" class="fil0" d="M140.48 39.84l-10.91 0c-0.92,0 -1.76,-0.26 -2.5,-0.8 -0.73,-0.54 -1.11,-1.17 -1.11,-1.9 0,-0.62 0.04,-1.18 0.1,-1.69 0.07,-0.5 0.19,-1.06 0.37,-1.66l0.5 0c0.18,0.67 0.51,1.15 0.97,1.44 0.4,0.24 0.94,0.36 1.62,0.36l9.46 0c0,-2.91 -0.41,-5.26 -1.22,-7.03 -1.02,-2.21 -2.71,-3.68 -5.08,-4.42l0.38 -4.75c2.82,1.38 4.82,3.59 6,6.63 0.95,2.44 1.42,5.63 1.42,9.57l0 4.25z"/>
  <path id="7" class="fil0" d="M152.7 39.84l-13.9 0 0 -4.25 12.15 0c0,-1.91 -0.23,-3.37 -0.69,-4.38 -0.31,-0.7 -1.08,-1.7 -2.31,-3.02l1.93 -4c1.15,1.49 1.88,2.64 2.17,3.47 0.44,1.25 0.65,3.32 0.65,6.23l0 5.95zm-0.25 4.81l-1.8 3.55 -4 -2.05 1.85 -3.55 3.95 2.05zm-5.55 2.25l-1.81 3.5 -3.99 -2.08 1.88 -3.52 3.92 2.1z"/>
  <path id="8" class="fil0" d="M166.11 39.84l-15.1 0 0 -4.25 13 0c0,-1.45 -0.16,-2.81 -0.51,-4.08 -0.84,0.28 -1.49,0.48 -1.94,0.59 -0.75,0.19 -1.41,0.29 -1.97,0.29 -1.18,0 -2.15,-0.3 -2.89,-0.9 -0.86,-0.68 -1.29,-1.66 -1.29,-2.95 0,-2.26 0.41,-4.23 1.22,-5.92 0.91,-1.89 2.1,-2.83 3.56,-2.83 1.98,0 3.51,1.55 4.58,4.66 0.89,2.57 1.34,5.58 1.34,9.05l0 6.34zm-4 -12.7c-0.22,-0.59 -0.59,-1.18 -1.09,-1.78 -0.68,-0.81 -1.33,-1.22 -1.95,-1.22 -0.43,0 -0.8,0.18 -1.08,0.55 -0.29,0.37 -0.43,0.8 -0.43,1.3 0,1.3 0.72,1.95 2.14,1.95 0.38,0 0.78,-0.07 1.2,-0.21 0.42,-0.15 0.82,-0.35 1.21,-0.59zm3.1 -15.1l-1.8 3.55 -4 -2.05 1.85 -3.55 3.95 2.05zm-5.55 2.25l-1.81 3.5 -3.99 -2.08 1.88 -3.52 3.92 2.1z"/>
  <path id="9" class="fil0" d="M205.29 36.8c0,2.6 -0.61,4.68 -1.83,6.2 -1.09,1.35 -2.69,2.33 -4.81,2.91 -1.78,0.5 -4.05,0.74 -6.8,0.74 -3.13,0 -5.57,-0.58 -7.29,-1.74 -1.88,-1.26 -2.83,-3.16 -2.83,-5.68 0,-1.4 0.21,-2.85 0.62,-4.37 0.34,-1.28 0.87,-2.69 1.57,-4.22 0.51,-1.11 1.2,-2.44 2.06,-4l0.86 0.46c-0.62,1.09 -1.14,2.07 -1.56,2.93 -0.55,1.15 -0.95,2.18 -1.22,3.09 -0.32,1.1 -0.48,2.17 -0.48,3.22 0,1.99 0.73,3.5 2.19,4.52 1.45,1.03 3.47,1.54 6.05,1.54 2.74,0 5.28,-0.48 7.62,-1.42 2.57,-1.04 3.85,-2.28 3.85,-3.74 0,-1.57 -0.25,-4.25 -0.74,-8.02 -0.39,-2.9 -0.86,-6.14 -1.42,-9.72l-0.79 -4.74 -1.1 -0.58c0,-2.18 0.44,-4.17 1.32,-5.96l0.43 0c0.06,0.62 0.17,1.08 0.33,1.38 0.17,0.3 0.44,0.52 0.8,0.67 0.5,0.21 1.04,0.46 1.64,0.76 0.43,0.21 0.81,0.39 1.13,0.56 0,1.14 -0.04,1.97 -0.13,2.49 -0.07,0.53 -0.24,1.25 -0.48,2.2l-1.39 -0.44c0.03,0.36 0.27,1.99 0.7,4.91 0.51,3.4 0.87,6.17 1.12,8.28 0.39,3.39 0.58,5.98 0.58,7.77z"/>
  <path id="10" class="fil0" d="M231.81 39.84l-28.2 0 0 -4.25 19.9 0c-1.66,-1.29 -3.06,-2.29 -4.2,-3 -1.42,-0.9 -2.71,-1.55 -3.88,-1.96 -1.32,-0.46 -2.65,-0.69 -4.01,-0.69 -0.83,0 -1.66,0.06 -2.51,0.18 0.47,-1.2 1.09,-2.17 1.86,-2.89 1.1,-1.06 2.5,-1.59 4.2,-1.59 1.66,0 3.61,0.82 5.88,2.44 1.12,0.81 2.95,2.36 5.49,4.64 1.97,1.77 3.31,2.72 4.01,2.87l1.46 0 0 4.25z"/>
  <path id="11" class="fil0" d="M251.51 39.84l-2.54 0c-1.09,0 -2.31,-0.24 -3.68,-0.74 -1.58,-0.56 -2.96,-1.36 -4.17,-2.36 -0.94,1.17 -1.91,1.98 -2.89,2.43 -0.98,0.45 -2.42,0.67 -4.32,0.67l-3.81 0 0 -4.25 3.74 0c1.48,0 2.8,-0.37 3.95,-1.12 0.9,-0.59 1.71,-1.41 2.44,-2.48 0.99,-1.43 2.22,-2.68 3.67,-3.74 1.3,-0.94 2.49,-1.55 3.58,-1.81 1.13,1.71 2.02,3.25 2.69,4.63 0.89,1.86 1.34,3.37 1.34,4.52l0 4.25zm-2.8 -4.81c-0.21,-0.95 -0.54,-1.89 -0.98,-2.8 -0.37,-0.78 -0.87,-1.57 -1.49,-2.39 -0.77,0.2 -1.43,0.57 -1.97,1.11 -0.35,0.34 -0.78,0.93 -1.26,1.74 0.58,0.65 1.41,1.21 2.47,1.72 1.06,0.51 2.07,0.82 3.01,0.93l0.22 -0.31z"/>
 </g>
</svg>
