<?xml version="1.0" encoding="UTF-8"?>
<!DOCTYPE svg PUBLIC "-//W3C//DTD SVG 1.1//EN" "http://www.w3.org/Graphics/SVG/1.1/DTD/svg11.dtd">
<!-- Creator: CorelDRAW 2018 (64-Bit) -->
<svg xmlns="http://www.w3.org/2000/svg" xml:space="preserve" width="254px" height="59px" version="1.1" style="shape-rendering:geometricPrecision; text-rendering:geometricPrecision; image-rendering:optimizeQuality; fill-rule:evenodd; clip-rule:evenodd"
viewBox="0 0 254 59.07"
 xmlns:xlink="http://www.w3.org/1999/xlink">
 <defs>
  <style type="text/css">
   <![CDATA[
    .fil0 {fill:#2B2A29;fill-rule:nonzero}
   ]]>
  </style>
 </defs>
 <g id="Layer_x0020_1">
  <metadata id="CorelCorpID_0Corel-Layer"/>
  <path class="fil0" d="M28.1 41.1c0,3.22 -1.55,5.68 -4.65,7.37 -2.79,1.52 -6.48,2.28 -11.1,2.28 -3.63,0 -6.44,-0.65 -8.43,-1.96 -2.15,-1.42 -3.23,-3.52 -3.23,-6.31 0,-1.93 0.31,-3.94 0.93,-6.07 0.57,-1.95 1.39,-3.91 2.45,-5.87l1.02 0.44c-0.46,1.15 -0.87,2.16 -1.19,3.04 -0.43,1.21 -0.75,2.24 -0.94,3.1 -0.24,1.1 -0.37,2.16 -0.37,3.18 0,2.12 0.89,3.69 2.68,4.71 1.66,0.92 4.11,1.39 7.36,1.39 3.46,0 6.5,-0.58 9.1,-1.72 3.01,-1.33 4.52,-3.11 4.52,-5.37 0,-0.83 -0.03,-1.43 -0.09,-1.8 -0.05,-0.37 -0.16,-0.74 -0.31,-1.12 -0.62,0.3 -1.25,0.53 -1.88,0.7 -0.63,0.17 -1.27,0.26 -1.91,0.26 -1.44,0 -2.62,-0.33 -3.52,-0.98 -1.1,-0.78 -1.65,-1.96 -1.65,-3.53 0,-1.84 0.48,-3.6 1.43,-5.27 1.07,-1.89 2.33,-2.83 3.79,-2.83 1.93,0 3.44,1.3 4.56,3.91 0.95,2.22 1.43,4.79 1.43,7.7l0 4.75zm-3.91 -9.09c-0.43,-1 -0.73,-1.63 -0.9,-1.87 -0.46,-0.66 -1.04,-1 -1.72,-1 -0.78,0 -1.36,0.19 -1.72,0.56 -0.37,0.38 -0.56,0.84 -0.56,1.41 0,0.51 0.24,0.9 0.71,1.19 0.48,0.29 1.02,0.44 1.62,0.44 0.43,0 0.82,-0.05 1.18,-0.18 0.37,-0.12 0.84,-0.3 1.39,-0.55zm1.01 -17.17l-1.8 3.55 -4.01 -2.05 1.86 -3.55 3.95 2.05zm-5.55 2.25l-1.81 3.5 -4 -2.08 1.89 -3.52 3.92 2.1z"/>
  <path id="1" class="fil0" d="M44.93 39.84l-10.91 0c-0.93,0 -1.76,-0.26 -2.51,-0.8 -0.73,-0.54 -1.1,-1.17 -1.1,-1.9 0,-0.62 0.03,-1.18 0.1,-1.69 0.06,-0.5 0.19,-1.06 0.36,-1.66l0.5 0c0.19,0.67 0.51,1.15 0.98,1.44 0.39,0.24 0.93,0.36 1.62,0.36l9.46 0c0,-2.91 -0.41,-5.26 -1.23,-7.03 -1.02,-2.21 -2.71,-3.68 -5.08,-4.42l0.38 -4.75c2.83,1.38 4.83,3.59 6,6.63 0.95,2.44 1.43,5.63 1.43,9.57l0 4.25z"/>
  <path id="2" class="fil0" d="M87.25 39.84l-29.33 0c-0.87,0 -1.72,-0.15 -2.52,-0.44 -0.6,-0.22 -1.31,-0.59 -2.11,-1.1 -0.69,0.6 -1.37,1 -2.05,1.21 -0.7,0.23 -1.78,0.33 -3.28,0.33l-4.72 0 0 -4.25 4.73 0c1.32,0 2.27,-0.11 2.84,-0.34 0.94,-0.37 1.42,-1.12 1.42,-2.24 0,-0.47 -0.03,-0.95 -0.09,-1.43 -0.05,-0.48 -0.14,-1 -0.25,-1.57l0.98 -1.47c0.57,2.21 1.35,3.92 2.34,5.13 1.06,1.28 2.3,1.92 3.74,1.92 1.36,0 2.96,-0.3 4.81,-0.92 1.98,-0.67 3.69,-1.52 5.11,-2.53 2.34,-1.66 3.75,-2.66 4.28,-2.98 1.32,-0.85 2.51,-1.45 3.58,-1.81 1.21,-0.41 2.53,-0.61 3.96,-0.61 2.21,0 3.88,0.64 5,1.93 1.05,1.19 1.56,2.86 1.56,5l0 6.17zm-4 -6.12c0,-0.79 -0.49,-1.41 -1.48,-1.86 -0.99,-0.44 -2.15,-0.67 -3.47,-0.67 -1.63,0 -3.59,0.54 -5.9,1.63 -1.83,0.92 -3.67,1.85 -5.49,2.77l11.25 0c1.77,0 3.06,-0.15 3.87,-0.45 0.81,-0.31 1.22,-0.79 1.22,-1.42z"/>
  <path id="3" class="fil0" d="M106.97 39.84l-2.54 0c-1.09,0 -2.31,-0.24 -3.68,-0.74 -1.58,-0.56 -2.96,-1.36 -4.17,-2.36 -0.94,1.17 -1.91,1.98 -2.89,2.43 -0.99,0.45 -2.43,0.67 -4.32,0.67l-3.81 0 0 -4.25 3.74 0c1.48,0 2.8,-0.37 3.95,-1.12 0.9,-0.59 1.7,-1.41 2.44,-2.48 0.99,-1.43 2.22,-2.68 3.67,-3.74 1.3,-0.94 2.49,-1.55 3.58,-1.81 1.13,1.71 2.02,3.25 2.68,4.63 0.9,1.86 1.35,3.37 1.35,4.52l0 4.25zm-2.8 -4.81c-0.21,-0.95 -0.54,-1.89 -0.98,-2.8 -0.37,-0.78 -0.88,-1.57 -1.49,-2.39 -0.78,0.2 -1.43,0.57 -1.97,1.11 -0.36,0.34 -0.78,0.93 -1.27,1.74 0.59,0.65 1.41,1.21 2.48,1.72 1.06,0.51 2.07,0.82 3.01,0.93l0.22 -0.31z"/>
  <path id="4" class="fil0" d="M117.32 39.84l-12.05 0 0 -4.25 9.6 0 -3 -20.77 -1.25 -0.6c0,-1.11 0.1,-2.17 0.29,-3.15 0.2,-0.97 0.49,-1.93 0.88,-2.85l0.38 0.27c0,0.94 0.53,1.65 1.61,2.12 0.81,0.33 1.65,0.65 2.49,0.98 0,0.81 -0.07,1.67 -0.2,2.58 -0.13,0.93 -0.28,1.61 -0.47,2.06l-1.18 -0.39 2.9 19.21 0 4.79z"/>
  <path id="5" class="fil0" d="M125.57 33.61c0,1.3 -0.24,2.57 -0.72,3.78 -0.25,0.65 -0.78,1.69 -1.61,3.11l-0.44 -0.25c0.06,-0.47 0.11,-1.01 0.15,-1.64 0.05,-0.62 0.07,-1.03 0.07,-1.24 0,-1.69 -0.13,-4.06 -0.4,-7.09 -0.28,-3.04 -0.59,-6.21 -0.97,-9.51 -0.23,-2 -0.48,-4.05 -0.76,-6.13 0.33,-0.72 0.7,-1.48 1.12,-2.32 0.42,-0.82 0.81,-1.6 1.18,-2.33 0.26,1.85 0.6,4.39 1,7.61 0.4,3.22 0.71,6.12 0.94,8.72 0.29,3.21 0.44,5.65 0.44,7.29z"/>
  <path id="6" class="fil0" d="M166.87 36.8c0,2.6 -0.61,4.68 -1.82,6.2 -1.09,1.35 -2.7,2.33 -4.81,2.91 -1.79,0.5 -4.05,0.74 -6.8,0.74 -3.14,0 -5.57,-0.58 -7.3,-1.74 -1.88,-1.26 -2.82,-3.16 -2.82,-5.68 0,-1.4 0.21,-2.85 0.61,-4.37 0.35,-1.28 0.87,-2.69 1.57,-4.22 0.51,-1.11 1.2,-2.44 2.07,-4l0.85 0.46c-0.62,1.09 -1.14,2.07 -1.55,2.93 -0.55,1.15 -0.96,2.18 -1.23,3.09 -0.31,1.1 -0.47,2.17 -0.47,3.22 0,1.99 0.72,3.5 2.18,4.52 1.45,1.03 3.47,1.54 6.05,1.54 2.75,0 5.29,-0.48 7.62,-1.42 2.57,-1.04 3.85,-2.28 3.85,-3.74 0,-1.57 -0.25,-4.25 -0.74,-8.02 -0.38,-2.9 -0.86,-6.14 -1.42,-9.72l-0.79 -4.74 -1.1 -0.58c0,-2.18 0.44,-4.17 1.33,-5.96l0.42 0c0.07,0.62 0.18,1.08 0.33,1.38 0.17,0.3 0.44,0.52 0.8,0.67 0.51,0.21 1.05,0.46 1.64,0.76 0.43,0.21 0.82,0.39 1.13,0.56 0,1.14 -0.04,1.97 -0.12,2.49 -0.08,0.53 -0.24,1.25 -0.49,2.2l-1.39 -0.44c0.04,0.36 0.27,1.99 0.7,4.91 0.51,3.4 0.88,6.17 1.12,8.28 0.39,3.39 0.58,5.98 0.58,7.77z"/>
  <path id="7" class="fil0" d="M188.5 38.33c0,2.7 -1,5.38 -2.99,8.05 -2.21,2.98 -4.77,4.47 -7.67,4.47 -1.07,0 -2.18,-0.13 -3.32,-0.37 -0.84,-0.17 -1.92,-0.48 -3.25,-0.92 -1.06,-0.37 -2.12,-0.73 -3.18,-1.09l0.42 -0.86c0.91,0.21 1.86,0.44 2.86,0.68 1.01,0.24 1.91,0.36 2.71,0.36 1.98,0 3.86,-0.51 5.64,-1.53 1.38,-0.81 2.77,-1.97 4.15,-3.5 0.7,-0.77 1.69,-2.03 2.97,-3.78 -2.2,0 -3.85,-0.34 -4.94,-1.05 -1.24,-0.8 -1.86,-2.12 -1.86,-3.95 0,-1.69 0.39,-3.26 1.18,-4.7 0.92,-1.66 2.07,-2.5 3.47,-2.5 1.43,0 2.45,0.83 3.07,2.49 0.49,1.29 0.74,3.09 0.74,5.4l0 2.8zm-1.55 -2.69c-0.36,-1.57 -0.8,-2.65 -1.31,-3.26 -0.43,-0.53 -0.97,-0.79 -1.6,-0.79 -0.46,0 -0.86,0.15 -1.2,0.45 -0.33,0.31 -0.5,0.69 -0.5,1.15 0,0.8 0.36,1.41 1.08,1.83 0.72,0.42 1.89,0.62 3.53,0.62z"/>
  <path id="8" class="fil0" d="M215.01 39.84l-28.21 0 0 -4.25 19.91 0c-1.66,-1.29 -3.06,-2.29 -4.2,-3 -1.42,-0.9 -2.71,-1.55 -3.89,-1.96 -1.31,-0.46 -2.65,-0.69 -4,-0.69 -0.83,0 -1.67,0.06 -2.52,0.18 0.48,-1.2 1.1,-2.17 1.86,-2.89 1.1,-1.06 2.5,-1.59 4.2,-1.59 1.66,0 3.62,0.82 5.89,2.44 1.12,0.81 2.95,2.36 5.49,4.64 1.97,1.77 3.3,2.72 4,2.87l1.47 0 0 4.25zm-11.75 -22.73l-1.89 3.53 -3.91 -2.04 1.79 -3.56 4.01 2.07z"/>
  <path id="9" class="fil0" d="M234.71 39.84l-2.54 0c-1.09,0 -2.32,-0.24 -3.68,-0.74 -1.58,-0.56 -2.96,-1.36 -4.17,-2.36 -0.94,1.17 -1.91,1.98 -2.89,2.43 -0.99,0.45 -2.43,0.67 -4.32,0.67l-3.81 0 0 -4.25 3.74 0c1.48,0 2.8,-0.37 3.95,-1.12 0.9,-0.59 1.7,-1.41 2.44,-2.48 0.99,-1.43 2.22,-2.68 3.67,-3.74 1.3,-0.94 2.49,-1.55 3.58,-1.81 1.13,1.71 2.02,3.25 2.68,4.63 0.9,1.86 1.35,3.37 1.35,4.52l0 4.25zm-2.8 -4.81c-0.21,-0.95 -0.54,-1.89 -0.98,-2.8 -0.37,-0.78 -0.88,-1.57 -1.49,-2.39 -0.78,0.2 -1.44,0.57 -1.97,1.11 -0.36,0.34 -0.78,0.93 -1.27,1.74 0.59,0.65 1.41,1.21 2.48,1.72 1.06,0.51 2.07,0.82 3.01,0.93l0.22 -0.31z"/>
  <path id="10" class="fil0" d="M245.06 39.84l-12.05 0 0 -4.25 9.6 0 -3 -20.77 -1.25 -0.6c0,-1.11 0.1,-2.17 0.29,-3.15 0.2,-0.97 0.49,-1.93 0.88,-2.85l0.38 0.27c0,0.94 0.53,1.65 1.61,2.12 0.81,0.33 1.65,0.65 2.49,0.98 0,0.81 -0.07,1.67 -0.2,2.58 -0.13,0.93 -0.29,1.61 -0.47,2.06l-1.18 -0.39 2.9 19.21 0 4.79z"/>
  <path id="11" class="fil0" d="M253.31 33.61c0,1.3 -0.24,2.57 -0.72,3.78 -0.25,0.65 -0.78,1.69 -1.61,3.11l-0.44 -0.25c0.06,-0.47 0.11,-1.01 0.15,-1.64 0.04,-0.62 0.07,-1.03 0.07,-1.24 0,-1.69 -0.13,-4.06 -0.4,-7.09 -0.28,-3.04 -0.59,-6.21 -0.97,-9.51 -0.23,-2 -0.48,-4.05 -0.76,-6.13 0.33,-0.72 0.7,-1.48 1.12,-2.32 0.42,-0.82 0.81,-1.6 1.18,-2.33 0.26,1.85 0.6,4.39 1,7.61 0.4,3.22 0.71,6.12 0.94,8.72 0.29,3.21 0.44,5.65 0.44,7.29z"/>
 </g>
</svg>
