<?xml version="1.0" encoding="UTF-8"?>
<!DOCTYPE svg PUBLIC "-//W3C//DTD SVG 1.1//EN" "http://www.w3.org/Graphics/SVG/1.1/DTD/svg11.dtd">
<!-- Creator: CorelDRAW 2018 (64-Bit) -->
<svg xmlns="http://www.w3.org/2000/svg" xml:space="preserve" width="71px" height="59px" version="1.1" style="shape-rendering:geometricPrecision; text-rendering:geometricPrecision; image-rendering:optimizeQuality; fill-rule:evenodd; clip-rule:evenodd"
viewBox="0 0 71 59.17"
 xmlns:xlink="http://www.w3.org/1999/xlink">
 <defs>
  <style type="text/css">
   <![CDATA[
    .fil0 {fill:#2B2A29;fill-rule:nonzero}
   ]]>
  </style>
 </defs>
 <g id="Layer_x0020_1">
  <metadata id="CorelCorpID_0Corel-Layer"/>
  <path class="fil0" d="M15.13 45.09l-10.93 0c-0.93,0 -1.76,-0.26 -2.5,-0.8 -0.74,-0.54 -1.11,-1.17 -1.11,-1.91 0,-0.62 0.03,-1.18 0.1,-1.69 0.06,-0.5 0.19,-1.06 0.36,-1.66l0.5 0c0.19,0.67 0.51,1.15 0.98,1.44 0.39,0.24 0.94,0.37 1.62,0.37l9.48 0c0,-2.92 -0.41,-5.27 -1.23,-7.05 -1.02,-2.21 -2.71,-3.69 -5.09,-4.42l0.38 -4.76c2.83,1.38 4.83,3.59 6.01,6.63 0.95,2.45 1.43,5.65 1.43,9.6l0 4.25z"/>
  <path id="1" class="fil0" d="M32.03 45.09l-10.93 0c-0.93,0 -1.76,-0.26 -2.51,-0.8 -0.73,-0.54 -1.11,-1.17 -1.11,-1.91 0,-0.62 0.04,-1.18 0.1,-1.69 0.07,-0.5 0.19,-1.06 0.37,-1.66l0.5 0c0.19,0.67 0.51,1.15 0.98,1.44 0.39,0.24 0.93,0.37 1.62,0.37l9.47 0c0,-2.92 -0.4,-5.27 -1.22,-7.05 -1.02,-2.21 -2.72,-3.69 -5.09,-4.42l0.38 -4.76c2.83,1.38 4.83,3.59 6.01,6.63 0.95,2.45 1.43,5.65 1.43,9.6l0 4.25z"/>
  <path id="2" class="fil0" d="M51.78 45.09l-3.59 0c-1.06,0 -2.13,-0.25 -3.22,-0.76 -1.3,-0.6 -2.25,-1.44 -2.83,-2.52 -1.1,0.99 -2.35,1.74 -3.75,2.28 -1.71,0.67 -3.66,1 -5.85,1l-2.2 0 0 -4.25 2.2 0c1.37,0 2.65,-0.15 3.83,-0.45 1.33,-0.33 2.65,-0.87 3.94,-1.62l-1.04 -1.31c-0.52,-0.62 -1.11,-0.93 -1.77,-0.93 -0.3,0 -0.56,0.05 -0.79,0.16 -0.22,0.11 -0.48,0.33 -0.76,0.69l-0.5 0 0 -1.44c0,-1.81 0.48,-3.04 1.42,-3.71 0.86,-0.61 2.35,-0.91 4.49,-0.91 1.84,0 3.34,0.24 4.49,0.73 1.51,0.64 2.27,1.62 2.27,2.94 0,0.7 -0.3,1.43 -0.9,2.18 -0.43,0.55 -1.23,1.32 -2.4,2.31 0.26,0.38 0.76,0.71 1.5,0.96 0.74,0.26 1.36,0.4 1.87,0.4l3.59 0 0 4.25z"/>
  <path id="3" class="fil0" d="M62.15 45.09l-12.07 0 0 -4.25 9.62 0 -3.01 -20.81 -1.25 -0.6c0,-1.12 0.1,-2.17 0.29,-3.16 0.2,-0.97 0.49,-1.93 0.88,-2.85l0.38 0.27c0,0.94 0.53,1.65 1.61,2.13 0.82,0.32 1.65,0.65 2.5,0.97 0,0.81 -0.07,1.67 -0.2,2.59 -0.13,0.93 -0.29,1.61 -0.47,2.06l-1.19 -0.39 2.91 19.24 0 4.8z"/>
  <path id="4" class="fil0" d="M70.42 38.85c0,1.3 -0.25,2.57 -0.72,3.79 -0.25,0.65 -0.79,1.69 -1.61,3.11l-0.45 -0.25c0.06,-0.47 0.11,-1.01 0.15,-1.64 0.05,-0.62 0.07,-1.04 0.07,-1.24 0,-1.7 -0.13,-4.07 -0.4,-7.11 -0.28,-3.04 -0.59,-6.21 -0.97,-9.53 -0.23,-2 -0.48,-4.05 -0.76,-6.13 0.33,-0.72 0.7,-1.49 1.12,-2.32 0.42,-0.83 0.81,-1.61 1.19,-2.34 0.25,1.85 0.59,4.4 0.99,7.62 0.4,3.23 0.72,6.14 0.94,8.73 0.3,3.23 0.45,5.67 0.45,7.31z"/>
 </g>
</svg>
