<?xml version="1.0" encoding="UTF-8"?>
<!DOCTYPE svg PUBLIC "-//W3C//DTD SVG 1.1//EN" "http://www.w3.org/Graphics/SVG/1.1/DTD/svg11.dtd">
<!-- Creator: CorelDRAW 2018 (64-Bit) -->
<svg xmlns="http://www.w3.org/2000/svg" xml:space="preserve" width="1169px" height="59px" version="1.1" style="shape-rendering:geometricPrecision; text-rendering:geometricPrecision; image-rendering:optimizeQuality; fill-rule:evenodd; clip-rule:evenodd"
viewBox="0 0 1169 59.04"
 xmlns:xlink="http://www.w3.org/1999/xlink">
 <defs>
  <style type="text/css">
   <![CDATA[
    .fil0 {fill:#2B2A29;fill-rule:nonzero}
   ]]>
  </style>
 </defs>
 <g id="Layer_x0020_1">
  <metadata id="CorelCorpID_0Corel-Layer"/>
  <polygon class="fil0" points="3.82,46.22 3.82,41.22 8.82,41.22 8.82,46.22 "/>
  <path id="1" class="fil0" d="M42.56 39.07l-4.27 0c-2.5,0 -4.38,0.06 -5.64,0.2 -1.26,0.12 -1.89,0.39 -1.89,0.78 0,0.54 0.76,0.82 2.27,0.82 0.67,0 1.19,0.01 1.59,0.05 0.39,0.03 1.24,0.11 2.56,0.26 0.78,0.1 1.33,0.22 1.62,0.37 0.47,0.24 0.71,0.67 0.71,1.27 0,3.04 -1,5.24 -3,6.63 -2.19,1.51 -5.79,2.26 -10.81,2.26 -3.5,0 -6.28,-0.59 -8.35,-1.78 -2.19,-1.27 -3.29,-3.07 -3.29,-5.41 0,-1.89 0.52,-3.89 1.55,-6 0.37,-0.76 1.34,-2.4 2.93,-4.9l0.97 0.48c-0.62,1.05 -1.22,2.1 -1.82,3.14 -0.92,1.79 -1.38,3.24 -1.38,4.38 0,2 1.04,3.52 3.13,4.56 1.99,0.99 4.71,1.49 8.19,1.49 2.33,0 4.38,-0.18 6.15,-0.54 2.19,-0.44 3.28,-1.03 3.28,-1.8 0,-0.27 -0.13,-0.48 -0.37,-0.61 -0.25,-0.15 -0.66,-0.21 -1.23,-0.21 -0.44,-0.05 -1.14,-0.1 -2.08,-0.16 -0.94,-0.06 -1.56,-0.08 -1.85,-0.08 -1.03,0 -1.76,-0.14 -2.2,-0.4 -0.45,-0.28 -0.67,-0.68 -0.67,-1.21 0,-2.03 0.59,-3.68 1.78,-4.96 0.98,-1.04 2.29,-1.82 3.93,-2.32 1.24,-0.38 2.54,-0.56 3.91,-0.56l4.28 0 0 4.25zm-10.1 15.64l-2.27 2.1 -2.73 -1.74 2.19 -2.31 2.81 1.95zm-5.05 0l-2.22 2.1 -2.83 -1.74 2.27 -2.31 2.78 1.95z"/>
  <path id="2" class="fil0" d="M54.77 39.07l-13.9 0 0 -4.25 12.15 0c0,-1.92 -0.23,-3.38 -0.69,-4.38 -0.31,-0.7 -1.08,-1.7 -2.31,-3.02l1.92 -4c1.16,1.48 1.89,2.63 2.18,3.47 0.43,1.25 0.65,3.32 0.65,6.22l0 5.96zm-2.6 -22.26c0,0.41 -0.25,0.78 -0.76,1.1 -0.34,0.22 -0.86,0.45 -1.54,0.69l-4.55 1.57c0,-0.76 0.83,-1.41 2.47,-1.99 -0.51,-0.27 -0.89,-0.52 -1.15,-0.76 -0.34,-0.31 -0.52,-0.64 -0.52,-0.99 0,-0.5 0.43,-1.22 1.3,-2.13 0.97,-1.02 1.82,-1.53 2.55,-1.53 0.32,0 0.61,0.11 0.84,0.34 0.24,0.22 0.36,0.51 0.36,0.88 0,0.23 -0.05,0.47 -0.15,0.71 -0.09,0.23 -0.23,0.51 -0.42,0.8 -0.5,-0.45 -1.05,-0.68 -1.64,-0.68 -0.36,0 -0.71,0.08 -1.07,0.22 -0.34,0.15 -0.52,0.32 -0.52,0.51 0,0.24 0.37,0.57 1.13,0.99 0.76,0.42 1.4,0.63 1.94,0.63 0.35,0 0.61,-0.01 0.77,-0.03 0.15,-0.03 0.48,-0.13 0.96,-0.33z"/>
  <path id="3" class="fil0" d="M66.27 39.07l-3.43 0c-1.12,0 -2.01,-0.45 -2.67,-1.34 -0.59,-0.79 -1.04,-1.94 -1.34,-3.49 -0.3,-1.55 -0.54,-3.45 -0.7,-5.71 -0.1,-1.83 -0.2,-3.72 -0.31,-5.66 -0.1,-1.93 -0.24,-3.4 -0.41,-4.4 -0.18,-1 -0.41,-1.81 -0.7,-2.45 -0.35,-0.78 -0.85,-1.46 -1.48,-2.05l2.97 -4.74c0.65,1.95 1.11,4.28 1.38,6.99 0.16,1.7 0.33,5.7 0.49,12.01 0.3,2.9 0.72,4.75 1.28,5.56 0.46,0.69 0.96,1.03 1.49,1.03l3.43 0 0 4.25z"/>
  <path id="4" class="fil0" d="M78.44 39.07l-13.89 0 0 -4.25 12.15 0c0,-1.92 -0.24,-3.38 -0.7,-4.38 -0.3,-0.7 -1.07,-1.7 -2.3,-3.02l1.92 -4c1.16,1.48 1.88,2.63 2.18,3.47 0.43,1.25 0.64,3.32 0.64,6.22l0 5.96zm-1.99 -22.58l-1.89 3.53 -3.91 -2.04 1.79 -3.56 4.01 2.07z"/>
  <path id="5" class="fil0" d="M104.95 39.07l-28.2 0 0 -4.25 19.9 0c-1.66,-1.29 -3.06,-2.29 -4.2,-3.01 -1.42,-0.9 -2.71,-1.55 -3.88,-1.96 -1.32,-0.45 -2.65,-0.68 -4,-0.68 -0.84,0 -1.67,0.06 -2.52,0.18 0.48,-1.2 1.09,-2.17 1.86,-2.9 1.1,-1.05 2.5,-1.58 4.2,-1.58 1.66,0 3.61,0.82 5.88,2.44 1.12,0.81 2.95,2.36 5.49,4.63 1.97,1.77 3.3,2.73 4,2.88l1.47 0 0 4.25zm-12.45 5.26l-1.88 3.54 -3.92 -2.05 1.79 -3.55 4.01 2.06z"/>
  <path id="6" class="fil0" d="M115.28 39.07l-12.04 0 0 -4.25 9.6 0 -3 -20.76 -1.25 -0.6c0,-1.12 0.1,-2.17 0.29,-3.15 0.2,-0.98 0.49,-1.93 0.88,-2.85l0.38 0.27c0,0.94 0.53,1.65 1.6,2.12 0.82,0.33 1.65,0.65 2.49,0.97 0,0.81 -0.06,1.67 -0.19,2.59 -0.13,0.92 -0.29,1.61 -0.47,2.06l-1.18 -0.4 2.89 19.21 0 4.79z"/>
  <path id="7" class="fil0" d="M123.53 32.84c0,1.3 -0.24,2.56 -0.71,3.78 -0.25,0.65 -0.79,1.68 -1.61,3.1l-0.44 -0.24c0.06,-0.48 0.1,-1.02 0.15,-1.65 0.04,-0.61 0.06,-1.03 0.06,-1.24 0,-1.69 -0.13,-4.05 -0.4,-7.09 -0.27,-3.03 -0.59,-6.2 -0.96,-9.5 -0.24,-2 -0.49,-4.04 -0.76,-6.13 0.32,-0.71 0.7,-1.48 1.11,-2.31 0.42,-0.83 0.81,-1.6 1.19,-2.33 0.26,1.84 0.59,4.39 0.99,7.6 0.4,3.23 0.72,6.12 0.94,8.72 0.29,3.21 0.44,5.64 0.44,7.29z"/>
  <path id="8" class="fil0" d="M164.81 36.03c0,2.6 -0.6,4.67 -1.82,6.19 -1.09,1.35 -2.69,2.33 -4.81,2.91 -1.78,0.49 -4.05,0.74 -6.8,0.74 -3.13,0 -5.56,-0.58 -7.29,-1.74 -1.88,-1.26 -2.82,-3.15 -2.82,-5.68 0,-1.4 0.21,-2.85 0.62,-4.36 0.34,-1.29 0.86,-2.7 1.56,-4.22 0.51,-1.11 1.2,-2.44 2.07,-4l0.85 0.46c-0.62,1.09 -1.13,2.06 -1.55,2.92 -0.55,1.15 -0.96,2.19 -1.23,3.09 -0.31,1.1 -0.47,2.18 -0.47,3.22 0,1.99 0.72,3.5 2.18,4.52 1.45,1.03 3.47,1.54 6.05,1.54 2.74,0 5.28,-0.48 7.62,-1.42 2.56,-1.04 3.84,-2.28 3.84,-3.73 0,-1.58 -0.24,-4.25 -0.74,-8.02 -0.38,-2.9 -0.85,-6.14 -1.41,-9.72l-0.79 -4.73 -1.1 -0.58c0,-2.19 0.44,-4.17 1.32,-5.96l0.43 0c0.06,0.62 0.17,1.07 0.33,1.37 0.16,0.3 0.43,0.53 0.8,0.68 0.5,0.21 1.04,0.46 1.63,0.76 0.43,0.2 0.82,0.39 1.13,0.55 0,1.15 -0.04,1.97 -0.12,2.5 -0.08,0.52 -0.24,1.25 -0.48,2.19l-1.39 -0.44c0.03,0.36 0.26,2 0.69,4.91 0.51,3.4 0.88,6.17 1.12,8.28 0.39,3.38 0.58,5.98 0.58,7.77z"/>
  <path id="9" class="fil0" d="M191.32 39.07l-28.19 0 0 -4.25 19.9 0c-1.66,-1.29 -3.06,-2.29 -4.2,-3.01 -1.42,-0.9 -2.71,-1.55 -3.89,-1.96 -1.31,-0.45 -2.64,-0.68 -3.99,-0.68 -0.84,0 -1.67,0.06 -2.52,0.18 0.48,-1.2 1.09,-2.17 1.86,-2.9 1.1,-1.05 2.5,-1.58 4.2,-1.58 1.65,0 3.61,0.82 5.88,2.44 1.12,0.81 2.95,2.36 5.49,4.63 1.97,1.77 3.3,2.73 4,2.88l1.46 0 0 4.25zm-12.44 5.26l-1.89 3.54 -3.91 -2.05 1.79 -3.55 4.01 2.06z"/>
  <path id="10" class="fil0" d="M217.86 39.07l-1.87 0c-1.03,0 -1.91,-0.14 -2.65,-0.43 -0.75,-0.28 -1.43,-0.69 -2.05,-1.2 -0.76,0.59 -1.43,0.99 -2,1.19 -0.84,0.29 -1.98,0.44 -3.44,0.44l-1.59 0c-0.85,0 -1.7,-0.17 -2.55,-0.49 -0.55,-0.21 -1.24,-0.56 -2.05,-1.05 -0.79,0.59 -1.5,0.99 -2.15,1.2 -0.65,0.23 -1.71,0.34 -3.18,0.34l-4.71 0 0 -4.25 4.72 0c1.32,0 2.27,-0.12 2.84,-0.34 0.94,-0.38 1.42,-1.13 1.42,-2.24 0,-0.48 -0.03,-0.95 -0.08,-1.42 -0.04,-0.48 -0.13,-1 -0.26,-1.58l0.98 -1.47c0.46,1.5 0.83,2.58 1.13,3.27 0.53,1.19 1.1,2.08 1.72,2.68 0.76,0.73 1.66,1.1 2.71,1.1l1.65 0c1.23,0 2.14,-0.18 2.73,-0.56 0.65,-0.42 0.98,-1.1 0.98,-2.02 0,-0.51 -0.03,-1 -0.09,-1.47 -0.07,-0.48 -0.15,-0.98 -0.26,-1.53l0.98 -1.47 0.5 2.3c0.45,1.81 0.98,3.07 1.61,3.77 0.56,0.62 1.3,0.93 2.25,0.93 0.43,0 0.79,-0.13 1.06,-0.41 0.27,-0.27 0.4,-0.62 0.4,-1.04 0,-0.92 -0.33,-1.88 -1,-2.9 -0.12,-0.17 -0.52,-0.7 -1.2,-1.6l1.57 -2.65c0.66,1.01 1.11,1.88 1.35,2.62 0.35,1.1 0.53,2.58 0.53,4.41l0 5.87z"/>
  <path id="11" class="fil0" d="M228.2 39.07l-12.05 0 0 -4.25 9.6 0 -3 -20.76 -1.25 -0.6c0,-1.12 0.1,-2.17 0.29,-3.15 0.2,-0.98 0.49,-1.93 0.88,-2.85l0.38 0.27c0,0.94 0.53,1.65 1.61,2.12 0.81,0.33 1.65,0.65 2.49,0.97 0,0.81 -0.07,1.67 -0.2,2.59 -0.13,0.92 -0.28,1.61 -0.47,2.06l-1.18 -0.4 2.9 19.21 0 4.79z"/>
  <path id="12" class="fil0" d="M236.45 32.84c0,1.3 -0.25,2.56 -0.72,3.78 -0.25,0.65 -0.78,1.68 -1.61,3.1l-0.44 -0.24c0.06,-0.48 0.11,-1.02 0.15,-1.65 0.04,-0.61 0.07,-1.03 0.07,-1.24 0,-1.69 -0.14,-4.05 -0.4,-7.09 -0.28,-3.03 -0.6,-6.2 -0.97,-9.5 -0.23,-2 -0.48,-4.04 -0.76,-6.13 0.33,-0.71 0.7,-1.48 1.12,-2.31 0.42,-0.83 0.81,-1.6 1.18,-2.33 0.26,1.84 0.59,4.39 0.99,7.6 0.4,3.23 0.72,6.12 0.94,8.72 0.3,3.21 0.45,5.64 0.45,7.29z"/>
  <path id="13" class="fil0" d="M281.83 39.07l-4.27 0c-2.5,0 -4.38,0.06 -5.64,0.2 -1.26,0.12 -1.89,0.39 -1.89,0.78 0,0.54 0.76,0.82 2.27,0.82 0.67,0 1.2,0.01 1.59,0.05 0.39,0.03 1.25,0.11 2.56,0.26 0.79,0.1 1.33,0.22 1.62,0.37 0.47,0.24 0.71,0.67 0.71,1.27 0,3.04 -1,5.24 -3,6.63 -2.18,1.51 -5.78,2.26 -10.81,2.26 -3.5,0 -6.28,-0.59 -8.34,-1.78 -2.2,-1.27 -3.3,-3.07 -3.3,-5.41 0,-1.89 0.52,-3.89 1.55,-6 0.37,-0.76 1.34,-2.4 2.93,-4.9l0.97 0.48c-0.61,1.05 -1.21,2.1 -1.81,3.14 -0.93,1.79 -1.39,3.24 -1.39,4.38 0,2 1.05,3.52 3.13,4.56 1.99,0.99 4.71,1.49 8.19,1.49 2.33,0 4.38,-0.18 6.15,-0.54 2.19,-0.44 3.28,-1.03 3.28,-1.8 0,-0.27 -0.13,-0.48 -0.37,-0.61 -0.25,-0.15 -0.66,-0.21 -1.23,-0.21 -0.44,-0.05 -1.13,-0.1 -2.08,-0.16 -0.94,-0.06 -1.55,-0.08 -1.85,-0.08 -1.03,0 -1.76,-0.14 -2.2,-0.4 -0.44,-0.28 -0.67,-0.68 -0.67,-1.21 0,-2.03 0.59,-3.68 1.78,-4.96 0.98,-1.04 2.29,-1.82 3.94,-2.32 1.23,-0.38 2.54,-0.56 3.9,-0.56l4.28 0 0 4.25zm-10.1 15.64l-2.27 2.1 -2.73 -1.74 2.19 -2.31 2.81 1.95zm-5.05 0l-2.22 2.1 -2.83 -1.74 2.27 -2.31 2.78 1.95z"/>
  <path id="14" class="fil0" d="M295.24 39.07l-15.1 0 0 -4.25 13 0c0,-1.45 -0.17,-2.81 -0.51,-4.08 -0.84,0.28 -1.49,0.47 -1.94,0.59 -0.75,0.19 -1.41,0.29 -1.97,0.29 -1.18,0 -2.14,-0.3 -2.89,-0.9 -0.85,-0.68 -1.29,-1.67 -1.29,-2.95 0,-2.26 0.41,-4.23 1.22,-5.92 0.91,-1.89 2.1,-2.83 3.56,-2.83 1.98,0 3.5,1.55 4.58,4.66 0.89,2.57 1.34,5.58 1.34,9.05l0 6.34zm-4 -12.7c-0.22,-0.59 -0.59,-1.18 -1.09,-1.78 -0.68,-0.81 -1.33,-1.22 -1.95,-1.22 -0.43,0 -0.8,0.18 -1.08,0.55 -0.29,0.37 -0.43,0.8 -0.43,1.3 0,1.3 0.72,1.95 2.14,1.95 0.38,0 0.78,-0.07 1.2,-0.22 0.42,-0.15 0.82,-0.34 1.21,-0.58zm0.7 -14.38l-1.88 3.53 -3.92 -2.04 1.79 -3.56 4.01 2.07z"/>
  <path id="15" class="fil0" d="M325.95 39.07l-10.91 0c-0.92,0 -1.75,-0.27 -2.5,-0.81 -0.73,-0.53 -1.1,-1.17 -1.1,-1.9 0,-0.62 0.03,-1.17 0.1,-1.68 0.06,-0.5 0.19,-1.06 0.36,-1.66l0.5 0c0.19,0.67 0.51,1.14 0.98,1.43 0.39,0.24 0.93,0.37 1.61,0.37l9.46 0c0,-2.92 -0.41,-5.26 -1.23,-7.03 -1.01,-2.21 -2.7,-3.68 -5.07,-4.42l0.38 -4.75c2.82,1.39 4.82,3.59 6,6.63 0.94,2.44 1.42,5.63 1.42,9.57l0 4.25z"/>
  <path id="16" class="fil0" d="M338.16 39.07l-13.89 0 0 -4.25 12.14 0c0,-1.92 -0.23,-3.38 -0.69,-4.38 -0.31,-0.7 -1.07,-1.7 -2.31,-3.02l1.93 -4c1.16,1.48 1.88,2.63 2.17,3.47 0.44,1.25 0.65,3.32 0.65,6.22l0 5.96zm-0.25 4.8l-1.8 3.55 -4 -2.05 1.85 -3.55 3.95 2.05zm-5.55 2.25l-1.8 3.5 -3.99 -2.08 1.88 -3.52 3.91 2.1z"/>
  <path id="17" class="fil0" d="M351.57 39.07l-15.1 0 0 -4.25 13 0c0,-1.45 -0.17,-2.81 -0.51,-4.08 -0.84,0.28 -1.49,0.47 -1.94,0.59 -0.75,0.19 -1.41,0.29 -1.98,0.29 -1.17,0 -2.14,-0.3 -2.88,-0.9 -0.86,-0.68 -1.29,-1.67 -1.29,-2.95 0,-2.26 0.41,-4.23 1.22,-5.92 0.9,-1.89 2.1,-2.83 3.55,-2.83 1.99,0 3.51,1.55 4.59,4.66 0.89,2.57 1.34,5.58 1.34,9.05l0 6.34zm-4 -12.7c-0.23,-0.59 -0.59,-1.18 -1.09,-1.78 -0.69,-0.81 -1.34,-1.22 -1.95,-1.22 -0.44,0 -0.8,0.18 -1.09,0.55 -0.28,0.37 -0.42,0.8 -0.42,1.3 0,1.3 0.72,1.95 2.14,1.95 0.38,0 0.78,-0.07 1.19,-0.22 0.43,-0.15 0.83,-0.34 1.22,-0.58zm3.1 -15.1l-1.8 3.55 -4 -2.05 1.85 -3.54 3.95 2.04zm-5.55 2.25l-1.81 3.5 -3.99 -2.07 1.88 -3.53 3.92 2.1z"/>
  <path id="18" class="fil0" d="M395.67 26.69c0,0.52 -0.05,1.06 -0.14,1.61 -0.1,0.54 -0.17,0.93 -0.19,1.15 -0.58,-0.74 -1.25,-1.31 -2.04,-1.74 -0.79,-0.42 -1.59,-0.64 -2.41,-0.64 -1.42,0 -2.91,0.83 -4.46,2.48 -1.44,1.52 -2.15,2.74 -2.15,3.64 0,0.3 0.17,0.54 0.52,0.7 0.35,0.15 0.96,0.23 1.82,0.23l1.95 0c1.18,0 2.05,0.01 2.61,0.03 0.57,0.03 1.24,0.1 2.02,0.24 0.78,0.13 1.17,0.72 1.17,1.77 0,4.07 -1.78,7.17 -5.34,9.29 -3.27,1.94 -7.7,2.91 -13.28,2.91 -2.89,0 -5.1,-0.55 -6.63,-1.68 -1.66,-1.21 -2.49,-3.06 -2.49,-5.51 0,-1.69 0.28,-3.46 0.83,-5.31 0.42,-1.42 1.01,-2.89 1.76,-4.44 0.04,-0.1 0.56,-1.07 1.53,-2.9l1.03 0.42c-1.02,1.81 -1.8,3.51 -2.34,5.1 -0.54,1.57 -0.81,2.97 -0.81,4.19 0,1.98 0.68,3.46 2.06,4.45 1.36,0.99 3.33,1.49 5.88,1.49 1.94,0 4.21,-0.39 6.79,-1.16 2.21,-0.66 4.19,-1.45 5.96,-2.37 1.77,-0.91 2.65,-1.59 2.65,-2.02 0,-0.31 -0.1,-0.51 -0.3,-0.61 -0.2,-0.09 -0.54,-0.14 -1,-0.14l-5.73 0c-0.7,0 -1.31,-0.25 -1.86,-0.76 -0.54,-0.51 -0.8,-1.16 -0.8,-1.96 0,-1.09 0.45,-2.57 1.35,-4.45 0.97,-2.04 2.15,-3.74 3.55,-5.11 1.66,-1.64 3.34,-2.47 5.02,-2.47 1.07,0 1.92,0.33 2.54,0.98 0.62,0.65 0.93,1.51 0.93,2.59zm-9.24 24.12l-1.8 3.55 -4 -2.05 1.85 -3.54 3.95 2.04zm-5.55 2.25l-1.81 3.5 -3.99 -2.07 1.88 -3.53 3.92 2.1z"/>
  <path id="19" class="fil0" d="M405.58 32.84c0,1.3 -0.24,2.56 -0.72,3.78 -0.25,0.65 -0.78,1.68 -1.61,3.1l-0.44 -0.24c0.06,-0.48 0.11,-1.02 0.15,-1.65 0.05,-0.61 0.07,-1.03 0.07,-1.24 0,-1.69 -0.13,-4.05 -0.4,-7.09 -0.28,-3.03 -0.59,-6.2 -0.97,-9.5 -0.23,-2 -0.48,-4.04 -0.75,-6.13 0.32,-0.71 0.69,-1.48 1.11,-2.31 0.42,-0.83 0.81,-1.6 1.18,-2.33 0.26,1.84 0.6,4.39 1,7.6 0.4,3.23 0.71,6.12 0.94,8.72 0.29,3.21 0.44,5.64 0.44,7.29zm0.7 -26.58c0,0.42 -0.25,0.78 -0.76,1.11 -0.34,0.21 -0.86,0.44 -1.54,0.68l-4.55 1.57c0,-0.75 0.82,-1.41 2.47,-1.99 -0.51,-0.26 -0.9,-0.51 -1.15,-0.75 -0.35,-0.32 -0.52,-0.65 -0.52,-1 0,-0.5 0.43,-1.21 1.3,-2.13 0.97,-1.02 1.82,-1.52 2.55,-1.52 0.32,0 0.61,0.11 0.84,0.33 0.24,0.23 0.36,0.52 0.36,0.88 0,0.24 -0.05,0.47 -0.15,0.71 -0.09,0.23 -0.23,0.51 -0.42,0.8 -0.5,-0.45 -1.05,-0.67 -1.64,-0.67 -0.36,0 -0.72,0.07 -1.07,0.21 -0.34,0.15 -0.52,0.32 -0.52,0.51 0,0.24 0.37,0.58 1.13,0.99 0.76,0.43 1.4,0.64 1.94,0.64 0.35,0 0.61,-0.01 0.77,-0.04 0.15,-0.02 0.48,-0.13 0.96,-0.33z"/>
  <path id="20" class="fil0" d="M434.61 31.84c0,2.3 -0.37,4.03 -1.12,5.19 -1.15,1.79 -3.27,2.69 -6.33,2.69 -1.19,0 -2.17,-0.24 -2.95,-0.71 -0.89,-0.54 -1.34,-1.31 -1.34,-2.3 0,-1.14 0.28,-2.46 0.85,-3.96 0.53,-1.26 1.05,-2.55 1.6,-3.83l-0.37 -0.1 1.49 -4.15c2.93,1.55 4.69,2.53 5.26,2.93 1.94,1.38 2.91,2.79 2.91,4.24zm-2.1 1.9c0,-0.61 -0.89,-1.43 -2.68,-2.45 -0.76,-0.44 -1.58,-0.88 -2.46,-1.3 -0.74,0.8 -1.17,1.3 -1.32,1.49 -0.46,0.63 -0.68,1.23 -0.68,1.81 0,0.82 0.23,1.47 0.69,1.94 0.46,0.46 1.09,0.69 1.87,0.69 0.91,0 1.9,-0.26 2.98,-0.77 1.07,-0.51 1.6,-0.98 1.6,-1.41z"/>
  <path id="21" class="fil0" d="M455.58 26.29c0,0.32 -0.01,0.6 -0.05,0.82 -0.03,0.24 -0.1,0.52 -0.24,0.86 -0.91,-2.03 -2.26,-4.12 -4.05,-6.29 -1.98,-2.38 -3.54,-3.58 -4.67,-3.58 -0.25,0 -0.49,0.21 -0.73,0.64 -0.25,0.42 -0.53,0.63 -0.85,0.63 -0.45,0 -1.14,-0.28 -2.08,-0.86 -1.18,-0.71 -2.14,-1.55 -2.85,-2.49 -0.96,-1.27 -1.44,-2.62 -1.44,-4.05 0,-1.03 0.33,-1.54 1,-1.54 1.17,0 3,0.74 5.48,2.22 2.79,1.64 5.12,3.56 7,5.76 2.33,2.68 3.48,5.3 3.48,7.88zm10.13 12.78l-1.5 0c-1.37,0 -2.47,-0.74 -3.31,-2.22 -0.99,-1.78 -1.49,-4.49 -1.49,-8.1 0,-0.26 -0.04,-0.61 -0.09,-1.05 -0.06,-0.44 -0.09,-0.71 -0.09,-0.83 -1.55,4.33 -2.95,7.31 -4.16,8.92 -1.44,1.88 -3.48,3.13 -6.11,3.74 -2.24,0.53 -6.05,0.79 -11.44,0.79l0 -0.7c4.37,-1.32 7.62,-2.45 9.76,-3.41 3.45,-1.53 6.07,-3.29 7.85,-5.29 2.16,-2.4 3.24,-5.25 3.24,-8.55 0,-1.59 -0.1,-3.08 -0.3,-4.46 -0.2,-1.38 -0.48,-2.79 -0.83,-4.24l0.8 -2.06c0.33,-0.8 0.63,-1.48 0.9,-2.03 0.43,2.34 0.83,4.87 1.21,7.58 0.27,1.87 0.52,3.88 0.77,6.03 0.3,2.63 0.58,4.75 0.8,6.36 0.29,2.05 0.74,3.51 1.33,4.39 0.39,0.59 0.78,0.88 1.17,0.88l1.49 0 0 4.25z"/>
  <path id="22" class="fil0" d="M489.19 31.42l-1.68 4.45c-2.46,0.9 -5.3,1.66 -8.52,2.27 -3.24,0.62 -6.2,0.93 -8.92,0.93l-6.07 0 0 -4.25 5.85 0c-0.48,-0.77 -0.86,-1.63 -1.16,-2.6 -0.29,-0.97 -0.44,-1.91 -0.44,-2.82 0,-1.91 0.8,-3.53 2.4,-4.83 1.6,-1.3 3.66,-1.95 6.19,-1.95 2,0 3.65,0.48 4.95,1.46 0.55,0.41 1.49,1.4 2.8,2.99l-0.46 0.4c-1.12,-0.3 -2.13,-0.52 -3.02,-0.67 -0.89,-0.15 -1.82,-0.23 -2.77,-0.23 -2.25,0 -4,0.25 -5.28,0.74 -1.27,0.5 -1.91,1.15 -1.91,1.97 0,0.79 0.4,1.68 1.2,2.66 0.8,0.99 1.84,1.86 3.11,2.63 2.67,-0.41 4.85,-0.81 6.56,-1.19 1.71,-0.39 4.1,-1.04 7.17,-1.96z"/>
  <path id="23" class="fil0" d="M500.23 32.84c0,1.3 -0.24,2.56 -0.72,3.78 -0.25,0.65 -0.78,1.68 -1.6,3.1l-0.45 -0.24c0.06,-0.48 0.11,-1.02 0.15,-1.65 0.05,-0.61 0.07,-1.03 0.07,-1.24 0,-1.69 -0.13,-4.05 -0.4,-7.09 -0.27,-3.03 -0.59,-6.2 -0.97,-9.5 -0.23,-2 -0.48,-4.04 -0.75,-6.13 0.32,-0.71 0.7,-1.48 1.11,-2.31 0.42,-0.83 0.81,-1.6 1.19,-2.33 0.25,1.84 0.59,4.39 0.99,7.6 0.4,3.23 0.71,6.12 0.94,8.72 0.29,3.21 0.44,5.64 0.44,7.29zm0.7 -26.58c0,0.42 -0.25,0.78 -0.76,1.11 -0.34,0.21 -0.86,0.44 -1.54,0.68l-4.55 1.57c0,-0.75 0.83,-1.41 2.47,-1.99 -0.51,-0.26 -0.89,-0.51 -1.15,-0.75 -0.34,-0.32 -0.52,-0.65 -0.52,-1 0,-0.5 0.43,-1.21 1.3,-2.13 0.97,-1.02 1.82,-1.52 2.55,-1.52 0.33,0 0.61,0.11 0.84,0.33 0.24,0.23 0.36,0.52 0.36,0.88 0,0.24 -0.05,0.47 -0.15,0.71 -0.09,0.23 -0.23,0.51 -0.42,0.8 -0.5,-0.45 -1.05,-0.67 -1.64,-0.67 -0.36,0 -0.71,0.07 -1.06,0.21 -0.35,0.15 -0.53,0.32 -0.53,0.51 0,0.24 0.38,0.58 1.13,0.99 0.76,0.43 1.4,0.64 1.94,0.64 0.36,0 0.61,-0.01 0.77,-0.04 0.15,-0.02 0.48,-0.13 0.96,-0.33z"/>
  <path id="24" class="fil0" d="M534.96 39.07l-3.49 0c-1.16,0 -2.2,-1 -3.1,-2.99 -0.66,-1.5 -1.2,-3.43 -1.6,-5.78 -0.49,0.91 -1.11,1.61 -1.85,2.12 -0.75,0.5 -1.54,0.75 -2.37,0.75 -1.87,0 -3.42,-0.13 -4.67,-0.38 -1.24,-0.25 -1.86,-0.57 -1.86,-0.96 0,-1.4 0.91,-2.95 2.72,-4.65 1.81,-1.7 4.08,-3.19 6.8,-4.46 -0.03,-0.13 -0.1,-0.47 -0.21,-1.02 -0.11,-0.55 -0.16,-0.89 -0.16,-1.02 0,-0.56 0.19,-1.17 0.57,-1.85 0.32,-0.56 0.73,-1.12 1.25,-1.71 0.17,1.01 0.33,1.99 0.5,2.93 0.18,0.94 0.37,1.91 0.6,2.92l0.73 4.19c0.4,2.31 0.77,4.02 1.09,5.13 0.51,1.69 1.03,2.53 1.57,2.53l3.48 0 0 4.25zm-8.52 -10.89l-0.47 -2.66c-1.4,0.51 -2.51,1.03 -3.32,1.58 -0.81,0.54 -1.48,1.26 -2.03,2.15 0.34,0.15 0.73,0.27 1.19,0.34 0.45,0.09 1.07,0.13 1.87,0.13 0.96,0 1.89,-0.52 2.76,-1.54z"/>
  <path id="25" class="fil0" d="M547.16 39.07l-13.9 0 0 -4.25 12.15 0c0,-1.92 -0.23,-3.38 -0.69,-4.38 -0.31,-0.7 -1.07,-1.7 -2.31,-3.02l1.93 -4c1.15,1.48 1.88,2.63 2.17,3.47 0.43,1.25 0.65,3.32 0.65,6.22l0 5.96zm-0.15 -24.15l-1.8 3.55 -4 -2.05 1.85 -3.55 3.95 2.05zm-5.55 2.25l-1.81 3.5 -3.99 -2.07 1.89 -3.53 3.91 2.1z"/>
  <path id="26" class="fil0" d="M559.37 39.07l-13.9 0 0 -4.25 12.15 0c0,-1.92 -0.24,-3.38 -0.7,-4.38 -0.3,-0.7 -1.07,-1.7 -2.3,-3.02l1.92 -4c1.16,1.48 1.88,2.63 2.18,3.47 0.43,1.25 0.65,3.32 0.65,6.22l0 5.96zm-0.25 4.8l-1.8 3.55 -4 -2.05 1.85 -3.55 3.95 2.05zm-5.55 2.25l-1.81 3.5 -3.99 -2.08 1.88 -3.52 3.92 2.1z"/>
  <path id="27" class="fil0" d="M580.97 37.55c0,2.7 -0.99,5.38 -2.98,8.05 -2.21,2.97 -4.77,4.47 -7.67,4.47 -1.07,0 -2.18,-0.13 -3.32,-0.37 -0.84,-0.18 -1.92,-0.49 -3.25,-0.92 -1.06,-0.37 -2.12,-0.73 -3.18,-1.09l0.42 -0.86c0.91,0.21 1.87,0.44 2.87,0.68 1,0.24 1.9,0.36 2.7,0.36 1.98,0 3.86,-0.51 5.63,-1.53 1.39,-0.81 2.77,-1.97 4.15,-3.5 0.7,-0.77 1.7,-2.03 2.98,-3.77 -2.2,0 -3.85,-0.35 -4.94,-1.06 -1.24,-0.8 -1.86,-2.12 -1.86,-3.95 0,-1.68 0.39,-3.25 1.17,-4.69 0.92,-1.67 2.08,-2.5 3.48,-2.5 1.42,0 2.44,0.83 3.06,2.48 0.5,1.29 0.74,3.09 0.74,5.4l0 2.8zm-1.55 -2.68c-0.36,-1.58 -0.79,-2.66 -1.3,-3.27 -0.43,-0.52 -0.98,-0.78 -1.61,-0.78 -0.46,0 -0.86,0.15 -1.19,0.45 -0.33,0.31 -0.5,0.68 -0.5,1.14 0,0.81 0.36,1.42 1.07,1.83 0.72,0.42 1.9,0.63 3.53,0.63z"/>
  <path id="28" class="fil0" d="M600.22 34.94c0,0.94 -0.29,1.99 -0.87,3.14 -0.64,1.26 -1.27,1.89 -1.9,1.89 -0.66,0 -1.9,-0.43 -3.72,-1.27 -1.66,-0.77 -3.08,-1.54 -4.23,-2.28 -1.89,1.06 -3.27,1.76 -4.14,2.06 -1.1,0.4 -2.39,0.59 -3.88,0.59l-2.2 0 0 -4.25 2.21 0c0.67,0 1.32,-0.05 1.94,-0.16 0.63,-0.11 1.47,-0.3 2.54,-0.57 -0.43,-0.31 -0.84,-0.64 -1.26,-0.96 -0.46,-0.41 -0.68,-0.81 -0.68,-1.2 0,-0.28 0,-0.49 0.03,-0.62 0.02,-0.12 0.13,-0.37 0.33,-0.73l2.41 -4.24c0.32,-0.58 0.62,-0.97 0.88,-1.19 0.27,-0.22 0.64,-0.4 1.11,-0.53 -1.12,-0.76 -1.68,-1.31 -1.68,-1.62 0,-0.33 0.36,-1.16 1.07,-2.51 0.25,-0.45 0.62,-1.13 1.12,-2.02 1.04,0.99 2.34,2.44 3.92,4.33 1.99,2.37 3.56,4.5 4.72,6.37 1.52,2.47 2.28,4.4 2.28,5.77zm-8.55 -5.32c0,-0.7 -0.15,-1.26 -0.44,-1.67 -0.34,-0.49 -0.88,-0.73 -1.63,-0.73 -0.75,0 -1.45,0.25 -2.1,0.75 -0.65,0.5 -0.97,1.1 -0.97,1.8 0,0.67 0.99,1.55 2.97,2.65 0.7,-0.46 1.22,-0.9 1.57,-1.33 0.4,-0.49 0.6,-0.98 0.6,-1.47zm5.9 5.59c0,-0.57 -0.46,-1.45 -1.38,-2.66 -0.58,-0.76 -1.28,-1.57 -2.12,-2.44 0,0.8 -0.16,1.55 -0.5,2.24 -0.32,0.7 -0.79,1.24 -1.39,1.61 0.98,0.5 1.97,0.99 2.97,1.47 0.81,0.36 1.4,0.54 1.74,0.54 0.19,0 0.36,-0.08 0.48,-0.22 0.14,-0.15 0.2,-0.32 0.2,-0.54z"/>
  <path id="29" class="fil0" d="M653.01 39.07l-23.29 0c-3.12,0 -5.6,-0.54 -7.46,-1.63 -2.33,-1.38 -3.49,-3.51 -3.49,-6.43 0,-1.51 0.34,-3.06 1.02,-4.64 0.24,-0.57 0.83,-1.66 1.75,-3.25l0.73 0.47c-0.36,0.75 -0.71,1.49 -1.04,2.24 -0.48,1.16 -0.71,2.19 -0.71,3.11 0,1.91 1.01,3.4 3.02,4.46 1.81,0.94 4.09,1.42 6.86,1.42l20.66 0 0 -0.66c0,-1.82 -0.22,-3.31 -0.66,-4.45 -0.44,-1.15 -1.18,-2.12 -2.24,-2.94l1.87 -4c0.73,0.89 1.16,1.46 1.3,1.68 1.12,1.83 1.68,4.49 1.68,7.97l0 6.65zm-11.5 -22.25l-1.8 3.55 -4 -2.05 1.85 -3.55 3.95 2.05zm-5.55 2.25l-1.8 3.5 -4 -2.07 1.89 -3.53 3.91 2.1z"/>
  <path id="30" class="fil0" d="M664.52 39.07l-3.43 0c-1.12,0 -2.01,-0.45 -2.67,-1.34 -0.6,-0.79 -1.05,-1.94 -1.35,-3.49 -0.3,-1.55 -0.53,-3.45 -0.7,-5.71 -0.09,-1.83 -0.19,-3.72 -0.3,-5.66 -0.1,-1.93 -0.24,-3.4 -0.41,-4.4 -0.18,-1 -0.41,-1.81 -0.7,-2.45 -0.35,-0.78 -0.85,-1.46 -1.48,-2.05l2.97 -4.74c0.65,1.95 1.11,4.28 1.37,6.99 0.17,1.7 0.34,5.7 0.5,12.01 0.3,2.9 0.72,4.75 1.28,5.56 0.46,0.69 0.96,1.03 1.49,1.03l3.43 0 0 4.25z"/>
  <path id="31" class="fil0" d="M684.19 39.07l-2.53 0c-1.09,0 -2.32,-0.25 -3.68,-0.74 -1.58,-0.57 -2.96,-1.36 -4.17,-2.36 -0.94,1.17 -1.91,1.97 -2.89,2.42 -0.98,0.45 -2.42,0.68 -4.31,0.68l-3.81 0 0 -4.25 3.73 0c1.48,0 2.8,-0.38 3.95,-1.13 0.9,-0.59 1.71,-1.4 2.44,-2.47 0.99,-1.43 2.22,-2.68 3.67,-3.74 1.3,-0.94 2.49,-1.55 3.58,-1.81 1.12,1.71 2.01,3.25 2.68,4.62 0.89,1.86 1.34,3.37 1.34,4.52l0 4.26zm-2.8 -4.82c-0.21,-0.95 -0.53,-1.88 -0.97,-2.8 -0.38,-0.77 -0.88,-1.56 -1.49,-2.38 -0.78,0.2 -1.44,0.57 -1.97,1.11 -0.36,0.34 -0.78,0.92 -1.27,1.74 0.59,0.64 1.41,1.21 2.48,1.72 1.06,0.5 2.07,0.81 3.01,0.93l0.21 -0.32z"/>
  <path id="32" class="fil0" d="M705.79 37.55c0,2.7 -1,5.38 -2.99,8.05 -2.2,2.97 -4.76,4.47 -7.66,4.47 -1.08,0 -2.18,-0.13 -3.32,-0.37 -0.84,-0.18 -1.92,-0.49 -3.25,-0.92 -1.06,-0.37 -2.12,-0.73 -3.18,-1.09l0.42 -0.86c0.91,0.21 1.86,0.44 2.86,0.68 1,0.24 1.9,0.36 2.7,0.36 1.99,0 3.87,-0.51 5.64,-1.53 1.39,-0.81 2.77,-1.97 4.15,-3.5 0.7,-0.77 1.69,-2.03 2.98,-3.77 -2.2,0 -3.85,-0.35 -4.94,-1.06 -1.24,-0.8 -1.86,-2.12 -1.86,-3.95 0,-1.68 0.39,-3.25 1.17,-4.69 0.92,-1.67 2.08,-2.5 3.48,-2.5 1.42,0 2.44,0.83 3.06,2.48 0.49,1.29 0.74,3.09 0.74,5.4l0 2.8zm-1.55 -2.68c-0.36,-1.58 -0.79,-2.66 -1.3,-3.27 -0.44,-0.52 -0.98,-0.78 -1.61,-0.78 -0.46,0 -0.86,0.15 -1.19,0.45 -0.34,0.31 -0.5,0.68 -0.5,1.14 0,0.81 0.36,1.42 1.07,1.83 0.72,0.42 1.89,0.63 3.53,0.63z"/>
  <path id="33" class="fil0" d="M716.14 39.07l-12.04 0 0 -4.25 9.59 0 -3 -20.76 -1.25 -0.6c0,-1.12 0.1,-2.17 0.3,-3.15 0.2,-0.98 0.49,-1.93 0.88,-2.85l0.37 0.27c0,0.94 0.54,1.65 1.61,2.12 0.82,0.33 1.65,0.65 2.49,0.97 0,0.81 -0.06,1.67 -0.2,2.59 -0.12,0.92 -0.28,1.61 -0.46,2.06l-1.19 -0.4 2.9 19.21 0 4.79z"/>
  <path id="34" class="fil0" d="M735.84 39.07l-3.59 0c-1.05,0 -2.12,-0.25 -3.21,-0.76 -1.3,-0.6 -2.24,-1.44 -2.83,-2.52 -1.09,0.99 -2.34,1.74 -3.74,2.28 -1.7,0.66 -3.64,1 -5.83,1l-2.2 0 0 -4.25 2.2 0c1.37,0 2.64,-0.15 3.82,-0.44 1.33,-0.34 2.65,-0.88 3.93,-1.63l-1.03 -1.31c-0.53,-0.61 -1.12,-0.92 -1.77,-0.92 -0.3,0 -0.56,0.05 -0.79,0.16 -0.22,0.11 -0.48,0.33 -0.76,0.69l-0.5 0 0 -1.44c0,-1.8 0.48,-3.03 1.42,-3.7 0.86,-0.61 2.35,-0.91 4.48,-0.91 1.83,0 3.33,0.24 4.48,0.73 1.51,0.64 2.27,1.62 2.27,2.94 0,0.7 -0.3,1.42 -0.9,2.17 -0.43,0.55 -1.23,1.32 -2.4,2.3 0.26,0.38 0.76,0.71 1.5,0.97 0.74,0.26 1.36,0.39 1.86,0.39l3.59 0 0 4.25z"/>
  <path id="35" class="fil0" d="M755.53 39.07l-2.53 0c-1.09,0 -2.32,-0.25 -3.68,-0.74 -1.58,-0.57 -2.96,-1.36 -4.17,-2.36 -0.94,1.17 -1.91,1.97 -2.89,2.42 -0.98,0.45 -2.42,0.68 -4.32,0.68l-3.8 0 0 -4.25 3.73 0c1.48,0 2.8,-0.38 3.95,-1.13 0.9,-0.59 1.71,-1.4 2.44,-2.47 0.99,-1.43 2.22,-2.68 3.67,-3.74 1.3,-0.94 2.49,-1.55 3.58,-1.81 1.12,1.71 2.01,3.25 2.68,4.62 0.89,1.86 1.34,3.37 1.34,4.52l0 4.26zm-2.8 -4.82c-0.21,-0.95 -0.53,-1.88 -0.97,-2.8 -0.38,-0.77 -0.88,-1.56 -1.49,-2.38 -0.78,0.2 -1.44,0.57 -1.97,1.11 -0.36,0.34 -0.78,0.92 -1.27,1.74 0.59,0.64 1.41,1.21 2.48,1.72 1.06,0.5 2.06,0.81 3.01,0.93l0.21 -0.32z"/>
  <path id="36" class="fil0" d="M793.86 39.06c0,1.79 -0.76,3.65 -2.29,5.57 -1.34,1.69 -3,3.15 -4.99,4.38 -1.88,1.17 -3.44,1.75 -4.66,1.75 -1.13,0 -2.34,-0.16 -3.64,-0.49 -1,-0.24 -2.19,-0.63 -3.57,-1.16 -1.17,-0.44 -2.33,-0.88 -3.49,-1.32l0.42 -0.97c1.07,0.21 2.19,0.43 3.35,0.65 1.17,0.23 2.23,0.35 3.17,0.35 2.08,0 4.26,-0.67 6.52,-2 2.06,-1.23 3.81,-2.77 5.26,-4.64 1.45,-1.86 2.17,-3.54 2.17,-5.04 0,-1.29 -0.37,-2.64 -1.11,-4.05 -0.6,-1.15 -1.45,-2.31 -2.53,-3.52l1.37 -3.85c1.33,1.24 2.32,2.48 2.95,3.72 0.72,1.4 1.07,2.96 1.07,4.69l0 5.93z"/>
  <path id="37" class="fil0" d="M815.45 37.55c0,2.7 -0.99,5.38 -2.98,8.05 -2.21,2.97 -4.77,4.47 -7.67,4.47 -1.07,0 -2.18,-0.13 -3.32,-0.37 -0.83,-0.18 -1.92,-0.49 -3.25,-0.92 -1.06,-0.37 -2.12,-0.73 -3.17,-1.09l0.41 -0.86c0.91,0.21 1.87,0.44 2.87,0.68 1,0.24 1.9,0.36 2.7,0.36 1.98,0 3.86,-0.51 5.64,-1.53 1.38,-0.81 2.76,-1.97 4.15,-3.5 0.7,-0.77 1.69,-2.03 2.97,-3.77 -2.2,0 -3.85,-0.35 -4.94,-1.06 -1.24,-0.8 -1.86,-2.12 -1.86,-3.95 0,-1.68 0.39,-3.25 1.18,-4.69 0.91,-1.67 2.07,-2.5 3.47,-2.5 1.43,0 2.44,0.83 3.07,2.48 0.49,1.29 0.73,3.09 0.73,5.4l0 2.8zm-1.55 -2.68c-0.36,-1.58 -0.79,-2.66 -1.3,-3.27 -0.43,-0.52 -0.97,-0.78 -1.61,-0.78 -0.45,0 -0.86,0.15 -1.19,0.45 -0.33,0.31 -0.5,0.68 -0.5,1.14 0,0.81 0.36,1.42 1.08,1.83 0.71,0.42 1.89,0.63 3.52,0.63z"/>
  <path id="38" class="fil0" d="M835.15 39.07l-21.39 0 0 -4.25 18.57 0c-1.14,-1.73 -2.44,-3.23 -3.91,-4.5 -1.46,-1.27 -3.45,-2.66 -5.94,-4.13l-0.81 0.76 -2.89 -2.2c-1.01,-0.85 -1.52,-1.5 -1.52,-1.98 0,-2.8 0.68,-5 2.06,-6.6 1.27,-1.46 3.46,-2.79 6.58,-3.95l6.91 -2.69 0 4.24 -5.11 1.71c-2.04,0.67 -3.69,1.28 -4.94,1.83 -1.6,0.7 -2.4,1.24 -2.4,1.61 0,0.37 0.52,0.95 1.56,1.73 0.65,0.49 1.31,0.97 1.98,1.46 2.47,1.87 4.63,3.84 6.47,5.88 1.99,2.2 3.58,4.47 4.78,6.83l0 4.25z"/>
  <path id="39" class="fil0" d="M852 39.07l-10.91 0c-0.92,0 -1.75,-0.27 -2.5,-0.81 -0.73,-0.53 -1.1,-1.17 -1.1,-1.9 0,-0.62 0.03,-1.17 0.1,-1.68 0.06,-0.5 0.19,-1.06 0.36,-1.66l0.5 0c0.19,0.67 0.51,1.14 0.98,1.43 0.39,0.24 0.93,0.37 1.61,0.37l9.46 0c0,-2.92 -0.41,-5.26 -1.23,-7.03 -1.01,-2.21 -2.7,-3.68 -5.07,-4.42l0.38 -4.75c2.82,1.39 4.82,3.59 6,6.63 0.94,2.44 1.42,5.63 1.42,9.57l0 4.25zm-6.5 -28.73l-1.88 3.53 -3.92 -2.04 1.79 -3.55 4.01 2.06z"/>
  <path id="40" class="fil0" d="M871.71 39.07l-2.53 0c-1.09,0 -2.32,-0.25 -3.68,-0.74 -1.58,-0.57 -2.96,-1.36 -4.17,-2.36 -0.94,1.17 -1.91,1.97 -2.89,2.42 -0.98,0.45 -2.42,0.68 -4.32,0.68l-3.8 0 0 -4.25 3.73 0c1.48,0 2.8,-0.38 3.95,-1.13 0.9,-0.59 1.71,-1.4 2.44,-2.47 0.99,-1.43 2.21,-2.68 3.66,-3.74 1.3,-0.94 2.5,-1.55 3.59,-1.81 1.12,1.71 2.01,3.25 2.68,4.62 0.89,1.86 1.34,3.37 1.34,4.52l0 4.26zm-2.8 -4.82c-0.21,-0.95 -0.53,-1.88 -0.97,-2.8 -0.38,-0.77 -0.88,-1.56 -1.49,-2.38 -0.78,0.2 -1.44,0.57 -1.97,1.11 -0.36,0.34 -0.78,0.92 -1.27,1.74 0.59,0.64 1.41,1.21 2.48,1.72 1.06,0.5 2.06,0.81 3,0.93l0.22 -0.32z"/>
  <path id="41" class="fil0" d="M882.06 39.07l-12.05 0 0 -4.25 9.6 0 -3 -20.76 -1.25 -0.6c0,-1.12 0.1,-2.17 0.29,-3.15 0.2,-0.98 0.49,-1.93 0.88,-2.85l0.38 0.27c0,0.94 0.53,1.65 1.61,2.12 0.81,0.33 1.65,0.65 2.49,0.97 0,0.81 -0.07,1.67 -0.2,2.59 -0.13,0.92 -0.28,1.61 -0.47,2.06l-1.18 -0.4 2.9 19.21 0 4.79z"/>
  <path id="42" class="fil0" d="M890.31 32.84c0,1.3 -0.25,2.56 -0.72,3.78 -0.25,0.65 -0.78,1.68 -1.61,3.1l-0.44 -0.24c0.06,-0.48 0.11,-1.02 0.15,-1.65 0.04,-0.61 0.07,-1.03 0.07,-1.24 0,-1.69 -0.14,-4.05 -0.4,-7.09 -0.28,-3.03 -0.6,-6.2 -0.97,-9.5 -0.23,-2 -0.48,-4.04 -0.76,-6.13 0.33,-0.71 0.7,-1.48 1.12,-2.31 0.41,-0.83 0.81,-1.6 1.18,-2.33 0.26,1.84 0.59,4.39 0.99,7.6 0.4,3.23 0.72,6.12 0.94,8.72 0.3,3.21 0.45,5.64 0.45,7.29z"/>
  <path id="43" class="fil0" d="M961.18 39.07l-28.99 0c-0.49,3.38 -1.66,5.91 -3.52,7.6 -2.31,2.1 -5.84,3.14 -10.57,3.14 -3.26,0 -5.75,-0.56 -7.47,-1.7 -1.9,-1.26 -2.84,-3.18 -2.84,-5.77 0,-1.4 0.18,-2.81 0.52,-4.25 0.34,-1.43 0.81,-2.87 1.39,-4.32 0.37,-0.88 0.98,-2.23 1.87,-4.05l0.97 0.44c-1.13,2.34 -1.88,4.18 -2.25,5.53 -0.36,1.35 -0.55,2.59 -0.55,3.71 0,2.02 0.72,3.54 2.16,4.59 1.44,1.05 3.5,1.58 6.17,1.58 3.13,0 5.92,-0.55 8.38,-1.64 3.05,-1.34 4.59,-3.22 4.59,-5.64 0,-1.61 -0.3,-3.16 -0.9,-4.61 -0.48,-1.15 -1.14,-2.26 -2,-3.31l2.02 -5c0.8,1.33 1.34,2.51 1.63,3.53 0.4,1.44 0.6,3.42 0.6,5.92l0.44 0c1.93,0 3.73,-0.31 5.4,-0.93 1.43,-0.54 2.93,-1.38 4.51,-2.53 2.41,-1.67 3.85,-2.67 4.33,-2.97 1.33,-0.85 2.53,-1.45 3.59,-1.81 1.2,-0.41 2.53,-0.61 3.97,-0.61 2.23,0 3.9,0.64 5.01,1.93 1.02,1.19 1.54,2.85 1.54,4.99l0 6.18zm-3.95 -6.13c0,-0.79 -0.5,-1.4 -1.5,-1.85 -1,-0.45 -2.16,-0.67 -3.51,-0.67 -1.16,0 -2.47,0.26 -3.92,0.77 -1.03,0.38 -2.33,0.97 -3.91,1.78 -1.19,0.62 -2.36,1.23 -3.54,1.85l11.26 0c1.56,0 2.8,-0.16 3.73,-0.48 0.92,-0.31 1.39,-0.78 1.39,-1.4z"/>
  <path id="44" class="fil0" d="M987.68 39.07l-28.19 0 0 -4.25 19.89 0c-1.65,-1.29 -3.05,-2.29 -4.2,-3.01 -1.41,-0.9 -2.7,-1.55 -3.88,-1.96 -1.31,-0.45 -2.65,-0.68 -4,-0.68 -0.83,0 -1.66,0.06 -2.51,0.18 0.47,-1.2 1.09,-2.17 1.85,-2.9 1.11,-1.05 2.5,-1.58 4.2,-1.58 1.66,0 3.62,0.82 5.89,2.44 1.11,0.81 2.95,2.36 5.49,4.63 1.96,1.77 3.3,2.73 4,2.88l1.46 0 0 4.25zm-11.75 -22.73l-1.88 3.53 -3.91 -2.04 1.79 -3.56 4 2.07z"/>
  <path id="45" class="fil0" d="M1014.22 39.07l-1.87 0c-1.03,0 -1.92,-0.14 -2.66,-0.43 -0.75,-0.28 -1.42,-0.69 -2.04,-1.2 -0.77,0.59 -1.43,0.99 -2.01,1.19 -0.83,0.29 -1.97,0.44 -3.43,0.44l-1.59 0c-0.85,0 -1.7,-0.17 -2.55,-0.49 -0.55,-0.21 -1.24,-0.56 -2.06,-1.05 -0.78,0.59 -1.5,0.99 -2.15,1.2 -0.65,0.23 -1.7,0.34 -3.17,0.34l-4.72 0 0 -4.25 4.73 0c1.31,0 2.26,-0.12 2.84,-0.34 0.94,-0.38 1.41,-1.13 1.41,-2.24 0,-0.48 -0.02,-0.95 -0.07,-1.42 -0.04,-0.48 -0.13,-1 -0.26,-1.58l0.98 -1.47c0.45,1.5 0.83,2.58 1.13,3.27 0.52,1.19 1.1,2.08 1.72,2.68 0.75,0.73 1.65,1.1 2.7,1.1l1.65 0c1.24,0 2.14,-0.18 2.73,-0.56 0.65,-0.42 0.99,-1.1 0.99,-2.02 0,-0.51 -0.04,-1 -0.09,-1.47 -0.07,-0.48 -0.15,-0.98 -0.26,-1.53l0.97 -1.47 0.51 2.3c0.44,1.81 0.98,3.07 1.61,3.77 0.56,0.62 1.3,0.93 2.25,0.93 0.43,0 0.79,-0.13 1.06,-0.41 0.26,-0.27 0.4,-0.62 0.4,-1.04 0,-0.92 -0.34,-1.88 -1,-2.9 -0.12,-0.17 -0.52,-0.7 -1.2,-1.6l1.57 -2.65c0.66,1.01 1.11,1.88 1.35,2.62 0.35,1.1 0.53,2.58 0.53,4.41l0 5.87zm-7 -26.5l-1.88 3.55 -3.92 -2.09 1.81 -3.56 3.99 2.1zm4.75 4.33l-1.89 3.52 -3.91 -2.1 1.81 -3.5 3.99 2.08zm-5.55 2.22l-1.85 3.55 -3.95 -2.05 1.8 -3.55 4 2.05z"/>
  <path id="46" class="fil0" d="M1024.56 39.07l-12.05 0 0 -4.25 9.6 0 -3 -20.76 -1.25 -0.6c0,-1.12 0.1,-2.17 0.29,-3.15 0.2,-0.98 0.49,-1.93 0.88,-2.85l0.38 0.27c0,0.94 0.53,1.65 1.6,2.12 0.82,0.33 1.65,0.65 2.5,0.97 0,0.81 -0.07,1.67 -0.2,2.59 -0.13,0.92 -0.29,1.61 -0.47,2.06l-1.18 -0.4 2.9 19.21 0 4.79z"/>
  <path id="47" class="fil0" d="M1034.9 39.07l-12.04 0 0 -4.25 9.59 0 -3 -20.76 -1.25 -0.6c0,-1.12 0.1,-2.17 0.3,-3.15 0.2,-0.98 0.49,-1.93 0.88,-2.85l0.37 0.27c0,0.94 0.54,1.65 1.61,2.12 0.82,0.33 1.65,0.65 2.49,0.97 0,0.81 -0.06,1.67 -0.2,2.59 -0.12,0.92 -0.28,1.61 -0.46,2.06l-1.19 -0.4 2.9 19.21 0 4.79z"/>
  <path id="48" class="fil0" d="M1065.64 39.07l-10.91 0c-0.92,0 -1.76,-0.27 -2.5,-0.81 -0.73,-0.53 -1.11,-1.17 -1.11,-1.9 0,-0.62 0.04,-1.17 0.1,-1.68 0.07,-0.5 0.2,-1.06 0.37,-1.66l0.5 0c0.18,0.67 0.51,1.14 0.97,1.43 0.4,0.24 0.94,0.37 1.62,0.37l9.46 0c0,-2.92 -0.41,-5.26 -1.23,-7.03 -1.01,-2.21 -2.7,-3.68 -5.07,-4.42l0.37 -4.75c2.83,1.39 4.83,3.59 6,6.63 0.95,2.44 1.43,5.63 1.43,9.57l0 4.25z"/>
  <path id="49" class="fil0" d="M1092.15 39.07l-28.2 0 0 -4.25 19.9 0c-1.66,-1.29 -3.06,-2.29 -4.2,-3.01 -1.42,-0.9 -2.71,-1.55 -3.88,-1.96 -1.32,-0.45 -2.65,-0.68 -4,-0.68 -0.83,0 -1.67,0.06 -2.52,0.18 0.48,-1.2 1.09,-2.17 1.86,-2.9 1.1,-1.05 2.5,-1.58 4.2,-1.58 1.66,0 3.61,0.82 5.88,2.44 1.12,0.81 2.95,2.36 5.49,4.63 1.97,1.77 3.3,2.73 4,2.88l1.47 0 0 4.25zm-12.45 5.26l-1.88 3.54 -3.92 -2.05 1.79 -3.55 4.01 2.06z"/>
  <path id="50" class="fil0" d="M1113.73 37.55c0,2.7 -0.99,5.38 -2.98,8.05 -2.21,2.97 -4.77,4.47 -7.67,4.47 -1.07,0 -2.18,-0.13 -3.32,-0.37 -0.83,-0.18 -1.92,-0.49 -3.25,-0.92 -1.06,-0.37 -2.11,-0.73 -3.17,-1.09l0.41 -0.86c0.91,0.21 1.87,0.44 2.87,0.68 1,0.24 1.9,0.36 2.7,0.36 1.98,0 3.87,-0.51 5.64,-1.53 1.38,-0.81 2.77,-1.97 4.15,-3.5 0.7,-0.77 1.69,-2.03 2.97,-3.77 -2.2,0 -3.85,-0.35 -4.94,-1.06 -1.24,-0.8 -1.86,-2.12 -1.86,-3.95 0,-1.68 0.4,-3.25 1.18,-4.69 0.92,-1.67 2.07,-2.5 3.47,-2.5 1.43,0 2.44,0.83 3.07,2.48 0.49,1.29 0.73,3.09 0.73,5.4l0 2.8zm-1.55 -2.68c-0.36,-1.58 -0.79,-2.66 -1.3,-3.27 -0.43,-0.52 -0.97,-0.78 -1.61,-0.78 -0.45,0 -0.85,0.15 -1.19,0.45 -0.33,0.31 -0.5,0.68 -0.5,1.14 0,0.81 0.36,1.42 1.08,1.83 0.72,0.42 1.89,0.63 3.52,0.63z"/>
  <path id="51" class="fil0" d="M1125.94 39.07l-13.9 0 0 -4.25 12.15 0c0,-1.92 -0.24,-3.38 -0.69,-4.38 -0.31,-0.7 -1.08,-1.7 -2.31,-3.02l1.92 -4c1.16,1.48 1.89,2.63 2.18,3.47 0.43,1.25 0.65,3.32 0.65,6.22l0 5.96zm-0.25 4.8l-1.8 3.55 -4 -2.05 1.85 -3.55 3.95 2.05zm-5.55 2.25l-1.81 3.5 -3.99 -2.08 1.88 -3.52 3.92 2.1z"/>
  <path id="52" class="fil0" d="M1165.18 13.27l-1.17 4.41 -1.43 -0.71 0.05 2.22c0,2.17 -0.28,4.29 -0.84,6.33 -0.6,2.24 -1.55,4.46 -2.86,6.65 0.62,1.14 1.05,2.04 1.29,2.69 0.38,1.02 0.56,2.07 0.56,3.12 0,0.61 -0.02,1.12 -0.05,1.55 -0.03,0.42 -0.11,0.91 -0.22,1.49 -1.72,0.39 -3.56,0.7 -5.51,0.91 -1.96,0.23 -3.87,0.34 -5.72,0.34 0.02,-0.31 0.03,-0.58 0.03,-0.79 0.08,-1.24 0.27,-2.4 0.58,-3.45 2.76,-1.49 5.09,-3.4 6.99,-5.76 -1.14,-2.15 -1.97,-3.67 -2.48,-4.57 -0.58,-0.97 -1.54,-2.49 -2.91,-4.55 -0.5,-0.7 -0.95,-1.26 -1.34,-1.69 -0.54,-0.56 -0.96,-0.85 -1.27,-0.85 -0.21,0 -0.56,0.12 -1.05,0.37 -0.26,0.13 -0.47,0.19 -0.66,0.19 -0.35,0 -0.91,-0.36 -1.68,-1.07 -0.67,-0.64 -1.36,-1.42 -2.09,-2.34 -0.59,-0.75 -0.99,-1.38 -1.2,-1.88 -0.21,-0.49 -0.32,-1.09 -0.32,-1.79 0,-1.01 0.07,-1.8 0.2,-2.37 0.19,-0.86 0.53,-1.29 1,-1.29 0.66,0 1.64,0.63 2.9,1.9 1.12,1.14 2.38,2.64 3.75,4.49 1.23,1.64 2.43,3.42 3.62,5.32l2.48 4.01c0.73,1.2 1.48,2.56 2.25,4.1 1.09,-2.2 1.85,-4.41 2.26,-6.65 0.36,-1.95 0.54,-4.44 0.54,-7.46l-1.4 -0.81c0,-1.07 0.09,-2.05 0.28,-2.92 0.19,-0.87 0.45,-1.67 0.79,-2.38l0.58 0.15c0.06,0.7 0.45,1.25 1.17,1.68 0.38,0.22 0.88,0.49 1.49,0.78 0.6,0.29 1.06,0.5 1.39,0.63zm-6.35 23.73c0,-0.36 -0.07,-0.72 -0.21,-1.11 -0.13,-0.38 -0.44,-1.01 -0.91,-1.89 -0.49,0.64 -1.21,1.37 -2.18,2.19 -0.97,0.84 -1.92,1.55 -2.87,2.13 1.92,0 3.29,-0.06 4.1,-0.18 1.38,-0.19 2.07,-0.57 2.07,-1.14z"/>
 </g>
</svg>
