<?xml version="1.0" encoding="UTF-8"?>
<!DOCTYPE svg PUBLIC "-//W3C//DTD SVG 1.1//EN" "http://www.w3.org/Graphics/SVG/1.1/DTD/svg11.dtd">
<!-- Creator: CorelDRAW 2018 (64-Bit) -->
<svg xmlns="http://www.w3.org/2000/svg" xml:space="preserve" width="1075px" height="59px" version="1.1" style="shape-rendering:geometricPrecision; text-rendering:geometricPrecision; image-rendering:optimizeQuality; fill-rule:evenodd; clip-rule:evenodd"
viewBox="0 0 1075 59.07"
 xmlns:xlink="http://www.w3.org/1999/xlink">
 <defs>
  <style type="text/css">
   <![CDATA[
    .fil0 {fill:#2B2A29;fill-rule:nonzero}
   ]]>
  </style>
 </defs>
 <g id="Layer_x0020_1">
  <metadata id="CorelCorpID_0Corel-Layer"/>
  <polygon class="fil0" points="4.28,46.24 4.28,41.24 9.28,41.24 9.28,46.24 "/>
  <path id="1" class="fil0" d="M43.03 39.08l-4.27 0c-2.5,0 -4.38,0.07 -5.64,0.2 -1.26,0.13 -1.89,0.4 -1.89,0.79 0,0.54 0.76,0.81 2.27,0.81 0.67,0 1.2,0.02 1.59,0.06 0.39,0.03 1.25,0.11 2.56,0.26 0.79,0.1 1.33,0.22 1.62,0.37 0.48,0.24 0.71,0.66 0.71,1.26 0,3.05 -1,5.26 -3,6.64 -2.18,1.51 -5.78,2.27 -10.81,2.27 -3.5,0 -6.28,-0.59 -8.35,-1.79 -2.19,-1.26 -3.29,-3.07 -3.29,-5.41 0,-1.89 0.51,-3.89 1.55,-6.01 0.36,-0.75 1.34,-2.4 2.92,-4.9l0.98 0.49c-0.62,1.05 -1.22,2.1 -1.82,3.14 -0.93,1.78 -1.38,3.24 -1.38,4.38 0,2 1.04,3.52 3.12,4.56 1.99,0.99 4.72,1.49 8.19,1.49 2.34,0 4.39,-0.18 6.16,-0.54 2.19,-0.44 3.28,-1.03 3.28,-1.8 0,-0.27 -0.13,-0.48 -0.37,-0.61 -0.25,-0.15 -0.66,-0.21 -1.23,-0.21 -0.44,-0.05 -1.13,-0.1 -2.08,-0.16 -0.94,-0.06 -1.56,-0.08 -1.85,-0.08 -1.03,0 -1.76,-0.14 -2.2,-0.41 -0.45,-0.27 -0.67,-0.67 -0.67,-1.2 0,-2.03 0.59,-3.68 1.78,-4.96 0.98,-1.04 2.29,-1.82 3.94,-2.33 1.23,-0.37 2.54,-0.56 3.9,-0.56l4.28 0 0 4.25zm-10.1 15.65l-2.27 2.11 -2.73 -1.74 2.19 -2.31 2.81 1.94zm-5.05 0l-2.22 2.11 -2.83 -1.74 2.26 -2.31 2.79 1.94z"/>
  <path id="2" class="fil0" d="M55.25 39.08l-13.9 0 0 -4.25 12.15 0c0,-1.91 -0.23,-3.37 -0.69,-4.38 -0.31,-0.7 -1.08,-1.7 -2.31,-3.02l1.92 -4c1.16,1.49 1.89,2.64 2.18,3.47 0.43,1.25 0.65,3.32 0.65,6.23l0 5.95zm-2.6 -22.27c0,0.42 -0.25,0.79 -0.76,1.11 -0.34,0.22 -0.86,0.44 -1.54,0.69l-4.55 1.57c0,-0.76 0.82,-1.42 2.47,-1.99 -0.51,-0.27 -0.9,-0.52 -1.16,-0.76 -0.34,-0.32 -0.51,-0.64 -0.51,-0.99 0,-0.5 0.43,-1.22 1.3,-2.14 0.97,-1.01 1.81,-1.52 2.55,-1.52 0.32,0 0.61,0.11 0.84,0.33 0.24,0.23 0.36,0.52 0.36,0.89 0,0.23 -0.05,0.46 -0.15,0.71 -0.09,0.23 -0.23,0.5 -0.42,0.79 -0.5,-0.45 -1.05,-0.67 -1.64,-0.67 -0.36,0 -0.72,0.07 -1.07,0.22 -0.35,0.15 -0.52,0.31 -0.52,0.51 0,0.24 0.37,0.57 1.13,0.99 0.76,0.42 1.4,0.63 1.93,0.63 0.36,0 0.62,-0.01 0.78,-0.03 0.15,-0.03 0.48,-0.14 0.96,-0.34z"/>
  <path id="3" class="fil0" d="M66.76 39.08l-3.43 0c-1.12,0 -2.01,-0.45 -2.68,-1.34 -0.59,-0.78 -1.04,-1.94 -1.34,-3.49 -0.3,-1.54 -0.54,-3.44 -0.7,-5.71 -0.1,-1.83 -0.2,-3.72 -0.31,-5.66 -0.1,-1.93 -0.24,-3.4 -0.41,-4.4 -0.17,-1 -0.41,-1.82 -0.7,-2.45 -0.35,-0.78 -0.85,-1.47 -1.48,-2.05l2.97 -4.75c0.65,1.95 1.11,4.28 1.38,7 0.16,1.7 0.33,5.7 0.5,12.01 0.29,2.9 0.71,4.75 1.27,5.57 0.46,0.68 0.96,1.02 1.5,1.02l3.43 0 0 4.25z"/>
  <path id="4" class="fil0" d="M78.94 39.08l-13.91 0 0 -4.25 12.16 0c0,-1.91 -0.24,-3.37 -0.7,-4.38 -0.3,-0.7 -1.07,-1.7 -2.3,-3.02l1.92 -4c1.16,1.49 1.88,2.64 2.18,3.47 0.43,1.25 0.65,3.32 0.65,6.23l0 5.95zm-2 -22.58l-1.89 3.53 -3.92 -2.04 1.8 -3.56 4.01 2.07z"/>
  <path id="5" class="fil0" d="M105.45 39.08l-28.21 0 0 -4.25 19.91 0c-1.66,-1.29 -3.06,-2.29 -4.2,-3.01 -1.42,-0.9 -2.71,-1.55 -3.89,-1.95 -1.31,-0.46 -2.65,-0.69 -4,-0.69 -0.83,0 -1.66,0.06 -2.52,0.18 0.48,-1.2 1.1,-2.17 1.86,-2.89 1.1,-1.06 2.5,-1.59 4.2,-1.59 1.66,0 3.62,0.82 5.89,2.44 1.12,0.81 2.95,2.36 5.49,4.64 1.97,1.77 3.3,2.72 4,2.87l1.47 0 0 4.25zm-12.45 5.27l-1.89 3.54 -3.91 -2.05 1.79 -3.55 4.01 2.06z"/>
  <path id="6" class="fil0" d="M115.79 39.08l-12.05 0 0 -4.25 9.6 0 -3 -20.77 -1.25 -0.6c0,-1.11 0.1,-2.16 0.29,-3.15 0.2,-0.97 0.49,-1.93 0.89,-2.85l0.37 0.27c0,0.94 0.53,1.65 1.61,2.12 0.82,0.33 1.65,0.65 2.49,0.98 0,0.81 -0.07,1.67 -0.2,2.58 -0.12,0.93 -0.28,1.61 -0.47,2.06l-1.18 -0.39 2.9 19.21 0 4.79z"/>
  <path id="7" class="fil0" d="M124.04 32.85c0,1.3 -0.24,2.57 -0.71,3.78 -0.25,0.65 -0.79,1.69 -1.61,3.1l-0.44 -0.24c0.05,-0.47 0.1,-1.01 0.15,-1.64 0.04,-0.62 0.06,-1.03 0.06,-1.24 0,-1.69 -0.13,-4.06 -0.4,-7.09 -0.27,-3.04 -0.59,-6.21 -0.96,-9.51 -0.24,-2 -0.49,-4.05 -0.76,-6.13 0.32,-0.72 0.7,-1.48 1.11,-2.32 0.42,-0.82 0.81,-1.6 1.19,-2.33 0.26,1.85 0.59,4.39 0.99,7.61 0.4,3.22 0.72,6.12 0.94,8.72 0.29,3.21 0.44,5.65 0.44,7.29z"/>
  <path id="8" class="fil0" d="M165.34 36.04c0,2.6 -0.61,4.68 -1.82,6.2 -1.09,1.35 -2.7,2.33 -4.81,2.91 -1.79,0.49 -4.05,0.74 -6.8,0.74 -3.14,0 -5.57,-0.58 -7.3,-1.74 -1.88,-1.26 -2.82,-3.16 -2.82,-5.68 0,-1.4 0.21,-2.85 0.62,-4.37 0.34,-1.28 0.86,-2.69 1.56,-4.22 0.51,-1.11 1.2,-2.44 2.07,-4l0.85 0.46c-0.62,1.09 -1.13,2.07 -1.55,2.93 -0.55,1.15 -0.96,2.18 -1.23,3.09 -0.31,1.1 -0.47,2.17 -0.47,3.22 0,1.99 0.72,3.5 2.18,4.52 1.45,1.03 3.47,1.53 6.05,1.53 2.75,0 5.29,-0.47 7.62,-1.41 2.57,-1.04 3.85,-2.29 3.85,-3.74 0,-1.57 -0.25,-4.25 -0.74,-8.02 -0.38,-2.9 -0.86,-6.14 -1.42,-9.72l-0.79 -4.74 -1.1 -0.58c0,-2.18 0.44,-4.17 1.33,-5.96l0.42 0c0.07,0.62 0.18,1.08 0.34,1.38 0.16,0.3 0.43,0.52 0.79,0.67 0.51,0.21 1.05,0.46 1.64,0.76 0.43,0.21 0.82,0.39 1.13,0.56 0,1.14 -0.04,1.97 -0.12,2.49 -0.08,0.53 -0.24,1.25 -0.49,2.2l-1.39 -0.44c0.04,0.36 0.27,1.99 0.7,4.91 0.51,3.4 0.88,6.17 1.12,8.28 0.39,3.39 0.58,5.98 0.58,7.77z"/>
  <path id="9" class="fil0" d="M191.86 39.08l-28.2 0 0 -4.25 19.9 0c-1.66,-1.29 -3.06,-2.29 -4.2,-3.01 -1.41,-0.9 -2.71,-1.55 -3.88,-1.95 -1.32,-0.46 -2.65,-0.69 -4,-0.69 -0.84,0 -1.67,0.06 -2.52,0.18 0.48,-1.2 1.09,-2.17 1.86,-2.89 1.1,-1.06 2.5,-1.59 4.2,-1.59 1.66,0 3.62,0.82 5.88,2.44 1.12,0.81 2.95,2.36 5.5,4.64 1.96,1.77 3.3,2.72 4,2.87l1.46 0 0 4.25zm-12.45 5.27l-1.88 3.54 -3.92 -2.05 1.79 -3.55 4.01 2.06z"/>
  <path id="10" class="fil0" d="M218.41 39.08l-1.87 0c-1.03,0 -1.91,-0.14 -2.66,-0.42 -0.75,-0.28 -1.42,-0.69 -2.04,-1.21 -0.76,0.6 -1.43,1 -2.01,1.19 -0.83,0.29 -1.97,0.44 -3.43,0.44l-1.59 0c-0.85,0 -1.7,-0.16 -2.55,-0.49 -0.55,-0.21 -1.24,-0.56 -2.06,-1.05 -0.79,0.59 -1.5,0.99 -2.15,1.21 -0.65,0.23 -1.71,0.33 -3.18,0.33l-4.71 0 0 -4.25 4.72 0c1.32,0 2.27,-0.11 2.84,-0.34 0.94,-0.37 1.42,-1.12 1.42,-2.24 0,-0.47 -0.03,-0.95 -0.07,-1.42 -0.05,-0.47 -0.14,-1 -0.26,-1.58l0.97 -1.47c0.46,1.5 0.84,2.59 1.14,3.27 0.52,1.19 1.1,2.08 1.71,2.68 0.76,0.74 1.66,1.1 2.71,1.1l1.65 0c1.24,0 2.14,-0.18 2.74,-0.56 0.65,-0.42 0.98,-1.1 0.98,-2.02 0,-0.51 -0.03,-0.99 -0.09,-1.47 -0.07,-0.47 -0.15,-0.98 -0.26,-1.53l0.97 -1.47 0.51 2.3c0.44,1.81 0.98,3.07 1.61,3.77 0.56,0.63 1.3,0.93 2.25,0.93 0.44,0 0.79,-0.13 1.06,-0.4 0.27,-0.27 0.4,-0.62 0.4,-1.05 0,-0.91 -0.33,-1.88 -1,-2.9 -0.12,-0.16 -0.52,-0.7 -1.2,-1.6l1.57 -2.65c0.66,1.01 1.11,1.89 1.35,2.62 0.36,1.11 0.53,2.58 0.53,4.42l0 5.86z"/>
  <path id="11" class="fil0" d="M228.75 39.08l-12.05 0 0 -4.25 9.6 0 -3 -20.77 -1.25 -0.6c0,-1.11 0.1,-2.16 0.29,-3.15 0.21,-0.97 0.5,-1.93 0.89,-2.85l0.37 0.27c0,0.94 0.54,1.65 1.61,2.12 0.82,0.33 1.65,0.65 2.49,0.98 0,0.81 -0.06,1.67 -0.2,2.58 -0.12,0.93 -0.28,1.61 -0.46,2.06l-1.19 -0.39 2.9 19.21 0 4.79z"/>
  <path id="12" class="fil0" d="M237.01 32.85c0,1.3 -0.25,2.57 -0.72,3.78 -0.25,0.65 -0.78,1.69 -1.61,3.1l-0.44 -0.24c0.06,-0.47 0.11,-1.01 0.15,-1.64 0.04,-0.62 0.07,-1.03 0.07,-1.24 0,-1.69 -0.14,-4.06 -0.41,-7.09 -0.27,-3.04 -0.59,-6.21 -0.96,-9.51 -0.24,-2 -0.48,-4.05 -0.76,-6.13 0.32,-0.72 0.7,-1.48 1.12,-2.32 0.41,-0.82 0.81,-1.6 1.18,-2.33 0.26,1.85 0.59,4.39 0.99,7.61 0.4,3.22 0.72,6.12 0.94,8.72 0.3,3.21 0.45,5.65 0.45,7.29z"/>
  <path id="13" class="fil0" d="M282.41 39.08l-4.27 0c-2.5,0 -4.39,0.07 -5.64,0.2 -1.26,0.13 -1.9,0.4 -1.9,0.79 0,0.54 0.76,0.81 2.28,0.81 0.67,0 1.19,0.02 1.58,0.06 0.4,0.03 1.25,0.11 2.57,0.26 0.78,0.1 1.33,0.22 1.62,0.37 0.47,0.24 0.7,0.66 0.7,1.26 0,3.05 -0.99,5.26 -2.99,6.64 -2.19,1.51 -5.79,2.27 -10.81,2.27 -3.51,0 -6.29,-0.59 -8.36,-1.79 -2.19,-1.26 -3.29,-3.07 -3.29,-5.41 0,-1.89 0.52,-3.89 1.55,-6.01 0.37,-0.75 1.34,-2.4 2.93,-4.9l0.97 0.49c-0.62,1.05 -1.22,2.1 -1.82,3.14 -0.92,1.78 -1.38,3.24 -1.38,4.38 0,2 1.04,3.52 3.13,4.56 1.99,0.99 4.71,1.49 8.19,1.49 2.33,0 4.38,-0.18 6.16,-0.54 2.18,-0.44 3.27,-1.03 3.27,-1.8 0,-0.27 -0.12,-0.48 -0.36,-0.61 -0.25,-0.15 -0.66,-0.21 -1.23,-0.21 -0.45,-0.05 -1.14,-0.1 -2.08,-0.16 -0.94,-0.06 -1.56,-0.08 -1.85,-0.08 -1.04,0 -1.77,-0.14 -2.21,-0.41 -0.44,-0.27 -0.67,-0.67 -0.67,-1.2 0,-2.03 0.59,-3.68 1.79,-4.96 0.97,-1.04 2.29,-1.82 3.93,-2.33 1.24,-0.37 2.54,-0.56 3.91,-0.56l4.28 0 0 4.25zm-10.11 15.65l-2.26 2.11 -2.74 -1.74 2.2 -2.31 2.8 1.94zm-5.05 0l-2.21 2.11 -2.84 -1.74 2.27 -2.31 2.78 1.94z"/>
  <path id="14" class="fil0" d="M295.82 39.08l-15.1 0 0 -4.25 13 0c0,-1.45 -0.16,-2.81 -0.5,-4.08 -0.85,0.28 -1.5,0.47 -1.95,0.59 -0.75,0.19 -1.4,0.29 -1.97,0.29 -1.18,0 -2.14,-0.3 -2.88,-0.9 -0.86,-0.68 -1.3,-1.66 -1.3,-2.95 0,-2.26 0.41,-4.23 1.22,-5.92 0.91,-1.89 2.1,-2.83 3.56,-2.83 1.98,0 3.51,1.55 4.58,4.66 0.89,2.57 1.34,5.58 1.34,9.05l0 6.34zm-4 -12.7c-0.22,-0.59 -0.59,-1.18 -1.09,-1.78 -0.68,-0.81 -1.33,-1.22 -1.95,-1.22 -0.43,0 -0.8,0.18 -1.08,0.55 -0.29,0.37 -0.43,0.8 -0.43,1.3 0,1.3 0.72,1.95 2.15,1.95 0.37,0 0.77,-0.07 1.19,-0.21 0.42,-0.15 0.82,-0.35 1.21,-0.59zm0.7 -14.38l-1.88 3.53 -3.92 -2.04 1.8 -3.56 4 2.07z"/>
  <path id="15" class="fil0" d="M326.55 39.08l-10.91 0c-0.93,0 -1.76,-0.26 -2.5,-0.8 -0.74,-0.54 -1.11,-1.17 -1.11,-1.9 0,-0.62 0.03,-1.18 0.1,-1.69 0.07,-0.5 0.19,-1.06 0.37,-1.66l0.5 0c0.18,0.67 0.5,1.15 0.97,1.44 0.39,0.24 0.93,0.36 1.62,0.36l9.46 0c0,-2.91 -0.41,-5.26 -1.23,-7.03 -1.02,-2.21 -2.71,-3.68 -5.07,-4.42l0.37 -4.75c2.83,1.38 4.83,3.59 6,6.63 0.95,2.44 1.43,5.63 1.43,9.57l0 4.25z"/>
  <path id="16" class="fil0" d="M338.77 39.08l-13.91 0 0 -4.25 12.16 0c0,-1.91 -0.24,-3.37 -0.7,-4.38 -0.3,-0.7 -1.07,-1.7 -2.3,-3.02l1.92 -4c1.16,1.49 1.88,2.64 2.18,3.47 0.43,1.25 0.65,3.32 0.65,6.23l0 5.95zm-0.25 4.8l-1.8 3.56 -4.01 -2.05 1.85 -3.55 3.96 2.04zm-5.55 2.26l-1.81 3.5 -4 -2.08 1.89 -3.53 3.92 2.11z"/>
  <path id="17" class="fil0" d="M352.18 39.08l-15.11 0 0 -4.25 13.01 0c0,-1.45 -0.17,-2.81 -0.51,-4.08 -0.84,0.28 -1.49,0.47 -1.94,0.59 -0.75,0.19 -1.41,0.29 -1.98,0.29 -1.18,0 -2.14,-0.3 -2.88,-0.9 -0.86,-0.68 -1.3,-1.66 -1.3,-2.95 0,-2.26 0.41,-4.23 1.22,-5.92 0.91,-1.89 2.1,-2.83 3.56,-2.83 1.98,0 3.51,1.55 4.58,4.66 0.9,2.57 1.35,5.58 1.35,9.05l0 6.34zm-4 -12.7c-0.23,-0.59 -0.6,-1.18 -1.1,-1.78 -0.68,-0.81 -1.33,-1.22 -1.95,-1.22 -0.43,0 -0.8,0.18 -1.08,0.55 -0.28,0.37 -0.43,0.8 -0.43,1.3 0,1.3 0.72,1.95 2.15,1.95 0.37,0 0.77,-0.07 1.19,-0.21 0.42,-0.15 0.82,-0.35 1.22,-0.59zm3.1 -15.1l-1.8 3.55 -4 -2.05 1.85 -3.55 3.95 2.05zm-5.56 2.25l-1.8 3.5 -4 -2.07 1.89 -3.53 3.91 2.1z"/>
  <path id="18" class="fil0" d="M379.1 31.85c0,2.3 -0.38,4.03 -1.13,5.19 -1.15,1.79 -3.26,2.69 -6.33,2.69 -1.19,0 -2.17,-0.23 -2.95,-0.7 -0.89,-0.55 -1.34,-1.31 -1.34,-2.3 0,-1.15 0.28,-2.46 0.85,-3.96 0.53,-1.27 1.05,-2.55 1.6,-3.84l-0.37 -0.1 1.49 -4.15c2.94,1.55 4.69,2.53 5.26,2.94 1.94,1.37 2.92,2.78 2.92,4.23zm-2.1 1.91c0,-0.62 -0.89,-1.44 -2.69,-2.46 -0.76,-0.44 -1.58,-0.88 -2.46,-1.29 -0.74,0.79 -1.17,1.29 -1.32,1.48 -0.46,0.63 -0.68,1.23 -0.68,1.81 0,0.82 0.23,1.48 0.69,1.94 0.46,0.46 1.09,0.69 1.87,0.69 0.91,0 1.9,-0.25 2.98,-0.76 1.07,-0.52 1.61,-0.99 1.61,-1.41z"/>
  <path id="19" class="fil0" d="M400.08 26.3c0,0.32 -0.02,0.6 -0.05,0.82 -0.04,0.24 -0.11,0.52 -0.24,0.86 -0.91,-2.03 -2.26,-4.12 -4.06,-6.29 -1.98,-2.38 -3.54,-3.58 -4.67,-3.58 -0.25,0 -0.49,0.21 -0.73,0.64 -0.25,0.42 -0.53,0.63 -0.86,0.63 -0.44,0 -1.13,-0.28 -2.07,-0.86 -1.18,-0.71 -2.14,-1.55 -2.85,-2.49 -0.96,-1.28 -1.44,-2.63 -1.44,-4.06 0,-1.02 0.33,-1.54 1,-1.54 1.16,0 3,0.74 5.48,2.22 2.79,1.65 5.12,3.56 7,5.76 2.33,2.69 3.49,5.31 3.49,7.89zm10.13 12.78l-1.5 0c-1.37,0 -2.47,-0.74 -3.32,-2.21 -0.99,-1.79 -1.49,-4.49 -1.49,-8.11 0,-0.26 -0.03,-0.61 -0.09,-1.05 -0.06,-0.44 -0.08,-0.71 -0.08,-0.83 -1.56,4.34 -2.95,7.31 -4.17,8.92 -1.44,1.88 -3.48,3.13 -6.11,3.75 -2.24,0.53 -6.05,0.78 -11.44,0.78l0 -0.7c4.36,-1.31 7.61,-2.45 9.76,-3.4 3.45,-1.54 6.07,-3.3 7.86,-5.3 2.16,-2.4 3.23,-5.25 3.23,-8.55 0,-1.59 -0.1,-3.08 -0.3,-4.46 -0.2,-1.38 -0.47,-2.8 -0.82,-4.24l0.8 -2.07c0.32,-0.8 0.62,-1.47 0.9,-2.03 0.42,2.34 0.83,4.87 1.2,7.58 0.27,1.88 0.52,3.89 0.77,6.04 0.31,2.63 0.58,4.75 0.81,6.37 0.29,2.05 0.73,3.5 1.32,4.39 0.4,0.58 0.79,0.87 1.18,0.87l1.49 0 0 4.25z"/>
  <path id="20" class="fil0" d="M433.7 31.43l-1.68 4.45c-2.46,0.9 -5.31,1.66 -8.53,2.28 -3.23,0.62 -6.2,0.92 -8.92,0.92l-6.07 0 0 -4.25 5.85 0c-0.48,-0.76 -0.86,-1.63 -1.16,-2.6 -0.29,-0.96 -0.44,-1.91 -0.44,-2.81 0,-1.92 0.8,-3.54 2.4,-4.84 1.61,-1.3 3.66,-1.95 6.19,-1.95 2,0 3.65,0.48 4.95,1.46 0.56,0.41 1.49,1.4 2.81,2.99l-0.47 0.4c-1.12,-0.3 -2.12,-0.52 -3.02,-0.67 -0.89,-0.15 -1.81,-0.23 -2.77,-0.23 -2.24,0 -4,0.25 -5.28,0.74 -1.27,0.5 -1.91,1.15 -1.91,1.97 0,0.79 0.4,1.68 1.2,2.67 0.81,0.98 1.84,1.86 3.11,2.62 2.67,-0.4 4.85,-0.8 6.56,-1.19 1.71,-0.39 4.1,-1.04 7.18,-1.96z"/>
  <path id="21" class="fil0" d="M444.74 32.85c0,1.3 -0.24,2.57 -0.71,3.78 -0.25,0.65 -0.79,1.69 -1.61,3.1l-0.44 -0.24c0.05,-0.47 0.1,-1.01 0.15,-1.64 0.04,-0.62 0.06,-1.03 0.06,-1.24 0,-1.69 -0.13,-4.06 -0.4,-7.09 -0.27,-3.04 -0.59,-6.21 -0.96,-9.51 -0.24,-2 -0.49,-4.05 -0.76,-6.13 0.32,-0.72 0.7,-1.48 1.11,-2.32 0.42,-0.82 0.81,-1.6 1.19,-2.33 0.26,1.85 0.59,4.39 0.99,7.61 0.4,3.22 0.72,6.12 0.94,8.72 0.29,3.21 0.44,5.65 0.44,7.29zm0.7 -26.59c0,0.42 -0.25,0.79 -0.76,1.11 -0.34,0.22 -0.85,0.44 -1.54,0.68l-4.55 1.58c0,-0.76 0.83,-1.42 2.47,-1.99 -0.51,-0.27 -0.89,-0.52 -1.15,-0.76 -0.34,-0.32 -0.52,-0.64 -0.52,-0.99 0,-0.5 0.44,-1.22 1.3,-2.14 0.97,-1.01 1.82,-1.52 2.55,-1.52 0.33,0 0.61,0.11 0.84,0.33 0.25,0.23 0.36,0.52 0.36,0.88 0,0.24 -0.05,0.47 -0.15,0.71 -0.09,0.24 -0.23,0.51 -0.41,0.8 -0.5,-0.45 -1.05,-0.67 -1.65,-0.67 -0.35,0 -0.71,0.07 -1.06,0.21 -0.35,0.15 -0.53,0.32 -0.53,0.51 0,0.25 0.38,0.58 1.14,1 0.75,0.42 1.4,0.63 1.93,0.63 0.36,0 0.62,-0.01 0.77,-0.03 0.15,-0.03 0.48,-0.14 0.96,-0.34z"/>
  <path id="22" class="fil0" d="M479.49 39.08l-3.49 0c-1.17,0 -2.2,-1 -3.1,-2.99 -0.67,-1.5 -1.2,-3.42 -1.61,-5.77 -0.48,0.9 -1.11,1.61 -1.85,2.11 -0.75,0.5 -1.54,0.75 -2.37,0.75 -1.86,0 -3.42,-0.12 -4.67,-0.37 -1.24,-0.26 -1.86,-0.58 -1.86,-0.97 0,-1.4 0.91,-2.95 2.72,-4.65 1.81,-1.7 4.08,-3.19 6.8,-4.46 -0.03,-0.13 -0.1,-0.47 -0.2,-1.02 -0.11,-0.55 -0.17,-0.9 -0.17,-1.02 0,-0.56 0.19,-1.18 0.57,-1.85 0.32,-0.56 0.74,-1.13 1.26,-1.71 0.16,1.01 0.33,1.98 0.49,2.93 0.18,0.94 0.37,1.91 0.6,2.92l0.73 4.19c0.41,2.31 0.78,4.02 1.1,5.13 0.51,1.69 1.03,2.53 1.57,2.53l3.48 0 0 4.25zm-8.53 -10.89l-0.47 -2.66c-1.4,0.51 -2.51,1.04 -3.32,1.58 -0.81,0.54 -1.48,1.26 -2.03,2.16 0.34,0.15 0.73,0.26 1.19,0.34 0.45,0.08 1.08,0.12 1.87,0.12 0.96,0 1.89,-0.51 2.76,-1.54z"/>
  <path id="23" class="fil0" d="M491.69 39.08l-13.9 0 0 -4.25 12.15 0c0,-1.91 -0.23,-3.37 -0.69,-4.38 -0.31,-0.7 -1.07,-1.7 -2.31,-3.02l1.93 -4c1.16,1.49 1.88,2.64 2.17,3.47 0.44,1.25 0.65,3.32 0.65,6.23l0 5.95zm-0.15 -24.15l-1.8 3.55 -4 -2.05 1.85 -3.55 3.95 2.05zm-5.55 2.25l-1.81 3.5 -3.99 -2.07 1.88 -3.53 3.92 2.1z"/>
  <path id="24" class="fil0" d="M503.9 39.08l-13.9 0 0 -4.25 12.15 0c0,-1.91 -0.23,-3.37 -0.69,-4.38 -0.31,-0.7 -1.07,-1.7 -2.31,-3.02l1.93 -4c1.16,1.49 1.88,2.64 2.17,3.47 0.44,1.25 0.65,3.32 0.65,6.23l0 5.95zm-0.25 4.8l-1.8 3.56 -4 -2.05 1.85 -3.55 3.95 2.04zm-5.55 2.26l-1.81 3.5 -3.99 -2.08 1.89 -3.53 3.91 2.11z"/>
  <path id="25" class="fil0" d="M525.52 37.57c0,2.7 -1,5.38 -2.99,8.05 -2.21,2.97 -4.77,4.47 -7.67,4.47 -1.07,0 -2.18,-0.13 -3.32,-0.37 -0.84,-0.18 -1.92,-0.48 -3.25,-0.92 -1.06,-0.37 -2.12,-0.73 -3.18,-1.09l0.42 -0.86c0.91,0.21 1.87,0.44 2.87,0.68 1,0.24 1.9,0.36 2.7,0.36 1.98,0 3.86,-0.51 5.64,-1.53 1.38,-0.81 2.77,-1.97 4.15,-3.5 0.7,-0.78 1.69,-2.03 2.98,-3.78 -2.21,0 -3.86,-0.35 -4.95,-1.05 -1.24,-0.8 -1.86,-2.12 -1.86,-3.95 0,-1.69 0.4,-3.26 1.18,-4.7 0.92,-1.66 2.07,-2.5 3.48,-2.5 1.42,0 2.44,0.83 3.06,2.49 0.49,1.29 0.74,3.09 0.74,5.4l0 2.8zm-1.55 -2.69c-0.36,-1.57 -0.8,-2.65 -1.3,-3.26 -0.44,-0.53 -0.98,-0.79 -1.61,-0.79 -0.46,0 -0.86,0.15 -1.2,0.45 -0.33,0.31 -0.5,0.69 -0.5,1.14 0,0.81 0.36,1.42 1.08,1.84 0.72,0.42 1.89,0.62 3.53,0.62z"/>
  <path id="26" class="fil0" d="M544.78 34.95c0,0.94 -0.29,1.99 -0.88,3.15 -0.63,1.26 -1.26,1.88 -1.9,1.88 -0.66,0 -1.9,-0.42 -3.72,-1.26 -1.66,-0.78 -3.08,-1.54 -4.23,-2.29 -1.89,1.07 -3.28,1.76 -4.14,2.07 -1.1,0.39 -2.39,0.58 -3.88,0.58l-2.21 0 0 -4.25 2.22 0c0.67,0 1.32,-0.05 1.94,-0.15 0.63,-0.11 1.47,-0.3 2.54,-0.58 -0.43,-0.31 -0.85,-0.63 -1.26,-0.96 -0.46,-0.41 -0.69,-0.81 -0.69,-1.2 0,-0.27 0.01,-0.48 0.04,-0.61 0.02,-0.13 0.13,-0.38 0.33,-0.74l2.41 -4.24c0.32,-0.58 0.62,-0.97 0.88,-1.19 0.27,-0.22 0.64,-0.39 1.11,-0.53 -1.12,-0.76 -1.68,-1.31 -1.68,-1.62 0,-0.33 0.36,-1.16 1.07,-2.51 0.25,-0.45 0.62,-1.13 1.12,-2.02 1.04,0.99 2.34,2.43 3.92,4.33 2,2.37 3.56,4.5 4.72,6.37 1.53,2.48 2.29,4.4 2.29,5.77zm-8.55 -5.32c0,-0.7 -0.15,-1.26 -0.45,-1.66 -0.34,-0.5 -0.88,-0.74 -1.63,-0.74 -0.75,0 -1.45,0.25 -2.1,0.75 -0.65,0.5 -0.98,1.1 -0.98,1.8 0,0.68 1,1.55 2.98,2.65 0.7,-0.46 1.23,-0.9 1.57,-1.32 0.41,-0.49 0.61,-0.99 0.61,-1.48zm5.9 5.6c0,-0.57 -0.46,-1.45 -1.39,-2.66 -0.57,-0.77 -1.27,-1.58 -2.11,-2.45 0,0.8 -0.17,1.55 -0.5,2.25 -0.33,0.7 -0.8,1.23 -1.4,1.6 0.99,0.51 1.97,1 2.97,1.48 0.82,0.36 1.4,0.53 1.74,0.53 0.19,0 0.36,-0.07 0.49,-0.21 0.13,-0.15 0.2,-0.33 0.2,-0.54z"/>
  <path id="27" class="fil0" d="M597.59 39.08l-23.3 0c-3.12,0 -5.61,-0.54 -7.47,-1.63 -2.32,-1.37 -3.49,-3.51 -3.49,-6.43 0,-1.51 0.34,-3.06 1.03,-4.64 0.24,-0.57 0.82,-1.66 1.75,-3.25l0.72 0.47c-0.36,0.75 -0.71,1.49 -1.04,2.24 -0.47,1.16 -0.71,2.19 -0.71,3.11 0,1.92 1.01,3.41 3.03,4.47 1.81,0.94 4.09,1.41 6.86,1.41l20.67 0 0 -0.65c0,-1.83 -0.22,-3.31 -0.66,-4.46 -0.44,-1.15 -1.19,-2.12 -2.24,-2.94l1.87 -4c0.73,0.89 1.16,1.46 1.3,1.69 1.12,1.82 1.68,4.48 1.68,7.96l0 6.65zm-11.5 -22.25l-1.81 3.55 -4 -2.05 1.85 -3.55 3.96 2.05zm-5.56 2.25l-1.8 3.5 -4 -2.07 1.89 -3.53 3.91 2.1z"/>
  <path id="28" class="fil0" d="M609.11 39.08l-3.44 0c-1.11,0 -2.01,-0.45 -2.67,-1.34 -0.59,-0.78 -1.04,-1.94 -1.34,-3.49 -0.3,-1.54 -0.54,-3.44 -0.71,-5.71 -0.09,-1.83 -0.2,-3.72 -0.3,-5.66 -0.1,-1.93 -0.24,-3.4 -0.41,-4.4 -0.18,-1 -0.41,-1.82 -0.7,-2.45 -0.35,-0.78 -0.85,-1.47 -1.49,-2.05l2.98 -4.75c0.65,1.95 1.11,4.28 1.38,7 0.16,1.7 0.33,5.7 0.49,12.01 0.3,2.9 0.72,4.75 1.28,5.57 0.46,0.68 0.96,1.02 1.49,1.02l3.44 0 0 4.25z"/>
  <path id="29" class="fil0" d="M628.78 39.08l-2.53 0c-1.09,0 -2.32,-0.25 -3.68,-0.74 -1.58,-0.56 -2.96,-1.36 -4.17,-2.36 -0.94,1.17 -1.91,1.98 -2.89,2.43 -0.99,0.45 -2.43,0.67 -4.32,0.67l-3.81 0 0 -4.25 3.74 0c1.48,0 2.79,-0.37 3.95,-1.12 0.9,-0.59 1.7,-1.41 2.44,-2.48 0.99,-1.43 2.21,-2.68 3.67,-3.74 1.29,-0.94 2.49,-1.55 3.58,-1.81 1.12,1.71 2.02,3.25 2.68,4.63 0.89,1.86 1.34,3.36 1.34,4.52l0 4.25zm-2.8 -4.81c-0.2,-0.95 -0.53,-1.89 -0.97,-2.8 -0.38,-0.78 -0.88,-1.57 -1.49,-2.39 -0.78,0.2 -1.44,0.57 -1.97,1.11 -0.36,0.34 -0.78,0.93 -1.27,1.74 0.59,0.64 1.41,1.21 2.48,1.72 1.06,0.51 2.07,0.82 3.01,0.93l0.21 -0.31z"/>
  <path id="30" class="fil0" d="M650.39 37.57c0,2.7 -0.99,5.38 -2.99,8.05 -2.21,2.97 -4.76,4.47 -7.66,4.47 -1.08,0 -2.19,-0.13 -3.33,-0.37 -0.83,-0.18 -1.92,-0.48 -3.25,-0.92 -1.06,-0.37 -2.12,-0.73 -3.18,-1.09l0.42 -0.86c0.91,0.21 1.87,0.44 2.87,0.68 1,0.24 1.9,0.36 2.7,0.36 1.98,0 3.87,-0.51 5.64,-1.53 1.39,-0.81 2.77,-1.97 4.15,-3.5 0.7,-0.78 1.69,-2.03 2.98,-3.78 -2.2,0 -3.85,-0.35 -4.94,-1.05 -1.25,-0.8 -1.86,-2.12 -1.86,-3.95 0,-1.69 0.39,-3.26 1.17,-4.7 0.92,-1.66 2.08,-2.5 3.48,-2.5 1.42,0 2.44,0.83 3.06,2.49 0.5,1.29 0.74,3.09 0.74,5.4l0 2.8zm-1.55 -2.69c-0.36,-1.57 -0.79,-2.65 -1.3,-3.26 -0.44,-0.53 -0.98,-0.79 -1.61,-0.79 -0.46,0 -0.86,0.15 -1.19,0.45 -0.34,0.31 -0.5,0.69 -0.5,1.14 0,0.81 0.35,1.42 1.07,1.84 0.72,0.42 1.89,0.62 3.53,0.62z"/>
  <path id="31" class="fil0" d="M660.75 39.08l-12.05 0 0 -4.25 9.6 0 -3 -20.77 -1.25 -0.6c0,-1.11 0.1,-2.16 0.29,-3.15 0.2,-0.97 0.49,-1.93 0.88,-2.85l0.38 0.27c0,0.94 0.53,1.65 1.61,2.12 0.81,0.33 1.65,0.65 2.49,0.98 0,0.81 -0.07,1.67 -0.2,2.58 -0.13,0.93 -0.29,1.61 -0.47,2.06l-1.18 -0.39 2.9 19.21 0 4.79z"/>
  <path id="32" class="fil0" d="M680.45 39.08l-3.58 0c-1.06,0 -2.13,-0.25 -3.22,-0.75 -1.3,-0.6 -2.24,-1.45 -2.83,-2.52 -1.09,0.98 -2.34,1.73 -3.74,2.27 -1.71,0.67 -3.65,1 -5.83,1l-2.2 0 0 -4.25 2.2 0c1.36,0 2.64,-0.15 3.82,-0.44 1.33,-0.33 2.65,-0.87 3.93,-1.62l-1.03 -1.31c-0.53,-0.62 -1.12,-0.93 -1.77,-0.93 -0.3,0 -0.56,0.05 -0.79,0.16 -0.23,0.11 -0.49,0.33 -0.76,0.69l-0.5 0 0 -1.44c0,-1.8 0.47,-3.03 1.42,-3.7 0.85,-0.61 2.35,-0.91 4.48,-0.91 1.83,0 3.33,0.24 4.48,0.74 1.51,0.63 2.27,1.61 2.27,2.93 0,0.7 -0.3,1.42 -0.9,2.18 -0.43,0.54 -1.23,1.31 -2.4,2.3 0.26,0.38 0.76,0.7 1.5,0.96 0.74,0.26 1.36,0.39 1.87,0.39l3.58 0 0 4.25z"/>
  <path id="33" class="fil0" d="M700.15 39.08l-2.53 0c-1.09,0 -2.32,-0.25 -3.68,-0.74 -1.58,-0.56 -2.96,-1.36 -4.17,-2.36 -0.94,1.17 -1.91,1.98 -2.89,2.43 -0.99,0.45 -2.43,0.67 -4.32,0.67l-3.81 0 0 -4.25 3.74 0c1.48,0 2.8,-0.37 3.95,-1.12 0.9,-0.59 1.7,-1.41 2.44,-2.48 0.99,-1.43 2.22,-2.68 3.67,-3.74 1.3,-0.94 2.49,-1.55 3.58,-1.81 1.12,1.71 2.02,3.25 2.68,4.63 0.89,1.86 1.34,3.36 1.34,4.52l0 4.25zm-2.8 -4.81c-0.2,-0.95 -0.53,-1.89 -0.97,-2.8 -0.38,-0.78 -0.88,-1.57 -1.49,-2.39 -0.78,0.2 -1.44,0.57 -1.97,1.11 -0.36,0.34 -0.78,0.93 -1.27,1.74 0.59,0.64 1.41,1.21 2.48,1.72 1.06,0.51 2.07,0.82 3.01,0.93l0.21 -0.31z"/>
  <path id="34" class="fil0" d="M738.5 39.08c0,1.79 -0.76,3.65 -2.3,5.57 -1.33,1.69 -2.99,3.15 -4.98,4.38 -1.88,1.17 -3.44,1.76 -4.67,1.76 -1.12,0 -2.33,-0.17 -3.64,-0.5 -0.99,-0.24 -2.19,-0.63 -3.57,-1.15 -1.17,-0.45 -2.33,-0.89 -3.49,-1.33l0.42 -0.97c1.07,0.21 2.19,0.43 3.36,0.65 1.16,0.23 2.22,0.35 3.16,0.35 2.09,0 4.26,-0.67 6.53,-2 2.06,-1.23 3.81,-2.77 5.26,-4.64 1.45,-1.87 2.17,-3.54 2.17,-5.04 0,-1.29 -0.37,-2.64 -1.11,-4.06 -0.6,-1.14 -1.45,-2.31 -2.54,-3.52l1.38 -3.85c1.33,1.24 2.31,2.48 2.95,3.72 0.71,1.4 1.07,2.97 1.07,4.69l0 5.94z"/>
  <path id="35" class="fil0" d="M760.1 37.57c0,2.7 -0.99,5.38 -2.98,8.05 -2.21,2.97 -4.77,4.47 -7.67,4.47 -1.08,0 -2.19,-0.13 -3.33,-0.37 -0.83,-0.18 -1.92,-0.48 -3.25,-0.92 -1.06,-0.37 -2.12,-0.73 -3.17,-1.09l0.41 -0.86c0.91,0.21 1.87,0.44 2.87,0.68 1,0.24 1.9,0.36 2.7,0.36 1.98,0 3.87,-0.51 5.64,-1.53 1.39,-0.81 2.77,-1.97 4.15,-3.5 0.7,-0.78 1.7,-2.03 2.98,-3.78 -2.2,0 -3.85,-0.35 -4.94,-1.05 -1.25,-0.8 -1.86,-2.12 -1.86,-3.95 0,-1.69 0.39,-3.26 1.17,-4.7 0.92,-1.66 2.08,-2.5 3.48,-2.5 1.42,0 2.44,0.83 3.07,2.49 0.49,1.29 0.73,3.09 0.73,5.4l0 2.8zm-1.55 -2.69c-0.36,-1.57 -0.79,-2.65 -1.3,-3.26 -0.43,-0.53 -0.98,-0.79 -1.61,-0.79 -0.46,0 -0.86,0.15 -1.19,0.45 -0.34,0.31 -0.5,0.69 -0.5,1.14 0,0.81 0.36,1.42 1.07,1.84 0.72,0.42 1.9,0.62 3.53,0.62z"/>
  <path id="36" class="fil0" d="M779.81 39.08l-21.4 0 0 -4.25 18.58 0c-1.15,-1.72 -2.45,-3.22 -3.91,-4.5 -1.47,-1.27 -3.45,-2.66 -5.95,-4.13l-0.81 0.76 -2.89 -2.2c-1.01,-0.85 -1.52,-1.5 -1.52,-1.98 0,-2.8 0.68,-5 2.06,-6.6 1.27,-1.47 3.46,-2.79 6.58,-3.96l6.91 -2.69 0 4.25 -5.11 1.71c-2.04,0.67 -3.69,1.27 -4.94,1.82 -1.6,0.7 -2.4,1.25 -2.4,1.62 0,0.37 0.52,0.95 1.57,1.73 0.65,0.49 1.3,0.97 1.97,1.46 2.48,1.87 4.63,3.84 6.48,5.88 1.98,2.2 3.57,4.47 4.78,6.83l0 4.25z"/>
  <path id="37" class="fil0" d="M796.66 39.08l-10.91 0c-0.92,0 -1.75,-0.26 -2.5,-0.8 -0.73,-0.54 -1.1,-1.17 -1.1,-1.9 0,-0.62 0.03,-1.18 0.09,-1.69 0.07,-0.5 0.2,-1.06 0.37,-1.66l0.5 0c0.18,0.67 0.51,1.15 0.98,1.44 0.39,0.24 0.93,0.36 1.61,0.36l9.46 0c0,-2.91 -0.4,-5.26 -1.22,-7.03 -1.02,-2.21 -2.71,-3.68 -5.08,-4.42l0.38 -4.75c2.82,1.38 4.82,3.59 6,6.63 0.95,2.44 1.42,5.63 1.42,9.57l0 4.25zm-6.5 -28.73l-1.88 3.53 -3.92 -2.04 1.79 -3.56 4.01 2.07z"/>
  <path id="38" class="fil0" d="M816.38 39.08l-2.53 0c-1.09,0 -2.32,-0.25 -3.68,-0.74 -1.58,-0.56 -2.96,-1.36 -4.17,-2.36 -0.94,1.17 -1.91,1.98 -2.89,2.43 -0.99,0.45 -2.43,0.67 -4.32,0.67l-3.81 0 0 -4.25 3.73 0c1.49,0 2.8,-0.37 3.95,-1.12 0.9,-0.59 1.71,-1.41 2.45,-2.48 0.99,-1.43 2.21,-2.68 3.66,-3.74 1.3,-0.94 2.5,-1.55 3.59,-1.81 1.12,1.71 2.02,3.25 2.68,4.63 0.89,1.86 1.34,3.36 1.34,4.52l0 4.25zm-2.8 -4.81c-0.21,-0.95 -0.53,-1.89 -0.97,-2.8 -0.38,-0.78 -0.88,-1.57 -1.49,-2.39 -0.78,0.2 -1.44,0.57 -1.97,1.11 -0.36,0.34 -0.78,0.93 -1.27,1.74 0.58,0.64 1.41,1.21 2.48,1.72 1.06,0.51 2.06,0.82 3.01,0.93l0.21 -0.31z"/>
  <path id="39" class="fil0" d="M826.74 39.08l-12.06 0 0 -4.25 9.61 0 -3.01 -20.77 -1.25 -0.6c0,-1.11 0.1,-2.16 0.3,-3.15 0.2,-0.97 0.49,-1.93 0.88,-2.85l0.37 0.27c0,0.94 0.54,1.65 1.61,2.12 0.82,0.33 1.65,0.65 2.5,0.98 0,0.81 -0.07,1.67 -0.2,2.58 -0.13,0.93 -0.29,1.61 -0.47,2.06l-1.18 -0.39 2.9 19.21 0 4.79z"/>
  <path id="40" class="fil0" d="M834.99 32.85c0,1.3 -0.25,2.57 -0.72,3.78 -0.25,0.65 -0.78,1.69 -1.61,3.1l-0.44 -0.24c0.06,-0.47 0.11,-1.01 0.15,-1.64 0.04,-0.62 0.07,-1.03 0.07,-1.24 0,-1.69 -0.14,-4.06 -0.4,-7.09 -0.28,-3.04 -0.6,-6.21 -0.97,-9.51 -0.23,-2 -0.48,-4.05 -0.76,-6.13 0.33,-0.72 0.7,-1.48 1.12,-2.32 0.41,-0.82 0.81,-1.6 1.18,-2.33 0.26,1.85 0.59,4.39 0.99,7.61 0.4,3.22 0.72,6.12 0.94,8.72 0.3,3.21 0.45,5.65 0.45,7.29z"/>
  <path id="41" class="fil0" d="M905.89 39.08l-29 0c-0.5,3.39 -1.66,5.92 -3.52,7.61 -2.31,2.1 -5.84,3.15 -10.58,3.15 -3.26,0 -5.75,-0.57 -7.47,-1.71 -1.9,-1.26 -2.84,-3.18 -2.84,-5.77 0,-1.4 0.18,-2.82 0.52,-4.25 0.34,-1.43 0.81,-2.88 1.39,-4.33 0.37,-0.87 0.98,-2.22 1.87,-4.05l0.97 0.44c-1.13,2.35 -1.88,4.19 -2.25,5.54 -0.36,1.35 -0.55,2.58 -0.55,3.71 0,2.01 0.72,3.54 2.16,4.59 1.44,1.05 3.5,1.58 6.18,1.58 3.12,0 5.92,-0.55 8.37,-1.64 3.06,-1.34 4.6,-3.22 4.6,-5.64 0,-1.62 -0.3,-3.16 -0.9,-4.62 -0.48,-1.15 -1.15,-2.26 -2,-3.31l2.02 -5c0.8,1.34 1.34,2.51 1.63,3.54 0.4,1.44 0.6,3.41 0.6,5.91l0.44 0c1.93,0 3.73,-0.3 5.4,-0.92 1.43,-0.54 2.93,-1.38 4.52,-2.54 2.41,-1.67 3.85,-2.66 4.32,-2.97 1.34,-0.85 2.54,-1.45 3.6,-1.81 1.2,-0.41 2.53,-0.61 3.97,-0.61 2.23,0 3.9,0.64 5.01,1.93 1.02,1.19 1.54,2.86 1.54,5l0 6.17zm-3.95 -6.12c0,-0.79 -0.5,-1.41 -1.5,-1.86 -1,-0.44 -2.17,-0.67 -3.51,-0.67 -1.17,0 -2.47,0.26 -3.92,0.78 -1.03,0.37 -2.34,0.96 -3.91,1.77 -1.19,0.62 -2.37,1.24 -3.55,1.85l11.26 0c1.56,0 2.81,-0.15 3.74,-0.47 0.92,-0.32 1.39,-0.78 1.39,-1.4z"/>
  <path id="42" class="fil0" d="M932.4 39.08l-28.2 0 0 -4.25 19.9 0c-1.66,-1.29 -3.06,-2.29 -4.2,-3.01 -1.41,-0.9 -2.71,-1.55 -3.88,-1.95 -1.32,-0.46 -2.65,-0.69 -4,-0.69 -0.84,0 -1.67,0.06 -2.52,0.18 0.48,-1.2 1.09,-2.17 1.86,-2.89 1.1,-1.06 2.5,-1.59 4.2,-1.59 1.66,0 3.62,0.82 5.89,2.44 1.11,0.81 2.94,2.36 5.49,4.64 1.96,1.77 3.3,2.72 4,2.87l1.46 0 0 4.25zm-11.75 -22.73l-1.88 3.53 -3.92 -2.04 1.79 -3.56 4.01 2.07z"/>
  <path id="43" class="fil0" d="M958.95 39.08l-1.87 0c-1.03,0 -1.91,-0.14 -2.65,-0.42 -0.75,-0.28 -1.43,-0.69 -2.05,-1.21 -0.76,0.6 -1.43,1 -2.01,1.19 -0.83,0.29 -1.97,0.44 -3.43,0.44l-1.59 0c-0.85,0 -1.7,-0.16 -2.55,-0.49 -0.55,-0.21 -1.24,-0.56 -2.06,-1.05 -0.78,0.59 -1.5,0.99 -2.15,1.21 -0.65,0.23 -1.71,0.33 -3.18,0.33l-4.71 0 0 -4.25 4.72 0c1.32,0 2.27,-0.11 2.84,-0.34 0.95,-0.37 1.42,-1.12 1.42,-2.24 0,-0.47 -0.02,-0.95 -0.07,-1.42 -0.05,-0.47 -0.14,-1 -0.26,-1.58l0.97 -1.47c0.46,1.5 0.84,2.59 1.14,3.27 0.52,1.19 1.1,2.08 1.71,2.68 0.76,0.74 1.66,1.1 2.71,1.1l1.65 0c1.24,0 2.14,-0.18 2.74,-0.56 0.65,-0.42 0.98,-1.1 0.98,-2.02 0,-0.51 -0.03,-0.99 -0.09,-1.47 -0.07,-0.47 -0.15,-0.98 -0.26,-1.53l0.97 -1.47 0.51 2.3c0.44,1.81 0.98,3.07 1.61,3.77 0.56,0.63 1.3,0.93 2.25,0.93 0.44,0 0.79,-0.13 1.06,-0.4 0.27,-0.27 0.4,-0.62 0.4,-1.05 0,-0.91 -0.33,-1.88 -1,-2.9 -0.12,-0.16 -0.52,-0.7 -1.2,-1.6l1.57 -2.65c0.66,1.01 1.11,1.89 1.36,2.62 0.35,1.11 0.52,2.58 0.52,4.42l0 5.86zm-7 -26.51l-1.88 3.56 -3.92 -2.09 1.81 -3.56 3.99 2.09zm4.75 4.34l-1.88 3.52 -3.92 -2.1 1.82 -3.5 3.98 2.08zm-5.55 2.22l-1.85 3.55 -3.95 -2.05 1.8 -3.55 4 2.05z"/>
  <path id="44" class="fil0" d="M969.29 39.08l-12.05 0 0 -4.25 9.6 0 -3 -20.77 -1.25 -0.6c0,-1.11 0.1,-2.16 0.29,-3.15 0.21,-0.97 0.5,-1.93 0.89,-2.85l0.37 0.27c0,0.94 0.54,1.65 1.61,2.12 0.82,0.33 1.65,0.65 2.49,0.98 0,0.81 -0.06,1.67 -0.2,2.58 -0.12,0.93 -0.28,1.61 -0.46,2.06l-1.19 -0.39 2.9 19.21 0 4.79z"/>
  <path id="45" class="fil0" d="M979.65 39.08l-12.06 0 0 -4.25 9.61 0 -3 -20.77 -1.26 -0.6c0,-1.11 0.11,-2.16 0.3,-3.15 0.2,-0.97 0.49,-1.93 0.88,-2.85l0.38 0.27c0,0.94 0.53,1.65 1.6,2.12 0.82,0.33 1.65,0.65 2.5,0.98 0,0.81 -0.07,1.67 -0.2,2.58 -0.13,0.93 -0.29,1.61 -0.47,2.06l-1.18 -0.39 2.9 19.21 0 4.79z"/>
  <path id="46" class="fil0" d="M1010.39 39.08l-10.91 0c-0.92,0 -1.75,-0.26 -2.5,-0.8 -0.73,-0.54 -1.1,-1.17 -1.1,-1.9 0,-0.62 0.03,-1.18 0.09,-1.69 0.07,-0.5 0.2,-1.06 0.37,-1.66l0.5 0c0.18,0.67 0.51,1.15 0.98,1.44 0.39,0.24 0.93,0.36 1.61,0.36l9.46 0c0,-2.91 -0.4,-5.26 -1.22,-7.03 -1.02,-2.21 -2.71,-3.68 -5.08,-4.42l0.38 -4.75c2.82,1.38 4.82,3.59 6,6.63 0.95,2.44 1.42,5.63 1.42,9.57l0 4.25z"/>
  <path id="47" class="fil0" d="M1036.91 39.08l-28.2 0 0 -4.25 19.9 0c-1.66,-1.29 -3.06,-2.29 -4.2,-3.01 -1.41,-0.9 -2.71,-1.55 -3.88,-1.95 -1.32,-0.46 -2.65,-0.69 -4,-0.69 -0.84,0 -1.67,0.06 -2.52,0.18 0.48,-1.2 1.09,-2.17 1.86,-2.89 1.1,-1.06 2.5,-1.59 4.2,-1.59 1.66,0 3.62,0.82 5.89,2.44 1.11,0.81 2.94,2.36 5.49,4.64 1.96,1.77 3.3,2.72 4,2.87l1.46 0 0 4.25zm-12.45 5.27l-1.88 3.54 -3.92 -2.05 1.79 -3.55 4.01 2.06z"/>
  <path id="48" class="fil0" d="M1058.51 37.57c0,2.7 -0.99,5.38 -2.98,8.05 -2.21,2.97 -4.77,4.47 -7.67,4.47 -1.08,0 -2.19,-0.13 -3.33,-0.37 -0.83,-0.18 -1.91,-0.48 -3.25,-0.92 -1.06,-0.37 -2.12,-0.73 -3.17,-1.09l0.41 -0.86c0.91,0.21 1.87,0.44 2.87,0.68 1,0.24 1.9,0.36 2.7,0.36 1.98,0 3.87,-0.51 5.64,-1.53 1.39,-0.81 2.77,-1.97 4.15,-3.5 0.7,-0.78 1.7,-2.03 2.98,-3.78 -2.2,0 -3.85,-0.35 -4.94,-1.05 -1.24,-0.8 -1.86,-2.12 -1.86,-3.95 0,-1.69 0.39,-3.26 1.17,-4.7 0.92,-1.66 2.08,-2.5 3.48,-2.5 1.42,0 2.44,0.83 3.07,2.49 0.49,1.29 0.73,3.09 0.73,5.4l0 2.8zm-1.55 -2.69c-0.36,-1.57 -0.79,-2.65 -1.3,-3.26 -0.43,-0.53 -0.98,-0.79 -1.61,-0.79 -0.46,0 -0.86,0.15 -1.19,0.45 -0.33,0.31 -0.5,0.69 -0.5,1.14 0,0.81 0.36,1.42 1.07,1.84 0.72,0.42 1.9,0.62 3.53,0.62z"/>
  <path id="49" class="fil0" d="M1070.72 39.08l-13.9 0 0 -4.25 12.15 0c0,-1.91 -0.23,-3.37 -0.69,-4.38 -0.31,-0.7 -1.08,-1.7 -2.31,-3.02l1.92 -4c1.16,1.49 1.89,2.64 2.18,3.47 0.43,1.25 0.65,3.32 0.65,6.23l0 5.95zm-0.25 4.8l-1.8 3.56 -4 -2.05 1.85 -3.55 3.95 2.04zm-5.55 2.26l-1.81 3.5 -3.99 -2.08 1.88 -3.53 3.92 2.11z"/>
 </g>
</svg>
