<?xml version="1.0" encoding="UTF-8"?>
<!DOCTYPE svg PUBLIC "-//W3C//DTD SVG 1.1//EN" "http://www.w3.org/Graphics/SVG/1.1/DTD/svg11.dtd">
<!-- Creator: CorelDRAW 2018 (64-Bit) -->
<svg xmlns="http://www.w3.org/2000/svg" xml:space="preserve" width="709px" height="59px" version="1.1" style="shape-rendering:geometricPrecision; text-rendering:geometricPrecision; image-rendering:optimizeQuality; fill-rule:evenodd; clip-rule:evenodd"
viewBox="0 0 709 59.08"
 xmlns:xlink="http://www.w3.org/1999/xlink">
 <defs>
  <style type="text/css">
   <![CDATA[
    .fil0 {fill:#2B2A29;fill-rule:nonzero}
   ]]>
  </style>
 </defs>
 <g id="Layer_x0020_1">
  <metadata id="CorelCorpID_0Corel-Layer"/>
  <path class="fil0" d="M25.07 39.96c0,1.79 -0.76,3.65 -2.3,5.58 -1.33,1.69 -2.99,3.15 -4.98,4.37 -1.89,1.18 -3.45,1.76 -4.67,1.76 -1.13,0 -2.33,-0.16 -3.64,-0.49 -1,-0.24 -2.19,-0.63 -3.57,-1.16 -1.17,-0.44 -2.34,-0.88 -3.5,-1.32l0.42 -0.98c1.08,0.22 2.19,0.44 3.36,0.66 1.17,0.23 2.23,0.34 3.17,0.34 2.08,0 4.26,-0.67 6.53,-2 2.06,-1.22 3.81,-2.77 5.26,-4.63 1.45,-1.87 2.17,-3.55 2.17,-5.05 0,-1.29 -0.37,-2.64 -1.11,-4.06 -0.6,-1.14 -1.45,-2.31 -2.54,-3.52l1.38 -3.85c1.33,1.24 2.32,2.48 2.95,3.72 0.72,1.4 1.07,2.97 1.07,4.69l0 5.94z"/>
  <path id="1" class="fil0" d="M36.57 39.97l-3.43 0c-1.12,0 -2.01,-0.45 -2.68,-1.34 -0.59,-0.79 -1.04,-1.95 -1.34,-3.5 -0.3,-1.54 -0.54,-3.44 -0.7,-5.71 -0.1,-1.83 -0.2,-3.72 -0.31,-5.66 -0.1,-1.93 -0.24,-3.4 -0.41,-4.4 -0.17,-1 -0.41,-1.82 -0.7,-2.45 -0.35,-0.79 -0.85,-1.47 -1.48,-2.05l2.97 -4.76c0.65,1.96 1.11,4.29 1.38,7.01 0.17,1.7 0.33,5.7 0.5,12.01 0.29,2.9 0.72,4.75 1.28,5.57 0.45,0.68 0.95,1.03 1.49,1.03l3.43 0 0 4.25z"/>
  <path id="2" class="fil0" d="M63.11 39.97l-1.87 0c-1.03,0 -1.92,-0.14 -2.66,-0.43 -0.75,-0.28 -1.42,-0.69 -2.04,-1.21 -0.77,0.6 -1.43,1 -2.01,1.2 -0.83,0.29 -1.98,0.44 -3.43,0.44l-1.6 0c-0.85,0 -1.7,-0.17 -2.55,-0.49 -0.55,-0.21 -1.24,-0.56 -2.06,-1.05 -0.78,0.59 -1.5,0.99 -2.15,1.2 -0.65,0.23 -1.71,0.34 -3.18,0.34l-4.71 0 0 -4.25 4.72 0c1.32,0 2.27,-0.12 2.85,-0.35 0.94,-0.37 1.41,-1.12 1.41,-2.24 0,-0.47 -0.02,-0.95 -0.07,-1.42 -0.04,-0.47 -0.14,-1 -0.26,-1.58l0.98 -1.47c0.45,1.5 0.83,2.59 1.13,3.27 0.52,1.19 1.1,2.09 1.72,2.69 0.76,0.73 1.66,1.1 2.71,1.1l1.65 0c1.23,0 2.14,-0.19 2.73,-0.56 0.65,-0.43 0.99,-1.1 0.99,-2.03 0,-0.51 -0.04,-0.99 -0.1,-1.47 -0.06,-0.47 -0.15,-0.98 -0.25,-1.53l0.97 -1.47 0.51 2.3c0.44,1.81 0.98,3.07 1.61,3.77 0.56,0.63 1.3,0.94 2.25,0.94 0.43,0 0.79,-0.14 1.06,-0.41 0.27,-0.27 0.4,-0.62 0.4,-1.04 0,-0.92 -0.34,-1.89 -1,-2.91 -0.12,-0.16 -0.52,-0.7 -1.2,-1.6l1.57 -2.65c0.66,1.01 1.11,1.89 1.35,2.62 0.35,1.11 0.53,2.58 0.53,4.42l0 5.87z"/>
  <path id="3" class="fil0" d="M76.26 39.97l-14.86 0 0 -4.25 8.38 0c1.01,0 1.87,-0.04 2.58,-0.11 0.7,-0.08 1.48,-0.24 2.3,-0.48 -2.8,-0.41 -4.61,-0.78 -5.45,-1.14 -1.87,-0.82 -2.81,-2.19 -2.81,-4.14 0,-1.71 0.45,-3.32 1.34,-4.83 1.02,-1.71 2.25,-2.56 3.7,-2.56 1.67,0 2.92,1.06 3.79,3.17 0.68,1.67 1.03,3.65 1.03,5.93l0 8.41zm-2.2 -8.51c-0.38,-1.31 -0.74,-2.27 -1.08,-2.91 -0.67,-1.23 -1.47,-1.84 -2.42,-1.84 -0.45,0 -0.84,0.18 -1.16,0.54 -0.33,0.36 -0.5,0.79 -0.5,1.27 0,1.24 0.65,2.08 1.93,2.5 0.46,0.15 1.53,0.29 3.23,0.44zm-0.05 -17.54l-1.89 3.54 -3.92 -2.05 1.8 -3.56 4.01 2.07z"/>
  <path id="4" class="fil0" d="M88.45 39.97l-13.91 0 0 -4.25 12.16 0c0,-1.92 -0.24,-3.38 -0.7,-4.39 -0.31,-0.7 -1.07,-1.7 -2.31,-3.02l1.93 -4c1.16,1.48 1.88,2.64 2.18,3.47 0.43,1.25 0.65,3.33 0.65,6.23l0 5.96zm-0.15 -24.16l-1.81 3.55 -4 -2.05 1.85 -3.55 3.96 2.05zm-5.56 2.25l-1.81 3.5 -3.99 -2.08 1.88 -3.52 3.92 2.1z"/>
  <path id="5" class="fil0" d="M115.02 39.97l-1.87 0c-1.03,0 -1.92,-0.14 -2.66,-0.43 -0.75,-0.28 -1.43,-0.69 -2.04,-1.21 -0.77,0.6 -1.44,1 -2.01,1.2 -0.84,0.29 -1.98,0.44 -3.44,0.44l-1.59 0c-0.85,0 -1.7,-0.17 -2.55,-0.49 -0.55,-0.21 -1.24,-0.56 -2.06,-1.05 -0.78,0.59 -1.5,0.99 -2.15,1.2 -0.65,0.23 -1.71,0.34 -3.18,0.34l-4.72 0 0 -4.25 4.73 0c1.32,0 2.27,-0.12 2.84,-0.35 0.94,-0.37 1.42,-1.12 1.42,-2.24 0,-0.47 -0.02,-0.95 -0.07,-1.42 -0.05,-0.47 -0.14,-1 -0.26,-1.58l0.97 -1.47c0.46,1.5 0.84,2.59 1.14,3.27 0.52,1.19 1.1,2.09 1.71,2.69 0.76,0.73 1.66,1.1 2.71,1.1l1.65 0c1.24,0 2.15,-0.19 2.74,-0.56 0.65,-0.43 0.98,-1.1 0.98,-2.03 0,-0.51 -0.03,-0.99 -0.09,-1.47 -0.07,-0.47 -0.15,-0.98 -0.26,-1.53l0.98 -1.47 0.51 2.3c0.44,1.81 0.97,3.07 1.61,3.77 0.55,0.63 1.3,0.94 2.25,0.94 0.43,0 0.79,-0.14 1.06,-0.41 0.26,-0.27 0.39,-0.62 0.39,-1.04 0,-0.92 -0.33,-1.89 -0.99,-2.91 -0.12,-0.16 -0.52,-0.7 -1.21,-1.6l1.58 -2.65c0.66,1.01 1.11,1.89 1.35,2.62 0.35,1.11 0.53,2.58 0.53,4.42l0 5.87z"/>
  <path id="6" class="fil0" d="M134.93 27.18c0,0.32 -0.01,0.6 -0.05,0.82 -0.03,0.24 -0.1,0.52 -0.24,0.86 -0.91,-2.03 -2.26,-4.12 -4.05,-6.29 -1.98,-2.39 -3.54,-3.59 -4.68,-3.59 -0.25,0 -0.49,0.22 -0.73,0.65 -0.24,0.42 -0.53,0.63 -0.85,0.63 -0.44,0 -1.13,-0.29 -2.08,-0.86 -1.18,-0.72 -2.14,-1.55 -2.85,-2.49 -0.96,-1.28 -1.44,-2.63 -1.44,-4.06 0,-1.03 0.33,-1.54 1,-1.54 1.17,0 3,0.74 5.49,2.22 2.78,1.64 5.12,3.56 7,5.76 2.33,2.69 3.48,5.31 3.48,7.89zm10.14 12.79l-1.5 0c-1.37,0 -2.47,-0.74 -3.32,-2.22 -0.99,-1.78 -1.49,-4.49 -1.49,-8.11 0,-0.26 -0.03,-0.61 -0.09,-1.05 -0.06,-0.44 -0.08,-0.71 -0.08,-0.83 -1.56,4.34 -2.96,7.31 -4.17,8.92 -1.44,1.89 -3.48,3.14 -6.11,3.75 -2.25,0.53 -6.06,0.79 -11.45,0.79l0 -0.7c4.37,-1.32 7.62,-2.45 9.76,-3.41 3.45,-1.54 6.08,-3.3 7.86,-5.3 2.16,-2.4 3.24,-5.25 3.24,-8.55 0,-1.59 -0.1,-3.08 -0.3,-4.46 -0.2,-1.38 -0.48,-2.8 -0.83,-4.24l0.8 -2.07c0.33,-0.8 0.63,-1.48 0.9,-2.04 0.43,2.35 0.84,4.88 1.21,7.59 0.27,1.88 0.52,3.89 0.77,6.04 0.31,2.63 0.58,4.75 0.81,6.37 0.29,2.05 0.73,3.51 1.32,4.39 0.4,0.58 0.79,0.88 1.18,0.88l1.49 0 0 4.25zm-18.51 9.39c0,0.41 -0.25,0.78 -0.76,1.1 -0.34,0.22 -0.85,0.45 -1.54,0.69l-4.55 1.57c0,-0.76 0.83,-1.41 2.47,-1.99 -0.51,-0.27 -0.89,-0.52 -1.15,-0.76 -0.34,-0.31 -0.52,-0.64 -0.52,-0.98 0,-0.51 0.43,-1.23 1.3,-2.14 0.97,-1.02 1.82,-1.53 2.55,-1.53 0.33,0 0.61,0.11 0.84,0.33 0.25,0.23 0.36,0.52 0.36,0.89 0,0.23 -0.05,0.46 -0.15,0.71 -0.09,0.23 -0.23,0.5 -0.41,0.8 -0.5,-0.45 -1.05,-0.68 -1.65,-0.68 -0.36,0 -0.71,0.08 -1.06,0.22 -0.35,0.15 -0.53,0.31 -0.53,0.51 0,0.24 0.38,0.57 1.14,0.99 0.75,0.42 1.4,0.63 1.93,0.63 0.36,0 0.62,-0.01 0.78,-0.03 0.15,-0.03 0.47,-0.13 0.95,-0.33z"/>
  <path id="7" class="fil0" d="M155.41 39.97l-12.05 0 0 -4.25 9.6 0 -3 -20.78 -1.25 -0.6c0,-1.12 0.1,-2.17 0.29,-3.15 0.2,-0.98 0.49,-1.94 0.88,-2.85l0.38 0.26c0,0.95 0.53,1.65 1.61,2.13 0.81,0.32 1.65,0.65 2.49,0.97 0,0.81 -0.07,1.67 -0.2,2.59 -0.13,0.93 -0.28,1.61 -0.47,2.06l-1.18 -0.39 2.9 19.21 0 4.8z"/>
  <path id="8" class="fil0" d="M176.06 1.36c0,0.74 -0.41,1.46 -1.24,2.15 -1.48,0.6 -3.85,1.55 -7.11,2.85 0,-0.71 0.36,-1.39 1.07,-2.05 1.35,-0.56 3.78,-1.54 7.28,-2.95zm0 3.7c0,0.78 -0.11,1.25 -0.33,1.44 -0.22,0.19 -0.52,0.44 -0.89,0.76 -1.5,0.6 -3.87,1.55 -7.13,2.85 0,-0.71 0.36,-1.39 1.07,-2.05 1.35,-0.56 3.78,-1.56 7.28,-3z"/>
  <path id="9" class="fil0" d="M180.82 39.97l-3.44 0c-1.12,0 -2.01,-0.45 -2.68,-1.34 -0.59,-0.79 -1.04,-1.95 -1.34,-3.5 -0.3,-1.54 -0.53,-3.44 -0.7,-5.71 -0.1,-1.83 -0.2,-3.72 -0.31,-5.66 -0.1,-1.93 -0.24,-3.4 -0.41,-4.4 -0.17,-1 -0.4,-1.82 -0.7,-2.45 -0.35,-0.79 -0.85,-1.47 -1.48,-2.05l2.98 -4.76c0.65,1.96 1.1,4.29 1.37,7.01 0.17,1.7 0.33,5.7 0.5,12.01 0.29,2.9 0.72,4.75 1.28,5.57 0.46,0.68 0.96,1.03 1.49,1.03l3.44 0 0 4.25z"/>
  <path id="10" class="fil0" d="M207.35 39.97l-1.87 0c-1.03,0 -1.91,-0.14 -2.66,-0.43 -0.75,-0.28 -1.42,-0.69 -2.04,-1.21 -0.77,0.6 -1.43,1 -2.01,1.2 -0.83,0.29 -1.97,0.44 -3.43,0.44l-1.6 0c-0.84,0 -1.7,-0.17 -2.55,-0.49 -0.55,-0.21 -1.24,-0.56 -2.05,-1.05 -0.79,0.59 -1.51,0.99 -2.16,1.2 -0.65,0.23 -1.71,0.34 -3.17,0.34l-4.72 0 0 -4.25 4.73 0c1.31,0 2.26,-0.12 2.84,-0.35 0.94,-0.37 1.42,-1.12 1.42,-2.24 0,-0.47 -0.03,-0.95 -0.08,-1.42 -0.04,-0.47 -0.13,-1 -0.26,-1.58l0.98 -1.47c0.46,1.5 0.83,2.59 1.13,3.27 0.53,1.19 1.1,2.09 1.72,2.69 0.76,0.73 1.66,1.1 2.71,1.1l1.65 0c1.23,0 2.14,-0.19 2.73,-0.56 0.65,-0.43 0.99,-1.1 0.99,-2.03 0,-0.51 -0.04,-0.99 -0.09,-1.47 -0.07,-0.47 -0.15,-0.98 -0.26,-1.53l0.97 -1.47 0.51 2.3c0.44,1.81 0.98,3.07 1.61,3.77 0.56,0.63 1.3,0.94 2.25,0.94 0.44,0 0.79,-0.14 1.06,-0.41 0.27,-0.27 0.4,-0.62 0.4,-1.04 0,-0.92 -0.33,-1.89 -1,-2.91 -0.12,-0.16 -0.52,-0.7 -1.2,-1.6l1.58 -2.65c0.65,1.01 1.1,1.89 1.35,2.62 0.35,1.11 0.52,2.58 0.52,4.42l0 5.87z"/>
  <path id="11" class="fil0" d="M218.85 39.97l-3.44 0c-1.11,0 -2.01,-0.45 -2.67,-1.34 -0.59,-0.79 -1.04,-1.95 -1.34,-3.5 -0.3,-1.54 -0.54,-3.44 -0.71,-5.71 -0.09,-1.83 -0.19,-3.72 -0.3,-5.66 -0.1,-1.93 -0.24,-3.4 -0.41,-4.4 -0.18,-1 -0.41,-1.82 -0.7,-2.45 -0.35,-0.79 -0.85,-1.47 -1.49,-2.05l2.98 -4.76c0.65,1.96 1.11,4.29 1.38,7.01 0.16,1.7 0.33,5.7 0.5,12.01 0.29,2.9 0.71,4.75 1.27,5.57 0.46,0.68 0.96,1.03 1.49,1.03l3.44 0 0 4.25z"/>
  <path id="12" class="fil0" d="M245.39 39.97l-1.87 0c-1.03,0 -1.92,-0.14 -2.66,-0.43 -0.75,-0.28 -1.43,-0.69 -2.04,-1.21 -0.77,0.6 -1.44,1 -2.01,1.2 -0.84,0.29 -1.98,0.44 -3.44,0.44l-1.59 0c-0.85,0 -1.7,-0.17 -2.55,-0.49 -0.55,-0.21 -1.24,-0.56 -2.06,-1.05 -0.79,0.59 -1.5,0.99 -2.15,1.2 -0.65,0.23 -1.71,0.34 -3.18,0.34l-4.72 0 0 -4.25 4.73 0c1.32,0 2.27,-0.12 2.84,-0.35 0.94,-0.37 1.42,-1.12 1.42,-2.24 0,-0.47 -0.03,-0.95 -0.07,-1.42 -0.05,-0.47 -0.14,-1 -0.26,-1.58l0.97 -1.47c0.46,1.5 0.84,2.59 1.14,3.27 0.52,1.19 1.1,2.09 1.71,2.69 0.76,0.73 1.66,1.1 2.71,1.1l1.65 0c1.24,0 2.15,-0.19 2.74,-0.56 0.65,-0.43 0.98,-1.1 0.98,-2.03 0,-0.51 -0.03,-0.99 -0.09,-1.47 -0.07,-0.47 -0.15,-0.98 -0.26,-1.53l0.98 -1.47 0.51 2.3c0.44,1.81 0.97,3.07 1.61,3.77 0.55,0.63 1.3,0.94 2.25,0.94 0.43,0 0.79,-0.14 1.06,-0.41 0.26,-0.27 0.39,-0.62 0.39,-1.04 0,-0.92 -0.33,-1.89 -0.99,-2.91 -0.12,-0.16 -0.52,-0.7 -1.21,-1.6l1.58 -2.65c0.66,1.01 1.11,1.89 1.35,2.62 0.35,1.11 0.53,2.58 0.53,4.42l0 5.87z"/>
  <path id="13" class="fil0" d="M253.63 33.73c0,1.3 -0.24,2.57 -0.72,3.79 -0.24,0.65 -0.78,1.68 -1.6,3.1l-0.45 -0.24c0.06,-0.48 0.11,-1.02 0.15,-1.65 0.05,-0.61 0.07,-1.03 0.07,-1.24 0,-1.69 -0.13,-4.06 -0.4,-7.09 -0.28,-3.04 -0.59,-6.21 -0.97,-9.52 -0.23,-2 -0.48,-4.04 -0.76,-6.12 0.33,-0.72 0.7,-1.49 1.12,-2.32 0.42,-0.83 0.81,-1.6 1.19,-2.34 0.25,1.85 0.59,4.4 0.99,7.62 0.4,3.22 0.72,6.12 0.94,8.72 0.29,3.22 0.44,5.65 0.44,7.29zm0.7 -26.59c0,0.41 -0.25,0.78 -0.76,1.1 -0.34,0.22 -0.86,0.45 -1.54,0.69l-4.55 1.57c0,-0.75 0.82,-1.41 2.47,-1.99 -0.51,-0.27 -0.9,-0.51 -1.15,-0.76 -0.35,-0.31 -0.52,-0.64 -0.52,-0.99 0,-0.5 0.43,-1.22 1.3,-2.13 0.97,-1.02 1.82,-1.53 2.55,-1.53 0.33,0 0.61,0.11 0.84,0.33 0.24,0.23 0.36,0.52 0.36,0.89 0,0.23 -0.05,0.46 -0.15,0.71 -0.09,0.23 -0.23,0.5 -0.42,0.8 -0.5,-0.45 -1.05,-0.68 -1.64,-0.68 -0.36,0 -0.72,0.08 -1.07,0.22 -0.34,0.15 -0.52,0.31 -0.52,0.51 0,0.24 0.37,0.57 1.13,0.99 0.76,0.42 1.4,0.63 1.94,0.63 0.36,0 0.61,-0.01 0.77,-0.03 0.15,-0.03 0.48,-0.13 0.96,-0.33z"/>
  <path id="14" class="fil0" d="M305.3 39.97l-23.3 0c-3.13,0 -5.62,-0.54 -7.47,-1.64 -2.33,-1.37 -3.5,-3.51 -3.5,-6.42 0,-1.52 0.34,-3.07 1.03,-4.65 0.24,-0.57 0.82,-1.66 1.75,-3.25l0.72 0.47c-0.35,0.75 -0.7,1.49 -1.04,2.24 -0.47,1.16 -0.71,2.19 -0.71,3.11 0,1.92 1.01,3.41 3.03,4.47 1.81,0.94 4.09,1.42 6.86,1.42l20.68 0 0 -0.66c0,-1.83 -0.22,-3.31 -0.66,-4.45 -0.44,-1.16 -1.19,-2.13 -2.24,-2.95l1.87 -4c0.73,0.89 1.16,1.46 1.3,1.68 1.12,1.83 1.68,4.49 1.68,7.97l0 6.66zm-11.51 -22.26l-1.8 3.55 -4 -2.05 1.85 -3.55 3.95 2.05zm-5.55 2.25l-1.81 3.5 -3.99 -2.08 1.88 -3.52 3.92 2.1z"/>
  <path id="15" class="fil0" d="M322.17 39.97l-10.91 0c-0.93,0 -1.76,-0.27 -2.5,-0.81 -0.73,-0.53 -1.11,-1.17 -1.11,-1.9 0,-0.62 0.03,-1.18 0.1,-1.69 0.07,-0.5 0.19,-1.05 0.37,-1.65l0.5 0c0.18,0.66 0.51,1.14 0.97,1.43 0.39,0.24 0.94,0.37 1.62,0.37l9.46 0c0,-2.92 -0.41,-5.26 -1.22,-7.04 -1.02,-2.21 -2.71,-3.69 -5.08,-4.42l0.38 -4.75c2.82,1.38 4.82,3.59 6,6.63 0.95,2.44 1.42,5.63 1.42,9.58l0 4.25zm-6.5 -28.75l-1.88 3.54 -3.92 -2.05 1.79 -3.56 4.01 2.07z"/>
  <path id="16" class="fil0" d="M348.7 39.97l-28.21 0 0 -4.25 19.91 0c-1.66,-1.3 -3.06,-2.3 -4.2,-3.01 -1.42,-0.9 -2.71,-1.55 -3.89,-1.96 -1.32,-0.46 -2.65,-0.69 -4,-0.69 -0.83,0 -1.67,0.06 -2.52,0.18 0.48,-1.2 1.09,-2.17 1.86,-2.9 1.1,-1.05 2.5,-1.58 4.2,-1.58 1.66,0 3.62,0.82 5.89,2.44 1.12,0.81 2.95,2.36 5.49,4.64 1.97,1.77 3.3,2.73 4.01,2.88l1.46 0 0 4.25zm-11.75 -22.75l-1.89 3.54 -3.92 -2.04 1.8 -3.56 4.01 2.06z"/>
  <path id="17" class="fil0" d="M360.9 39.97l-13.91 0 0 -4.25 12.16 0c0,-1.92 -0.24,-3.38 -0.69,-4.39 -0.31,-0.7 -1.08,-1.7 -2.31,-3.02l1.92 -4c1.16,1.48 1.89,2.64 2.18,3.47 0.43,1.25 0.65,3.33 0.65,6.23l0 5.96zm-0.15 -24.16l-1.8 3.55 -4 -2.05 1.85 -3.55 3.95 2.05zm-5.55 2.25l-1.81 3.5 -4 -2.08 1.89 -3.52 3.92 2.1z"/>
  <path id="18" class="fil0" d="M369.16 33.73c0,1.3 -0.24,2.57 -0.72,3.79 -0.25,0.65 -0.78,1.68 -1.61,3.1l-0.44 -0.24c0.06,-0.48 0.11,-1.02 0.15,-1.65 0.04,-0.61 0.07,-1.03 0.07,-1.24 0,-1.69 -0.13,-4.06 -0.4,-7.09 -0.28,-3.04 -0.59,-6.21 -0.97,-9.52 -0.23,-2 -0.48,-4.04 -0.76,-6.12 0.33,-0.72 0.7,-1.49 1.12,-2.32 0.42,-0.83 0.81,-1.6 1.18,-2.34 0.26,1.85 0.6,4.4 1,7.62 0.4,3.22 0.71,6.12 0.94,8.72 0.29,3.22 0.44,5.65 0.44,7.29z"/>
  <path id="19" class="fil0" d="M414.57 39.97l-4.26 0c-2.51,0 -4.39,0.06 -5.65,0.2 -1.26,0.12 -1.89,0.39 -1.89,0.78 0,0.54 0.76,0.82 2.27,0.82 0.67,0 1.2,0.01 1.59,0.05 0.39,0.03 1.25,0.11 2.57,0.27 0.78,0.1 1.32,0.21 1.61,0.36 0.48,0.24 0.71,0.67 0.71,1.27 0,3.04 -1,5.25 -3,6.64 -2.18,1.51 -5.78,2.26 -10.81,2.26 -3.5,0 -6.29,-0.59 -8.36,-1.78 -2.19,-1.27 -3.29,-3.08 -3.29,-5.42 0,-1.88 0.52,-3.88 1.55,-6 0.37,-0.76 1.34,-2.4 2.93,-4.9l0.97 0.48c-0.61,1.05 -1.21,2.1 -1.81,3.14 -0.93,1.79 -1.39,3.25 -1.39,4.39 0,2 1.04,3.52 3.13,4.56 1.99,0.99 4.72,1.48 8.19,1.48 2.34,0 4.39,-0.17 6.16,-0.53 2.19,-0.44 3.28,-1.04 3.28,-1.8 0,-0.28 -0.12,-0.49 -0.36,-0.62 -0.26,-0.14 -0.66,-0.21 -1.24,-0.21 -0.44,-0.05 -1.13,-0.1 -2.07,-0.16 -0.95,-0.05 -1.56,-0.08 -1.86,-0.08 -1.03,0 -1.76,-0.13 -2.2,-0.4 -0.45,-0.27 -0.67,-0.67 -0.67,-1.21 0,-2.02 0.59,-3.68 1.78,-4.96 0.98,-1.04 2.29,-1.82 3.94,-2.33 1.23,-0.37 2.54,-0.55 3.91,-0.55l4.27 0 0 4.25zm-10.1 15.65l-2.27 2.11 -2.73 -1.75 2.19 -2.31 2.81 1.95zm-5.05 0l-2.22 2.11 -2.84 -1.75 2.27 -2.31 2.79 1.95z"/>
  <path id="20" class="fil0" d="M426.8 39.97l-13.91 0 0 -4.25 12.16 0c0,-1.92 -0.24,-3.38 -0.7,-4.39 -0.3,-0.7 -1.07,-1.7 -2.3,-3.02l1.92 -4c1.16,1.48 1.88,2.64 2.18,3.47 0.43,1.25 0.65,3.33 0.65,6.23l0 5.96zm-0.15 -24.16l-1.8 3.55 -4.01 -2.05 1.86 -3.55 3.95 2.05zm-5.56 2.25l-1.81 3.5 -3.99 -2.08 1.89 -3.52 3.91 2.1z"/>
  <path id="21" class="fil0" d="M437.16 39.97l-12.06 0 0 -4.25 9.61 0 -3 -20.78 -1.25 -0.6c0,-1.12 0.1,-2.17 0.29,-3.15 0.2,-0.98 0.49,-1.94 0.88,-2.85l0.38 0.26c0,0.95 0.53,1.65 1.61,2.13 0.81,0.32 1.65,0.65 2.49,0.97 0,0.81 -0.07,1.67 -0.2,2.59 -0.13,0.93 -0.28,1.61 -0.47,2.06l-1.18 -0.39 2.9 19.21 0 4.8z"/>
  <path id="22" class="fil0" d="M445.41 33.73c0,1.3 -0.24,2.57 -0.71,3.79 -0.25,0.65 -0.79,1.68 -1.61,3.1l-0.44 -0.24c0.05,-0.48 0.1,-1.02 0.15,-1.65 0.04,-0.61 0.06,-1.03 0.06,-1.24 0,-1.69 -0.13,-4.06 -0.4,-7.09 -0.27,-3.04 -0.59,-6.21 -0.96,-9.52 -0.24,-2 -0.49,-4.04 -0.76,-6.12 0.32,-0.72 0.7,-1.49 1.11,-2.32 0.42,-0.83 0.81,-1.6 1.19,-2.34 0.26,1.85 0.59,4.4 0.99,7.62 0.4,3.22 0.72,6.12 0.94,8.72 0.29,3.22 0.44,5.65 0.44,7.29z"/>
  <path id="23" class="fil0" d="M480.17 39.97l-3.49 0c-1.17,0 -2.2,-1 -3.1,-3 -0.67,-1.5 -1.2,-3.42 -1.61,-5.77 -0.48,0.91 -1.11,1.61 -1.85,2.11 -0.75,0.5 -1.54,0.76 -2.37,0.76 -1.87,0 -3.43,-0.13 -4.67,-0.38 -1.24,-0.26 -1.87,-0.57 -1.87,-0.97 0,-1.4 0.91,-2.95 2.73,-4.65 1.81,-1.7 4.08,-3.19 6.8,-4.46 -0.03,-0.13 -0.1,-0.47 -0.21,-1.02 -0.1,-0.56 -0.16,-0.9 -0.16,-1.02 0,-0.56 0.19,-1.18 0.57,-1.85 0.32,-0.56 0.74,-1.13 1.25,-1.71 0.17,1.01 0.34,1.98 0.5,2.92 0.18,0.95 0.37,1.92 0.6,2.93l0.73 4.19c0.41,2.31 0.77,4.02 1.1,5.13 0.51,1.69 1.03,2.54 1.57,2.54l3.48 0 0 4.25zm-8.53 -10.9l-0.47 -2.66c-1.4,0.51 -2.51,1.04 -3.32,1.58 -0.81,0.54 -1.48,1.26 -2.03,2.16 0.34,0.15 0.73,0.26 1.19,0.34 0.45,0.08 1.07,0.12 1.87,0.12 0.96,0 1.89,-0.51 2.76,-1.54zm2.28 -18.37l-1.8 3.56 -4 -2.05 1.85 -3.56 3.95 2.05zm-5.55 2.26l-1.81 3.5 -4 -2.08 1.89 -3.53 3.92 2.11z"/>
  <path id="24" class="fil0" d="M492.38 39.97l-13.91 0 0 -4.25 12.16 0c0,-1.92 -0.24,-3.38 -0.69,-4.39 -0.31,-0.7 -1.08,-1.7 -2.31,-3.02l1.92 -4c1.16,1.48 1.89,2.64 2.18,3.47 0.43,1.25 0.65,3.33 0.65,6.23l0 5.96zm-0.25 4.8l-1.8 3.55 -4 -2.05 1.85 -3.55 3.95 2.05zm-5.55 2.25l-1.81 3.5 -4 -2.07 1.89 -3.53 3.92 2.1z"/>
  <path id="25" class="fil0" d="M514 38.45c0,2.7 -1,5.39 -2.99,8.05 -2.21,2.98 -4.77,4.47 -7.67,4.47 -1.07,0 -2.18,-0.12 -3.32,-0.36 -0.84,-0.18 -1.92,-0.49 -3.26,-0.92 -1.06,-0.38 -2.11,-0.73 -3.17,-1.09l0.41 -0.86c0.91,0.21 1.87,0.43 2.87,0.67 1,0.25 1.9,0.36 2.7,0.36 1.99,0 3.87,-0.51 5.65,-1.52 1.38,-0.81 2.77,-1.98 4.15,-3.5 0.7,-0.78 1.69,-2.04 2.98,-3.78 -2.21,0 -3.86,-0.35 -4.95,-1.06 -1.24,-0.8 -1.86,-2.12 -1.86,-3.95 0,-1.69 0.39,-3.25 1.18,-4.7 0.92,-1.66 2.07,-2.5 3.48,-2.5 1.42,0 2.44,0.83 3.06,2.49 0.49,1.29 0.74,3.09 0.74,5.4l0 2.8zm-1.55 -2.68c-0.36,-1.58 -0.8,-2.66 -1.3,-3.27 -0.44,-0.53 -0.98,-0.79 -1.61,-0.79 -0.46,0 -0.86,0.15 -1.2,0.45 -0.33,0.31 -0.5,0.69 -0.5,1.15 0,0.8 0.36,1.41 1.08,1.83 0.72,0.42 1.89,0.63 3.53,0.63z"/>
  <path id="26" class="fil0" d="M533.71 39.97l-8.93 0c1.04,0.49 1.91,1.18 2.65,2.08 0.92,1.13 1.38,2.35 1.38,3.67 0,1.27 -0.19,2.29 -0.58,3.06 -0.49,0.96 -1.25,1.44 -2.29,1.44 -1.95,0 -3.74,-0.67 -5.36,-2.03 -1.95,-1.63 -2.92,-3.79 -2.92,-6.46l0.05 -1.76 -5.41 0 0 -4.25 6.21 0c0.56,-1.52 1.19,-2.92 1.87,-4.22 0.86,-1.65 1.77,-2.99 2.71,-4.03 1.09,-1.21 2.11,-1.81 3.07,-1.81 0.5,0 0.94,0.44 1.33,1.32 0.38,0.87 0.57,1.82 0.57,2.81 0,1.42 -0.37,2.59 -1.12,3.48 -0.44,0.54 -1.76,1.35 -3.95,2.45l10.72 0 0 4.25zm-8.05 -8.38c0,-1.55 -0.33,-2.33 -0.98,-2.33 -0.7,0 -1.54,0.77 -2.51,2.3 -0.48,0.74 -1.14,1.95 -2.01,3.66 1.48,-0.4 2.73,-0.91 3.74,-1.53 1.18,-0.72 1.76,-1.42 1.76,-2.1zm0.95 13.73c0,-1.29 -0.94,-2.53 -2.83,-3.72 -1.55,-0.97 -3.07,-1.59 -4.57,-1.85 0,1.79 0.43,3.26 1.29,4.42 1.04,1.4 2.6,2.1 4.67,2.1 0.39,0 0.73,-0.08 1.02,-0.24 0.28,-0.17 0.42,-0.4 0.42,-0.71z"/>
  <path id="27" class="fil0" d="M544.07 39.97l-12.06 0 0 -4.25 9.61 0 -3 -20.78 -1.25 -0.6c0,-1.12 0.1,-2.17 0.29,-3.15 0.2,-0.98 0.49,-1.94 0.88,-2.85l0.38 0.26c0,0.95 0.53,1.65 1.61,2.13 0.81,0.32 1.65,0.65 2.49,0.97 0,0.81 -0.07,1.67 -0.2,2.59 -0.13,0.93 -0.28,1.61 -0.47,2.06l-1.18 -0.39 2.9 19.21 0 4.8z"/>
  <path id="28" class="fil0" d="M552.32 33.73c0,1.3 -0.24,2.57 -0.71,3.79 -0.25,0.65 -0.79,1.68 -1.61,3.1l-0.44 -0.24c0.05,-0.48 0.1,-1.02 0.15,-1.65 0.04,-0.61 0.06,-1.03 0.06,-1.24 0,-1.69 -0.13,-4.06 -0.4,-7.09 -0.27,-3.04 -0.59,-6.21 -0.97,-9.52 -0.23,-2 -0.48,-4.04 -0.75,-6.12 0.32,-0.72 0.7,-1.49 1.11,-2.32 0.42,-0.83 0.81,-1.6 1.19,-2.34 0.26,1.85 0.59,4.4 0.99,7.62 0.4,3.22 0.72,6.12 0.94,8.72 0.29,3.22 0.44,5.65 0.44,7.29z"/>
  <path id="29" class="fil0" d="M603.99 39.97l-23.3 0c-3.13,0 -5.61,-0.54 -7.47,-1.64 -2.33,-1.37 -3.5,-3.51 -3.5,-6.42 0,-1.52 0.35,-3.07 1.03,-4.65 0.24,-0.57 0.82,-1.66 1.75,-3.25l0.73 0.47c-0.36,0.75 -0.71,1.49 -1.05,2.24 -0.47,1.16 -0.71,2.19 -0.71,3.11 0,1.92 1.01,3.41 3.03,4.47 1.81,0.94 4.09,1.42 6.86,1.42l20.68 0 0 -0.66c0,-1.83 -0.22,-3.31 -0.66,-4.45 -0.44,-1.16 -1.18,-2.13 -2.24,-2.95l1.87 -4c0.73,0.89 1.16,1.46 1.3,1.68 1.12,1.83 1.68,4.49 1.68,7.97l0 6.66zm-11.51 -22.26l-1.8 3.55 -4 -2.05 1.85 -3.55 3.95 2.05zm-5.55 2.25l-1.81 3.5 -3.99 -2.08 1.88 -3.52 3.92 2.1z"/>
  <path id="30" class="fil0" d="M615.51 39.97l-3.43 0c-1.12,0 -2.01,-0.45 -2.68,-1.34 -0.59,-0.79 -1.04,-1.95 -1.34,-3.5 -0.3,-1.54 -0.54,-3.44 -0.7,-5.71 -0.1,-1.83 -0.2,-3.72 -0.31,-5.66 -0.1,-1.93 -0.24,-3.4 -0.41,-4.4 -0.17,-1 -0.41,-1.82 -0.7,-2.45 -0.35,-0.79 -0.85,-1.47 -1.48,-2.05l2.97 -4.76c0.65,1.96 1.11,4.29 1.38,7.01 0.17,1.7 0.33,5.7 0.5,12.01 0.29,2.9 0.72,4.75 1.27,5.57 0.46,0.68 0.96,1.03 1.5,1.03l3.43 0 0 4.25z"/>
  <path id="31" class="fil0" d="M635.2 39.97l-2.54 0c-1.09,0 -2.32,-0.25 -3.68,-0.74 -1.58,-0.57 -2.96,-1.36 -4.17,-2.36 -0.94,1.16 -1.91,1.97 -2.9,2.42 -0.98,0.45 -2.42,0.68 -4.31,0.68l-3.81 0 0 -4.25 3.73 0c1.48,0 2.8,-0.38 3.95,-1.13 0.9,-0.59 1.71,-1.41 2.45,-2.48 0.99,-1.43 2.21,-2.68 3.66,-3.74 1.3,-0.94 2.5,-1.55 3.59,-1.81 1.12,1.71 2.02,3.25 2.68,4.63 0.9,1.86 1.35,3.37 1.35,4.52l0 4.26zm-2.81 -4.82c-0.2,-0.95 -0.53,-1.88 -0.97,-2.8 -0.38,-0.78 -0.88,-1.57 -1.49,-2.39 -0.78,0.2 -1.44,0.57 -1.97,1.11 -0.36,0.34 -0.78,0.93 -1.27,1.74 0.58,0.65 1.41,1.21 2.48,1.72 1.06,0.51 2.07,0.82 3.01,0.94l0.21 -0.32z"/>
  <path id="32" class="fil0" d="M656.81 38.45c0,2.7 -1,5.39 -2.99,8.05 -2.21,2.98 -4.77,4.47 -7.67,4.47 -1.07,0 -2.18,-0.12 -3.33,-0.36 -0.83,-0.18 -1.91,-0.49 -3.25,-0.92 -1.06,-0.38 -2.12,-0.73 -3.17,-1.09l0.41 -0.86c0.91,0.21 1.87,0.43 2.87,0.67 1,0.25 1.9,0.36 2.7,0.36 1.99,0 3.87,-0.51 5.65,-1.52 1.38,-0.81 2.76,-1.98 4.15,-3.5 0.7,-0.78 1.69,-2.04 2.97,-3.78 -2.2,0 -3.85,-0.35 -4.94,-1.06 -1.24,-0.8 -1.86,-2.12 -1.86,-3.95 0,-1.69 0.39,-3.25 1.18,-4.7 0.91,-1.66 2.07,-2.5 3.47,-2.5 1.43,0 2.45,0.83 3.07,2.49 0.49,1.29 0.74,3.09 0.74,5.4l0 2.8zm-1.55 -2.68c-0.36,-1.58 -0.8,-2.66 -1.31,-3.27 -0.43,-0.53 -0.97,-0.79 -1.61,-0.79 -0.45,0 -0.85,0.15 -1.19,0.45 -0.33,0.31 -0.5,0.69 -0.5,1.15 0,0.8 0.36,1.41 1.08,1.83 0.72,0.42 1.89,0.63 3.53,0.63z"/>
  <path id="33" class="fil0" d="M667.17 39.97l-12.06 0 0 -4.25 9.61 0 -3 -20.78 -1.25 -0.6c0,-1.12 0.1,-2.17 0.29,-3.15 0.2,-0.98 0.49,-1.94 0.88,-2.85l0.38 0.26c0,0.95 0.53,1.65 1.61,2.13 0.81,0.32 1.65,0.65 2.49,0.97 0,0.81 -0.07,1.67 -0.2,2.59 -0.13,0.93 -0.28,1.61 -0.47,2.06l-1.18 -0.39 2.9 19.21 0 4.8z"/>
  <path id="34" class="fil0" d="M686.88 39.97l-3.59 0c-1.06,0 -2.12,-0.25 -3.21,-0.76 -1.31,-0.6 -2.25,-1.44 -2.83,-2.52 -1.09,0.99 -2.34,1.74 -3.74,2.28 -1.71,0.66 -3.66,1 -5.84,1l-2.2 0 0 -4.25 2.2 0c1.37,0 2.64,-0.15 3.82,-0.45 1.33,-0.33 2.65,-0.87 3.93,-1.62l-1.03 -1.31c-0.53,-0.62 -1.12,-0.93 -1.77,-0.93 -0.3,0 -0.56,0.05 -0.79,0.16 -0.23,0.11 -0.48,0.34 -0.76,0.69l-0.5 0 0 -1.44c0,-1.8 0.48,-3.03 1.42,-3.7 0.86,-0.61 2.35,-0.91 4.48,-0.91 1.84,0 3.34,0.24 4.49,0.74 1.51,0.63 2.27,1.61 2.27,2.93 0,0.7 -0.3,1.43 -0.9,2.18 -0.44,0.55 -1.24,1.31 -2.4,2.3 0.25,0.38 0.75,0.71 1.5,0.96 0.74,0.26 1.35,0.4 1.86,0.4l3.59 0 0 4.25z"/>
  <path id="35" class="fil0" d="M706.59 39.97l-2.54 0c-1.09,0 -2.31,-0.25 -3.68,-0.74 -1.58,-0.57 -2.96,-1.36 -4.17,-2.36 -0.94,1.16 -1.91,1.97 -2.89,2.42 -0.99,0.45 -2.43,0.68 -4.32,0.68l-3.81 0 0 -4.25 3.73 0c1.49,0 2.8,-0.38 3.95,-1.13 0.9,-0.59 1.71,-1.41 2.45,-2.48 0.99,-1.43 2.21,-2.68 3.67,-3.74 1.3,-0.94 2.49,-1.55 3.58,-1.81 1.13,1.71 2.02,3.25 2.68,4.63 0.9,1.86 1.35,3.37 1.35,4.52l0 4.26zm-2.8 -4.82c-0.21,-0.95 -0.54,-1.88 -0.98,-2.8 -0.37,-0.78 -0.88,-1.57 -1.49,-2.39 -0.78,0.2 -1.44,0.57 -1.97,1.11 -0.36,0.34 -0.78,0.93 -1.27,1.74 0.59,0.65 1.41,1.21 2.48,1.72 1.06,0.51 2.07,0.82 3.01,0.94l0.22 -0.32z"/>
 </g>
</svg>
