<?xml version="1.0" encoding="UTF-8"?>
<!DOCTYPE svg PUBLIC "-//W3C//DTD SVG 1.1//EN" "http://www.w3.org/Graphics/SVG/1.1/DTD/svg11.dtd">
<!-- Creator: CorelDRAW 2018 (64-Bit) -->
<svg xmlns="http://www.w3.org/2000/svg" xml:space="preserve" width="514px" height="59px" version="1.1" style="shape-rendering:geometricPrecision; text-rendering:geometricPrecision; image-rendering:optimizeQuality; fill-rule:evenodd; clip-rule:evenodd"
viewBox="0 0 514 59.08"
 xmlns:xlink="http://www.w3.org/1999/xlink">
 <defs>
  <style type="text/css">
   <![CDATA[
    .fil0 {fill:#2B2A29;fill-rule:nonzero}
   ]]>
  </style>
 </defs>
 <g id="Layer_x0020_1">
  <metadata id="CorelCorpID_0Corel-Layer"/>
  <path class="fil0" d="M31.54 36.48l-4.27 0c-2.5,0 -4.39,0.06 -5.65,0.2 -1.26,0.12 -1.89,0.39 -1.89,0.78 0,0.54 0.76,0.82 2.28,0.82 0.66,0 1.19,0.01 1.58,0.05 0.39,0.03 1.25,0.11 2.57,0.26 0.78,0.1 1.32,0.22 1.62,0.37 0.47,0.24 0.7,0.67 0.7,1.27 0,3.04 -1,5.25 -3,6.63 -2.18,1.51 -5.78,2.27 -10.81,2.27 -3.5,0 -6.29,-0.59 -8.35,-1.78 -2.2,-1.27 -3.3,-3.08 -3.3,-5.42 0,-1.89 0.52,-3.89 1.55,-6 0.37,-0.76 1.35,-2.4 2.93,-4.91l0.98 0.49c-0.62,1.05 -1.22,2.1 -1.82,3.14 -0.93,1.78 -1.39,3.24 -1.39,4.39 0,2 1.05,3.51 3.13,4.56 1.99,0.99 4.72,1.48 8.2,1.48 2.33,0 4.38,-0.18 6.16,-0.53 2.18,-0.45 3.27,-1.04 3.27,-1.8 0,-0.28 -0.12,-0.49 -0.36,-0.62 -0.25,-0.14 -0.66,-0.21 -1.24,-0.21 -0.44,-0.05 -1.13,-0.1 -2.07,-0.16 -0.95,-0.06 -1.56,-0.08 -1.85,-0.08 -1.04,0 -1.77,-0.13 -2.21,-0.4 -0.44,-0.28 -0.67,-0.68 -0.67,-1.21 0,-2.03 0.59,-3.68 1.78,-4.96 0.98,-1.04 2.3,-1.82 3.94,-2.33 1.23,-0.37 2.54,-0.56 3.91,-0.56l4.28 0 0 4.26zm-10.11 15.65l-2.27 2.1 -2.73 -1.74 2.19 -2.31 2.81 1.95zm-5.05 0l-2.22 2.1 -2.83 -1.74 2.26 -2.31 2.79 1.95z"/>
  <path id="1" class="fil0" d="M43.76 36.48l-13.91 0 0 -4.26 12.16 0c0,-1.91 -0.24,-3.37 -0.7,-4.38 -0.3,-0.7 -1.07,-1.7 -2.3,-3.02l1.92 -4c1.16,1.48 1.89,2.63 2.18,3.47 0.43,1.25 0.65,3.32 0.65,6.23l0 5.96zm-2.6 -22.28c0,0.42 -0.25,0.78 -0.76,1.11 -0.34,0.22 -0.86,0.44 -1.54,0.68l-4.56 1.58c0,-0.76 0.83,-1.42 2.47,-1.99 -0.51,-0.27 -0.89,-0.52 -1.15,-0.76 -0.34,-0.32 -0.52,-0.64 -0.52,-0.99 0,-0.5 0.44,-1.22 1.3,-2.14 0.97,-1.02 1.82,-1.52 2.56,-1.52 0.32,0 0.6,0.1 0.84,0.33 0.24,0.22 0.36,0.52 0.36,0.88 0,0.24 -0.05,0.47 -0.15,0.71 -0.1,0.24 -0.24,0.51 -0.42,0.8 -0.5,-0.45 -1.05,-0.67 -1.64,-0.67 -0.36,0 -0.72,0.07 -1.07,0.21 -0.35,0.15 -0.53,0.32 -0.53,0.51 0,0.24 0.38,0.58 1.14,0.99 0.76,0.43 1.4,0.64 1.93,0.64 0.36,0 0.62,-0.01 0.78,-0.04 0.15,-0.02 0.47,-0.13 0.96,-0.33z"/>
  <path id="2" class="fil0" d="M55.27 36.48l-3.43 0c-1.12,0 -2.01,-0.45 -2.68,-1.35 -0.59,-0.78 -1.04,-1.94 -1.34,-3.49 -0.3,-1.54 -0.54,-3.44 -0.7,-5.71 -0.1,-1.83 -0.2,-3.72 -0.31,-5.66 -0.1,-1.93 -0.24,-3.4 -0.41,-4.4 -0.18,-1 -0.41,-1.82 -0.7,-2.45 -0.35,-0.79 -0.85,-1.47 -1.48,-2.05l2.97 -4.76c0.65,1.96 1.11,4.29 1.38,7.01 0.16,1.7 0.33,5.7 0.5,12.01 0.29,2.9 0.71,4.75 1.27,5.57 0.46,0.68 0.96,1.02 1.5,1.02l3.43 0 0 4.26z"/>
  <path id="3" class="fil0" d="M67.45 36.48l-13.91 0 0 -4.26 12.16 0c0,-1.91 -0.23,-3.37 -0.69,-4.38 -0.31,-0.7 -1.08,-1.7 -2.31,-3.02l1.92 -4c1.16,1.48 1.89,2.63 2.18,3.47 0.43,1.25 0.65,3.32 0.65,6.23l0 5.96zm-2 -22.6l-1.89 3.54 -3.91 -2.04 1.79 -3.56 4.01 2.06z"/>
  <path id="4" class="fil0" d="M93.97 36.48l-28.21 0 0 -4.26 19.91 0c-1.66,-1.29 -3.06,-2.29 -4.21,-3 -1.41,-0.91 -2.71,-1.55 -3.88,-1.96 -1.32,-0.46 -2.65,-0.69 -4,-0.69 -0.84,0 -1.67,0.06 -2.52,0.18 0.47,-1.2 1.09,-2.17 1.86,-2.9 1.1,-1.05 2.5,-1.58 4.2,-1.58 1.66,0 3.62,0.82 5.89,2.44 1.11,0.81 2.95,2.36 5.49,4.64 1.97,1.77 3.3,2.72 4,2.87l1.47 0 0 4.26zm-12.46 5.27l-1.88 3.53 -3.92 -2.04 1.79 -3.56 4.01 2.07z"/>
  <path id="5" class="fil0" d="M104.31 36.48l-12.05 0 0 -4.26 9.6 0 -3 -20.77 -1.25 -0.6c0,-1.12 0.1,-2.17 0.29,-3.15 0.2,-0.98 0.5,-1.94 0.89,-2.85l0.37 0.26c0,0.95 0.54,1.65 1.61,2.13 0.82,0.32 1.65,0.65 2.49,0.97 0,0.81 -0.06,1.67 -0.2,2.59 -0.12,0.93 -0.28,1.61 -0.46,2.06l-1.19 -0.39 2.9 19.21 0 4.8z"/>
  <path id="6" class="fil0" d="M112.57 30.24c0,1.3 -0.24,2.57 -0.72,3.79 -0.25,0.65 -0.78,1.68 -1.61,3.1l-0.44 -0.24c0.06,-0.48 0.11,-1.02 0.15,-1.65 0.04,-0.61 0.07,-1.03 0.07,-1.24 0,-1.69 -0.14,-4.06 -0.4,-7.09 -0.28,-3.04 -0.6,-6.21 -0.97,-9.52 -0.23,-2 -0.48,-4.04 -0.76,-6.12 0.33,-0.72 0.7,-1.49 1.12,-2.32 0.42,-0.83 0.81,-1.6 1.18,-2.34 0.26,1.86 0.59,4.4 0.99,7.62 0.4,3.22 0.72,6.12 0.95,8.72 0.29,3.21 0.44,5.65 0.44,7.29z"/>
  <path id="7" class="fil0" d="M153.88 33.43c0,2.6 -0.61,4.68 -1.83,6.21 -1.09,1.35 -2.69,2.32 -4.81,2.91 -1.78,0.49 -4.05,0.73 -6.8,0.73 -3.14,0 -5.57,-0.58 -7.3,-1.73 -1.88,-1.27 -2.82,-3.16 -2.82,-5.69 0,-1.4 0.21,-2.85 0.62,-4.37 0.34,-1.28 0.86,-2.69 1.56,-4.22 0.51,-1.11 1.2,-2.44 2.07,-4l0.85 0.46c-0.62,1.09 -1.13,2.07 -1.55,2.93 -0.55,1.15 -0.96,2.18 -1.23,3.09 -0.31,1.1 -0.47,2.17 -0.47,3.22 0,1.99 0.72,3.5 2.18,4.52 1.45,1.03 3.47,1.54 6.06,1.54 2.74,0 5.28,-0.48 7.62,-1.42 2.56,-1.04 3.85,-2.28 3.85,-3.73 0,-1.58 -0.25,-4.26 -0.75,-8.03 -0.38,-2.9 -0.85,-6.14 -1.41,-9.72l-0.79 -4.74 -1.1 -0.58c0,-2.19 0.44,-4.17 1.32,-5.96l0.43 0c0.06,0.61 0.17,1.07 0.33,1.37 0.17,0.3 0.43,0.53 0.8,0.68 0.5,0.21 1.04,0.46 1.63,0.76 0.44,0.2 0.82,0.39 1.14,0.55 0,1.15 -0.04,1.97 -0.13,2.5 -0.07,0.52 -0.24,1.25 -0.48,2.2l-1.39 -0.44c0.03,0.36 0.26,1.99 0.7,4.91 0.51,3.4 0.87,6.17 1.11,8.28 0.4,3.39 0.59,5.98 0.59,7.77z"/>
  <path id="8" class="fil0" d="M180.41 36.48l-28.22 0 0 -4.26 19.91 0c-1.66,-1.29 -3.06,-2.29 -4.2,-3 -1.42,-0.91 -2.71,-1.55 -3.88,-1.96 -1.32,-0.46 -2.65,-0.69 -4.01,-0.69 -0.83,0 -1.66,0.06 -2.51,0.18 0.47,-1.2 1.09,-2.17 1.86,-2.9 1.1,-1.05 2.5,-1.58 4.2,-1.58 1.66,0 3.62,0.82 5.88,2.44 1.12,0.81 2.95,2.36 5.5,4.64 1.96,1.77 3.3,2.72 4,2.87l1.47 0 0 4.26zm-12.46 5.27l-1.88 3.53 -3.92 -2.04 1.79 -3.56 4.01 2.07z"/>
  <path id="9" class="fil0" d="M206.96 36.48l-1.87 0c-1.03,0 -1.92,-0.15 -2.66,-0.43 -0.75,-0.28 -1.42,-0.69 -2.04,-1.21 -0.77,0.6 -1.43,1 -2.01,1.19 -0.83,0.3 -1.98,0.45 -3.43,0.45l-1.6 0c-0.85,0 -1.7,-0.17 -2.55,-0.5 -0.55,-0.2 -1.24,-0.55 -2.06,-1.05 -0.78,0.6 -1.5,1 -2.15,1.21 -0.65,0.23 -1.71,0.34 -3.17,0.34l-4.72 0 0 -4.26 4.72 0c1.32,0 2.27,-0.11 2.85,-0.34 0.94,-0.37 1.41,-1.12 1.41,-2.24 0,-0.47 -0.02,-0.95 -0.07,-1.42 -0.04,-0.47 -0.13,-1 -0.26,-1.58l0.98 -1.47c0.45,1.5 0.83,2.59 1.13,3.27 0.53,1.19 1.1,2.08 1.72,2.68 0.76,0.74 1.66,1.1 2.71,1.1l1.65 0c1.23,0 2.14,-0.18 2.73,-0.55 0.65,-0.43 0.99,-1.1 0.99,-2.03 0,-0.51 -0.04,-0.99 -0.1,-1.47 -0.06,-0.47 -0.15,-0.98 -0.25,-1.53l0.97 -1.47 0.51 2.3c0.44,1.81 0.98,3.07 1.61,3.77 0.56,0.63 1.3,0.94 2.25,0.94 0.43,0 0.79,-0.14 1.06,-0.41 0.27,-0.27 0.4,-0.62 0.4,-1.05 0,-0.91 -0.34,-1.88 -1,-2.9 -0.12,-0.16 -0.52,-0.7 -1.2,-1.6l1.57 -2.65c0.66,1.01 1.11,1.89 1.35,2.62 0.35,1.11 0.53,2.58 0.53,4.42l0 5.87z"/>
  <path id="10" class="fil0" d="M217.31 36.48l-12.06 0 0 -4.26 9.6 0 -3 -20.77 -1.25 -0.6c0,-1.12 0.1,-2.17 0.29,-3.15 0.2,-0.98 0.5,-1.94 0.89,-2.85l0.37 0.26c0,0.95 0.54,1.65 1.61,2.13 0.82,0.32 1.65,0.65 2.49,0.97 0,0.81 -0.06,1.67 -0.2,2.59 -0.12,0.93 -0.28,1.61 -0.46,2.06l-1.19 -0.39 2.91 19.21 0 4.8z"/>
  <path id="11" class="fil0" d="M225.56 30.24c0,1.3 -0.24,2.57 -0.72,3.79 -0.25,0.65 -0.78,1.68 -1.61,3.1l-0.44 -0.24c0.06,-0.48 0.11,-1.02 0.15,-1.65 0.04,-0.61 0.07,-1.03 0.07,-1.24 0,-1.69 -0.14,-4.06 -0.4,-7.09 -0.28,-3.04 -0.6,-6.21 -0.97,-9.52 -0.23,-2 -0.48,-4.04 -0.76,-6.12 0.33,-0.72 0.7,-1.49 1.12,-2.32 0.42,-0.83 0.81,-1.6 1.18,-2.34 0.26,1.86 0.59,4.4 0.99,7.62 0.4,3.22 0.72,6.12 0.95,8.72 0.29,3.21 0.44,5.65 0.44,7.29z"/>
  <path id="12" class="fil0" d="M258.41 36.48l-10.91 0c-0.92,0 -1.76,-0.27 -2.5,-0.81 -0.73,-0.54 -1.11,-1.17 -1.11,-1.9 0,-0.62 0.04,-1.18 0.1,-1.69 0.07,-0.5 0.19,-1.06 0.37,-1.66l0.5 0c0.18,0.67 0.51,1.15 0.97,1.44 0.4,0.24 0.94,0.36 1.62,0.36l9.46 0c0,-2.91 -0.4,-5.26 -1.22,-7.03 -1.02,-2.21 -2.71,-3.69 -5.08,-4.42l0.38 -4.75c2.82,1.38 4.82,3.59 6,6.63 0.95,2.44 1.42,5.63 1.42,9.57l0 4.26z"/>
  <path id="13" class="fil0" d="M270.64 36.48l-13.91 0 0 -4.26 12.16 0c0,-1.91 -0.24,-3.37 -0.7,-4.38 -0.31,-0.7 -1.07,-1.7 -2.31,-3.02l1.93 -4c1.16,1.48 1.88,2.63 2.18,3.47 0.43,1.25 0.65,3.32 0.65,6.23l0 5.96zm-0.25 4.8l-1.8 3.55 -4.01 -2.05 1.85 -3.55 3.96 2.05zm-5.56 2.25l-1.8 3.5 -4 -2.07 1.89 -3.53 3.91 2.1z"/>
  <path id="14" class="fil0" d="M284.05 36.48l-15.11 0 0 -4.26 13.01 0c0,-1.45 -0.17,-2.81 -0.51,-4.08 -0.84,0.28 -1.49,0.48 -1.94,0.59 -0.75,0.19 -1.41,0.29 -1.98,0.29 -1.17,0 -2.14,-0.3 -2.88,-0.9 -0.86,-0.68 -1.29,-1.66 -1.29,-2.95 0,-2.26 0.4,-4.23 1.21,-5.93 0.91,-1.88 2.1,-2.82 3.56,-2.82 1.99,0 3.51,1.55 4.59,4.66 0.89,2.57 1.34,5.58 1.34,9.05l0 6.35zm-4 -12.71c-0.23,-0.59 -0.59,-1.18 -1.09,-1.78 -0.69,-0.81 -1.34,-1.22 -1.96,-1.22 -0.43,0 -0.8,0.18 -1.08,0.55 -0.28,0.37 -0.42,0.8 -0.42,1.3 0,1.3 0.71,1.95 2.14,1.95 0.37,0 0.77,-0.07 1.19,-0.21 0.43,-0.15 0.83,-0.35 1.22,-0.59zm3.1 -15.11l-1.8 3.56 -4 -2.05 1.85 -3.56 3.95 2.05zm-5.55 2.26l-1.81 3.5 -4 -2.08 1.89 -3.53 3.92 2.11z"/>
  <path id="15" class="fil0" d="M322.38 36.47c0,1.79 -0.76,3.65 -2.3,5.58 -1.33,1.69 -2.99,3.15 -4.98,4.37 -1.89,1.18 -3.45,1.76 -4.67,1.76 -1.13,0 -2.34,-0.17 -3.65,-0.49 -0.99,-0.24 -2.18,-0.63 -3.56,-1.16 -1.17,-0.44 -2.34,-0.88 -3.5,-1.33l0.42 -0.97c1.08,0.22 2.19,0.43 3.36,0.66 1.17,0.22 2.23,0.34 3.17,0.34 2.08,0 4.26,-0.67 6.53,-2 2.05,-1.23 3.81,-2.77 5.26,-4.64 1.45,-1.86 2.17,-3.54 2.17,-5.04 0,-1.29 -0.37,-2.64 -1.11,-4.06 -0.6,-1.14 -1.46,-2.31 -2.54,-3.52l1.38 -3.85c1.33,1.24 2.31,2.48 2.95,3.72 0.71,1.4 1.07,2.97 1.07,4.69l0 5.94z"/>
  <path id="16" class="fil0" d="M333.88 36.48l-3.43 0c-1.12,0 -2.01,-0.45 -2.68,-1.35 -0.59,-0.78 -1.04,-1.94 -1.34,-3.49 -0.3,-1.54 -0.54,-3.44 -0.7,-5.71 -0.1,-1.83 -0.2,-3.72 -0.31,-5.66 -0.1,-1.93 -0.24,-3.4 -0.41,-4.4 -0.18,-1 -0.41,-1.82 -0.7,-2.45 -0.35,-0.79 -0.85,-1.47 -1.48,-2.05l2.97 -4.76c0.65,1.96 1.11,4.29 1.38,7.01 0.16,1.7 0.33,5.7 0.5,12.01 0.29,2.9 0.71,4.75 1.27,5.57 0.46,0.68 0.96,1.02 1.5,1.02l3.43 0 0 4.26z"/>
  <path id="17" class="fil0" d="M360.42 36.48l-1.87 0c-1.04,0 -1.92,-0.15 -2.66,-0.43 -0.75,-0.28 -1.43,-0.69 -2.04,-1.21 -0.77,0.6 -1.44,1 -2.01,1.19 -0.84,0.3 -1.98,0.45 -3.44,0.45l-1.59 0c-0.85,0 -1.7,-0.17 -2.55,-0.5 -0.55,-0.2 -1.24,-0.55 -2.06,-1.05 -0.78,0.6 -1.5,1 -2.15,1.21 -0.65,0.23 -1.71,0.34 -3.18,0.34l-4.72 0 0 -4.26 4.73 0c1.32,0 2.27,-0.11 2.84,-0.34 0.95,-0.37 1.42,-1.12 1.42,-2.24 0,-0.47 -0.02,-0.95 -0.07,-1.42 -0.05,-0.47 -0.14,-1 -0.26,-1.58l0.97 -1.47c0.46,1.5 0.84,2.59 1.14,3.27 0.52,1.19 1.1,2.08 1.71,2.68 0.76,0.74 1.66,1.1 2.71,1.1l1.65 0c1.24,0 2.15,-0.18 2.74,-0.55 0.65,-0.43 0.98,-1.1 0.98,-2.03 0,-0.51 -0.03,-0.99 -0.09,-1.47 -0.07,-0.47 -0.15,-0.98 -0.26,-1.53l0.98 -1.47 0.51 2.3c0.44,1.81 0.97,3.07 1.61,3.77 0.55,0.63 1.29,0.94 2.25,0.94 0.43,0 0.79,-0.14 1.05,-0.41 0.27,-0.27 0.4,-0.62 0.4,-1.05 0,-0.91 -0.33,-1.88 -1,-2.9 -0.11,-0.16 -0.51,-0.7 -1.2,-1.6l1.58 -2.65c0.66,1.01 1.11,1.89 1.35,2.62 0.35,1.11 0.53,2.58 0.53,4.42l0 5.87z"/>
  <path id="18" class="fil0" d="M373.56 36.48l-14.85 0 0 -4.26 8.37 0c1.01,0 1.87,-0.03 2.58,-0.1 0.71,-0.08 1.48,-0.24 2.31,-0.48 -2.8,-0.41 -4.62,-0.78 -5.45,-1.14 -1.88,-0.82 -2.81,-2.19 -2.81,-4.14 0,-1.71 0.45,-3.32 1.34,-4.83 1.02,-1.71 2.24,-2.56 3.69,-2.56 1.67,0 2.93,1.06 3.8,3.17 0.68,1.67 1.02,3.65 1.02,5.92l0 8.42zm-2.2 -8.51c-0.37,-1.31 -0.73,-2.27 -1.07,-2.92 -0.67,-1.22 -1.48,-1.83 -2.42,-1.83 -0.45,0 -0.84,0.18 -1.17,0.54 -0.32,0.36 -0.49,0.79 -0.49,1.27 0,1.24 0.64,2.08 1.93,2.5 0.45,0.15 1.53,0.29 3.22,0.44zm-0.05 -17.54l-1.88 3.54 -3.92 -2.05 1.79 -3.56 4.01 2.07z"/>
  <path id="19" class="fil0" d="M385.75 36.48l-13.9 0 0 -4.26 12.15 0c0,-1.91 -0.23,-3.37 -0.69,-4.38 -0.31,-0.7 -1.08,-1.7 -2.31,-3.02l1.92 -4c1.16,1.48 1.89,2.63 2.18,3.47 0.43,1.25 0.65,3.32 0.65,6.23l0 5.96zm-0.15 -24.16l-1.8 3.55 -4 -2.05 1.85 -3.55 3.95 2.05zm-5.55 2.25l-1.81 3.5 -3.99 -2.08 1.88 -3.52 3.92 2.1z"/>
  <path id="20" class="fil0" d="M412.32 36.48l-1.87 0c-1.03,0 -1.91,-0.15 -2.66,-0.43 -0.75,-0.28 -1.42,-0.69 -2.04,-1.21 -0.77,0.6 -1.43,1 -2.01,1.19 -0.83,0.3 -1.97,0.45 -3.43,0.45l-1.6 0c-0.85,0 -1.7,-0.17 -2.55,-0.5 -0.55,-0.2 -1.24,-0.55 -2.06,-1.05 -0.78,0.6 -1.5,1 -2.15,1.21 -0.65,0.23 -1.71,0.34 -3.17,0.34l-4.72 0 0 -4.26 4.72 0c1.32,0 2.27,-0.11 2.85,-0.34 0.94,-0.37 1.42,-1.12 1.42,-2.24 0,-0.47 -0.03,-0.95 -0.08,-1.42 -0.04,-0.47 -0.13,-1 -0.26,-1.58l0.98 -1.47c0.46,1.5 0.83,2.59 1.13,3.27 0.53,1.19 1.1,2.08 1.72,2.68 0.76,0.74 1.66,1.1 2.71,1.1l1.65 0c1.23,0 2.14,-0.18 2.73,-0.55 0.65,-0.43 0.99,-1.1 0.99,-2.03 0,-0.51 -0.04,-0.99 -0.09,-1.47 -0.07,-0.47 -0.15,-0.98 -0.26,-1.53l0.97 -1.47 0.51 2.3c0.44,1.81 0.98,3.07 1.61,3.77 0.56,0.63 1.3,0.94 2.25,0.94 0.43,0 0.79,-0.14 1.06,-0.41 0.27,-0.27 0.4,-0.62 0.4,-1.05 0,-0.91 -0.33,-1.88 -1,-2.9 -0.12,-0.16 -0.52,-0.7 -1.2,-1.6l1.57 -2.65c0.66,1.01 1.11,1.89 1.35,2.62 0.36,1.11 0.53,2.58 0.53,4.42l0 5.87z"/>
  <path id="21" class="fil0" d="M420.57 30.24c0,1.3 -0.25,2.57 -0.72,3.79 -0.25,0.65 -0.79,1.68 -1.61,3.1l-0.44 -0.24c0.06,-0.48 0.11,-1.02 0.15,-1.65 0.04,-0.61 0.06,-1.03 0.06,-1.24 0,-1.69 -0.13,-4.06 -0.4,-7.09 -0.27,-3.04 -0.59,-6.21 -0.96,-9.52 -0.24,-2 -0.49,-4.04 -0.76,-6.12 0.32,-0.72 0.7,-1.49 1.12,-2.32 0.41,-0.83 0.8,-1.6 1.18,-2.34 0.26,1.86 0.59,4.4 0.99,7.62 0.4,3.22 0.72,6.12 0.94,8.72 0.3,3.21 0.45,5.65 0.45,7.29z"/>
  <path id="22" class="fil0" d="M462.88 36.48l-3.36 0c-1.97,0 -3.37,-0.37 -4.2,-1.1 -0.83,-0.74 -1.25,-1.95 -1.25,-3.65 0,-0.64 0.09,-1.43 0.25,-2.38 0.06,-0.36 0.15,-0.84 0.27,-1.42 -2.79,0.85 -4.89,1.58 -6.3,2.18 -2.61,1.11 -4.63,2.36 -6.06,3.77 -1.81,1.75 -2.71,3.76 -2.71,6.01 0,3.5 1.82,6.13 5.46,7.89 3.17,1.54 7.41,2.3 12.71,2.3l4.48 0 0.15 0.27 -5.51 3.88 -1.41 0c-3.52,0 -6.44,-0.32 -8.77,-0.97 -2.78,-0.78 -4.89,-2.04 -6.32,-3.77 -1.63,-1.97 -2.44,-4.58 -2.44,-7.82 0,-2.79 0.69,-5.23 2.07,-7.31 1.08,-1.64 2.65,-3.13 4.72,-4.48 0.61,-0.41 2.28,-1.34 5.03,-2.81 -0.65,-0.08 -1.33,-0.16 -2.05,-0.21 -0.73,-0.06 -1.39,-0.09 -1.97,-0.09 -1.64,0 -2.98,0.08 -4,0.22 -0.34,0.05 -1.41,0.27 -3.2,0.67 0.55,-1.6 1.13,-2.71 1.73,-3.33 1.35,-1.38 3.47,-2.06 6.35,-2.06 1.58,0 3.29,0.15 5.13,0.46 1.83,0.31 3.38,0.46 4.63,0.46 0.84,0 1.65,-0.04 2.44,-0.1 0.78,-0.07 1.62,-0.15 2.47,-0.27l-0.97 4.15c-0.67,0.09 -1.42,0.2 -2.27,0.34 -0.53,0.1 -1.27,0.25 -2.21,0.42l-0.05 1.38c0,1.34 0.41,2.24 1.22,2.7 0.51,0.27 1.37,0.41 2.59,0.41l3.35 0 0 4.26zm-9.21 2.66l-1.88 3.54 -3.92 -2.04 1.79 -3.56 4.01 2.06z"/>
  <path id="23" class="fil0" d="M475.07 36.48l-13.9 0 0 -4.26 12.15 0c0,-1.91 -0.23,-3.37 -0.69,-4.38 -0.31,-0.7 -1.08,-1.7 -2.31,-3.02l1.93 -4c1.15,1.48 1.88,2.63 2.17,3.47 0.44,1.25 0.65,3.32 0.65,6.23l0 5.96zm-2.6 -22.28c0,0.42 -0.25,0.78 -0.76,1.11 -0.34,0.22 -0.86,0.44 -1.54,0.68l-4.55 1.58c0,-0.76 0.82,-1.42 2.47,-1.99 -0.51,-0.27 -0.9,-0.52 -1.15,-0.76 -0.35,-0.32 -0.52,-0.64 -0.52,-0.99 0,-0.5 0.43,-1.22 1.3,-2.14 0.97,-1.02 1.82,-1.52 2.55,-1.52 0.32,0 0.61,0.1 0.84,0.33 0.24,0.22 0.36,0.52 0.36,0.88 0,0.24 -0.05,0.47 -0.15,0.71 -0.09,0.24 -0.23,0.51 -0.42,0.8 -0.5,-0.45 -1.05,-0.67 -1.64,-0.67 -0.36,0 -0.72,0.07 -1.07,0.21 -0.35,0.15 -0.52,0.32 -0.52,0.51 0,0.24 0.37,0.58 1.13,0.99 0.76,0.43 1.4,0.64 1.94,0.64 0.36,0 0.61,-0.01 0.77,-0.04 0.15,-0.02 0.48,-0.13 0.96,-0.33z"/>
  <path id="24" class="fil0" d="M486.59 36.48l-3.44 0c-1.12,0 -2.01,-0.45 -2.68,-1.35 -0.59,-0.78 -1.04,-1.94 -1.34,-3.49 -0.3,-1.54 -0.53,-3.44 -0.7,-5.71 -0.1,-1.83 -0.2,-3.72 -0.31,-5.66 -0.1,-1.93 -0.24,-3.4 -0.4,-4.4 -0.18,-1 -0.41,-1.82 -0.71,-2.45 -0.35,-0.79 -0.85,-1.47 -1.48,-2.05l2.98 -4.76c0.65,1.96 1.11,4.29 1.37,7.01 0.17,1.7 0.34,5.7 0.5,12.01 0.29,2.9 0.72,4.75 1.28,5.57 0.46,0.68 0.96,1.02 1.49,1.02l3.44 0 0 4.26z"/>
  <path id="25" class="fil0" d="M498.76 36.48l-13.9 0 0 -4.26 12.15 0c0,-1.91 -0.23,-3.37 -0.69,-4.38 -0.31,-0.7 -1.07,-1.7 -2.31,-3.02l1.93 -4c1.16,1.48 1.88,2.63 2.17,3.47 0.44,1.25 0.65,3.32 0.65,6.23l0 5.96zm-0.15 -24.16l-1.8 3.55 -4 -2.05 1.85 -3.55 3.95 2.05zm-5.55 2.25l-1.81 3.5 -3.99 -2.08 1.88 -3.52 3.92 2.1z"/>
  <path id="26" class="fil0" d="M510.98 36.48l-13.91 0 0 -4.26 12.16 0c0,-1.91 -0.24,-3.37 -0.69,-4.38 -0.31,-0.7 -1.08,-1.7 -2.31,-3.02l1.92 -4c1.16,1.48 1.89,2.63 2.18,3.47 0.43,1.25 0.65,3.32 0.65,6.23l0 5.96zm-2 -22.6l-1.89 3.54 -3.92 -2.04 1.8 -3.56 4.01 2.06z"/>
 </g>
</svg>
