<?xml version="1.0" encoding="UTF-8"?>
<!DOCTYPE svg PUBLIC "-//W3C//DTD SVG 1.1//EN" "http://www.w3.org/Graphics/SVG/1.1/DTD/svg11.dtd">
<!-- Creator: CorelDRAW 2018 (64-Bit) -->
<svg xmlns="http://www.w3.org/2000/svg" xml:space="preserve" width="230px" height="59px" version="1.1" style="shape-rendering:geometricPrecision; text-rendering:geometricPrecision; image-rendering:optimizeQuality; fill-rule:evenodd; clip-rule:evenodd"
viewBox="0 0 230 58.97"
 xmlns:xlink="http://www.w3.org/1999/xlink">
 <defs>
  <style type="text/css">
   <![CDATA[
    .fil0 {fill:#2B2A29;fill-rule:nonzero}
   ]]>
  </style>
 </defs>
 <g id="Layer_x0020_1">
  <metadata id="CorelCorpID_0Corel-Layer"/>
  <path class="fil0" d="M25.28 35.52c0,1.79 -0.77,3.65 -2.3,5.57 -1.33,1.69 -2.99,3.14 -4.98,4.37 -1.88,1.17 -3.43,1.75 -4.66,1.75 -1.12,0 -2.32,-0.16 -3.63,-0.49 -0.99,-0.24 -2.18,-0.63 -3.56,-1.16 -1.17,-0.44 -2.33,-0.88 -3.49,-1.32l0.42 -0.97c1.07,0.21 2.18,0.43 3.35,0.66 1.16,0.22 2.22,0.34 3.16,0.34 2.08,0 4.25,-0.67 6.52,-2 2.05,-1.22 3.8,-2.76 5.25,-4.63 1.45,-1.86 2.17,-3.53 2.17,-5.03 0,-1.29 -0.37,-2.64 -1.11,-4.05 -0.6,-1.15 -1.45,-2.31 -2.53,-3.52l1.37 -3.84c1.33,1.24 2.31,2.47 2.95,3.71 0.71,1.4 1.07,2.96 1.07,4.69l0 5.92z"/>
  <path id="1" class="fil0" d="M36.76 35.53l-3.43 0c-1.12,0 -2.01,-0.45 -2.68,-1.34 -0.59,-0.78 -1.04,-1.94 -1.34,-3.49 -0.29,-1.54 -0.53,-3.43 -0.69,-5.7 -0.1,-1.83 -0.2,-3.71 -0.31,-5.65 -0.1,-1.93 -0.24,-3.39 -0.41,-4.39 -0.17,-1 -0.41,-1.82 -0.7,-2.45 -0.35,-0.78 -0.85,-1.46 -1.48,-2.05l2.97 -4.74c0.65,1.95 1.11,4.28 1.37,6.99 0.17,1.7 0.34,5.69 0.5,11.99 0.29,2.9 0.72,4.75 1.28,5.56 0.45,0.68 0.95,1.02 1.49,1.02l3.43 0 0 4.25z"/>
  <path id="2" class="fil0" d="M63.24 35.53l-1.86 0c-1.03,0 -1.91,-0.14 -2.66,-0.42 -0.74,-0.29 -1.42,-0.7 -2.04,-1.21 -0.76,0.6 -1.43,1 -2,1.19 -0.83,0.29 -1.97,0.44 -3.43,0.44l-1.59 0c-0.85,0 -1.7,-0.17 -2.55,-0.49 -0.54,-0.21 -1.24,-0.56 -2.05,-1.05 -0.78,0.59 -1.5,0.99 -2.15,1.21 -0.65,0.22 -1.7,0.33 -3.17,0.33l-4.71 0 0 -4.25 4.72 0c1.32,0 2.26,-0.11 2.84,-0.34 0.94,-0.37 1.41,-1.12 1.41,-2.23 0,-0.48 -0.02,-0.95 -0.07,-1.42 -0.04,-0.47 -0.14,-1 -0.26,-1.58l0.97 -1.47c0.46,1.5 0.84,2.58 1.13,3.27 0.53,1.19 1.1,2.08 1.72,2.68 0.76,0.73 1.66,1.09 2.7,1.09l1.65 0c1.23,0 2.14,-0.18 2.73,-0.55 0.65,-0.43 0.98,-1.1 0.98,-2.02 0,-0.51 -0.03,-1 -0.09,-1.47 -0.07,-0.47 -0.15,-0.98 -0.26,-1.53l0.98 -1.47 0.5 2.3c0.45,1.81 0.98,3.06 1.61,3.76 0.56,0.63 1.3,0.94 2.25,0.94 0.43,0 0.79,-0.14 1.06,-0.41 0.26,-0.27 0.39,-0.62 0.39,-1.04 0,-0.92 -0.33,-1.88 -0.99,-2.9 -0.12,-0.17 -0.52,-0.7 -1.2,-1.6l1.57 -2.64c0.66,1 1.11,1.88 1.35,2.61 0.35,1.11 0.52,2.58 0.52,4.41l0 5.86z"/>
  <path id="3" class="fil0" d="M76.37 35.53l-14.83 0 0 -4.25 8.36 0c1.01,0 1.86,-0.03 2.57,-0.1 0.71,-0.08 1.48,-0.24 2.31,-0.48 -2.8,-0.41 -4.61,-0.78 -5.45,-1.14 -1.87,-0.81 -2.8,-2.19 -2.8,-4.13 0,-1.71 0.45,-3.32 1.34,-4.82 1.02,-1.71 2.24,-2.56 3.69,-2.56 1.66,0 2.92,1.06 3.78,3.17 0.69,1.67 1.03,3.64 1.03,5.91l0 8.4zm-2.2 -8.49c-0.38,-1.31 -0.73,-2.27 -1.07,-2.91 -0.67,-1.23 -1.48,-1.83 -2.42,-1.83 -0.45,0 -0.84,0.18 -1.16,0.54 -0.33,0.36 -0.49,0.78 -0.49,1.26 0,1.24 0.64,2.08 1.92,2.5 0.46,0.15 1.53,0.29 3.22,0.44zm-0.05 -17.51l-1.88 3.53 -3.91 -2.04 1.79 -3.55 4 2.06z"/>
  <path id="4" class="fil0" d="M88.53 35.53l-13.88 0 0 -4.25 12.14 0c0,-1.91 -0.24,-3.37 -0.7,-4.37 -0.3,-0.7 -1.07,-1.7 -2.3,-3.01l1.92 -4c1.16,1.48 1.88,2.63 2.17,3.46 0.44,1.25 0.65,3.32 0.65,6.22l0 5.95zm-0.15 -24.12l-1.8 3.55 -3.99 -2.05 1.85 -3.54 3.94 2.04zm-5.54 2.25l-1.81 3.49 -3.98 -2.07 1.88 -3.52 3.91 2.1z"/>
  <path id="5" class="fil0" d="M115.05 35.53l-1.86 0c-1.03,0 -1.91,-0.14 -2.65,-0.42 -0.75,-0.29 -1.43,-0.7 -2.04,-1.21 -0.77,0.6 -1.43,1 -2.01,1.19 -0.83,0.29 -1.97,0.44 -3.43,0.44l-1.59 0c-0.85,0 -1.69,-0.17 -2.54,-0.49 -0.55,-0.21 -1.24,-0.56 -2.06,-1.05 -0.78,0.59 -1.5,0.99 -2.15,1.21 -0.65,0.22 -1.7,0.33 -3.17,0.33l-4.71 0 0 -4.25 4.72 0c1.32,0 2.26,-0.11 2.84,-0.34 0.94,-0.37 1.41,-1.12 1.41,-2.23 0,-0.48 -0.02,-0.95 -0.07,-1.42 -0.04,-0.47 -0.13,-1 -0.26,-1.58l0.97 -1.47c0.46,1.5 0.84,2.58 1.14,3.27 0.52,1.19 1.1,2.08 1.71,2.68 0.76,0.73 1.66,1.09 2.71,1.09l1.64 0c1.23,0 2.14,-0.18 2.73,-0.55 0.65,-0.43 0.99,-1.1 0.99,-2.02 0,-0.51 -0.04,-1 -0.1,-1.47 -0.06,-0.47 -0.15,-0.98 -0.26,-1.53l0.98 -1.47 0.51 2.3c0.44,1.81 0.97,3.06 1.6,3.76 0.56,0.63 1.3,0.94 2.25,0.94 0.43,0 0.79,-0.14 1.06,-0.41 0.26,-0.27 0.4,-0.62 0.4,-1.04 0,-0.92 -0.34,-1.88 -1,-2.9 -0.12,-0.17 -0.52,-0.7 -1.2,-1.6l1.57 -2.64c0.66,1 1.11,1.88 1.35,2.61 0.35,1.11 0.52,2.58 0.52,4.41l0 5.86z"/>
  <path id="6" class="fil0" d="M140.36 9.76l-1.16 4.41 -1.43 -0.71 0.04 2.21c0,2.17 -0.27,4.29 -0.83,6.33 -0.61,2.24 -1.55,4.45 -2.86,6.64 0.62,1.14 1.05,2.04 1.29,2.69 0.37,1.02 0.56,2.06 0.56,3.12 0,0.6 -0.02,1.11 -0.05,1.54 -0.04,0.42 -0.11,0.91 -0.22,1.49 -1.72,0.39 -3.56,0.7 -5.51,0.91 -1.95,0.23 -3.86,0.33 -5.71,0.33 0.02,-0.3 0.03,-0.57 0.03,-0.78 0.08,-1.24 0.27,-2.39 0.58,-3.45 2.75,-1.48 5.09,-3.4 6.98,-5.75 -1.14,-2.15 -1.96,-3.66 -2.48,-4.56 -0.57,-0.98 -1.54,-2.49 -2.9,-4.55 -0.5,-0.7 -0.95,-1.26 -1.34,-1.69 -0.53,-0.56 -0.96,-0.84 -1.27,-0.84 -0.2,0 -0.55,0.11 -1.05,0.36 -0.25,0.13 -0.47,0.19 -0.65,0.19 -0.36,0 -0.92,-0.35 -1.68,-1.07 -0.67,-0.63 -1.37,-1.41 -2.09,-2.34 -0.59,-0.75 -0.99,-1.37 -1.2,-1.87 -0.21,-0.49 -0.32,-1.09 -0.32,-1.79 0,-1.01 0.07,-1.8 0.19,-2.37 0.2,-0.86 0.54,-1.29 1,-1.29 0.67,0 1.64,0.63 2.91,1.9 1.11,1.14 2.37,2.63 3.74,4.49 1.23,1.64 2.42,3.41 3.61,5.31l2.48 4c0.74,1.2 1.48,2.56 2.25,4.1 1.09,-2.19 1.85,-4.41 2.26,-6.65 0.35,-1.94 0.54,-4.42 0.54,-7.44l-1.4 -0.81c0,-1.07 0.09,-2.05 0.28,-2.92 0.19,-0.87 0.45,-1.67 0.79,-2.38l0.58 0.15c0.06,0.7 0.45,1.25 1.16,1.68 0.38,0.22 0.88,0.49 1.49,0.78 0.6,0.29 1.07,0.5 1.39,0.63zm-6.34 23.71c0,-0.36 -0.07,-0.73 -0.21,-1.11 -0.13,-0.38 -0.44,-1.02 -0.91,-1.89 -0.49,0.63 -1.21,1.36 -2.18,2.19 -0.96,0.83 -1.92,1.54 -2.86,2.12 1.92,0 3.28,-0.06 4.09,-0.18 1.38,-0.19 2.07,-0.57 2.07,-1.13zm-3.8 11.43c0,0.42 -0.24,0.78 -0.75,1.11 -0.34,0.21 -0.86,0.44 -1.54,0.68l-4.55 1.57c0,-0.76 0.83,-1.41 2.47,-1.99 -0.51,-0.26 -0.89,-0.51 -1.15,-0.75 -0.34,-0.32 -0.52,-0.65 -0.52,-0.99 0,-0.5 0.44,-1.22 1.3,-2.14 0.97,-1.01 1.82,-1.52 2.55,-1.52 0.32,0 0.61,0.11 0.84,0.33 0.24,0.23 0.36,0.52 0.36,0.89 0,0.23 -0.05,0.46 -0.15,0.7 -0.09,0.24 -0.24,0.51 -0.42,0.8 -0.5,-0.45 -1.05,-0.67 -1.64,-0.67 -0.36,0 -0.71,0.07 -1.06,0.22 -0.35,0.14 -0.53,0.31 -0.53,0.5 0,0.24 0.38,0.58 1.13,0.99 0.76,0.43 1.4,0.64 1.93,0.64 0.36,0 0.62,-0.01 0.78,-0.04 0.15,-0.02 0.47,-0.13 0.95,-0.33z"/>
  <path id="7" class="fil0" d="M150.45 29.3c0,1.3 -0.24,2.57 -0.72,3.78 -0.25,0.65 -0.78,1.68 -1.61,3.1l-0.44 -0.24c0.06,-0.48 0.11,-1.02 0.15,-1.64 0.05,-0.62 0.07,-1.03 0.07,-1.24 0,-1.69 -0.13,-4.06 -0.4,-7.08 -0.27,-3.03 -0.59,-6.2 -0.96,-9.5 -0.24,-2 -0.49,-4.04 -0.76,-6.12 0.32,-0.71 0.7,-1.48 1.11,-2.31 0.42,-0.82 0.81,-1.6 1.19,-2.33 0.25,1.85 0.59,4.39 0.99,7.6 0.39,3.22 0.71,6.11 0.94,8.7 0.29,3.22 0.44,5.64 0.44,7.28z"/>
  <path id="8" class="fil0" d="M192.13 49.23l-6.16 4.03c-3.37,0 -5.98,-0.15 -7.83,-0.42 -3.19,-0.48 -5.66,-1.42 -7.39,-2.83 -2.19,-1.77 -3.28,-4.32 -3.28,-7.64 0,-2.01 0.3,-3.83 0.93,-5.43 0.5,-1.33 1.23,-2.57 2.17,-3.74 0.46,-0.55 1.26,-1.39 2.4,-2.51 -1.57,-0.79 -2.65,-1.46 -3.25,-2.03 -1.34,-1.25 -2,-2.83 -2,-4.74 0,-1.72 0.72,-3.41 2.16,-5.07 1.66,-1.89 3.66,-2.84 6.02,-2.84 1.04,0 2.17,0.3 3.35,0.92 0.8,0.41 1.8,1.08 3,2.02 -1.59,0 -3.22,0.11 -4.89,0.32 -2.15,0.27 -3.89,0.67 -5.22,1.19 -1.62,0.63 -2.43,1.4 -2.43,2.33 0,0.99 0.93,1.93 2.8,2.82 1.57,0.75 3.35,1.27 5.34,1.58 1.62,-0.87 3.21,-1.62 4.75,-2.24 1.71,-0.68 3.49,-1.25 5.34,-1.7l-1.03 3.79c-3.37,1.32 -5.81,2.33 -7.31,3.03 -3.02,1.44 -5.34,2.9 -6.94,4.41 -2.06,1.92 -3.1,3.99 -3.1,6.19 0,2.3 0.86,4.1 2.58,5.43 1.5,1.14 3.7,1.95 6.6,2.42 2.31,0.37 5.24,0.57 8.81,0.57 0.77,0 1.53,-0.01 2.29,-0.03 0.77,-0.02 1.53,-0.03 2.29,-0.05l0 0.22z"/>
  <path id="9" class="fil0" d="M215.15 34.01c0,2.7 -0.99,5.38 -2.98,8.04 -2.2,2.97 -4.76,4.46 -7.66,4.46 -1.07,0 -2.18,-0.12 -3.32,-0.36 -0.83,-0.18 -1.91,-0.48 -3.24,-0.92 -1.06,-0.37 -2.12,-0.73 -3.17,-1.09l0.41 -0.86c0.91,0.21 1.87,0.44 2.87,0.68 1,0.24 1.89,0.36 2.69,0.36 1.98,0 3.87,-0.51 5.64,-1.53 1.38,-0.8 2.76,-1.97 4.14,-3.49 0.7,-0.78 1.69,-2.03 2.97,-3.77 -2.19,0 -3.84,-0.35 -4.93,-1.06 -1.24,-0.8 -1.86,-2.11 -1.86,-3.94 0,-1.68 0.39,-3.25 1.17,-4.69 0.92,-1.66 2.08,-2.49 3.48,-2.49 1.42,0 2.43,0.82 3.06,2.48 0.49,1.29 0.73,3.08 0.73,5.39l0 2.79zm-1.55 -2.68c-0.36,-1.57 -0.79,-2.65 -1.3,-3.26 -0.43,-0.52 -0.97,-0.78 -1.6,-0.78 -0.46,0 -0.86,0.15 -1.19,0.45 -0.34,0.31 -0.5,0.68 -0.5,1.14 0,0.81 0.36,1.41 1.07,1.83 0.72,0.42 1.89,0.62 3.52,0.62z"/>
  <path id="10" class="fil0" d="M227.34 35.53l-13.88 0 0 -4.25 12.13 0c0,-1.91 -0.23,-3.37 -0.69,-4.37 -0.3,-0.7 -1.07,-1.7 -2.3,-3.01l1.92 -4c1.16,1.48 1.88,2.63 2.17,3.46 0.44,1.25 0.65,3.32 0.65,6.22l0 5.95zm-2 -22.55l-1.88 3.53 -3.91 -2.04 1.79 -3.56 4 2.07z"/>
 </g>
</svg>
