<?xml version="1.0" encoding="UTF-8"?>
<!DOCTYPE svg PUBLIC "-//W3C//DTD SVG 1.1//EN" "http://www.w3.org/Graphics/SVG/1.1/DTD/svg11.dtd">
<!-- Creator: CorelDRAW 2018 (64-Bit) -->
<svg xmlns="http://www.w3.org/2000/svg" xml:space="preserve" width="295px" height="59px" version="1.1" style="shape-rendering:geometricPrecision; text-rendering:geometricPrecision; image-rendering:optimizeQuality; fill-rule:evenodd; clip-rule:evenodd"
viewBox="0 0 295 59"
 xmlns:xlink="http://www.w3.org/1999/xlink">
 <defs>
  <style type="text/css">
   <![CDATA[
    .fil0 {fill:#2B2A29;fill-rule:nonzero}
   ]]>
  </style>
 </defs>
 <g id="Layer_x0020_1">
  <metadata id="CorelCorpID_0Corel-Layer"/>
  <path class="fil0" d="M24.77 39.45l-3.49 0c-1.17,0 -2.2,-1 -3.1,-2.99 -0.67,-1.5 -1.2,-3.42 -1.61,-5.77 -0.48,0.91 -1.1,1.61 -1.84,2.12 -0.75,0.49 -1.54,0.74 -2.37,0.74 -1.86,0 -3.42,-0.12 -4.66,-0.37 -1.24,-0.26 -1.87,-0.57 -1.87,-0.97 0,-1.39 0.91,-2.94 2.73,-4.64 1.8,-1.7 4.07,-3.19 6.79,-4.46 -0.03,-0.13 -0.1,-0.46 -0.21,-1.02 -0.11,-0.55 -0.16,-0.89 -0.16,-1.02 0,-0.55 0.19,-1.17 0.57,-1.84 0.32,-0.56 0.73,-1.13 1.25,-1.71 0.16,1.01 0.33,1.98 0.5,2.92 0.17,0.94 0.36,1.92 0.6,2.92l0.72 4.19c0.41,2.31 0.78,4.02 1.1,5.12 0.51,1.69 1.02,2.53 1.57,2.53l3.48 0 0 4.25zm-8.52 -10.88l-0.48 -2.66c-1.39,0.51 -2.5,1.03 -3.31,1.58 -0.81,0.54 -1.48,1.26 -2.03,2.15 0.34,0.15 0.73,0.27 1.19,0.34 0.45,0.09 1.07,0.13 1.87,0.13 0.96,0 1.88,-0.52 2.76,-1.54zm2.27 -18.34l-1.8 3.54 -3.99 -2.04 1.85 -3.55 3.94 2.05zm-5.54 2.24l-1.81 3.5 -3.99 -2.07 1.88 -3.52 3.92 2.09z"/>
  <path id="1" class="fil0" d="M36.95 39.45l-13.88 0 0 -4.25 12.14 0c0,-1.91 -0.24,-3.37 -0.69,-4.38 -0.31,-0.7 -1.08,-1.69 -2.31,-3.01l1.92 -4c1.16,1.49 1.88,2.63 2.18,3.47 0.43,1.25 0.64,3.32 0.64,6.22l0 5.95zm-0.24 4.79l-1.8 3.55 -4 -2.05 1.85 -3.54 3.95 2.04zm-5.55 2.25l-1.81 3.5 -3.98 -2.07 1.88 -3.53 3.91 2.1z"/>
  <path id="2" class="fil0" d="M56.64 39.45l-21.38 0 0 -4.25 18.56 0c-1.14,-1.72 -2.44,-3.22 -3.9,-4.49 -1.47,-1.28 -3.45,-2.66 -5.94,-4.13l-0.81 0.76 -2.89 -2.2c-1.01,-0.84 -1.52,-1.5 -1.52,-1.98 0,-2.79 0.68,-4.99 2.06,-6.59 1.27,-1.46 3.46,-2.79 6.57,-3.95l6.91 -2.69 0 4.24 -5.11 1.71c-2.04,0.67 -3.69,1.27 -4.93,1.82 -1.6,0.7 -2.4,1.24 -2.4,1.62 0,0.36 0.52,0.95 1.56,1.72 0.65,0.49 1.31,0.98 1.98,1.47 2.47,1.86 4.62,3.83 6.46,5.87 1.99,2.19 3.58,4.47 4.78,6.82l0 4.25z"/>
  <path id="3" class="fil0" d="M81.07 39.44c0,1.79 -0.77,3.65 -2.3,5.57 -1.33,1.69 -2.99,3.15 -4.98,4.37 -1.88,1.17 -3.43,1.76 -4.66,1.76 -1.12,0 -2.33,-0.17 -3.64,-0.49 -0.99,-0.25 -2.18,-0.64 -3.56,-1.16 -1.17,-0.44 -2.33,-0.88 -3.49,-1.32l0.42 -0.98c1.07,0.22 2.19,0.43 3.35,0.66 1.17,0.22 2.23,0.34 3.17,0.34 2.08,0 4.25,-0.67 6.52,-2 2.05,-1.22 3.8,-2.76 5.25,-4.63 1.45,-1.86 2.17,-3.53 2.17,-5.03 0,-1.29 -0.37,-2.64 -1.11,-4.06 -0.6,-1.14 -1.45,-2.3 -2.53,-3.51l1.37 -3.85c1.33,1.24 2.31,2.47 2.95,3.72 0.71,1.39 1.07,2.96 1.07,4.68l0 5.93z"/>
  <path id="4" class="fil0" d="M93.25 39.45l-13.89 0 0 -4.25 12.14 0c0,-1.91 -0.23,-3.37 -0.69,-4.38 -0.31,-0.7 -1.07,-1.69 -2.3,-3.01l1.92 -4c1.16,1.49 1.88,2.63 2.17,3.47 0.43,1.25 0.65,3.32 0.65,6.22l0 5.95zm-0.15 -24.13l-1.8 3.55 -3.99 -2.05 1.84 -3.55 3.95 2.05zm-5.54 2.25l-1.81 3.5 -3.99 -2.08 1.88 -3.52 3.92 2.1z"/>
  <path id="5" class="fil0" d="M103.6 39.45l-12.04 0 0 -4.25 9.59 0 -3 -20.74 -1.24 -0.6c0,-1.12 0.1,-2.17 0.29,-3.15 0.2,-0.97 0.49,-1.93 0.88,-2.85l0.37 0.27c0,0.94 0.54,1.65 1.61,2.12 0.82,0.33 1.65,0.65 2.49,0.98 0,0.8 -0.07,1.66 -0.2,2.58 -0.12,0.92 -0.28,1.6 -0.47,2.05l-1.18 -0.39 2.9 19.19 0 4.79z"/>
  <path id="6" class="fil0" d="M111.84 33.22c0,1.3 -0.24,2.57 -0.71,3.78 -0.25,0.65 -0.79,1.68 -1.61,3.1l-0.44 -0.24c0.06,-0.48 0.11,-1.02 0.15,-1.64 0.04,-0.62 0.06,-1.04 0.06,-1.24 0,-1.69 -0.13,-4.06 -0.4,-7.09 -0.27,-3.03 -0.59,-6.19 -0.96,-9.5 -0.23,-2 -0.48,-4.04 -0.76,-6.12 0.33,-0.71 0.7,-1.48 1.12,-2.31 0.41,-0.83 0.8,-1.6 1.18,-2.33 0.26,1.85 0.59,4.38 0.99,7.6 0.4,3.22 0.72,6.12 0.94,8.71 0.29,3.21 0.44,5.64 0.44,7.28z"/>
  <path id="7" class="fil0" d="M146.55 39.45l-3.49 0c-1.16,0 -2.2,-1 -3.09,-2.99 -0.67,-1.5 -1.2,-3.42 -1.61,-5.77 -0.48,0.91 -1.11,1.61 -1.85,2.12 -0.75,0.49 -1.54,0.74 -2.36,0.74 -1.87,0 -3.43,-0.12 -4.67,-0.37 -1.24,-0.26 -1.86,-0.57 -1.86,-0.97 0,-1.39 0.91,-2.94 2.72,-4.64 1.81,-1.7 4.07,-3.19 6.79,-4.46 -0.03,-0.13 -0.1,-0.46 -0.2,-1.02 -0.11,-0.55 -0.17,-0.89 -0.17,-1.02 0,-0.55 0.19,-1.17 0.57,-1.84 0.32,-0.56 0.74,-1.13 1.25,-1.71 0.17,1.01 0.34,1.98 0.5,2.92 0.18,0.94 0.37,1.92 0.6,2.92l0.73 4.19c0.41,2.31 0.77,4.02 1.1,5.12 0.5,1.69 1.02,2.53 1.56,2.53l3.48 0 0 4.25zm-8.52 -10.88l-0.47 -2.66c-1.4,0.51 -2.51,1.03 -3.31,1.58 -0.81,0.54 -1.49,1.26 -2.04,2.15 0.35,0.15 0.74,0.27 1.19,0.34 0.45,0.09 1.08,0.13 1.87,0.13 0.97,0 1.89,-0.52 2.76,-1.54zm2.28 -18.34l-1.8 3.54 -4 -2.04 1.85 -3.55 3.95 2.05zm-5.55 2.24l-1.8 3.5 -3.99 -2.07 1.88 -3.52 3.91 2.09z"/>
  <path id="8" class="fil0" d="M158.74 39.45l-13.89 0 0 -4.25 12.14 0c0,-1.91 -0.23,-3.37 -0.69,-4.38 -0.31,-0.7 -1.07,-1.69 -2.31,-3.01l1.93 -4c1.15,1.49 1.88,2.63 2.17,3.47 0.43,1.25 0.65,3.32 0.65,6.22l0 5.95zm-0.25 4.79l-1.8 3.55 -3.99 -2.05 1.84 -3.54 3.95 2.04zm-5.54 2.25l-1.81 3.5 -3.99 -2.07 1.88 -3.53 3.92 2.1z"/>
  <path id="9" class="fil0" d="M183.17 39.44c0,1.79 -0.76,3.65 -2.29,5.57 -1.33,1.69 -2.99,3.15 -4.98,4.37 -1.88,1.17 -3.44,1.76 -4.66,1.76 -1.13,0 -2.33,-0.17 -3.64,-0.49 -0.99,-0.25 -2.18,-0.64 -3.57,-1.16 -1.16,-0.44 -2.33,-0.88 -3.48,-1.32l0.41 -0.98c1.08,0.22 2.19,0.43 3.36,0.66 1.16,0.22 2.22,0.34 3.16,0.34 2.08,0 4.26,-0.67 6.52,-2 2.06,-1.22 3.8,-2.76 5.25,-4.63 1.45,-1.86 2.18,-3.53 2.18,-5.03 0,-1.29 -0.38,-2.64 -1.12,-4.06 -0.6,-1.14 -1.45,-2.3 -2.53,-3.51l1.37 -3.85c1.34,1.24 2.32,2.47 2.95,3.72 0.72,1.39 1.07,2.96 1.07,4.68l0 5.93z"/>
  <path id="10" class="fil0" d="M204.75 37.93c0,2.7 -0.99,5.38 -2.98,8.05 -2.21,2.97 -4.77,4.46 -7.66,4.46 -1.08,0 -2.19,-0.13 -3.33,-0.37 -0.83,-0.17 -1.91,-0.48 -3.24,-0.91 -1.06,-0.38 -2.12,-0.74 -3.17,-1.09l0.41 -0.86c0.91,0.21 1.87,0.43 2.87,0.67 1,0.24 1.89,0.36 2.69,0.36 1.98,0 3.87,-0.51 5.64,-1.52 1.38,-0.81 2.76,-1.98 4.15,-3.5 0.7,-0.77 1.69,-2.03 2.97,-3.77 -2.2,0 -3.85,-0.35 -4.94,-1.06 -1.24,-0.8 -1.86,-2.11 -1.86,-3.94 0,-1.69 0.4,-3.25 1.18,-4.69 0.91,-1.67 2.07,-2.5 3.47,-2.5 1.42,0 2.44,0.83 3.06,2.48 0.49,1.29 0.74,3.09 0.74,5.4l0 2.79zm-1.55 -2.68c-0.36,-1.57 -0.79,-2.65 -1.3,-3.26 -0.43,-0.53 -0.98,-0.78 -1.61,-0.78 -0.46,0 -0.86,0.15 -1.19,0.45 -0.33,0.3 -0.5,0.68 -0.5,1.14 0,0.8 0.36,1.41 1.08,1.83 0.71,0.41 1.89,0.62 3.52,0.62z"/>
  <path id="11" class="fil0" d="M224.44 39.45l-8.93 0c1.04,0.49 1.92,1.18 2.65,2.08 0.92,1.12 1.38,2.34 1.38,3.66 0,1.27 -0.19,2.29 -0.58,3.06 -0.49,0.96 -1.25,1.44 -2.29,1.44 -1.94,0 -3.73,-0.68 -5.35,-2.03 -1.94,-1.63 -2.92,-3.78 -2.92,-6.45l0.05 -1.76 -5.39 0 0 -4.25 6.19 0c0.57,-1.51 1.19,-2.91 1.87,-4.21 0.86,-1.65 1.77,-2.98 2.71,-4.02 1.08,-1.21 2.11,-1.81 3.06,-1.81 0.5,0 0.94,0.44 1.33,1.32 0.38,0.87 0.57,1.81 0.57,2.8 0,1.43 -0.37,2.59 -1.11,3.48 -0.45,0.54 -1.76,1.35 -3.95,2.44l10.71 0 0 4.25zm-8.05 -8.37c0,-1.55 -0.32,-2.32 -0.97,-2.32 -0.7,0 -1.54,0.76 -2.51,2.3 -0.48,0.73 -1.14,1.94 -2.01,3.65 1.48,-0.4 2.73,-0.91 3.74,-1.53 1.17,-0.72 1.75,-1.42 1.75,-2.1zm0.95 13.71c0,-1.29 -0.94,-2.52 -2.83,-3.71 -1.55,-0.97 -3.06,-1.59 -4.56,-1.85 0,1.79 0.43,3.26 1.29,4.41 1.04,1.4 2.6,2.1 4.66,2.1 0.39,0 0.74,-0.08 1.02,-0.24 0.28,-0.16 0.42,-0.4 0.42,-0.71z"/>
  <path id="12" class="fil0" d="M244.12 39.45l-2.53 0c-1.09,0 -2.32,-0.25 -3.68,-0.74 -1.58,-0.57 -2.96,-1.36 -4.17,-2.36 -0.94,1.17 -1.9,1.98 -2.88,2.42 -0.99,0.45 -2.43,0.68 -4.32,0.68l-3.8 0 0 -4.25 3.73 0c1.48,0 2.79,-0.37 3.94,-1.12 0.9,-0.59 1.71,-1.41 2.44,-2.47 0.99,-1.44 2.22,-2.68 3.67,-3.74 1.29,-0.94 2.49,-1.55 3.58,-1.81 1.12,1.71 2.01,3.25 2.68,4.62 0.89,1.86 1.34,3.37 1.34,4.51l0 4.26zm-2.8 -4.81c-0.21,-0.95 -0.53,-1.88 -0.97,-2.8 -0.38,-0.78 -0.88,-1.57 -1.49,-2.38 -0.78,0.2 -1.44,0.57 -1.97,1.11 -0.36,0.34 -0.78,0.92 -1.26,1.74 0.58,0.64 1.4,1.2 2.47,1.71 1.06,0.51 2.06,0.82 3,0.93l0.22 -0.31z"/>
  <path id="13" class="fil0" d="M270.59 39.45l-28.17 0 0 -4.25 19.88 0c-1.66,-1.29 -3.06,-2.29 -4.2,-3 -1.41,-0.9 -2.7,-1.55 -3.88,-1.96 -1.31,-0.46 -2.64,-0.68 -3.99,-0.68 -0.83,0 -1.67,0.06 -2.52,0.17 0.48,-1.2 1.09,-2.16 1.86,-2.89 1.1,-1.05 2.5,-1.58 4.2,-1.58 1.65,0 3.61,0.82 5.87,2.44 1.12,0.81 2.95,2.36 5.49,4.63 1.97,1.77 3.3,2.72 4,2.87l1.46 0 0 4.25zm-12.44 5.26l-1.88 3.53 -3.91 -2.04 1.79 -3.55 4 2.06z"/>
  <path id="14" class="fil0" d="M280.92 39.45l-12.03 0 0 -4.25 9.59 0 -3 -20.74 -1.25 -0.6c0,-1.12 0.1,-2.17 0.29,-3.15 0.2,-0.97 0.49,-1.93 0.88,-2.85l0.38 0.27c0,0.94 0.53,1.65 1.6,2.12 0.82,0.33 1.65,0.65 2.49,0.98 0,0.8 -0.06,1.66 -0.19,2.58 -0.13,0.92 -0.29,1.6 -0.47,2.05l-1.18 -0.39 2.89 19.19 0 4.79z"/>
  <path id="15" class="fil0" d="M289.17 33.22c0,1.3 -0.25,2.57 -0.72,3.78 -0.25,0.65 -0.78,1.68 -1.61,3.1l-0.44 -0.24c0.06,-0.48 0.11,-1.02 0.15,-1.64 0.04,-0.62 0.07,-1.04 0.07,-1.24 0,-1.69 -0.13,-4.06 -0.4,-7.09 -0.28,-3.03 -0.59,-6.19 -0.97,-9.5 -0.23,-2 -0.48,-4.04 -0.75,-6.12 0.32,-0.71 0.69,-1.48 1.11,-2.31 0.42,-0.83 0.81,-1.6 1.18,-2.33 0.26,1.85 0.59,4.38 0.99,7.6 0.4,3.22 0.72,6.12 0.94,8.71 0.3,3.21 0.45,5.64 0.45,7.28z"/>
 </g>
</svg>
