<?xml version="1.0" encoding="UTF-8"?>
<!DOCTYPE svg PUBLIC "-//W3C//DTD SVG 1.1//EN" "http://www.w3.org/Graphics/SVG/1.1/DTD/svg11.dtd">
<!-- Creator: CorelDRAW 2018 (64-Bit) -->
<svg xmlns="http://www.w3.org/2000/svg" xml:space="preserve" width="248px" height="59px" version="1.1" style="shape-rendering:geometricPrecision; text-rendering:geometricPrecision; image-rendering:optimizeQuality; fill-rule:evenodd; clip-rule:evenodd"
viewBox="0 0 248 59.05"
 xmlns:xlink="http://www.w3.org/1999/xlink">
 <defs>
  <style type="text/css">
   <![CDATA[
    .fil0 {fill:#2B2A29;fill-rule:nonzero}
   ]]>
  </style>
 </defs>
 <g id="Layer_x0020_1">
  <metadata id="CorelCorpID_0Corel-Layer"/>
  <path class="fil0" d="M27.28 36.46l-3.35 0c-1.97,0 -3.38,-0.37 -4.2,-1.1 -0.83,-0.74 -1.25,-1.95 -1.25,-3.65 0,-0.64 0.08,-1.43 0.25,-2.38 0.06,-0.36 0.15,-0.83 0.27,-1.41 -2.79,0.85 -4.89,1.57 -6.3,2.17 -2.61,1.11 -4.63,2.36 -6.06,3.77 -1.81,1.76 -2.71,3.75 -2.71,6 0,3.5 1.83,6.14 5.47,7.9 3.16,1.53 7.4,2.29 12.7,2.29l4.48 0 0.15 0.27 -5.51 3.88 -1.42 0c-3.51,0 -6.43,-0.32 -8.76,-0.97 -2.77,-0.78 -4.88,-2.04 -6.32,-3.77 -1.62,-1.96 -2.44,-4.57 -2.44,-7.81 0,-2.79 0.69,-5.23 2.08,-7.31 1.07,-1.63 2.65,-3.13 4.71,-4.47 0.61,-0.41 2.29,-1.35 5.04,-2.81 -0.65,-0.09 -1.34,-0.16 -2.06,-0.22 -0.73,-0.06 -1.39,-0.08 -1.97,-0.08 -1.64,0 -2.97,0.07 -4,0.21 -0.34,0.05 -1.41,0.28 -3.2,0.67 0.55,-1.6 1.14,-2.71 1.74,-3.32 1.34,-1.38 3.46,-2.06 6.34,-2.06 1.58,0 3.29,0.15 5.13,0.46 1.83,0.31 3.38,0.46 4.63,0.46 0.83,0 1.64,-0.04 2.43,-0.11 0.79,-0.06 1.62,-0.15 2.48,-0.26l-0.98 4.15c-0.66,0.08 -1.41,0.2 -2.26,0.34 -0.54,0.1 -1.27,0.24 -2.21,0.42l-0.05 1.37c0,1.34 0.41,2.24 1.22,2.7 0.5,0.28 1.36,0.42 2.59,0.42l3.34 0 0 4.25zm-9.75 -22.73l-1.88 3.53 -3.92 -2.04 1.79 -3.56 4.01 2.07z"/>
  <path id="1" class="fil0" d="M39.47 36.46l-13.9 0 0 -4.25 12.15 0c0,-1.92 -0.23,-3.38 -0.69,-4.39 -0.31,-0.7 -1.08,-1.69 -2.31,-3.01l1.92 -4c1.16,1.48 1.89,2.63 2.18,3.46 0.43,1.26 0.65,3.33 0.65,6.23l0 5.96zm-0.25 4.8l-1.8 3.55 -4 -2.05 1.85 -3.55 3.95 2.05zm-5.55 2.25l-1.81 3.5 -3.99 -2.08 1.88 -3.52 3.92 2.1z"/>
  <path id="2" class="fil0" d="M63.92 36.45c0,1.79 -0.76,3.65 -2.3,5.57 -1.33,1.69 -2.99,3.15 -4.98,4.38 -1.88,1.17 -3.44,1.75 -4.67,1.75 -1.12,0 -2.33,-0.16 -3.64,-0.49 -0.99,-0.24 -2.18,-0.63 -3.56,-1.16 -1.17,-0.44 -2.33,-0.88 -3.49,-1.32l0.41 -0.97c1.08,0.21 2.19,0.43 3.36,0.65 1.17,0.23 2.23,0.35 3.17,0.35 2.08,0 4.26,-0.67 6.52,-2 2.06,-1.23 3.81,-2.77 5.26,-4.64 1.45,-1.86 2.17,-3.54 2.17,-5.04 0,-1.29 -0.37,-2.64 -1.11,-4.06 -0.6,-1.14 -1.45,-2.3 -2.54,-3.51l1.38 -3.85c1.33,1.24 2.31,2.47 2.95,3.72 0.71,1.39 1.07,2.96 1.07,4.69l0 5.93z"/>
  <path id="3" class="fil0" d="M75.41 36.46l-3.43 0c-1.12,0 -2.01,-0.45 -2.67,-1.35 -0.6,-0.78 -1.05,-1.94 -1.35,-3.49 -0.29,-1.54 -0.53,-3.44 -0.7,-5.7 -0.09,-1.84 -0.19,-3.72 -0.3,-5.66 -0.1,-1.93 -0.24,-3.4 -0.41,-4.4 -0.18,-1 -0.41,-1.82 -0.7,-2.45 -0.35,-0.78 -0.85,-1.47 -1.48,-2.05l2.97 -4.75c0.65,1.95 1.11,4.28 1.37,7 0.17,1.7 0.34,5.7 0.5,12.01 0.3,2.9 0.72,4.75 1.28,5.56 0.46,0.69 0.96,1.03 1.49,1.03l3.43 0 0 4.25z"/>
  <path id="4" class="fil0" d="M87.59 36.46l-13.9 0 0 -4.25 12.15 0c0,-1.92 -0.24,-3.38 -0.69,-4.39 -0.31,-0.7 -1.08,-1.69 -2.31,-3.01l1.92 -4c1.16,1.48 1.89,2.63 2.18,3.46 0.43,1.26 0.65,3.33 0.65,6.23l0 5.96zm-0.15 -24.15l-1.8 3.55 -4 -2.05 1.85 -3.55 3.95 2.05zm-5.55 2.25l-1.81 3.5 -3.99 -2.08 1.88 -3.52 3.92 2.1z"/>
  <path id="5" class="fil0" d="M97.94 36.46l-12.04 0 0 -4.25 9.59 0 -3 -20.77 -1.25 -0.6c0,-1.11 0.1,-2.16 0.3,-3.15 0.2,-0.97 0.49,-1.93 0.88,-2.85l0.37 0.27c0,0.94 0.54,1.65 1.61,2.13 0.82,0.32 1.65,0.65 2.49,0.97 0,0.81 -0.06,1.67 -0.2,2.58 -0.12,0.93 -0.28,1.61 -0.46,2.06l-1.19 -0.39 2.9 19.2 0 4.8z"/>
  <path id="6" class="fil0" d="M106.19 30.22c0,1.3 -0.24,2.57 -0.71,3.79 -0.25,0.65 -0.79,1.68 -1.61,3.1l-0.44 -0.25c0.05,-0.47 0.1,-1.01 0.15,-1.64 0.04,-0.61 0.06,-1.03 0.06,-1.24 0,-1.69 -0.13,-4.06 -0.4,-7.09 -0.27,-3.03 -0.59,-6.2 -0.96,-9.51 -0.24,-2 -0.49,-4.04 -0.76,-6.12 0.32,-0.72 0.7,-1.48 1.11,-2.32 0.42,-0.82 0.81,-1.6 1.19,-2.33 0.26,1.85 0.59,4.39 0.99,7.61 0.4,3.22 0.72,6.12 0.94,8.71 0.29,3.22 0.44,5.65 0.44,7.29z"/>
  <polygon id="7" class="fil0" points="122.18,44.21 132.58,7.21 136.12,7.21 125.72,44.21 "/>
  <path id="8" class="fil0" d="M176.26 36.46c0,3.62 -1.07,6.29 -3.2,7.99 -2.29,1.84 -5.99,2.76 -11.1,2.76 -3.26,0 -5.74,-0.57 -7.46,-1.71 -1.89,-1.26 -2.84,-3.18 -2.84,-5.77 0,-1.4 0.18,-2.82 0.52,-4.25 0.34,-1.43 0.81,-2.87 1.39,-4.32 0.37,-0.88 0.98,-2.23 1.87,-4.05l0.97 0.44c-1.13,2.34 -1.88,4.18 -2.25,5.53 -0.36,1.35 -0.55,2.58 -0.55,3.71 0,2.02 0.72,3.54 2.16,4.59 1.44,1.05 3.49,1.58 6.16,1.58 3.07,0 5.79,-0.55 8.16,-1.64 2.95,-1.34 4.42,-3.22 4.42,-5.64 0,-1.65 -0.24,-3.19 -0.73,-4.62 -0.43,-1.26 -1.04,-2.36 -1.82,-3.3l2.02 -5c0.87,1.31 1.46,2.66 1.79,4.02 0.32,1.36 0.49,3.18 0.49,5.44l0 4.24zm-9.05 -18.73l-1.88 3.53 -3.92 -2.04 1.79 -3.56 4.01 2.07z"/>
  <path id="9" class="fil0" d="M187.75 36.46l-3.43 0c-1.12,0 -2.01,-0.45 -2.68,-1.35 -0.59,-0.78 -1.04,-1.94 -1.34,-3.49 -0.3,-1.54 -0.53,-3.44 -0.7,-5.7 -0.1,-1.84 -0.2,-3.72 -0.31,-5.66 -0.1,-1.93 -0.24,-3.4 -0.41,-4.4 -0.17,-1 -0.4,-1.82 -0.7,-2.45 -0.35,-0.78 -0.85,-1.47 -1.48,-2.05l2.98 -4.75c0.65,1.95 1.1,4.28 1.37,7 0.17,1.7 0.33,5.7 0.5,12.01 0.29,2.9 0.72,4.75 1.28,5.56 0.45,0.69 0.95,1.03 1.49,1.03l3.43 0 0 4.25z"/>
  <path id="10" class="fil0" d="M207.42 36.46l-21.4 0 0 -4.25 18.58 0c-1.14,-1.73 -2.44,-3.23 -3.91,-4.5 -1.47,-1.28 -3.45,-2.66 -5.94,-4.13l-0.81 0.75 -2.89 -2.2c-1.02,-0.84 -1.53,-1.5 -1.53,-1.97 0,-2.8 0.69,-5 2.06,-6.6 1.28,-1.47 3.47,-2.79 6.58,-3.96l6.91 -2.69 0 4.25 -5.11 1.71c-2.04,0.66 -3.69,1.27 -4.94,1.82 -1.6,0.7 -2.4,1.24 -2.4,1.62 0,0.37 0.53,0.95 1.57,1.72 0.65,0.5 1.31,0.98 1.97,1.47 2.48,1.87 4.64,3.83 6.48,5.88 1.98,2.19 3.57,4.47 4.78,6.83l0 4.25z"/>
  <path id="11" class="fil0" d="M227.12 36.46l-2.53 0c-1.1,0 -2.32,-0.25 -3.69,-0.75 -1.57,-0.56 -2.96,-1.35 -4.16,-2.35 -0.94,1.16 -1.91,1.97 -2.89,2.42 -0.99,0.45 -2.43,0.68 -4.32,0.68l-3.81 0 0 -4.25 3.73 0c1.49,0 2.8,-0.38 3.95,-1.13 0.9,-0.59 1.71,-1.41 2.45,-2.47 0.99,-1.44 2.21,-2.69 3.66,-3.74 1.3,-0.95 2.49,-1.55 3.58,-1.81 1.13,1.71 2.02,3.25 2.69,4.62 0.89,1.86 1.34,3.37 1.34,4.52l0 4.26zm-2.8 -4.82c-0.21,-0.95 -0.53,-1.88 -0.98,-2.8 -0.37,-0.77 -0.87,-1.57 -1.49,-2.38 -0.77,0.2 -1.43,0.56 -1.96,1.11 -0.36,0.34 -0.79,0.92 -1.27,1.74 0.58,0.64 1.41,1.21 2.47,1.71 1.06,0.51 2.07,0.82 3.01,0.94l0.22 -0.32z"/>
  <path id="12" class="fil0" d="M237.47 36.46l-12.05 0 0 -4.25 9.6 0 -3 -20.77 -1.25 -0.6c0,-1.11 0.1,-2.16 0.29,-3.15 0.2,-0.97 0.49,-1.93 0.88,-2.85l0.38 0.27c0,0.94 0.53,1.65 1.61,2.13 0.81,0.32 1.65,0.65 2.49,0.97 0,0.81 -0.07,1.67 -0.2,2.58 -0.13,0.93 -0.29,1.61 -0.47,2.06l-1.18 -0.39 2.9 19.2 0 4.8z"/>
  <path id="13" class="fil0" d="M245.72 30.22c0,1.3 -0.25,2.57 -0.72,3.79 -0.25,0.65 -0.78,1.68 -1.61,3.1l-0.44 -0.25c0.06,-0.47 0.11,-1.01 0.15,-1.64 0.04,-0.61 0.07,-1.03 0.07,-1.24 0,-1.69 -0.14,-4.06 -0.4,-7.09 -0.28,-3.03 -0.6,-6.2 -0.97,-9.51 -0.23,-2 -0.48,-4.04 -0.76,-6.12 0.33,-0.72 0.7,-1.48 1.12,-2.32 0.41,-0.82 0.81,-1.6 1.18,-2.33 0.26,1.85 0.59,4.39 0.99,7.61 0.4,3.22 0.72,6.12 0.94,8.71 0.3,3.22 0.45,5.65 0.45,7.29z"/>
 </g>
</svg>
